<svg width="144px" height="118px" viewBox="0 0 144 118" version="1.1" xmlns:xlink="http://www.w3.org/1999/xlink" xmlns="http://www.w3.org/2000/svg">
  <desc>Created with Lunacy</desc>
  <g id="Group">
    <path d="M0.648037 34.5421C0.626437 34.5439 0.604837 34.5457 0.583237 34.5457C0.257437 34.5421 -0.0035632 34.2739 3.67978e-05 33.9481L0.396037 0.583282C0.399637 0.257482 0.658837 -0.00531825 0.993637 8.17542e-05C1.31944 0.00368175 1.58044 0.271882 1.57684 0.597682L1.18084 33.9625C1.17904 34.2667 0.945037 34.5151 0.648037 34.5421" transform="translate(103.8789 62.43732)" id="Fill-3" fill="#3A3942" stroke="none"/>
    <path d="M0.591448 41.7035C0.552208 41.7035 0.512428 41.6999 0.472648 41.6909C0.152968 41.6261 -0.0531322 41.313 0.0120278 40.9944L8.28285 0.472746C8.34945 0.152346 8.66265 -0.0528537 8.98125 0.0119463C9.29984 0.0767463 9.50684 0.389946 9.44024 0.708546L1.16961 41.2301C1.11237 41.5109 0.866668 41.7035 0.591448 41.7035" transform="translate(89.79688 60.89185)" id="Fill-4" fill="#3A3942" stroke="none"/>
    <path d="M8.86127 41.7035C8.58587 41.7035 8.34107 41.5109 8.28347 41.2301L0.012468 0.708546C-0.054132 0.389946 0.152868 0.0767463 0.471468 0.0119463C0.790068 -0.0528537 1.10327 0.152346 1.16987 0.472746L9.44087 40.9944C9.50567 41.313 9.30047 41.6261 8.98007 41.6909C8.94047 41.6999 8.90087 41.7035 8.86127 41.7035" transform="translate(114.543 60.89185)" id="Fill-5" fill="#3A3942" stroke="none"/>
    <path d="M25.9054 4.7124C25.9054 7.3152 20.1058 9.4266 12.9526 9.4266C5.79942 9.4266 0 7.3152 0 4.7124C0 2.1096 5.79942 0 12.9526 0C20.1058 0 25.9054 2.1096 25.9054 4.7124" transform="translate(93.20703 54.79999)" id="Fill-6" fill="#3A3942" stroke="none"/>
    <path d="M24.0381 3.5964L23.4981 3.5964C23.4981 3.6324 23.4927 3.6666 23.4747 3.7134C23.4423 3.798 23.3595 3.9222 23.1975 4.0644C22.9167 4.3128 22.4127 4.59 21.7431 4.8384C20.7351 5.2146 19.3545 5.5386 17.7363 5.7618C16.1181 5.9868 14.2605 6.1146 12.2877 6.1146C9.0819 6.1164 6.1785 5.7744 4.1157 5.2362C3.0861 4.9698 2.26512 4.6494 1.74456 4.3272C1.4841 4.167 1.30194 4.0086 1.20114 3.879C1.15038 3.8142 1.11924 3.7584 1.1016 3.7134C1.08378 3.6666 1.07802 3.6324 1.07766 3.5964C1.07802 3.5604 1.08378 3.5262 1.1016 3.4794C1.13364 3.3948 1.21788 3.2688 1.37988 3.1284C1.6605 2.88 2.16306 2.6028 2.8341 2.3544C3.8403 1.9782 5.2227 1.6542 6.8409 1.431C8.4591 1.206 10.3149 1.0782 12.2877 1.0782C15.4935 1.0764 18.3969 1.4184 20.4615 1.9566C21.4911 2.223 22.3119 2.5434 22.8321 2.8656C23.0931 3.024 23.2749 3.1842 23.3757 3.3138C23.4261 3.3768 23.4567 3.4344 23.4747 3.4794C23.4927 3.5262 23.4981 3.5604 23.4981 3.5964L24.5763 3.5964C24.5763 3.42 24.5421 3.2472 24.4791 3.087C24.3603 2.7864 24.1569 2.538 23.9067 2.3166C23.4657 1.9332 22.8645 1.6236 22.1193 1.3446C21.0033 0.9288 19.5597 0.5958 17.8839 0.3636C16.2099 0.1314 14.3073 0 12.2877 0C9.0045 0 6.0345 0.3438 3.8439 0.9126C2.7477 1.1988 1.84842 1.5372 1.1799 1.9476C0.845821 2.1528 0.566281 2.3778 0.354061 2.646C0.248401 2.781 0.160021 2.9286 0.0975607 3.087C0.0351007 3.2472 -0.000179315 3.42 6.85415e-07 3.5964C-0.000179315 3.771 0.0351007 3.9456 0.0975607 4.104C0.215821 4.4046 0.419581 4.6548 0.670321 4.8744C1.1115 5.2578 1.71252 5.5692 2.45718 5.8482C3.5739 6.264 5.0175 6.597 6.6915 6.8292C8.3655 7.0614 10.2681 7.1928 12.2877 7.1928C15.5709 7.191 18.5427 6.849 20.7315 6.2802C21.8277 5.994 22.7277 5.6556 23.3973 5.2452C23.7303 5.0382 24.0111 4.8132 24.2235 4.545C24.3279 4.4118 24.4161 4.2642 24.4791 4.104C24.5421 3.9456 24.5763 3.771 24.5763 3.5964L24.0381 3.5964" transform="translate(94.62891 75.0896)" id="Fill-7" fill="#3A3942" stroke="none"/>
    <path d="M23.9941 28.1976C23.9815 28.1208 23.9401 28.0558 23.8753 28.0146C23.8339 27.9789 23.7925 27.9554 23.7403 27.9377C23.6215 27.9082 23.5027 27.8844 23.3857 27.8785L23.3497 27.8785C22.7467 27.8254 22.1203 28.0263 21.5173 28.369C20.4427 28.9833 19.4617 30.0646 18.8839 31.0454C18.8065 30.3719 18.7183 29.6983 18.6121 29.0247C18.5041 28.2803 18.3745 27.536 18.2323 26.7974C18.2161 26.6792 18.1927 26.567 18.1675 26.4488C18.0793 25.9939 17.9857 25.5389 17.8903 25.084C18.0433 24.9657 18.1927 24.8477 18.3331 24.7296C19.3375 23.9082 20.2015 23.0633 20.7091 21.7281C20.7793 21.5331 20.8675 21.2732 20.9341 21.0014C21.1051 20.2748 21.1051 19.4594 20.1709 19.5125C19.1251 19.5774 18.3511 20.7001 17.8255 21.5094C17.8129 21.5272 17.8021 21.545 17.7895 21.5627C17.6131 21.8463 17.4349 22.1594 17.2765 22.4785C17.0335 21.5745 16.7743 20.6765 16.4899 19.7783C16.2775 19.0754 16.0417 18.3664 15.7987 17.6691C15.7753 17.5865 15.7465 17.5096 15.7159 17.4268C15.7339 17.4092 15.7519 17.3915 15.7753 17.3796C16.0525 17.1433 16.3783 16.9719 16.6375 16.712C16.8571 16.4993 17.0461 16.257 17.1991 15.9911C17.2873 15.8612 17.3593 15.7195 17.4295 15.5775C17.7895 14.8451 17.9317 14.0297 18.0613 13.1966C18.1099 12.8303 18.1801 12.1803 18.0793 11.6191C17.9857 11.0636 17.6959 10.6206 17.1109 10.6856C15.9769 10.8215 15.5323 12.5407 15.2317 13.4447C15.0661 13.9883 14.9239 14.5733 14.8123 15.1757C13.9141 13.1198 12.8323 11.1464 11.5399 9.31474C12.5317 8.72398 12.9925 7.0993 12.8215 5.93542C12.7567 5.46274 12.6271 4.99006 12.4021 4.55284C12.1771 4.12156 11.8873 3.70198 11.5561 3.3121C11.2087 2.93392 10.8127 2.58526 10.3987 2.27224C9.99115 1.95904 9.51847 1.711 9.07531 1.4806C8.83321 1.3564 8.61451 1.5337 8.64997 1.77004C8.98081 3.56608 9.19339 5.36824 9.69559 6.95746C8.92753 6.1066 8.12995 5.2795 7.23787 4.55284C6.72973 3.21166 5.84359 1.97686 4.63237 1.06102C3.39757 0.198464 1.78459 -0.250636 0.195185 0.145184C0.0297652 0.180644 -0.0411548 0.381704 0.0240052 0.523364C0.213005 0.948704 0.455285 1.3033 0.732845 1.61056C0.868745 1.7641 1.01653 1.9 1.17007 2.02996C1.31785 2.17774 1.47139 2.31346 1.63087 2.43766C2.27491 2.91628 2.97205 3.3652 3.61609 3.75526C3.97663 4.00924 4.37245 4.17466 4.76827 4.36384C5.15221 4.56454 5.57179 4.7242 5.97949 4.9132C6.35155 5.1022 6.73567 5.25592 7.10791 5.43898C7.47421 5.62816 7.82287 5.87026 8.14183 6.17176C8.75041 6.7861 9.34117 7.41826 9.87883 8.1037C9.42397 7.82596 8.92753 7.6015 8.40769 7.4656C7.89955 7.31782 7.38565 7.22926 6.87157 7.26472C5.85529 7.31188 4.94539 7.72552 4.21873 8.5762C4.08877 8.72992 4.11829 8.90128 4.24825 8.9722C4.96321 9.32662 6.12133 9.71074 7.35019 9.97066C8.59093 10.1892 9.89665 10.2601 10.9369 9.5158L10.9963 9.59248C11.0071 9.6103 11.0251 9.622 11.0431 9.63388C12.4309 11.5896 13.5595 13.7283 14.4991 15.938C14.0743 15.5244 13.5721 15.1876 13.2409 14.9808C12.5857 14.5378 11.8927 14.1832 11.1619 13.9587C10.4401 13.7224 9.66607 13.6279 8.88037 13.681C8.68543 13.6929 8.56141 13.8702 8.58499 14.0356C8.69731 14.7268 9.03391 15.2704 9.55987 15.6898C9.63655 15.7607 9.71935 15.8257 9.80197 15.8847C10.2565 16.2334 10.8235 16.4933 11.3617 16.7239C11.5921 16.8182 11.8405 16.8893 12.0943 16.9424C13.0933 17.1728 14.2219 17.2261 15.0139 17.9054C16.2721 19.0162 16.0003 21.2909 16.7095 22.7325C16.7203 22.762 16.7383 22.7856 16.7509 22.8151C16.7329 22.7856 16.7149 22.7503 16.6969 22.7206C15.8347 21.1136 14.2741 19.6307 12.6919 18.9748C12.2473 18.7858 11.8045 18.6675 11.3743 18.6263C11.2267 18.6144 11.0485 18.7149 11.0251 18.8567C10.8307 20.3338 11.6569 21.5331 12.8215 22.5611C12.9511 22.6734 13.0807 22.7798 13.2175 22.886C13.6549 23.2347 14.1211 23.5596 14.5999 23.8609C14.7835 23.9732 14.9599 24.0855 15.1435 24.1979C15.6979 24.5285 16.2415 24.8241 16.7383 25.084C16.7671 25.1018 16.7977 25.1195 16.8265 25.1313C16.9219 25.1785 17.0227 25.2257 17.1109 25.273C17.1397 25.2849 17.1703 25.2968 17.1991 25.2968C17.2279 25.3025 17.2585 25.3025 17.2873 25.2968C17.2999 25.3085 17.3179 25.3144 17.3359 25.3203C17.4421 25.8225 17.5411 26.3247 17.6365 26.8269C17.6419 26.8624 17.6491 26.8979 17.6545 26.9274C17.8075 27.7309 17.9443 28.5285 18.0559 29.332C18.1333 29.8225 18.1981 30.3069 18.2503 30.7972C18.2629 30.8564 18.2683 30.9214 18.2737 30.9804C18.2395 30.9272 18.2089 30.88 18.1747 30.8269C18.0919 30.7086 18.0091 30.5906 17.9209 30.4723C17.7895 30.2952 17.6491 30.1179 17.4943 29.9465C17.0875 29.4857 16.6195 29.0661 16.1173 28.7353C15.6403 28.4102 15.1309 28.1681 14.6053 28.0382L14.5999 28.0382C14.2273 27.9377 13.8439 27.9023 13.4659 27.9318C13.3345 27.9437 13.2409 28.0617 13.2283 28.18C13.2175 28.2331 13.2229 28.2862 13.2517 28.3276C13.4425 28.623 13.6423 28.9302 13.8619 29.2434C14.6593 30.3895 15.6511 31.5771 16.9093 32.298C17.0749 32.3925 17.2405 32.4811 17.4169 32.552C17.4349 32.5639 17.4529 32.5756 17.4709 32.5756C17.5897 32.6348 17.7139 32.682 17.8435 32.7234L17.8615 32.7293C17.9497 32.7648 18.0379 32.7884 18.1261 32.8119C18.2395 32.8474 18.3565 32.8769 18.4753 32.9007C18.5401 32.9124 18.5815 33.3969 18.6049 33.9818L18.6049 33.9877C18.6229 34.3304 18.6355 34.7027 18.6409 35.0454C18.6589 35.5712 18.6589 36.0143 18.6643 36.1205L18.6643 36.2093C18.6697 36.2683 18.6697 36.3216 18.6697 36.3806C18.6769 36.4692 18.6769 36.5637 18.6769 36.6522C18.6823 36.7055 18.6823 36.7586 18.6823 36.8119C18.6949 37.2313 18.7003 37.6449 18.7003 38.0645C18.7003 38.3007 18.7003 38.543 18.6949 38.7852C18.7003 39.0452 18.6949 39.311 18.6877 39.5769C18.6823 39.8132 18.6769 40.0496 18.6697 40.28C18.6697 40.3451 18.6697 40.4042 18.6643 40.4632C18.6535 40.9121 18.6355 41.3553 18.6049 41.7925C18.5401 42.8502 18.4285 43.9017 18.2215 44.9416L18.2215 44.9475C18.1801 45.1425 18.1387 45.3374 18.0847 45.5324C18.0793 45.5856 18.0613 45.6447 18.0505 45.6978C18.0145 45.8456 17.9731 45.9933 17.9443 46.1469C18.0199 46.1469 18.0973 46.1528 18.1747 46.1528L18.3043 46.1528C18.5041 46.1588 18.7111 46.1647 18.9181 46.1588L18.9181 46.1469C18.9649 44.6934 19.0891 43.2401 19.1791 41.7808C19.1899 41.6094 19.2025 41.4381 19.2079 41.2608C19.2259 40.989 19.2367 40.7172 19.2493 40.4454C19.2619 40.1678 19.2727 39.8841 19.2781 39.6066C19.2781 39.5357 19.2853 39.4646 19.2853 39.3938L19.2853 39.3346C19.2907 39.1811 19.2727 38.6258 19.2493 37.8932C19.2439 37.698 19.2367 37.4972 19.2313 37.2846L19.2313 37.1663C19.2205 36.8533 19.2079 36.5282 19.1971 36.2033C19.1971 36.1324 19.1899 36.0615 19.1845 35.9846C19.1719 35.5476 19.1557 35.1044 19.1377 34.6967C19.1251 34.2654 19.1071 33.8637 19.0963 33.5327C19.0657 32.9774 19.0477 32.617 19.0369 32.617C19.1791 32.5875 19.3195 32.558 19.4563 32.5166C19.9351 32.3925 20.3959 32.1974 20.8387 31.9494C21.0925 31.8135 21.3355 31.6599 21.5767 31.4886C21.6721 31.4236 21.7729 31.3467 21.8665 31.2758C22.0609 31.1282 22.2391 30.9628 22.3993 30.7913C22.4695 30.7203 22.5343 30.6437 22.5991 30.561C23.1247 29.9346 23.5099 29.202 23.9527 28.4516C24.0049 28.3631 24.0175 28.2803 23.9941 28.1976" transform="translate(87.01172 0)" id="Fill-8" fill="#00B580" stroke="none"/>
    <path d="M28.994 4.05605C28.1264 2.91575 26.2652 2.64413 24.6578 2.60849C23.7362 2.59085 22.838 2.76815 21.9524 3.00431C21.1316 3.21113 20.4098 3.54215 19.553 3.68381C18.7142 3.83753 17.8754 4.01483 17.0546 4.26287C18.7682 3.15209 20.687 1.82873 20.5106 0.180292C20.4926 0.0325122 20.2748 -0.0382278 20.0858 0.0208122C19.004 0.339772 17.5802 1.03115 16.5758 1.94681C15.5588 2.85671 15.0278 3.94967 15.3932 4.81223L15.305 4.85363C15.2816 4.85957 15.269 4.87739 15.2528 4.88315C14.1476 5.32055 13.1072 5.91725 12.1208 6.59081C11.1452 7.27607 10.2596 8.07959 9.44963 8.94215C9.69263 8.43995 9.88703 7.89059 10.0472 7.54787C10.6556 6.13577 11.318 4.72961 11.6312 3.33533C11.6726 3.15803 11.4944 3.09305 11.282 3.16397C10.3838 3.44747 9.65123 4.05605 9.13103 4.72961C8.60543 5.40911 8.29223 6.17717 8.11583 6.88025C7.83683 8.08553 8.34623 9.18443 8.02583 10.3602C7.81883 11.1223 7.29323 11.8078 6.74423 12.5168C6.29603 13.0957 5.83523 13.6924 5.54543 14.3009C5.48063 14.4309 5.42663 14.561 5.37983 14.691C5.42663 14.561 5.46803 14.437 5.50943 14.3009C5.82263 13.3379 6.05303 12.2862 6.20603 11.2701C6.37883 10.1181 6.44363 9.00731 6.27083 8.15051C6.24203 8.02649 6.10703 7.95557 5.95763 8.05007C4.53383 8.98949 3.83183 10.573 3.64823 12.1327C3.51863 13.0426 3.56003 13.9584 3.67703 14.7914C3.75983 15.3822 3.88403 15.9317 4.01543 16.3985C4.02083 16.428 4.02623 16.4575 4.03883 16.4811C4.06223 16.5698 4.09103 16.6584 4.10903 16.741C4.12703 16.7943 4.16303 16.8298 4.19723 16.8533L4.20983 16.8947C4.04423 17.2315 3.88403 17.5683 3.73643 17.911C3.55463 18.3068 3.37643 18.7145 3.21083 19.1163C2.82203 20.0379 2.46743 20.9714 2.14703 21.9227C2.13623 21.9641 2.11823 21.9995 2.10563 22.0408C2.10563 22.0112 2.10023 21.9817 2.10023 21.9522C2.07683 21.4619 2.03543 20.9537 1.95803 20.4575C1.91663 20.1562 1.86443 19.8606 1.79243 19.5712C1.76363 19.459 1.73483 19.3467 1.70423 19.2403C1.67543 19.1399 1.64483 19.0394 1.61603 18.939C1.47923 18.5077 1.30283 18.1238 1.06703 17.8046C0.90683 17.5742 0.71783 17.3791 0.50003 17.2375C0.47483 17.2196 0.44063 17.2137 0.41003 17.2196C0.38663 17.2256 0.36323 17.2315 0.33443 17.2493C0.24443 17.2965 0.16163 17.4029 0.15083 17.515C0.0968296 17.8577 0.0554296 18.2181 0.0320296 18.5786C0.0140296 18.7676 0.00862961 18.9568 0.00322961 19.1458C-0.00217039 19.4471 -0.00217039 19.7544 0.0140296 20.0498L0.0140296 20.0793C0.0392296 20.4515 0.0806296 20.8238 0.14543 21.1723C0.24443 21.7337 0.39923 22.2535 0.62963 22.7026C0.65303 22.7557 0.67643 22.8031 0.71243 22.8562C0.72323 22.8916 0.74663 22.9271 0.76463 22.9566C0.78803 22.998 0.81323 23.0394 0.83663 23.0747C0.98423 23.2993 1.15523 23.5002 1.34963 23.6716C1.36223 23.6833 1.37303 23.6951 1.39103 23.707C1.43783 23.7542 1.49183 23.7956 1.54583 23.831C1.49723 23.9905 1.45043 24.1559 1.40903 24.3156C1.35683 24.5165 1.29743 24.7231 1.24883 24.924C1.16063 25.2491 1.08503 25.574 1.00763 25.9048C0.94823 26.1647 0.88883 26.4306 0.82943 26.7024C0.81863 26.7614 0.80603 26.8266 0.79523 26.8916C0.69983 27.3346 0.61163 27.7777 0.54143 28.2268C0.44603 28.7585 0.36323 29.2903 0.29303 29.8279C0.22823 30.3006 0.17423 30.7731 0.12743 31.2517C0.0860296 31.6889 0.0500296 32.1263 0.0212296 32.5693L0.10403 32.5693C0.17963 32.5693 0.25703 32.5753 0.33443 32.5753L0.46403 32.5753C0.55763 31.1158 0.73583 29.6566 0.98963 28.209C1.06703 27.7955 1.14263 27.3878 1.22543 26.9742C1.23263 26.9447 1.24343 26.9092 1.24883 26.8738C1.30823 26.5903 1.36763 26.3125 1.43783 26.029C1.44503 25.9876 1.45583 25.9522 1.46303 25.9108C1.63403 25.1782 1.82303 24.4573 2.03543 23.7365C2.47283 23.8075 2.92103 23.7956 3.37103 23.7187C3.72563 23.6656 4.08023 23.5769 4.42223 23.4707C4.63463 23.4057 4.83083 23.3229 5.01983 23.2343C5.65163 22.9211 6.19523 22.4782 6.83243 22.094C6.99803 21.9877 7.01063 21.7808 6.88643 21.6568C6.41303 21.1487 5.64443 21.0128 4.82363 21.1606C4.59323 21.2018 4.36283 21.261 4.13243 21.3436C3.89123 21.4264 3.65363 21.5328 3.43043 21.6568C3.08663 21.8339 2.76263 22.0586 2.48363 22.3009C2.59163 21.97 2.70863 21.6449 2.82743 21.32C3.08123 20.5993 3.36563 19.8844 3.66623 19.1813C3.93803 18.5137 4.23863 17.8577 4.55903 17.2137C4.58783 17.1428 4.62383 17.0661 4.65803 16.9952C4.69403 16.9892 4.72283 16.9892 4.75883 16.9835C5.60483 16.9066 6.38423 16.8298 7.18163 16.558C7.47683 16.4575 7.77203 16.3335 8.07983 16.1681C8.41103 15.9791 8.96543 15.6895 9.19583 15.3291C9.35063 15.0987 9.36683 14.8445 9.11303 14.5668C8.57663 13.9701 7.51283 14.1712 6.74423 14.4133C6.55523 14.4723 6.35363 14.5373 6.15383 14.6201C6.05303 14.6615 5.95223 14.7027 5.85143 14.75C5.91083 14.6437 5.97563 14.5432 6.03503 14.437C6.82163 13.1016 7.67123 11.7901 8.63423 10.5789C8.93663 10.632 9.19583 10.7915 9.49103 10.8505C9.84023 10.9214 10.2056 10.9214 10.5782 10.8919C11.2046 10.8448 11.831 10.691 12.434 10.5789C12.7004 10.5197 13.1612 10.443 13.5158 10.3012C13.8632 10.1593 14.1116 9.94079 13.9928 9.51527C13.8758 9.10775 13.5086 8.85359 13.0424 8.70581C12.587 8.56991 12.0434 8.55821 11.6546 8.58179C11.1866 8.60555 10.6736 8.68223 10.1588 8.84765C10.9094 8.09147 11.7122 7.39433 12.5996 6.80339C13.4852 6.21839 14.414 5.69855 15.4004 5.30867C15.5354 5.72231 15.908 6.05315 16.3454 6.33665C16.7828 6.60845 17.267 6.80339 17.699 6.92741C19.0742 7.29389 20.588 6.93353 22.0046 6.47849C22.1936 6.41351 22.2296 6.20075 22.082 6.09437C20.9714 5.29679 19.6304 4.59371 18.0932 4.44017C19.1462 4.18601 20.2208 4.00295 21.2972 3.87893C23.7596 4.60559 26.2526 5.27915 28.895 4.36331C29.03 4.31021 29.0714 4.15649 28.994 4.05605" transform="translate(104.8555 13.57758)" id="Fill-9" fill="#0A8E6D" stroke="none"/>
    <path d="M29.9975 18.2541C29.2649 18.1124 28.5809 18.5791 28.0373 19.3058C27.7241 19.7193 27.4577 20.2216 27.2561 20.7355C27.1445 21.0192 27.0563 21.3027 26.9843 21.5805L26.9789 21.5864C26.9735 21.6159 26.9681 21.6395 26.9609 21.669C26.8439 21.2791 26.7251 20.8893 26.6009 20.4992C26.5829 20.4461 26.5721 20.3988 26.5541 20.3457C26.1581 19.099 25.7261 17.8701 25.2473 16.6589C25.1771 16.458 25.0997 16.2571 25.0169 16.0622C25.0997 15.9439 25.1825 15.8199 25.2725 15.7018L25.2725 15.6957C25.7675 14.9691 26.1869 14.2305 26.3291 13.2204C26.3525 13.0902 26.3651 12.9486 26.3705 12.8008C26.3759 12.7534 26.3831 12.7003 26.3831 12.6471C26.4173 12.0801 26.3651 10.9574 25.8395 10.6561L25.8269 10.6442C25.7441 10.597 25.6505 10.5675 25.5443 10.5675C25.4849 10.5675 25.4255 10.5733 25.3607 10.5852C24.7577 10.7153 24.4625 11.4301 24.2735 12.1215C24.2195 12.3281 24.1727 12.523 24.1313 12.7063C24.0953 12.8658 24.0611 13.0254 24.0305 13.1966C24.0017 13.3503 23.9783 13.5039 23.9549 13.6693C23.4689 12.6827 22.9379 11.7255 22.3475 10.8096C21.9983 10.2721 21.6383 9.75806 21.2477 9.25586C21.3665 8.97218 21.5789 8.75366 21.6905 8.4581C21.8219 8.1215 21.8687 7.73144 21.8561 7.31798C21.8507 7.18208 21.8381 7.04024 21.8219 6.8984C21.7445 6.31952 21.5609 5.71094 21.3251 5.12018C21.2945 5.04332 21.2657 4.96052 21.2243 4.86602C21.0821 4.53518 20.8751 4.1039 20.5925 3.75524C20.2379 3.30614 19.7825 2.98718 19.3397 3.18806C19.0857 3.30614 18.9677 3.53078 18.932 3.80834C18.9025 3.98564 18.9084 4.18652 18.9263 4.39334C18.9853 4.92506 19.1448 5.50412 19.2452 5.91776C19.3685 6.40214 19.5107 6.9398 19.6817 7.45982C18.1344 5.90588 16.3089 4.60016 14.2527 3.80258C14.4477 3.41252 14.3946 2.90438 14.1701 2.38454C13.9395 1.88234 13.5201 1.38014 13.077 1.04336C12.3444 0.482121 11.3578 0.139401 10.3534 0.0389614C9.34306 -0.0614786 8.3149 0.0389614 7.42282 0.263421C7.1746 0.322641 7.1332 0.541161 7.30474 0.641601C8.6281 1.457 10.0166 2.33126 11.4228 3.05216C10.3061 2.88674 9.17764 2.8394 8.04904 2.89268C6.80254 2.44358 5.40826 2.19554 4.03162 2.26646C2.6548 2.33126 1.31362 2.70944 0.102402 3.48938C-0.0275584 3.572 -0.0275584 3.73166 0.0671216 3.80834C1.231 4.7006 3.13936 4.49378 4.71688 4.31648C5.62678 4.21604 6.4834 3.95612 7.3519 3.74354C8.15542 3.54842 8.90584 3.2885 9.78028 3.33566C10.625 3.37706 11.4642 3.48938 12.2913 3.66668C11.2809 3.72572 10.2825 4.05656 9.58534 4.58234C8.88226 5.10236 8.46862 5.82902 8.4922 6.64442C8.49814 6.79796 8.65186 6.8867 8.79352 6.857C9.60298 6.668 10.6545 6.33716 11.6354 5.9354C12.6045 5.5277 13.5851 5.04926 13.9219 4.16294L14.0106 4.1984C14.0342 4.20434 14.052 4.20434 14.0697 4.2101C16.232 5.04926 18.164 6.46118 19.7483 8.1746C19.2688 7.9028 18.7313 7.73738 18.3945 7.631C17.0237 7.18802 15.6589 7.20566 14.5836 7.79642C14.4477 7.87328 14.4419 8.0387 14.5305 8.14508C14.9085 8.61776 15.3813 8.8955 15.9307 9.09044C16.4684 9.29132 17.0829 9.3977 17.6855 9.47438C18.6959 9.61028 19.8293 9.20852 20.8823 9.79352C21.5609 10.1775 22.0451 10.9338 22.4411 11.7314C22.8425 12.5349 23.1683 13.3856 23.6345 14.0296C22.9667 13.108 22.0577 12.2691 21.1001 11.7373C20.1497 11.1878 19.1684 10.9516 18.3886 11.0638C18.2703 11.0755 18.1699 11.1937 18.2054 11.3178C18.5303 12.5585 19.4459 13.4094 20.5871 14.1952C21.5843 14.8686 22.7435 15.4772 23.7299 15.9618L23.7353 15.9618C23.8775 16.0267 24.0125 16.0917 24.1493 16.1567C24.1727 16.1743 24.1961 16.1862 24.2267 16.1922C24.3077 16.2276 24.3905 16.269 24.4679 16.3043C24.5219 16.3281 24.5687 16.3281 24.6101 16.3162C24.6209 16.3221 24.6335 16.3281 24.6515 16.3338C25.1591 17.61 25.6199 18.9098 26.0393 20.2216C26.1995 20.7001 26.3525 21.1846 26.5001 21.669C26.2643 21.356 26.0051 21.0545 25.7207 20.771C25.5731 20.6115 25.4129 20.458 25.2473 20.3221C25.1591 20.2393 25.0709 20.1684 24.9827 20.0974C24.3905 19.6249 23.7713 19.2822 23.1683 19.1523C23.0207 19.1226 22.8785 19.1049 22.7363 19.1049C22.5725 19.093 22.4177 19.1049 22.2647 19.1404C22.1279 19.1699 22.0865 19.4122 22.1873 19.5421C22.2467 19.6249 22.3115 19.7076 22.3763 19.7904C22.8317 20.3988 23.3393 21.0369 23.8883 21.61L23.9009 21.6219C24.2843 22.0177 24.6875 22.384 25.1069 22.6853C25.7153 23.1225 26.3579 23.4298 27.0257 23.4948C27.0977 23.7606 27.1679 24.0324 27.2399 24.2983C27.2687 24.3928 27.2921 24.4873 27.3155 24.582C27.4451 25.1018 27.5765 25.6216 27.6935 26.1474C27.7421 26.3366 27.7835 26.5197 27.8249 26.7088C27.8771 26.9392 27.9311 27.1696 27.9779 27.406C28.0481 27.7251 28.1201 28.05 28.1777 28.3749C28.1903 28.4044 28.1957 28.4399 28.1957 28.4754C28.2497 28.7117 28.2965 28.948 28.3379 29.1844C28.3739 29.3557 28.4081 29.5271 28.4333 29.7044C28.6691 30.9568 28.8635 32.2213 29.0237 33.4855C29.0525 33.6865 29.0831 33.8874 29.1065 34.0941C29.1587 34.0941 29.2127 34.0941 29.2595 34.0883C29.3603 34.0941 29.4539 34.0883 29.5493 34.0883C29.5259 33.9051 29.5079 33.7278 29.4791 33.5506C29.4431 33.2553 29.4071 32.9597 29.3603 32.6643C29.2235 31.6718 29.0651 30.6791 28.8815 29.6983C28.8041 29.2553 28.7213 28.8062 28.6277 28.369C28.5683 28.0441 28.5035 27.7309 28.4333 27.4119C28.4261 27.3765 28.4207 27.3469 28.4153 27.3174C28.3505 27.0161 28.2857 26.7205 28.2191 26.4252C28.1615 26.1769 28.1021 25.9289 28.0427 25.6809C27.9653 25.3617 27.8897 25.0485 27.8123 24.7355C27.7889 24.641 27.7655 24.5523 27.7349 24.4578C27.7295 24.4223 27.7241 24.3809 27.7061 24.3456C27.7007 24.2923 27.6827 24.2392 27.6647 24.186C27.5819 23.8434 27.4865 23.5007 27.3929 23.158C27.5225 23.1049 27.6521 23.0397 27.7709 22.969C27.9473 22.8685 28.1075 22.7562 28.2677 22.6203C28.5035 22.4311 28.7285 22.2067 28.9283 21.9586C29.0417 21.8344 29.1407 21.7045 29.2361 21.5686C29.4305 21.297 29.5853 20.9955 29.7095 20.6765C29.8085 20.4166 29.8913 20.1507 29.9687 19.873C30.0695 19.5007 30.1577 19.1109 30.2585 18.7149C30.3107 18.4963 30.1757 18.2895 29.9975 18.2541" transform="translate(77.88281 12.07642)" id="Fill-10" fill="#0A8E6D" stroke="none"/>
    <path d="M17.4784 10.8373C17.4298 10.8433 17.3776 10.849 17.3308 10.8669C17.1526 10.8964 16.9762 10.9614 16.8034 11.0442C16.7692 11.056 16.7386 11.0677 16.7098 11.0856L16.6864 11.0973C16.5622 11.1622 16.438 11.2391 16.3192 11.3219C16.213 11.3867 16.1122 11.4636 16.0132 11.5521C15.8584 11.6704 15.7108 11.8063 15.5758 11.9539C15.061 12.4739 14.6362 13.0942 14.3986 13.6025C14.0044 12.6215 13.549 11.6704 13.0522 10.7369C13.3114 10.4532 13.5598 10.1697 13.7794 9.88604C13.9036 9.7325 14.0098 9.57896 14.1106 9.42524C14.3518 9.053 14.5354 8.65718 14.6416 8.21402C14.6704 8.10764 14.6956 7.97768 14.7118 7.84178C14.7298 7.72964 14.737 7.61732 14.7244 7.51094C14.7118 7.2215 14.6002 6.9911 14.251 7.06202C14.2348 7.06778 14.2168 7.07372 14.1934 7.07966C14.1448 7.09154 14.098 7.10918 14.0386 7.13276C13.5256 7.36316 13.1584 7.86554 12.8992 8.34398L12.892 8.34992C12.793 8.52722 12.7102 8.69858 12.6382 8.85212C12.5446 9.05894 12.4438 9.28934 12.3556 9.51974C11.8714 8.7281 11.3692 7.9541 10.8076 7.21556C10.9732 6.9911 11.1964 6.79004 11.362 6.55982L11.38 6.5303C11.5402 6.3116 11.6518 6.0812 11.74 5.84486C11.7652 5.79752 11.776 5.75612 11.794 5.70896C11.9596 5.20676 12.001 4.69268 12.001 4.17878C12.001 4.10786 12.001 4.01336 11.9956 3.90698C11.9596 3.45788 11.8048 2.81978 11.362 2.84354C11.2792 2.8493 11.191 2.87306 11.0902 2.92616C10.3756 3.33386 10.2748 4.51556 10.1578 5.10632C10.0984 5.46668 10.0444 5.8508 10.021 6.2171C9.265 5.31314 8.4208 4.4801 7.40992 3.86558C7.91212 3.15656 7.8826 2.00438 7.50442 1.331C6.9196 0.220221 5.53702 -0.122499 4.4914 0.0369814C4.34362 0.0548014 4.27864 0.249741 4.34362 0.385641C4.88704 1.40174 5.42488 2.4299 5.99782 3.18608C5.43658 2.9735 4.85176 2.81402 4.26082 2.69576C3.15598 1.44314 1.56082 0.651501 0.0837393 1.54952C0.00687933 1.59092 -0.0226407 1.7504 0.0187593 1.8449C0.467859 3.00302 1.47226 3.29246 2.29342 3.46382C2.7661 3.55832 3.23878 3.48164 3.72316 3.41648C4.16632 3.35744 4.60948 3.2156 5.05264 3.3398C5.48392 3.46382 5.90332 3.6116 6.30508 3.7889C5.73196 3.83606 5.12338 4.08428 4.6507 4.52726C4.17226 4.97042 3.8236 5.60852 3.65224 6.41798C3.62272 6.56558 3.676 6.67196 3.74674 6.65414C4.14868 6.57152 4.69804 6.3116 5.30068 5.92172C5.89756 5.52572 6.6064 5.02352 7.0969 4.2083L7.14406 4.23188L7.17358 4.23782C8.20768 4.86998 9.0886 5.75612 9.8734 6.731C9.5656 6.61886 9.1948 6.5834 8.9752 6.55388C8.0599 6.44156 7.12048 6.61886 6.23416 7.2629C6.12202 7.34552 6.05686 7.48142 6.07468 7.55234C6.17512 8.16668 6.961 8.13716 7.86496 8.06048C8.6206 7.98362 9.6484 7.48736 10.381 7.67636C11.3512 7.93034 11.3692 9.27746 12.0244 9.83294C11.0668 9.00566 9.3658 8.62766 8.0185 9.10034C7.91806 9.1358 7.80574 9.242 7.80574 9.3248C7.79404 10.1755 8.4388 10.542 9.319 10.7545C10.1992 10.9614 11.3386 11.0087 12.2494 11.0263C12.2728 11.0323 12.2908 11.0323 12.3142 11.0323L12.5266 11.0323C12.5734 11.0323 12.6148 11.0204 12.6508 11.0028L12.6868 11.0028C13.1584 11.883 13.5904 12.7812 13.963 13.7028C12.9928 13.0825 11.5402 12.7633 10.246 13.3129C10.1218 13.366 10.0624 13.5138 10.1398 13.5611C11.1136 14.1695 12.532 14.9199 14.3284 14.6422C14.4112 14.8666 14.4886 15.0853 14.5588 15.3098C14.7064 15.7294 14.836 16.149 14.9548 16.5741C15.3616 17.9567 15.664 19.3747 15.8584 20.8045C15.8998 20.8045 15.9412 20.8104 15.9826 20.8104L16.078 20.8104C16.1536 20.8104 16.231 20.8164 16.3084 20.8164C16.285 20.6095 16.2544 20.4027 16.2184 20.1959C16.1842 19.9596 16.1428 19.7232 16.1014 19.4928C16.024 19.038 15.9304 18.5829 15.8242 18.134C15.7054 17.5963 15.5632 17.0646 15.4102 16.5329C15.2914 16.1076 15.1564 15.682 15.0142 15.2626C14.9134 14.9673 14.8126 14.6659 14.701 14.3704C15.0322 14.2228 15.3382 14.0395 15.628 13.8327C15.7756 13.7323 15.9232 13.6201 16.06 13.5019C16.231 13.36 16.3966 13.2065 16.555 13.047C16.609 12.9937 16.6558 12.9406 16.6972 12.8874C16.7512 12.8343 16.7926 12.7812 16.834 12.7281C16.9096 12.6276 16.9816 12.527 17.0464 12.4208C17.1526 12.2554 17.2408 12.084 17.3236 11.9127C17.3362 11.883 17.347 11.8594 17.365 11.8299C17.4784 11.5816 17.5774 11.3277 17.6962 11.0677C17.761 10.9142 17.644 10.8195 17.4784 10.8373" transform="translate(88.87891 25.33643)" id="Fill-11" fill="#0A8E6D" stroke="none"/>
    <path d="M24.1128 3.13516C23.3388 2.0953 21.9672 2.05408 20.8206 2.18404C20.16 2.2609 19.557 2.52676 18.9666 2.82214C18.4158 3.0997 17.955 3.46024 17.3592 3.63736C16.7796 3.81466 16.2018 4.0096 15.633 4.2283C16.7274 3.20608 17.8488 1.76446 17.442 0.157424C17.406 0.015584 17.235 -0.037516 17.1108 0.027464C16.3962 0.405644 15.4926 1.11466 14.913 1.97722C14.328 2.84572 14.0796 3.8323 14.481 4.69504L14.4162 4.72456L14.382 4.74814C12.8448 5.43934 11.385 6.32566 10.08 7.40098C10.2744 7.04062 10.4166 6.60934 10.5174 6.33736C10.9782 5.26816 11.3616 4.11004 11.4336 2.85742C11.4444 2.70388 11.2968 2.61532 11.1492 2.65078C10.4994 2.7748 9.9918 3.16468 9.6246 3.64924C9.2412 4.12192 9.0216 4.71862 8.9046 5.2858C8.6922 6.2371 9.1584 7.32412 8.8866 8.2162C8.6976 8.78356 8.2728 9.22654 7.7634 9.6283C7.3026 10.0715 6.7662 10.4792 6.5466 11.0168C7.1784 9.59284 7.5978 7.58998 7.3854 6.06574C7.3854 6.0067 7.3746 5.94172 7.362 5.8825C7.3386 5.77036 7.2198 5.67568 7.0956 5.71708C6.7896 5.81752 6.5106 5.9653 6.2694 6.14836C6.039 6.33736 5.8374 6.55606 5.6664 6.80428C5.5548 6.95782 5.454 7.12324 5.3712 7.2946C5.1876 7.66684 5.0706 8.08048 4.9986 8.50582C4.8798 9.1144 4.8978 9.75844 4.9626 10.3611C5.022 10.9637 5.1462 11.5309 5.301 12.0212C5.3064 12.0448 5.3118 12.0686 5.3244 12.0921C5.3478 12.1631 5.3658 12.2397 5.3892 12.3107C5.4072 12.358 5.436 12.3935 5.472 12.417C5.472 12.4347 5.4774 12.4466 5.4828 12.4584C4.716 13.5455 4.041 14.6917 3.4038 15.8498C3.4092 15.2531 3.357 14.6031 3.2094 13.971C3.1842 13.8587 3.1554 13.7523 3.1194 13.6401C2.9538 13.0551 2.7 12.5058 2.322 12.0803C2.2338 11.9798 2.1384 11.8913 2.0394 11.8085C1.9332 11.7199 1.737 11.8025 1.7082 11.9384C1.6722 12.0862 1.6434 12.2397 1.62 12.3935C1.5066 13.0551 1.4832 13.776 1.5606 14.4554C1.566 14.5322 1.5714 14.6031 1.584 14.6741C1.737 15.584 2.0916 16.4229 2.7828 17.0315C2.6766 17.2441 2.565 17.4628 2.4642 17.6813C2.2518 18.1126 2.0448 18.5498 1.8432 18.993C1.4004 19.95 0.981 20.9249 0.5796 21.8998C0.468 22.1716 0.3546 22.4493 0.243 22.721C0.1602 22.922 0.0828 23.1287 0 23.3295L0.3258 23.3295C0.378 23.3295 0.432 23.3295 0.4788 23.3238C0.5508 23.1465 0.6264 22.9632 0.6984 22.7861C1.206 21.5216 1.7442 20.2632 2.3166 19.0225C2.5182 18.5853 2.7234 18.154 2.9376 17.7227C3.0366 17.51 3.1428 17.2974 3.2508 17.0846C3.9834 17.3859 4.7682 17.4864 5.5314 17.4981C6.3936 17.51 7.0722 17.2441 7.8462 17.0668C8.0064 17.0315 8.0172 16.8778 7.911 16.7538C7.0614 15.7434 5.0292 15.6075 3.753 16.1393C4.4082 14.9399 5.0994 13.7582 5.8914 12.6474C6.9714 12.8483 7.9596 13.067 8.9874 12.8897C9.4716 12.7893 10.4706 12.6829 9.873 11.9327C9.3942 11.3122 8.4618 11.1705 7.7706 11.1527C7.515 11.1408 7.2378 11.1527 6.9714 11.1882C7.344 10.7214 7.7454 10.2723 8.1414 9.82918C8.568 9.40384 8.9568 8.94898 9.4122 8.56486C9.6732 8.69482 9.8964 8.8957 10.1502 9.0316C10.4526 9.18532 10.7586 9.28558 11.0664 9.3565C11.592 9.47476 12.1302 9.5338 12.6198 9.56926C13.0644 9.5752 14.1264 9.78202 13.8672 8.94898C13.6422 8.1514 12.5496 7.76728 11.8944 7.62544C11.5038 7.53094 11.097 7.49548 10.6704 7.50718C11.2554 7.0228 11.9052 6.62698 12.537 6.20758C13.1868 5.81752 13.8672 5.4748 14.553 5.15584C14.877 5.97124 15.858 6.57982 16.5258 6.81598C17.6256 7.2001 18.6822 6.7924 19.6092 6.23116C19.7334 6.16024 19.7154 5.94748 19.5984 5.85298C18.6642 5.15584 17.577 4.54726 16.425 4.41136C17.1576 4.15738 17.8974 3.93292 18.6462 3.73798C20.5434 4.2814 22.3866 4.64176 24.0876 3.44836C24.1776 3.38338 24.1776 3.2239 24.1128 3.13516" transform="translate(106.6641 22.84088)" id="Fill-12" fill="#0B7C5C" stroke="none"/>
    <path d="M8.69206 6.19182C10.5893 4.5081 12.3551 2.81232 13.0481 0.25992C13.0823 0.12402 12.9761 0 12.8573 0C11.4515 0.01188 10.1573 1.40022 9.31846 2.73564C8.82886 3.49776 8.52106 4.33674 8.27986 5.19336C8.03686 5.97924 7.95946 6.7473 7.61746 7.5213C7.30426 8.28342 7.00366 9.05148 6.72466 9.82548C6.77866 8.83872 6.75526 7.79886 6.51766 6.90084C6.30526 6.00876 5.88586 5.25834 5.13526 4.90986C5.00026 4.8447 4.83466 4.9806 4.78786 5.16978C4.50886 6.19182 4.36846 7.63344 4.56826 8.87418C4.75186 10.109 5.28286 11.137 6.18106 11.4147L6.15226 11.5034C6.14686 11.5211 6.14686 11.5387 6.14686 11.5565C5.46106 13.7248 4.93546 15.9404 4.52686 18.1739C4.45126 17.636 4.30366 17.1043 4.22086 16.7558C3.97786 15.7219 3.67006 14.7352 3.20386 13.8607C3.03286 13.5299 2.83846 13.2169 2.61886 12.9272C2.51806 12.7973 2.34706 12.8563 2.25886 13.0158C1.85026 13.7308 1.72606 14.5048 1.78006 15.2492C1.78546 15.3497 1.79266 15.4442 1.80346 15.5387C1.88086 16.1354 2.05186 16.7144 2.26966 17.2226C2.33626 17.3702 2.41186 17.512 2.49466 17.6479C2.88526 18.2743 3.43966 18.7763 3.79426 19.4323C3.90046 19.6213 3.99046 19.8221 4.04806 20.0408C4.43866 21.4589 3.54586 23.2904 3.65926 24.797C3.66466 24.8384 3.66466 24.8798 3.67006 24.921C3.66466 24.8441 3.65386 24.7734 3.64126 24.6965C3.55846 24.0584 3.42886 23.3968 3.24526 22.7468C3.03286 21.9492 2.75566 21.1811 2.41906 20.5135C2.12206 19.9285 1.78546 19.4263 1.41466 19.0483C1.33186 18.9596 1.17706 18.9715 1.10146 19.1074C0.646062 19.9285 0.521862 20.8325 0.604662 21.7305C0.651462 22.2032 0.757662 22.6818 0.905262 23.1426C0.935862 23.2373 0.964662 23.3316 1.00066 23.4263C1.29046 24.2298 1.69726 24.98 2.14726 25.6417L2.14726 25.6478C2.47126 26.1441 2.82046 26.593 3.13906 26.9712C3.15706 26.995 3.17506 27.0184 3.19306 27.0362C3.25066 27.1012 3.31006 27.1721 3.36946 27.2311C3.40546 27.2785 3.44686 27.2903 3.48826 27.2961C3.49906 27.3139 3.51166 27.3199 3.52246 27.3316C3.51706 27.491 3.50446 27.6565 3.49906 27.8161C3.46306 28.6373 3.43966 29.4646 3.42886 30.2917C3.42886 30.3329 3.42166 30.3802 3.42166 30.4216C3.41086 31.1837 3.41086 31.9459 3.41086 32.7082C3.18586 32.1469 2.90866 31.5738 2.58286 31.0478C2.42446 30.776 2.25346 30.5161 2.06446 30.2857C1.99786 30.2029 1.93306 30.1203 1.85746 30.0434C1.37866 29.4941 0.829662 29.0983 0.226662 28.98C0.154662 28.9681 0.0898615 29.0214 0.0430615 29.0983C0.00706149 29.169 -0.0109385 29.2637 0.00706149 29.3404C0.196062 30.067 0.444462 30.8353 0.770262 31.55L0.775662 31.5679C1.02406 32.1232 1.31386 32.6432 1.65046 33.0921C2.14006 33.7597 2.73226 34.2738 3.42886 34.5101C3.43426 34.7287 3.43426 34.9414 3.44686 35.1599C3.45766 35.7863 3.47566 36.4126 3.49906 37.0388C3.51166 37.4938 3.52966 37.9487 3.55306 38.3978C3.57106 38.835 3.58726 39.2782 3.61246 39.7152C3.63586 40.2588 3.66466 40.7965 3.69526 41.3401C3.74746 42.2321 3.80146 43.1244 3.85366 44.0165L3.94906 44.0165C4.02466 44.0165 4.10206 44.0224 4.17946 44.0224L4.29646 44.0224C4.27306 43.6207 4.24966 43.2189 4.22626 42.8171L4.22626 42.8112C4.19026 42.2971 4.16146 41.789 4.13806 41.2751C4.10746 40.7434 4.07866 40.2116 4.05526 39.6857C4.03186 39.2427 4.01386 38.8055 3.99586 38.3683C3.97246 37.8128 3.94906 37.2634 3.93106 36.7079C3.91306 36.0581 3.89506 35.4082 3.88426 34.7582C3.87706 34.5987 3.87166 34.4452 3.87166 34.2855C3.95446 34.2738 4.03726 34.2621 4.11466 34.2443C4.23706 34.2207 4.35586 34.1912 4.47466 34.1498C4.49266 34.1438 4.51606 34.1379 4.53946 34.132C4.58086 34.1143 4.62766 34.1024 4.66906 34.0789C4.84726 34.0196 5.01826 33.943 5.18926 33.8542C5.44846 33.7243 5.70226 33.5707 5.94526 33.3994C5.96326 33.3934 5.98126 33.3815 5.99206 33.3698C6.01546 33.352 6.04606 33.3344 6.06946 33.3167C6.29446 33.1513 6.49426 32.9681 6.67246 32.7672C7.11526 32.2886 7.47526 31.7333 7.88386 31.1778C8.00086 31.0183 7.94326 30.8174 7.78846 30.7346C7.70026 30.6875 7.60486 30.652 7.51126 30.6284C7.36366 30.5811 7.21606 30.5635 7.05586 30.5635C6.90286 30.5635 6.74266 30.5811 6.58426 30.6225C6.27106 30.6934 5.95066 30.8353 5.63746 31.0183C5.45566 31.1306 5.27206 31.2606 5.10106 31.4023C4.93006 31.5383 4.76446 31.6919 4.60966 31.8514L4.60966 31.8573C4.36846 32.0936 4.16146 32.3536 3.99046 32.6194C3.93646 32.6844 3.89506 32.7553 3.85366 32.8262L3.85366 31.5324L3.85906 31.5265L3.85906 31.4969C3.85906 31.2016 3.85906 30.9002 3.86626 30.5989C3.86626 30.4097 3.87166 30.2207 3.87706 30.0258C3.88426 29.4646 3.90046 28.9031 3.92566 28.3419C3.93646 27.9815 3.95446 27.6152 3.97246 27.2489C4.00126 27.2311 4.03186 27.2135 4.06066 27.2016C4.24966 27.0952 4.43326 26.995 4.61686 26.8943C5.40166 26.4514 6.12886 25.9609 6.74266 25.1159C7.12066 24.6078 7.87666 23.5562 6.98026 23.2135C6.24046 22.93 5.36026 23.5739 4.78066 24.1115C4.59886 24.277 4.40986 24.4602 4.23706 24.667C4.19746 24.7025 4.16686 24.7439 4.13086 24.7792C4.14346 24.6256 4.15606 24.4719 4.17226 24.3184C4.21366 23.7452 4.27306 23.1721 4.33786 22.5992C4.43326 21.7069 4.55026 20.8208 4.68706 19.9345C4.97686 19.834 5.27746 19.84 5.56186 19.7455C5.90386 19.6331 6.21166 19.4441 6.51766 19.2195C6.66706 19.1131 6.80206 18.995 6.93886 18.871C7.28086 18.5638 7.59406 18.2092 7.91266 17.8607C8.11426 17.6422 8.45086 17.2699 8.65066 16.8858C8.85766 16.5076 8.92246 16.1177 8.56246 15.8459C7.87126 15.3261 6.72466 16.1473 6.12886 16.6554C5.77426 16.9567 5.39626 17.3111 5.05966 17.7248C5.44846 15.6924 5.94526 13.6834 6.55906 11.7103C7.37446 12.0352 8.56786 11.4561 9.25366 10.8772C10.3877 9.91404 10.9565 8.37792 11.2751 6.948C11.3219 6.759 11.1563 6.6231 10.9907 6.68826C9.72706 7.20216 8.44546 7.97022 7.45726 9.11052C7.64626 8.61426 7.85326 8.1297 8.04946 7.63938L8.69206 6.19182" transform="translate(101.0078 2.130371)" id="Fill-13" fill="#0B7C5C" stroke="none"/>
    <path d="M15.363 16.92C11.4498 18.0684 6.3378 18.0684 2.4246 16.92C1.656 11.2748 0.8604 5.63274 0 0C5.9292 0 11.8584 0 17.7876 0C16.9272 5.63238 16.1316 11.2748 15.363 16.92" transform="translate(97.21875 43.11084)" id="Fill-14" fill="#BBBDBF" stroke="none"/>
    <path d="M17.7876 0L0 0L0.7992 5.2128L16.9884 5.2128L17.7876 0" transform="translate(97.21875 43.11084)" id="Fill-15" fill="#929497" stroke="none"/>
    <path d="M19.5077 0L0 0L0.62136 4.05108L18.8849 4.05108L19.5077 0" transform="translate(96.35938 43.11084)" id="Fill-16" fill="#D0D2D3" stroke="none"/>
    <path d="M0.170733 2.81016C0.163533 2.81016 0.154533 2.80962 0.147333 2.80854C0.0555321 2.79558 -0.0110683 2.70972 0.00153177 2.61684L0.339934 0.14742C0.352534 0.06192 0.424534 0 0.509135 0C0.516335 0 0.525335 0.00054 0.532535 0.00162C0.626135 0.01458 0.690935 0.10044 0.678335 0.1935L0.339934 2.66292C0.327334 2.74842 0.255333 2.81016 0.170733 2.81016" transform="translate(114.3672 43.55774)" id="Fill-17" fill="#EEEFEF" stroke="none"/>
    <path d="M0.170348 9.19098C0.164948 9.19098 0.157748 9.19098 0.150548 9.18918C0.0569479 9.17838 -0.00965204 9.09378 0.00114796 9.00018L1.03975 0.15048C1.05055 0.06372 1.12435 0 1.20895 0C1.21435 0 1.22155 0.00036 1.22875 0.00126C1.32235 0.01224 1.38895 0.09666 1.37815 0.1899L0.339548 9.03978C0.328748 9.12618 0.256748 9.19098 0.170348 9.19098" transform="translate(111.8438 48.84546)" id="Fill-18" fill="#DBDCDD" stroke="none"/>
    <path d="M10.2951 0C9.26352 3.05226 2.1582 19.073 0 21.1502C1.54728 22.9628 3.09456 24.7754 4.64184 26.588C6.96456 25.0688 11.7216 7.91478 12.4601 2.0385L10.2951 0" transform="translate(49.46875 50.22784)" id="Fill-29" fill="#F6BD96" stroke="none"/>
    <path d="M4.11955 0.702739C5.02081 0.282439 6.00739 0.0354794 7.00225 0.00343936C7.39969 -0.00916064 7.79821 0.0126194 8.19133 0.0727394C8.38735 0.102619 9.17485 0.236719 9.04885 0.437959C8.98189 0.544339 8.88361 0.581959 8.77093 0.621379C8.23507 0.808219 7.70029 0.998479 7.16695 1.19216C6.74017 1.34714 6.31411 1.5041 5.88895 1.6634C5.74441 1.71758 6.21547 2.00612 6.23599 2.0234C6.43273 2.18936 6.57817 2.4131 6.67411 2.65034C6.86365 3.1196 6.86149 3.66806 6.69013 4.142C6.41383 4.90718 5.77519 5.49056 5.07949 5.91212C4.00309 6.56408 2.73661 6.89834 1.47859 6.8627C0.861012 6.84506 0.184932 6.11732 0.0427323 5.53826C-0.101628 4.95002 0.141552 4.34918 0.446292 3.85454C1.16935 2.68148 2.35915 1.73324 3.52573 1.02692C3.71869 0.910099 3.91507 0.798139 4.11955 0.702739" transform="translate(59.65625 45.67487)" id="Fill-30" fill="#F6BD96" stroke="none"/>
    <path d="M7.62362 14.3517L0.584536 14.4651C0.200596 14.4723 -0.0814638 14.1069 0.0213162 13.7361L3.68972 0.53522C3.75794 0.2897 3.9797 0.11834 4.2344 0.1142L11.2735 8.04263e-05C11.6576 -0.00621957 11.9397 0.35864 11.8369 0.7289L8.1683 13.9305C8.10008 14.1753 7.8785 14.3481 7.62362 14.3517" transform="translate(68.01563 41.17017)" id="Fill-31" fill="#091A4C" stroke="none"/>
    <path d="M108.048 74.3717C106.809 77.3003 104.959 79.5413 102.705 81.2441C94.8361 87.2147 82.0275 86.6639 72.8775 86.3201C54.8327 85.6379 36.5093 83.7641 19.4606 77.4659C10.5819 74.1863 3.47205 67.4453 1.08417 58.1105C-0.828507 50.6333 0.0396328 42.7115 1.75503 35.1857C3.30591 28.3835 5.56653 21.6778 9.21675 15.7322C13.9151 8.07898 23.4949 -2.0894 33.4318 0.376422C37.5729 1.40422 40.9104 4.4698 43.5633 7.8115C46.712 11.7778 49.1712 16.29 50.7977 21.086C52.3898 25.7807 53.2331 30.8333 55.9559 34.9751C59.1866 39.8909 64.685 42.7349 70.3313 43.8779C76.5171 45.1289 82.6846 43.4873 88.9181 44.6447C95.5655 45.8777 101.863 49.5137 105.706 55.0757C109.554 60.6377 110.692 68.1509 108.048 74.3717" transform="translate(0 31.32507)" id="Fill-32" fill="#FFA82F" stroke="none"/>
    <path d="M0.0182413 15.2329C0.174121 20.6635 1.46094 26.2309 5.47008 30.1333C8.50812 33.0889 12.5767 34.7413 16.7147 35.4199C23.1124 36.4675 30.3873 35.4595 36.2819 32.3077C32.5223 32.4067 28.7747 32.7109 25.0202 31.9513C19.374 30.8083 13.8755 27.9643 10.6447 23.0485C7.92204 18.9067 7.07874 13.8541 5.48664 9.1593C4.3971 5.94648 2.90346 2.87946 1.10958 0C0.641941 5.07222 -0.128279 10.1263 0.0182413 15.2329" transform="translate(45.3125 43.25177)" id="Fill-33" fill="#EE8D1B" stroke="none"/>
    <path d="M78.577 40.221C73.6979 39.5712 68.8613 38.619 64.0214 37.7298C59.0277 36.81 54.0412 35.8398 49.1003 34.6644C41.0282 32.7438 33.0145 30.2886 25.5578 26.604C19.1825 23.454 13.1821 19.3698 8.41907 14.0472C4.74059 9.9378 1.96409 5.1678 0.186593 0C-0.193927 4.4604 -0.0364273 8.9352 1.07003 13.2606C3.45791 22.5954 10.5677 29.3364 19.4464 32.616C36.4951 38.9142 54.8186 40.788 72.8634 41.4702C77.619 41.6484 83.3605 41.8752 88.8856 41.2218C85.4396 40.9968 82.0002 40.6782 78.577 40.221" transform="translate(0.015625 76.17499)" id="Fill-34" fill="#EE8D1B" stroke="none"/>
    <path d="M16.8572 31.4192C11.9891 24.7484 8.77678 16.8788 7.58626 8.70784C7.27306 6.55702 7.0738 4.31278 5.98228 2.43322C4.05214 -0.890118 -0.455602 -1.03376 0.0374176 3.40486C0.440258 7.03276 1.86802 10.7863 3.37282 14.0852C4.92964 17.498 6.90316 20.7218 9.21886 23.6738C11.4294 26.4908 14.8115 28.6166 16.8572 31.4192" transform="translate(21.73828 43.84686)" id="Fill-35" fill="#EE8D1B" stroke="none"/>
    <path d="M17.3772 10.7527C17.0154 11.6437 15.9318 12.0469 14.9706 11.9803C14.0112 11.9119 13.1166 11.4925 12.2004 11.1955C10.5336 10.6555 8.7354 10.5205 7.0074 10.8049C5.6862 11.0227 4.1058 11.4007 3.1896 10.4269C2.3976 9.58449 2.6316 8.25789 2.5974 7.10229C2.5416 5.19249 1.5534 3.33309 0 2.22069C0.2826 2.42049 1.2942 0.47649 1.692 0.381089C2.5398 0.175889 3.375 -0.308311 3.9582 0.285689C5.1876 1.53849 6.6366 4.29969 8.0046 5.44629C10.7712 7.76469 13.9608 9.58089 17.3772 10.7527" transform="translate(122.6797 93.63373)" id="Fill-36" fill="#E7A579" stroke="none"/>
    <path d="M25.8189 16.7371C25.6389 17.3707 24.6993 17.2825 24.2007 17.2501C23.4807 17.2033 22.7427 17.2447 22.0407 17.1565C20.8419 17.0071 19.6899 17.2933 18.5019 17.3599C17.3283 17.4247 16.1475 17.3149 15.0063 17.0341C13.3935 16.6363 12.1353 16.7155 10.5027 17.0809C9.27505 17.3563 7.18525 17.4787 6.41485 16.2061C5.89465 15.3457 6.31945 14.2495 6.31225 13.2451C6.29785 11.6557 5.17465 10.3021 3.98305 9.25091C2.09485 7.59131 0.102248 6.13691 0.00144833 3.38651C-0.0723517 1.39931 2.69065 -0.451093 4.53025 0.0979073C5.97745 0.529907 6.67405 2.11571 7.32745 3.47651C8.19685 5.28551 9.32185 6.96671 10.6773 8.44631C12.0651 9.96191 14.3025 10.8673 16.0989 11.8015C16.0989 11.9689 17.8341 12.7033 18.0483 12.8131C18.7647 13.1875 19.4829 13.5601 20.2011 13.9327C20.8851 14.2873 21.5673 14.6437 22.2513 14.9983C22.9407 15.3583 23.5653 15.4663 24.3393 15.5671C24.6957 15.6121 25.0665 15.6535 25.3761 15.8371C25.6875 16.0207 25.9179 16.3915 25.8189 16.7371" transform="translate(118.0664 97.3927)" id="Fill-37" fill="#F6BD96" stroke="none"/>
    <path d="M38.6478 10.9806C43.659 13.9236 44.6724 12.48 49.338 15.9396C50.2146 16.5894 53.5842 18.8214 54.6336 19.1454C55.251 19.3362 56.8656 21.309 57.3516 21.5916C58.3308 22.1622 60.9804 24.7326 61.0182 24.9522C61.1172 25.5156 57.8358 29.0094 56.2788 29.8896C53.3754 31.5312 51.2676 33.567 48.0294 34.5318C47.5956 34.6614 42.4116 27.2526 37.3734 23.4924C33.8058 20.8302 30.177 18.0726 25.9589 16.5786C22.4872 15.3492 19.4477 13.416 15.6712 13.1136C13.1319 12.912 10.544 12.6654 7.98462 12.5124C6.9552 12.4494 0.51624 11.6952 0 12.516C1.88514 9.51716 3.77028 6.51656 5.65542 3.51776C7.26678 0.952761 7.71336 -0.436839 10.8216 0.122961C17.0761 1.25156 23.1367 3.28196 28.9174 5.90636C32.2506 7.41836 35.4924 9.12656 38.6478 10.9806" transform="translate(67.47656 72.37463)" id="Fill-38" fill="#0B7C5C" stroke="none"/>
    <path d="M14.8599 9.51707C14.4268 11.1859 14.0535 12.7353 13.1177 14.2174C11.8746 16.1857 10.5606 18.2253 8.56581 19.4259C7.29393 20.1914 5.82711 20.5622 4.48503 21.1962C2.55111 22.1099 0.825271 23.6784 0.209671 25.7266C-0.405929 27.7748 0.352051 30.2901 2.24637 31.283C2.97573 31.6653 3.80949 31.8079 4.54965 32.1686C5.28981 32.5294 5.97291 33.2279 5.91873 34.0494C5.83845 35.2666 4.56153 35.9207 4.73595 37.2417C4.98345 39.1143 7.03221 39.5227 8.38581 40.2933C10.3021 41.3841 12.0416 43.6998 14.1887 44.2634C22.235 46.3759 20.2577 36.2249 24.0782 33.2166C25.5236 32.0784 27.5465 32.1348 29.2935 31.5581C33.1225 30.2939 35.1711 26.2238 36.6833 22.4855C38.3688 18.3185 39.9151 13.7942 38.9358 9.40709C38.2817 6.47687 36.4755 3.82007 33.9917 2.13347C26.789 -2.75659 17.0183 1.20071 14.8599 9.51707" transform="translate(12.33984 8.695984)" id="Fill-39" fill="#091A4C" stroke="none"/>
    <path d="M36.7467 36.3939C35.0153 37.8573 34.2027 40.0929 33.2482 42.1521C32.2933 44.2023 30.9532 46.3263 28.8008 47.0265C27.2232 47.5359 25.4978 47.1795 23.9202 46.6701C17.3558 44.5407 11.8232 39.8085 7.97457 34.0863C4.12023 28.3695 1.85493 21.6987 0.544534 14.9271C-0.380666 10.1595 -0.641486 3.99826 4.06083 1.02736C6.54555 -0.544218 9.79527 -0.0816179 12.5763 0.879042C16.1757 2.11834 19.7752 4.14046 22.4734 6.85054C25.047 9.42994 28.6879 12.5016 28.8243 16.4571C28.8303 16.5867 28.8303 16.7181 28.8243 16.8477C28.7651 19.0311 27.5791 20.9877 27.4841 23.1405C27.413 24.8649 27.8637 27.0717 28.4449 28.6899C28.7946 29.6565 29.2691 30.5817 29.8442 31.4367C30.4017 32.2539 31.0481 33.0081 31.7715 33.6723C32.323 34.1763 35.97 37.0509 36.7467 36.3939" transform="translate(26.69141 38.78748)" id="Fill-40" fill="#ED5830" stroke="none"/>
    <path d="M6.357 14.589C5.86488 15.4962 5.47338 16.4322 5.35494 17.4582C2.62704 15.3648 0.723542 12.222 0.142502 8.8362C-0.142078 7.218 -0.0709779 5.3784 1.01424 4.1454C1.6248 3.4524 2.48484 3.0366 3.22608 2.4858C4.19862 1.881 4.85688 0.99 5.33712 0C5.2779 2.1834 4.09188 4.14 3.99684 6.2928C3.92574 8.0172 4.37646 10.224 4.95768 11.8422C5.30742 12.8088 5.7819 13.734 6.357 14.589" transform="translate(50.17969 55.63519)" id="Fill-41" fill="#D73B1D" stroke="none"/>
    <path d="M0 14.1794C3.2481 16.0962 5.22468 23.076 17.3383 22.6376C13.99 19.484 10.2429 14.3052 9.09558 11.6441C8.29098 9.77782 7.4691 7.80863 7.67466 5.78668C7.88004 3.76474 8.95464 2.46244 11.3591 2.0596C9.6165 1.03127 7.19658 0.871605 5.27148 0.164025C4.4712 -0.130095 3.47418 0.061065 3.47418 0.061065C3.47418 0.061065 3.57336 9.049 0 14.1794" transform="translate(33.42188 24.57147)" id="Fill-42" fill="#F6BD96" stroke="none"/>
    <path d="M5.89644 11.2317C5.15358 9.48842 4.46094 7.6607 4.65138 5.7869C4.85676 3.76478 5.93154 2.46248 8.33598 2.05946C6.59322 1.0313 4.17348 0.871638 2.2482 0.163878C1.4481 -0.130062 0.4509 0.0610975 0.4509 0.0610975C0.4509 0.0610975 0.47286 2.48462 0 5.5286C0.7074 8.6876 3.3201 9.94148 5.89644 11.2317" transform="translate(36.44531 24.57147)" id="Fill-43" fill="#E7A579" stroke="none"/>
    <path d="M17.2738 20.9469C19.7848 20.8605 22.3066 20.5725 24.852 20.2737C30.6423 19.5933 36.4325 18.9129 42.2226 18.2307C47.1868 17.6475 51.9175 16.8465 56.8695 17.4117C64.7967 18.3153 69.9231 20.4699 76.7001 24.2913C77.7639 24.8907 81.0561 27.3045 81.0561 27.3045C81.6807 26.8401 83.0217 25.6611 83.5131 24.6603C83.8569 23.9619 75.6435 17.6439 71.9805 14.5965C62.9661 7.09953 51.7892 2.33133 40.2049 0.666334C34.4109 -0.167066 28.5017 -0.228266 22.6967 0.536734C17.5089 1.22073 10.9647 2.46813 6.76633 5.79633C4.69453 7.43973 -1.82777 12.1863 0.492071 15.5253C2.42401 18.3063 5.74609 19.4565 8.89753 20.2143C11.6884 20.8857 14.4745 21.0423 17.2738 20.9469" transform="translate(45.23047 67.86047)" id="Fill-44" fill="#00B580" stroke="none"/>
    <path d="M55.2335 15.6915C45.2561 16.3197 35.1616 16.9425 25.3247 15.1569C20.4169 14.2677 15.5956 12.7341 11.1681 10.4211C8.27172 8.90911 0.34416 4.65391 0 1.04491C6.78168 -0.942289 15.7943 0.30151 22.6364 1.51111C30.1547 2.84131 37.4769 5.29291 44.2688 8.78131C48.1163 10.7577 51.7936 13.0671 55.2335 15.6915" transform="translate(28.91797 80.56433)" id="Fill-45" fill="#FFA82F" stroke="none"/>
    <path d="M0.966953 2.0682C3.18239 1.8756 5.40629 1.7784 7.63019 1.7784C18.8057 1.7784 29.9858 4.203 40.1393 8.8704C40.5857 9.0756 41.1138 8.8794 41.319 8.433C41.5242 7.9866 41.3285 7.4592 40.8823 7.254C30.4907 2.4768 19.0625 0 7.63019 0C5.35499 0 3.07961 0.099 0.812333 0.2952C0.322913 0.3384 -0.0392466 0.7704 0.00341338 1.26C0.0460734 1.7496 0.477533 2.1114 0.966953 2.0682" transform="translate(27.08594 83.40204)" id="Fill-46" fill="#FFCB71" stroke="none"/>
    <path d="M1.20371 3.0258C3.41753 2.1906 5.78759 1.7784 8.16269 1.7784C11.9927 1.7784 15.8309 2.8512 19.0379 4.9194C19.4508 5.184 20.0013 5.0652 20.2673 4.653C20.5334 4.239 20.4142 3.6882 20.0013 3.4236C16.4862 1.1592 12.323 0 8.16269 0C5.58239 0 3.00119 0.4464 0.575686 1.3608C0.116146 1.5354 -0.115874 2.0484 0.0574662 2.5074C0.230986 2.9682 0.744166 3.1986 1.20371 3.0258" transform="translate(72.12109 89.63184)" id="Fill-47" fill="#FFCB71" stroke="none"/>
    <path d="M15.1753 16.0012C14.4155 17.8205 13.3623 19.3912 11.9837 20.1416C8.50289 22.0363 5.04725 19.0758 2.97527 16.45C0.917868 13.8427 -0.196692 10.589 0.028668 7.44761C0.161508 5.59343 0.676488 3.05507 2.20199 1.86383C3.70571 0.68933 5.89955 0.0474498 7.88657 0.00262983C10.131 -0.0481302 13.1022 0.63245 14.6445 2.34641C16.1244 3.99089 16.7247 6.40343 16.7289 8.43581C16.7328 10.3872 16.2449 13.4405 15.1753 16.0012" transform="translate(33.18359 12.3692)" id="Fill-48" fill="#F6BD96" stroke="none"/>
    <path d="M13.8436 8.13532C12.7152 9.61726 10.8832 10.359 9.45056 11.5494C6.76766 13.7785 6.8735 16.7361 6.57326 20.5785C3.2492 18.6695 0.8876 15.8444 0.1811 12.0766C-0.52558 8.30902 0.85898 4.12096 3.93104 1.82794C7.24322 -0.644179 12.1345 -0.554719 15.5526 1.7689C18.9704 4.09234 20.8395 8.37904 20.5666 12.503C20.8222 11.6628 20.3418 10.7558 19.6891 10.1681C19.0365 9.58036 18.2209 9.20758 17.5146 8.6854C15.8276 7.4389 14.9965 5.49832 14.6256 3.49168C15.1009 5.05084 14.838 6.82942 13.8436 8.13532" transform="translate(29.99219 8.733276)" id="Fill-49" fill="#091A4C" stroke="none"/>
    <path d="M0.348475 2.89811C-0.346325 4.83329 0.112315 6.98123 0.727555 8.94323C3.99131 19.3508 11.7041 28.2788 21.5258 33.0218C23.2794 33.8678 25.2333 34.6022 27.1372 34.1918C29.0693 33.776 30.5615 32.2676 31.815 30.7394C34.0916 27.9638 37.3576 14.7752 39.659 11.843C40.7194 10.493 41.9305 9.23609 42.7111 7.70663C43.6496 5.86739 43.938 3.85355 44.1146 1.80119C44.1297 1.62443 43.9112 1.52489 43.7978 1.66133C42.4265 3.31229 39.1003 5.72483 37.6897 6.58073L38.8121 2.80325C37.3858 3.70451 36.0898 5.04173 35.5081 7.06385C35.0329 8.71553 35.1545 10.4786 34.8572 12.1706C34.3597 15.002 28.8241 24.821 27.3528 24.821C26.4703 24.8228 25.6804 24.3026 24.9683 23.7824C18.9617 19.3868 14.1496 13.3748 11.1764 6.55139C10.5302 5.06837 9.95778 3.52793 8.98505 2.23517C6.7977 -0.672193 1.76075 -1.03561 0.348475 2.89811" transform="translate(31.19141 45.26996)" id="Fill-50" fill="#F6BD96" stroke="none"/>
    <path d="M6.43459 25.3422C8.00635 24.4294 8.96593 22.7147 9.44095 20.9605C9.91615 19.206 9.97807 17.3711 10.1899 15.5659C10.5726 12.3057 11.4481 9.12708 12.2664 5.94828C12.7911 3.9105 13.165 1.40598 11.5995 0C6.34063 3.88602 2.78617 9.74952 0.725886 15.9552C-0.172314 18.6604 -0.372474 21.2371 0.908586 23.8455C1.91857 25.902 4.39933 26.5237 6.43459 25.3422" transform="translate(23.50391 26.98639)" id="Fill-51" fill="#091A4C" stroke="none"/>
    <path d="M0.224646 5.43888C0.387726 5.34096 0.591486 5.26572 0.793626 5.1705C0.994866 5.07492 1.20007 4.95684 1.34785 4.7547L1.36603 4.72158C1.38889 4.66254 1.39393 4.60494 1.39429 4.545C1.39321 4.37508 1.34749 4.16628 1.30447 3.8952C1.26109 3.62556 1.21861 3.2994 1.21861 2.92212C1.21861 2.52558 1.26559 2.0727 1.40959 1.57032C1.47709 1.33416 1.54711 1.12032 1.64827 0.94572C1.74997 0.77076 1.87759 0.63396 2.07757 0.53262C2.38645 0.37674 2.74303 0.297 3.09583 0.29718C3.24109 0.29718 3.38563 0.3105 3.52567 0.33732C3.60631 0.3528 3.68407 0.30006 3.69955 0.21942C3.71503 0.13878 3.66211 0.06102 3.58165 0.04554C3.42235 0.01512 3.25927 0 3.09583 0C2.69875 0 2.29825 0.08874 1.94383 0.26712C1.68877 0.39474 1.51309 0.58392 1.39087 0.79704C1.26793 1.01052 1.19341 1.24686 1.12393 1.48842C0.971466 2.01978 0.921246 2.502 0.921426 2.92212C0.921246 3.32172 0.966606 3.66552 1.01107 3.94236C1.05607 4.21776 1.09819 4.43214 1.09711 4.545C1.09729 4.58388 1.09189 4.608 1.08955 4.61286L1.22779 4.66722L1.10773 4.57974C1.00765 4.71762 0.853026 4.8141 0.666546 4.90194C0.481146 4.99014 0.269106 5.06682 0.0723655 5.18364C0.00198552 5.22576 -0.0210545 5.31702 0.0210655 5.3874C0.0630055 5.45796 0.154266 5.481 0.224826 5.43888" transform="translate(45.42188 23.1015)" id="Fill-52" fill="#E7A579" stroke="none"/>
    <path d="M0.0475373 0.257597C0.320237 0.509597 0.685457 0.641716 1.05086 0.642076C1.22816 0.642076 1.40618 0.610577 1.57358 0.544697C1.6499 0.514637 1.68752 0.428417 1.65746 0.352097C1.6274 0.275597 1.54118 0.238157 1.46468 0.268217C1.33418 0.319517 1.19306 0.344897 1.05086 0.344897C0.757277 0.345257 0.461177 0.236177 0.249677 0.0396172C0.189377 -0.0161827 0.0954172 -0.0125827 0.0396173 0.0475372C-0.0161827 0.107837 -0.0125827 0.201797 0.0475373 0.257597" transform="translate(42.39453 23.82202)" id="Fill-53" fill="#39395C" stroke="none"/>
    <path d="M0.0494517 0.259152C0.235572 0.425652 0.478572 0.507192 0.719772 0.507372C0.919032 0.507372 1.11991 0.451392 1.28857 0.333312C1.35571 0.286332 1.37191 0.193632 1.32493 0.126492C1.27777 0.0591717 1.18507 0.0429716 1.11793 0.0901317C1.00525 0.169332 0.863592 0.210192 0.719772 0.210192C0.545532 0.210372 0.371652 0.149712 0.247812 0.0379316C0.186792 -0.0167884 0.0928317 -0.0117484 0.0379317 0.0494516C-0.0167884 0.110472 -0.0117484 0.204432 0.0494517 0.259152" transform="translate(47.73438 24.47003)" id="Fill-54" fill="#39395C" stroke="none"/>
    <path d="M0.202347 0.41148C0.399807 0.33498 0.612208 0.29718 0.825688 0.29718C1.20963 0.297 1.59501 0.41958 1.89813 0.64962C1.96347 0.69912 2.05671 0.686341 2.10639 0.621C2.15589 0.55566 2.14311 0.46242 2.07777 0.41274C1.71849 0.14076 1.27209 0.00018 0.825688 0C0.577468 0 0.328707 0.04374 0.0948872 0.13428C0.0183871 0.16398 -0.0195929 0.25002 0.0101071 0.32652C0.0398071 0.40302 0.125847 0.44118 0.202347 0.41148" transform="translate(42.14844 22.35339)" id="Fill-55" fill="#E7A579" stroke="none"/>
  </g>
</svg>