<svg width="173px" height="192px" viewBox="0 0 173 192" version="1.1" xmlns:xlink="http://www.w3.org/1999/xlink" xmlns="http://www.w3.org/2000/svg">
  <desc>Created with Lunacy</desc>
  <g id="Group">
    <path d="M13.7386 36.1604C12.4869 36.6195 11.5292 37.2381 10.715 38.0822C9.8265 39.0018 9.01064 39.998 7.9414 40.7282C7.69647 40.8965 7.43465 41.2934 7.13229 41.0265C6.85696 40.7855 7.13398 40.4174 7.27418 40.1526C8.3147 38.1783 9.77414 36.5846 11.7082 35.4618C12.9464 34.7459 14.2977 34.2675 15.6288 33.7576C16.0375 33.6008 16.4412 33.4402 16.7994 33.1834C18.2993 32.1161 19.9631 31.3909 21.779 31.1983C23.4715 31.0191 24.6675 30.0828 25.8549 29.0411C26.7688 28.2386 27.4275 27.2531 27.8954 26.1398C28.6674 24.3115 29.2941 22.4439 29.6285 20.4761C30.2738 16.6523 31.3042 12.9225 32.4764 9.23099C33.1538 7.09369 34.3953 5.25724 35.6571 3.43835C36.2889 2.52789 37.0068 1.68298 37.8294 0.942954C38.2956 0.52438 38.7483 0.0426319 39.4324 0.0164499C39.5473 0.157664 40.9983 -0.0639541 40.9104 0.0193215C37.8868 3.50659 34.7365 5.55723 32.6606 12.6235C31.919 15.7675 31.1538 18.9035 30.5711 22.0828C30.2163 24.0118 29.4799 25.8207 28.6302 27.5824C27.8971 29.1034 26.637 30.1392 25.3482 31.1448C23.4665 32.613 21.3837 33.6796 19.0409 34.2113C18.1608 34.412 17.3044 34.6908 16.4514 34.9905C15.8382 35.2064 15.4328 35.613 15.0595 36.117C14.0494 37.4822 13.3366 39.0181 12.5055 40.4831C11.3214 42.5654 9.98866 44.5383 8.38902 46.317C6.8198 48.0619 4.86375 49.2443 2.67967 50.0636C1.97191 50.3288 1.29118 50.6733 0.549635 50.8439C0.382408 50.8811 0.193222 50.9385 0.0597784 50.7798C-0.0804219 50.6125 0.0614675 50.4521 0.125656 50.3C0.365516 49.7139 0.733753 49.3119 1.37732 49.0737C2.81987 48.5416 4.28268 48.0214 5.51914 47.0535C7.25053 45.6971 8.69476 44.0637 9.9515 42.2731C11.3011 40.3521 12.4075 38.2791 13.7386 36.1604" transform="translate(128.1641 99.073)" id="Fill-431" fill="#253A44" stroke="none"/>
    <path d="M60.1261 34.2906C61.8913 34.324 63.3085 35.1983 64.8625 35.6542C63.876 34.6747 62.822 34.1315 61.6244 33.4392C59.4758 32.1979 57.1447 30.9415 54.9032 29.8841C54.1363 29.5229 53.3627 29.1793 52.6093 28.7959C51.5299 28.2483 50.584 27.5321 49.8678 26.5378C49.7225 26.3365 49.5587 26.1269 49.1871 25.9794C49.2395 27.5726 49.2867 29.0755 49.7563 30.531C49.9725 31.1976 50.1803 31.8673 50.3864 32.5382C50.4455 32.7327 50.4877 32.9332 50.5266 33.1337C50.5485 33.2501 50.5435 33.3914 50.4404 33.4556C50.3002 33.5418 50.155 33.4762 50.0418 33.3745C49.9337 33.2773 49.8408 33.1651 49.7428 33.0582C48.5249 31.7273 48.0165 30.1155 47.8746 28.3449C47.7412 26.6525 47.5891 24.9615 47.4185 23.2735C47.3256 22.3404 47.1229 21.4349 46.7226 20.5716C46.3746 19.8219 46.2868 18.9964 46.3104 18.1691C46.3172 17.9336 46.3358 17.7062 46.2784 17.4755C45.5013 14.3582 44.1551 11.5119 41.998 9.14574C40.0065 6.96115 37.6586 5.19784 35.0252 3.79719C29.603 0.911088 23.9477 0.841495 18.1437 2.42998C16.1843 2.96612 14.3211 3.75884 12.5509 4.77943C10.3364 6.05559 8.654 7.89425 7.08309 9.85029C6.10675 11.0683 5.3044 12.4078 4.66252 13.8369C4.16422 14.9453 3.8247 16.0931 3.67098 17.2961C3.56456 18.1363 3.41254 18.966 3.08991 19.8037C2.69127 19.6391 2.74532 19.3199 2.75715 19.0562C2.82809 17.5338 3.39396 16.0456 3.8551 14.5693C3.90577 14.4071 4.31793 13.1143 4.29935 12.9291C3.7774 13.498 2.56627 15.2733 2.29938 15.9671C1.86527 17.0932 1.53926 18.2517 1.3315 19.4422C1.16258 20.4101 1.20312 21.3658 1.35514 22.3268C1.48014 23.1072 1.80784 23.7695 2.38046 24.3102C2.52742 24.4504 2.68113 24.5865 2.81796 24.7372C2.9666 24.9024 3.24362 25.0637 3.07302 25.3174C2.8737 25.6102 2.54262 25.5576 2.27911 25.4069C1.39568 24.9048 0.660899 24.2568 0.373741 23.2322C0.0865841 22.2138 -0.0637511 21.1808 0.0257743 20.1097C0.304486 16.8654 1.54264 13.994 3.3247 11.291C5.02907 8.70724 7.25707 6.72585 9.83473 5.05781C11.3161 4.09684 12.7654 3.09534 14.3887 2.38184C19.6606 0.0675215 25.103 -0.602231 30.7212 0.557209C33.4188 1.11514 35.8478 2.34502 38.1501 3.79448C41.6484 5.99766 44.4541 9.20216 46.1669 13.0364C47.2682 15.5039 48.0131 17.7344 48.4118 20.4075C48.6347 21.9173 49.204 23.2735 49.954 24.5679C50.8847 26.1764 52.1769 27.3873 53.8863 28.1648C55.9589 29.1064 58.0028 30.1072 60.0687 31.0639C62.1548 32.0296 63.5129 32.9759 65.6513 34.4725C67.6209 35.8505 68.2442 36.4152 69.7847 37.5373C72.7374 39.6858 74.6799 42.1208 76.342 45.0929C78.2288 48.4635 79.9095 52.8438 80.2018 56.7414C80.5514 61.4084 80.3639 66.0502 79.2812 70.6391C78.9585 72.0134 78.5109 73.3527 78.0531 74.685C77.2221 77.111 76.6714 79.6043 76.1376 82.1011C75.7086 84.1088 75.7778 86.1287 76.2322 88.1201C76.5447 89.4937 76.6832 90.8904 76.8572 92.2843C76.8741 92.4252 76.913 92.5948 76.7576 92.6798C76.5447 92.7963 76.4282 92.6176 76.3386 92.4799C76.1968 92.2604 76.0701 92.0278 75.9637 91.7894C74.4333 88.3768 74.0194 84.8269 74.8319 81.1504C75.4518 78.3413 76.1647 75.5571 77.0954 72.824C78.3944 69.0065 79.342 65.2122 79.3369 61.2016C79.3352 59.5623 79.1798 57.6444 78.9619 56.0161C78.3471 51.4271 76.364 47.3726 73.6073 43.6801C72.2053 41.8045 70.4671 40.2491 68.5567 38.8815C66.0466 37.0855 63.3152 35.7308 60.4301 34.6592C60.3507 34.6301 60.2798 34.5771 60.2105 34.5288C60.1903 34.5151 60.1903 34.4771 60.1261 34.2906" transform="translate(92.09375 0)" id="Fill-432" fill="#253A44" stroke="none"/>
    <path d="M73.0078 33.6685C72.8744 32.2721 72.1261 31.3745 70.7122 31.014C70.0434 30.8429 69.3592 30.7966 68.6717 30.8329C67.3035 30.9063 65.9336 30.9718 64.5688 31.089C62.329 31.2826 60.0925 31.5105 57.9371 32.1907C56.8628 32.5292 55.8544 32.9974 54.8831 33.5464C54.2953 33.8783 54.1585 33.8214 53.9558 33.1908C53.7767 32.6333 53.6957 32.0628 53.748 31.4725C53.8663 30.1632 54.422 29.0509 55.2497 28.0202C55.8426 27.2801 56.5757 26.9431 57.5199 26.9977C58.204 27.0379 58.8881 27.0921 59.5706 27.1563C60.1786 27.2143 60.7783 27.1489 61.3678 27.0257C62.981 26.6883 63.9438 25.7082 63.9995 24.1182C64.0705 22.1426 64.1583 20.1612 63.9674 18.1852C63.7816 16.2665 63.5401 14.3527 63.3864 12.4323C63.155 9.56541 62.655 6.78961 61.155 4.2329C60.3746 2.9015 59.4304 1.7777 58.003 1.10998C56.4845 0.399518 54.8662 0.00493051 53.1653 3.19456e-05C52.096 -0.00351529 51.1045 0.28854 50.1805 0.781775C48.3393 1.7647 46.7498 3.06788 45.3326 4.53982C42.8462 7.11967 41.0118 10.113 39.576 13.3415C37.7719 17.4001 36.3531 21.5902 34.9831 25.7977C34.0727 28.5972 32.9646 31.3257 31.6471 33.9719C30.9579 35.3569 30.0643 36.6256 29.1572 37.883C28.8245 38.3428 28.5846 38.3404 28.164 37.9468C27.9427 37.7394 27.7991 37.4837 27.6775 37.2192C27.4157 36.6584 27.2941 36.0695 27.2637 35.4541C27.1826 33.9398 27.3954 32.4507 27.6387 30.9639C28.1404 27.8769 27.8633 24.8589 26.7992 21.9071C26.6269 21.4307 26.4073 20.9784 26.1387 20.547C25.5965 19.6808 24.8076 19.3289 23.7688 19.5049C22.8769 19.6556 22.1236 20.0529 21.4732 20.6573C20.051 21.9806 19.0476 23.5859 18.1912 25.2727C16.3348 28.9264 15.0443 32.7534 14.4919 36.7996C14.0882 39.7681 13.9599 42.7447 14.2166 45.7271C14.5899 50.0404 15.1338 54.339 15.4193 58.6605C15.4885 59.7211 15.4159 60.7701 15.1828 61.8091C15.1186 62.0927 15.0494 62.3765 14.8923 62.6305C14.5375 63.2071 14.22 63.3099 13.6068 62.978C12.3552 62.303 11.2504 61.4453 10.2707 60.4323C9.28257 59.4091 8.28428 58.3926 7.27923 57.3845C7.07315 57.1771 6.82316 57.0036 6.57654 56.8396C5.30629 55.9945 4.22354 56.2141 3.37389 57.4803C2.89417 58.1963 2.58674 58.9877 2.30465 59.7882C0.894205 63.7702 0.292864 67.8921 0.0614491 72.0716C-0.163209 76.1519 0.250635 80.1966 0.936434 84.2148C1.87223 89.7015 1.97865 92.2854 4.48198 97.2806C6.50222 101.311 9.97682 104.57 13.1828 107.872C15.0882 109.834 17.6845 114.832 20.2402 115.971C20.4952 116.084 20.5679 116.218 20.4851 116.461C20.4344 116.612 20.3989 116.767 20.35 116.918C19.7638 118.783 19.6118 120.699 19.6439 122.635C19.6489 122.87 19.6726 123.111 19.7351 123.339C19.9952 124.285 20.5729 124.512 21.4597 124.029C22.0121 123.726 22.4783 123.312 22.9479 122.909C23.8854 122.101 24.9073 121.37 25.6809 120.403C26.2333 119.71 26.8363 119.063 27.4427 118.419C28.0002 117.801 28.6387 117.258 29.1505 116.598C30.9173 114.324 32.2568 111.811 33.5963 109.298C35.1842 106.316 36.7061 103.3 38.3023 100.322C40.255 96.682 42.5979 93.2662 44.9103 89.835C46.809 87.0202 48.9339 84.3717 51.1805 81.8094C52.2041 80.6409 53.2869 79.5159 54.3004 78.3406C55.65 76.7771 57.0875 75.2923 58.4591 73.7505C60.177 71.8231 61.78 69.8164 63.0772 67.6038C63.9489 66.1198 64.5738 64.542 64.5857 62.8023C64.5992 60.3926 63.4674 58.5468 60.7496 58.009C58.9996 57.662 57.2649 57.6751 55.5436 58.1686C55.0706 58.3041 54.5994 58.4475 54.1196 58.5598C53.498 58.7048 53.1197 58.4919 52.9153 57.9174C52.7936 57.5794 52.8021 57.2394 52.9322 56.9078C53.2058 56.2141 53.5487 55.5579 54.0166 54.9621C55.101 53.589 56.4084 52.4182 57.7175 51.2618C60.0807 49.1749 62.6752 47.3511 65.1363 45.3741C66.3137 44.4275 67.5214 43.5037 68.5484 42.4057C69.4977 41.3875 70.3913 40.3164 71.2393 39.2122C72.5078 37.5602 73.2055 35.7562 73.0078 33.6685" transform="translate(25.91797 19.29053)" id="Fill-433" fill="#FFEAC0" stroke="none"/>
    <path d="M14.5738 19.9813C15.067 19.0617 15.5754 18.1494 16.0484 17.22C16.366 16.5949 16.7004 15.9763 17.1531 15.4469C17.9419 14.5172 18.1734 13.4323 18.1598 12.2659C18.143 10.7237 18.2882 9.20277 18.6311 7.69621C18.8575 6.70855 19.2882 5.81144 19.7527 4.92548C19.871 4.69947 20.0162 4.4863 20.2206 4.32245C20.7612 3.88175 21.3169 4.05691 21.4926 4.73443C21.6446 5.33493 21.6024 5.94472 21.4402 6.53136C21.1125 7.71867 20.7459 8.89517 20.3929 10.0761C20.3118 10.3436 20.224 10.608 20.1987 10.9147C20.8135 10.1041 21.4334 9.29652 22.0449 8.48116C23.952 5.92512 25.9519 3.45185 28.413 1.39226C28.8776 1.00409 29.3556 0.635011 29.8995 0.360354C30.2137 0.202079 30.5346 0.0590074 30.8826 0.0113731C31.5904 -0.0845712 32.0498 0.438393 31.8809 1.13213C31.815 1.41338 31.6478 1.62689 31.4518 1.8355C30.3184 3.05034 29.0026 4.04728 27.6563 5.00453C26.6141 5.74472 25.5347 6.43576 24.5077 7.19689C22.9908 8.32069 21.9267 9.85445 20.773 11.4502C21.0922 11.3965 21.2493 11.2418 21.4149 11.1237C22.3101 10.481 23.2848 9.99515 24.3118 9.60513C24.881 9.38925 25.4739 9.26865 26.0803 9.23368C26.2864 9.22135 26.4992 9.24601 26.7019 9.28419C27.006 9.34179 27.3117 9.43587 27.4029 9.77826C27.4958 10.134 27.234 10.3347 26.9975 10.5234C26.5567 10.8723 26.0533 11.1217 25.5567 11.3747C24.4773 11.9228 23.381 12.4299 22.251 12.8686C21.0365 13.3417 19.8625 13.9023 18.7865 14.6552C18.5163 14.8444 18.2815 15.0621 18.1007 15.3402C17.0315 17.0031 16.0264 18.7031 15.2477 20.5269C15.2055 20.6252 15.1751 20.7298 15.1126 20.9054C15.4454 20.7941 15.6143 20.6039 15.8035 20.4468C17.3119 19.1884 19.045 18.3671 20.9284 17.8469C21.3591 17.7281 21.7983 17.6894 22.2409 17.7552C22.5534 17.8011 22.8456 17.9014 22.9435 18.2408C23.05 18.6038 22.7983 18.8124 22.5432 18.9757C22.2088 19.1869 21.8625 19.3811 21.5044 19.5475C19.8591 20.3119 18.219 21.0852 16.6278 21.9608C15.3643 22.6554 14.3711 23.6667 13.3407 24.6408C13.187 24.7875 13.0941 24.9772 13.0164 25.1748C11.8576 28.1729 10.8931 31.2319 10.138 34.3557C10.1228 34.4204 10.1042 34.492 10.1853 34.5636C10.8188 33.7981 11.4083 32.9917 12.0941 32.2772C13.192 31.1363 14.4116 30.1266 15.7832 29.3185C16.3288 28.9974 16.9082 28.7597 17.5416 28.6761C17.7764 28.646 18.0078 28.6301 18.2291 28.7229C18.6108 28.8818 18.7443 29.2029 18.5585 29.571C18.4014 29.884 18.1767 30.1495 17.9149 30.3899C17.2291 31.0213 16.491 31.5872 15.7427 32.1389C14.2528 33.2372 12.9961 34.5677 11.8069 35.9754C10.9032 37.0452 10.1093 38.1886 9.36101 39.3668C9.13128 39.7296 8.98264 40.1151 8.91845 40.5304C8.3965 43.8635 7.91847 47.2016 7.70563 50.5727C7.69212 50.7735 7.64145 50.9823 7.75124 51.2542C7.97928 50.8007 8.18367 50.3958 8.38974 49.9933C9.28838 48.246 10.3424 46.6116 11.8238 45.2932C12.5214 44.6731 13.2731 44.1229 14.1059 43.6988C14.6498 43.4236 15.2224 43.2187 15.844 43.2414C16.4791 43.266 16.7714 43.6412 16.6497 44.2631C16.5585 44.7385 16.2612 45.104 15.9437 45.4457C14.9319 46.54 13.8119 47.5219 12.687 48.4977C11.1042 49.8728 9.62114 51.3427 8.33231 53.0042C7.78671 53.7082 7.52151 54.4689 7.51645 55.3846C7.49111 59.4424 7.84921 63.4701 8.35934 67.4886C8.44549 68.1553 8.51812 68.8229 8.6921 69.5446C8.89142 69.3674 8.88805 69.1553 8.9269 68.9771C9.47249 66.4351 10.6245 64.1685 12.0704 62.0326C12.3728 61.5875 12.7343 61.1931 13.1194 60.8238C13.3373 60.6171 13.5873 60.4397 13.8407 60.2764C14.1819 60.0578 14.5467 60.0316 14.8846 60.2838C15.1785 60.5014 15.246 60.921 15.0687 61.3706C15.0011 61.5416 14.9099 61.7064 14.8119 61.8635C13.8744 63.3883 12.9471 64.9195 12.1447 66.5192C10.8508 69.1016 10.062 71.8393 9.7208 74.7062C9.63972 75.3925 9.90323 76.0395 10.0519 76.6908C10.7073 79.573 11.4725 82.4255 12.5535 85.1842C13.0197 86.3747 13.5366 87.5415 14.143 88.7956C14.2765 88.4891 14.1751 88.3014 14.138 88.1168C13.763 86.3406 13.4099 84.5621 13.3745 82.7361C13.3508 81.4703 13.437 80.2232 13.9049 79.0323C14.0484 78.6661 14.1869 78.2933 14.5146 78.032C15.1413 77.5335 15.8018 77.7105 16.0416 78.4691C16.2342 79.0789 16.1987 79.7132 16.1734 80.34C16.0957 82.2912 15.915 84.241 15.947 86.1977C15.9893 88.7918 16.3676 91.3387 17.0974 93.8315C17.2629 94.3966 17.5264 94.9038 17.8305 95.4043C20.3321 99.5244 23.0719 103.481 25.9334 107.356C26.4029 107.991 26.9198 108.59 27.408 109.214C27.533 109.371 27.7019 109.519 27.6563 109.764C27.4283 109.901 27.3185 109.7 27.1918 109.589C25.6445 108.237 24.3016 106.693 22.9858 105.126C20.3152 101.943 18.0602 98.4744 15.969 94.896C15.7798 94.5722 15.5602 94.2797 15.3001 94.0074C14.5467 93.2163 13.8187 92.3998 13.0569 91.6172C12.5214 91.0677 11.9319 90.5745 11.3086 90.1243C9.61438 88.899 7.90326 87.6935 6.22931 86.4379C5.52324 85.9068 4.81379 85.382 4.10434 84.8584C3.61449 84.4966 3.20909 84.0417 2.87464 83.5336C2.48782 82.9468 2.70403 82.5022 3.4101 82.4125C3.8611 82.3542 4.29015 82.4618 4.70062 82.6419C5.81884 83.1349 6.78842 83.8584 7.71408 84.6388C9.63972 86.2609 11.3407 88.11 13.0518 89.9487C13.1109 90.0139 13.1768 90.0774 13.3069 90.108C13.2309 89.9319 13.1582 89.7541 13.0755 89.5809C11.5451 86.404 10.3728 83.1001 9.52655 79.6781C9.24953 78.549 8.98939 77.4154 8.76136 76.2747C8.63467 75.6352 8.3965 75.0385 8.14313 74.4329C6.61781 70.7946 4.21245 67.7531 1.70405 64.7782C1.10271 64.0657 0.528392 63.3324 0.193938 62.4463C0.0452921 62.0546 -0.155718 61.6314 0.193938 61.2684C0.565553 60.8814 1.04527 60.9659 1.50304 61.1115C2.30539 61.3661 2.90673 61.9073 3.48104 62.4937C4.62461 63.6613 5.35094 65.0937 6.06546 66.5313C6.5266 67.4612 6.94213 68.4131 7.45057 69.3365C7.32388 68.2854 7.18537 67.2361 7.07389 66.1835C6.70058 62.6655 6.42863 59.1413 6.49957 55.5988C6.50633 55.2685 6.44383 54.9572 6.35599 54.6395C5.83404 52.7649 4.98777 51.0357 4.05198 49.3413C3.08578 47.5898 2.13985 45.827 1.19392 44.0638C0.940547 43.5929 0.710821 43.1045 0.617917 42.5721C0.482785 41.801 0.921966 41.4086 1.67702 41.6157C1.94898 41.6904 2.1787 41.8414 2.39491 42.0292C3.54185 43.0306 4.32225 44.2917 4.92696 45.664C5.5756 47.1351 6.07897 48.6597 6.50295 50.21C6.52998 50.3127 6.57221 50.4124 6.70903 50.5019C6.76308 49.9553 6.81376 49.4097 6.86781 48.8637C7.15328 45.9918 7.57726 43.1377 8.06036 40.2951C8.24616 39.2021 8.08907 38.157 7.82219 37.131C7.38638 35.4646 6.74112 33.8638 6.07728 32.2743C5.61107 31.1571 5.14993 30.0396 4.87629 28.8548C4.76481 28.3763 4.69893 27.8918 4.70737 27.4035C4.71582 26.8569 4.94892 26.4832 5.30871 26.4079C5.78675 26.3072 6.13303 26.54 6.35937 26.9258C7.11105 28.2154 7.73435 29.5619 8.12117 31.0132C8.42015 32.139 8.60933 33.2868 8.83737 34.4273C8.88298 34.6481 8.8796 34.8861 9.06541 35.156C9.1904 34.6728 9.30189 34.2544 9.40831 33.8344C10.089 31.1242 10.9471 28.47 11.9133 25.8493C12.1785 25.1304 12.4099 24.3991 12.6481 23.6694C12.6887 23.5417 12.6903 23.3929 12.6785 23.2562C12.5096 21.2399 12.2833 19.2303 11.9893 17.2276C11.8204 16.0775 11.6819 14.9226 11.5316 13.7704C11.4539 13.1802 11.5519 12.6093 11.7512 12.0559C11.9488 11.511 12.2309 11.3862 12.7816 11.5762C13.2495 11.7382 13.5603 12.0649 13.7748 12.5012C14.1819 13.3333 14.3119 14.2316 14.3846 15.137C14.5113 16.7356 14.4859 18.3384 14.5738 19.9813" transform="translate(16.69531 37.73206)" id="Fill-434" fill="#F0BB29" stroke="none"/>
    <path d="M9.5419 22.0588C8.69394 19.646 8.17537 17.3385 7.61625 15.0382C7.29025 13.6943 6.7514 12.3962 6.55546 11.0168C6.14331 8.11668 5.96257 5.21791 6.85613 2.35732C6.98789 1.94111 7.10951 1.52389 7.32572 1.14163C7.58923 0.677958 7.95746 0.3207 8.45239 0.116143C9.17535 -0.182669 9.68379 0.103981 9.81554 0.873731C9.89493 1.33589 9.8679 1.79314 9.77162 2.25259C9.38649 4.11979 8.99461 5.98597 8.63313 7.85689C8.16692 10.2592 8.15341 12.6968 8.47435 15.0965C8.74292 17.1148 9.39663 19.0714 10.0943 20.9945C10.1078 21.0362 10.1703 21.059 10.2159 21.0952C10.4287 20.9661 10.324 20.7557 10.3324 20.5856C10.4439 18.43 10.6246 16.2904 11.4929 14.273C11.7074 13.7711 11.9675 13.2951 12.2682 12.8392C12.4523 12.5617 12.6804 12.3259 12.9557 12.1487C13.6161 11.7244 14.1246 11.9762 14.2023 12.7558C14.258 13.3083 14.133 13.8401 14.008 14.3706C13.5857 16.1728 13.1432 17.9733 12.7445 19.7808C12.3848 21.4024 12.0131 23.0215 11.9304 24.6909C11.8983 25.384 11.9844 26.0395 12.2547 26.6839C13.4118 29.4457 14.6888 32.1504 16.0384 34.8363C16.2158 34.7235 16.1127 34.5889 16.0908 34.4836C15.7563 32.9597 15.5942 31.4146 15.6499 29.859C15.7208 27.8785 16.1094 25.9672 17.1465 24.237C17.4742 23.6901 17.883 23.2154 18.4421 22.9053C19.2596 22.4536 19.8407 22.7975 19.8559 23.733C19.866 24.3623 19.7562 24.9786 19.6025 25.5902C19.0552 27.7544 18.5063 29.9182 18.1279 32.123C17.7918 34.0742 17.8103 36.0236 17.9674 37.9839C18.0046 38.438 18.1836 38.8239 18.4032 39.2016C19.8187 41.6551 21.3424 44.0387 23.0754 46.2853C23.9014 47.3538 24.7106 48.4383 25.5805 49.484C25.0518 48.1962 24.5129 46.9243 24.2106 45.5669C23.9504 44.3975 23.6819 43.2286 23.6886 42.0195C23.692 41.5566 23.7089 41.0896 23.9302 40.6653C24.0602 40.4151 24.2342 40.1984 24.5416 40.181C24.8676 40.1633 25.0163 40.4013 25.1447 40.6514C25.4656 41.2847 25.7055 41.948 25.8913 42.6357C26.55 45.0802 27.2223 47.5228 27.8693 49.9709C28.2831 51.533 28.8625 53.0279 29.6395 54.4417C30.1902 55.4451 30.974 56.2914 31.6902 57.1799C33.2273 59.0852 34.6867 61.0548 36.3218 62.8808C36.4418 63.0159 36.5989 63.1544 36.5144 63.3825C36.2965 63.5294 36.1495 63.3605 36.0229 63.2439C35.4823 62.749 34.9232 62.2676 34.4266 61.7271C32.952 60.1241 31.4976 58.5008 30.0449 56.8758C29.7155 56.5076 29.3355 56.2153 28.9335 55.9299C26.5754 54.2644 23.8913 53.2509 21.3001 52.0499C19.5417 51.2374 17.834 50.3367 16.3779 49.0259C15.9928 48.678 15.6229 48.3153 15.3881 47.844C15.0165 47.1072 15.3273 46.4789 16.1381 46.329C16.4641 46.2697 16.7867 46.3224 17.111 46.3816C18.3965 46.617 19.513 47.2454 20.6177 47.8947C21.7207 48.5422 22.8052 49.221 23.8339 49.9883C23.9825 50.0981 24.1227 50.2384 24.3288 50.2502C24.42 50.0967 24.317 49.9883 24.2376 49.8906C21.6498 46.7192 19.3661 43.3439 17.3745 39.7675C17.16 39.3795 16.8627 39.0672 16.5114 38.7982C15.8188 38.2667 15.0975 37.7822 14.3273 37.3689C12.1922 36.2235 10.1044 34.9921 7.91186 33.9519C6.72944 33.3896 5.59095 32.7379 4.75651 31.68C4.62137 31.5102 4.46935 31.3447 4.37813 31.1518C4.14841 30.6714 4.29368 30.3094 4.78691 30.0927C5.3021 29.8666 5.84939 29.8666 6.3933 29.9405C7.74463 30.1226 8.949 30.6815 10.0824 31.4095C11.3915 32.2497 12.5469 33.2928 13.7479 34.2752C14.1584 34.6106 14.5536 34.9662 15.0452 35.3912C14.3712 33.9287 13.7293 32.5843 13.1297 31.2197C12.4844 29.7484 11.8679 28.2652 11.2631 26.7765C11.0402 26.2302 10.6956 25.8084 10.2598 25.4157C8.03854 23.4065 5.62136 21.6303 3.36633 19.6614C2.35959 18.7831 1.40352 17.8547 0.558943 16.8186C0.388338 16.6093 0.234624 16.3757 0.12314 16.1316C-0.164018 15.5051 0.0555731 15.0843 0.734615 14.911C1.11468 14.8134 1.48967 14.864 1.86466 14.9581C2.75654 15.1811 3.51159 15.6611 4.23118 16.2079C6.14162 17.6574 7.65679 19.4651 8.99123 21.4384C9.08244 21.5732 9.1669 21.7126 9.26318 21.845C9.2919 21.8871 9.34595 21.9107 9.5419 22.0588" transform="translate(0 88.9585)" id="Fill-435" fill="#F0BB29" stroke="none"/>
    <path d="M18.5267 9.49597C20.123 9.49766 21.7226 9.45205 23.3155 9.51455C24.856 9.57536 26.2107 9.15138 27.5502 8.40308C29.8407 7.1227 32.1228 5.83049 34.2967 4.3643C35.5754 3.50114 36.7646 2.50622 38.0027 1.58394C38.6902 1.07381 39.4098 0.607605 40.18 0.232611C40.6108 0.0214662 41.0686 -0.150828 41.501 0.205585C41.8 0.453891 41.8016 1.07719 41.528 1.60759C41.2189 2.20386 40.7729 2.70047 40.2915 3.15486C38.1683 5.16665 35.719 6.7021 33.1008 7.97572C32.8322 8.10579 32.5602 8.22572 32.3086 8.39463C33.4454 8.33214 34.5095 7.99599 35.5399 7.5585C38.9943 6.08555 42.4672 4.65652 45.6952 2.71061C46.3573 2.31028 47.0516 1.96907 47.788 1.71907C48.1546 1.59407 48.5262 1.48428 48.913 1.44881C49.7508 1.37617 50.1512 1.85758 49.9265 2.67345C49.8218 3.0552 49.5904 3.35756 49.3032 3.63289C48.5127 4.3947 47.533 4.85415 46.5752 5.33725C41.8895 7.69532 36.925 9.12604 31.7174 9.72907C31.5822 9.74427 31.4454 9.76285 31.187 9.79326C31.4944 10.0162 31.7613 10.023 32.0045 10.072C34.0906 10.4909 36.1751 10.9115 38.2257 11.479C38.7848 11.6344 39.349 11.7797 39.8709 12.0398C40.1159 12.1598 40.376 12.2881 40.5686 12.474C41.0956 12.9807 40.925 13.6023 40.2223 13.7712C39.9554 13.8354 39.675 13.8675 39.4013 13.8591C37.8541 13.8151 36.3119 13.7138 34.8051 13.3135C32.0822 12.5888 29.3711 11.8253 26.7597 10.7544C26.4506 10.6277 26.1448 10.5162 25.7985 10.5449C23.0993 10.778 20.3949 10.7747 17.6889 10.7848C17.5318 10.7848 17.3527 10.724 17.2075 10.8929C17.2852 11.197 17.5858 11.2578 17.8054 11.3929C20.0301 12.7865 22.2564 14.1716 24.4151 15.6631C24.8239 15.9469 25.2327 16.2256 25.5418 16.6293C25.7546 16.9063 25.8982 17.1985 25.7597 17.5465C25.6094 17.9215 25.2546 17.9502 24.9252 17.962C24.1685 17.9874 23.4354 17.8438 22.7479 17.5347C20.476 16.5043 18.3358 15.2509 16.3899 13.6817C15.4001 12.8861 14.3748 12.1344 13.4812 11.2257C13.0065 10.7426 12.4204 10.6142 11.7616 10.5517C8.15695 10.2139 4.58945 9.6311 1.03883 8.92841C0.695934 8.86253 0.332765 8.8203 0 8.58382C0.152024 8.24599 0.429047 8.3524 0.641881 8.36761C1.96449 8.4622 3.28542 8.57875 4.60634 8.68179C7.13839 8.88111 9.67213 9.06861 12.2025 9.27806C12.7684 9.32367 13.2954 9.2409 13.8292 9.06354C16.5335 8.16322 19.1331 7.02135 21.6685 5.72407C23.1466 4.96902 24.6617 4.3018 26.2715 3.87613C26.6465 3.77816 27.0249 3.69539 27.4134 3.68357C27.7901 3.67174 28.1482 3.72411 28.3272 4.10923C28.5113 4.51294 28.3694 4.87273 28.084 5.16834C27.7411 5.52982 27.3576 5.84231 26.9286 6.10582C25.0097 7.29161 22.9303 8.09565 20.7699 8.71051C20.0267 8.92165 19.2818 9.12604 18.5385 9.33212C18.5352 9.38786 18.5318 9.44191 18.5267 9.49597" transform="translate(84.30078 157.571)" id="Fill-436" fill="#F0BB29" stroke="none"/>
    <path d="M0 0C0.739852 0.126688 1.07431 0.511818 1.47126 0.778707C1.6047 0.868233 1.6199 1.03377 1.51856 1.16384C1.42058 1.28715 1.26856 1.32093 1.12667 1.2483C0.657083 1.00675 0.310806 0.65202 0 0" transform="translate(46.62891 178.832)" id="Fill-437" fill="#253A44" stroke="none"/>
    <path d="M3.61173 51.0284C5.74007 48.2352 8.45286 46.1167 11.3869 44.2407C13.1504 43.1139 14.9156 41.9992 16.3311 40.3987C17.5929 38.9724 18.2922 37.3623 18.2399 35.481C18.1807 33.4196 18.0659 31.3571 17.5084 29.3465C16.7838 26.7229 17.4003 24.3415 18.8936 22.1328C22.0016 17.5341 24.9695 14.7768 30.4373 13.9427C31.7954 13.7368 34.5234 14.0407 35.8899 14.1569C37.8274 14.3198 39.0368 14.2508 40.9151 13.8355C41.7209 13.6579 43.0925 12.7835 43.6904 12.1985C44.4641 11.4414 45.1178 10.5896 45.7326 9.70244C46.361 8.79367 47.0096 7.89774 47.7799 7.09911C48.0316 6.83864 48.1785 6.52749 48.2613 6.18409C48.5653 4.93208 49.3373 4.01132 50.3238 3.23819C52.1058 1.84176 54.1717 1.07117 56.349 0.591955C59.7831 -0.1631 63.2154 -0.300766 66.6157 0.801748C69.4282 1.71474 72.0768 2.98195 74.5598 4.57635C77.624 6.54185 80.5344 8.70685 83.2894 11.0992C88.0934 15.2724 92.1862 20.0465 95.5983 25.3986C99.6861 31.813 101.581 38.8622 101.434 46.4618C101.35 50.8093 100.211 54.9111 98.4868 58.8698C97.2858 61.6286 95.8534 64.2588 94.0781 66.6881C92.5967 68.7132 90.9041 70.5458 89.0207 72.2135C84.3401 76.3564 79.0547 79.5671 73.4771 82.3174C67.9772 85.0302 62.1411 86.7011 56.0906 87.6315C51.0585 88.4051 46.0113 88.5904 40.9489 87.9376C34.6247 87.1232 28.8495 84.8745 23.5776 81.2955C21.7938 80.084 20.1334 78.7151 18.4679 77.3523C16.5102 75.7469 14.4494 74.2782 12.4308 72.7517C10.2282 71.084 11.7011 78.2438 9.865 76.1513C9.289 75.4959 5.66575 83.5665 5.16407 82.8508C0.865155 77.6513 0.132059 69.4235 0.0965871 67.0846C-0.102734 65.6172 -0.0351673 62.351 0.697928 58.8852C1.59149 54.6557 2.54418 52.9321 3.09654 51.9183C3.19451 51.7396 3.52389 51.2406 3.60497 51.0541L3.61173 51.0284" transform="translate(32.9375 44.47852)" id="Fill-438" fill="#253A44" stroke="none"/>
    <path d="M7.12693 5.7395C8.66237 4.00388 10.49 2.96218 12.4444 2.07098C16.8447 0.0652697 21.0051 -0.262765 26.6722 0.164423C29.3343 0.365433 31.3393 1.15191 33.8883 1.98162C36.0082 2.67147 38.8071 4.28091 40.7851 5.88493C42.1128 6.55874 42.2919 7.07326 43.1297 8.29418C43.905 9.42203 44.6618 10.561 45.432 11.6913C46.8002 13.6963 47.6212 15.9246 48.1076 18.284C48.4286 19.8528 48.7208 21.4271 49.0198 23.0003C49.2208 24.0654 49.5113 25.0983 50.089 26.0287C50.8762 27.2893 52.0349 28.09 53.3643 28.6747C54.8136 29.3117 56.3676 29.6011 57.8845 30.0038C61.6192 30.9935 65.0111 32.6252 68.0431 35.0621C69.6056 36.3182 70.8539 37.8352 72.163 39.3121C74.5802 42.0395 75.9467 44.7971 76.9754 48.2761C77.5649 50.2713 77.673 52.9567 77.8842 55.0113C78.2929 58.9835 77.9551 62.6407 77.0311 66.4785C76.5514 68.4666 76.222 70.4634 76.2271 72.5206C76.2355 75.264 76.7592 77.8982 77.6967 80.4646C78.3554 82.2698 78.977 84.0827 79.3808 85.9712C80.0851 89.288 79.352 91.8522 77.7152 94.7217C76.8791 96.1869 75.5582 97.7033 74.2677 98.7541C72.1258 100.5 69.9856 102.249 68.1293 104.315C66.7425 105.857 65.9333 107.642 65.6546 109.698C65.3067 112.237 65.0178 114.782 64.7442 117.329C64.5381 119.246 64.1766 121.141 63.4418 122.929C62.131 126.117 59.8693 128.267 56.4268 128.997C54.2325 129.463 52.1481 130.19 50.3965 131.617C48.2056 133.403 46.0722 135.278 44.6634 137.784C42.4253 141.769 38.7953 143.875 34.667 145.338C34.1923 145.507 33.6079 145.485 33.5707 146.23C33.5589 146.427 33.2278 146.39 33.1805 146.208C33.037 145.652 32.7177 145.101 32.8697 144.514C33.0674 143.755 32.9745 143.012 32.8968 142.26C32.6451 139.83 32.4018 137.395 32.1248 134.967C31.7887 132.029 30.966 129.209 30.0083 126.422C28.9509 123.335 28.0286 120.208 27.407 117.001C27.1418 115.628 27.0303 114.235 26.9543 112.838C26.782 109.668 26.7583 106.497 26.7499 103.323C26.7448 100.995 26.733 98.6663 26.6249 96.3391C26.4002 91.4493 25.5624 86.6585 23.8547 82.0758C21.9848 77.0563 19.4375 72.3927 15.8717 68.3318C12.6792 64.6981 9.77046 60.8438 7.14382 56.7813C5.89215 54.8434 4.84656 52.7976 4.03745 50.6365C3.12024 48.1812 2.26384 45.7045 1.56621 43.1769C1.20811 41.8819 0.968251 40.5695 0.920954 39.2219C0.875347 37.9354 0.605081 36.681 0.304411 35.4348C0.0273883 34.2927 -0.0401781 33.1343 0.0206317 31.9654C0.0544149 31.3233 0.150697 30.6887 0.36691 30.0818C1.04426 28.1854 1.44797 26.214 1.98006 24.278C2.15066 23.6647 2.08985 23.0617 1.88884 22.4733C1.04257 19.9936 1.33649 17.5243 2.02735 15.0871C2.40066 13.775 2.93274 12.5058 3.41584 11.2266C3.9361 9.85345 4.70467 8.62475 5.64553 7.49588C6.16749 6.87157 6.632 6.19912 7.12693 5.7395" transform="translate(92.58594 2.607788)" id="Fill-439" fill="#253A44" stroke="none"/>
    <path d="M82.1531 87.8108C80.8575 89.2821 79.2021 90.2331 77.6785 91.3445C76.4083 92.2719 75.0434 93.0556 73.6043 93.7077C70.2716 95.2178 66.8443 95.2296 63.3494 94.4053C61.5943 93.9914 59.8748 93.4289 58.091 93.1232C56.3968 92.8344 54.7279 92.9779 53.0692 93.3715C51.7043 93.6941 50.4087 94.2127 49.1216 94.7634C47.0051 95.6688 44.8328 96.4289 42.6504 97.1519C39.7856 98.1029 36.8144 98.1501 33.8364 98.0302C30.5391 97.9002 27.4024 97.0961 24.372 95.7938C20.4312 94.1012 16.6424 92.1351 13.0428 89.7972C11.3351 88.6908 9.51923 87.7568 7.91791 86.4797C6.59361 85.4223 5.42302 84.2061 4.18149 83.0643C3.38758 82.3362 2.63928 81.5643 1.9349 80.745C1.12411 79.8025 0.590331 78.7113 0.0852724 77.5948C-0.129251 77.1235 0.0903399 76.8211 0.418037 76.534C1.35721 75.708 2.27442 74.8566 3.23893 74.0593C5.48721 72.1962 7.48717 70.0983 9.35538 67.8568C13.0158 63.4649 16.1728 58.7218 19.2015 53.8857C21.9464 49.5001 24.0815 44.8257 25.8906 39.9836C27.828 34.8007 29.578 29.5564 31.3685 24.3232C33.0594 19.3814 35.1472 14.6153 37.9748 10.1964C39.6099 7.63938 41.6893 5.51121 44.0879 3.67576C44.897 3.05635 45.6791 2.40062 46.5068 1.80958C49.5185 -0.340213 53.4864 -0.710984 56.6569 1.43932C57.5319 2.03289 58.2414 2.81311 58.8714 3.65397C60.8765 6.33045 63.0757 8.86807 64.7497 11.7809C65.8983 13.7749 67.128 15.7183 68.3375 17.6727C69.9489 20.2777 71.7901 22.7094 73.8019 25.0202C75.4083 26.8637 76.9708 28.7385 78.7731 30.4001C79.6532 31.2123 80.5839 31.9553 81.594 32.5928C83.121 33.5582 84.6953 34.4362 86.3541 35.1604C87.1868 35.5235 88.0432 35.594 88.9148 35.3549C89.6564 35.1501 89.8895 34.8886 89.9232 34.1268C89.9874 32.6572 90.3067 31.252 90.8016 29.8696C91.2442 28.6341 91.8996 27.5574 92.9029 26.7125C93.4401 26.2598 93.9755 26.0926 94.7323 26.3973C95.859 26.8519 97.0819 27.064 98.239 27.4539C102.305 28.8299 106.516 29.3219 110.771 29.5517C111.539 29.5929 112.3 29.5295 113.021 29.3289C114.426 28.9388 115.374 29.5517 116.196 30.5746C117.394 32.0633 118.25 33.7388 119.036 35.4685C120.097 37.8159 120.884 40.2429 121.419 42.7584C122.179 46.3281 122.016 49.8598 121.154 53.4002C120.406 56.4651 119.151 59.2775 117.445 61.9194C116.561 63.2876 115.798 64.7301 114.627 65.894C111.175 69.3246 107.158 71.8178 102.469 73.1641C100.352 73.7739 98.163 73.8178 95.9721 73.7992C94.1141 73.7806 92.3573 73.2215 90.5668 72.8415C88.4824 72.3989 86.4943 71.6337 84.4504 71.056C82.7629 70.5763 81.0433 70.2908 79.2815 70.3077C77.9978 70.3179 76.8002 70.556 75.8441 71.5256C75.2597 72.1202 75.133 72.7638 75.4488 73.5188C75.7326 74.2012 76.1718 74.7739 76.6802 75.3043C78.3407 77.039 80.3626 78.2265 82.5366 79.186C83.2021 79.4799 83.8811 79.7467 84.4909 80.1505C85.4064 80.7586 85.7003 81.49 85.4284 82.5575C85.327 82.9477 85.1801 83.3362 84.996 83.696C84.2206 85.2027 83.3524 86.647 82.1531 87.8108" transform="translate(12.34766 86.36926)" id="Fill-440" fill="#FFD85A" stroke="none"/>
    <path d="M13.1014 82.8282C12.6251 83.4531 11.9511 83.8822 11.392 84.4345C9.97815 85.8349 9.11836 87.5899 8.2096 89.3128C7.64035 90.3956 7.12178 91.5054 6.54746 92.5831C5.7316 94.1117 4.47317 95.2232 3.05259 96.1674C2.26713 96.6894 1.44113 96.5678 0.61851 96.2823C0.17595 96.1269 -0.00816867 95.7553 0.000277132 95.3212C0.00534461 95.007 0.0593977 94.6725 0.182706 94.3854C1.18438 92.0695 1.64552 89.6068 2.15227 87.1558C2.833 83.8636 2.94955 80.514 3.16576 77.1745C3.36171 74.1239 3.60832 71.0767 3.78906 68.026C4.02386 64.0464 4.2198 60.0633 4.42757 56.0803C4.65054 51.8067 4.87519 47.5315 5.63194 43.3086C6.09983 40.6929 6.24172 38.0495 6.49172 35.4128C7.00185 30.0221 7.54238 24.6342 8.09473 19.248C8.53222 14.9824 9.20113 10.7617 10.5829 6.68015C11.1454 5.01987 11.8616 3.4329 12.7805 1.93665C12.9747 1.61723 13.1707 1.30372 13.25 0.91538C13.4325 0.0258684 14.0963 -0.246593 14.8649 0.236169C15.2382 0.468766 15.5372 0.791396 15.7821 1.15845C16.6638 2.47549 17.3564 3.87834 17.7466 5.42172C19.1013 10.7593 20.2567 16.1357 21.0455 21.5887C21.3327 23.577 21.755 25.5447 21.9729 27.5428C22.3158 30.6985 22.5877 33.8564 22.5624 37.0369C22.5387 39.9875 21.7144 42.7299 20.4256 45.3389C18.875 48.4757 17.6199 51.7375 16.3294 54.9807C14.4494 59.712 13.5254 64.641 13.37 69.7186C13.343 70.6594 13.5457 71.5716 13.8142 72.4669C14.1504 73.5834 14.4983 74.6932 14.8564 75.8029C15.1892 76.8418 15.3142 77.8941 15.1875 78.987C15.0051 80.5529 14.1892 81.7539 13.1014 82.8282" transform="translate(44.50781 95.45996)" id="Fill-441" fill="#F0BB29" stroke="none"/>
    <path d="M22.9261 55.2737C22.8965 55.1446 22.8664 55.0133 22.9788 54.8932C22.9874 54.8932 22.9971 54.8923 23.0068 54.8914C23.0293 54.8892 23.0516 54.8871 23.0598 54.8966C23.4399 55.3341 23.8352 55.758 24.1916 56.2158C26.0665 58.6229 28.357 60.5907 30.7556 62.4488C33.3705 64.4792 36.2589 66.0585 39.2538 67.42C44.024 69.5872 48.9851 70.7899 54.2721 69.8625C57.2028 69.349 60.1099 68.8085 62.6757 67.1295C65.5186 65.2697 68.2077 63.0417 69.6553 59.9387C70.983 57.0908 72.0049 54.1517 72.6468 51.1004C73.0655 49.1249 72.9748 47.0182 72.8859 44.953C72.8618 44.394 72.8378 43.838 72.8242 43.2885C72.7262 39.2729 71.8512 35.4525 69.9543 31.8784C68.9813 30.0514 67.9036 28.2911 66.8006 26.5442C66.7653 26.4887 66.7237 26.434 66.6818 26.3788C66.5031 26.1438 66.3174 25.8996 66.576 25.5396C66.7128 25.3513 66.4864 25.2091 66.3294 25.1638C65.7939 25.0076 65.5658 24.5621 65.3192 24.1373C64.8784 23.3824 64.4476 22.6233 64.0203 21.8612C63.3243 20.6201 62.3835 19.6127 61.2146 18.7994C59.8599 17.8573 58.3616 17.2386 56.8025 16.7381C52.9428 15.5016 49.0003 14.5983 45.0155 13.8799C44.5894 13.8029 44.1635 13.7246 43.7375 13.6463C40.2985 13.014 36.8595 12.3817 33.335 12.4644C33.0343 12.4711 32.7624 12.3833 32.4938 12.2607C31.0918 11.6222 29.678 11.0043 28.3503 10.2063C27.0547 9.42692 25.7574 8.64872 24.4382 7.906C23.2456 7.23422 21.9973 6.67376 20.7254 6.17039C19.8217 5.81178 18.945 5.91887 18.1528 6.47613C17.8386 6.69757 17.5903 6.71768 17.293 6.48322C17.1106 6.33913 16.8995 6.23322 16.7086 6.10113C14.7407 4.75115 12.783 3.38851 10.8084 2.05036C9.64959 1.26388 8.42157 0.601395 7.08207 0.160694C6.53984 -0.0166683 5.9858 -0.0903157 5.46385 0.167788C4.08887 0.845986 2.83045 1.70442 1.98925 3.00743C0.967306 4.58849 0.264616 6.32157 0.117659 8.21866C-0.0580138 10.485 -0.0613922 12.7586 0.27644 15.0106C0.79839 18.4643 1.295 21.926 1.95884 25.3533C2.92842 30.3573 4.2257 35.2812 5.93006 40.0945C6.77464 42.4814 7.56517 44.8905 8.1361 47.3612C8.85399 50.4558 9.73742 53.5064 10.7915 56.4962C13.1157 63.0839 15.3792 69.6936 17.9434 76.1935C18.7457 78.2306 19.7727 80.158 20.7491 82.1089C21.9095 84.4248 22.82 86.8605 24.097 89.119C25.2439 91.1544 26.2135 93.2642 26.9922 95.4668C27.2354 96.1526 27.5327 96.8232 27.651 97.5445C27.901 99.0394 28.281 100.504 28.6628 101.968C28.7422 102.278 28.8232 102.593 28.9584 102.879C29.3824 103.776 29.9516 103.958 30.786 103.409C31.6948 102.813 32.487 102.105 32.9026 101.041C33.2472 100.159 33.4313 99.2641 33.4414 98.3198C33.456 97.1234 33.2569 95.955 33.0579 94.7869C33.0029 94.4642 32.948 94.1415 32.8975 93.8182C32.5951 91.8774 32.5208 89.95 32.9144 88.0024C33.2488 86.3487 33.4228 84.668 33.3029 82.967C33.2015 81.5363 32.7083 80.3269 31.607 79.3624C30.5563 78.4418 29.531 77.4908 28.6695 76.3793C27.5023 74.8726 26.4973 73.2848 26.0074 71.4149C24.624 66.1413 23.673 60.785 22.9483 55.3864C22.9434 55.3493 22.9347 55.3116 22.9261 55.2737ZM62.4257 22.7331C62.6368 23.1449 62.9139 23.5218 63.1216 24.1863C59.8497 22.9851 56.6944 21.9691 53.6607 20.6402C48.2317 18.2639 42.5815 16.4628 36.8991 14.2995C37.3176 14.0843 37.5901 14.1271 37.8368 14.1659C37.8709 14.1713 37.9045 14.1765 37.938 14.1811C43.1625 14.8996 48.3449 15.8263 53.4343 17.2276C55.0373 17.6687 56.6133 18.1688 58.1488 18.8087C60.0558 19.6034 61.4882 20.8924 62.4257 22.7331Z" transform="translate(57.08594 86.79419)" id="Fill-442" fill="#F0BB29" fill-rule="evenodd" stroke="none"/>
    <path d="M27.969 38.8297C29.4471 39.2751 29.8001 40.756 31.3136 41.0481C32.7308 41.32 34.1936 41.5085 35.577 41.9303C36.0483 41.1546 36.3642 40.284 36.501 39.2891C37.2341 33.9068 38.9553 28.8125 37.8675 23.4794C37.4959 21.6526 36.8338 20.6636 35.9182 19.0299C33.3693 14.4798 30.3761 10.0449 27.0349 6.99189C26.2934 6.30018 25.513 5.64715 24.7259 5.00155C22.7006 3.34516 20.4709 2.05819 18.0554 1.07882C16.6415 0.506193 15.1905 0.154172 13.6585 0.0438697C11.3055 -0.124877 9.02343 0.214813 6.73124 0.693014C4.47283 1.16344 2.6536 2.30211 1.08269 3.94836C0.0810137 4.99834 -0.258507 6.1463 0.202633 7.54171C0.908702 9.67614 1.75328 11.7459 2.94583 13.6602C5.22451 17.3189 7.72108 20.8161 10.4457 24.1627C12.9102 27.19 15.873 29.7594 18.7192 32.429C19.883 33.5213 21.5367 34.0016 22.7191 35.0784C23.0637 35.3936 23.2056 36.1378 23.5688 36.4285C24.5451 37.2135 26.2562 37.7093 27.969 38.8297" transform="translate(69.73047 81.70032)" id="Fill-443" fill="#FFEAC0" stroke="none"/>
    <path d="M10.5825 5.75279C10.8984 5.39823 11.3088 5.07932 11.797 4.86665C12.6129 4.51413 13.0842 4.5697 13.6754 5.23709C14.2531 5.88792 14.748 6.61054 15.3003 7.28536C16.9777 9.34039 18.9945 10.9799 21.3695 12.1664C22.2293 12.5952 23.0941 13.0233 24.0181 13.2886C25.1059 13.6001 25.6143 14.3177 25.7934 15.4129C26.018 16.8012 25.9218 18.2004 26.062 19.5906C26.2393 21.3574 26.2478 23.1331 26.2968 24.9068C26.3863 28.1144 26.268 31.3052 25.5029 34.4425C25.4066 34.8408 25.4049 35.2416 25.4437 35.6541C25.513 36.3457 25.3829 36.5097 24.7174 36.7414C23.0924 37.3066 21.4066 37.4105 19.7192 37.2561C16.3983 36.9499 13.1872 36.1403 10.0707 34.9589C9.68894 34.815 9.31564 34.6543 8.90517 34.6124C8.60788 34.5805 8.34099 34.4609 8.09944 34.2959C7.40182 33.8238 6.70082 33.3562 6.02177 32.8592C5.58766 32.5419 5.54543 32.3564 5.83766 31.8385C6.0488 31.4576 4.13498 32.7925 4.09782 32.428C3.87316 30.3468 4.54376 29.0272 4.49646 26.9283C0.297211 22.3288 -0.429128 17.9289 0.195862 14.5293C1.032 9.98819 4.79713 2.22835 6.0961 0.0292374C6.4069 -0.495922 10.1146 6.23369 10.5825 5.75279" transform="translate(101.3047 80.00098)" id="Fill-444" fill="#FFD85A" stroke="none"/>
    <path d="M11.2881 2.53822C11.8539 3.09582 12.2864 3.71 12.6276 4.3914C12.8961 4.92872 12.8725 5.45557 12.5583 5.97043C12.4384 6.16722 12.3117 6.36417 12.2222 6.57565C11.9468 7.22835 11.7323 7.39304 11.0431 7.24017C10.6293 7.14828 10.2442 7.18696 9.83876 7.22733C8.23743 7.38662 6.6682 7.33442 5.09729 6.85403C3.64968 6.41231 2.2595 5.84053 0.849048 5.31622C0.259531 5.09747 -0.176273 3.8654 0.0703448 3.08247C0.316962 2.29499 0.749387 1.60648 1.41661 1.09264C2.58213 0.19384 3.92332 -0.147708 5.3608 0.0578628C7.3388 0.342655 9.18674 1.02068 10.8455 2.16492C11.0127 2.27911 11.1563 2.42556 11.2881 2.53822" transform="translate(90.35156 24.90955)" id="Fill-445" fill="#F0BB29" stroke="none"/>
    <path d="M18.1006 0.62674C18.3151 0.772852 18.7036 1.05967 18.8455 1.21913C19.7154 2.18246 19.2661 2.81741 18.0279 3.22061C17.2881 3.4625 17.256 3.46436 17.2999 4.19306C17.3658 5.3199 17.1952 6.42022 16.4739 7.22055C15.6192 8.17323 14.3658 8.81038 13.1767 9.30598C10.0585 10.607 6.75448 10.7908 3.42683 10.3102C2.50793 10.1784 1.63295 9.88976 0.771475 9.55801C0.599181 9.49196 0.430265 9.41257 0.276552 9.31561C0.0839874 9.19534 -0.047767 9.019 0.016421 8.77508C0.0789199 8.54502 0.264727 8.42238 0.487697 8.38843C0.666747 8.36157 0.854244 8.3739 1.03836 8.381C3.36602 8.48117 5.63963 8.14249 7.86088 7.47544C10.2223 6.76549 12.1429 5.36923 13.7341 3.50693C14.332 2.8088 14.9739 2.13904 15.3151 1.25916C15.3591 1.14751 15.4317 0.675218 15.5009 0.5737C16.077 -0.265137 16.5398 -0.0355802 17.4722 0.328603C17.7002 0.416777 17.93 0.511201 18.1006 0.62674" transform="translate(71.94922 80.67737)" id="Fill-446" fill="#FFFFFF" stroke="none"/>
    <path d="M1.39368 6.34803C2.36156 4.68927 3.48317 3.49284 5.02537 2.32175C6.90878 0.891027 9.1182 0.0204335 11.4188 0.000670289C12.755 -0.0104782 14.1181 0.112662 15.3478 0.730894C16.0269 1.07244 16.4965 1.35723 17.091 1.82006C18.0454 2.55975 18.966 3.88844 19.6045 4.8543C20.2582 5.84179 20.9626 6.39043 22.1602 6.60985C22.6028 6.6916 23.0318 6.84261 23.4693 6.95376C24.2227 7.14497 24.4558 7.45814 24.4169 8.2436C24.4119 8.3686 24.3967 8.49309 24.3781 8.61809C24.3291 8.99004 24.4085 9.31808 24.7024 9.56942C25.0284 9.8451 25.199 9.89628 25.2463 10.3113C25.2885 10.7155 25.4102 11.3981 25.5774 11.766C25.9997 12.6883 25.9237 13.59 25.5808 14.5374C24.1619 18.4519 20.1788 21.2479 15.3259 22.6003C13.8766 23.0035 11.9594 23.3979 10.4999 23.044C10.3057 22.9969 8.57261 22.4913 8.37328 22.4907C6.44933 22.4886 6.08109 21.8739 4.64193 20.6603C2.99669 19.2758 1.69772 17.8039 0.858212 15.7845C0.0491042 13.8374 -0.106298 12.6864 0.0592392 10.5657C0.101468 10.0105 0.517002 8.29208 0.697742 7.76844C0.870036 7.26693 1.16057 6.82319 1.39368 6.34803" transform="translate(62.89844 66.53223)" id="Fill-447" fill="#A87A6C" stroke="none"/>
    <path d="M14.9208 31.9093C14.9056 30.8177 15.8498 29.0232 15.713 27.8744C15.1775 29.0686 14.1776 30.2007 13.6539 30.7973C12.4394 32.1819 10.9259 33.353 9.43102 34.4236C7.96145 35.4751 6.551 36.6153 5.29089 37.8978C3.44295 39.7818 1.92946 41.9123 1.32981 44.5633C1.24028 44.9595 1.12204 45.3521 0.9886 45.7364C0.8484 46.1443 0.554486 46.1888 0.297733 45.8432C-0.0620576 45.3579 -0.0468552 44.8062 0.0882776 44.2528C0.348408 43.1717 0.755496 42.1464 1.29096 41.1716C2.55952 38.8673 4.35172 37.0099 6.29763 35.283C7.49524 34.2195 8.84657 33.3464 10.0526 32.2961C11.5458 30.9948 12.9512 29.5995 14.0357 27.9213C14.6488 26.9768 14.99 25.9501 15.1083 24.8195C15.284 23.1457 14.5627 19.9232 14.5728 18.2343C14.5897 14.9737 15.6066 13.0175 17.1555 10.7404C18.9376 8.10292 20.7602 6.73504 24.223 4.77325C26.6334 3.40739 29.407 2.45065 32.0945 1.89053C33.5472 1.588 35.0167 1.36199 36.4762 1.09527C37.5082 0.907269 39.0234 0.399338 40.0183 0.0588038C40.6078 -0.143389 40.1906 0.180761 40.4508 0.955241C40.6585 1.57178 41.4153 1.25895 40.8021 1.48462C39.7329 1.87718 37.8596 2.49542 36.7397 2.69862C34.4509 3.11517 32.1401 3.39641 29.8766 3.98847C26.9814 4.74588 23.5592 6.38707 21.223 8.24025C19.169 9.86776 18.9309 10.5674 17.4562 12.7072C16.3127 14.3641 15.4968 17.1539 15.941 19.0945C16.1573 20.0314 16.3802 20.9647 16.4866 21.9226C16.6201 23.1133 16.6505 24.3048 16.4917 25.494C16.2434 27.3403 15.941 29.1782 15.4765 30.9839C15.4005 31.2784 15.3752 31.6194 14.9208 31.9093" transform="translate(35.54688 53.12366)" id="Fill-448" fill="#253A44" stroke="none"/>
    <path d="M13.9928 32.7214C14.0401 34.0131 15.0384 34.7943 15.6989 35.9278C15.2833 35.7514 15.0148 35.5524 14.682 35.6066C14.4793 35.6399 14.2597 35.6511 14.1769 35.8801C14.1127 36.0619 14.2107 36.2146 14.329 36.3541C14.4793 36.531 14.6279 36.7103 14.7664 36.8951C14.8408 36.9921 14.8712 37.1316 14.7833 37.2132C14.655 37.3311 14.5029 37.264 14.3999 37.1536C14.2192 36.9642 14.0519 36.7644 13.8864 36.5612C12.6398 35.0247 11.351 33.5217 10.1652 31.9412C8.24798 29.387 6.84598 26.5448 5.73113 23.5599C5.22945 22.2185 4.87811 21.1652 4.20244 19.912C3.76157 19.0921 2.56396 17.1159 1.95755 16.4109C1.50317 15.8811 0.77176 15.0234 0.327511 14.4864C-0.150522 13.9069 0.0302184 14.7045 0.0487991 13.9356C0.1265 10.7213 0.839326 7.65274 2.16363 4.7261C2.43896 4.11496 2.84774 3.57815 3.243 3.03863C3.63995 2.49725 4.18048 2.15385 4.84264 2.06838C5.26661 2.01365 5.34263 1.82429 5.34094 1.43376C5.33925 0.959105 5.2531 0.448303 5.55208 0C5.88654 0.0714515 5.88991 0.336987 5.93214 0.545936C6.92368 5.47963 9.30202 9.74274 12.2564 13.7389C14.7445 17.1071 17.3407 20.4007 19.6819 23.8751C21.3086 26.287 22.9166 28.7225 24.2089 31.3322C25.8946 34.7452 27.0838 38.3269 27.3727 42.1602C27.4233 42.8197 27.3355 42.9036 26.7122 42.6979C25.143 42.1793 23.8035 41.2503 22.4656 40.3152C20.0552 38.6253 17.8205 36.7252 15.6972 34.6861C15.0688 34.082 14.4962 33.4422 13.9928 32.7214" transform="translate(99.84375 52.88977)" id="Fill-449" fill="#8C675B" stroke="none"/>
    <path d="M24.5138 5.71272C26.2418 7.42401 27.4732 9.45742 28.4259 11.6623C29.8194 14.8849 30.74 18.2431 31.2147 21.7229C31.2704 22.1297 31.2839 22.5327 31.24 22.9411C30.9326 25.8367 30.1285 28.5439 28.6792 31.1148C27.4124 33.3648 25.8769 35.3908 24.279 37.3843C23.3381 38.5579 22.1371 39.4297 20.7199 39.9772C19.9125 40.2898 19.0865 40.3571 18.2352 40.1564C17.7706 40.0473 17.3652 39.8763 17.0646 39.4699C16.7048 38.986 16.3365 38.5824 15.7707 38.4074C15.3551 38.2782 15.2099 38.2334 14.72 38.2287C14.4244 38.2263 14.0241 38.3404 13.7352 37.8191C13.4227 37.6613 13.1373 37.5904 12.9244 37.2786C12.8755 37.2068 12.8231 37.137 12.7674 37.0688C11.6322 35.673 11.1103 35.4972 9.36707 35.9203C7.84345 36.2899 7.27758 35.8524 7.36204 34.3019C7.41102 33.4286 7.38231 32.5572 7.40258 31.6854C7.44143 30.0765 6.84685 28.7361 5.69315 27.6346C4.72526 26.7124 3.73203 25.825 2.8486 24.8104C0.590197 22.22 -0.337152 19.2552 0.108786 15.8521C0.259122 14.6913 0.62398 13.5869 0.961812 12.4729C2.0547 8.86926 3.94994 5.73519 6.49381 2.98405C6.96678 2.47443 7.39075 1.92478 7.86541 1.41516C9.02417 0.172784 10.4937 0.0288678 12.0123 0.00116561C13.0359 -0.0170773 14.0427 0.179879 15.0106 0.517542C17.573 1.40959 20.0763 2.43119 22.3077 4.00819C23.0645 4.54484 23.7807 5.1428 24.5138 5.71272" transform="translate(75.01953 32.45215)" id="Fill-450" fill="#A87A6C" stroke="none"/>
    <path d="M36.8736 5.99072C38.6625 7.77194 39.9395 9.7741 40.5577 12.1344C41.2553 14.8036 41.5087 17.5263 41.0813 20.2705C40.6726 22.8962 39.306 25.0421 37.5442 26.9643C37.2672 27.2657 36.9615 27.5449 36.5949 27.7285C35.9142 28.0685 35.274 28.4488 34.7723 29.045C34.5054 29.364 34.1456 29.3602 33.8467 29.078C32.9092 28.1957 31.7538 27.7478 30.5731 27.3049C29.7606 27.0003 29.0089 26.5366 28.2336 26.1368C27.7978 25.9128 27.5106 25.5752 27.3907 25.083C26.9971 23.4541 26.6931 22.9742 25.759 21.2372C25.5107 20.7783 24.9296 19.9011 24.3958 19.6064C23.8908 19.33 23.0614 18.9837 22.4482 19.2123C21.8367 19.4405 21.4685 19.9268 21.3182 20.5602C21.2151 20.9976 21.2996 21.4278 21.4313 21.8507C21.5006 22.0722 21.5918 22.2957 21.6036 22.5229C21.6307 22.9925 21.6273 23.21 21.1611 23.108C20.852 23.0406 20.2793 22.9298 19.9871 22.8031C18.5429 22.1817 17.1527 21.4415 15.6814 20.8798C14.2913 20.3482 12.8774 20.2143 11.396 20.3623C9.08526 20.5938 7.07854 21.479 5.2931 22.932C4.97892 23.1875 4.64108 23.425 4.28467 23.6176C3.61745 23.9793 3.16645 23.9264 2.61578 23.4056C1.05162 21.9284 0.112445 20.1553 0.0127844 17.9608C-0.107146 15.2887 0.62595 12.8354 1.82356 10.4935C2.47389 9.22326 3.20699 7.99474 4.0938 6.87432C5.10053 5.60525 6.37416 4.6225 7.76096 3.81305C10.9906 1.92795 14.4737 0.698917 18.1729 0.196054C20.3351 -0.0973532 22.536 -0.0759008 24.6948 0.358889C27.0039 0.823746 29.3298 1.23134 31.4599 2.33571C33.4362 3.35985 35.2554 4.598 36.8736 5.99072" transform="translate(71.63281 28.17688)" id="Fill-451" fill="#253A44" stroke="none"/>
    <path d="M2.56355 4.93691C2.7274 4.54637 2.89463 4.15753 3.06016 3.76733C3.10746 3.77527 3.15645 3.78355 3.20205 3.79081C3.38786 4.87137 3.58549 5.94855 3.74934 7.03096C3.87772 7.88179 3.74259 8.71015 3.4436 9.51402C3.26286 10.0054 3.08044 10.4951 2.90814 10.9882C2.81355 11.2637 2.76118 11.5506 2.7747 11.8461C2.78652 12.0783 2.89294 12.2282 3.13787 12.2565C3.36421 12.2819 3.55171 12.2234 3.61083 11.9821C3.73183 11.4884 3.9049 11.0083 4.07804 10.5279C4.41249 9.60013 4.74716 8.67169 4.7071 7.64396C4.82872 7.8899 4.90304 8.13499 4.98243 8.37874C5.05337 8.59293 5.16486 8.74765 5.42837 8.65188C5.64627 8.57299 5.77296 8.42452 5.72566 8.18871C5.67498 7.9323 5.59222 7.68264 5.52972 7.42842C5.51432 7.36594 5.49848 7.30349 5.48263 7.24096C5.37327 6.80971 5.26287 6.37437 5.28648 5.89432C5.61418 6.00463 5.65809 6.25631 5.78309 6.44161C6.06349 6.85292 6.38105 7.22673 6.80841 7.49531C7.6665 8.03297 8.36413 7.69649 8.4621 6.68671C8.50939 6.18604 8.39791 5.70243 8.22224 5.23555C7.91988 4.44215 7.46043 3.73912 6.98239 3.04302C6.18342 1.87801 5.01283 1.10471 4.00778 0.155571C3.71894 -0.118749 3.24428 -0.0201016 3.04834 0.371277C2.85071 0.767216 2.52808 0.965185 2.19532 1.20217C0.974052 2.07159 0.273051 3.27275 0.0331904 4.74468C-0.0242411 5.0913 -0.0157953 5.44061 0.127783 5.77372C0.447035 6.52134 1.11763 6.67944 1.73924 6.15108C2.12268 5.82304 2.37268 5.39872 2.56355 4.93691ZM4.62433 1.77868C4.98919 3.23271 5.49931 4.61343 6.29153 5.87236C6.49085 6.18874 6.76111 6.46036 7.01111 6.74144C7.15131 6.89735 7.33036 7.02758 7.54826 6.91964C7.74303 6.82165 7.74042 6.62442 7.73798 6.44068C7.73772 6.42045 7.73745 6.40039 7.73745 6.38063C7.73745 6.11577 7.6665 5.86375 7.56178 5.6222C6.90469 4.10145 5.71721 2.98238 4.62433 1.77868ZM0.827096 4.46124C1.12608 3.39555 1.79329 2.58509 2.62098 1.89C2.56186 2.95755 2.28991 3.9327 1.86255 4.86073C1.61255 5.40396 1.25952 5.67507 0.994322 5.57119C0.722368 5.46545 0.65818 5.05971 0.827096 4.46124ZM3.86421 2.37969C4.15474 3.14876 4.24595 3.95483 4.28818 4.77154C3.96218 4.00871 3.85576 3.20484 3.86421 2.37969Z" transform="translate(123.2227 115.354)" id="Fill-452" fill="#FFEAC0" fill-rule="evenodd" stroke="none"/>
    <path d="M1.63294 0.518974C1.94543 0.718464 1.98597 1.07184 2.03158 1.40426C2.1211 2.06641 1.79847 2.24445 1.85591 2.90981C2.00962 4.69221 2.87616 6.89251 3.40993 8.58725C4.15992 10.9742 5.72577 12.776 7.56189 14.4091C9.10409 15.7821 10.8439 16.918 12.2949 18.3991C13.3946 19.5212 14.457 20.6701 15.3607 21.9645C17.8979 25.5913 19.6833 29.5445 20.4637 33.9105C20.8623 36.1432 21.1005 38.3996 21.2576 40.6683C21.4823 43.8956 22.2373 46.9883 23.9653 49.783C24.4383 50.5494 24.82 51.3723 25.3471 52.1079C25.4467 52.2461 25.5869 52.4235 25.4602 52.5792C25.2829 52.797 25.07 52.6225 24.9315 52.5042C23.8876 51.6145 22.8691 50.7031 22.2407 49.4467C21.0161 46.9984 20.2711 44.4126 20.0076 41.6907C19.9215 40.7968 19.9097 39.8955 19.8573 38.8903C19.5921 39.1063 19.6293 39.3382 19.6022 39.5352C18.7678 45.5126 20.2897 50.8943 23.7153 55.7957C24.2153 56.5106 24.6849 57.2464 25.1545 57.9827C25.2677 58.1607 25.5075 58.3818 25.2761 58.5896C25.0683 58.7757 24.82 58.5871 24.6477 58.4524C23.8471 57.8217 23.0667 57.1585 22.467 56.3288C20.8775 54.1351 19.8049 51.7015 19.0769 49.0977C18.131 45.7037 17.9181 42.2821 18.5296 38.8111C18.8353 37.0842 18.9012 35.3378 18.8962 33.5915C18.8877 31.2597 18.0398 29.1382 16.9925 27.1175C16.0144 25.2343 14.8793 23.4285 13.5517 21.7642C12.2392 20.1202 10.6598 18.7391 9.03822 17.4102C7.30176 15.9881 5.61091 14.5162 4.23424 12.733C2.4961 10.4865 0.631265 5.63443 0.215731 2.90981C0.00965381 1.54717 -0.00554863 1.38923 0.00120801 0.0230366C0.00458633 -0.141657 1.3745 0.634681 1.63294 0.518974" transform="translate(104.9648 53.87231)" id="Fill-453" fill="#253A44" stroke="none"/>
    <path d="M4.9785 4.53802C6.77577 2.75866 9.11863 1.18301 11.9564 0.441973C13.6321 0.00431122 15.3432 -0.0968695 17.0644 0.0879246C18.1303 0.202956 19.2164 0.203463 20.2434 0.596869C20.8262 0.819162 21.3465 1.11595 21.762 1.58503C21.8954 1.73739 22.0627 1.90191 21.9512 2.12015C21.8448 2.33045 21.6134 2.31593 21.409 2.30883C20.9123 2.29397 20.4343 2.171 19.9495 2.06863C15.4733 1.1271 11.1727 1.35006 7.4092 4.28802C3.43292 7.38966 1.18634 11.4477 1.07485 16.5601C1.036 18.3643 1.3789 20.0952 2.5326 21.5727C2.61875 21.6843 2.7353 21.8105 2.62381 21.9565C2.49037 22.1352 2.29612 22.0647 2.15423 21.9803C1.58498 21.6418 1.21674 21.1219 0.921139 20.5428C0.188044 19.1036 -0.0247904 17.5574 0.00223612 15.9691C0.0765592 11.5376 2.01234 7.77749 4.9785 4.53802" transform="translate(71.36719 27.69604)" id="Fill-454" fill="#253A44" stroke="none"/>
    <path d="M3.51161 1.40581C2.85453 2.09668 1.95589 2.6264 0.798819 2.60242C0.653551 2.59954 0.508283 2.59363 0.366394 2.57134C0.13329 2.53316 0.0133592 2.37945 0.00153503 2.1509C-0.0136674 1.89212 0.0826148 1.67135 0.35457 1.63503C0.638349 1.59753 0.932263 1.60851 1.21942 1.62203C1.86299 1.65057 2.54372 1.42642 3.00655 0.952274C3.34607 0.601604 3.60958 0.350933 3.99471 0.0436745C4.04708 0.000263108 4.16194 -0.0125745 4.22951 0.0132696C4.36126 0.062931 4.35788 0.192827 4.32579 0.306508C4.20755 0.716636 3.88661 0.980314 3.51161 1.40581" transform="translate(85.07813 58.73462)" id="Fill-455" fill="#253A44" stroke="none"/>
    <path d="M0.170517 0.273361C0.300583 0.138904 0.469499 0.0551213 0.641793 0.0311353C1.18232 -0.0443702 1.71441 0.0188044 2.22792 0.205963C2.45595 0.290084 2.62487 0.461196 2.62656 0.719637C2.62994 0.950714 2.46947 1.10831 2.27352 1.18061C1.62657 1.42047 0.964423 1.435 0.327609 1.16845C-0.0473843 1.01271 -0.101437 0.568288 0.170517 0.273361" transform="translate(85.96875 52.94458)" id="Fill-456" fill="#253A44" stroke="none"/>
    <path d="M1.95943 1.74152C1.5743 2.19506 1.20099 2.53019 0.645259 2.65925C0.271955 2.73171 0.113174 2.30216 0 2.1003C0.244928 2.0498 0.635124 1.89608 0.819243 1.78612C1.40707 1.4743 1.4797 1.47599 2.30233 0.498302C2.43577 0.339859 2.53881 0.15118 2.63678 0C2.65029 0.115539 2.63678 0.27111 2.60131 0.462999C2.51347 0.934275 2.32597 1.30707 1.95943 1.74152" transform="translate(87.94922 67.64795)" id="Fill-457" fill="#8C675B" stroke="none"/>
    <path d="M0.493578 1.21894C0.79087 0.935838 0.959786 0.565068 1.17938 0.230446C1.27059 0.0909211 1.38039 -0.0624546 1.57633 0.0262263C1.80099 0.127069 1.77903 0.333653 1.70808 0.514731C1.46485 1.15965 1.02904 1.64326 0.417566 1.96116C0.292568 2.02703 0.135476 2.08768 0.0375044 1.93852C-0.0503319 1.80373 0.0307478 1.66083 0.130408 1.55475C0.241893 1.43465 0.371958 1.33059 0.493578 1.21894" transform="translate(81.39844 74.34705)" id="Fill-458" fill="#253A44" stroke="none"/>
    <path d="M20.3042 1.38212C18.7586 0.416597 16.9681 0.106467 15.735 0.0231919C13.2942 -0.140994 9.70473 0.578757 7.14903 1.79596C5.01731 2.81115 2.68289 5.62833 0.873801 5.35249C-0.801846 5.09692 0.280906 12.0578 1.23359 15.127C1.92446 17.358 3.10687 19.3289 4.48016 21.226C5.68115 22.89 5.97506 23.0295 7.62031 24.2974C9.0392 25.3898 12.4851 26.6442 14.2705 26.0248C15.034 25.7599 17.7401 25.3775 17.2553 24.7925C16.1185 23.4267 15.7435 22.1203 15.3955 20.8059C14.5492 17.6133 14.2773 15.1165 15.1894 11.8659C15.6303 10.2982 17.6016 7.11935 18.7367 5.92309C19.7806 4.82159 20.6387 4.13697 22.3126 3.69661C22.7653 3.31807 21.2299 1.96015 20.3042 1.38212" transform="translate(57.99219 64.90771)" id="Fill-459" fill="#FFFFFF" stroke="none"/>
    <path d="M43.5817 39.8006C43.7422 39.293 44.2151 36.8747 44.5158 34.8683C45.1408 30.6814 45.3266 29.1498 45.5833 26.1347C46.1458 19.4758 46.4904 17.9446 46.9043 12.165C46.9617 11.3528 47.0107 10.537 46.9938 9.72346C46.9448 7.34106 47.612 5.11441 48.4988 2.95347C48.8738 2.04318 49.5664 1.28712 50.3096 0.636789C51.5917 -0.486334 53.3602 0.0107862 54.4818 1.08543C55.3197 1.88829 56.4717 2.88286 56.7825 3.98555C58.0781 8.58158 58.5324 10.7851 57.7318 16.235C56.9835 21.3312 57.1811 24.5854 56.0815 31.1349C55.4396 34.9571 54.9311 38.0851 53.8332 43.5845C53.4768 45.3565 51.8079 50.6028 51.7826 50.6837C51.112 52.7472 49.4769 53.0626 47.482 52.6349C46.3131 52.3829 44.4482 51.6764 43.3841 51.1442C41.1729 50.0403 38.9635 48.926 36.9247 47.515C33.3842 45.0634 29.9316 42.5126 26.9232 39.3903C24.9469 37.34 23.7932 35.984 21.8658 33.8805C19.6446 31.456 19.8912 32.0677 17.6953 29.6218C16.2173 27.9745 16.4825 28.6106 15.0771 26.9047C13.9944 25.5886 12.4859 24.8104 11.0907 23.8543C9.2664 22.6068 7.41846 21.3962 5.64991 20.0679C5.37289 19.8594 5.04857 19.7128 4.76817 19.5079C3.58913 18.6426 2.75469 17.5264 2.21585 16.1541C1.26485 13.733 0.585808 11.2405 0.109465 8.68817C0.00811544 8.14274 -0.0256678 7.5865 0.0199396 7.03516C0.0841276 6.19801 0.705738 5.8867 1.43546 6.30493C1.71923 6.46777 1.91687 6.72283 2.09761 6.9882C2.3797 7.399 2.58915 7.84697 2.78172 8.30389C4.01987 11.2258 5.7445 13.8372 7.82893 16.2196C7.90663 16.3075 7.97757 16.4002 8.06372 16.4781C8.19209 16.5939 8.33905 16.733 8.52317 16.648C8.75459 16.5412 8.72249 16.3124 8.69209 16.1114C8.61776 15.6125 8.37959 15.1745 8.12453 14.7502C7.60934 13.8972 7.23265 12.9859 6.92185 12.0425C6.71746 11.4222 6.6803 10.787 6.71915 10.1456C6.73942 9.79153 6.8205 9.42599 7.21238 9.2934C7.57048 9.17228 7.90663 9.30353 8.18703 9.5314C8.34412 9.65809 8.48263 9.8167 8.59074 9.98477C8.76472 10.2532 8.94208 10.5278 9.05694 10.8231C9.66335 12.3895 10.7292 13.597 11.9758 14.6796C12.7207 15.3284 13.4234 16.0257 14.1396 16.7049C14.7764 17.3115 15.3339 17.9878 15.7595 18.7544C17.4419 21.7917 16.273 21.5035 18.7882 23.8786C21.9199 26.8367 22.1277 27.3144 25.8489 29.6008C28.3759 31.1538 31.4755 32.9231 33.8639 34.6877C34.8251 35.3982 35.8521 36.0005 36.8791 36.6096C38.2068 37.3971 39.5446 38.1554 40.9381 38.8165C41.0682 38.877 43.3672 39.7037 43.5817 39.8006" transform="translate(59.66797 73.745)" id="Fill-460" fill="#8C675B" stroke="none"/>
    <path d="M14.9963 10.0676C14.5486 6.69312 13.3679 3.63659 10.7852 1.28562C9.44061 0.0614811 7.86801 -0.291216 6.15858 0.23935C4.61299 0.719916 3.62821 1.91212 2.82586 3.19504C2.49817 3.82392 2.11979 4.35533 1.83601 4.94805C0.601238 7.5426 0.0471933 10.2883 0.00158597 13.1501C-0.018684 14.3296 0.158678 15.6595 0.342796 16.8245C0.513402 17.8872 1.47284 19.311 2.54208 20.15C3.58261 20.9667 5.25825 21.5011 5.89845 21.6476C8.01496 22.1327 8.33421 22.3373 10.2058 22.4868C10.8207 22.5361 12.297 22.5109 13.0588 22.427C14.0166 22.3219 14.2767 22.2133 14.5757 21.5228C14.6787 21.2851 14.748 21.0289 14.8071 20.7751C14.9861 20.0094 15.0942 19.2326 15.1584 18.4493C15.3865 15.6494 15.3679 12.8483 14.9963 10.0676" transform="translate(103.9141 73.47888)" id="Fill-461" fill="#FFFFFF" stroke="none"/>
    <path d="M6.16881 0C4.98133 0.837824 3.71446 1.55572 2.3834 2.15875C1.59457 2.51685 0.800662 2.78711 0 2.98475C0.177362 3.43406 0.347967 3.88676 0.510126 4.34283C0.753365 5.02863 1.05066 5.69923 1.1689 6.4205C1.41889 7.91541 1.79896 9.37991 2.18071 10.8444C2.2601 11.1535 2.34118 11.4694 2.47631 11.7549C2.90029 12.6518 3.46953 12.8342 4.30398 12.2853C5.21275 11.689 6.00496 10.9812 6.4205 9.91706C6.76508 9.03532 6.9492 8.14006 6.95934 7.19582C6.97792 5.66882 6.64853 4.18743 6.41543 2.69421C6.27523 1.79558 6.18739 0.898633 6.16881 0" transform="translate(83.56641 177.9182)" id="Fill-462" fill="#A87A6C" stroke="none"/>
    <path d="M1.78234 0.386817C1.39046 2.23814 0.941139 4.07594 0.182706 5.8276C0.0593977 6.11476 0.00534461 6.44921 0.000277131 6.76339C-0.00816867 7.19751 0.17595 7.56912 0.61851 7.72452C1.44113 8.00999 2.26713 8.13161 3.05259 7.60966C4.47317 6.66542 5.7316 5.55395 6.54746 4.02527C7.12178 2.94758 7.64035 1.8378 8.20959 0.755054C8.34135 0.505059 8.4731 0.251685 8.60486 0C6.36672 0.457762 4.07791 0.474654 1.78234 0.386817" transform="translate(44.50781 184.0177)" id="Fill-463" fill="#A87A6C" stroke="none"/>
  </g>
</svg>