<svg width="122px" height="120px" viewBox="0 0 122 120" version="1.1" xmlns:xlink="http://www.w3.org/1999/xlink" xmlns="http://www.w3.org/2000/svg">
  <desc>Created with Lunacy</desc>
  <g id="ILLUSTRATION/Progress">
    <path d="M19.019 11.4498C19.1816 15.758 17.9864 19.9861 17.3744 24.2537C16.7609 28.5211 16.8115 33.1663 19.1758 36.7713C13.2763 37.3107 7.35774 34.1419 3.92766 29.3104C0.499017 24.4789 -0.580983 18.2148 0.284457 12.3537C0.772617 9.04901 0.523497 4.32523 2.86494 1.94261C5.25246 -0.487536 10.5934 -0.583584 13.7096 1.35192C16.9827 3.38434 18.8806 7.81622 19.019 11.4498" transform="translate(10.75391 0)" id="Fill-384" fill="#1D5DC4" stroke="none"/>
    <path d="M0.727858 2.05106C2.85762 0.891856 5.2869 0.281008 7.68882 0.074944C9.65312 -0.093536 11.908 -0.026288 13.7858 0.785008C15.0775 3.0245 15.4101 5.68706 15.1523 8.22837C14.9997 9.74195 13.9269 15.4668 11.5178 17.2876C8.34546 19.6856 2.5365 13.677 1.51554 11.571C0.195058 8.85088 -0.336302 6.86426 0.216658 3.93602C0.336322 3.29824 0.516178 2.66896 0.727858 2.05106" transform="translate(11.67969 3.175415)" id="Fill-385" fill="#F6BD96" stroke="none"/>
    <path d="M10.6803 4.11566L3.4501 12.1761L0 6.51182L6.6397 0L10.6803 4.11566" transform="translate(6.554688 14.74658)" id="Fill-386" fill="#F6BD96" stroke="none"/>
    <path d="M0.173388 4.1999C0.300108 4.12445 0.457068 4.06627 0.612588 3.99283C0.768109 3.9191 0.926652 3.82766 1.04171 3.67171L1.05467 3.64579C1.07195 3.60029 1.07627 3.55594 1.07627 3.50971C1.07627 3.37838 1.04027 3.21725 1.00715 3.00787C0.974029 2.79965 0.940909 2.54779 0.940909 2.25648C0.940909 1.95019 0.976909 1.60056 1.08923 1.21262C1.14107 1.03032 1.19435 0.865152 1.27355 0.730224C1.35131 0.595152 1.45067 0.4896 1.60489 0.411264C1.84235 0.291024 2.11883 0.229392 2.39113 0.229536C2.50331 0.229536 2.61419 0.239904 2.72219 0.26064C2.78555 0.272448 2.84459 0.231696 2.85755 0.169488C2.86907 0.10728 2.82875 0.047088 2.76539 0.03528C2.64299 0.011664 2.51785 0 2.39113 0C2.08427 0.000144 1.77467 0.068544 1.50107 0.206352C1.30379 0.304992 1.16843 0.451008 1.07483 0.6156C0.979789 0.780336 0.922189 0.962784 0.867612 1.14941C0.750828 1.55966 0.711948 1.93205 0.711948 2.25648C0.711948 2.56507 0.746508 2.83061 0.781069 3.0443C0.815629 3.25699 0.848893 3.42259 0.847309 3.50971C0.847309 3.53981 0.842988 3.55853 0.841549 3.56242L0.948108 3.60418L0.855949 3.5365C0.778189 3.64306 0.658668 3.7175 0.514668 3.78533C0.372108 3.85344 0.207948 3.91262 0.0567483 4.00291C0.00202832 4.03546 -0.0166917 4.10587 0.0164283 4.1603C0.0495483 4.21474 0.120108 4.23245 0.173388 4.1999" transform="translate(23.21094 13.70764)" id="Fill-387" fill="#E7A579" stroke="none"/>
    <path d="M0.037725 0.19886C0.247965 0.393549 0.530205 0.495645 0.812445 0.495789C0.949245 0.495789 1.08604 0.471597 1.21564 0.420621C1.27468 0.397437 1.30348 0.330908 1.28059 0.271868C1.2574 0.212972 1.18972 0.183884 1.13212 0.207068C1.02988 0.246812 0.921885 0.266396 0.812445 0.266396C0.584925 0.26654 0.355965 0.182444 0.193245 0.0305243C0.147165 -0.0125318 0.0737249 -0.00965176 0.030525 0.0367163C-0.012675 0.0832283 -0.00979503 0.155804 0.037725 0.19886" transform="translate(21.26953 14.26404)" id="Fill-388" fill="#39395C" stroke="none"/>
    <path d="M0.0374391 0.200098C0.181439 0.32869 0.370079 0.391618 0.555839 0.391762C0.709919 0.391762 0.863999 0.348562 0.995039 0.257554C1.04688 0.221266 1.05984 0.149698 1.0224 0.097714C0.986399 0.045874 0.915839 0.033202 0.862559 0.06949C0.776159 0.13069 0.666719 0.16237 0.555839 0.162226C0.420479 0.16237 0.286559 0.11557 0.191519 0.029314C0.144143 -0.0130219 0.0719991 -0.00898995 0.028799 0.038098C-0.012961 0.08533 -0.00864096 0.157906 0.0374391 0.200098" transform="translate(24.99609 14.76453)" id="Fill-389" fill="#39395C" stroke="none"/>
    <path d="M0.15606 0.317664C0.3087 0.258624 0.47286 0.229536 0.638604 0.229536C0.93366 0.229392 1.23174 0.324 1.46646 0.501552C1.51686 0.539856 1.58886 0.52992 1.6263 0.47952C1.66518 0.428976 1.6551 0.356976 1.6047 0.318672C1.32678 0.10872 0.98262 0.000144 0.638604 0C0.4455 0 0.254124 0.03384 0.0739804 0.10368C0.0149404 0.126576 -0.0152996 0.193104 0.00774039 0.252288C0.0307804 0.311328 0.0970204 0.340704 0.15606 0.317664" transform="translate(21.07813 13.13)" id="Fill-390" fill="#E7A579" stroke="none"/>
    <path d="M15.9509 1.83981C17.7955 3.21429 18.9058 4.32108 18.1714 6.41916C17.6184 8.0033 9.3744 18.8569 0 19.4278C0.55152 18.57 1.8432 15.4288 1.39968 12.6459C0.954864 9.86277 0.87552 6.89997 2.1816 4.35592C4.61952 -0.393628 11.7374 -1.30097 15.9509 1.83981" transform="translate(8.40625 0.01257324)" id="Fill-391" fill="#1D5DC4" stroke="none"/>
    <path d="M2.08993 3.85032C-0.251509 7.49697 -0.196789 12.1516 0.228011 16.4649C1.15249 25.8368 3.50833 35.208 8.36257 43.2769C11.1547 47.9181 14.6525 51.4763 20.2613 51.8608C25.3071 52.2078 30.4248 50.3545 34.4669 47.404C40.2744 43.1646 44.2819 36.9611 48.1541 30.903C48.3039 31.4152 48.4767 31.9202 48.6725 32.4162C49.9671 35.6881 52.261 38.4573 54.8242 40.8232C56.8085 42.6563 58.9829 44.2763 61.2323 45.7667C63.2525 47.1073 67.4328 48.4365 67.5811 51.2761C67.6085 51.8176 67.5149 52.4123 67.8216 52.8601C68.2061 53.4217 69.0083 53.4563 69.6893 53.4318C73.8912 53.1654 78.0672 53.3382 82.2475 53.1856C82.4305 53.1784 82.6753 53.1035 82.6507 52.9221C82.6349 52.8083 82.511 52.7464 82.4045 52.7032C79.4957 51.5584 76.3766 50.6065 73.5643 49.1219C70.2437 47.368 68.3314 44.9171 66.1267 41.9637C61.3762 35.5974 56.7134 29.1628 51.9111 22.835C46.6579 24.4213 41.5056 26.3427 36.4958 28.5817C33.9615 29.7143 25.1703 34.1537 22.8288 34.7798C21.6048 34.7798 20.7048 32.0544 20.5594 31.2728C20.2325 29.5149 20.2383 27.6282 20.6227 25.8796C21.2664 22.9542 24.2458 20.0988 23.8699 16.9802C23.5863 14.6132 20.9583 13.4478 18.9711 12.1309C15.6519 9.93216 13.4285 6.15907 13.1117 2.19057C13.2744 4.2443 7.32865 0.160894 7.24225 0.127918C5.22193 -0.649826 3.08065 2.31009 2.08993 3.85032" transform="translate(0 21.03638)" id="Fill-392" fill="#F6BD96" stroke="none"/>
    <path d="M11.4687 48.1182C14.1298 46.4982 17.3928 44.2849 19.3671 41.8715C21.0735 39.7849 22.2211 37.3686 22.8288 34.7798C21.8568 34.2093 20.6847 31.947 20.5594 31.2728C20.2325 29.5149 20.2383 27.6282 20.6227 25.8796C21.2664 22.9542 24.2458 20.0988 23.8699 16.9802C23.5863 14.6132 20.9583 13.4478 18.9711 12.1309C15.6519 9.93216 14.3213 6.26333 13.2442 2.43293C13.3709 2.88408 7.32865 0.16075 7.24225 0.127918C5.22193 -0.649826 3.08065 2.31009 2.08993 3.85032C-0.251509 7.49697 -0.196789 12.1516 0.228011 16.4649C1.15249 25.8368 3.50833 35.208 8.36257 43.2769C9.35761 44.9301 10.2317 46.8352 11.4687 48.1182" transform="translate(0 21.03638)" id="Fill-393" fill="#D73B1D" stroke="none"/>
    <path d="M12.4349 42.4637C10.4952 39.1791 8.92994 35.6914 7.41794 32.1951C5.7533 28.3419 4.18082 24.458 3.18434 20.3704C2.6717 18.27 2.3549 16.1474 2.05682 14.0088C1.75154 11.829 1.45202 9.64181 1.50962 7.43544C1.5557 5.69246 1.62338 3.93034 1.74578 2.19082C1.79762 1.46938 1.86674 0.729072 1.99058 0C-0.247182 3.62131 -0.190878 8.19907 0.226578 12.4476C1.15106 21.8196 3.5069 31.1908 8.36114 39.2597C9.35618 40.9128 10.2303 42.818 11.4672 44.101C11.9266 43.8216 12.4061 43.5178 12.8914 43.2053C12.7389 42.9591 12.5832 42.7143 12.4349 42.4637" transform="translate(0 25.05359)" id="Fill-394" fill="#C42612" stroke="none"/>
    <path d="M54.3887 19.1287C49.6381 12.7624 44.9754 6.32765 40.173 0C34.9199 1.5863 29.7675 3.5077 24.7578 5.74675C22.2234 6.87931 13.4322 11.3187 11.0907 11.9448C10.9539 11.9448 10.8215 11.9062 10.692 11.8441C10.4672 12.82 10.1533 13.7776 9.74578 14.6992C8.22514 18.1279 5.58562 20.9503 2.61346 23.1823C1.77106 23.8144 0.896976 24.4005 0 24.9492C2.22466 27.2388 4.94194 28.781 8.52322 29.0258C13.569 29.3728 18.6867 27.5196 22.7288 24.569C28.5363 20.3296 32.5439 14.1261 36.416 8.06803C36.5658 8.58024 36.7386 9.08525 36.9344 9.58118C38.229 12.8532 40.5229 15.6223 43.0861 17.9882C45.0704 19.8213 47.2448 21.4413 49.4942 22.9317C49.8815 23.1895 50.3495 23.4458 50.852 23.7136C52.4231 22.6466 53.8645 21.3693 54.9171 19.83C54.7415 19.5967 54.5672 19.3677 54.3887 19.1287" transform="translate(11.73828 43.87134)" id="Fill-395" fill="#39395C" stroke="none"/>
    <path d="M5.23008 10.4579C2.91024 11.4414 2.3184 13.4487 0 14.4495C0.06624 14.9737 0.152784 15.495 0.27648 16.0091C0.37584 16.4166 0.49968 16.8327 0.66384 17.2302C2.2104 16.5303 3.68208 15.6721 5.03136 14.6871C8.97552 11.8086 14.7514 4.0297 17.555 0C15.12 2.61965 9.57456 8.61466 5.23008 10.4579" transform="translate(29.4375 53.75317)" id="Fill-396" fill="#29294F" stroke="none"/>
    <path d="M15.2827 14.0492C11.9765 12.6769 9.09936 10.4679 6.60254 7.92922C5.36112 6.66778 1.31904 3.10709 0 0C0.11952 0.377424 0.23904 0.75528 0.38448 1.12349C1.67904 4.39546 3.97296 7.16458 6.53616 9.5305C8.52048 11.3636 10.6949 12.9836 12.9443 14.474C13.3315 14.7318 13.7995 14.9881 14.3021 15.2559C14.7845 14.9276 15.2482 14.5719 15.6989 14.2033C15.5606 14.1486 15.4195 14.1054 15.2827 14.0492" transform="translate(48.28906 52.32898)" id="Fill-397" fill="#29294F" stroke="none"/>
    <path d="M0.74012 9.71714C2.46812 11.7475 6.7766 12.5856 8.71052 13.1127C12.7353 14.2114 16.8897 14.8061 21.0499 15.0667C28.162 15.5117 35.2944 14.9976 42.4008 14.485C42.2697 14.4951 41.8507 15.3231 41.7672 15.4555C40.248 17.8128 38.1427 20.9391 37.7971 23.7874C37.4313 26.7898 37.1031 29.8757 36.9705 32.9141C36.8481 35.6875 37.1937 38.5013 36.9979 41.2575C36.9172 42.385 36.4636 43.5384 35.5536 44.208C34.7212 44.82 33.5102 45.0576 33.0984 46.0051C32.842 46.597 32.9976 47.2767 33.156 47.9016C33.2942 47.9016 34.1553 51.7104 34.2115 52.0805C34.4304 53.5133 34.4203 55.0282 34.5299 56.4754C34.56 56.8743 34.596 57.2919 34.812 57.6274C35.2556 58.3186 38.1529 59.0501 38.3832 57.888C38.4825 57.3869 38.1974 56.9031 38.0275 56.4221C37.5984 55.2082 37.8993 53.8704 38.2046 52.6191C38.7374 50.4403 39.276 48.2631 39.8476 46.0944C40.6627 42.9984 41.4446 39.8434 42.5793 36.8583C43.7342 33.817 44.892 30.7757 45.9273 27.6927C47.9836 21.5698 49.6224 15.1848 49.572 8.68322C49.5576 6.9797 49.415 5.02418 48.0499 4.00754C47.2694 3.42578 46.2529 3.2933 45.2851 3.18098C34.3497 1.90802 23.4043 0.63506 12.4113 0.0158597C8.58956 -0.1987 6.46412 1.78994 3.69644 4.39346C2.73308 5.30066 0.185864 6.1373 0.0230005 7.44914C-0.0864395 8.33906 0.20156 9.08642 0.74012 9.71714" transform="translate(13.55859 61.00415)" id="Fill-398" fill="#F6BD96" stroke="none"/>
    <path d="M43.992 15.7621C42.4728 18.1193 40.3675 21.2456 40.0219 24.0939C39.6562 27.0963 39.328 30.1822 39.1954 33.2206C39.1334 34.6275 39.191 36.0445 39.2387 37.46C40.3315 37.3664 41.4288 37.3261 42.5262 37.3736C43.2418 37.4053 43.9488 37.4888 44.6515 37.5982C44.7048 37.4557 44.7494 37.3073 44.8042 37.1648C45.959 34.1235 47.1168 31.0822 48.1522 27.9992C50.2085 21.8763 51.8472 15.4899 51.7968 8.98974C51.7824 7.28622 51.6398 5.3307 50.2747 4.31406C49.4942 3.7323 48.4777 3.59982 47.5099 3.4875C36.5746 2.21454 25.2317 0.640615 14.2387 0.0228554C10.417 -0.191705 8.03952 1.09998 5.688 4.0851C4.23072 5.93838 0 8.22366 0 8.22366C2.2248 12.2413 7.59024 13.2493 9.52416 13.7763C13.549 14.875 19.1146 15.1126 23.2747 15.3733C30.3869 15.8182 37.5192 15.3041 44.6256 14.7915C44.4946 14.8016 44.0755 15.6296 43.992 15.7621" transform="translate(11.33203 60.69763)" id="Fill-399" fill="#39395C" stroke="none"/>
    <path d="M19.3448 0L14.9514 16.4108L0 21.7184L0.774576 23.9028L16.8752 18.1878L21.5855 0.599616L19.3463 0" transform="translate(35.09766 25.74951)" id="Fill-400" fill="#B6B2AF" stroke="none"/>
    <path d="M5.19171 1.38423C10.1669 8.54982 14.6122 16.4564 19.5874 23.6219C22.7122 21.5539 25.8485 19.4879 29.1648 17.7374C30.3802 17.0958 31.5221 16.0616 32.7792 15.577C34.3906 14.9559 36.2712 14.8492 37.9791 14.9054C40.1708 14.9775 42.3351 15.3972 44.4879 15.8153C42.122 16.853 39.4624 16.9139 36.9192 17.3727C34.2482 17.8545 32.1572 18.8749 30.5084 21.0248C28.7444 23.3226 25.6167 25.1369 23.3314 26.9612C22.2816 27.7989 21.1802 28.6619 19.8655 28.9363C17.2704 29.4785 14.8268 27.599 12.9864 25.6907C8.89107 21.4447 5.38611 16.2352 2.67747 10.9972C1.21875 8.17743 0.572194 6.09202 0.0653142 3.17861C-0.574046 -0.496409 3.65379 -0.830633 5.19171 1.38423" transform="translate(3.519531 27.0415)" id="Fill-401" fill="#F6BD96" stroke="none"/>
    <path d="M27.0171 9.79619C25.9198 11.026 23.9197 11.1109 22.3112 11.1412C21.2614 11.157 20.2246 11.1728 19.1821 11.1872L19.1663 11.1872C17.9538 11.1959 16.7398 11.2031 15.5274 11.2031C15.1645 11.1959 14.7931 11.1959 14.4301 11.1959C11.6639 11.18 8.90481 10.8704 6.13857 11.0173C5.04993 11.072 3.94401 11.1109 2.89425 10.8244C1.84305 10.5464 0.837932 9.90419 0.358412 8.93075C0.297932 8.79971 0.243356 8.66867 0.197132 8.53763C-0.831028 5.60867 2.36001 2.60339 5.19681 2.60339C6.03921 2.60339 6.82689 2.81075 7.52241 3.18227C8.26401 3.56819 9.16833 3.45299 9.78609 2.88851C11.3471 1.46723 13.9434 0.300834 16.269 0.0992343C20.2016 -0.256446 22.5891 0.261954 25.5109 3.00515C26.4296 3.87059 27.2101 4.92035 27.5355 6.15731C27.8595 7.39283 27.8525 8.85443 27.0171 9.79619" transform="translate(68.42188 97.14392)" id="Fill-402" fill="#D9DBE2" stroke="none"/>
    <path d="M20.7432 2.21118C19.8331 1.71582 18.8598 1.33278 17.8531 1.08366C15.9466 0.611335 14.0155 0.634375 12.1003 1.0419C10.4803 1.3875 8.88912 1.90302 7.52832 2.87357C6.8184 3.37902 6.20496 4.03998 5.30784 4.19117C4.3776 4.34813 3.55536 3.9435 2.75184 3.5331C2.03472 3.1659 1.26288 2.9139 0.4536 2.88078C0.302544 2.87502 0.1512 2.88222 0 2.88942C0.50832 2.70654 1.03392 2.60285 1.5624 2.60285C2.40336 2.60285 3.1968 2.81166 3.89232 3.1803C4.63104 3.57197 5.53392 3.45246 6.15168 2.88942C7.71696 1.46526 10.3104 0.301735 12.636 0.095815C16.4248 -0.239705 18.7762 0.231175 21.5525 2.71086C21.289 2.53374 21.0226 2.36238 20.7432 2.21118" transform="translate(72.05469 97.14307)" id="Fill-403" fill="#B3B8C9" stroke="none"/>
    <path d="M0 2.35728C0.573121 1.4688 1.28592 0.6696 2.10399 0C2.55312 1.35072 2.40336 2.88864 1.70208 4.12704L0 2.35728" transform="translate(74.44531 98.93811)" id="Fill-404" fill="#D9DBE2" stroke="none"/>
    <path d="M2.45405 1.94688C1.87661 1.20816 1.15085 0.5472 0.309887 0C-0.195553 1.15776 -0.0773286 2.45952 0.625248 3.49344L2.45405 1.94688" transform="translate(68.63672 99.42334)" id="Fill-405" fill="#D9DBE2" stroke="none"/>
    <path d="M1.28619 0.0368055C1.19835 0.185125 1.05291 0.301764 0.901708 0.418404C0.842668 0.463043 0.790828 0.500483 0.741868 0.509123L0.710188 0.512003C0.643948 0.512003 0.561868 0.470243 0.488428 0.415524C0.355948 0.320484 0.237868 0.205285 0.138508 0.0756853C0.112588 0.0411255 0.0636283 0.0353655 0.0305083 0.0612854C-0.00405166 0.0872053 -0.00981165 0.134725 0.0161083 0.169285C0.125548 0.310404 0.253708 0.435684 0.397708 0.540803C0.481228 0.599843 0.584908 0.663202 0.710188 0.664642C0.728908 0.664642 0.749212 0.663202 0.770668 0.658882C0.865708 0.640162 0.936412 0.584003 0.995452 0.539363C1.14651 0.422724 1.31067 0.297444 1.41867 0.116005C1.44027 0.0785653 1.42745 0.0324856 1.39131 0.0108857C1.35387 -0.0107142 1.30793 0.000805715 1.28619 0.0368055" transform="translate(71.125 105.2344)" id="Fill-406" fill="#3A3942" stroke="none"/>
    <path d="M0.0302403 0.061631C0.0100801 0.171071 0 0.281952 0 0.391392C0 0.469153 0.00432005 0.546913 0.0144002 0.623233C0.0201602 0.664994 0.0590407 0.695234 0.100801 0.689474C0.144002 0.682274 0.172802 0.644833 0.167042 0.601633C0.156962 0.532513 0.152786 0.461953 0.152786 0.391392C0.152786 0.290592 0.162722 0.189792 0.181442 0.0918711C0.190082 0.0501109 0.162722 0.00979073 0.120961 0.0011507C0.0792009 -0.00604934 0.0388804 0.0213108 0.0316804 0.061631" transform="translate(71.74219 105.774)" id="Fill-407" fill="#3A3942" stroke="none"/>
    <path d="M0.92632 0.0412991C0.85576 0.182419 0.69448 0.281778 0.53608 0.280338C0.37768 0.281778 0.2164 0.183859 0.1444 0.0427391C0.12568 0.00529923 0.0795995 -0.00910071 0.0421594 0.0110592C0.0032794 0.0297791 -0.0111206 0.075859 0.00918341 0.113299C0.10984 0.307698 0.3172 0.434418 0.537664 0.434418C0.7564 0.432978 0.96376 0.306258 1.06312 0.111859C1.08328 0.074419 1.06744 0.0268992 1.03014 0.00817922C0.99256 -0.0105407 0.94648 0.00385924 0.92776 0.0412991" transform="translate(69.19531 104.2709)" id="Fill-408" fill="#3A3942" stroke="none"/>
    <path d="M0.92768 0.0412991C0.855536 0.182419 0.694256 0.281778 0.535855 0.280338C0.377455 0.281778 0.216174 0.183859 0.145614 0.0427391C0.125454 0.00529923 0.0793736 -0.00910071 0.0419334 0.0110592C0.00449331 0.0297791 -0.0113467 0.075859 0.00881332 0.113299C0.109614 0.307698 0.316974 0.434418 0.537295 0.434418C0.756176 0.432978 0.963537 0.306258 1.06434 0.111859C1.08306 0.072979 1.06866 0.0268992 1.02978 0.00817922C0.992337 -0.0105407 0.946257 0.00385924 0.92768 0.0412991" transform="translate(73.44922 104.2709)" id="Fill-409" fill="#3A3942" stroke="none"/>
    <path d="M8.21732 1.49697C7.63844 1.05777 6.95732 0.76401 6.24754 0.60129C5.37331 0.39249 4.38403 0.39249 3.68995 0.94833C3.05635 1.46673 2.82451 2.37825 2.99443 3.18177C3.17155 3.98529 3.68995 4.67361 4.32355 5.19921C4.14067 5.04801 3.65971 5.03793 3.43219 5.02209C3.10963 4.99905 2.78275 5.01921 2.46307 5.07969C1.82803 5.19921 1.25491 5.43969 0.879073 5.98401C0.824353 6.06177 0.773953 6.14817 0.763873 6.24321C0.751057 6.38577 0.834433 6.52401 0.948193 6.61185C1.38163 6.95169 1.98931 6.96465 2.51347 7.02945C3.15427 7.11009 3.79939 7.16481 4.44595 7.19217C3.23347 7.20081 2.01955 7.20801 0.807073 7.20801C0.544993 7.11585 0.304513 6.97617 0.150433 6.75153C-0.235488 6.17985 0.173473 5.35329 0.784033 5.05233C1.40179 4.74273 2.12035 4.81185 2.80867 4.88241C2.43715 4.84353 2.10451 3.92337 2.03554 3.63825C1.90435 3.08961 1.99651 2.60289 2.12899 2.07729C2.39107 1.04913 3.34867 0.36225 4.36099 0.10737C5.28835 -0.12447 6.30067 0.02241 7.12004 0.51633C7.54484 0.77841 7.90052 1.11825 8.21732 1.49697" transform="translate(83.14453 101.139)" id="Fill-410" fill="#B3B8C9" stroke="none"/>
    <path d="M1.2276 11.2722C1.04472 11.2722 0.860398 11.2319 0.684718 11.1455C0.0770379 10.846 -0.173522 10.1087 0.127438 9.49956C1.50264 6.70884 4.67496 5.5986 7.18488 5.48916C9.1476 5.40564 11.0385 5.7858 12.8657 6.153C13.4359 6.2682 14.0062 6.38196 14.5778 6.48132C16.3231 6.78804 18.8762 7.07748 20.8865 6.0738C22.4402 5.29764 23.7204 3.30468 23.0724 1.68612C22.8204 1.05684 23.1257 0.341158 23.7564 0.0891574C24.3857 -0.164283 25.0999 0.140997 25.3534 0.771718C26.5529 3.76692 24.5385 6.99684 21.9838 8.27124C19.3241 9.60036 16.241 9.26628 14.1545 8.90196C13.5626 8.79828 12.9722 8.6802 12.3804 8.56068C10.6193 8.20644 8.9532 7.87812 7.29144 7.94292C5.56776 8.0178 3.23352 8.75508 2.33064 10.5868C2.11608 11.0202 1.6812 11.2722 1.2276 11.2722" transform="translate(70.68359 103.3993)" id="Fill-411" fill="#D9DBE2" stroke="none"/>
    <path d="M12.8734 18.6461C15.5446 16.039 18.7731 14.0966 21.9988 12.2613C22.1931 12.151 22.4278 12.3756 22.3083 12.5714C21.3406 14.1569 20.5328 15.8561 19.3793 17.3207C18.3051 18.6835 16.9241 19.693 15.4108 20.521C13.9291 21.3302 12.3608 21.9941 10.8041 22.645C10.2598 22.8725 9.69949 23.0813 9.14235 23.303C8.51883 23.8891 7.85355 24.4176 7.12635 24.8395C6.60075 24.8626 6.07227 24.8741 5.54955 24.8971C5.22699 24.9101 4.90587 24.9317 4.58331 24.9504C3.43995 23.447 2.93163 21.5506 2.47515 19.7462C1.92954 17.597 1.36779 15.4481 0.967473 13.2654C0.557073 11.0178 0.382833 8.74623 0.159633 6.47492C-0.0491669 4.35409 -0.170127 2.19639 0.565713 0.159944C0.646353 -0.0616724 0.918513 -0.0451124 1.00203 0.160952C1.83147 2.19438 2.1873 4.37756 3.01083 6.4189C3.79851 8.37414 4.75467 10.2886 5.17227 12.37C5.53331 14.1711 5.53053 16.0428 5.5278 17.8862C5.52723 18.2706 5.52666 18.6538 5.52939 19.0349C5.53177 19.3544 5.54251 19.6758 5.55327 19.9978C5.56922 20.4753 5.58521 20.954 5.57403 21.4296C5.76555 20.4778 6.01611 19.5302 6.25659 18.5963C6.83979 16.3228 7.61307 14.1166 8.82282 12.0952C10.0049 10.1177 11.478 8.33439 12.9166 6.54217C14.492 4.58146 15.8672 2.48007 17.4123 0.497768L17.4123 0.496328C17.4252 0.481064 17.4368 0.465512 17.4483 0.450392C17.6153 0.236984 17.9135 0.511304 17.8025 0.725288C16.652 2.96866 16.0385 5.40817 15.2148 7.77783C14.443 9.99889 13.3673 12.0909 12.2772 14.1693C11.1411 16.3352 10.0424 18.5055 9.01563 20.7254C8.55195 21.7248 8.05371 22.7054 7.42875 23.5896C7.91403 23.3362 8.42106 23.1158 8.93211 22.9085C10.339 21.5736 11.5472 19.9378 12.8734 18.6461ZM7.67355 23.9626C7.29771 24.157 6.93771 24.3744 6.59787 24.6235C6.97227 24.432 7.32954 24.2088 7.67355 23.9626Z" transform="translate(99.4375 37.90991)" id="Fill-412" fill="#0B7C5C" fill-rule="evenodd" stroke="none"/>
    <path d="M10.5994 18.6417C10.6498 18.9153 10.7059 19.1874 10.7751 19.4553C10.9536 19.4697 11.1322 19.4797 11.3122 19.4841C11.2503 19.1802 11.1624 18.885 11.0501 18.5999C10.9637 18.1492 10.8874 17.6956 10.7578 17.2535C10.5101 16.401 10.1688 15.5644 9.88369 14.722C9.27169 12.9158 8.64241 11.1097 7.65889 9.4654C5.63425 6.07981 2.63329 3.41869 0.500652 0.107126C0.402732 -0.0468099 0.130572 -0.0397539 0.0873716 0.160262C-0.238068 1.64591 0.404172 3.14481 1.04929 4.45823C1.91473 6.22367 2.92129 7.95052 3.92641 9.63921C4.96897 11.3902 6.13696 13.0422 7.50481 14.5535C8.59072 15.7545 9.96448 17.0778 10.5994 18.6417" transform="translate(91.38281 43.40942)" id="Fill-413" fill="#0B7C5C" stroke="none"/>
    <path d="M14.1854 8.76821C14.3611 8.80133 14.5382 8.83013 14.7153 8.85605C13.3905 6.53909 11.5689 4.32869 9.30812 2.89733C8.2166 2.20599 7.07324 1.82165 5.78603 1.69795C4.78652 1.60176 3.7814 1.61213 2.8166 1.29187C1.93388 0.999555 1.14332 0.487491 0.344123 0.0291388C0.152603 -0.0807332 -0.0893173 0.141603 0.0332267 0.338019C1.35644 2.46778 4.06796 2.93621 6.16604 3.98165C7.72268 4.75781 9.19004 5.62325 10.6156 6.61685C11.3457 7.12517 12.1176 7.59317 12.8217 8.13749C13.2105 8.43845 13.6569 8.66309 14.1393 8.75813C14.1537 8.76245 14.1696 8.76533 14.1854 8.76821" transform="translate(86.82422 53.94238)" id="Fill-414" fill="#0B7C5C" stroke="none"/>
    <path d="M10.6382 0.120566C10.5532 0.328646 10.4812 0.540038 10.4135 0.753014C9.78857 2.29626 8.54441 3.82252 7.59833 5.09332C6.53863 6.51964 5.35625 7.84199 4.23593 9.22079C3.24377 10.4426 2.32217 11.7343 1.68713 13.1812C1.37191 13.9012 1.14713 14.65 0.908089 15.3974C0.687913 16.0871 0.336409 16.7481 0.144889 17.4422C0.131929 17.4508 0.118825 17.458 0.104569 17.4652C-0.0423112 17.5487 -0.0178312 17.7086 0.0759128 17.8022C0.103129 18.0254 0.464569 18.0815 0.517849 17.8238C0.523609 17.795 0.532249 17.7662 0.539449 17.7374C1.95641 16.9295 3.33737 16.0425 4.49945 14.8862C5.72345 13.6679 6.62791 12.1948 7.41257 10.6663C8.20457 9.12345 9.04697 7.55586 9.61721 5.91628C10.1804 4.2993 10.2955 2.54711 10.8225 0.928694C10.9147 0.712838 10.9953 0.494822 11.0601 0.27407C11.1321 0.0309984 10.7361 -0.117754 10.6382 0.120566" transform="translate(106.1016 44.51526)" id="Fill-415" fill="#0A8E6D" stroke="none"/>
    <path d="M5.95072 0.0956104C4.7368 1.6979 3.79792 3.49833 2.80864 5.24303C2.01952 6.63451 1.49118 8.44314 0.102881 9.3705C-0.1376 9.53034 0.0871846 9.92346 0.330401 9.76075C1.6552 8.87659 2.65456 7.17882 3.36736 5.82177C4.37536 3.90427 5.032 2.053 6.34096 0.324858C6.51664 0.0927304 6.12496 -0.133926 5.95072 0.0956104" transform="translate(108.2617 49.98193)" id="Fill-416" fill="#0B7C5C" stroke="none"/>
    <path d="M9.79625 12.424C8.53898 10.2875 6.69881 8.73444 5.06585 6.90866C4.15001 5.88324 3.32201 4.77559 2.59049 3.61121C1.91801 2.541 0.951766 1.40959 0.492406 0.234261C0.488086 0.220581 0.478006 0.212085 0.470806 0.200421C0.465046 0.184581 0.459286 0.168885 0.452086 0.153189C0.349846 -0.116523 -0.0879135 -0.000602514 0.0157665 0.272421C0.935926 2.70069 2.13833 5.12508 3.72521 7.18773C5.34809 9.29748 7.59305 10.7982 9.44057 12.6962C9.61898 12.8805 9.92729 12.6458 9.79625 12.424" transform="translate(92.4375 46.15088)" id="Fill-417" fill="#0A8E6D" stroke="none"/>
    <path d="M2.7521 10.8472C2.44826 9.36784 2.15018 7.88752 1.83338 6.41094C1.5353 5.02509 1.2905 3.62498 1.04282 2.22976C1.0169 2.08288 1.01978 1.95659 0.976582 1.81C0.922006 1.6251 0.865702 1.44107 0.806662 1.25762C0.688582 0.890849 0.561862 0.526961 0.425062 0.166529C0.400726 0.0992809 0.364582 0.0236809 0.295462 0.00424093C0.239302 -0.0117431 0.175942 0.0193609 0.138502 0.0655849C0.0607418 0.159905 0.0521018 0.317873 0.0319418 0.434513C0.00602181 0.587729 -0.00103419 0.743825 0.000117811 0.898913C0.00458181 1.19858 0.0449018 1.4955 0.0708218 1.79358C0.194662 3.19586 0.308422 4.85344 0.605206 6.22907C0.965062 7.89947 1.2401 8.93843 1.6073 10.6072C1.8737 11.8088 2.66426 14.3399 3.25898 15.4317C3.3713 15.6376 3.69098 16.1819 3.70121 15.9659C3.76154 14.7347 2.99834 12.0451 2.7521 10.8472" transform="translate(100.3281 41.93506)" id="Fill-418" fill="#0A8E6D" stroke="none"/>
    <path d="M13.3668 3.12601C11.4356 5.9942 10.3297 9.50694 9.59818 12.9027C9.69322 11.094 9.7308 9.28345 9.78826 7.47193C9.82714 6.24735 9.85018 5.01485 9.98554 3.79661C10.118 2.60055 10.3297 1.42709 10.2951 0.218934C10.2865 -0.0738178 9.86026 -0.0718018 9.84298 0.217926C9.70618 2.44575 8.78602 4.46881 8.03722 6.53981C7.32298 8.51477 7.02922 10.5259 6.74554 12.5988C6.4417 14.8264 6.19114 17.071 6.18538 19.3221C6.17976 21.4654 6.32376 23.5909 6.15514 25.7235C5.99976 23.9638 5.07658 21.9953 4.5697 20.7728C3.94056 19.2599 3.3601 17.8408 3.00874 16.2358C2.48026 13.8264 2.05546 11.3768 0.858676 9.18869C0.77818 9.04023 0.550804 9.04225 0.46858 9.18783C-0.270284 10.4913 0.0178598 12.095 0.298804 13.492C0.71626 15.5693 0.99418 17.6 1.27642 19.7008C1.5457 21.6958 1.95034 23.7003 2.70922 25.5723C2.86906 25.9669 3.05626 26.4046 3.28954 26.8179C3.8628 26.9144 4.44154 26.9691 5.0233 26.9662C5.63098 26.9633 6.23578 26.9144 6.84202 26.8827C7.1388 26.3441 7.40074 25.7955 7.62682 25.2368C7.61372 25.5838 7.6153 25.9323 7.63834 26.2822C7.6428 26.3614 7.68154 26.4161 7.73338 26.4521C7.59802 26.6019 7.45546 26.743 7.2985 26.8625C7.5433 26.8539 7.7881 26.8467 8.03304 26.8381C8.52668 26.3182 8.92728 25.6601 9.22234 25.1734C10.2807 23.4368 10.9662 21.5057 11.5177 19.5573C13.0182 14.254 13.3422 8.70673 13.7873 3.24106C13.8073 3.00101 13.4804 2.95537 13.3668 3.12601" transform="translate(97.95703 35.93298)" id="Fill-419" fill="#00B580" stroke="none"/>
    <path d="M11.9089 13.117L1.8792 13.117C1.28318 8.7408 0.66672 4.36608 0 0C4.59648 0 9.19296 0 13.7894 0C13.1213 4.36608 12.5064 8.7408 11.9089 13.117" transform="translate(97.47266 61.39294)" id="Fill-420" fill="#58595B" stroke="none"/>
    <path d="M13.7894 0L0 0L0.62064 4.04064L13.1688 4.04064L13.7894 0" transform="translate(97.47266 61.39294)" id="Fill-421" fill="#414042" stroke="none"/>
    <path d="M15.1214 0L0 0L0.4824 3.14064L14.6405 3.14064L15.1214 0" transform="translate(96.80469 61.39294)" id="Fill-422" fill="#6D6E71" stroke="none"/>
    <path d="M0.132323 2.17728C0.126707 2.17728 0.120803 2.17728 0.113603 2.17728C0.0416034 2.1672 -0.00879653 2.10096 0.00128345 2.02752L0.263363 0.11376C0.272003 0.04752 0.329603 0 0.394403 0C0.400163 0 0.405923 0 0.411683 0.00144C0.485123 0.01152 0.535667 0.07776 0.525443 0.14976L0.263363 2.06352C0.253427 2.12976 0.197123 2.17728 0.132323 2.17728" transform="translate(110.7656 61.73999)" id="Fill-423" fill="#B2B2B4" stroke="none"/>
    <path d="M0.132095 7.12512C0.127775 7.12512 0.122015 7.12512 0.117695 7.12368C0.0442553 7.11504 -0.00758476 7.05024 0.000911251 6.97824L0.805873 0.11664C0.814657 0.0504 0.870961 0 0.937057 0C0.942961 0 0.947137 0.00144 0.952897 0.00144C1.0249 0.01008 1.07674 0.07488 1.06824 0.14832L0.26472 7.00848C0.255936 7.07616 0.198336 7.12512 0.132095 7.12512" transform="translate(108.8125 65.83826)" id="Fill-424" fill="#A7A7A8" stroke="none"/>
  </g>
</svg>