<svg width="89px" height="159px" viewBox="0 0 89 159" version="1.1" xmlns:xlink="http://www.w3.org/1999/xlink" xmlns="http://www.w3.org/2000/svg">
  <desc>Created with Lunacy</desc>
  <g id="Group-2">
    <path d="M14.7227 3.7742C13.8075 2.42412 12.7259 2.09228 11.1803 1.92524C9.84906 1.78124 9.01385 1.1742 7.87146 0.559482C7.35626 0.282362 6.78665 0.0554824 6.20106 0.00972239C5.54825 -0.0408376 4.91785 0.103482 4.38985 0.497082C3.49385 1.16716 3.36585 1.89708 2.15945 2.28364C1.04265 2.64236 -0.0613456 3.22732 0.00265439 4.5998C0.0314544 5.24588 0.351454 5.4894 0.642654 5.9998C0.965854 6.56524 0.892254 6.59436 0.812254 7.33836C0.777054 7.6894 0.725854 8.03436 0.745054 8.3886C0.825054 9.64492 1.54505 10.6497 2.81865 10.8865C3.56105 11.0251 4.24265 10.86 4.84105 10.5214C5.92905 10.3928 7.25066 9.61836 8.13066 9.02732C8.46346 8.88268 8.80265 8.74284 9.14186 8.61196C9.88106 8.32652 11.9259 7.4254 12.9723 7.60844C13.1195 7.9182 13.4395 8.1262 13.8651 7.98156C13.8939 7.971 13.9259 7.96044 13.9579 7.94988C14.1019 7.90092 14.2491 7.81388 14.3579 7.6958C14.4475 7.77196 14.5627 7.83084 14.7131 7.85836L14.7739 7.86956C15.1419 7.93644 15.4715 7.82092 15.6795 7.50156C16.3675 6.43372 15.3179 4.65388 14.7227 3.7742" transform="translate(40.39839 4.085064)" id="Fill-37" fill="#FFC39E" stroke="none"/>
    <path d="M0.367005 1.05619C0.879005 0.234432 1.57981 0.0443518 1.57981 0.0443518C1.57981 0.0443518 2.45661 -0.434049 3.41981 1.75155C3.74941 2.49683 7.21821 8.50036 5.68541 9.70836C4.19421 10.8828 2.59421 7.61332 2.00221 6.45492C1.12541 4.7346 -0.804196 2.93715 0.367005 1.05619" transform="translate(42.03404 148.788)" id="Fill-38" fill="#0D1D38" stroke="none"/>
    <path d="M6.73195 17.0159C6.75115 15.0757 6.93035 13.1356 6.97195 11.1951C7.04235 7.83413 7.38475 3.40917 5.56395 0.42869C5.19915 -0.17323 4.03755 -0.19275 4.04075 0.70165C4.04395 1.11925 4.05035 1.53653 4.05035 1.95445C3.67595 1.57717 2.98475 1.65941 2.73195 2.23797C2.49515 2.78005 2.45355 3.41205 2.49515 4.06165C2.24235 3.75893 1.94795 3.49333 1.60235 3.29045C1.20235 3.05781 0.80875 3.15573 0.57835 3.41653C0.0055501 3.09173 -0.16725 1.29461 0.17515 2.06357C1.82315 5.76661 4.22955 19.7135 4.50155 20.253C4.94635 21.1378 5.58635 21.3404 6.32555 20.6133C7.22475 19.7295 6.72235 18.0953 6.73195 17.0159" transform="translate(37.95709 130.7013)" id="Fill-39" fill="#E66060" stroke="none"/>
    <path d="M5.35712 0.000175015C6.32512 0.010735 6.85088 0.508975 6.85088 0.508975C6.85088 0.508975 7.71584 1.01138 6.3488 2.9701C5.88256 3.63794 2.55488 9.72146 0.726077 9.03858C-1.05184 8.3749 0.909437 5.30706 1.59264 4.20082C2.60736 2.55826 3.14112 -0.024465 5.35712 0.000175015" transform="translate(11.48105 141.2655)" id="Fill-40" fill="#0D1D38" stroke="none"/>
    <path d="M4.21835 13.5944C5.88555 12.6021 7.63691 11.7477 9.31659 10.7752C12.2257 9.09073 16.1835 7.08305 17.7867 3.98033C18.1099 3.35409 17.5211 2.35153 16.7595 2.82001C16.4052 3.03921 16.051 3.26001 15.6955 3.47953C15.8225 2.96241 15.3931 2.41393 14.7681 2.49969C14.1825 2.58001 13.6206 2.87249 13.0875 3.24561C13.2139 2.87057 13.2881 2.48241 13.2811 2.07985C13.2731 1.61905 12.9847 1.33329 12.6414 1.27089C12.6219 0.61329 14.0673 -0.46927 13.5879 0.22257C11.2795 3.55441 0.613552 12.8581 0.293872 13.3701C-0.231248 14.2104 -0.0728477 14.8603 0.932912 15.1154C2.15563 15.4255 3.29099 14.1467 4.21835 13.5944" transform="translate(15.62557 128.5209)" id="Fill-41" fill="#E66060" stroke="none"/>
    <path d="M28.005 65.4652C28.005 64.4063 27.813 63.3913 27.4066 62.4172C26.9618 61.3484 26.0242 60.2764 25.9314 59.0956C25.7618 56.9206 27.349 55.0262 26.7698 52.7529C26.485 51.6489 25.781 50.7686 25.2722 49.7718C24.7346 48.7177 24.5842 47.5468 24.3922 46.3926C24.3282 46.0191 24.261 45.6531 24.1842 45.2911C25.9058 40.1814 26.6866 34.9398 26.853 29.5503C27.0642 27.2675 27.205 24.9759 27.2914 22.6809C27.8418 17.9855 28.709 13.3017 28.3602 8.59514C28.2994 7.77946 27.7522 7.28698 27.1282 7.11962C26.9618 6.70074 26.645 6.4201 26.2706 6.28058C26.2866 6.14618 26.3058 6.01146 26.325 5.87706C26.6002 3.8873 23.6562 2.94106 23.2178 5.02042C23.205 5.07418 23.1986 5.12858 23.1858 5.18266C22.7858 4.9625 22.3122 4.88858 21.8962 4.99994C21.7106 4.0297 20.5778 3.35898 19.7202 3.63706L19.7202 3.63162C20.0114 1.9513 17.6882 0.655299 16.7762 2.38938C16.5426 2.83034 16.3122 3.27322 16.085 3.71674C15.781 2.9561 14.965 2.4457 14.2354 2.58234C14.0594 2.20602 13.7618 1.90138 13.413 1.71578C13.3074 0.248579 11.3135 -0.814141 10.469 0.832579C10.3817 1.00346 10.3001 1.1769 10.2143 1.34842C9.50295 0.482499 7.79127 0.447619 7.36023 1.86266C6.22103 5.6025 4.95127 9.13658 3.06807 12.5724C1.31735 15.7673 0.158625 18.9142 0.174945 22.6051C0.190305 26.1081 0.684385 29.9827 1.94583 33.2652C3.27127 36.7139 5.30647 39.9542 7.12855 43.1705C7.13367 43.1839 7.13719 43.198 7.14231 43.2118C7.90519 45.3215 9.66039 47.3491 9.91447 49.6041C10.1557 51.7465 9.33751 53.6876 10.15 55.8031C10.2962 56.1839 10.4837 56.5526 10.6981 56.9135C10.6857 56.9667 10.6754 57.0201 10.6617 57.0732C9.98679 59.6927 7.47671 61.1571 6.60919 63.7017C5.80759 66.0527 6.68759 69.1628 5.29655 71.2825C4.62167 72.3113 3.30231 72.6031 2.34295 73.2972C1.40055 73.9791 0.710945 74.9103 0.314145 76.0022C-0.427615 78.0438 0.148065 80.4307 2.00023 81.6671C3.68727 82.7926 5.99575 82.8038 7.51767 81.3884C8.25623 80.7017 8.63799 79.8003 9.16567 78.9651C9.89175 77.8163 11.2201 78.0143 12.3263 77.3849C14.2546 76.2879 15.1474 73.9436 15.7778 71.7951C16.6898 72.9782 17.9602 74.0755 18.261 75.5222C18.7314 77.7955 17.429 79.9785 19.0994 82.0457C20.6642 83.9849 23.8834 83.9004 26.1458 83.8031C27.2818 83.7548 27.8706 82.8156 27.7042 81.7599C27.253 78.9331 26.8178 76.0892 26.917 73.2175C27.0098 70.5958 28.005 68.0841 28.005 65.4652" transform="translate(19.49042 59.60653)" id="Fill-42" fill="#FFC39E" stroke="none"/>
    <path d="M6.7936 12.8973L0 11.8502L1.8272 0L8.6208 1.04704L6.7936 12.8973" transform="translate(44.65384 21.04903)" id="Fill-43" fill="#E66060" stroke="none"/>
    <path d="M14.0124 10.1123C14.9468 7.22686 15.3084 1.53118 11.574 0.428777C9.53561 -0.172823 3.58041 -0.511703 1.29241 2.02878C-0.0707903 3.54398 -0.0739903 5.44414 0.0508097 7.39006C0.18201 9.48254 -0.0771903 11.5235 0.57241 13.5529C1.14201 15.3296 2.08601 17.1597 3.27321 18.6077C4.43161 20.0211 5.70201 20.0211 7.26041 19.1971C10.5788 17.4413 12.886 13.5929 14.0124 10.1123" transform="translate(43.10863 9.29865)" id="Fill-44" fill="#E66060" stroke="none"/>
    <path d="M29.9969 24.5873C28.9082 21.3063 26.6129 18.8295 24.5095 16.0996C22.3751 13.329 19.889 10.8609 17.2913 8.52807C15.4638 6.88711 13.6158 5.14343 11.482 3.90695C10.0974 2.63911 8.59272 1.22215 6.86664 0.714947C5.76456 0.391427 4.55368 0.355587 3.418 0.225027C2.54024 0.123907 1.22984 -0.290173 0.455764 0.350147C-0.925996 1.49351 1.18056 2.92615 2.18728 3.63879C3.03944 4.24231 4.03048 4.54599 5.0628 4.65799C6.23688 4.78535 7.42696 4.51527 8.56776 4.76775C8.578 4.78343 8.58536 4.79879 8.59688 4.81447C11.9047 9.34151 15.2852 13.817 18.6334 18.3143C21.451 22.0993 24.1553 26.0705 28.0839 28.7981C28.6142 29.1661 29.1242 28.8941 29.3546 28.4497C29.6682 28.4458 29.9834 28.3265 30.2324 28.0647C31.0743 27.1809 30.307 25.522 29.9969 24.5873" id="Fill-45" fill="#E66060" stroke="none"/>
    <path d="M3.88751 0.330264C6.97551 1.88802 9.20911 5.04642 11.6027 7.5277C14.0315 10.0448 16.1083 12.8663 18.0347 15.7779C19.3883 17.8266 20.8443 19.9104 21.7531 22.2023C22.8027 23.7578 23.9835 25.4541 24.2331 27.2359C24.3931 28.3735 24.2491 29.5763 24.2139 30.7191C24.1851 31.6023 24.4027 32.9591 23.6539 33.6307C22.3195 34.8298 21.7531 32.9578 21.1931 31.8576C20.7227 30.9264 20.5659 29.9015 20.6075 28.8637C20.6555 27.6835 21.0971 26.5459 21.0139 25.3805C20.9979 25.3683 20.9851 25.3584 20.9723 25.345C16.9787 21.409 13.0459 17.4087 9.09071 13.4371C5.75951 10.0951 2.22671 6.83746 0.105112 2.55106C-0.182888 1.97282 0.162712 1.50818 0.636312 1.3453C0.684312 1.03554 0.850712 0.741464 1.14511 0.533464C2.14351 -0.169576 3.01071 -0.113576 3.88751 0.330264" transform="translate(64.63513 48.9162)" id="Fill-46" fill="#E66060" stroke="none"/>
    <path d="M52.1314 26.6944C52.0642 26.5933 49.741 24.8762 46.5314 22.6186C43.5842 19.5542 41.629 18.3078 38.269 15.7142C38.2498 15.6989 38.2242 15.6822 38.2018 15.6666C37.5458 16.559 36.3138 16.9274 35.1778 16.9709C33.6386 17.0298 32.2754 16.3696 30.9282 15.7037C29.4562 14.9773 28.4482 13.9325 27.3122 12.7965C26.2914 11.776 25.0978 10.9875 24.4322 9.65663C24.4098 9.60863 24.3906 9.56095 24.3714 9.51327C22.2754 8.66175 15.6226 5.63327 12.9026 3.50559C11.2031 2.17663 9.20056 -1.16705 6.78968 0.417274C5.59864 1.19967 4.56888 2.48319 3.57272 3.49375C2.53272 4.54911 1.27192 5.62143 0.505844 6.90079C-1.03592 9.47551 1.29176 12.1424 2.878 14.0602C4.07384 15.5066 9.55992 18.7994 9.90488 24.5322C9.99896 26.0992 8.92024 27.6442 8.37176 29.1069C7.25624 32.0842 5.43704 35.0656 4.82744 38.1971C4.23736 41.2269 5.40568 44.5453 7.63448 46.6672C9.90424 48.8285 12.671 48.3862 15.373 48.9933C19.7666 50.3651 22.6178 54.761 27.2322 55.8358C29.2098 56.2966 31.4978 56.1401 33.0722 54.7427C34.9058 53.1178 35.1106 50.7478 35.4978 48.4858C35.9458 45.8659 37.565 44.2038 39.1458 42.1853C39.933 41.1834 40.6562 40.1328 41.3122 39.0422C42.9378 39.8698 44.637 40.5594 46.3938 41.0966C48.4866 41.7366 51.005 42.4637 52.957 41.0835C54.5826 39.9328 55.8466 37.3814 56.4258 35.543C57.7346 31.3907 55.0018 28.9347 52.1314 26.6944" transform="translate(18.1352 18.66759)" id="Fill-47" fill="#CF3AAA" stroke="none"/>
    <path d="M14.6688 6.52384C12.4128 4.78592 2.9504 0.75456 1.408 0.55744C1.312 0.5456 0.7872 0.33888 0 0C3.0848 3.27808 5.0976 9.34656 10.1088 9.65152C11.9328 9.76256 14.2976 8.43552 14.6688 6.52384" transform="translate(41.76104 27.85319)" id="Fill-48" fill="#E66060" stroke="none"/>
    <path d="M4.77559 2.89736C3.78359 1.70536 2.13879 1.64552 1.21719 0.288722C0.756385 -0.388398 -0.350815 0.248722 0.109985 0.935122C0.410785 1.3812 0.788385 1.73288 1.19159 2.04392C1.17239 2.0468 1.15639 2.04616 1.13719 2.04904C0.657185 2.12456 0.513185 2.82504 0.852385 3.12808C2.21239 4.3524 3.38999 5.60776 3.50519 7.45896C3.49559 7.49064 3.55319 11.5498 2.78199 13.1546C2.47479 13.7892 2.58999 14.4903 3.13399 13.9438C5.13399 11.9303 5.83799 9.23208 5.96599 6.42024C6.02039 5.19816 5.56279 3.842 4.77559 2.89736" transform="translate(53.32146 8.058865)" id="Fill-49" fill="#FFC39E" stroke="none"/>
    <path d="M1.59972 1.39211C1.66052 1.29195 1.72452 1.19211 1.79172 1.08875C2.18852 0.506671 1.57732 -0.391249 1.18052 0.186031C0.351723 1.38539 -0.109078 2.46539 0.0221224 4.21611C0.108522 5.37387 0.329323 5.64139 0.322923 6.76107C0.319723 7.41035 0.518123 9.17291 1.07492 9.17707C1.55812 9.18091 2.06052 3.05835 2.06692 2.01355C2.07012 1.58571 1.83332 1.36523 1.59972 1.39211" transform="translate(42.14532 10.97244)" id="Fill-50" fill="#FFC39E" stroke="none"/>
    <path d="M14.2564 2.37568C13.7252 0.57728 9.77636 -0.0835204 8.53476 0.00831955C6.34596 0.17024 4.39716 0.937599 2.51876 2.46304C2.02916 2.86016 1.30596 4.0352 1.31556 4.9168C1.28996 4.94304 1.26756 4.96992 1.24836 4.99616C1.01796 4.35456 -0.0700355 4.39712 0.00356453 5.16096C0.102765 6.19232 0.509165 6.99104 1.61316 7.18464C2.80996 7.39424 3.68676 6.65856 4.53476 5.92032C5.75716 4.85568 6.39396 4.568 8.09956 4.70528C8.77156 4.75936 9.28676 4.74336 9.92996 4.50528C10.9252 4.13728 11.2964 4.01952 12.3652 3.84832C12.8932 3.76416 14.042 3.8752 14.4292 3.4752C14.5892 3.31136 14.3236 2.5984 14.2564 2.37568" transform="translate(41.80868 7.751747)" id="Fill-51" fill="#FFC39E" stroke="none"/>
    <path d="M2.35556 0.0292122C2.04836 -0.0456678 1.71556 0.0343322 1.43076 0.145692C1.24516 0.218652 0.825955 0.617692 0.656355 0.609052C0.0355555 0.577052 0.0483555 1.51625 0.656355 1.56585C0.989155 1.59337 1.16196 1.44361 1.41796 1.25641C1.44996 1.23369 1.53956 1.17129 1.64516 1.10857C1.63556 1.15145 1.62916 1.19753 1.63236 1.24905C1.64516 1.61769 1.12036 2.09001 0.896355 2.35721C0.653155 2.64297 0.403555 2.91881 0.144355 3.18985C-0.217244 3.57001 0.160355 4.06217 0.617955 3.99913C1.24516 3.91241 1.70916 3.49705 2.10276 3.02825C2.53475 2.51497 2.99236 1.93801 3.06915 1.24841C3.13315 0.704412 2.92835 0.169692 2.35556 0.0292122" transform="translate(54.11269 19.64957)" id="Fill-52" fill="#E66060" stroke="none"/>
    <path d="M2.39471 4.90822C2.23791 4.52134 2.10991 4.13254 2.00111 3.74054C2.00751 3.72422 2.01391 3.71046 2.02351 3.69318C2.21871 3.16966 2.27951 2.30566 2.10031 1.58854C2.23791 1.4839 2.33391 1.31494 2.30191 1.10246C2.16431 0.207738 1.17551 -0.415622 0.433109 0.334458C-0.309291 1.08262 0.0459088 2.65894 0.439509 3.49318C0.580308 3.7959 0.839508 4.05062 1.11471 4.16038C1.22991 4.53606 1.36111 4.90854 1.51791 5.27846C1.72591 5.7735 2.59951 5.41382 2.39471 4.90822" transform="translate(42.45753 17.87585)" id="Fill-53" fill="#E66060" stroke="none"/>
    <path d="M11.3936 1.61727C11.4512 1.65215 11.496 1.70463 11.528 1.77791C12.5808 4.39679 8.44319 6.80191 7.12799 4.00383C6.91359 3.55199 6.75679 3.01215 6.73759 2.49919C6.16799 2.21663 5.56319 2.13471 4.94879 2.25183C4.72159 4.35679 1.52159 5.78207 0.395191 3.38367C-0.145609 2.23327 -0.344009 0.509432 1.21759 0.127032C2.31839 -0.143048 3.99839 -0.0390485 4.66079 0.997112C4.71839 1.03231 4.76319 1.08479 4.79519 1.15807C4.85279 1.30655 4.89439 1.45439 4.92319 1.60063C5.56319 1.49343 6.20639 1.57023 6.80479 1.82015C6.93919 1.31775 7.28479 0.910071 7.95039 0.747192C9.05119 0.476792 10.7312 0.581111 11.3936 1.61727ZM1.26879 3.57983C0.587191 2.86175 0.190391 1.17183 1.38719 0.747191C2.17439 0.468152 3.89279 0.614712 4.21599 1.50687C4.22239 1.52191 4.23199 1.53055 4.23839 1.54399C4.59679 3.07583 2.57759 4.95391 1.26879 3.57983ZM8.00159 4.19967C7.31679 3.48191 6.92319 1.79167 8.11999 1.36703C8.90719 1.08831 10.6256 1.23487 10.9488 2.12703C10.9552 2.14175 10.9648 2.15071 10.9712 2.16383C11.3296 3.69567 9.31039 5.57375 8.00159 4.19967Z" transform="translate(44.49545 15.52488)" id="Fill-54" fill="#0D1D38" fill-rule="evenodd" stroke="none"/>
    <path d="M4.12441 0.268493C3.45881 0.340493 2.93721 0.397453 2.33241 0.396493C1.70841 0.395533 0.284412 0.0700929 0.226812 0.0313729C0.0668123 -0.073587 -0.0419877 0.104653 0.0156123 0.273293C0.879612 2.79425 3.65401 2.38753 4.21721 0.463373C4.25241 0.347853 4.23961 0.255693 4.12441 0.268493" transform="translate(47.21743 22.63621)" id="Fill-55" fill="#C24058" stroke="none"/>
    <path d="M0.808613 0.675234C0.741413 1.00067 0.511012 1.22883 0.293412 1.18435C0.0758115 1.14019 -0.0489887 0.840354 0.0182114 0.514914C0.0822115 0.189154 0.312612 -0.0386859 0.533412 0.00547408C0.751013 0.0499541 0.875813 0.349474 0.808613 0.675234" transform="translate(53.12523 17.77251)" id="Fill-56" fill="#0D1D38" stroke="none"/>
    <path d="M0.807442 0.675234C0.743442 1.00099 0.513042 1.22883 0.292242 1.18435C0.0746422 1.14019 -0.0469577 0.840354 0.0170422 0.514914C0.0842422 0.189154 0.314642 -0.0386859 0.532242 0.00547407C0.749842 0.0499541 0.874642 0.349794 0.807442 0.675234" transform="translate(46.3968 17.08579)" id="Fill-57" fill="#0D1D38" stroke="none"/>
    <path d="M2.1472 0.3824C1.52 0.38144 0.0992 0.056 0.0384 0.01728C0.0256 0.00895999 0.0128 0.0048 0 0C0.2464 0.853439 1.1232 1.10272 1.9424 1.11648C2.5952 1.12736 3.136 1.00032 3.5776 0.669439C3.6224 0.637439 3.664 0.60064 3.7056 0.56192C3.8048 0.4736 3.8976 0.3728 3.9872 0.26112C3.9744 0.25664 3.9584 0.25216 3.936 0.2544C3.2736 0.32672 2.7488 0.38336 2.1472 0.3824" transform="translate(47.41224 22.65799)" id="Fill-58" fill="#FFFFFF" stroke="none"/>
    <path d="M1.26878 3.95103C0.900775 3.92703 0.423976 3.83647 0.327976 3.39551C0.279976 3.18271 0.356776 2.90527 0.398376 2.69599C0.507176 2.15519 1.10558 0.711031 1.32958 0.207671C1.41278 0.0198308 1.11518 -0.0899292 1.03198 0.0959908C0.727976 0.767351 -0.0688238 2.61791 0.00477615 3.37599C0.0655761 4.00735 0.679976 4.23487 1.23998 4.27199C1.44478 4.28543 1.47678 3.96447 1.26878 3.95103" transform="translate(48.73547 18.01352)" id="Fill-59" fill="#C45151" stroke="none"/>
    <path d="M4.55156 12.3608C2.47156 10.0059 2.85236 7.55022 2.62836 4.64878C2.49076 2.86766 1.79316 1.36335 0.543877 0.0951856C0.254917 -0.197934 -0.195323 0.252625 0.0923566 0.546705C2.35636 2.86094 1.75508 5.40462 2.06196 8.32846C2.24436 10.0456 2.96116 11.5272 4.10036 12.8133C4.37236 13.1227 4.82356 12.6683 4.55156 12.3608" transform="translate(30.19829 117.3106)" id="Fill-60" fill="#0D1D38" stroke="none"/>
    <path d="M6.73768 19.9149C4.02408 13.6 1.32648 7.20864 0.635277 0.303364C0.596877 -0.0982362 -0.0367235 -0.103996 0.00167653 0.303364C0.676877 7.3184 3.41608 13.8298 6.18728 20.2365C6.35048 20.6122 6.89768 20.2877 6.73768 19.9149" transform="translate(36.25857 83.8759)" id="Fill-61" fill="#0D1D38" stroke="none"/>
    <path d="M1.0812 0C-0.358799 0 -0.361999 2.24 1.0812 2.24C2.5212 2.24 2.5244 0 1.0812 0" transform="translate(41.83825 20.72071)" id="Fill-62" fill="#FFC39E" stroke="none"/>
    <path d="M1.0824 0C-0.3608 0 -0.3608 2.24 1.0824 2.24C2.5224 2.24 2.5256 0 1.0824 0" transform="translate(54.69785 22.46087)" id="Fill-63" fill="#FFC39E" stroke="none"/>
  </g>
</svg>