<svg width="57px" height="160px" viewBox="0 0 57 160" version="1.1" xmlns:xlink="http://www.w3.org/1999/xlink" xmlns="http://www.w3.org/2000/svg">
  <desc>Created with Lunacy</desc>
  <g id="Group">
    <path d="M10.0326 2.99408C8.96673 2.02448 7.71713 1.6664 6.34465 1.3176C4.79649 0.924003 3.26881 0.0600034 1.65633 0.00208339C0.82977 -0.0276766 -0.11039 0.254883 0.0105699 1.27024C0.15521 2.4872 2.06945 2.82992 2.96449 3.15568C3.91137 3.50096 4.86529 3.83248 5.78145 4.25584C6.45889 4.5688 7.12993 5.12912 7.83553 5.35184C8.60833 5.59536 9.48801 5.31632 9.47937 4.36144C9.47841 4.2568 9.46337 4.156 9.44033 4.0584C9.99105 4.16496 10.5443 3.45968 10.0326 2.99408" transform="translate(0 6.400024)" id="Fill-2" fill="#E66060" stroke="none"/>
    <path d="M10.0327 2.99408C8.96673 2.02448 7.71713 1.6664 6.34465 1.3176C4.79649 0.924003 3.26881 0.0600034 1.65633 0.00208339C0.82977 -0.0276766 -0.11039 0.254883 0.0105699 1.27024C0.15521 2.4872 2.06945 2.82992 2.96449 3.15568C3.91137 3.50096 4.86529 3.83248 5.78145 4.25584C6.45889 4.5688 7.12993 5.12912 7.83553 5.35184C8.60833 5.59536 9.48801 5.31632 9.47937 4.36144C9.47841 4.2568 9.46337 4.156 9.44033 4.0584C9.99105 4.16496 10.5443 3.45968 10.0327 2.99408" transform="translate(22.71875 0)" id="Fill-3" fill="#E66060" stroke="none"/>
    <path d="M1.54546 4.54671C1.36914 5.01551 1.13042 5.46959 0.996985 5.94447C0.801785 6.63887 0.717305 7.38767 0.747705 8.10767C0.808825 9.55887 1.27634 10.9269 1.88786 12.2312C3.38642 15.4283 5.4501 18.4213 7.2309 21.4683C7.4389 21.8242 7.63187 22.1797 7.81235 22.5355C8.12115 25.931 8.02547 29.3573 7.67122 32.764C7.55507 32.691 7.43315 32.6306 7.3093 32.5755C7.70674 33.7915 7.75474 35.0459 7.87602 36.3701C7.98994 37.619 8.27507 39.0178 8.89522 40.1586C9.58483 41.4267 10.9151 41.4264 12.2255 41.8354C12.4427 41.9032 12.6584 41.9729 12.8725 42.0446C12.8447 42.0098 12.8159 41.9752 12.788 41.9403C14.6904 34.8523 16.6773 27.6238 15.9211 20.2501C15.5288 16.4232 14.4216 12.7067 12.5999 9.31439C11.724 7.68335 10.701 5.99695 9.37266 4.68847C8.28754 3.61935 6.98451 3.19823 5.71731 2.55279C5.33939 2.05007 4.91058 1.58191 4.4725 1.13679C3.74002 0.391512 2.7061 -0.240168 1.61874 0.0897518C1.00274 0.276312 0.595385 0.679832 0.400185 1.17199C0.274105 1.32431 0.170105 1.50031 0.0984247 1.69551C-0.216775 2.55151 0.276345 3.28047 0.852025 3.86031C1.08082 4.09135 1.3141 4.31823 1.54546 4.54671" transform="translate(30.16797 2.454102)" id="Fill-4" fill="#0D1D38" stroke="none"/>
    <path d="M6.77952 12.9584L0 11.8266L1.97408 0L8.7536 1.13184L6.77952 12.9584" transform="translate(29.50391 28.91443)" id="Fill-5" fill="#E66060" stroke="none"/>
    <path d="M32.3732 6.03585C34.1482 7.09665 34.0618 3.29473 32.297 2.22817C30.1488 0.930246 29.5124 0.672326 26.921 0.733126C25.7616 0.760646 24.5959 1.04545 23.5975 1.64385C23.1568 1.90817 22.712 2.41953 22.1588 2.44097C21.4797 2.46721 20.2941 1.75457 19.7092 1.50625C17.4154 0.531526 14.8282 -0.517114 12.3152 0.284166C9.71715 1.11265 8.69507 4.04577 5.64163 3.94913C4.47043 3.91233 3.56355 3.89121 2.54627 4.56993C1.56003 5.22817 0.823392 6.23681 0.408672 7.33857C-0.463648 9.65729 0.125152 12.2182 1.56163 14.1782C3.05795 16.2195 5.38371 17.7034 7.74211 18.5638C8.77603 18.9414 9.87075 19.0611 10.9271 18.7091C12.0992 18.3187 12.8247 17.3248 13.8826 16.7555C15.4256 15.9258 16.73 16.3882 18.2839 16.8371C19.6871 17.2422 21.0496 17.2282 22.4282 16.7254C25.4138 15.6368 27.7181 13.1114 31.0528 14.8282C32.8935 15.776 34.5252 12.9987 32.6794 12.0458C32.4964 11.9514 32.3095 11.8678 32.1226 11.785C32.4631 11.3962 32.7127 10.912 32.8125 10.3664C33.1271 8.64769 32.1421 7.02241 31.0788 5.63809C30.9444 5.42945 30.802 5.23041 30.6554 5.04609C31.257 5.36577 31.8352 5.71489 32.3732 6.03585" transform="translate(1.769531 15.84399)" id="Fill-6" fill="#FFC39E" stroke="none"/>
    <path d="M16.0794 7.16185C16.5229 6.26425 16.9559 5.72889 16.0788 5.04473C15.649 4.70969 13.2167 3.32985 12.6704 2.93657C10.3092 0.900727 5.77315 -1.45479 3.32131 1.15001C1.86403 2.69817 1.41987 5.12313 1.81219 7.33401C1.65923 7.99225 1.73891 8.72665 2.03427 9.40153C2.07811 9.50137 2.12547 9.59961 2.17475 9.69721C1.38819 8.69529 -0.467807 9.69721 0.109473 11.0463C0.911393 12.9196 2.54051 13.807 4.33283 14.575C6.25987 15.4006 7.96387 16.5545 10.0679 16.8902C11.9104 17.1842 10.6247 17.3033 12.4522 16.8982C14.2362 16.5026 18.1114 13.2726 18.0788 11.5113C18.0388 9.34105 17.2634 9.11673 16.0794 7.16185" transform="translate(24.82031 17.46741)" id="Fill-7" fill="#E66060" stroke="none"/>
    <path d="M14.5769 9.55393C11.5769 7.27393 13.6998 4.54625 14.783 3.60097C15.4265 3.03905 16.0067 2.47073 15.742 1.55137C15.1907 -0.363835 11.4025 -0.143355 9.95868 0.316485C9.43036 0.484485 9.05564 0.773125 8.77468 1.14593C8.23644 1.00129 7.60604 1.20129 7.41532 1.89281C7.08412 3.09281 6.75292 4.29313 6.42204 5.49312C6.14396 5.60193 5.9014 5.81697 5.7702 6.16289C5.24604 7.54273 4.7222 8.92256 4.19836 10.3024C3.86812 11.1718 3.27772 12.1219 3.86492 12.9949C4.20156 13.4954 4.84796 13.72 5.39708 13.3965C5.61052 13.271 5.79836 13.1296 5.9686 12.9773C6.09756 13.0976 6.25788 13.1904 6.42972 13.2499C4.82716 13.8554 3.16252 13.7766 1.62364 12.7005C0.434838 11.8694 -0.668522 13.8051 0.492118 14.6365C1.62844 15.4502 2.96796 15.5984 4.2646 15.9078C5.88092 16.2934 7.33308 15.551 8.87036 15.2941C10.44 15.0314 11.8252 16.5613 13.2483 16.2957C14.3404 16.3696 15.3056 15.9078 15.3932 14.575C15.4342 13.9517 15.3136 13.2845 15.1574 12.6547C15.2752 11.2947 15.1139 9.96193 14.5769 9.55393" transform="translate(19.01953 17.44238)" id="Fill-8" fill="#FFC39E" stroke="none"/>
    <path d="M40.6965 43.7701C40.0222 40.806 38.4216 38.3138 36.5547 35.9666C36.524 35.9282 36.492 35.8901 36.4613 35.8514C36.588 35.3788 33.7192 32.1679 32.8414 30.4008C32.4357 29.5845 32.1048 28.7327 31.7534 27.892C31.5515 27.4092 31.7858 27.8623 31.4405 27.2178C31.3131 26.98 31.18 26.7468 31.0466 26.5132C30.3714 26.1951 29.5883 26.1317 28.8459 26.0536C27.2242 25.8834 25.5963 25.8296 23.9666 25.8444C23.2581 25.8508 22.8974 26.3922 22.8814 26.9426C22.509 27.4725 22.467 28.1845 22.3925 28.8264C22.3045 29.5855 19.9058 20.9013 17.9736 16.044C16.7003 12.8431 15.1755 9.74164 13.2187 6.90004C11.469 4.3586 9.5176 2.34708 6.63664 2.6194C5.92368 1.87988 5.16912 1.045 4.31184 0.493001C3.09872 -0.287799 1.44016 -0.163639 0.534562 1.02676C-1.0312 3.08532 1.1624 5.24948 3.00432 6.3042C2.88752 6.6322 2.76976 6.94516 2.74096 7.1266C2.6296 7.82516 2.57776 8.52148 2.62672 9.22772C2.73264 10.7522 3.12944 12.1874 3.74192 13.5816C5.08848 16.6479 7.47824 19.0242 9.45104 21.677C11.3022 24.166 12.7579 26.8869 13.8149 29.7551C14.1048 30.686 14.3986 31.613 14.7003 32.5352C15.2802 34.6744 15.8661 37.3103 15.7864 39.5493C15.6248 44.0882 14.2661 46.9064 12.9198 49.1877C10.653 53.0296 7.612 56.6527 7.02032 61.1903C7.37392 61.2005 7.72208 61.4319 7.72656 61.8866C7.7432 63.4789 7.86704 65.021 8.71952 66.4098C9.68112 67.9768 10.7899 68.7093 12.516 69.3093C13.0798 69.5055 13.1211 70.1532 12.8446 70.5084C13.5922 70.6885 14.3637 70.8258 15.1298 70.9813C20.1838 72.0095 25.3224 72.373 30.1362 70.2044C32.7237 69.0389 36.3182 67.5135 38.9234 57.517C39.365 55.8213 41.452 47.094 40.6965 43.7701" transform="translate(6.496094 8.545532)" id="Fill-9" fill="#0D1D38" stroke="none"/>
    <path d="M0.323749 16.7762C0.478309 14.8421 0.471909 12.8936 0.603109 10.957C0.830629 7.60336 0.885349 3.16528 2.96215 0.358556C3.38135 -0.208484 4.54007 -0.124644 4.45527 0.765596C4.41591 1.18128 4.37399 1.59696 4.33399 2.01296C4.74199 1.67024 5.42359 1.81392 5.62263 2.41232C5.80919 2.9736 5.79479 3.60656 5.69527 4.24976C5.97591 3.97072 6.29143 3.73264 6.65591 3.56144C7.07287 3.36496 7.45655 3.49744 7.66423 3.77808C8.26263 3.50544 8.59607 1.73104 8.18679 2.4664C6.21623 6.00816 2.57591 19.6856 2.25751 20.1989C1.73495 21.0405 1.08215 21.1858 0.409189 20.3957C-0.408731 19.435 0.237669 17.852 0.323749 16.7762" transform="translate(24.85938 134.0352)" id="Fill-10" fill="#E66060" stroke="none"/>
    <path d="M0.0214796 1.42538C0.1434 0.465064 0.6986 0.000103681 0.6986 0.000103681C0.6986 0.000103681 1.337 -0.0414963 3.1258 1.54186C3.73572 2.08138 8.86372 6.38635 8.4682 7.06411C7.5114 8.70283 4.78244 6.45323 3.76196 5.64747C2.24708 4.45066 -0.25756 3.62378 0.0214796 1.42538" transform="translate(24.375 151.5364)" id="Fill-11" fill="#0D1D38" stroke="none"/>
    <path d="M23.315 6.11989C21.763 4.90069 20.6465 3.21589 19.0916 1.99189C15.9521 -0.479785 10.8212 -0.529065 7.29128 1.17141C6.18824 1.70261 5.20712 2.41269 4.0484 2.83477C3.00936 3.21333 1.93512 3.48021 0.909202 3.89749C0.644562 4.00533 0.386322 4.12598 0.132242 4.25333C0.0848818 4.57141 0.0468018 4.89333 0.0244018 5.2207C-0.122478 7.35637 0.389522 9.60277 1.67432 11.3365C3.25704 13.4716 5.76392 13.7775 8.21224 14.2754C13.2666 15.3036 18.4052 15.6671 23.219 13.4985C24.794 12.789 26.7425 11.9423 28.6135 9.13589C27.121 7.6559 24.9412 7.39734 23.315 6.11989" transform="translate(13.39063 65.25146)" id="Fill-12" fill="#D3B7B2" stroke="none"/>
    <path d="M15.7789 15.0909C16.8163 14.6237 17.1066 16.584 18.3389 15.4774C18.6973 14.4941 21.3411 9.42079 21.6781 8.42879C20.288 7.52671 18.5933 7.16191 17.2669 6.11999C15.7146 4.90079 14.5981 3.21599 13.0435 1.99199C11.2768 0.601272 8.87968 -0.0227285 6.49216 0.00063151C5.49248 2.82975 4.34144 5.59999 3.01312 8.29503C2.21152 9.92095 1.35424 11.519 0.44192 13.0851C0.29632 13.3347 0.14784 13.5827 0 13.8304C0.70976 13.9965 1.43904 14.128 2.16416 14.2755C7.21824 15.3037 10.9651 17.2592 15.7789 15.0909" transform="translate(19.45313 65.25134)" id="Fill-13" fill="#E66060" stroke="none"/>
    <path d="M42.1553 43.8907C41.7512 38.866 36.4491 32.8155 32.8606 29.8094C29.5192 27.0104 26.4341 23.7105 23.5806 19.4094C21.1512 15.7473 23.9966 13.1377 25.3355 9.09004C25.7765 7.75692 25.3841 7.4878 24.4088 6.9918C22.8353 6.1918 19.1083 4.19116 17.307 3.14092C15.2917 1.9662 13.1813 0.989558 11.0142 0.130679C10.6731 -0.00468147 10.3633 -0.0280415 10.0923 0.0292385C9.62478 0.0673185 9.18382 0.340279 8.9115 0.940598C6.9835 5.19052 4.6635 9.08588 2.1771 13.0232C-0.225137 16.827 -0.643377 21.0984 0.942223 25.324C2.47278 29.4036 5.3627 32.6504 8.2587 35.8225C11.1185 38.955 13.7496 42.2251 16.1051 45.7384C16.5189 49.5601 14.9131 53.5214 12.6341 56.7902C10.8488 59.3515 8.86382 61.7665 6.92942 64.2139C5.13198 66.4878 5.78862 68.6033 7.75566 70.5351C9.88878 72.6296 12.4024 74.4305 14.7816 76.2331C15.8209 77.0203 16.9755 78.188 18.2721 78.483C19.7096 78.8103 20.6325 77.9396 21.4561 76.8878C23.2174 74.6392 24.0187 71.7217 25.1637 69.1377C26.0939 67.0388 26.8795 65.0523 27.5502 63.1585C28.0629 62.7531 28.5557 62.307 29.0267 61.9262C31.1845 60.1825 33.3137 58.3966 35.2981 56.4555C38.6357 53.1905 42.5608 48.9313 42.1553 43.8907" transform="translate(13.87891 69.62274)" id="Fill-14" fill="#0D1D38" stroke="none"/>
    <path d="M1.5914 0C1.17476 0.51584 0.164517 1.38144 0.101797 1.40448C-0.0774026 1.4704 0.00163732 1.66336 0.171557 1.71712C1.19172 2.04064 2.01508 1.83456 2.55716 1.36928C2.29508 0.97888 1.96836 0.56832 1.5914 0" transform="translate(39.62109 25.12207)" id="Fill-15" fill="#C24058" stroke="none"/>
    <path d="M0.199205 2.41812C0.383205 2.445 0.580005 2.26036 0.780005 2.06612C1.09264 1.76212 1.37744 1.43636 1.54224 1.02164C1.668 0.705482 1.81392 0.234443 1.46032 0.0194027C1.41616 -0.0074773 1.34416 -0.0068373 1.30192 0.0238827C1.00848 0.235403 -0.543515 2.30964 0.199205 2.41812" transform="translate(33.85938 20.59674)" id="Fill-16" fill="#FFC39E" stroke="none"/>
    <path d="M0.931683 0.113158C0.879843 -0.0849215 0.579683 -0.00140151 0.625763 0.197638C0.730403 0.649478 0.432163 0.999238 0.0744032 1.2274C-0.0987168 1.33812 0.0616032 1.61492 0.236323 1.5042C0.713123 1.20116 1.0872 0.703878 0.931683 0.113158" transform="translate(35.77344 22.19421)" id="Fill-17" fill="#0D1D38" stroke="none"/>
    <path d="M3.82736 3.17505C3.83664 3.20577 3.84144 3.23777 3.84944 3.26849C3.97008 3.40257 4.02256 3.59457 3.9368 3.83073C3.92816 3.85505 3.91568 3.87489 3.90608 3.89825C3.87056 4.35297 3.66416 4.77601 3.23184 5.00673C2.60592 5.34049 1.72368 5.44513 1.06864 5.15073C0.340003 4.82337 -0.040157 4.07297 0.00336301 3.28897C0.027683 2.85473 0.200163 2.42689 0.426723 2.06017C0.477865 1.97742 0.52478 1.90762 0.565987 1.84631C0.781326 1.52594 0.84078 1.43748 0.532963 0.944331C0.094563 0.241611 1.196 -0.392949 1.63856 0.297931C1.9288 0.751691 2.15696 1.23233 2.05008 1.78145C2.02416 1.91329 1.9752 2.03137 1.91472 2.14369C2.6824 1.94625 3.5448 2.24513 3.82736 3.17505ZM1.956 3.58433C2.17392 3.68225 2.45936 3.73697 2.61648 3.60673C2.54992 3.39617 2.12432 3.31841 1.956 3.58433Z" transform="translate(32.16016 25.10382)" id="Fill-18" fill="#E66060" fill-rule="evenodd" stroke="none"/>
  </g>
</svg>