<svg width="181px" height="180px" viewBox="0 0 181 180" version="1.1" xmlns:xlink="http://www.w3.org/1999/xlink" xmlns="http://www.w3.org/2000/svg">
  <desc>Created with Lunacy</desc>
  <g id="Group">
    <path d="M0 21.027C0 32.6394 40.5005 42.0535 90.4609 42.0535C140.421 42.0535 180.922 32.6394 180.922 21.027C180.922 9.41414 140.421 0 90.4609 0C40.5005 0 0 9.41414 0 21.027" transform="translate(0 137.647)" id="Fill-3" fill="#F1BE77" stroke="none"/>
    <path d="M6.6592 39.9371C6.6592 39.9371 -0.954212 35.7176 0.100222 29.5431C1.15409 23.3686 10.7588 23.3686 12.0473 21.5163C13.3358 19.664 7.9477 13.2836 12.8671 9.78479C17.7864 6.28588 19.6607 7.93244 21.6514 7.93244C23.6426 7.93244 22.5888 -0.300228 31.139 0.0084693C39.6893 0.317223 38.5184 8.54989 40.0409 9.88769C41.5635 11.2255 47.8884 8.24114 49.7626 11.4313C51.6363 14.6214 45.6043 18.0689 47.1856 19.4581C48.767 20.8474 53.3935 20.3843 53.3935 23.5744C53.3935 26.7649 48.7082 26.2504 48.7082 28.4112C48.7082 30.5721 56.5557 29.2344 57.1414 33.1452C57.7271 37.0553 50.9923 41.532 50.9923 41.532C50.9923 42.9042 6.6592 41.3087 6.6592 39.9371" transform="translate(61.48438 48.01525)" id="Fill-4" fill="#533332" stroke="none"/>
    <path d="M58.0536 4.53529C58.0536 4.53529 97.9073 -0.208819 110.404 0.00715659C122.902 0.223697 136.816 3.64255 132.484 19.3562C128.381 34.2387 76.9808 25.1988 71.5532 24.2003C71.5159 24.1936 71.344 24.1184 71.2948 24.1059C71.1552 24.0703 71.0562 24.0748 71.0562 24.0748C71.0562 24.0748 28.9857 32.6782 19.4676 31.0782C11.4171 29.9135 -2.74492 25.6556 0.465473 12.6281C4.28428 -1.96715 32.8953 2.05836 32.8953 2.05836L58.0536 4.53529" transform="translate(24.37891 132.3377)" id="Fill-5" fill="#7C7CB6" stroke="none"/>
    <path d="M73.3846 14.4647C77.3214 19.1019 79.9165 23.6397 79.9165 28.4963C79.9165 34.6007 73.8307 41.0064 63.3028 41.2925C63.3934 41.5431 63.6115 42.1251 63.9113 42.9253C65.4226 46.958 69.0114 56.5344 68.8316 57.1803C68.3878 58.7752 62.0832 63.5221 42.7733 63.5221C19.4683 63.5221 13.5623 59.8036 12.8963 58.315C12.6707 57.8105 17.4238 45.6277 18.7689 42.1798C18.9646 41.6784 19.0881 41.3617 19.1138 41.2925C18.2544 41.3734 17.3758 41.4327 16.4774 41.4661C6.19317 41.4661 0 38.0755 0 30.1297C0 25.9577 4.38 20.1168 8.92509 15.1409C11.4354 12.392 15.8171 6.62965 23.1167 2.71665C24.0547 2.21346 28.2515 0.226152 29.4365 0C29.4365 0 37.4174 2.04781 41.8246 2.19028C44.7556 2.19028 48.5548 1.15647 50.7592 0.556634C51.7455 0.288236 52.4126 0.106729 52.5396 0.143607C64.7258 3.66875 71.2531 11.9538 73.3846 14.4647ZM64.8564 34.3078C63.9009 34.4967 61.0808 34.7036 60.9152 34.6968C60.9078 34.6962 58.2805 28.8717 57.956 25.7666C57.6314 22.661 59.1568 18.5761 59.1568 18.5761C59.1568 18.5761 71.399 21.1667 71.5144 27.8404C71.5828 31.8094 68.0995 33.6678 64.8564 34.3078ZM17.1412 34.8969C12.9659 34.8969 9.9145 32.3431 10.3549 30.1495C10.3549 24.4284 22.2279 19.0047 22.2279 19.0047C22.2279 19.0047 24.4165 21.4466 24.4165 25.4947C24.4165 29.5428 21.5008 34.6968 21.5008 34.6968C21.5008 34.6968 18.6677 34.8969 17.1412 34.8969Z" transform="translate(50.23828 77.35597)" id="Fill-6" fill="#FFD397" fill-rule="evenodd" stroke="none"/>
    <path d="M0 9.70608C0 9.70608 0.852593 9.24191 0.78079 8.96883C0.709552 8.69575 0.84807 6.29571 0.974715 5.60878C1.10136 4.92184 2.67086 0.325866 2.94676 0.0454377C3.22267 -0.234991 3.38719 0.874285 3.38719 0.874285C3.38719 0.874285 3.39624 8.98918 3.38719 9.47484C3.38267 9.70947 3.25546 9.92997 3.05871 10.1296C2.66633 10.5281 0.776832 11.3587 0.710683 11.3587L0 9.70608" transform="translate(87.88281 99.50566)" id="Fill-7" fill="#E09F92" stroke="none"/>
    <path d="M2.96554 11.0292C2.96554 11.0292 1.0783 10.3157 0.998584 10.3083C0.364793 10.2529 0.180479 9.41841 0.145426 9.25445C0.0628802 8.87338 0.0091691 1.58676 0.0091691 1.58676C0.0091691 1.58676 -0.0671572 -0.150083 0.220621 0.0104845C0.508399 0.170487 2.3702 4.67091 2.40186 5.05254C2.82363 6.77695 2.47988 8.2933 2.56977 8.50306C2.66024 8.71225 3.55919 9.83735 3.55919 9.83735L2.96554 11.0292" transform="translate(91.42578 99.5033)" id="Fill-8" fill="#E09F92" stroke="none"/>
    <path d="M3.25094 10.4428C2.5657 10.2703 1.46321 9.94807 0.933446 9.46976C0.696552 9.25548 0.525807 8.99314 0.442696 8.69066C0.345451 8.33787 0.35902 7.96302 0.356758 7.60174C0.348277 6.01076 0.340362 4.41979 0.331881 2.82881C0.326793 1.93155 0.32227 1.03486 0.317747 0.138164C0.316616 -0.0585883 -0.00112775 -0.0388 3.0109e-06 0.156821C0.00848372 1.78851 0.0169644 3.41963 0.0254451 5.05131C0.0299682 5.87225 0.0344912 6.69318 0.0384489 7.51354C0.0407104 7.89404 0.0310989 8.27737 0.108556 8.65222C0.179229 8.9954 0.342624 9.30071 0.585172 9.56191C1.15451 10.1759 2.4187 10.5378 3.21815 10.739C3.41603 10.7888 3.44882 10.4925 3.25094 10.4428" transform="translate(91.19141 99.87936)" id="Fill-9" fill="#313445" stroke="none"/>
    <path d="M19.5192 1.66265C19.2772 1.14929 19.0352 0.635924 18.7932 0.121994C18.778 0.089767 18.7542 0.0626288 18.726 0.0439712C18.6949 0.0134407 18.6519 -0.00578222 18.6072 0.00156772C16.5215 0.337969 14.4358 0.674935 12.3507 1.01134C10.2752 1.34661 8.20027 1.68131 6.12476 2.01658C4.97534 2.20203 3.82593 2.38747 2.67651 2.57292L2.47863 2.93985C4.56431 2.60288 6.82583 2.21107 8.91152 1.87411L15.1369 0.869426L18.5394 0.319877C18.7503 0.768223 18.9617 1.216 19.1726 1.66435C18.108 2.42592 17.0066 3.14056 15.8725 3.80375C14.7055 4.48616 13.5052 5.11486 12.2767 5.68816C11.0554 6.25806 9.80482 6.77143 8.53271 7.22825C7.25269 7.68791 5.95006 8.08933 4.63103 8.43082C3.31369 8.77174 0.0910262 9.53557 0.0910262 9.53557L0 9.78038C1.35861 9.57628 2.86874 9.18164 4.20077 8.85429C5.53507 8.52637 6.85354 8.13682 8.14939 7.68791C9.43958 7.24126 10.7083 6.73581 11.9493 6.17439C13.1926 5.61127 14.4087 4.99444 15.5909 4.32164C16.7709 3.65053 17.9175 2.92515 19.0245 2.14888C19.163 2.05164 19.3009 1.95382 19.4378 1.85488C19.4496 1.8464 19.4592 1.83736 19.4677 1.82775C19.5164 1.78817 19.5463 1.72032 19.5192 1.66265" transform="translate(69.25781 109.109)" id="Fill-10" fill="#313445" stroke="none"/>
    <path d="M0.0103589 1.66265C0.252341 1.14929 0.493759 0.635924 0.735741 0.121994C0.751007 0.089767 0.774752 0.0626288 0.803587 0.0439712C0.834683 0.0134407 0.877086 -0.00578222 0.921751 0.00156772C3.00744 0.337969 5.09312 0.674936 7.17881 1.01134C9.25375 1.34661 11.3293 1.68131 13.4042 2.01658C14.5536 2.20203 15.7358 2.39256 16.8853 2.57801L17.0515 2.94889C14.9664 2.61193 12.7037 2.21107 10.618 1.87411L4.39262 0.869426L0.990162 0.319877C0.77871 0.768223 0.567823 1.21657 0.356371 1.66435C1.42155 2.42592 2.52291 3.14056 3.65706 3.80375C4.82344 4.48616 6.02374 5.11487 7.25287 5.68816C8.4741 6.25806 9.72472 6.77143 10.9968 7.22826C12.2763 7.68791 13.5789 8.08933 14.8985 8.43082C16.2153 8.77174 19.4391 9.54462 19.4391 9.54462L19.529 9.78943C18.1709 9.58533 16.6602 9.18165 15.3288 8.85429C13.9939 8.52637 12.676 8.13682 11.3801 7.68848C10.0894 7.24126 8.82067 6.73581 7.58023 6.17439C6.33696 5.61127 5.12083 4.99444 3.93805 4.32164C2.75811 3.65053 1.61151 2.92515 0.504501 2.14888C0.365983 2.05164 0.228595 1.95383 0.0912082 1.85488C0.0793352 1.8464 0.0697237 1.83736 0.061243 1.82775C0.0126204 1.78817 -0.0167794 1.72032 0.0103589 1.66265" transform="translate(94.10156 109.1039)" id="Fill-11" fill="#313445" stroke="none"/>
    <path d="M39.9514 0.000370563C37.3326 0.159808 34.716 0.354863 32.1034 0.586669C29.4902 0.818475 26.8809 1.08703 24.2762 1.39177C21.684 1.69481 19.0968 2.03347 16.5153 2.40832C13.9207 2.78543 11.3319 3.19816 8.74977 3.64707C6.18012 4.09372 3.61669 4.57542 1.06173 5.09274C0.743991 5.1572 0.426247 5.22222 0.109069 5.28723C-0.0916407 5.32907 0.0101277 5.61798 0.208576 5.57727C2.77314 5.04864 5.34618 4.55563 7.92601 4.09937C10.4934 3.64481 13.0681 3.22586 15.6485 2.8431C18.2289 2.45977 20.815 2.11263 23.4061 1.80167C25.9967 1.49015 28.5924 1.21481 31.1914 0.97565C33.7905 0.735929 36.3935 0.532958 38.9987 0.365606C39.3227 0.344687 39.6467 0.324898 39.9712 0.30511C40.1759 0.292672 40.1561 -0.0120678 39.9514 0.000370563" transform="translate(86.30859 139.5717)" id="Fill-12" fill="#313445" stroke="none"/>
    <path d="M14.528 4.80286C12.8709 3.72298 13.2384 0.820323 13.2384 0.820323C13.2384 0.820323 12.9913 0.0972017 11.7429 0.00730631C10.4952 -0.0820237 9.86532 0.677281 9.86532 0.677281C9.86532 0.677281 10.2322 3.57994 8.57512 4.65982C6.41311 6.0891 0 7.17463 0 7.17463C0 7.17463 1.71989 9.75898 6.44759 10.8174C7.59023 11.0735 11.1222 11.4048 11.8063 11.4048C19.8058 11.4048 23.1031 7.31823 23.1031 7.31823C23.1031 7.31823 16.69 6.2327 14.528 4.80286" transform="translate(79.67578 70.18135)" id="Fill-13" fill="#E09F92" stroke="none"/>
    <path d="M11.493 0C10.0236 0.493011 8.50331 1.0109 7.03446 1.50391C5.55542 2.00031 4.07695 2.49672 2.59792 2.99312C1.7589 3.27468 0.919308 3.55624 0.080284 3.8378C0.0440996 3.85024 0.0180922 3.87059 0 3.8949L0.496969 4.02098C1.8765 3.55793 3.25602 3.09489 4.63555 2.63184C6.11402 2.13544 7.59305 1.63904 9.07152 1.14263C9.89415 0.866727 11.54 0.314351 11.54 0.314351L11.493 0" transform="translate(95.4375 152.517)" id="Fill-14" fill="#313445" stroke="none"/>
    <path d="M56.7614 6.82215C49.3899 5.93337 42.0191 5.04459 34.6477 4.15638C27.3141 3.27213 19.98 2.38787 12.6465 1.50362C8.49319 1.00326 4.3399 0.502331 0.186622 0.00140421C-0.0152186 -0.0229071 -0.0791065 0.276179 0.124996 0.301056C7.49585 1.18927 14.8673 2.07804 22.2381 2.96682C29.5722 3.85108 36.9058 4.73477 44.2393 5.61902C48.3926 6.11995 52.767 6.6514 56.9202 7.15177C57.1221 7.17608 56.9649 6.84646 56.7614 6.82215" transform="translate(49.35156 143.2146)" id="Fill-15" fill="#313445" stroke="none"/>
    <path d="M0 2.24976C0 2.24976 0.347143 2.18304 1.39253 1.76014C2.27452 1.34289 1.91438 0.148807 3.15256 0.0153773C4.39074 -0.118052 4.61746 1.21116 6.33452 1.24225C8.19858 1.18797 8.626 -0.109572 9.9586 0.00746203C11.2912 0.125061 11.5354 0.76394 11.5354 0.76394C11.5354 0.76394 12.9755 0.932423 13.1343 1.59222C13.1592 2.88638 12.1743 2.32326 11.1843 2.11463C10.1751 2.00269 8.85781 3.09896 7.39178 3.72031C5.92631 4.34223 3.59695 4.31622 2.67368 4.46209C1.74985 4.60852 0.878035 5.04669 0.878035 5.04669L0 2.24976" transform="translate(106.0977 147.7858)" id="Fill-16" fill="#E09F92" stroke="none"/>
    <path d="M1.15075 4.35877C1.54143 4.04781 1.60701 2.97868 2.62752 2.39238C3.64747 1.80665 4.62388 2.7774 5.68114 2.18602C6.73784 1.59463 6.66886 0.964795 8.1315 0.288601C9.59357 -0.387028 9.79598 0.307259 9.96446 0.518711C10.1329 0.730163 10.0668 1.90163 10.4405 2.63267C10.4433 3.21444 7.70011 5.33348 6.59932 5.02874C5.49796 4.72457 3.74132 4.97843 3.74132 4.97843C3.74132 4.97843 2.39685 5.05079 1.89422 5.33066C1.39217 5.61052 1.30284 6.18212 1.05068 6.25958C0.798518 6.3376 -0.236128 6.17986 0.0493892 5.31935C0.328687 4.5493 0.759507 4.67029 1.15075 4.35877" transform="translate(76.01172 142.2195)" id="Fill-17" fill="#E09F92" stroke="none"/>
    <path d="M0 5.31746C0 5.31746 4.02381 3.41591 6.90272 0C7.24365 0.652957 10.8061 4.70125 10.8061 4.70125C10.8061 4.70125 10.2023 12.3259 5.64815 12.3259C1.09401 12.3259 0 5.31746 0 5.31746" transform="translate(85.60938 60.54999)" id="Fill-18" fill="#E09F92" stroke="none"/>
    <path d="M2.09857 0.14818C2.08783 0.0703837 2.02394 0.00683503 1.938 0.0118669C1.86055 0.0164465 1.78478 0.0877974 1.79553 0.166046C1.85659 0.605572 1.5134 0.998172 1.04753 0.999812C0.594092 1.00139 0.242991 0.597205 0.310271 0.170399C0.339106 -0.0141406 0.0411499 -0.0719789 0.0117501 0.113975C-0.0583572 0.559494 0.189845 1.0352 0.633669 1.20996C1.08484 1.38789 1.62931 1.25847 1.90917 0.867343C2.05956 0.657644 2.13419 0.402262 2.09857 0.14818" transform="translate(87.61328 64.98767)" id="Fill-19" fill="#313445" stroke="none"/>
    <path d="M2.09857 0.14818C2.08783 0.0703837 2.02337 0.00683503 1.93744 0.0118669C1.85998 0.0164465 1.78422 0.0877974 1.79496 0.166046C1.85659 0.605572 1.5134 0.998172 1.04696 0.999812C0.593527 1.00139 0.242426 0.597205 0.309706 0.170399C0.33854 -0.0141406 0.0411506 -0.0719789 0.0117509 0.113975C-0.0583563 0.559494 0.189846 1.0352 0.633103 1.20996C1.08428 1.38789 1.62874 1.25847 1.90917 0.867343C2.05899 0.657644 2.13362 0.402262 2.09857 0.14818" transform="translate(92.44141 64.98767)" id="Fill-20" fill="#313445" stroke="none"/>
    <path d="M2.19037 0.0785022C2.07503 0.375328 1.81891 0.602046 1.50456 0.698161C1.20152 0.790883 0.865118 0.725299 0.609567 0.547769C0.461437 0.445435 0.340446 0.310309 0.26525 0.14974C0.194012 -0.00246052 -0.0587123 0.0920713 0.0125255 0.244724C0.181009 0.603742 0.516279 0.864383 0.912045 0.962759C1.30442 1.06057 1.73128 0.955409 2.04167 0.708903C2.21864 0.568123 2.35942 0.387201 2.44027 0.179706C2.50076 0.0237167 2.25143 -0.0787305 2.19037 0.0785022" transform="translate(90.08203 69.96146)" id="Fill-21" fill="#313445" stroke="none"/>
    <path d="M1.39288 2.41498C1.02991 2.42657 0.659017 2.43459 0.296043 2.44624C0.347492 2.22043 0.635836 0.410989 0.668063 0.127903C0.675978 0.0580789 0.603609 -0.00105981 0.536895 1.44087e-05C0.456045 0.00131478 0.41138 0.062093 0.40403 0.132087C0.357669 0.543287 0.0173109 2.48344 0.00317641 2.54586C-0.0166119 2.62959 0.059149 2.70343 0.144521 2.70066C0.566294 2.68715 0.988067 2.67364 1.40984 2.66007C1.58454 2.65447 1.56702 2.40938 1.39288 2.41498" transform="translate(90.46094 66.27603)" id="Fill-22" fill="#313445" stroke="none"/>
    <path d="M19.3925 8.06972L19.3999 8.05723C19.3999 8.05723 19.6407 0 11.7497 0C3.85815 0 3.74621 8.05723 3.74621 8.05723C3.74621 8.05723 0 9.34816 0 11.7719C0 14.1956 2.57248 15.4158 2.57248 15.4158C2.57248 15.4158 5.04545 16.5259 4.84305 15.0885C4.64064 13.6514 4.66665 9.82212 4.66665 9.82212C4.66665 9.82212 5.47514 1.92393 11.7316 1.92393C17.9876 1.92393 18.3138 9.83292 18.3138 9.83292C18.3138 9.83292 18.4631 13.6514 18.2601 15.0885C18.0577 16.5259 20.5312 15.4158 20.5312 15.4158C20.5312 15.4158 23.1031 14.1956 23.1031 11.7719C23.1031 9.48493 19.7685 8.20672 19.3925 8.06972" transform="translate(79.46094 53.56099)" id="Fill-23" fill="#F1BE77" stroke="none"/>
    <path d="M0 9.45485C0 4.233 4.233 0 9.45485 0C14.6761 0 18.9091 4.233 18.9091 9.45485C18.9091 14.6767 14.6761 18.9097 9.45485 18.9097C4.233 18.9097 0 14.6767 0 9.45485ZM2.53403 9.45485C2.53403 13.2768 5.63232 16.3751 9.45485 16.3751C13.2768 16.3751 16.3751 13.2768 16.3751 9.45485C16.3751 5.63288 13.2768 2.5346 9.45485 2.5346C5.63232 2.5346 2.53403 5.63288 2.53403 9.45485Z" transform="translate(137.4922 106.0337)" id="Fill-28" fill="#F1BE77" fill-rule="evenodd" stroke="none"/>
    <path d="M0 7.59351C0 3.39974 3.39969 0 7.59345 0C11.7873 0 15.187 3.39974 15.187 7.59351C15.187 11.7875 11.7873 15.1871 7.59345 15.1871C3.39969 15.1871 0 11.7875 0 7.59351ZM2.18158 7.59351C2.18158 10.5821 4.60457 13.0053 7.59345 13.0053C10.5824 13.0053 13.0054 10.5821 13.0054 7.59351C13.0054 4.60462 10.5824 2.18163 7.59345 2.18163C4.60457 2.18163 2.18158 4.60462 2.18158 7.59351Z" transform="translate(129.9102 32.97057)" id="Fill-29" fill="#7C7CB6" fill-rule="evenodd" stroke="none"/>
    <path d="M0 13.4182C0 6.00773 6.00739 0 13.4179 0C20.8285 0 26.8356 6.00773 26.8356 13.4182C26.8356 20.8286 20.8285 26.8363 13.4179 26.8363C6.00739 26.8363 0 20.8286 0 13.4182ZM2.96971 13.4182C2.96971 19.1884 7.6475 23.8664 13.4179 23.8664C19.1883 23.8664 23.8663 19.1884 23.8663 13.4182C23.8663 7.6479 19.1883 2.96994 13.4179 2.96994C7.6475 2.96994 2.96971 7.6479 2.96971 13.4182Z" transform="translate(13.13281 97.44618)" id="Fill-30" fill="#E78866" fill-rule="evenodd" stroke="none"/>
    <path d="M0 11.0347C0 4.9404 4.94029 0 11.0345 0C17.1288 0 22.0696 4.9404 22.0696 11.0347C22.0696 17.129 17.1288 22.0694 11.0345 22.0694C4.94029 22.0694 0 17.129 0 11.0347ZM2.57361 11.0347C2.57361 15.7074 6.36166 19.4955 11.0345 19.4955C15.7074 19.4955 19.4954 15.7074 19.4954 11.0347C19.4954 6.36194 15.7074 2.57389 11.0345 2.57389C6.36166 2.57389 2.57361 6.36194 2.57361 11.0347Z" transform="translate(32.32813 0)" id="Fill-31" fill="#F1BE77" fill-rule="evenodd" stroke="none"/>
    <path d="M13.4197 6.70993C13.4197 10.4154 10.4155 13.4199 6.70982 13.4199C3.00409 13.4199 0 10.4154 0 6.70993C0 3.00386 3.00409 0 6.70982 0C10.4155 0 13.4197 3.00386 13.4197 6.70993" transform="translate(22.04688 102.2197)" id="Fill-32" fill="#F1BE77" stroke="none"/>
    <path d="M12.6747 6.33746C12.6747 9.8375 9.83761 12.6749 6.33735 12.6749C2.83764 12.6749 0 9.8375 0 6.33746C0 2.83736 2.83764 0 6.33735 0C9.83761 0 12.6747 2.83736 12.6747 6.33746" transform="translate(37.02734 4.697233)" id="Fill-33" fill="#F1BE77" stroke="none"/>
    <path d="M9.95804 4.97919C9.95804 7.72908 7.72874 9.95832 4.97874 9.95832C2.22873 9.95832 0 7.72908 0 4.97919C0 2.22929 2.22873 0 4.97874 0C7.72874 0 9.95804 2.22929 9.95804 4.97919" transform="translate(34.98828 9.980824)" id="Fill-34" fill="#7C7CB6" stroke="none"/>
    <path d="M9.61203 4.80573C9.61203 7.46019 7.46019 9.61202 4.80573 9.61202C2.15184 9.61202 0 7.46019 0 4.80573C0 2.15184 2.15184 0 4.80573 0C7.46019 0 9.61203 2.15184 9.61203 4.80573" transform="translate(143.8594 111.4399)" id="Fill-35" fill="#E78866" stroke="none"/>
  </g>
</svg>