<svg width="76px" height="148px" viewBox="0 0 76 148" version="1.1" xmlns:xlink="http://www.w3.org/1999/xlink" xmlns="http://www.w3.org/2000/svg">
  <desc>Created with Lunacy</desc>
  <g id="Group">
    <path d="M8.99257 72.3966C7.13007 72.3966 4.72197 71.8056 2.88739 71.0727C1.77176 70.626 0.867847 70.3386 0 70.1094C0.18148 70.1246 0.360633 70.1327 0.53746 70.1327C2.18241 70.1327 3.35738 70.8365 4.76734 71.0727C6.1773 71.3077 7.58842 71.5427 8.76339 71.5427C9.48582 71.5427 10.2094 71.8987 10.7678 71.8987C11.118 71.8987 11.403 71.7591 11.5833 71.3077C12.0533 70.1327 11.8183 69.1916 11.3483 68.0178C10.8783 66.8416 9.70336 67.5466 9.70336 65.9017C9.70336 64.2556 8.76339 49.6848 8.76339 47.0987C8.76339 45.3456 8.87042 42.4047 8.64706 39.5208C8.9123 39.6929 9.12402 39.9012 9.15427 40.3619C9.19266 40.9307 9.21244 41.0773 9.22291 41.0773C9.23338 41.0773 9.23338 40.9109 9.23338 40.9109L9.93836 41.8498C9.93836 41.8498 10.8004 42.7118 10.8783 43.6518C10.8876 43.7646 10.9086 43.8146 10.94 43.8146C11.1715 43.8146 11.9335 41.0284 12.2103 39.5789C12.5244 37.9328 13.3062 36.054 13.5412 34.7197C13.5726 34.5429 13.6785 34.0438 13.839 33.3016C14.4323 32.6152 15.5421 31.4565 16.7113 30.2792C15.9574 33.632 15.3013 36.6764 15.2653 36.994C15.2292 37.3279 15.3153 37.5035 15.4409 37.5035C15.5805 37.5035 15.769 37.2883 15.8923 36.8358C16.1273 35.9749 17.2243 31.9009 17.5373 30.648C17.628 30.2827 17.806 29.6801 18.0154 28.9845C19.0403 27.9817 19.9803 27.0964 20.5142 26.6508C21.9242 25.4758 28.0352 19.3648 30.3851 17.0149C32.7362 14.665 40.0222 7.61402 43.5471 4.5591C47.0731 1.50303 49.6592 0.56189 51.538 0.326897C52.5664 0.19893 53.1736 0 53.7809 0C54.2846 0 54.7883 0.13611 55.534 0.56189C56.1192 0.89693 56.1995 0.96324 56.1646 0.96324C56.1529 0.96324 56.1285 0.95626 56.1064 0.94928C56.0843 0.9423 56.0645 0.934157 56.0599 0.934157C56.0436 0.934157 56.2192 1.02257 57.179 1.50303C59.5301 2.67799 59.7651 3.38297 60.7051 3.38297C61.645 3.38297 61.645 3.38297 61.645 3.38297C61.645 3.38297 63.2912 4.5591 64.2311 5.02793C65.1699 5.49791 66.3449 6.90904 64.2311 7.61402C62.115 8.31783 55.769 12.0801 47.3081 20.306C38.8472 28.5308 28.9763 38.639 22.8653 48.5087C16.7543 58.3807 14.4044 63.7867 13.6983 66.6067C12.9933 69.4277 12.2883 71.7765 10.4083 72.2465C9.99652 72.35 9.51607 72.3966 8.99257 72.3966" transform="translate(10.50977 75.06409)" id="Fill-247" fill="#F5C055" stroke="none"/>
    <path d="M10.5096 64.6115C8.99606 64.4859 7.2941 63.8786 5.40601 63.4587C3.29107 62.9887 3.76106 60.8737 3.5249 59.4638C3.29107 58.0538 3.5249 57.1138 3.5249 55.2327C3.5249 53.3528 2.58493 42.3069 2.11494 38.5459C1.64495 34.7848 0.70498 19.7429 0.469987 15.748C0.234993 11.752 0 3.52606 0 1.88111C0 0.236157 0.469987 0 1.87995 0C3.29107 0 5.40601 0.939973 8.93091 1.17613C12.457 1.41112 14.1019 1.88111 15.9819 2.81992C17.863 3.76106 17.3918 5.40601 16.9218 6.81713C16.9218 6.81713 17.1568 12.222 17.1568 14.1008C17.1568 14.9802 17.2592 17.7071 17.4651 20.7457C17.3988 21.104 17.3476 21.3995 17.3139 21.624C16.766 25.306 17.7048 28.283 17.7048 29.38C17.7048 30.477 17.7048 31.182 18.0189 32.6699C18.1585 33.3295 18.4819 33.6052 18.8053 33.8088C18.3062 34.33 17.8897 34.7569 17.6268 35.0198C16.4519 36.1959 13.8669 39.9558 12.692 42.0708C11.5158 44.1869 7.99094 49.8267 7.28596 52.1778C6.58098 54.5289 5.40601 56.8788 4.46604 58.9926C3.5249 61.1087 3.76106 62.7548 5.40601 63.4587C5.40601 63.4587 5.40601 63.4587 7.52095 63.9298C8.63193 64.1753 9.54864 64.3579 10.5096 64.6115" transform="translate(0 80.56198)" id="Fill-248" fill="#F5C055" stroke="none"/>
    <path d="M17.3616 32.5919C16.8032 32.5919 16.0796 32.236 15.3572 32.236C14.1822 32.236 12.7711 32.001 11.3611 31.766C9.95119 31.5298 8.77622 30.826 7.13127 30.826C6.95444 30.826 6.77529 30.8179 6.59381 30.8027C5.63289 30.5491 4.71619 30.3665 3.6052 30.121C1.49026 29.6499 1.49026 29.6499 1.49026 29.6499C-0.154691 28.9461 -0.390848 27.2999 0.550289 25.1838C1.49026 23.0701 2.66523 20.7201 3.37021 18.369C4.07519 16.0179 7.60009 10.3781 8.77622 8.26199C9.95119 6.14705 12.5361 2.38716 13.7111 1.21103C13.974 0.948117 14.3905 0.521173 14.8895 0C15.0105 0.0756167 15.1303 0.141927 15.2409 0.214053C15.4642 3.09796 15.3572 6.03886 15.3572 7.79201C15.3572 10.3781 16.2972 24.9488 16.2972 26.595C16.2972 28.2399 17.4721 27.5349 17.9421 28.7111C18.4121 29.8849 18.6471 30.826 18.1771 32.001C17.9968 32.4524 17.7118 32.5919 17.3616 32.5919" transform="translate(3.916016 114.3708)" id="Fill-249" fill="#F0AF32" stroke="none"/>
    <path d="M1.64728 114.051C1.53676 112.864 1.36575 111.7 1.10284 110.646C0.601443 108.643 0.23383 104.772 0 101.308C1.02024 95.7993 5.73407 75.4201 8.30969 67.4012C11.0517 58.8612 15.8306 42.8805 20.7655 33.7146C25.7015 24.5475 34.1811 10.6561 34.1811 10.6561C35.8283 8.30155 39.9442 2.65705 40.4154 1.94975C40.8865 1.24477 41.004 0.30363 42.0626 0.186133C42.7048 0.114007 43.5226 0 44.1706 0C44.5882 0 44.9349 0.0476967 45.1199 0.186133C45.591 0.538623 47.5896 2.1859 48.0608 2.77339C48.5319 3.36203 53.354 7.12658 54.0601 7.71406C54.7662 8.30155 56.6474 10.7725 56.0599 11.8299C55.4712 12.8909 48.7658 20.064 48.0608 21.2401C47.3558 22.4186 42.8851 28.8867 42.1801 30.0629C41.4752 31.2402 38.4156 36.2983 37.357 38.0619C36.2983 39.8256 33.9449 44.6487 33.3574 45.9435C33.2236 46.2378 33.148 46.3658 33.1201 46.3658C33.0247 46.3658 33.4796 44.8988 34.0857 43.5063C34.8686 41.7032 36.5135 38.0224 37.2185 37.1604C37.9235 36.2983 40.2746 32.4582 40.5875 31.8323C40.9005 31.2064 41.8416 29.5615 42.3104 28.7774C42.6594 28.1969 42.8781 27.4442 42.6815 27.4442C42.6129 27.4442 42.4931 27.5361 42.3104 27.7595C41.6054 28.6203 39.1776 32.7734 38.7076 33.4784C38.2364 34.1822 35.6503 39.3544 35.0256 40.5294C34.3986 41.7032 33.0654 44.3672 31.9696 46.7974C31.0505 48.8332 30.1315 50.4293 29.95 50.4293C29.9151 50.4293 29.9081 50.3712 29.9326 50.2444C30.0803 49.5068 31.1959 47.3174 31.0703 47.3174C31.061 47.3174 31.0482 47.3267 31.0296 47.3453C30.7167 47.6583 29.4626 49.7744 29.1485 50.4003C28.8355 51.0273 24.5277 62.6222 24.1357 63.561C23.7436 64.5022 19.1205 75.2339 18.5726 76.7242C18.0247 78.2132 15.3618 88.7891 14.6557 91.139C13.9507 93.4901 12.5407 98.5029 12.3837 99.4441C12.272 100.111 11.5705 102.354 11.0598 104.049C10.6317 104.467 10.1896 104.906 9.75571 105.343C10.6724 101.261 11.7334 96.7207 11.9916 96.075C12.4616 94.9001 14.2636 85.811 14.5777 84.7942C14.8918 83.7751 21.5496 61.0564 22.0987 59.4882C22.6478 57.9212 24.0577 53.8472 25.0756 51.1052C25.9633 48.7157 27.3872 44.7174 27.1673 44.7174C27.1347 44.7174 27.0661 44.8035 26.9556 44.9942C26.0936 46.4833 25.0745 49.2265 23.9786 51.6543C23.0887 53.625 22.4046 54.9268 22.2627 54.9268C22.2301 54.9268 22.2255 54.857 22.2557 54.7092C22.3058 54.4591 22.2836 54.337 22.2057 54.337C22.0382 54.337 21.6136 54.8954 21.0796 55.9633C20.2967 57.5303 13.5586 80.2502 12.3837 84.636C11.3658 88.4389 7.93393 103.54 6.88344 108.366C6.83342 108.424 6.78572 108.48 6.74268 108.531C5.88298 109.564 3.38414 112.234 1.64728 114.051" transform="translate(17.46484 0)" id="Fill-250" fill="#F5C055" stroke="none"/>
    <path d="M6.66241 8.00955C6.62635 8.34343 6.71243 8.51909 6.83807 8.51909C6.97767 8.51909 7.16613 8.30387 7.28945 7.85134C7.52444 6.99047 8.62146 2.91648 8.9344 1.66357C9.02514 1.29828 9.20313 0.695673 9.41253 0C8.98442 0.4188 8.54236 0.857377 8.10843 1.29479C7.35459 4.64752 6.69847 7.69196 6.66241 8.00955ZM2.27548 14.6673C2.28479 14.7801 2.30573 14.8302 2.33714 14.8302C2.56864 14.8302 3.33062 12.044 3.6075 10.5945C3.9216 8.94836 4.70336 7.06958 4.93835 5.73523C4.96976 5.55841 5.07562 5.05934 5.23616 4.31713C5.18614 4.3753 5.13844 4.43114 5.0954 4.48232C4.2357 5.51536 1.73686 8.18521 0 10.0023C0.0162867 10.1803 0.03141 10.3583 0.0442067 10.5363C0.309447 10.7085 0.521173 10.9167 0.55142 11.3774C0.58981 11.9463 0.609587 12.0928 0.620057 12.0928C0.630527 12.0928 0.630527 11.9265 0.630527 11.9265L1.33551 12.8653C1.33551 12.8653 2.19754 13.7273 2.27548 14.6673Z" transform="translate(19.1123 104.0485)" id="Fill-251" fill="#F0AF32" fill-rule="evenodd" stroke="none"/>
    <path d="M1.66308 13.0631C1.33967 12.8595 1.01626 12.5838 0.876665 11.9242C0.562565 10.4363 0.562565 9.73129 0.562565 8.63426C0.562565 7.53724 -0.376245 4.56027 0.171685 0.878317C0.205422 0.653793 0.256608 0.358307 0.322918 0C0.556748 3.46441 0.924361 7.33482 1.42576 9.33808C1.68867 10.3921 1.85968 11.5566 1.9702 12.7432C1.86433 12.8537 1.76312 12.9595 1.66308 13.0631" transform="translate(17.14258 101.3077)" id="Fill-252" fill="#F0AF32" stroke="none"/>
    <path d="M0.75733 0.848649C0.646814 0.776523 0.52699 0.710213 0.406004 0.634597C0.50605 0.53106 0.60726 0.425197 0.713124 0.314681C0.72941 0.49267 0.744534 0.67066 0.75733 0.848649" transform="translate(18.39941 113.7362)" id="Fill-253" fill="#EFAC2C" stroke="none"/>
  </g>
</svg>