<svg width="116px" height="129px" viewBox="0 0 116 129" version="1.1" xmlns:xlink="http://www.w3.org/1999/xlink" xmlns="http://www.w3.org/2000/svg">
  <desc>Created with Lunacy</desc>
  <g id="Group">
    <path d="M11.226 0.148827C9.9385 2.99506 9.16216 6.1673 8.18785 9.13448C7.21895 12.0851 6.26424 15.0405 5.32642 18.0012C3.43929 23.9613 1.36128 29.9848 0.00928158 36.0935C-0.079906 36.4958 0.499813 36.7063 0.629541 36.2982C2.53424 30.3135 4.09164 24.2109 5.97438 18.2147C6.90511 15.2516 7.85712 12.2952 8.80879 9.33921C9.76688 6.36494 11.0162 3.34979 11.6581 0.291392C11.7185 0.0038971 11.3476 -0.119749 11.226 0.148827" transform="translate(61.55469 37.09277)" id="Fill-199" fill="#436B5D" stroke="none"/>
    <path d="M26.6877 0.653335C26.6877 0.57766 26.6499 0.501986 26.5519 0.476649C25.6087 0.202329 24.5763 0.0104405 23.5483 0.00233257C23.3675 -0.00307274 23.1837 0.000981239 23.0054 0.0138189C21.8297 0.0763178 20.6909 0.390164 19.7331 1.09285C18.7619 1.80196 18.1886 2.84924 17.5619 3.85091C16.5842 5.40832 15.4943 6.15121 13.6342 6.34242C10.714 6.64343 8.07218 7.27889 5.62762 8.99238C3.33172 10.6062 1.74593 12.8646 0.249 15.1875C0.178056 15.3007 0.106435 15.4092 0.0354905 15.5223C0.00812613 15.5683 -0.00437365 15.6173 0.00136949 15.6639L0.00204516 15.6686C0.0125179 15.7524 0.0696116 15.8304 0.153394 15.8578C1.80134 16.351 2.7145 15.0338 3.95772 14.2291C5.7962 13.0416 7.95731 13.8916 9.97755 13.77C12.838 13.5947 14.5768 11.2744 16.6271 9.58696C17.2399 9.0792 17.9007 8.61266 18.6385 8.30692C19.5929 7.91706 20.5986 7.89915 21.5976 7.71233C22.981 7.45761 24.2341 6.80796 25.2344 5.80629C26.1884 4.84853 26.8958 3.58572 27.1249 2.24554C27.2188 1.71311 27.1637 0.825629 26.6877 0.653335" transform="translate(39.20313 40.40881)" id="Fill-200" fill="#436B5D" stroke="none"/>
    <path d="M23.5483 0.00233257C22.8098 1.80872 21.6929 3.57761 20.0544 4.62624C18.9325 5.34008 17.5619 5.35629 16.4328 6.01405C15.2687 6.69073 14.6562 7.91774 13.7109 8.83191C12.892 9.62142 11.8468 10.1174 10.735 10.3471C9.41067 10.618 8.04042 10.3359 6.73098 10.6521C5.20635 11.0238 3.98407 12.1052 2.89321 13.1798C2.01248 14.043 1.15439 15.1592 0.00136949 15.6639C-0.00437365 15.6173 0.00812613 15.5683 0.0354905 15.5223C0.106435 15.4092 0.178056 15.3007 0.249 15.1875C0.989866 14.3798 1.85404 13.6464 2.62903 12.8862C3.45401 12.0677 4.33913 11.2795 5.37999 10.7461C7.82184 9.50183 10.7032 10.6589 13.0045 8.89711C13.9755 8.15017 14.5521 7.01741 15.4805 6.22858C16.3018 5.53366 17.2737 5.3215 18.2706 5.00664C20.8057 4.20023 21.8915 2.14655 23.0054 0.0138189C23.1837 0.00098124 23.3675 -0.00307274 23.5483 0.00233257" transform="translate(39.20313 40.40881)" id="Fill-201" fill="#1F2844" stroke="none"/>
    <path d="M26.04 9.42779C25.0907 8.66733 23.986 8.8332 23.0654 9.39198C23.4671 7.74099 23.6485 5.64981 22.0171 4.90692C21.2219 4.54442 20.5577 4.81165 20.0648 5.33901C19.9341 2.95222 18.6114 0.465103 16.2118 0.059705C13.5879 -0.383868 12.5477 1.7188 12.2632 3.89207C11.9132 3.23093 11.3606 2.73297 10.4903 2.67757C9.54336 2.61709 9.0312 3.16371 8.76668 3.88498C8.62682 3.58464 8.43865 3.31032 8.16703 3.09208C7.56974 2.61203 6.74712 2.49615 6.12923 2.98736C5.4512 3.52586 5.30627 4.49916 5.18093 5.29847C5.02553 6.29068 4.91033 7.28357 4.80864 8.27848C2.64483 8.39807 1.35769 10.1825 0.544863 12.0541C-0.321001 14.047 -0.258502 15.8895 1.49113 17.3631C3.53603 19.0857 1.79248 23.8938 4.07622 25.2333C6.60591 26.717 11.4595 28.1021 13.4521 30.2183C13.5429 30.3149 15.4091 27.0342 15.5159 26.9454C17.6827 25.1441 19.7648 23.2468 21.7361 21.2327C23.5779 19.3506 25.5434 17.3206 26.5603 14.8459C27.2224 13.2321 27.6177 10.6936 26.04 9.42779" transform="translate(76.24609 1.516602)" id="Fill-202" fill="#DB4458" stroke="none"/>
    <path d="M115.683 15.3294C115.686 15.3685 115.696 15.403 115.696 15.4425C115.747 15.756 115.767 16.082 115.76 16.4206C115.764 16.4422 115.767 16.4597 115.764 16.4776C115.733 17.9776 115.25 19.6327 114.737 21.1272C114.527 21.7441 114.308 22.3357 114.119 22.8745C113.119 25.7086 111.879 28.471 110.602 31.1892C108.281 36.157 105.889 41.6441 101.68 45.317C99.3868 47.3149 96.8264 49.0224 94.3791 50.8179C91.7812 52.7209 89.1836 54.624 86.5897 56.5266L81.7037 60.112C88.9576 60.6289 92.9197 58.3458 98.7469 54.0871C101.967 51.7324 104.406 50.4088 107.186 47.5548C110.517 44.1343 115.301 42.6623 115.426 44.8974L115.429 44.9022C115.524 46.7015 114.196 47.7433 113.112 48.9676C113.098 48.9781 113.092 48.9923 113.078 49.0028C111.686 50.5902 110.21 52.1074 108.713 53.6017C105.639 56.6658 97.8513 63.4887 94.7321 65.3065C91.2815 67.3122 87.5458 68.6791 83.7276 69.8122C79.7642 70.9902 75.7646 72.0216 71.8116 73.2473C67.8282 74.4807 63.8715 75.8178 59.9334 77.1969C56.0504 78.5556 52.17 79.9363 48.309 81.3633C44.5499 82.7552 40.8388 84.3501 37.7267 86.9305C34.6342 89.4909 32.1008 92.6824 29.4792 95.703C27.4279 98.0702 25.3725 100.438 23.3168 102.806C20.6436 101.179 17.9173 99.5198 15.1646 97.8279C9.74578 94.4956 5.42727 92.4277 0 89.1011C3.56683 84.9447 18.3287 69.5051 21.5206 64.9474C24.1705 61.164 24.9361 54.2253 27.432 50.3456C28.6245 48.495 29.9417 46.7177 31.4995 45.1586C32.5964 44.066 42.6459 35.604 50.088 29.0778C50.1839 28.9903 50.2799 28.9068 50.3755 28.8197C53.8943 25.7305 56.7831 23.1069 57.7895 21.9634C58.2794 21.409 58.7682 20.8502 59.2625 20.2952C60.3169 19.11 61.377 17.9378 62.4614 16.78C62.6726 16.5537 62.9013 16.2895 63.1438 16.0283C63.9496 15.1631 64.9306 14.3469 66.0306 15.2567C67.3444 16.3479 67.34 18.5019 67.1107 20.0316C66.7698 22.2992 62.9462 29.0362 56.8723 36.5229C65.583 34.4483 72.0454 30.6581 77.8524 26.5217C84.6124 21.7019 90.7562 14.9216 95.9186 8.41529C97.249 6.74268 98.4699 4.97717 99.8446 3.33903C100.47 2.59444 102.744 -1.03083 105.521 0.285025C105.957 0.492454 106.078 1.15156 106.115 1.86642C106.115 1.8975 106.119 1.93263 106.119 1.96371C106.19 3.81064 105.396 6.57005 104.781 8.25955C104.72 8.42678 104.659 8.58556 104.602 8.73015C104.524 8.93589 104.447 9.11393 104.382 9.25987C102.538 13.3774 94.8389 24.9822 93.2953 27.0768C95.8689 25.3285 101.308 17.9276 102.274 16.4074C103.153 15.0314 104.068 13.624 105.365 12.6041C106.207 11.9389 107.267 11.4855 108.193 12.2838C108.423 12.477 108.588 12.7402 108.713 13.0534C109.348 14.6827 108.703 17.6722 108.261 19.4732C108.159 19.8854 108.068 20.2387 108.007 20.4951C108.467 19.7222 108.94 18.9523 109.43 18.1935C110.267 16.8986 110.784 15.7412 111.845 14.6128C113.085 13.2892 114.879 13.5341 115.5 14.7702C115.585 14.9375 115.646 15.125 115.683 15.3294" transform="translate(0 25.95032)" id="Fill-203" fill="#FFA78A" stroke="none"/>
    <path d="M2.51313 3.75162C2.00672 3.04251 1.57768 2.27969 1.06687 1.57126C0.734109 1.11586 0.364859 0.68715 0 0.258104C0.0959443 0.170605 0.191889 0.0871606 0.287495 0C1.33883 0.982077 2.28307 2.31077 2.77867 3.56717C2.8388 3.72831 2.62698 3.9148 2.51313 3.75162" transform="translate(50.08984 54.77002)" id="Fill-204" fill="#D5564F" stroke="none"/>
    <path d="M3.45339 4.01507C2.80711 2.46847 1.51153 0.991133 0.159523 0.0185146C0.0639169 -0.0504031 -0.0533108 0.0891215 0.0264175 0.174255C0.612894 0.800258 1.21592 1.40363 1.74666 2.0803C2.2757 2.75495 2.70441 3.49413 3.20136 4.1904C3.30981 4.34242 3.51656 4.16608 3.45339 4.01507" transform="translate(51.20313 54.3924)" id="Fill-205" fill="#D5564F" stroke="none"/>
    <path d="M28.7231 0.0633135C24.7198 5.90004 21.9124 12.4992 16.775 17.5096C11.6602 22.4991 5.79813 26.777 0.0347116 30.9733C-0.0568409 31.0395 0.0509275 31.1939 0.147547 31.1357C3.27655 29.2554 6.18258 27.0598 9.02848 24.7781C11.8348 22.5288 14.672 20.2498 17.2364 17.7242C19.6421 15.3549 21.6016 12.6188 23.3819 9.76078C25.3211 6.65138 27.2974 3.48285 28.9562 0.216014C29.0339 0.0589217 28.8244 -0.0876974 28.7231 0.0633135" transform="translate(79.19141 47.15106)" id="Fill-206" fill="#D5564F" stroke="none"/>
    <path d="M20.4639 0.0114176C17.3177 2.94312 14.3633 6.07145 11.0289 8.81566C7.59385 11.6423 3.89999 13.9149 0.075734 16.1594C-0.087101 16.2551 0.0382347 16.4963 0.210529 16.4192C4.15979 14.6497 7.79993 11.9484 11.1313 9.21464C14.4897 6.45894 17.8041 3.44751 20.5342 0.0712139C20.5676 0.0296605 20.5021 -0.0237169 20.4639 0.0114176" transform="translate(73.04688 52.87958)" id="Fill-207" fill="#D5564F" stroke="none"/>
    <path d="M4.3436 0.221298C3.59361 -0.199302 2.70849 0.0233287 2.05647 0.522644C1.22541 1.16013 0.664605 2.20302 0.157856 3.09692C-0.0786263 3.51279 -0.0988962 4.38643 0.445014 4.92561C0.61393 5.09317 2.46525 6.35869 3.1747 6.62051C3.78955 4.93101 4.58346 2.1716 4.51251 0.324675C4.45846 0.286838 4.40103 0.254406 4.3436 0.221298" transform="translate(101.6055 27.58936)" id="Fill-208" fill="#D5564F" stroke="none"/>
    <path d="M3.95766 0.663702C3.93739 0.496475 3.91712 0.329586 3.88672 0.178237C3.85293 0.160332 3.81915 0.146819 3.78199 0.129251C3.75834 0.12317 3.73131 0.113373 3.70429 0.103576C2.89349 -0.189662 2.05567 0.17317 1.49487 0.772146C0.778665 1.537 0.396915 2.65522 0.0421914 3.62345C-0.123346 4.0704 0.224621 4.81059 0.62664 5.26599C0.758395 5.41396 1.88337 6.23827 3.01849 6.48624C3.53199 4.99167 4.01509 3.33663 4.0455 1.83665C4.04888 1.81875 4.0455 1.80118 4.04212 1.77956C4.03536 1.43835 4.01509 1.112 3.97793 0.801537C3.97793 0.762011 3.9678 0.727552 3.96442 0.688363C3.96104 0.67958 3.95766 0.672148 3.95766 0.663702" transform="translate(111.7188 40.59131)" id="Fill-209" fill="#D5564F" stroke="none"/>
    <path d="M2.76816 0.116224C2.05196 0.375342 1.4371 0.967562 0.886435 1.476C0.633061 1.71248 -0.100034 2.21281 0.0114507 2.63848C0.0486122 2.77159 1.10603 3.68171 1.76818 4.22933C2.85262 3.00503 4.1803 1.96315 4.0857 0.163859C3.68706 -0.0526917 3.19721 -0.0398541 2.76816 0.116224" transform="translate(111.3438 70.68866)" id="Fill-210" fill="#D5564F" stroke="none"/>
    <path d="M3.73721 0.303616C2.85884 -0.323062 1.82846 0.117133 1.39265 0.749216C0.835229 1.56542 0.466992 3.07249 0.0447015 3.96031C-0.141106 4.36098 0.287941 5.02583 0.676448 5.48326C0.95347 5.81264 2.27439 6.89472 3.28451 6.72344C3.72707 4.92245 4.37233 1.93298 3.73721 0.303616" transform="translate(104.9766 38.70013)" id="Fill-211" fill="#D5564F" stroke="none"/>
    <path d="M0.173567 0.0168047C0.0718796 -0.0494104 -0.0619018 0.0955196 0.0316776 0.183018C1.31983 1.38908 2.05934 2.66135 2.69987 4.28869C2.75528 4.42957 2.95156 4.33464 2.93399 4.20322C2.71541 2.55595 1.55124 0.914762 0.173567 0.0168047" transform="translate(87.41016 47.38306)" id="Fill-212" fill="#D5564F" stroke="none"/>
    <path d="M0.108295 0.0214669C0.0660663 -0.034951 -0.0271752 0.0309262 0.00762148 0.0913982C0.665041 1.24408 0.986657 2.49643 1.46976 3.71972C1.51671 3.83897 1.72786 3.79404 1.71975 3.66499C1.63225 2.30352 0.909969 1.08564 0.108295 0.0214669" transform="translate(88.48047 50.19354)" id="Fill-213" fill="#D5564F" stroke="none"/>
    <path d="M0.115716 0.00541888C0.0349736 -0.0259995 -0.0390117 0.0868364 0.0231495 0.147646C0.389698 0.508451 0.776516 0.840539 1.11063 1.23378C1.44509 1.62904 1.67143 2.09761 2.00251 2.49119C2.11737 2.62429 2.33696 2.50233 2.2998 2.33815C2.07683 1.35337 1.03293 0.360818 0.115716 0.00541888" transform="translate(99.08984 35.53754)" id="Fill-214" fill="#D5564F" stroke="none"/>
    <path d="M0.0849111 0.00473935C0.0342363 -0.018571 -0.0198168 0.0493332 0.00720972 0.0946026C0.250449 0.501352 0.564633 0.859454 0.804493 1.27161C1.02746 1.65572 1.17949 2.07295 1.43962 2.43409C1.51394 2.53442 1.68961 2.4628 1.68961 2.34524C1.68624 1.4412 0.888951 0.377706 0.0849111 0.00473935" transform="translate(102.7656 47.58362)" id="Fill-215" fill="#D5564F" stroke="none"/>
    <path d="M0.0803019 0.00609634C0.0161138 -0.0243085 -0.0210478 0.0665683 0.0127355 0.112176C0.333676 0.546965 0.722183 0.917567 1.02623 1.36824C1.28636 1.75032 1.46541 2.18342 1.73906 2.55301C1.85054 2.70504 2.08365 2.55707 2.04986 2.3922C1.8573 1.47634 0.921504 0.395617 0.0803019 0.00609634" transform="translate(109.0508 51.17175)" id="Fill-216" fill="#D5564F" stroke="none"/>
    <path d="M0.21519 0.0414917C0.132083 -0.0683038 -0.0560902 0.0614238 0.016206 0.180003C0.333769 0.699927 0.594913 1.24215 0.810451 1.81241C1.00302 2.3222 1.10234 2.86138 1.32463 3.359C1.38578 3.49549 1.60402 3.44211 1.60706 3.29752C1.63274 2.12929 0.894909 0.940463 0.21519 0.0414917" transform="translate(94.71484 57.94232)" id="Fill-217" fill="#D5564F" stroke="none"/>
    <path d="M0.246849 0.0456938C0.121851 -0.0820067 -0.0808485 0.0838688 0.0340144 0.225758C0.922513 1.34567 0.996836 2.64768 1.38872 3.95779C1.44277 4.13752 1.73669 4.16488 1.74682 3.9436C1.82115 2.52673 1.22656 1.05378 0.246849 0.0456938" transform="translate(100.5898 65.09576)" id="Fill-218" fill="#D5564F" stroke="none"/>
    <path d="M0.264116 0.0706135C0.199928 -0.0678975 -0.045338 0.0155469 0.00736375 0.164193C0.467829 1.46214 0.479991 2.72834 0.575259 4.08101C0.58911 4.27561 0.899916 4.38371 0.950928 4.15095C1.25329 2.77394 0.840795 1.31992 0.264116 0.0706135" transform="translate(94.45703 85.37964)" id="Fill-219" fill="#D5564F" stroke="none"/>
    <path d="M0.299503 0.0795129C0.188018 -0.0897408 -0.065356 0.0359326 0.0157238 0.225456C0.242072 0.750109 0.421123 1.28355 0.512338 1.84806C0.593418 2.34873 0.579904 2.85649 0.688011 3.35276C0.721794 3.49533 0.914359 3.49432 0.965033 3.36628C1.37719 2.31224 0.883954 0.974767 0.299503 0.0795129" transform="translate(101.8359 64.31061)" id="Fill-220" fill="#D5564F" stroke="none"/>
    <path d="M0.197194 0.0566542C0.143141 -0.0551682 -0.0156404 0.0144252 0.00125125 0.127937C0.0857094 0.668468 0.170168 1.19346 0.156654 1.74446C0.143141 2.22959 0.0282779 2.7083 0.0248995 3.19038C0.0248995 3.43126 0.328949 3.46673 0.423542 3.26403C0.859347 2.32351 0.62962 0.961706 0.197194 0.0566542" transform="translate(106.3086 77.2052)" id="Fill-221" fill="#D5564F" stroke="none"/>
    <path d="M11.0628 0.00630533C9.04696 0.835683 7.19496 2.4387 5.38384 3.64543C3.61631 4.82345 1.76465 5.9204 0.0673803 7.1974C-0.109644 7.33084 0.0967717 7.62037 0.287985 7.51429C2.24673 6.42512 4.09332 5.07886 5.95478 3.83225C7.65779 2.69173 9.72262 1.6127 11.1408 0.118128C11.1956 0.0603585 11.1358 -0.0237617 11.0628 0.00630533" transform="translate(45.70703 62.59735)" id="Fill-222" fill="#D5564F" stroke="none"/>
    <path d="M16.5781 4.68101C16.2656 4.71716 15.9909 4.83439 15.7507 4.99857C16.0615 2.72598 15.7987 0.0057553 13.1038 1.21604e-05C10.6187 -0.00539315 8.63666 1.79187 8.09106 4.05602C7.79883 3.47698 7.32654 3.05469 6.55392 3.13915C5.61745 3.24185 5.18976 3.93373 5.02287 4.74013C4.59821 3.75839 3.91816 2.88746 2.89182 2.9128C1.11347 2.95638 0.4145 5.34046 0.199301 6.7303C-0.45035 10.9198 0.424297 16.0301 3.77019 18.9291C4.04146 19.8304 5.07557 20.0703 5.9519 20.2929C7.48161 20.6814 9.08969 20.8561 10.6586 20.628C13.4514 20.222 15.82 18.498 16.7875 15.8183C17.3551 14.2474 17.7129 12.5734 18.1267 10.9566C18.4949 9.51843 18.8804 7.93704 18.4703 6.46341C18.2142 5.54451 17.6652 4.55466 16.5781 4.68101" transform="translate(64.08984 0)" id="Fill-223" fill="#DB4458" stroke="none"/>
    <path d="M14.233 8.88505C15.0769 8.17425 15.7871 7.23103 15.281 6.09422C14.9388 5.32531 14.305 5.16113 13.6439 5.27261C14.2104 4.69627 14.6584 4.02872 14.7215 3.18042C14.7928 2.21794 14.2986 1.36187 13.3783 1.03789C12.1446 0.603438 10.5334 1.05681 9.43649 1.96321C9.52703 1.55545 9.52771 1.15005 9.32602 0.76661C8.93886 0.0304746 8.02908 -0.139455 7.2818 0.103784C6.02777 0.511885 4.97474 1.92571 4.14131 2.86995C3.10924 4.03885 2.22614 5.31079 1.60994 6.74826C0.371107 9.63842 0.127868 12.8424 0.303203 15.9505C0.466038 18.8315 0.812991 21.7541 1.27075 24.6273C1.1417 24.8007 1.0265 24.979 0.923124 25.124C0.799816 25.2956 0.688669 25.4733 0.576509 25.651C0.405904 25.5915 0.165705 25.6885 0.156584 25.9287C0.151178 26.0679 0.155908 26.2064 0.167394 26.3435C0.120436 26.4283 0.0697607 26.5108 0.0241534 26.5969C-0.0646964 26.7641 0.109963 26.8942 0.249825 26.8462C0.447795 27.6685 0.954543 28.3935 1.72446 28.8313C2.63053 29.3469 3.63997 29.3813 4.20787 28.4313C4.65988 27.6753 8.42739 30.4654 10.0571 29.4354C12.6452 27.8003 17.6988 16.5799 18.0411 13.0569C18.2688 10.7158 16.3958 8.97018 14.233 8.88505" transform="translate(51.69531 0.6928101)" id="Fill-224" fill="#DB4458" stroke="none"/>
    <path d="M12.1592 11.8119C12.4832 10.5042 13.1784 8.74004 12.8808 7.37959C12.7055 6.57791 12.069 6.03806 11.2288 6.11272C10.8676 6.14447 10.5592 6.27859 10.2916 6.47251C10.5315 5.75259 10.7332 5.02051 10.8687 4.2712C10.9899 3.60195 11.1268 2.69724 10.5754 2.16245C9.718 1.33071 8.69437 1.95164 8.06702 2.80703C8.06904 1.94792 7.9133 1.04186 7.35385 0.527679C6.57008 -0.192578 5.43936 -0.103053 4.71505 0.362817C1.89854 2.1736 0.574916 5.7661 0.234719 9.02753C-0.493985 16.0061 0.253638 24.0374 5.65118 29.0708C8.21938 31.466 11.4646 33.221 14.8128 34.2774C14.8949 34.4028 15.0409 34.4349 15.1689 34.392C15.223 34.4085 15.2764 34.4281 15.3304 34.444C15.4949 34.4923 15.5939 34.2318 15.4361 34.1609C15.4216 34.1541 15.4071 34.1477 15.3926 34.1409C15.399 34.0974 15.3966 34.0497 15.3811 33.9984C15.0051 32.7525 13.8085 32.1474 12.9801 31.2201C11.873 29.9802 11.1447 28.4448 10.7068 26.8519C9.78895 23.5121 10.1937 20.0442 10.9366 16.7149C11.3034 15.0707 11.7541 13.4467 12.1592 11.8119" transform="translate(45.80859 8.834656)" id="Fill-225" fill="#DB4458" stroke="none"/>
    <path d="M29.5693 9.30716C28.3031 8.48184 26.748 10.0311 25.8487 10.7842C25.6264 10.9703 25.4197 11.1703 25.2072 11.3656C25.4967 10.896 25.7791 10.422 26.0535 9.94296C26.5842 9.01493 27.872 6.72646 26.4538 5.89472C25.3241 5.23223 23.3495 7.15415 22.5927 7.83387C21.9664 8.39636 21.4025 9.0048 20.8752 9.64195C21.1785 8.99804 21.4637 8.34366 21.716 7.67307C22.0471 6.79436 23.5643 3.69678 21.9167 3.21368C21.1167 2.97923 19.9617 3.99745 19.4232 4.42853C18.5222 5.14946 17.7509 6.01127 17.0918 6.95686C16.9296 7.18963 16.7749 7.42712 16.6256 7.66834C17.0516 5.65418 17.059 3.96908 15.8006 4.21502C15.158 4.34035 14.7939 4.97919 14.4543 5.47547C14.0918 6.00519 13.7513 6.55045 13.428 7.10551C14.3756 3.44814 14.7199 -0.032207 12.5425 0.000224901C9.71421 0.0424539 8.16525 3.25321 7.25547 5.45114C6.83555 6.46464 6.46224 7.49401 6.14434 8.53792C6.29062 6.71396 7.50581 3.95286 5.8555 3.08294C4.79876 2.52586 3.70857 5.58526 3.32513 7.18422C3.26027 5.95519 3.23797 3.51908 2.25826 3.54003C-0.37818 3.59611 -0.0531857 8.40481 0.100866 10.2798C0.358294 13.4108 1.35591 16.4121 2.60082 19.2803C2.49441 19.4597 2.56873 19.7313 2.81028 19.7482C2.91906 19.9924 3.02649 20.2381 3.13831 20.4806C3.21703 20.6516 3.49641 20.5732 3.42446 20.3887C3.34067 20.1728 3.25622 19.9566 3.17243 19.7397C5.79165 19.5766 7.8862 20.3617 10.3041 21.3549C12.1591 22.1171 14.2246 22.6113 16.2252 22.7971C18.187 22.9796 19.9444 21.9806 21.5512 20.961C23.1613 19.9394 24.6447 18.6989 25.9332 17.2928C27.2186 15.8898 28.3416 14.3081 29.2122 12.6142C29.674 11.7152 30.7618 10.0845 29.5693 9.30716" transform="translate(61.15234 12.03674)" id="Fill-226" fill="#F5C16E" stroke="none"/>
    <path d="M20.8812 5.93174C20.3782 4.15846 18.384 5.69863 17.2228 6.91753C17.5167 6.22734 17.6434 5.53715 17.3586 4.97702C16.6928 3.66759 15.0377 3.89731 13.98 4.5125C13.1381 5.00168 12.4388 5.63106 11.8212 6.33815C11.9824 5.73816 11.9712 5.18378 11.5756 4.87027C11.1635 4.54325 10.2922 4.99222 9.91654 5.20573C9.46317 5.46384 9.08615 5.79964 8.76217 6.18342C8.84189 5.95572 8.91892 5.72904 8.98851 5.50742C9.45337 4.02839 10.2605 1.15547 8.48447 0.195686C7.14192 -0.529639 5.28385 0.921011 4.51291 1.94025C3.67104 3.05341 3.10449 4.55034 2.74504 6.03613C2.71869 5.01655 2.62747 3.99799 2.46937 2.99327C2.36667 2.34227 2.30045 1.01662 1.32243 1.12405C0.293393 1.23722 0.0383295 2.88787 0.0069111 3.66286C-0.0518717 5.1206 0.268393 6.73307 0.81264 8.07663C0.878518 8.23913 1.15351 8.14014 1.10318 7.97055C0.826154 7.03408 0.604874 6.08917 0.473795 5.1206C0.401161 4.58311 0.348121 4.04021 0.389337 3.49766C0.400823 3.2105 0.447106 2.92773 0.52751 2.64936C0.638657 2.06221 1.07176 1.76627 1.82681 1.76188C2.05552 1.93079 2.06633 2.77301 2.11329 3.07266C2.22545 3.78684 2.30349 4.50642 2.3464 5.22803C2.40822 6.26349 2.3768 7.2959 2.33829 8.33169C2.32984 8.5523 2.65889 8.56683 2.6795 8.34859C2.83862 6.66044 3.41226 5.02263 4.08116 3.47232C4.44906 2.61895 4.9075 1.88924 5.65141 1.31627C5.97674 1.0656 6.41862 0.760879 6.80916 0.591287C8.0338 0.0588639 9.04392 1.02709 9.12567 2.25173C9.35641 5.71079 6.81591 8.46818 5.57742 11.4357C5.51695 11.5806 5.73587 11.732 5.84195 11.608C6.92233 10.3448 7.81184 8.64655 8.46149 6.99354C9.13412 6.21383 10.102 5.11891 10.8726 5.27533C12.1239 5.52972 10.4993 7.9915 10.2236 8.53372C10.0787 8.76108 10.4128 8.97358 10.5709 8.76074C10.7689 8.49385 11.1175 7.96886 11.4111 7.37935C11.9091 6.72057 12.5033 6.12734 13.1337 5.61755C13.808 5.07195 14.7543 4.3642 15.6762 4.42805C15.9499 4.51487 16.886 4.56081 16.8992 6.20774C16.8603 6.56078 16.487 7.05165 16.3161 7.36178C15.0972 9.57458 13.4259 11.4249 11.6726 13.2225C11.5787 13.3184 11.6908 13.5154 11.8158 13.4286C13.3499 12.361 14.58 11.0063 15.6421 9.46884C15.9107 9.07999 16.3161 8.54014 16.682 7.94589C17.2431 7.4986 17.7357 6.97125 18.2958 6.52024C18.5623 6.30301 18.8383 6.09896 19.1238 5.90809C20.236 5.32262 20.2326 5.55438 20.414 6.46652C20.4859 6.82733 19.8961 7.70299 19.7576 7.93576C18.813 9.52897 17.4279 10.8114 16.2225 12.1995C16.0759 12.3681 16.283 12.6171 16.4614 12.4634C17.6498 11.4374 18.7623 10.3067 19.6863 9.03303C20.2495 8.2567 21.1761 6.9726 20.8812 5.93174" transform="translate(63.52344 19.38135)" id="Fill-227" fill="#D69554" stroke="none"/>
    <path d="M24.3747 6.87795C24.1145 5.60635 23.2058 4.19219 21.7294 4.36685C21.3105 4.41617 20.9761 4.59016 20.7024 4.83812C20.9558 2.64695 20.6517 0.192258 18.3646 0.0125316C16.1596 -0.161114 15.1157 1.49629 14.6221 3.3422C14.4367 2.64796 14.0988 2.01486 13.4846 1.53818C12.6441 0.885827 11.5739 0.793261 10.7033 1.4473C9.42829 2.4054 8.96309 4.35266 8.58303 5.80703C8.31513 6.83235 8.11412 7.88571 8.01142 8.9465C7.69116 7.77017 7.20941 6.64688 6.59422 5.70635C5.57802 4.15232 3.44359 3.31653 2.48246 5.4371C1.96119 6.58708 2.31828 7.9955 2.5007 9.17825C2.78955 11.0492 3.11319 12.9211 3.20035 14.8153C3.3517 18.1041 -0.0428328 23.6304 0.000409702 23.9641C0.16392 25.2266 1.6068 25.4797 2.70982 25.7668C4.38952 26.2043 6.13409 26.383 7.86784 26.3026C11.137 26.1513 14.3647 25.1172 17.0643 23.256C21.9862 19.8622 25.6077 12.9549 24.3747 6.87795" transform="translate(82.15625 20.30029)" id="Fill-228" fill="#DB4458" stroke="none"/>
    <path d="M12.9093 0.0907068C10.7978 -0.371785 8.11647 0.982583 7.45736 3.05417C6.96615 1.57751 6.03441 0.198137 4.32262 0.327189C2.10441 0.494078 1.05105 2.60485 0.493965 4.49401C-0.319535 7.25173 -0.145889 9.58311 1.14632 12.1766C2.11083 14.1114 3.98309 17.0286 6.2692 17.511C6.30603 17.5184 6.33913 17.5171 6.3692 17.51C7.36581 17.7624 8.58673 17.4576 9.50597 17.2056C10.9745 16.8033 12.3718 16.0908 13.5515 15.1279C16.0153 13.1172 17.3251 10.0297 17.0987 6.8585C16.9248 4.42036 15.6464 0.690359 12.9093 0.0907068" transform="translate(55.03906 25.78149)" id="Fill-229" fill="#DB4458" stroke="none"/>
    <path d="M26.4844 1.8129C25.5375 0.500756 23.9868 -0.275919 22.3706 0.0909661C21.4632 0.296706 19.8926 0.946695 19.1791 1.87877C18.518 0.948384 16.62 0.753793 15.6677 0.939262C13.7981 1.30311 12.5113 2.86727 12.2931 4.68008C10.4364 3.41084 6.72358 5.04865 5.33442 6.01046C2.66791 7.85739 0.915914 11.2317 0.274708 14.4478C0.238223 14.4117 0.201061 14.3789 0.164913 14.3427C0.0801172 14.2583 -0.0391375 14.3752 0.0125508 14.4708C1.58617 17.3886 4.9976 19.1085 8.07153 19.9741C11.7992 21.0237 16.013 21.0686 19.6896 19.7994C22.9736 18.666 25.9202 16.2802 27.2016 12.988C27.8972 11.1996 28.0506 9.21952 27.9475 7.31787C27.8462 5.45709 27.6057 3.36591 26.4844 1.8129" transform="translate(61.21875 27.52173)" id="Fill-230" fill="#DB4458" stroke="none"/>
    <path d="M8.26021 2.28149C7.94974 0.766318 6.2295 -0.873181 4.78189 0.538957C4.60757 0.707198 4.44947 0.896046 4.2971 1.09706C3.68833 1.90616 3.23124 2.93182 2.69477 3.74971C2.06572 4.71253 1.25087 5.54326 0.503924 6.41859C0.341427 6.60777 0.178592 6.79696 0.0258915 6.99391C-0.100796 7.15202 0.271158 7.35371 0.413047 7.24695C0.91912 6.85946 1.2681 8.71584 2.30829 9.18442C2.95827 9.48002 6.15417 8.7628 6.86834 8.44186C8.71358 7.61485 8.5771 3.81323 8.26021 2.28149" transform="translate(58.66797 39.89581)" id="Fill-231" fill="#FFA78A" stroke="none"/>
    <path d="M3.79318 0.00560276C3.1844 0.81471 2.72732 1.84037 2.19084 2.65826C1.5618 3.62108 0.746946 4.45181 0 5.32713C0.401344 6.15144 2.22293 6.40617 3.08474 6.16462C3.67291 6.00178 4.94721 3.46162 5.26883 2.48867C5.70328 1.17754 4.9837 -0.0950712 3.79318 0.00560276" transform="translate(59.17188 40.9873)" id="Fill-232" fill="#D5564F" stroke="none"/>
    <path d="M15.2366 16.8879C15.2241 17.2021 15.1683 17.5119 15.0737 17.8125C15.0241 17.9798 14.9592 18.1439 14.8849 18.3047C14.8035 18.4855 14.4785 18.5358 14.4467 18.2841C14.0349 15.4251 10.1285 15.6751 8.19716 14.4318C5.87355 12.9302 7.21406 10.4187 6.45766 8.24175C5.89483 6.62759 4.63066 5.91071 3.14488 5.27423C2.24929 4.88978 1.44085 4.44722 0.873971 3.62865C0.464181 3.04116 0.194591 2.36516 0 1.64659C0.818905 1.64761 1.65876 1.51349 2.46009 1.26146C2.6236 1.20741 2.79151 1.14863 2.954 1.08579C3.66345 0.81654 4.33168 0.448303 4.9239 0C5.06444 0.403709 5.23302 0.803702 5.45464 1.17329C5.91003 1.93476 6.57928 2.4378 7.16575 3.07393C8.09175 4.07459 8.69782 5.31883 9.04714 6.6286C9.40761 7.98905 9.34342 9.43598 9.7674 10.7741C10.091 11.8032 10.7637 12.3717 11.7809 12.6697C12.3217 12.8288 12.864 12.9265 13.3501 13.2156C14.6288 13.9731 15.3207 15.448 15.2366 16.8879" transform="translate(77.60938 46.2533)" id="Fill-233" fill="#436B5D" stroke="none"/>
    <path d="M12.7765 15.8021C12.764 16.1163 12.7082 16.4261 12.6136 16.7267C12.3927 15.6849 11.9049 14.7048 11.0478 13.8376C10.1366 12.9157 9.07687 12.5427 7.85932 12.2319C7.1019 12.043 6.3759 11.8032 5.85395 11.1917C4.41681 9.51234 5.26376 6.9492 4.3131 5.03843C3.35535 3.10468 1.49491 1.74828 0 0.175673C0.163511 0.12162 0.331413 0.0628368 0.49391 0C1.12735 0.634786 1.73308 1.31113 2.35232 1.94321C3.22157 2.83272 4.14554 3.70568 4.71309 4.83167C5.8749 7.14244 4.56141 10.8103 7.65561 11.7414C9.68666 12.3474 11.3059 12.991 12.3913 14.9606C12.5383 15.2261 12.6687 15.5078 12.7765 15.8021" transform="translate(80.07031 47.33905)" id="Fill-234" fill="#1F2844" stroke="none"/>
    <path d="M10.3212 0.302278C7.79317 -0.850404 4.36789 1.53638 2.78684 3.37587C1.81625 4.50491 1.10241 5.9015 0.580458 7.29067C0.133845 8.4795 -0.361079 10.1747 0.380124 11.3359C0.443974 11.4355 0.63316 11.4244 0.629444 11.2815C0.592958 9.8913 0.504784 8.77814 1.0068 7.43087C1.46186 6.20927 2.06354 4.99848 2.86285 3.96336C4.53478 1.79854 7.46209 0.0499178 10.235 0.56376C10.4083 0.595854 10.485 0.376939 10.3212 0.302278" transform="translate(61.14063 31.74377)" id="Fill-235" fill="#A83346" stroke="none"/>
    <path d="M0.181993 0.00708817C0.0377383 -0.0418975 -0.0761111 0.176342 0.0634136 0.25303C2.89377 1.80098 3.94342 5.21308 3.88497 8.29816C3.82551 11.4062 2.35966 13.8643 0.449556 16.196C0.359017 16.3061 0.526919 16.4139 0.623877 16.3446C3.27147 14.4585 4.53868 10.7738 4.37753 7.62013C4.23801 4.8891 3.09275 0.99322 0.181993 0.00708817" transform="translate(85.64453 27.8421)" id="Fill-236" fill="#A83346" stroke="none"/>
    <path d="M10.8803 0.00642944C9.44858 0.115549 7.14862 0.995939 6.1662 2.38679C6.02161 1.49154 5.42095 0.834456 4.24191 0.998304C2.50377 1.23985 0.658528 2.72057 0.0109041 4.33541C-0.0509191 4.48946 0.166307 4.56919 0.256846 4.45399C1.00041 3.50671 1.68216 2.62834 2.75444 2.02261C3.28078 1.72532 3.99057 1.3537 4.60981 1.40539C5.98209 1.52025 5.85641 2.65098 5.71317 3.48576C5.68277 3.7192 6.07533 3.79623 6.12499 3.56245C6.12904 3.54387 6.13107 3.52563 6.13479 3.50671L6.13512 3.50671C6.27904 1.9993 8.59488 0.989183 9.87188 0.612162C11.3499 0.176359 13.7147 0.700336 13.0087 2.74321C12.9411 2.93814 13.2114 3.05739 13.3262 2.89591C14.4884 1.26519 12.3465 -0.105731 10.8803 0.00642944" transform="translate(89.46484 22.2915)" id="Fill-237" fill="#A83346" stroke="none"/>
    <path d="M5.8143 0.118324C5.76869 0.142986 5.78727 0.205147 5.83457 0.211566C8.18216 0.532844 5.77004 5.13445 5.20552 6.03444C5.07005 6.25099 5.35755 6.51112 5.55045 6.32903C5.64099 6.24356 5.73187 6.15808 5.82207 6.07261C7.18927 5.57904 7.20279 6.39085 7.30549 7.40029C7.38859 7.6736 7.21562 8.21548 7.1565 8.47527C7.01698 9.08979 6.78759 9.67661 6.51766 10.2445C6.05416 11.2202 5.45755 12.1205 4.8508 13.0117C4.57547 12.8455 4.29034 12.8391 4.01737 12.9573C4.47614 11.8556 4.71702 10.5577 3.70825 9.72627C2.75793 8.94283 1.84916 9.41985 1.36167 10.2698C1.19546 9.35972 0.824519 8.55061 0.201219 7.81076C0.100208 7.69049 -0.0619516 7.84893 0.0245334 7.97089C0.667428 8.8729 1.02316 9.82559 1.0931 10.9327C1.10492 11.1198 1.37992 11.2066 1.44174 10.9975C1.50795 10.7735 1.59748 10.3276 1.77822 10.184C1.77822 10.184 2.15287 9.7766 2.79205 9.77694C3.33934 9.77728 3.81974 10.4708 3.81974 10.4708C3.96433 10.7509 4.0248 11.0441 4.00149 11.3506C4.01534 12.2063 3.61096 12.9613 3.22178 13.7005C3.10522 13.9221 3.41434 14.1356 3.55353 13.9167C3.99406 13.2238 4.37682 13.1728 4.6883 13.4171C4.71364 13.4803 4.76769 13.5299 4.8329 13.5556C5.25316 14.0387 5.5143 15.0366 5.56836 15.4795C5.69775 16.5491 5.5339 17.6457 5.27782 18.6832C4.87884 20.3011 4.19676 21.8359 3.83055 23.4632C3.20826 26.2314 3.73427 29.1131 5.32174 31.4661C5.34809 31.5053 5.38187 31.5299 5.41802 31.5482C5.40721 31.5786 5.39403 31.6093 5.38559 31.6397C4.80249 33.684 4.966 36.6967 5.94639 38.592C5.96666 38.6312 6.01936 38.6065 6.01463 38.5673C5.86193 37.1694 5.50451 35.8373 5.48356 34.4191C5.47545 33.8559 5.49944 33.2884 5.56126 32.7286C5.60079 32.3722 5.58964 31.9134 5.76295 31.6026C6.00686 31.1654 7.08488 30.2712 7.45819 31.0745C7.55751 31.2884 7.87169 31.1556 7.83386 30.9374C7.70785 30.2094 7.69737 29.5084 7.89906 28.7911C7.99669 28.4418 8.13588 28.1087 8.31662 27.7922C8.5308 27.2391 8.97167 27.1945 9.63889 27.6574C9.65747 27.9672 10.147 27.9895 10.123 27.6814C10.0527 26.7908 9.19566 26.2817 8.45614 26.9111C7.5342 27.6959 7.27373 29.1354 7.35886 30.3516C6.79232 30.0188 6.06159 30.4722 5.65011 31.0857C4.46804 29.1783 3.85724 27.003 4.07683 24.7463C4.29034 22.5473 5.31566 20.5487 5.77443 18.4062C6.09808 16.8968 6.25821 14.8843 5.34741 13.5171C5.30147 13.4478 5.25451 13.387 5.20688 13.3299C6.40618 11.5641 7.67913 9.62188 7.76359 7.42293C7.81359 6.11822 7.04164 5.20236 6.05821 5.49323C6.72746 4.30406 7.25819 2.9899 7.17677 1.61627C7.13488 0.908175 6.76428 -0.399572 5.8143 0.118324" transform="translate(52.74609 1.281006)" id="Fill-238" fill="#A83346" stroke="none"/>
    <path d="M3.88465 7.60206C3.41371 6.81559 2.51745 6.38012 1.6901 6.53384C2.38535 5.66764 2.93163 4.61765 2.4492 3.5322C2.15968 2.88086 1.53503 2.52783 0.894501 2.55789C1.48436 1.90926 1.79955 1.10184 1.81847 0.167732C1.82253 -0.044089 1.49652 -0.0616562 1.48875 0.151516C1.44719 1.27616 0.960716 2.17885 0.0492451 2.83796C0.0509343 2.83964 0.0526234 2.84133 0.0539748 2.84302C-0.095347 2.98998 0.0921498 3.24403 0.288092 3.1018C1.32152 2.63728 1.97117 2.92883 2.23671 3.97577C2.30698 4.57543 2.18907 5.12846 1.88334 5.6352C1.58773 6.16628 1.1472 6.60377 0.734369 7.04227C0.569169 7.21761 0.817137 7.49767 0.98808 7.32234C2.55663 5.71628 3.94648 8.07401 3.97316 9.49358C3.99445 10.6233 3.62283 11.6408 3.21372 12.6726C3.14412 12.8479 3.40966 12.9705 3.50865 12.8145C4.41167 11.3932 4.79443 9.12197 3.88465 7.60206" transform="translate(64.84766 3.127502)" id="Fill-239" fill="#A83346" stroke="none"/>
    <path d="M3.08061 5.44044C2.87216 4.40195 1.88806 3.79081 1.03098 4.12391C1.51138 2.7013 1.57084 1.15538 0.364438 0.0472919C0.20836 -0.0959489 -0.037244 0.117561 0.116807 0.271275C1.36577 1.51652 0.994157 3.19318 0.369168 4.64417C0.264102 4.88741 0.612407 5.00227 0.75531 4.82964C1.6259 3.77865 2.70899 4.98741 2.70832 5.92692C2.70798 6.56238 2.37961 7.15257 2.03873 7.66473C1.49381 8.48329 0.796525 9.04916 0.0587003 9.67415C-0.0953511 9.80489 0.0826864 10.06 0.260386 9.96401C1.69955 9.18565 3.43736 7.21609 3.08061 5.44044" transform="translate(81.82031 5.089783)" id="Fill-240" fill="#A83346" stroke="none"/>
    <path d="M2.41256 0.0609853C2.00142 1.71467 1.18657 2.84134 0.0386164 4.06396C-0.0610441 4.1697 0.0477378 4.34943 0.188276 4.27882C1.66731 3.53457 2.57675 1.70859 2.58756 0.0934172C2.58824 -0.00320279 2.4379 -0.0420535 2.41256 0.0609853" transform="translate(76.48438 42.75348)" id="Fill-241" fill="#A83346" stroke="none"/>
    <path d="M3.13739 0.0359987C2.74956 0.605583 2.26782 1.12314 1.68134 1.49341C1.17561 1.81232 0.599941 1.92921 0.0698831 2.18799C-0.0557903 2.24914 0.00400593 2.41602 0.123261 2.43359C1.49182 2.63629 2.85835 1.29037 3.28841 0.108633C3.32151 0.0174179 3.19043 -0.0417027 3.13739 0.0359987" transform="translate(73.62891 43.85211)" id="Fill-242" fill="#A83346" stroke="none"/>
    <path d="M1.15438 0.112066C1.11216 -0.0419855 0.846957 -0.0406342 0.857092 0.137403C0.89324 0.749217 0.810471 1.31948 0.598987 1.89683C0.41149 2.40966 0.118251 2.87654 0.00305032 3.4137C-0.022625 3.53261 0.119265 3.66504 0.222979 3.55694C1.03547 2.71067 1.46553 1.25056 1.15438 0.112066" transform="translate(89.34766 9.306335)" id="Fill-243" fill="#A83346" stroke="none"/>
    <path d="M1.16224 0.0839911C1.07643 0.505268 0.919677 0.930598 0.738261 1.32113C0.539279 1.74916 0.23219 2.10862 0.0223969 2.52618C-0.0651014 2.70084 0.121044 2.8711 0.282527 2.74847C1.04771 2.16639 1.32305 1.03093 1.40548 0.129261C1.41798 -0.00789921 1.19096 -0.0555335 1.16224 0.0839911" transform="translate(92.28906 10.3844)" id="Fill-244" fill="#A83346" stroke="none"/>
    <path d="M2.11203 0.0438613C1.81136 0.487435 1.53603 0.938103 1.18536 1.34587C0.836715 1.7516 0.411722 2.07862 0.046526 2.4695C-0.0730665 2.59787 0.0576745 2.76949 0.215104 2.71138C1.2286 2.33875 2.08061 1.17188 2.2823 0.125955C2.30189 0.0256184 2.17723 -0.0524208 2.11203 0.0438613" transform="translate(94.08984 13.14679)" id="Fill-245" fill="#A83346" stroke="none"/>
    <path d="M1.79334 4.73069C1.47138 3.91685 1.04267 3.16045 0.771058 2.32465C0.52917 1.57973 0.403496 0.806771 0.191676 0.0540812C0.169379 -0.025985 0.0619484 -0.0131474 0.0504621 0.0662431C-0.181291 1.67804 0.401469 3.72192 1.46463 4.9594C1.62375 5.14454 1.87307 4.93204 1.79334 4.73069" transform="translate(49.89453 28.29846)" id="Fill-246" fill="#A83346" stroke="none"/>
    <path d="M1.53694 0.0679186C1.50518 -0.0283635 1.37208 -0.021269 1.35924 0.0827832C1.18931 1.45708 0.528172 2.55335 0.0112886 3.80468C-0.0535753 3.96177 0.177164 4.11548 0.294054 3.98846C1.10688 3.10469 1.93187 1.2679 1.53694 0.0679186" transform="translate(94.32422 26.96539)" id="Fill-247" fill="#A83346" stroke="none"/>
    <path d="M0.82702 0.121915C0.793237 -0.0537579 0.502701 -0.0351771 0.50608 0.149279C0.529728 1.09892 0.195274 1.91648 0.00541257 2.82491C-0.0388434 3.03842 0.198653 3.14956 0.340542 2.98605C0.999315 2.21242 1.00269 1.07122 0.82702 0.121915" transform="translate(99.96484 26.1665)" id="Fill-248" fill="#A83346" stroke="none"/>
  </g>
</svg>