<svg width="185px" height="41px" viewBox="0 0 185 41" version="1.1" xmlns:xlink="http://www.w3.org/1999/xlink" xmlns="http://www.w3.org/2000/svg">
  <g id="LogoSepalika5">
    <g id="Sepalika5">
      <path d="M14.3233 10.0139L7.71448 0L1.10565 10.0139C0.38225 11.11 0 12.3653 0 13.6448C0 17.5322 3.45389 20.6835 7.71448 20.6835C9.11682 20.6835 10.4926 20.3347 11.694 19.6747C15.344 17.6694 16.5211 13.3441 14.3233 10.0139ZM1.89128 10.4455L7.71444 1.62203L13.5377 10.4455C15.4742 13.3799 14.437 17.191 11.2209 18.9579C10.1624 19.5394 8.95012 19.8467 7.71448 19.8467C3.96038 19.8467 0.917073 17.07 0.917073 13.6448C0.917073 12.5174 1.25388 11.4113 1.89128 10.4455Z" transform="matrix(-1 0 0 -1 31.162945 20.709183)" id="Triangle" fill="#7D7D7D" stroke="none"/>
      <path d="M14.3222 10.0173L7.71388 0L1.10556 10.0173C0.38222 11.1138 0 12.3695 0 13.6494C0 17.5381 3.45362 20.6905 7.71388 20.6905C9.11611 20.6905 10.4918 20.3416 11.6931 19.6814C15.3428 17.6754 16.5198 13.3486 14.3222 10.0173ZM1.89114 10.4491L7.71376 1.62233L13.5366 10.4491C15.473 13.3844 14.4359 17.1968 11.22 18.9643C10.1616 19.5461 8.94942 19.8535 7.71388 19.8535C3.96007 19.8535 0.917001 17.0758 0.917001 13.6494C0.917001 12.5217 1.25378 11.4152 1.89114 10.4491Z" transform="matrix(0.83867055 -0.54463905 0.54463905 0.83867055 17.253025 23.839481)" id="Triangle-Copy" fill="#7D7D7D" stroke="none"/>
      <path d="M14.3222 10.0173L7.71387 0L1.10556 10.0173C0.382219 11.1138 0 12.3695 0 13.6494C0 17.5381 3.45362 20.6905 7.71387 20.6905C9.1161 20.6905 10.4918 20.3416 11.6931 19.6814C15.3427 17.6754 16.5198 13.3486 14.3222 10.0173ZM1.89113 10.4491L7.71387 1.62264L13.5366 10.4491C15.473 13.3844 14.4358 17.1968 11.22 18.9643C10.1616 19.5461 8.94941 19.8535 7.71387 19.8535C3.96006 19.8535 0.917001 17.0758 0.917001 13.6494C0.917001 12.5217 1.25378 11.4152 1.89113 10.4491Z" transform="matrix(-0.29237178 -0.9563047 0.9563047 -0.29237178 26.108017 27.710766)" id="Triangle-Copy-3" fill="#7D7D7D" stroke="none"/>
      <path d="M14.3222 10.0173L7.71388 0L1.10556 10.0173C0.38222 11.1138 0 12.3695 0 13.6494C0 17.5381 3.45362 20.6905 7.71388 20.6905C9.11611 20.6905 10.4918 20.3416 11.6931 19.6814C15.3428 17.6754 16.5198 13.3486 14.3222 10.0173ZM1.89114 10.4491L7.7137 1.62268L13.5366 10.4491C15.473 13.3844 14.4359 17.1968 11.22 18.9643C10.1616 19.5461 8.94942 19.8535 7.71388 19.8535C3.96007 19.8535 0.917001 17.0758 0.917001 13.6494C0.917001 12.5217 1.25378 11.4152 1.89114 10.4491Z" transform="matrix(-0.7986355 -0.6018151 -0.6018151 0.7986355 29.41756 24.305206)" id="Triangle-Copy-2" fill="#7D7D7D" stroke="none"/>
      <path d="M14.3222 10.0173L7.71388 0L1.10556 10.0173C0.382219 11.1138 0 12.3695 0 13.6494C8.14461e-16 17.5381 3.45362 20.6905 7.71388 20.6905C9.11611 20.6905 10.4918 20.3416 11.6931 19.6814C15.3427 17.6754 16.5198 13.3486 14.3222 10.0173ZM1.89114 10.4491L7.71387 1.62264L13.5366 10.4491C15.473 13.3844 14.4359 17.1968 11.22 18.9643C10.1616 19.5461 8.94941 19.8535 7.71387 19.8535C3.96006 19.8535 0.917001 17.0758 0.917001 13.6494C0.917001 12.5217 1.25378 11.4152 1.89114 10.4491Z" transform="matrix(0.29237175 -0.9563047 -0.9563047 -0.29237175 20.889421 27.71077)" id="Triangle-Copy-4" fill="#7D7D7D" stroke="none"/>
      <path d="M2.52195 0C1.12912 0 0 1.0302 0 2.30102C0 3.57184 1.12912 4.60204 2.52195 4.60204C3.91479 4.60204 5.0439 3.57184 5.0439 2.30102C5.0439 1.0302 3.91479 0 2.52195 0ZM2.52195 0.836735C3.4083 0.836735 4.12683 1.49232 4.12683 2.30102C4.12683 3.10972 3.4083 3.76531 2.52195 3.76531C1.6356 3.76531 0.917073 3.10972 0.917073 2.30102C0.917073 1.49232 1.6356 0.836735 2.52195 0.836735Z" transform="translate(20.863413 17.780613)" id="Oval" fill="#7D7D7D" stroke="none"/>
      <path d="M1.60488 2.92857C2.49123 2.92857 3.20976 2.27299 3.20976 1.46429C3.20976 0.655583 2.49123 0 1.60488 0C0.718529 0 0 0.655583 0 1.46429C0 2.27299 0.718529 2.92857 1.60488 2.92857Z" transform="translate(21.780487 18.617346)" id="Oval" fill="#F5A623" fill-rule="evenodd" stroke="none"/>
    </g>
  </g>
  <g id="LogoSepalika-text" transform="translate(56 2.8085098)">
    <g id="LogoSepalika-text">
      <path d="M3.00597 0L5.73234 6.32224L0 6.32224L3.00597 0Z" transform="translate(51.807888 0.9857873)" id="Triangle" fill="#F5A623" fill-rule="evenodd" stroke="none"/>
      <path d="M4.40486 16.4551C5.57486 16.4551 6.57386 16.2655 7.40186 15.8863C8.22986 15.5072 8.85086 14.9932 9.26486 14.3445C9.67886 13.6957 9.88586 12.9753 9.88586 12.1833C9.88586 11.425 9.69686 10.772 9.31886 10.2244C8.94086 9.67672 8.48186 9.22175 7.94186 8.85945C7.40186 8.49715 6.67286 8.07166 5.75486 7.58298C4.89086 7.14485 4.20236 6.75306 3.68936 6.40762C3.17636 6.06217 2.74436 5.64511 2.39336 5.15643C2.04236 4.66775 1.86686 4.08638 1.86686 3.41234C1.86686 2.58664 2.11886 1.87889 2.62286 1.28911C3.12686 0.699319 3.91886 0.404426 4.99886 0.404426C6.16886 0.404426 7.06436 0.754085 7.68536 1.4534C8.30636 2.15272 8.66186 2.94051 8.75186 3.81677C8.75186 3.88417 8.80586 3.91366 8.91386 3.90523C9.02186 3.89681 9.07586 3.85889 9.07586 3.79149L9.07586 3.79149L8.85986 1.11217C8.85986 0.926809 8.71586 0.783575 8.42786 0.682468C7.36586 0.278043 6.33986 0.0758298 5.34986 0.0758298C4.50386 0.0758298 3.71186 0.223277 2.97386 0.51817C2.23586 0.813064 1.63736 1.2554 1.17836 1.84519C0.719357 2.43498 0.489857 3.15115 0.489857 3.9937C0.489857 4.7183 0.665357 5.346 1.01636 5.87681C1.36736 6.40762 1.79936 6.84996 2.31236 7.20383C2.82536 7.5577 3.52286 7.97898 4.40486 8.46766C5.28686 8.95634 5.99336 9.38183 6.52436 9.74413C7.05536 10.1064 7.50086 10.5614 7.86086 11.1091C8.22086 11.6567 8.40086 12.3097 8.40086 13.068C8.40086 14.1128 8.07236 14.8795 7.41536 15.3682C6.75836 15.8569 5.95286 16.1012 4.99886 16.1012C4.08086 16.1012 3.28436 15.8906 2.60936 15.4693C1.93436 15.048 1.40786 14.5088 1.02986 13.8516C0.651857 13.1944 0.417857 12.5035 0.327857 11.7789C0.309857 11.7115 0.246857 11.6862 0.138857 11.7031C0.0308571 11.7199 -0.0141429 11.762 0.00385714 11.8294L0.00385714 11.8294L0.408857 15.1154C0.426857 15.2165 0.453857 15.3092 0.489857 15.3934C0.525857 15.4777 0.588857 15.5451 0.678857 15.5957C1.34486 15.9158 1.97036 16.1391 2.55536 16.2655C3.14036 16.3919 3.75686 16.4551 4.40486 16.4551ZM26.5359 16.1517C26.6979 16.1517 26.8104 16.1223 26.8734 16.0633C26.9364 16.0043 26.9679 15.9074 26.9679 15.7726C26.9679 14.374 27.0399 13.2786 27.1839 12.4866C27.2019 12.4529 27.1839 12.4234 27.1299 12.3982C27.0759 12.3729 27.0219 12.3603 26.9679 12.3603C26.8779 12.3603 26.8329 12.3855 26.8329 12.4361C26.6889 13.4134 26.3784 14.2012 25.9014 14.7994C25.4244 15.3977 24.8619 15.6968 24.2139 15.6968L24.2139 15.6968L20.3259 15.6968C19.6779 15.6968 19.2054 15.6546 18.9084 15.5704C18.6114 15.4861 18.4089 15.326 18.3009 15.0901C18.1929 14.8542 18.1389 14.4919 18.1389 14.0032L18.1389 14.0032L18.1389 8.16434L22.4049 8.16434C23.2149 8.16434 23.7819 8.32021 24.1059 8.63196C24.4299 8.9437 24.5919 9.47872 24.5919 10.237C24.5919 10.3044 24.6459 10.3381 24.7539 10.3381C24.8619 10.3381 24.9159 10.3044 24.9159 10.237C24.9159 9.9337 24.8979 9.52928 24.8619 9.02375L24.8619 9.02375L24.8349 7.93685L24.8349 5.94C24.8529 5.8726 24.8079 5.83889 24.6999 5.83889C24.5919 5.83889 24.5379 5.8726 24.5379 5.94C24.5559 6.58034 24.4164 7.03111 24.1194 7.2923C23.8224 7.55349 23.2959 7.68409 22.5399 7.68409L22.5399 7.68409L18.1389 7.68409L18.1389 2.42655C18.1569 1.92102 18.2154 1.5503 18.3144 1.31438C18.4134 1.07847 18.6114 0.918383 18.9084 0.834128C19.2054 0.749872 19.6779 0.707745 20.3259 0.707745L20.3259 0.707745L23.2689 0.707745C24.0069 0.707745 24.5964 0.977362 25.0374 1.5166C25.4784 2.05583 25.7079 2.772 25.7259 3.66511C25.7259 3.73251 25.7889 3.76621 25.9149 3.76621C26.0229 3.76621 26.0769 3.73251 26.0769 3.66511L26.0769 3.66511L26.0499 2.75515L25.9689 0.581362C25.9689 0.497106 25.9554 0.438128 25.9284 0.404426C25.9014 0.370723 25.8519 0.353872 25.7799 0.353872L25.7799 0.353872L14.4399 0.353872C14.4039 0.353872 14.3859 0.404426 14.3859 0.505532C14.3859 0.606638 14.4039 0.657192 14.4399 0.657192C15.1059 0.657192 15.5919 0.703532 15.8979 0.796213C16.2039 0.888894 16.4154 1.05319 16.5324 1.28911C16.6494 1.52502 16.7259 1.89574 16.7619 2.40128L16.7619 2.40128L16.7619 14.1043C16.7619 14.6099 16.7034 14.9848 16.5864 15.2292C16.4694 15.4735 16.2579 15.6378 15.9519 15.722C15.6459 15.8063 15.1599 15.8484 14.4939 15.8484C14.4399 15.8484 14.4129 15.899 14.4129 16.0001C14.4129 16.1012 14.4399 16.1517 14.4939 16.1517L14.4939 16.1517L26.5359 16.1517ZM31.0359 16.1517C31.5399 16.1517 31.9359 16.1433 32.2239 16.1265L32.2239 16.1265L33.9249 16.1012L35.7339 16.1265C36.0399 16.1433 36.4449 16.1517 36.9489 16.1517C36.9849 16.1517 37.0029 16.1012 37.0029 16.0001C37.0029 15.899 36.9849 15.8484 36.9489 15.8484C36.2649 15.8484 35.7699 15.8063 35.4639 15.722C35.1579 15.6378 34.9554 15.4777 34.8564 15.2418C34.7574 15.0059 34.7079 14.6267 34.7079 14.1043L34.7079 14.1043L34.6809 2.45183C34.6989 1.84519 34.7619 1.41549 34.8699 1.16272C34.9779 0.909957 35.1759 0.754085 35.4639 0.695106C35.7519 0.636128 36.2559 0.606638 36.9759 0.606638C37.7679 0.606638 38.5149 0.779362 39.2169 1.12481C39.9189 1.47026 40.4859 1.97157 40.9179 2.62877C41.3499 3.28596 41.5659 4.05268 41.5659 4.92894C41.5659 5.85574 41.3274 6.63932 40.8504 7.27966C40.3734 7.92 39.7524 8.39604 38.9874 8.70779C38.2224 9.01953 37.4259 9.1754 36.5979 9.1754C36.2739 9.1754 35.9769 9.1417 35.7069 9.0743C35.6889 9.05745 35.6664 9.0743 35.6394 9.12485C35.6124 9.1754 35.5989 9.22596 35.5989 9.27651C35.5989 9.36077 35.6169 9.40289 35.6529 9.40289C35.9589 9.48715 36.3819 9.52928 36.9219 9.52928C37.8759 9.52928 38.8389 9.3397 39.8109 8.96055C40.7829 8.5814 41.5974 8.00847 42.2544 7.24174C42.9114 6.47502 43.2399 5.53557 43.2399 4.4234C43.2399 3.04162 42.6954 2.00528 41.6064 1.31438C40.5174 0.623489 39.1719 0.278043 37.5699 0.278043C36.9399 0.278043 36.1749 0.311745 35.2749 0.379149C34.5909 0.412851 34.1409 0.429702 33.9249 0.429702C33.4749 0.429702 32.9079 0.412851 32.2239 0.379149L32.2239 0.379149L31.0359 0.353872C30.9819 0.353872 30.9594 0.404426 30.9684 0.505532C30.9774 0.606638 30.9999 0.657192 31.0359 0.657192C31.6839 0.657192 32.1654 0.703532 32.4804 0.796213C32.7954 0.888894 33.0069 1.05319 33.1149 1.28911C33.2229 1.52502 33.2859 1.89574 33.3039 2.40128L33.3039 2.40128L33.3039 14.1043C33.3039 14.6099 33.2454 14.9848 33.1284 15.2291C33.0114 15.4735 32.7954 15.6378 32.4804 15.722C32.1654 15.8063 31.6839 15.8484 31.0359 15.8484C30.9819 15.8484 30.9594 15.899 30.9684 16.0001C30.9774 16.1012 30.9999 16.1517 31.0359 16.1517ZM51.1959 16.1517C51.2859 16.1517 51.3309 16.1012 51.3309 16.0001C51.3309 15.899 51.2949 15.8484 51.2229 15.8484C50.5389 15.8484 50.0349 15.7684 49.7109 15.6083C49.3869 15.4482 49.2249 15.1407 49.2249 14.6857C49.2249 14.2307 49.3959 13.5988 49.7379 12.79L49.7379 12.79L52.0059 7.58298L56.5959 7.58298L59.0529 14.0285C59.2149 14.4498 59.2959 14.7868 59.2959 15.0396C59.2959 15.3429 59.1609 15.5535 58.8909 15.6715C58.6209 15.7894 58.1439 15.8484 57.4599 15.8484C57.3879 15.8484 57.3519 15.899 57.3519 16.0001C57.3519 16.1012 57.3879 16.1517 57.4599 16.1517C57.7479 16.1517 58.1799 16.1349 58.7559 16.1012C59.3679 16.0675 59.8719 16.0506 60.2679 16.0506C60.6639 16.0506 61.2039 16.0675 61.8879 16.1012C62.4999 16.1349 62.9499 16.1517 63.2379 16.1517C63.2919 16.1517 63.3189 16.1012 63.3189 16.0001C63.3189 15.899 63.2919 15.8484 63.2379 15.8484C62.6259 15.8484 62.1579 15.7937 61.8339 15.6841C61.5099 15.5746 61.2579 15.3977 61.0779 15.1533C60.8979 14.909 60.7089 14.534 60.5109 14.0285L60.5109 14.0285L55.2189 0.126383C55.1649 0.0421277 55.0569 0 54.8949 0C54.7689 0 54.6879 0.0337021 54.6519 0.101106L54.6519 0.101106L48.7659 13.1186C47.9379 14.9385 46.8669 15.8484 45.5529 15.8484C45.4809 15.8484 45.4449 15.899 45.4449 16.0001C45.4449 16.1012 45.4809 16.1517 45.5529 16.1517C45.8769 16.1517 46.2909 16.1349 46.7949 16.1012C47.3709 16.0675 47.8749 16.0506 48.3069 16.0506C48.6849 16.0506 49.2339 16.0675 49.9539 16.1012C50.5659 16.1349 50.9799 16.1517 51.1959 16.1517ZM56.4069 7.10272L52.2219 7.10272L54.4629 1.99685L56.4069 7.10272ZM78.5109 16.1517C78.6729 16.1517 78.7899 16.1223 78.8619 16.0633C78.9339 16.0043 78.9699 15.9074 78.9699 15.7726C78.9699 14.593 79.0329 13.4893 79.1589 12.4614C79.1589 12.4277 79.1364 12.4024 79.0914 12.3855C79.0464 12.3687 78.9969 12.3603 78.9429 12.3603C78.8529 12.3603 78.8079 12.3855 78.8079 12.4361C78.6459 13.4809 78.3174 14.2855 77.8224 14.85C77.3274 15.4145 76.5669 15.6968 75.5409 15.6968L75.5409 15.6968L72.0039 15.6968C71.3559 15.6968 70.8834 15.6546 70.5864 15.5704C70.2894 15.4861 70.0914 15.3303 69.9924 15.1028C69.8934 14.8753 69.8349 14.5088 69.8169 14.0032L69.8169 14.0032L69.8169 2.42655C69.8349 1.92102 69.8979 1.54609 70.0059 1.30174C70.1139 1.0574 70.3209 0.888894 70.6269 0.796213C70.9329 0.703532 71.4189 0.657192 72.0849 0.657192C72.1209 0.657192 72.1389 0.606638 72.1389 0.505532C72.1389 0.404426 72.1209 0.353872 72.0849 0.353872L72.0849 0.353872L70.8429 0.379149C70.1229 0.412851 69.5379 0.429702 69.0879 0.429702C68.6379 0.429702 68.0709 0.412851 67.3869 0.379149L67.3869 0.379149L66.1989 0.353872C66.1449 0.353872 66.1224 0.404426 66.1314 0.505532C66.1404 0.606638 66.1629 0.657192 66.1989 0.657192C66.8469 0.657192 67.3194 0.703532 67.6164 0.796213C67.9134 0.888894 68.1159 1.05319 68.2239 1.28911C68.3319 1.52502 68.3949 1.89574 68.4129 2.40128L68.4129 2.40128L68.4129 14.1043C68.4129 14.6099 68.3544 14.9848 68.2374 15.2292C68.1204 15.4735 67.9089 15.6378 67.6029 15.722C67.2969 15.8063 66.8199 15.8484 66.1719 15.8484C66.1179 15.8484 66.0954 15.899 66.1044 16.0001C66.1134 16.1012 66.1359 16.1517 66.1719 16.1517L66.1719 16.1517L78.5109 16.1517ZM82.5249 16.1517C83.0649 16.1517 83.4879 16.1433 83.7939 16.1265L83.7939 16.1265L85.5219 16.1012L87.3039 16.1265C87.5919 16.1433 87.9789 16.1517 88.4649 16.1517C88.5189 16.1517 88.5459 16.1012 88.5459 16.0001C88.5459 15.899 88.5098 15.8484 88.4379 15.8484C87.7719 15.8484 87.2904 15.8063 86.9934 15.722C86.6964 15.6378 86.4939 15.4777 86.3859 15.2418C86.2779 15.0059 86.2149 14.6267 86.1969 14.1043L86.1969 14.1043L86.1969 2.45183C86.2149 1.9463 86.2779 1.57136 86.3859 1.32702C86.4939 1.08268 86.7009 0.909958 87.0069 0.808851C87.3129 0.707745 87.7899 0.657192 88.4379 0.657192C88.5098 0.657192 88.5459 0.606638 88.5459 0.505532C88.5459 0.404426 88.5098 0.353872 88.4379 0.353872L88.4379 0.353872L87.3039 0.379149C86.5839 0.412851 85.9629 0.429702 85.4409 0.429702C84.9729 0.429702 84.3969 0.412851 83.7129 0.379149L83.7129 0.379149L82.4979 0.353872C82.4619 0.353872 82.4439 0.404426 82.4439 0.505532C82.4439 0.606638 82.4619 0.657192 82.4979 0.657192C83.1639 0.657192 83.6499 0.703532 83.9559 0.796213C84.2619 0.888894 84.4734 1.05319 84.5904 1.28911C84.7074 1.52502 84.7659 1.89574 84.7659 2.40128L84.7659 2.40128L84.7659 14.1043C84.7839 14.6099 84.7344 14.9806 84.6174 15.2165C84.5004 15.4524 84.2844 15.6167 83.9694 15.7094C83.6544 15.8021 83.1639 15.8484 82.4979 15.8484C82.4619 15.8484 82.4439 15.899 82.4439 16.0001C82.4439 16.1012 82.4709 16.1517 82.5249 16.1517ZM92.6949 16.1517C93.1989 16.1517 93.5949 16.1433 93.8829 16.1265L93.8829 16.1265L95.5569 16.1012L97.2039 16.1265C97.4559 16.1433 97.8069 16.1517 98.2569 16.1517C98.2929 16.1517 98.3109 16.1012 98.3109 16.0001C98.3109 15.899 98.2929 15.8484 98.2569 15.8484C97.5909 15.8484 97.1319 15.8063 96.8799 15.722C96.6279 15.6378 96.4794 15.4946 96.4344 15.2923C96.3894 15.0901 96.3669 14.6941 96.3669 14.1043L96.3669 14.1043L96.3669 8.36655L97.2849 7.5577L101.605 12.4866C101.695 12.5877 102.208 13.186 103.144 14.2813C104.08 15.3766 104.642 15.9622 104.831 16.038C105.02 16.1138 105.421 16.1517 106.033 16.1517L106.033 16.1517L108.409 16.1517C108.463 16.1517 108.49 16.1012 108.49 16.0001C108.49 15.899 108.463 15.8484 108.409 15.8484C107.815 15.8484 107.32 15.7684 106.924 15.6083C106.528 15.4482 105.979 15.0396 105.277 14.3824C104.575 13.7252 103.549 12.6383 102.199 11.1217L102.199 11.1217L98.2839 6.6983L103.144 2.40128C104.332 1.23855 105.736 0.657192 107.356 0.657192C107.392 0.657192 107.41 0.606638 107.41 0.505532C107.41 0.404426 107.392 0.353872 107.356 0.353872L107.356 0.353872L106.438 0.379149C105.862 0.412851 105.304 0.429702 104.764 0.429702C104.206 0.429702 103.603 0.412851 102.955 0.379149L102.955 0.379149L101.956 0.353872C101.902 0.353872 101.875 0.404426 101.875 0.505532C101.875 0.606638 101.902 0.657192 101.956 0.657192C102.46 0.657192 102.829 0.686681 103.063 0.74566C103.297 0.804638 103.414 0.909958 103.414 1.06162C103.414 1.28068 103.126 1.67668 102.55 2.24962L102.55 2.24962L96.3669 7.81047L96.3669 2.45183C96.3849 1.9463 96.4479 1.57136 96.5559 1.32702C96.6639 1.08268 96.8708 0.909958 97.1769 0.808851C97.4829 0.707745 97.9689 0.657192 98.6349 0.657192C98.6709 0.657192 98.6889 0.606638 98.6889 0.505532C98.6889 0.404426 98.6709 0.353872 98.6349 0.353872L98.6349 0.353872L97.3929 0.379149C96.6729 0.412851 96.0879 0.429702 95.6379 0.429702C95.1879 0.429702 94.6209 0.412851 93.9369 0.379149L93.9369 0.379149L92.7489 0.353872C92.6949 0.353872 92.6724 0.404426 92.6814 0.505532C92.6904 0.606638 92.7129 0.657192 92.7489 0.657192C93.3969 0.657192 93.8694 0.703532 94.1664 0.796213C94.4634 0.888894 94.6659 1.05319 94.7739 1.28911C94.8819 1.52502 94.9449 1.89574 94.9629 2.40128L94.9629 2.40128L94.9629 14.1043C94.9629 14.6099 94.9044 14.9848 94.7874 15.2292C94.6704 15.4735 94.4544 15.6378 94.1394 15.722C93.8244 15.8063 93.3429 15.8484 92.6949 15.8484C92.6229 15.8484 92.5914 15.899 92.6004 16.0001C92.6094 16.1012 92.6409 16.1517 92.6949 16.1517ZM115.933 16.1517C116.023 16.1517 116.068 16.1012 116.068 16.0001C116.068 15.899 116.032 15.8484 115.96 15.8484C115.276 15.8484 114.772 15.7684 114.448 15.6083C114.124 15.4482 113.962 15.1407 113.962 14.6857C113.962 14.2307 114.133 13.5988 114.475 12.79L114.475 12.79L116.743 7.58298L121.333 7.58298L123.79 14.0285C123.952 14.4498 124.033 14.7868 124.033 15.0396C124.033 15.3429 123.898 15.5535 123.628 15.6715C123.358 15.7894 122.881 15.8484 122.197 15.8484C122.125 15.8484 122.089 15.899 122.089 16.0001C122.089 16.1012 122.125 16.1517 122.197 16.1517C122.485 16.1517 122.917 16.1349 123.493 16.1012C124.105 16.0675 124.609 16.0506 125.005 16.0506C125.401 16.0506 125.941 16.0675 126.625 16.1012C127.237 16.1349 127.687 16.1517 127.975 16.1517C128.029 16.1517 128.056 16.1012 128.056 16.0001C128.056 15.899 128.029 15.8484 127.975 15.8484C127.363 15.8484 126.895 15.7937 126.571 15.6841C126.247 15.5746 125.995 15.3977 125.815 15.1533C125.635 14.909 125.446 14.534 125.248 14.0285L125.248 14.0285L119.956 0.126383C119.902 0.0421277 119.794 0 119.632 0C119.506 0 119.425 0.0337021 119.389 0.101106L119.389 0.101106L113.503 13.1186C112.675 14.9385 111.604 15.8484 110.29 15.8484C110.218 15.8484 110.182 15.899 110.182 16.0001C110.182 16.1012 110.218 16.1517 110.29 16.1517C110.614 16.1517 111.028 16.1349 111.532 16.1012C112.108 16.0675 112.612 16.0506 113.044 16.0506C113.422 16.0506 113.971 16.0675 114.691 16.1012C115.303 16.1349 115.717 16.1517 115.933 16.1517ZM121.144 7.10272L116.959 7.10272L119.2 1.99685L121.144 7.10272Z" transform="matrix(1 0 0 1 1.4210855E-14 5.684342E-14)" id="SEPALIKA" fill="#181819" stroke="none"/>
    </g>
  </g>
</svg>