<svg width="215px" height="240px" viewBox="0 0 215 240" version="1.1" xmlns:xlink="http://www.w3.org/1999/xlink" xmlns="http://www.w3.org/2000/svg">
  <desc>Created with Lunacy</desc>
  <g id="Sepalika5" transform="translate(-135.0483 0.5)">
    <path d="M57.705 0L107.14 81.821C123.58 109.031 114.774 144.372 87.4722 160.757C78.4859 166.149 68.1947 168.999 57.705 168.999C25.8354 168.999 0 143.251 0 111.488C0 101.034 2.85926 90.777 8.27034 81.821L57.705 0ZM57.7047 13.2532L14.147 85.3477C9.37915 93.2391 6.85979 102.276 6.85979 111.488C6.85979 139.475 29.624 162.162 57.705 162.162C66.9477 162.162 76.0155 159.651 83.9335 154.9C107.99 140.463 115.749 109.323 101.263 85.3477L57.7047 13.2532Z" transform="matrix(-1 0 0 -1 231.6499 168.9991)" id="Triangle" fill="#FFFFFF" fill-rule="evenodd" stroke="none"/>
    <path d="M57.705 0L107.14 81.821C123.58 109.031 114.774 144.372 87.4722 160.757C78.4859 166.149 68.1947 168.999 57.705 168.999C25.8354 168.999 0 143.251 0 111.488C0 101.034 2.85926 90.777 8.27034 81.821L57.705 0ZM57.7041 13.2512L14.147 85.3477C9.37915 93.2391 6.85979 102.276 6.85979 111.488C6.85979 139.475 29.624 162.162 57.705 162.162C66.9477 162.162 76.0155 159.651 83.9335 154.9C107.99 140.463 115.749 109.323 101.263 85.3477L57.7041 13.2512Z" transform="matrix(0.8386706 -0.5446391 0.5446391 0.8386706 123.7402 191.6224)" id="Triangle-Copy" fill="#FFFFFF" fill-rule="evenodd" stroke="none"/>
    <path d="M57.7049 0L107.14 81.821C123.58 109.031 114.774 144.372 87.472 160.757C78.4858 166.149 68.1945 168.999 57.7049 168.999C25.8353 168.999 -0.00012207 143.251 -0.00012207 111.488C-0.00012207 101.034 2.85914 90.777 8.27022 81.821L57.7049 0ZM57.705 13.2537L14.1469 85.3477C9.3791 93.2391 6.85974 102.276 6.85974 111.488C6.85974 139.475 29.6239 162.162 57.705 162.162C66.9476 162.162 76.0155 159.651 83.9335 154.9C107.99 140.463 115.749 109.323 101.263 85.3477L57.705 13.2537Z" transform="matrix(-0.2923718 -0.9563047 0.9563047 -0.2923718 187.0547 221.0601)" id="Triangle-Copy-3" fill="#FFFFFF" fill-rule="evenodd" stroke="none"/>
    <path d="M57.705 0L107.14 81.821C123.58 109.031 114.774 144.372 87.4722 160.757C78.4859 166.149 68.1947 168.999 57.705 168.999C25.8354 168.999 0 143.251 0 111.488C0 101.034 2.85926 90.777 8.27034 81.821L57.705 0ZM57.7037 13.2539L14.147 85.3477C9.37915 93.2391 6.85979 102.276 6.85979 111.488C6.85979 139.475 29.624 162.162 57.705 162.162C66.9477 162.162 76.0155 159.651 83.9335 154.9C107.99 140.463 115.749 109.323 101.263 85.3477L57.7037 13.2539Z" transform="matrix(-0.7986355 -0.6018151 -0.6018151 0.7986355 222.8906 195.1232)" id="Triangle-Copy-2" fill="#FFFFFF" fill-rule="evenodd" stroke="none"/>
    <path d="M57.705 0L107.14 81.821C123.58 109.031 114.774 144.372 87.4722 160.757C78.4859 166.149 68.1947 168.999 57.705 168.999C25.8354 168.999 0 143.251 0 111.488C0 101.034 2.85926 90.777 8.27034 81.821L57.705 0ZM57.705 13.2537L14.147 85.3477C9.37915 93.2391 6.85979 102.276 6.85979 111.488C6.85979 139.475 29.624 162.162 57.705 162.162C66.9477 162.162 76.0155 159.651 83.9335 154.9C107.99 140.463 115.749 109.323 101.263 85.3477L57.705 13.2537Z" transform="matrix(0.2923717 -0.9563047 -0.9563047 -0.2923717 161.6147 221.0601)" id="Triangle-Copy-4" fill="#FFFFFF" fill-rule="evenodd" stroke="none"/>
    <path d="M0 18.801C0 8.4175 8.44589 0 18.8644 0C29.283 0 37.7288 8.4175 37.7288 18.801C37.7288 29.1845 29.283 37.602 18.8644 37.602C8.44589 37.602 0 29.1845 0 18.801ZM30.8691 18.801C30.8691 12.1933 25.4944 6.83673 18.8644 6.83673C12.2344 6.83673 6.85979 12.1933 6.85979 18.801C6.85979 25.4087 12.2344 30.7653 18.8644 30.7653C25.4944 30.7653 30.8691 25.4087 30.8691 18.801Z" transform="translate(154.6086 145.0706)" id="Oval" fill="#FFFFFF" fill-rule="evenodd" stroke="none"/>
    <path d="M12.0046 23.9286C18.6346 23.9286 24.0093 18.572 24.0093 11.9643C24.0093 5.35659 18.6346 0 12.0046 0C5.37466 0 0 5.35659 0 11.9643C0 18.572 5.37466 23.9286 12.0046 23.9286Z" transform="translate(161.4683 151.9073)" id="Oval" fill="#F5A623" stroke="none"/>
  </g>
</svg>