<svg width="1324px" height="1115px" viewBox="0 0 1324 1115" version="1.1" xmlns:xlink="http://www.w3.org/1999/xlink" xmlns="http://www.w3.org/2000/svg">
  <desc>Created with Lunacy</desc>
  <g id="Heart" transform="translate(0 937.631)" opacity="0.118466333">
    <path d="M99.2312 98.4194C106.949 86.3536 117.39 61.8021 122.029 50.4978C124.289 44.8129 125.809 39.2461 129.47 33.1148L134.135 24.095C134.519 22.7165 136.792 21.5086 137.677 19.9331C142.924 14.6814 152.704 15.9156 157.713 20.6027C158.638 22.0469 158.704 21.3248 160.066 23.281L161.11 28.2833L161.638 30.7909L161.704 31.0929L161.744 31.2504C161.942 33.0623 161.48 28.8347 161.519 29.2811L161.519 29.3992L161.506 29.99L161.466 31.1848L161.004 50.3271C159.458 63.9815 157.065 77.8459 151.898 89.8197C150.325 96.0036 146.374 102.503 142.528 108.923L131.347 127.789C114.509 154.205 104.782 182.748 91.4468 208.206L90.9711 209.217C95.3721 208.875 99.6145 208.547 103.857 208.206C89.7287 188.656 75.3495 169.501 61.8292 149.387C48.6659 128.918 31.9077 111.338 22.3656 90.0561C18.1892 78.8044 13.1142 67.8152 14.0525 56.1959C14.5019 50.5372 16.4447 44.8917 21.0307 41.8982C26.0529 39.6531 31.6962 39.745 37.551 41.8982C48.4544 46.0208 59.4239 51.7057 67.9352 60.0034C76.7636 68.0122 89.2794 89.951 95.4381 100.783C98.2796 105.614 98.9272 100.113 97.447 95.7673C92.3455 77.0976 76.3407 47.1105 53.3576 35.2286C50.1197 33.5874 48.8773 32.0645 43.8684 30.3708C40.9079 29.4255 38.833 28.4014 35.0796 27.5874C25.9339 25.8675 13.6957 27.2329 6.34747 37.0404C0.519106 45.8238 -0.458896 54.9092 0.162268 62.0253C0.135835 65.9115 1.00811 69.2332 1.61605 72.7649L2.13149 75.3776C2.89803 78.1348 2.77908 77.3733 3.14914 78.5418L4.66901 82.8219C7.89377 93.5484 15.2816 107.295 22.207 117.457C29.0662 128.013 37.2338 137.597 43.7626 146.8C57.719 166.429 71.1467 185.335 83.2792 202.429L93.231 216.621L98.3986 224L102.773 215.873C116.439 190.534 126.562 164.039 141.1 140.433L152.334 122.288C155.916 116.157 159.814 110.288 163.119 103.907L171.167 83.0713C173.401 76.0472 174.233 68.7737 175.793 61.6314C177.709 54.5022 177.088 47.1893 177.604 39.9551L178 29.0973C176.969 23.9506 177.141 21.9156 175.317 17.7011C167.572 1.0008 147.365 -4.48719 132.972 3.83671C131.228 4.87391 129.417 5.84547 127.792 7.01397L123.827 11.5567C120.813 14.4845 119.439 18.4364 118.051 21.351C115.077 27.7318 111.998 34.0995 110.28 41.268C105.601 55.093 103.738 68.9312 98.0814 81.6928C94.5262 91.0933 93.1649 108.962 99.2312 98.4194" id="Fill-943" fill="#FFFFFF" stroke="none"/>
    <path d="M58.6682 64.3903C71.0204 48.6739 80.6943 28.9495 66.0636 11.1306C50.7932 -7.47684 36.5888 -1.0247 27.8343 17.7273C18.4935 37.7013 16.668 60.2115 10.8184 81.2763C5.36847 100.961 -1.70707 121.277 0.371623 142C51.9524 113.813 126.732 104.457 147.266 40.3689C150.37 30.6972 149.984 20.1189 140.443 14.1661C125.266 4.7047 110.875 23.3121 100.762 31.6171C87.0903 42.8262 72.3796 52.9972 58.6682 64.3903" transform="translate(71 113)" id="Fill-944" fill="#FFFFFF" stroke="none"/>
  </g>
  <path d="M101.345 796.513C98.0098 773.534 94.6734 750.554 97.3429 721.247C100.011 691.94 108.683 656.305 109.851 643.816C111.018 631.328 104.68 641.985 101.523 657.938C98.3661 673.891 98.3877 695.141 103.403 719.42C108.417 743.699 118.424 771.008 141.106 790.657C163.787 810.306 199.144 822.296 233.833 819.631C268.523 816.967 302.545 799.649 333.233 789.658C363.919 779.667 391.271 777.003 420.958 773.34C450.644 769.676 482.666 765.013 506.348 745.031C530.03 725.049 545.373 689.747 553.201 655.144C561.028 620.54 561.339 586.636 566.008 573.314C570.678 559.993 579.707 567.255 576.216 586.872C572.725 606.488 556.715 638.46 538.369 662.105C520.023 685.751 499.343 701.07 482.666 702.403C465.987 703.735 453.312 691.079 448.643 663.437C443.974 635.795 447.309 593.167 438.302 549.539C429.296 505.911 407.95 461.285 412.619 442.968C417.289 424.651 447.975 432.644 475.327 450.628C502.678 468.612 526.694 496.586 544.039 514.57C561.384 532.554 572.058 540.547 573.059 524.561C574.059 508.576 565.387 468.612 548.042 441.636C530.697 414.66 504.68 400.672 477.996 394.011C451.311 387.351 423.96 388.017 389.76 378.225C355.559 368.432 314.508 348.182 288.27 326.952C262.032 305.723 250.606 283.516 246.009 268.897C241.412 254.277 243.645 247.246 253.54 260.149C263.433 273.052 280.988 305.89 297.104 344.622C313.22 383.355 327.896 427.981 334.234 476.604C340.571 525.228 338.569 577.847 332.232 620.143C325.895 662.438 315.221 694.41 304.881 718.388C294.54 742.367 284.534 758.353 275.863 764.68C267.19 771.008 259.851 767.678 261.852 728.046C263.854 688.415 275.195 612.483 276.196 560.196C277.196 507.91 267.856 479.269 254.848 459.286C241.839 439.304 225.162 427.981 202.814 434.642C180.465 441.302 152.447 465.948 128.097 494.921C103.748 523.896 83.0675 557.199 61.0524 577.514C39.038 597.83 15.69 605.156 5.68274 598.828C-4.32421 592.501 -0.988113 572.519 14.6884 553.536C30.366 534.552 58.3839 516.569 89.7387 493.589C121.092 470.61 155.783 442.635 171.782 415.775C187.781 388.914 185.091 363.169 186.33 350.046C187.57 336.925 192.739 336.425 194.085 343.636C195.43 350.847 192.951 365.769 189.043 375.227C185.135 384.687 179.798 388.683 171.364 385.218C162.931 381.754 151.401 370.829 139.715 359.455C128.03 348.081 116.188 336.258 107.945 326.068C99.7004 315.878 95.053 307.32 89.7279 295.715C84.4014 284.11 78.3978 269.456 73.7271 254.136C69.0575 238.817 65.7221 222.831 68.0579 215.504C70.3917 208.178 78.3978 209.51 87.0702 217.503C95.7422 225.495 105.082 240.15 108.752 251.805C112.42 263.462 110.419 272.12 105.404 271.487C100.389 270.853 92.3619 260.927 90.361 252.601C88.3588 244.275 92.3845 237.55 89.3942 231.856C86.4029 226.162 76.397 221.5 71.3933 224.164C66.39 226.828 66.39 236.819 60.7191 234.487C55.0485 232.156 43.7083 217.503 36.3695 188.196C29.031 158.888 25.6963 114.928 37.0365 82.623C48.378 50.319 74.3954 29.6706 97.4101 18.3474C120.426 7.02452 140.439 5.02577 163.788 5.02577C187.136 5.02577 213.82 7.02452 236.168 18.3474C258.517 29.6706 276.529 50.319 287.869 71.9663C299.211 93.6134 303.881 116.26 300.878 134.91C297.876 153.56 287.203 168.214 269.191 168.88C251.179 169.546 225.828 156.224 204.815 154.226C183.801 152.228 167.123 161.553 155.146 176.987C143.168 192.422 135.891 213.967 142.896 228.287C149.9 242.608 171.187 249.704 183.831 247.591C196.476 245.478 200.478 234.155 198.477 226.495C196.476 218.835 188.47 214.839 181.132 213.506C173.795 212.174 167.123 213.506 165.456 206.179C163.788 198.853 167.123 182.867 174.128 170.878C181.132 158.888 191.806 150.895 202.814 149.896C213.82 148.897 225.162 154.892 231.166 164.55C237.169 174.208 237.836 187.53 231.832 196.854C225.828 206.18 213.154 211.508 206.483 217.503C199.811 223.498 199.144 230.158 207.816 234.154C216.489 238.151 234.501 239.483 244.842 240.15C255.182 240.815 257.85 240.815 264.187 234.155C270.525 227.494 280.531 214.172 279.864 198.187C279.197 182.201 267.856 163.551 252.847 156.557C237.836 149.564 219.157 154.226 215.156 150.895C211.153 147.565 221.826 136.242 234.168 135.576C246.509 134.91 260.518 144.901 264.521 157.889C268.523 170.878 262.52 186.863 253.514 198.187C244.508 209.51 232.5 216.171 225.812 222.235C219.123 228.299 217.753 233.768 216.753 237.764C215.752 241.761 215.119 244.285 207.799 248.878C200.479 253.471 186.469 260.131 174.128 260.464C161.786 260.798 151.113 254.803 143.107 244.479C135.101 234.155 129.765 219.501 122.427 208.844C115.089 198.187 105.749 191.526 93.9794 185.355C82.2107 179.184 68.013 173.503 58.7037 180.445C49.3941 187.388 44.9754 206.953 43.401 205.797C41.8284 204.642 43.1015 182.764 50.4099 166.83C57.7173 150.895 71.0597 140.905 85.7363 137.907C100.413 134.91 116.423 138.906 132.433 143.235C148.444 147.565 164.454 152.228 166.122 146.899C167.79 141.571 155.116 126.252 140.439 115.261C125.762 104.271 109.085 97.6096 90.406 97.6096C71.7266 97.6096 51.0454 104.271 40.7055 105.27C30.366 106.269 30.366 101.606 34.702 90.9491C39.038 80.2918 47.7114 63.6406 60.7191 52.317C73.7271 40.9938 91.0726 34.9993 111.086 37.3305C131.099 39.6617 153.781 50.3186 170.126 67.6364C186.469 84.9542 196.476 108.933 202.48 124.919C208.484 140.905 210.486 148.897 212.851 145.016C215.216 141.135 217.945 125.379 223.605 111.923C229.264 98.4677 237.853 87.312 236.923 71.5243C235.993 55.737 225.544 35.3179 208.878 21.4645C192.211 7.6112 169.326 0.32426 153.215 0.010691C137.104 -0.302541 127.764 6.35827 135.435 8.02356C143.107 9.68885 167.79 6.35827 192.14 9.68885C216.489 13.0191 240.505 23.0101 255.437 38.9526C270.371 54.8947 276.22 76.7889 277.001 94.7213C277.782 112.654 273.495 126.625 265.567 133.662C257.638 140.699 246.069 140.802 232.947 145.849C219.824 150.896 205.148 160.887 199.811 173.875C194.475 186.864 198.477 202.849 205.554 212.934C212.631 223.02 222.781 227.206 221.781 236.198C220.78 245.19 208.628 258.988 207.555 269.884C206.483 280.779 216.489 288.773 225.162 294.767C233.833 300.762 241.172 304.758 242.84 312.085C244.508 319.412 240.505 330.069 244.174 339.393C247.843 348.719 259.184 356.712 261.178 356.058C263.172 355.404 255.819 346.104 252.151 339.444C248.482 332.783 248.496 328.762 250.505 321.089C252.513 313.417 256.516 302.094 249.989 294.735C243.463 287.376 226.406 283.982 219.402 277.988C212.397 271.993 215.444 263.398 218.83 256.447C222.214 249.496 225.94 244.189 230.686 239.789C235.431 235.389 241.199 231.895 251.504 227.567C261.809 223.239 276.652 218.077 286.992 213.331C297.333 208.586 303.17 204.256 305.755 197.845C308.34 191.434 307.673 182.941 303.504 175.531C299.334 168.121 291.663 161.794 285.492 158.796C279.321 155.799 274.651 156.132 276.652 157.381C278.654 158.63 287.326 160.795 295.499 162.959C303.67 165.124 311.342 167.289 316.846 174.782C322.349 182.275 325.685 195.097 325.977 208.168C326.27 221.24 323.52 234.561 312.384 244.967C301.247 255.374 281.725 262.865 268.983 259.451C256.24 256.036 250.278 241.715 243.055 235.218C235.831 228.721 227.347 230.046 218.863 231.372" transform="translate(1036 1)" id="Woman-stroke" fill="none" stroke="#FFFFFF" stroke-opacity="0.203921571" stroke-width="2" stroke-linecap="round" stroke-linejoin="round"/>
  <g id="Flowers" transform="matrix(0.9975641 0.06975647 -0.06975647 0.9975641 967.8999 871.178)">
    <path d="M0.0324941 107.896C-0.0628882 110.765 0.0571089 113.681 0.321718 116.599C1.18785 126.64 3.83548 136.881 6.00312 146.28C7.99999 154.84 9.85533 163.416 11.563 172.054C12.4783 176.761 14.0429 181.018 18.1844 183.721C20.8797 185.461 23.9611 186.44 27.1872 186.813C28.198 186.922 29.2087 186.999 30.2195 186.999C37.2008 187.046 44.5914 184.747 50.3928 181.997C50.4651 181.997 50.5374 181.997 50.6097 181.95C67.7016 173.607 82.4105 158.103 89.3903 140.159C91.5826 134.519 93.941 126.127 92.6164 119.37C92.3995 118.325 92.1103 117.352 91.7257 116.405C91.4611 115.772 91.1718 115.188 90.8118 114.606C88.4996 110.861 85.2504 110.983 82.2167 112.49C84.7689 106.389 86.9596 98.5121 84.6966 93.2859C84.2874 92.3615 83.7812 91.6577 83.2274 91.1947C82.5782 90.6603 81.8567 90.3682 81.0859 90.3201C79.8583 90.2222 78.5337 90.637 77.2568 91.3159C83.2043 73.5461 84.4074 54.3656 80.5321 35.9883C79.8583 32.8019 79.0875 28.4503 77.2829 24.9501C76.7291 23.8331 76.0537 22.7875 75.2599 21.888C74.2015 20.7446 72.9492 19.8451 71.3846 19.3603C67.5801 18.1688 64.7171 19.9911 62.5987 22.7145C62.5741 14.9591 60.8418 5.6003 55.2065 1.75985C54.605 1.34505 53.9804 0.981509 53.282 0.714294C52.5835 0.447078 51.8374 0.22647 51.042 0.105291C42.5453 -1.20593 39.7038 10 38.7408 18.655C36.3101 16.8311 32.724 16.4909 29.5225 17.7555C28.6072 18.1206 27.7164 18.6069 26.898 19.2392C26.6088 19.4567 26.3211 19.7006 26.0549 19.9429C18.0382 27.4296 17.8951 42.6003 19.4597 53.929C14.6937 50.8902 7.92923 52.1533 5.56928 58.6923C3.54779 64.2355 5.25698 71.7237 6.22004 77.5326C6.26773 77.8977 6.34003 78.2627 6.38772 78.6263C6.79695 81.3979 7.2554 84.1446 7.78461 86.868C8.41075 90.0047 9.08458 93.115 9.83072 96.2035C8.50613 95.4003 6.99079 95.0119 5.30467 95.4982C1.93399 96.421 0.730939 100.142 0.369409 103.277C0.177106 104.809 0.0801853 106.341 0.0324941 107.896" transform="translate(162.5298 86.84119)" id="Fill-3" fill="#4D6880" stroke="none"/>
    <path d="M4.53054 35.5862C8.24911 40.4207 13.3283 44.0618 18.6747 46.9284C31.7037 53.8986 47.4291 55.8417 59.0228 65.4348C65.1723 70.5099 69.1829 77.4801 74.2621 83.5268C78.2478 88.2698 82.816 92.631 88.0195 96.03C85.977 96.6197 83.9111 97.3492 81.7225 97.8769C75.7439 99.3047 67.9418 97.5665 65.9241 96.9767C63.8831 95.9368 61.8669 94.8659 59.9222 93.6243C54.2589 90.0081 49.714 85.4218 44.6581 81.0498C39.1641 76.2897 30.3663 70.3656 22.7102 73.7645C20.9596 74.5405 19.745 75.7077 19.0646 77.0424C18.7245 77.6741 18.5054 78.3539 18.4324 79.0352C18.0923 81.7295 19.6487 84.5465 23.027 85.785C25.2141 86.6107 27.5953 86.5874 29.8553 87.1943C33.8907 88.2853 35.2032 90.8617 37.3173 93.6243C31.654 94.509 25.8463 96.3248 21.713 99.6927C18.8223 102.083 16.9009 106.398 18.2383 109.796C18.4806 110.386 18.8223 110.976 19.3085 111.473C19.7201 111.985 20.256 112.435 20.8866 112.838C27.1339 116.719 35.7624 109.61 41.522 108.012C41.6199 107.981 41.741 107.965 41.8389 107.934C41.2564 109.703 40.8417 111.504 40.5993 113.133C39.9423 117.557 39.627 125.301 43.4186 128.623C44.3909 129.476 45.4114 129.911 46.3838 129.988C47.235 130.05 48.0613 129.864 48.8147 129.43C49.9315 128.824 50.9038 127.753 51.5609 126.372C54.7684 119.621 53.5289 112.373 58.0986 107.111C63.6641 107.965 69.9347 117.107 91.9074 111.814C98.9795 110.122 111.205 107.546 117.768 104.504C124.427 104.054 124.815 100.112 131.549 100.329C147.493 100.795 160.788 108.322 171.799 119.202C172.212 119.729 172.649 120.242 173.039 120.8C173.354 121.219 173.767 121.406 174.18 121.468C174.326 121.514 174.472 121.514 174.617 121.437C175.615 121.297 176.465 120.319 175.712 119.279C166.864 107.003 155.003 97.3492 141.052 91.3894C134.199 88.456 126.981 86.4663 119.567 85.5662C110.258 84.4254 100.39 85.7121 91.9804 80.758C80.5079 73.9834 74.9657 60.6499 64.6861 52.4909C62.6435 50.8628 57.8315 45.8606 51.171 42.2413C48.2788 40.6628 46.2378 38.5257 44.7544 36.0487C44.4639 32.1391 45.4844 28.6175 47.7942 24.829C49.6162 21.8165 52.3142 19.1703 53.6997 15.9173C54.6721 13.656 55.2064 10.3548 53.5289 8.38683C53.2369 8.04694 52.8982 7.75671 52.4835 7.48976C52.2412 7.36715 51.974 7.22126 51.682 7.12503C47.162 5.44884 45.0231 11.1557 43.6127 14.2163C42.7382 16.1594 41.8389 18.1507 41.0855 20.19C40.938 12.613 40.8417 0.421817 33.1855 0.00897709C32.7475 -0.0158554 32.3343 0.00897709 31.9212 0.106755C31.3387 0.204533 30.8043 0.398537 30.2933 0.663934C28.4713 1.58739 27.0361 3.38464 26.3324 5.23C24.4607 10.2819 27.8624 15.4781 29.5648 20.0441C31.3868 24.902 31.6058 33.3279 34.3039 39.2551C31.4598 38.0647 28.7136 36.7036 26.1383 34.9809C21.8108 32.1143 8.9776 15.7931 1.9785 21.9624C1.61348 22.3039 1.24846 22.6919 0.93314 23.1544C0.908287 23.1777 0.908287 23.1777 0.883435 23.201C-1.81307 26.9413 2.31867 32.673 4.53054 35.5862" transform="translate(0 126.3104)" id="Fill-4" fill="#ABC7CA" stroke="none"/>
    <path d="M78.3607 78.7743C85.1822 84.7281 94.7465 89.8509 103.729 92.1188C98.3892 95.4428 93.9708 101.159 87.4643 102.588C81.493 103.877 74.5257 103.784 68.7731 101.672C64.2322 99.994 60.7121 97.3379 55.7849 96.6078C54.7175 96.4369 53.6254 96.3748 52.5565 96.2971C45.1036 90.7518 39.4239 83.5368 30.5391 80.0138C27.0423 78.6034 22.5029 77.2428 18.1094 76.9989C17.7696 77.6311 17.5509 78.3114 17.478 78.9933C24.4701 78.9685 31.6794 81.738 37.238 85.5793C41.1227 88.2821 44.8367 94.1536 49.4971 96.2971C37.7733 96.7165 27.019 102.914 17.284 109.78C17.5261 110.37 17.8674 110.96 18.353 111.457C18.474 111.364 18.5701 111.302 18.6927 111.193C22.4781 108.397 26.5334 105.943 30.7811 103.908C35.516 101.641 40.6371 99.7766 45.8079 98.8912C47.6525 98.5805 49.3528 98.4562 50.9787 98.4873C49.4971 101.982 47.7254 104.996 46.973 108.832C46.3664 112.017 46.0018 115.31 45.6621 118.509C45.2727 122.253 45.0058 126.198 45.3952 129.988C46.2454 130.05 47.0707 129.864 47.8232 129.429C47.4338 125.515 47.4105 121.6 47.8713 117.469C48.3072 113.461 48.6718 109.298 50.0556 105.493C50.9306 103.132 52.1438 100.988 52.8962 98.5805C56.7312 98.9222 60.2514 100.165 64.3051 102.029C71.2973 105.26 78.4585 106.285 86.1534 105.042C96.9805 103.318 101.666 93.6565 111.668 90.581C112.176 90.4412 112.08 89.6335 111.522 89.6335C109.24 89.6335 107.224 90.2393 105.332 91.2178C100.525 88.5928 95.1592 87.013 90.2801 84.4858C84.9402 81.7132 80.1091 78.2384 75.9825 73.8395C70.0111 67.4958 65.3244 59.8644 58.4316 54.4185C54.159 51.0401 49.2551 49.3407 44.2053 47.9785C44.2053 47.8325 44.1572 47.7113 44.0362 47.5902C41.7727 45.0754 40.4401 42.2716 39.5822 39.3126C38.8484 36.7776 38.6715 31.2075 38.791 30.8673C39.8599 27.829 40.589 24.3776 42.4088 21.6795C43.8656 19.5157 46.1725 18.2529 47.9193 16.3812C50.0556 14.1444 51.5124 11.2521 52.5316 8.28688C52.24 7.94671 51.9018 7.65624 51.4875 7.38907C50.4931 9.47982 49.5204 11.5209 48.09 13.391C46.5836 15.3606 44.6661 16.6483 42.8944 18.3259C40.1034 20.9261 38.8158 24.5236 37.7484 28.121C37.5064 26.1033 37.238 24.0607 36.8254 22.0942C35.1995 14.3386 31.048 7.8504 30.9502 0C30.3685 0.0978582 29.8348 0.292021 29.3244 0.557636C28.9846 8.45775 34.0096 15.8235 35.4415 23.5512C36.9712 32.0338 36.4856 40.5413 42.0691 47.396C37.1651 46.1316 32.165 45.0132 27.5046 42.8013C17.0653 37.8199 9.56432 29.359 1.04409 21.8736C0.679509 22.2154 0.314932 22.6037 0 23.0666C6.89438 30.9884 15.5604 38.5717 24.8098 43.5065C35.1995 49.072 47.9923 48.5858 57.3627 56.0231C65.5183 62.4895 70.5448 71.9677 78.3607 78.7743" transform="translate(0.935791 126.4779)" id="Fill-5" fill="#8CA7A8" stroke="none"/>
    <path d="M0.0326287 107.083C-0.0631487 109.949 0.0573454 112.863 0.32305 115.778C2.95847 122.481 6.02798 129.041 9.50841 135.374C15.6243 146.503 22.9481 158.113 32.2555 166.929C30.805 173.308 29.1366 179.625 27.2998 185.927C26.5506 188.566 25.7535 191.189 24.9301 193.812C22.4646 201.635 19.8539 209.753 21.5702 218.01C21.9085 219.609 24.0851 219.127 23.9878 217.591C23.359 206.493 27.2998 196.652 30.3214 186.206C30.3214 186.191 30.3446 186.144 30.3446 186.113C31.9404 180.619 33.2936 175.109 34.599 169.552C48.7895 162.847 63.1468 155.831 74.7745 145.012C82.6545 137.686 88.5772 128.436 93 118.547C92.7822 117.502 92.4918 116.531 92.1056 115.584C90.1236 119.64 88.2142 123.745 85.9418 127.659C82.412 133.775 77.7961 139.161 72.5021 143.833C61.6236 153.472 48.4017 159.804 35.3976 166.029C35.7112 164.554 36.0743 163.064 36.3879 161.589C38.3946 151.997 40.0382 142.327 41.4393 132.626C52.0768 125.176 61.9867 116.749 70.9542 107.325C75.8373 102.224 80.5273 96.7127 83.5721 90.397C82.9202 89.8631 82.1957 89.5713 81.4218 89.5232C71.7282 105.627 57.2982 118.109 41.9723 128.994C42.9641 121.873 43.8817 114.733 44.7282 107.592C45.3801 102.055 46.0336 96.4939 46.6855 90.9077C46.6855 90.9077 46.7349 90.9077 46.7349 90.8844C55.5804 80.2212 62.4455 68.1982 67.6669 55.3992C71.6308 45.7076 75.6195 34.9 77.603 24.2135C77.0469 23.0975 76.3687 22.0529 75.5716 21.1542C72.2611 31.937 69.9872 43.0131 65.7344 53.577C61.0196 65.2833 54.9285 76.2865 47.2169 86.2202C50.4563 57.9013 53.4532 29.4846 55.4352 1.0446C54.8312 0.630172 54.204 0.266969 53.5027 0C50.3837 26.1568 47.8703 52.3881 45.0665 78.6178C42.5516 65.3811 38.9507 52.4114 35.3498 39.4432C33.2689 31.9851 31.3858 24.5301 29.6448 17.0255C28.7257 17.3903 27.8312 17.8761 27.0094 18.5078C28.7736 25.7191 30.8776 32.8357 32.8348 39.8793C37.2344 55.7143 41.634 71.5509 44.0748 87.8236C43.2776 95.0861 42.479 102.345 41.6093 109.583C40.9326 115.146 40.2081 120.659 39.4342 126.197C32.0609 116.143 24.5918 106.232 17.6541 95.8373C13.545 89.6442 9.87143 83.2075 6.2458 76.7475C6.29369 77.1122 6.36629 77.477 6.41418 77.8402C6.8251 80.6092 7.28545 83.3534 7.81686 86.0743C9.99193 89.3773 12.1917 92.6073 14.3436 95.7892C18.6459 102.151 23.1412 108.394 27.6134 114.635C31.0707 119.421 34.4059 124.667 39.1438 128.265C37.4275 140.387 35.4208 152.447 32.8101 164.399C25.0753 153.953 17.0733 144.097 10.8864 132.487C7.71953 126.587 4.91573 120.49 2.47495 114.247C1.5558 111.916 0.806572 109.512 0.0326287 107.083" transform="translate(162.6479 86.87195)" id="Fill-6" fill="#304D63" stroke="none"/>
    <path d="M15.4228 49.0267C10.783 43.8602 5.99732 38.6472 3.3988 32.1213C1.01916 26.2278 -1.33721 15.9677 0.898079 9.66033C1.33582 8.37529 2.03901 7.35688 2.91449 6.62833C3.56956 6.02224 4.32241 5.60991 5.12339 5.3681C6.87281 4.85811 8.88922 5.14953 10.783 6.41132C16.7826 10.4137 17.2933 19.6771 18.6779 26.0077C20.1588 32.777 23.5847 37.3839 27.47 42.042C28.4899 37.4816 29.8497 32.946 30.0204 28.8707C30.1985 24.6981 28.9482 21.0624 27.6986 17.4285C26.7255 14.5988 25.7528 11.7702 25.4552 8.68997C25.2347 6.41132 25.3325 3.0879 27.81 2.11753C27.9559 2.06948 28.1018 2.02143 28.2477 1.99663C28.4899 1.92222 28.7569 1.89897 29.0239 1.89897C31.6721 1.89897 34.7564 4.73721 36.0433 6.43457C39.3 10.7532 39.8572 16.7923 40.1009 22.0317C40.3679 28.0941 39.421 33.7474 38.3764 39.6889C37.2726 45.905 37.7486 51.6607 38.2431 57.6399C38.3043 58.3793 38.3657 59.1222 38.4245 59.8697C39.5654 64.2596 39.955 68.8432 40.4657 73.6222C41.1441 80.2194 42.5303 86.3082 46.8782 91.5708C48.5531 93.6092 50.5214 95.3066 52.513 96.9791C53.168 92.8326 53.3869 88.6117 53.1199 84.3675C52.5611 81.7246 52.173 79.1033 52.0023 76.4852C51.9293 76.0961 51.8812 75.7086 51.7834 75.3211C51.7104 74.9801 51.7834 74.7383 51.9293 74.5445C51.7834 69.0385 52.4881 63.531 54.2376 58.0979C55.8162 53.0771 58.1959 48.2997 59.2406 43.1332C60.5274 36.7298 59.3616 30.8363 57.8808 24.6018C57.6825 23.7659 57.4353 22.8287 57.1691 21.8197C55.5125 15.5391 53.1222 6.47711 57.2241 1.75326C57.5889 1.34093 57.977 1.02626 58.3899 0.782896C58.9736 0.39537 59.6302 0.153554 60.2604 0.0558979C61.0629 -0.0650101 61.8639 0.0078447 62.5686 0.297714C67.4273 2.28804 73.7171 13.8332 73.669 22.2255C76.1216 19.2167 77.9673 15.9909 80.2755 12.838C82.3882 9.95175 85.4012 8.20478 88.1456 10.5594C88.4374 10.8012 88.7044 11.0911 88.9714 11.4057C89.1173 11.5778 89.2384 11.7468 89.3595 11.9157C92.1287 15.7739 90.5501 20.9637 87.6116 24.2871C85.4974 26.7115 82.7281 28.3623 80.0334 30.0101C76.7534 32.0237 74.13 34.0853 71.6045 36.4616C70.8268 39.4951 69.9032 42.4047 68.9314 45.122C67.0128 50.6047 64.925 56.0859 63.7577 61.7856C62.4957 68.1891 62.8356 74.4468 63.5404 80.8503C64.8272 79.928 66.2848 79.1282 67.8154 78.3996C75.392 74.7135 80.9554 69.8864 82.7778 61.2756C83.6766 56.9338 83.7728 51.8898 87.5138 48.833C88.5104 48.0316 89.7243 47.427 90.963 47.1356C91.7158 46.9666 92.4687 46.8922 93.1967 46.9899C94.2662 47.0875 95.3109 47.4751 96.2097 48.2517C100.218 51.6464 98.9774 59.3116 96.5977 65.7864C98.4682 64.4533 100.339 62.8769 102.695 62.5855C105.027 62.294 106.872 63.1435 107.965 64.6223C108.353 65.1571 108.645 65.8112 108.816 66.515C109.035 67.3644 109.058 68.31 108.889 69.33C108.038 74.2531 103.544 77.3564 99.0519 78.6926C95.9179 79.6629 90.963 80.7775 87.1971 79.7838C84.6235 81.7478 81.7579 83.3491 78.9157 84.8527C73.3042 87.8103 68.4471 90.771 64.3646 95.3066C64.1954 100.667 63.3215 105.931 61.1111 111.291C58.2455 118.228 54.1398 124.559 50.6425 131.181C49.4767 133.363 48.4072 135.595 47.437 137.874C47.3625 138.044 47.2895 138.24 47.2181 138.409C42.5535 149.833 41.1689 162.592 43.2102 174.742C45.2499 186.773 50.2296 198.004 54.0668 209.526C57.8311 220.849 59.0465 232.057 60.5274 243.822C62.3746 258.47 69.3211 270.112 74.4219 283.675C76.7286 289.782 78.3802 296.06 79.4745 302.478C80.3004 303.299 80.9554 304.26 81.3932 305.578C81.7083 306.523 80.9073 307.206 80.1529 307.206C80.7598 312.026 81.0517 316.925 80.9803 321.823C82.213 326.623 83.6093 331.935 84.9922 337.196C89.2496 353.393 93.3806 369.109 92.2265 367.939C89.6265 365.319 63.8555 291.704 62.4957 288.31C58.6817 278.823 55.1363 268.98 52.9988 258.935C50.4966 247.139 52.2211 234.831 48.4569 223.283C45.298 213.502 39.7361 204.699 36.02 195.118C29.0735 177.096 28.8065 156.672 35.1693 138.434C38.5456 128.779 44.2533 120.291 48.3591 110.977C49.5248 108.332 50.4484 105.664 51.2013 102.972C47.8484 98.7028 40.683 97.0287 36.0929 92.8559C30.6025 87.8614 28.9028 81.3355 28.0288 74.2035C26.742 63.531 22.4422 56.8625 15.4228 49.0267ZM77.944 309.36C77.75 307.438 77.5063 305.531 77.1911 303.64C76.6804 303.175 77.0452 305.454 77.944 309.36Z" transform="translate(123.7097 -0.0001220703)" id="Fill-11" fill="#ABC7CA" fill-rule="evenodd" stroke="none"/>
    <path d="M18.4994 123.82C21.2879 127.144 24.2453 130.346 27.3236 133.452C25.3592 133.404 23.4196 133.866 21.5544 135.103C19.7837 136.291 18.7658 137.893 18.2577 139.688C17.8689 141.022 17.748 142.479 17.8456 143.934C18.0145 147.38 19.226 150.97 20.3429 153.615C27.1299 169.385 42.6916 181.565 56.4608 192.459C52.4608 192.215 48.656 193.161 47.0804 195.715C46.5955 196.506 46.3275 197.483 46.3275 198.614C46.3539 199.793 46.6916 201.142 47.3717 202.692C51.3701 211.67 62.3028 219.174 70.3756 224.803C90.6654 238.913 114.277 248.169 135.147 261.504C135.099 261.612 135.076 261.705 135.051 261.829C135.584 261.705 136.117 261.628 136.7 261.628C137.426 261.628 138.202 261.798 138.978 262C139.051 261.612 138.929 261.147 138.47 260.853C138.3 260.729 138.13 260.636 137.959 260.543C138.906 257.426 139.875 254.356 140.845 251.224C141.33 249.72 141.79 248.185 142.275 246.665C149.959 222.089 157.522 197.048 157.982 171.569C158.105 164.194 157.595 156.794 156.238 149.515C155.027 143.011 153.669 134.229 148.941 128.988C145.039 124.647 138.785 124.67 134.494 127.63C135.875 120.231 134.009 112.442 128.796 106.499C126.154 103.514 122.616 101.185 119.051 100.651C118.3 100.505 117.55 100.482 116.774 100.53C114.641 100.675 112.531 101.573 110.737 103.49C110.518 81.3635 109.477 55.1364 95.0295 36.6479C90.9318 31.4071 83.3702 23.9103 75.5871 23.8126C74.8853 23.8126 74.182 23.8622 73.4787 23.9832C73.3578 24.0064 73.237 24.0312 73.1146 24.056C66.6188 25.2934 63.9759 30.5093 62.9813 36.1129C59.2726 22.4295 51.2741 7.70262 37.9898 1.78271C32.3414 -0.741551 26.329 -1.37107 24.8511 5.22798C23.8565 9.69195 24.123 14.4474 25.1423 19.0571C25.1903 19.3238 25.2384 19.5673 25.3112 19.834C24.3662 19.0091 23.3236 18.2803 22.2329 17.7717C19.5172 16.5096 16.4142 16.3639 13.0943 18.2803C5.36069 22.7458 8.99664 33.8089 10.8402 40.1893C14.2097 51.7857 18.9843 62.9712 25.0215 73.5256C21.2384 71.2696 17.1423 69.9361 12.9967 70.4199C7.10663 71.1487 3.34829 74.9568 1.48151 79.6393C1.07098 80.61 0.779731 81.6054 0.561295 82.6489C-0.0924641 85.4135 -0.166825 88.3006 0.294834 90.9458C2.42807 102.907 10.6698 114.432 18.4994 123.82" transform="translate(44.11719 17.75708)" id="Fill-12" fill="#4D6880" stroke="none"/>
    <path d="M1.64338 137.916C1.95838 137.82 2.2501 137.578 2.39441 137.19C3.14699 135.223 3.97406 133.233 4.84768 131.218C8.90233 121.534 13.5637 111.315 14.6809 101.168C15.1915 96.5563 15.1418 91.9446 14.9478 87.3081C15.0704 87.3329 15.2147 87.3081 15.3621 87.26C23.7864 84.0567 35.9271 81.6291 41.5599 73.9103C41.9974 73.3038 42.3605 72.7205 42.6771 72.1124C50.0105 73.7164 57.0026 70.9242 63 66.5064C62.8293 65.8021 62.5376 65.1475 62.1497 64.6124C61.3241 65.2204 60.4986 65.7773 59.6498 66.2892C54.3321 69.4925 49.1354 70.0493 43.2357 70.8265C44.2304 68.2298 44.2552 65.5353 43.9154 62.4531C43.2838 56.4577 45.1536 51.9421 47.3866 46.9674C46.6588 46.8697 45.9062 46.9441 45.1536 47.1132C43.8673 49.4199 42.8462 51.894 42.2395 54.4442C41.22 58.6914 42.5312 62.6951 42.0704 66.9206C40.7592 78.6198 24.0285 81.9936 14.8765 85.4389C14.5118 77.9884 13.9035 70.5116 14.6561 63.0596C15.4102 55.5363 18.5913 49.637 20.922 42.6225C21.9166 39.6612 21.9166 36.4564 23.0339 33.5448C24.4428 29.8312 27.0156 27.4765 30.1966 25.2195C34.9309 21.8704 42.3124 18.0095 43.5507 11.8683C43.4297 11.6992 43.3087 11.5301 43.1628 11.3579C42.8959 11.043 42.629 10.753 42.3373 10.511C38.7916 20.2913 28.0366 21.8208 22.8151 30.1229C23.4699 25.2443 20.728 20.389 18.8333 15.875C16.5989 10.632 15.4335 5.38889 14.4621 0C13.8321 0.097726 13.1758 0.339714 12.5923 0.727515C14.7058 11.6744 21.2851 21.3834 21.479 32.6219C21.479 32.6467 21.5039 32.6715 21.5039 32.6715C20.9452 34.2243 20.6783 35.8266 20.3866 37.4275C19.707 41.093 18.3228 44.152 16.7696 47.5491C14.6561 52.1608 13.1758 56.8222 12.569 61.8714C11.0142 74.2748 13.6847 86.7496 12.6653 99.1531C11.5977 112.044 4.65372 124.616 0.0885508 136.557C-0.324207 137.626 0.793032 138.233 1.64338 137.916" transform="translate(168.7542 0.1826172)" id="Fill-13" fill="#8CA7A8" stroke="none"/>
    <path d="M93.3046 170.776C83.5962 165.16 73.8893 159.573 64.1808 153.936C48.6355 144.896 32.5538 136.149 17.3474 126.355C17.2494 124.898 17.3707 123.438 17.761 122.103C33.6235 131.41 49.0973 141.471 64.9349 150.801C74.2531 156.268 83.548 161.759 92.8661 167.226C100.165 171.527 107.975 175.537 115.127 180.281C115.006 180.079 114.884 179.893 114.763 179.691C103.717 163.047 91.431 147.179 81.6495 129.708C64.0596 122.32 49.0009 107.111 35.0104 94.5483C23.6243 84.2697 11.9692 74.4771 0 64.9764C0.219233 63.9313 0.511544 62.9344 0.923577 61.9623C12.8694 71.4148 24.5494 81.1825 35.9107 91.413C43.2822 98.047 50.6786 104.681 58.4155 110.876C65.2039 116.297 72.5024 120.889 79.5567 125.87C69.1688 106.162 62.8188 84.6827 54.7165 63.9795C45.9099 41.4531 33.4773 21.0185 21.7507 0C22.8453 0.509351 23.8917 1.23921 24.8402 2.06536C24.7671 1.79826 24.7189 1.55445 24.6707 1.28735C35.5453 17.9329 45.3999 35.3797 53.2332 53.5797C62.5032 75.1324 68.707 97.9259 78.9736 119.066C80.2393 121.69 81.5764 124.265 82.9882 126.793C82.2341 117.486 82.8421 107.864 82.8187 98.5812C82.7939 87.3786 82.6959 76.1527 82.5995 64.9268C82.4767 53.4586 81.8687 42.3289 79.2659 31.1263C77.3193 22.8416 74.7165 14.6283 72.818 6.2939L73.1834 6.22092C73.8893 6.09979 74.5952 6.0501 75.2995 6.0501C80.9934 23.5932 84.6908 42.2078 84.9831 60.5056C85.1774 71.6819 85.2023 82.8596 85.3734 94.0126C85.5428 105.847 86.7354 118.312 85.5428 130.074C85.518 130.341 85.3967 130.559 85.2256 130.729C94.009 145.94 104.593 160.057 114.496 174.565C116.564 177.627 118.534 180.716 120.455 183.806C121.186 149.999 118.922 116.514 116.637 82.8845C117.416 82.8363 118.168 82.8596 118.922 83.0056C123.983 117.728 124.422 153.448 123.497 188.325C123.497 188.465 123.448 188.589 123.4 188.713C129.004 198.217 133.892 207.969 138.062 218.187C138.914 206.463 140.859 194.707 142.122 183.061C143.54 169.97 143.803 156.223 146.69 143.376C146.895 142.466 148.099 142.575 148.128 143.513C148.531 156.646 146.015 170.246 144.585 183.293C143.153 196.338 142.324 209.77 139.766 222.659C140.6 224.834 141.461 227.008 142.231 229.244C142.718 230.533 143.131 231.822 143.568 233.126C147.802 246.031 151.914 258.935 156.61 271.669C161.208 284.201 166.998 296.422 170.964 309.156C171.232 310.01 169.918 310.305 169.528 309.622C163.543 299.14 159.505 287.431 155.296 276.157C151.087 264.867 147.194 253.438 143.52 241.946C142.644 239.198 141.744 236.48 140.796 233.809C139.822 231.014 138.824 228.234 137.803 225.501C128.727 220.998 120.213 215.407 111.356 210.5C100.992 204.786 90.4079 199.568 79.5334 194.925C69.2667 190.577 58.8773 186.57 48.6106 182.237C47.7353 181.88 46.835 181.492 45.9332 181.119C45.9332 179.986 46.2022 179.007 46.6888 178.215C48.3432 178.961 49.9976 179.691 51.6752 180.39C61.9434 184.691 72.3313 188.713 82.5746 193.123C101.04 201.152 120.286 210.656 136.66 222.597C131.526 209.429 125.516 196.85 117.901 184.644C109.386 180.762 101.357 175.416 93.3046 170.776" transform="translate(44.03833 35.41077)" id="Fill-23" fill="#304D63" stroke="none"/>
    <path d="M1.65509 0.134822C8.72082 4.02744 15.3025 8.89629 22.042 13.3154C28.8185 17.7591 35.7822 21.9617 42.4134 26.6172C43.7108 27.5274 42.6562 29.6242 41.1901 28.8199C27.2535 21.1605 12.5282 12.1289 0.359159 1.89233C-0.60892 1.07728 0.569476 -0.463807 1.65509 0.134822" transform="translate(117.1909 177.7769)" id="Fill-24" fill="#1F2844" stroke="none"/>
    <path d="M0.644031 11.4293C-1.15431 16.4462 0.716532 23.4617 7.48276 25.618C14.6477 27.9024 21.5621 19.4956 22.8278 12.2443C23.8349 6.45922 20.3312 1.11755 14.7849 0.161947C8.86343 -0.856108 3.69065 2.92881 0.644031 11.4293" transform="translate(155.5903 126.6676)" id="Fill-25" fill="#1F2844" stroke="none"/>
    <path d="M0.50669 74.1965C5.17895 72.5213 10.0007 71.8515 14.8979 71.1506C18.6656 70.6098 22.5273 69.8669 26.3613 69.6805C25.6848 68.905 25.0129 68.1357 24.3457 67.3929C18.5485 60.9451 12.2351 54.6932 7.22383 47.5958C6.85554 47.0736 7.45036 46.1505 8.03285 46.6556C14.0581 51.9005 19.2204 58.2053 24.5861 64.1169C28.7575 68.7123 33.0584 72.8942 37.5211 77.0715C37.2098 76.15 36.8801 75.2346 36.5734 74.3115C28.6759 50.564 20.5225 25.7038 17.4313 0.762844C17.3281 -0.0763451 18.4761 -0.309453 18.7057 0.503317C24.1022 19.5514 28.5218 38.7921 34.1926 57.7578C36.0726 53.3054 38.1021 48.9136 40.2055 44.5654C41.9853 40.8885 43.551 36.8029 46.4388 33.8766C46.7269 33.586 47.351 33.8549 47.2678 34.2884C46.4665 38.5201 43.9717 42.3493 42.1209 46.1972C39.9882 50.6386 38.0034 55.1438 35.9786 59.6351C35.7721 60.0919 35.3899 60.3002 34.9939 60.3515C35.5194 62.0687 36.0356 63.7859 36.5842 65.4985C43.5248 87.1434 51.4608 108.449 59.8253 129.572C76.3215 171.205 94.5144 212.155 110.656 253.943C119.609 277.114 127.892 300.549 134.936 324.388C135.452 326.129 132.697 326.673 132.185 324.948C107.48 241.355 67.1789 163.684 38.9974 81.3716C34.849 79.0794 31.4003 75.4289 28.1735 71.7551C24.0729 72.9906 19.7227 73.5128 15.5174 74.2478C10.6325 75.1025 5.83233 76.0412 0.862657 75.9744C-0.0141623 75.9619 -0.37167 74.512 0.50669 74.1965" transform="translate(105.2683 86.53931)" id="Fill-26" fill="#1F2844" stroke="none"/>
    <path d="M0.958219 17.787C2.36888 22.8487 8.06671 27.5112 15.079 25.5362C22.5043 23.4461 23.4579 12.8158 20.2867 6.23679C17.7554 0.986149 11.6493 -1.41879 6.37706 0.86022C0.74859 3.2928 -1.43124 9.21148 0.958219 17.787" transform="translate(115.2634 80.40283)" id="Fill-27" fill="#1F2844" stroke="none"/>
    <path d="M6.0058 20.7498C9.7661 24.39 16.9124 25.7087 21.7768 20.7934C26.9263 15.5864 22.3062 6.13178 16.2969 2.01943C11.5014 -1.26143 5.16322 -0.479558 1.91191 3.89141C-1.56022 8.55709 -0.365254 14.5835 6.0058 20.7498" transform="translate(93.41211 112.9342)" id="Fill-28" fill="#1F2844" stroke="none"/>
    <path d="M17.4931 20.2575C22.5848 19.0523 27.3989 13.7298 25.6245 6.95977C23.7458 -0.20783 13.1606 -1.42392 6.50459 1.42449C1.19206 3.69824 -1.38138 9.47426 0.747306 14.5871C3.01709 20.0432 8.86485 22.2983 17.4931 20.2575" transform="translate(89.1123 153.2589)" id="Fill-29" fill="#1F2844" stroke="none"/>
    <path d="M10.0179 21.9727C14.7197 24.1881 21.6842 23.0063 24.38 16.5996C27.2323 9.81755 19.7041 2.29704 12.7928 0.398369C7.2765 -1.11717 1.78606 1.81194 0.365202 7.13871C-1.15139 12.8239 2.05352 18.2187 10.0179 21.9727" transform="translate(109.3926 169.9222)" id="Fill-30" fill="#1F2844" stroke="none"/>
    <path d="M0.110638 13.575C-0.655968 18.7592 2.5663 25.1642 9.62002 25.9489C17.0877 26.7781 22.1942 17.3464 21.9943 10.1137C21.8353 4.33987 17.3459 -0.13949 11.7246 0.0033217C5.72402 0.155347 1.40773 4.79441 0.110638 13.575" transform="translate(142.0164 104.5956)" id="Fill-31" fill="#1F2844" stroke="none"/>
    <path d="M16.3418 20.7902C21.5205 20.1811 26.881 15.4177 25.878 8.45215C24.8169 1.06961 14.4673 -1.3652 7.55636 0.711967C2.04136 2.37058 -1.15113 7.84306 0.385485 13.2C2.0276 18.9161 7.56706 21.8366 16.3418 20.7902" transform="translate(104.9197 207.2878)" id="Fill-32" fill="#1F2844" stroke="none"/>
    <path d="M1.02961 0.0786283C9.10235 -0.226719 17.2771 0.439493 25.3483 0.675443C33.4644 0.925272 41.6129 0.897513 49.7165 1.36941C51.3014 1.46657 51.5071 3.57624 49.8341 3.64563C33.9221 4.28409 16.6138 4.22857 0.850247 2.0495C-0.403726 1.86907 -0.208905 0.134146 1.02961 0.0786283" transform="translate(121.9526 215.2264)" id="Fill-33" fill="#1F2844" stroke="none"/>
    <path d="M53.6684 133.253C55.2936 136.65 59.1445 141.567 63.4984 140.947C68.2826 140.264 71.9616 133.238 73.658 129.391C76.5461 122.814 77.6172 115.462 78.0072 108.358C78.4112 100.974 78.1961 93.4514 77.5661 86.0836C77.5058 85.4011 77.3757 84.7031 77.2256 84.0206C82.8007 93.1877 89.4174 101.75 97.1238 109.133C102.301 114.097 108.331 118.61 115.306 120.627C119.031 121.697 124.171 122.411 126.832 118.843C129.896 114.748 126.951 108.047 124.252 104.744C111.809 89.4806 88.0895 79.5534 82.2048 76.0479C87.995 77.3819 106.819 81.2286 112.807 81.4613C119.865 81.7405 141.245 83.3071 141.985 72.3097C142.29 67.796 138.011 65.4398 134.425 63.9833C128.036 61.3868 121.02 59.7193 114.157 60.1645C100.665 61.0347 89.4097 62.8805 79.3399 66.5923C82.9802 62.9581 96.3871 46.2727 104.83 32.6881C108.056 27.498 117.078 11.3757 106.081 8.44104C95.1179 5.51254 86.2383 21.807 82.4261 29.2399C77.4392 38.9577 74.2012 49.392 72.6736 60.1335C70.4371 48.1883 67.4963 36.3595 62.0311 25.4614C58.8133 19.0476 54.7581 12.9734 49.7278 7.83921C46.5162 4.56325 41.3776 -0.850135 36.1832 0.113107C24.0208 2.36532 37.9817 25.8756 40.9287 30.5956C49.5684 44.4284 69.7638 70.1692 69.7715 70.1847C69.8706 70.4019 69.982 70.6035 70.0826 70.8051C58.1833 61.8816 45.7392 53.0821 31.1545 49.3625C23.2701 47.3507 3.96779 44.2237 0.493034 54.9869C-3.43677 67.1445 17.1982 69.2075 24.3814 70.3088C36.8627 72.2322 51.9458 74.14 64.5617 74.3882C53.5818 78.3746 40.243 81.7095 31.656 89.8063C25.841 95.2972 14.9926 108.559 21.0522 117.044C27.4228 125.963 38.8748 119.2 44.2069 113.182C49.0901 107.66 65.512 87.0919 69.6044 80.8409C64.6437 88.0846 53.6979 107.318 52.6485 113.538C51.5666 119.944 50.7586 127.157 53.6684 133.253" transform="translate(122.0859 147.0441)" id="Fill-34" fill="#F5E4D5" stroke="none"/>
    <path d="M4.33098 1.14979C10.8133 -2.82679 19.17 4.22915 16.4838 11.35C15.1994 14.768 11.3033 16.9517 7.74658 16.9991C3.96944 17.0624 1.54966 13.597 0.442836 10.3372C-0.965267 6.19133 1.16116 2.69421 4.33098 1.14979" transform="translate(186.2915 211.932)" id="Fill-39" fill="#F5C16E" stroke="none"/>
    <path d="M0.200946 0.738548C0.371089 0.108865 1.2029 -0.113899 1.78107 0.0539168C2.92953 0.389549 3.77552 1.10982 4.43561 2.00682C4.78062 1.23754 5.36667 0.808348 6.34499 1.09794C7.81326 1.53456 7.8747 3.64192 7.95505 4.81218C8.0606 6.34332 8.09683 8.54869 6.6774 9.48727C4.68767 10.8031 3.33756 9.29569 2.57349 8.219C0.958712 5.94234 -0.556819 3.54687 0.200946 0.738548" transform="translate(121.4961 77.42957)" id="Fill-40" fill="#48588A" stroke="none"/>
    <path d="M4.56099 0.0867654C5.1382 -0.2045 5.79411 0.28564 6.00692 0.843117C6.42671 1.94867 6.37569 3.08085 6.08126 4.18798C6.86836 3.93899 7.53885 4.10185 7.89304 5.04925C8.42215 6.46956 6.85961 7.92432 6.01858 8.76993C4.9181 9.87392 3.26665 11.3772 1.72161 10.9137C-0.444372 10.2654 -0.0930931 8.21872 0.275677 6.91116C1.05549 4.14883 1.98543 1.3818 4.56099 0.0867654" transform="translate(170.6975 121.1051)" id="Fill-41" fill="#48588A" stroke="none"/>
    <path d="M0.0436199 2.70893C-0.158495 2.12595 0.377035 1.5486 0.924367 1.40531C2.01018 1.12155 3.06354 1.29012 4.06231 1.69048C3.9251 0.910831 4.1582 0.287115 5.08616 0.0497095C6.47883 -0.307101 7.65316 1.3435 8.34064 2.23834C9.24204 3.40991 10.4488 5.15042 9.83068 6.57906C8.96321 8.58226 7.09107 8.02878 5.91232 7.53711C3.42203 6.49478 0.945021 5.31196 0.0436199 2.70893" transform="translate(91.73389 111.5166)" id="Fill-42" fill="#48588A" stroke="none"/>
    <path d="M3.10803 0.182218C3.65936 -0.217468 4.461 0.097756 4.80637 0.574362C5.49078 1.52305 5.6809 2.59994 5.60802 3.70548C6.39065 3.29826 7.13685 3.30429 7.71669 4.11723C8.58646 5.3359 7.24141 7.05077 6.53007 8.03113C5.6001 9.31314 4.16949 11.0914 2.42837 10.9963C-0.00982969 10.8636 -0.0795379 8.86218 0.0297773 7.55C0.262666 4.77784 0.652398 1.96949 3.10803 0.182218" transform="translate(155.0574 98.14014)" id="Fill-43" fill="#48588A" stroke="none"/>
    <path d="M0.727145 7.6879C0.0606653 7.47279 -0.131588 6.60749 0.084697 6.02524C0.512461 4.86882 1.33915 4.04882 2.34528 3.42937C1.53621 3.02664 1.10845 2.39749 1.48014 1.41413C2.03767 -0.0625299 4.30947 0.00863427 5.57514 0.00054743C7.23013 -0.00915678 9.60766 0.0943547 10.5337 1.60821C11.833 3.7302 10.13 5.01924 8.92356 5.73412C6.3762 7.2415 3.70547 8.64214 0.727145 7.6879" transform="translate(87.10059 159.9229)" id="Fill-44" fill="#48588A" stroke="none"/>
    <path d="M0.128037 4.11254C-0.216588 3.54644 0.187772 2.81837 0.708539 2.5444C1.73935 1.99949 2.84675 1.94045 3.95414 2.1342C3.6279 1.3471 3.7152 0.638713 4.59745 0.178564C5.92234 -0.510147 7.50761 0.961121 8.41896 1.74519C9.61213 2.77447 11.251 4.33051 10.9677 5.97282C10.5694 8.27508 8.54149 8.11312 7.22885 7.86185C4.45806 7.33056 1.66583 6.64488 0.128037 4.11254" transform="translate(105.824 169.6404)" id="Fill-45" fill="#48588A" stroke="none"/>
    <path d="M0.744463 7.71179C0.0736709 7.51872 -0.130623 6.6499 0.0784968 6.07068C0.493519 4.91225 1.31391 4.0917 2.31608 3.46421C1.4989 3.07807 1.06136 2.45058 1.42169 1.46914C1.96218 -0.011082 4.24481 0.0371859 5.514 0.00500729C7.17731 -0.0271714 9.56449 0.0532753 10.5136 1.54958C11.8439 3.64119 10.1516 4.94443 8.95 5.66845C6.41161 7.19693 3.74774 8.62888 0.744463 7.71179" transform="translate(99.91528 214.161)" id="Fill-46" fill="#48588A" stroke="none"/>
    <path d="M0.144755 4.49944C0.608499 5.81147 1.14383 7.23284 1.7274 8.74792C2.11644 9.84128 2.55685 10.9659 3.01748 12.153C4.06479 14.8395 5.18525 17.7135 6.35394 20.6499C6.71965 21.509 7.06201 22.3837 7.40126 23.274C8.66799 26.4135 9.93473 29.6155 11.1517 32.7081C11.5174 33.6297 11.8831 34.5512 12.2223 35.4571C13.002 37.472 13.7318 39.4245 14.3901 41.2363C14.5846 41.8142 15.2911 42.0642 15.8265 41.9861C22.157 41.2519 26.5657 40.5491 32.6037 39.2214C33.7008 38.9871 34.2113 38.2062 33.9187 37.3471C33.3834 35.7539 32.7998 34.1607 32.1664 32.5519C31.8256 31.6772 31.4833 30.7869 31.1191 29.9435C29.7792 26.6634 28.2946 23.3833 26.8334 20.1813C26.4194 19.2286 25.9806 18.307 25.5666 17.4011C24.3497 14.7614 23.181 12.1998 22.1337 9.7788C21.7446 8.8885 21.3789 8.01381 21.0132 7.15474C20.2834 5.37413 19.65 3.71847 19.138 2.15652C18.847 1.26622 18.237 -0.17077 17.0932 0.0166632C11.1766 1.04755 7.20673 1.21936 1.43639 1.82852C0.217896 1.95347 -0.269191 3.37484 0.144755 4.49944" transform="translate(174.7185 277.3362)" id="Fill-47" fill="#F5E4D5" stroke="none"/>
    <path d="M0 1.59375C0.381301 2.6875 0.812934 3.8125 1.26439 5C7.56654 4.54688 13.89 3.75 20 2.625C19.6187 1.73438 19.2603 0.859375 18.9019 0C12.6256 0.375 6.27774 0.890625 0 1.59375" transform="translate(176.926 284.6432)" id="Fill-48" fill="#F5AE9D" stroke="none"/>
    <path d="M0 3.31915C0.357143 4.19681 0.691489 5.09043 1.0228 6C3.04407 5.69681 5.06535 5.34575 7.06383 5.01064C11.3207 4.32447 15.6717 3.6383 20 2.84043C19.5957 1.86702 19.1672 0.925532 18.7629 0C14.696 0.702128 10.6307 1.77128 6.84954 2.37766C4.56687 2.72872 2.28267 3.04787 0 3.31915" transform="translate(180.7209 295.4059)" id="Fill-49" fill="#F5AE9D" stroke="none"/>
    <path d="M0 3.0085C0.365447 4.01133 0.730895 5.01416 1.06991 6C5.64499 5.47309 10.1952 4.70822 14.6739 3.92635C16.7655 3.55241 18.8835 3.21246 21 2.83853C20.6594 1.88669 20.3173 0.917847 19.9534 0C18.0795 0.424929 16.2554 0.815864 14.4795 1.10482C9.66025 1.90368 4.81768 2.44759 0 3.0085" transform="translate(185.6167 308.0603)" id="Fill-50" fill="#F5AE9D" stroke="none"/>
    <path d="M2.23272 3.45032C3.0188 7.40477 3.14118 11.5566 4.02611 15.4879C5.44921 21.7595 7.83099 27.6704 11.9057 32.7364C16.448 38.3805 24.0845 42.9162 28.6754 48.8502C28.5515 40.6715 30.7371 32.5437 31.4981 24.4374C32.0629 18.6237 32.1116 12.9071 29.2387 7.62369C27.7419 4.92109 26.1462 2.84597 25.6064 0.0971268C25.8512 0.0231254 26.1211 0 26.3909 0C27.7905 3.66769 30.6147 6.53833 32.1116 10.2523C33.144 12.7868 33.5614 15.5588 33.7073 18.2614C34.1749 27.7428 31.007 37.0547 30.6383 46.4868C30.5661 48.6821 30.7622 50.805 31.1058 52.9033C31.1545 53.0235 31.2282 53.1207 31.2769 53.2656C31.302 53.3627 31.2769 53.4352 31.2031 53.5076C32.3328 59.8995 34.8134 65.9553 35.4269 72.5645C36.0153 78.8855 37.2188 83.1544 41.5163 87.9075C44.2229 90.9061 47.1256 93.7521 50 96.5903C49.8635 97.3936 49.738 98.1999 49.5936 99C43.8777 93.4283 36.1612 87.7117 34.1497 79.8259C32.9965 75.2425 33.5112 70.4416 32.4317 65.8582C31.473 61.7095 29.5839 57.9462 28.9939 53.7004C28.9202 53.1438 28.8967 52.5903 28.8465 52.0353C25.6064 49.3821 22.7335 46.126 19.6394 43.3741C15.6133 39.7573 11.5872 36.0896 8.49468 31.651C3.60718 24.607 0.0972793 13.8953 0 4.70371C0.662127 4.10091 1.4231 3.69082 2.23272 3.45032" transform="translate(126.4397 2.545898)" id="Fill-52" fill="#8CA7A8" stroke="none"/>
  </g>
</svg>