<?xml version="1.0" encoding="UTF-8"?>
<svg width="36px" height="26px" viewBox="0 0 36 26" version="1.1" xmlns="http://www.w3.org/2000/svg" xmlns:xlink="http://www.w3.org/1999/xlink">
    <title>social-video-youtube-clip</title>
    <g id="Sepalika-Web" stroke="none" stroke-width="1" fill="none" fill-rule="evenodd" stroke-linecap="round" stroke-linejoin="round">
        <g id="Homev3" transform="translate(-401.000000, -8831.000000)" stroke="#FFFFFF">
            <g id="CONTENT" transform="translate(-327.000000, 523.000000)">
                <g id="SECTION_Contact" transform="translate(309.500000, 7515.000000)">
                    <g id="SOCIAL" transform="translate(183.000000, 793.000000)">
                        <g id="social-video-youtube-clip" transform="translate(236.000000, 1.000000)">
                            <path d="M34.4347826,5.1585 L34.4347826,5.157 C34.4347826,2.308875 32.1302154,0 29.2874796,0 C29.2869805,0 29.2864814,0 29.2859822,0 L5.14574654,0 L5.14574669,0 C2.30301086,0.00082844167 -0.000821608064,2.31036022 9.39746098e-07,5.15850022 C9.39746098e-07,5.15850029 9.39746098e-07,5.15850036 9.39746098e-07,5.15850044 L9.39746098e-07,18.8400004 L9.39746098e-07,18.8399162 C-0.00169837118,21.6880412 2.30142392,23.9982962 5.14415974,24 C5.14465916,24 5.14515858,24 5.145658,24 L29.2875406,24 L29.2875406,24 C32.1302764,24 34.4347826,21.6911469 34.4347826,18.8430069 C34.4347826,18.8420066 34.4347826,18.8410063 34.4347826,18.8400061 L34.4347826,5.1585 Z M13.4744572,17.9085 L13.4744572,4.9185 L23.608745,11.415 L13.4744572,17.9085 Z" id="Shape"></path>
                        </g>
                    </g>
                </g>
            </g>
        </g>
    </g>
</svg>