<?xml version="1.0" encoding="UTF-8"?>
<svg width="20px" height="25px" viewBox="0 0 20 25" version="1.1" xmlns="http://www.w3.org/2000/svg" xmlns:xlink="http://www.w3.org/1999/xlink">
    <title>social-pinterest</title>
    <g id="Sepalika-Web" stroke="none" stroke-width="1" fill="none" fill-rule="evenodd" stroke-linecap="round" stroke-linejoin="round">
        <g id="Homev3" transform="translate(-364.000000, -8831.000000)" stroke="#FFFFFF">
            <g id="CONTENT" transform="translate(-327.000000, 523.000000)">
                <g id="SECTION_Contact" transform="translate(309.500000, 7515.000000)">
                    <g id="SOCIAL" transform="translate(183.000000, 793.000000)">
                        <g id="social-pinterest" transform="translate(199.500000, 0.000000)">
                            <path d="M9.637,0.499997825 C3.36,0.499997825 0.2,4.99999783 0.2,8.752 C0.2,11.025 1.061,13.052 2.905,13.799 L2.90499996,13.799 C3.12654396,13.91642 3.40132796,13.8320117 3.51874896,13.610468 C3.54219056,13.5662394 3.55815636,13.5184385 3.56600016,13.469 C3.62800016,13.238 3.77300016,12.653 3.83700016,12.408 L3.83700017,12.4079999 C3.94199417,12.1475509 3.86494377,11.8490819 3.64700017,11.6719999 L3.64700035,11.6720002 C3.04520735,10.9466752 2.73442535,10.0236002 2.77500035,9.08200015 L2.7750003,9.08199594 C2.7331735,5.62660594 5.5004203,2.79154594 8.9558103,2.74971594 C9.0622283,2.74842777 9.1686613,2.74985493 9.2750073,2.753996 C12.8230073,2.753996 14.7750073,4.921996 14.7750073,7.816996 C14.7750073,11.624996 13.0880073,14.840996 10.5850073,14.840996 L10.5850072,14.840996 C9.45698721,14.8971638 8.49700721,14.028252 8.44083721,12.900226 C8.43078391,12.698324 8.45072281,12.496047 8.50000351,12.299994 C8.90000351,10.624994 9.66700351,8.82099401 9.66700351,7.61299401 L9.66700352,7.61299387 C9.78528952,6.64263287 9.09454652,5.76011387 8.12418352,5.64182387 C8.04483712,5.6321516 7.96492652,5.62786537 7.88500052,5.62899467 C6.47200052,5.62899467 5.33700052,7.08999467 5.33700052,9.04899467 L5.33700049,9.0489971 C5.3279913,9.7676951 5.47183649,10.4800971 5.75900149,11.1389971 L4.05900149,18.3389971 L4.05900122,18.3389986 C3.75989722,19.9978486 3.74636922,21.6955986 4.01900132,23.3589986 L4.01900132,23.3589986 C4.03462022,23.4549376 4.12505632,23.5200496 4.22099532,23.5044306 C4.26560412,23.4971683 4.30570932,23.4730232 4.33300132,23.4369982 L4.33300151,23.436998 C5.37549151,22.146358 6.18279151,20.682378 6.71800151,19.111998 C6.88000151,18.522998 7.64700151,15.479998 7.64700151,15.479998 L7.64700141,15.4799978 C8.37322441,16.5412078 9.58857141,17.1611278 10.8740014,17.1259978 C15.1190014,17.1209969 18.0000014,13.2499978 18.0000014,8.06899783 C18.0000014,4.15099783 14.6820014,0.499997825 9.63700141,0.499997825 L9.637,0.499997825 Z" id="Path"></path>
                        </g>
                    </g>
                </g>
            </g>
        </g>
    </g>
</svg>