<?xml version="1.0" encoding="UTF-8"?>
<svg width="52px" height="24px" viewBox="0 0 52 24" version="1.1" xmlns="http://www.w3.org/2000/svg" xmlns:xlink="http://www.w3.org/1999/xlink">
    <title>social-music-soundcloud</title>
    <g id="Sepalika-Web" stroke="none" stroke-width="1" fill="none" fill-rule="evenodd" stroke-linecap="round" stroke-linejoin="round">
        <g id="Homev3" transform="translate(-450.000000, -8830.000000)" stroke="#FFFFFF">
            <g id="social-music-soundcloud" transform="translate(450.000000, 8831.000000)">
                <path d="M27.9927273,21.8741818 C28.4138182,21.8741818 44.9912727,21.8741818 45.1003636,21.8741818 L45.1003636,21.8741818 C48.5092581,21.8710383 51.2701745,19.10504 51.2670354,15.6961236 C51.2638891,12.2872291 48.4978909,9.52631273 45.0889745,9.52945455 C44.273341,9.53020669 43.4659439,9.69260655 42.7134545,10.0072684 L42.7134544,10.0072678 C42.1794086,4.01573324 36.8893744,-0.408426758 30.8978617,0.125616878 C29.8776893,0.216548296 28.8754406,0.450923787 27.9207272,0.821815423 C27.4516363,1.00072451 27.3272726,1.18617906 27.3228954,1.54617906 L27.3228954,21.1454518 L27.3228954,21.1454552 C27.3206044,21.5264051 27.6129359,21.8444443 27.9927315,21.8741818 L27.9927273,21.8741818 Z" id="Path"></path>
                <line x1="22.9527273" y1="2.22909091" x2="22.9527273" y2="21.8654545" id="Path"></line>
                <line x1="18.5890909" y1="4.41090909" x2="18.5890909" y2="21.8654545" id="Path"></line>
                <line x1="14.2254545" y1="5.50181818" x2="14.2254545" y2="21.8654545" id="Path"></line>
                <line x1="9.86181818" y1="9.86545455" x2="9.86181818" y2="21.8654545" id="Path"></line>
                <line x1="5.49818182" y1="9.86545455" x2="5.49818182" y2="21.8654545" id="Path"></line>
                <line x1="1.13454545" y1="12.0472727" x2="1.13454545" y2="20.7527273" id="Path"></line>
            </g>
        </g>
    </g>
</svg>