<svg width="150px" height="351px" viewBox="0 0 150 351" version="1.1" xmlns:xlink="http://www.w3.org/1999/xlink" xmlns="http://www.w3.org/2000/svg">
  <desc>Created with Lunacy</desc>
  <g id="Group-2" transform="matrix(-1 0 0 1 150 0)">
    <path d="M27.8208 0.864902C23.2669 1.1249 18.7042 1.3649 14.1194 1.7249C11.827 1.9089 9.53905 2.0529 7.23782 2.2609L0.312057 2.9809C-0.0943012 3.0209 -0.107552 3.1689 0.29439 3.1449L7.1539 2.6969C9.42862 2.5929 11.6945 2.5409 13.9604 2.4649C18.4966 2.2969 22.9975 2.2489 27.516 2.1289C30.6034 2.0729 30.9347 0.708902 27.8208 0.864902" transform="translate(39 0)" id="Fill-119" fill="#628D40" stroke="none"/>
    <path d="M0 0.0574042C0 0.0574042 5.44583 3.62499 7.69689 9.00912C9.94796 14.3889 12.0951 22.7991 25.3071 27.2357C38.5104 31.6766 44.1424 36.7638 42.8091 32.2268C41.4758 27.6942 32.346 15.9565 21.766 8.66416C11.186 1.36741 9.16441 4.07476 6.64929 3.86953C4.13849 3.66866 3.55841 -0.536466 0 0.0574042" transform="translate(90 266)" id="Fill-811" fill="#79A140" stroke="none"/>
    <path d="M1.89231 1.91285C1.78831 1.87285 1.91631 1.96085 2.14431 2.09685C2.05231 2.00485 1.96831 1.94085 1.89231 1.91285" transform="translate(112 274)" id="Fill-812" fill="#6E9540" stroke="none"/>
    <path d="M1.13435 11.98C-0.277253 11.637 -0.253528 12.0535 0.561011 12.8416C1.83027 13.5071 3.23792 14.1278 4.83932 14.6749C16.8992 18.8275 22.0435 23.5844 20.8256 19.342C19.9122 16.1775 15.0211 9.23612 8.56801 3.08687C6.12835 1.55569 4.21853 0.420566 3.55029 0C4.89072 1.33928 8.22796 8.84822 9.03854 10.4774C9.90449 12.2291 6.36164 13.2499 1.13435 11.98" transform="translate(112 278)" id="Fill-813" fill="#6E9540" stroke="none"/>
    <path d="M0 0C0.157011 0.70918 0.342569 1.40955 0.561433 2.11432C2.03638 3.57233 3.53988 5.40034 4.50574 7.52788C5.22418 9.10481 5.94263 10.9372 6.93703 12.8577C8.64987 13.2674 10.2723 12.8489 9.22558 10.8579C7.81724 8.17979 11.7568 5.77475 13.0271 6.56321C13.6362 6.94203 15.82 6.38702 17 5.40915C7.95046 0.325958 5.86174 2.52838 3.35432 2.34338C1.91744 2.23766 1.0515 1.04395 0 0" transform="translate(94 270)" id="Fill-814" fill="#4C8640" stroke="none"/>
    <path d="M1.2994 0.00133207C1.2994 0.00133207 6.57964 -0.151652 13.2272 2.82134C19.8747 5.79943 27.717 12.3115 25.6682 12.6684C23.6234 13.0152 13.5638 13.9076 10.1066 9.86881C6.64944 5.83003 -3.59078 2.42868 1.2994 0.00133207" transform="translate(90 257)" id="Fill-815" fill="#6E9540" stroke="none"/>
    <path d="M2.22275 3.41144C6.19653 4.33718 11.3439 3.94044 12.695 3.75373C13.7856 3.59425 11.827 1.86724 8.8042 0.000199276C4.79646 -0.0114697 1.18496 0.490298 0 1.25267C0.694373 2.08117 1.44158 2.7852 2.22275 3.41144" transform="translate(103 266)" id="Fill-816" fill="#80AC40" stroke="none"/>
    <path d="M12.1385 1.52869C12.6101 1.53714 12.864 1.40766 13 1.23597C6.44797 -0.0531654 1.43759 0.000313899 1.43759 0.000313899C-2.75209 1.03894 3.09713 2.40407 7.7221 4C8.12111 2.59265 10.3384 1.50899 12.1385 1.52869" transform="translate(90 257)" id="Fill-817" fill="#518940" stroke="none"/>
    <path d="M12.131 12.0825C14.3066 13.9522 15.948 16.3906 17.8523 18.5534L20.6224 21.8922C21.4711 23.0597 22.2294 24.3048 23.0436 25.5111L27.8429 32.779C29.3422 35.2734 30.5786 37.9316 31.9616 40.4992L36.0069 48.2669L39.3027 56.4137C41.487 61.8506 43.7875 67.2272 45.6874 72.8623C49.6682 84.0076 53.6533 95.1572 57.6426 106.315C61.6019 117.456 65.2854 128.671 68.1805 140.04C70.9463 151.465 72.1138 163.08 72.6308 174.897C73.1133 186.784 74.535 198.722 77.0855 210.371C82.1433 233.648 92.0435 256.128 107.277 274.455C111.633 279.668 112.447 278.893 108.216 273.693C93.3144 255.314 83.8579 232.946 79.1965 209.884C76.8399 198.321 75.6121 186.568 75.2976 174.768C74.9486 162.934 73.919 150.978 71.2479 139.342C68.4562 127.749 64.8718 116.397 61.0203 105.191L49.3709 71.6302C47.527 66.0209 45.2221 60.5022 43.025 54.9489L39.7077 46.6298L35.5934 38.651C34.1846 36.0058 32.918 33.2873 31.3929 30.7154L26.4385 23.189C25.6027 21.9439 24.81 20.6644 23.9354 19.4408L21.0403 15.9598C19.0499 13.6894 17.3439 11.1821 15.0304 9.18305C6.7587 0.782094 0.236108 -0.747312 0.0163902 0.282344C-0.311032 1.27753 4.2858 4.13386 12.131 12.0825" transform="translate(9 51)" id="Fill-818" fill="#356C38" stroke="none"/>
    <path d="M4.46911 42.5213C4.95366 54.4509 6.38135 66.4324 8.94254 78.1243C14.0217 101.486 23.9636 124.048 39.2615 142.442C43.6354 147.674 44.4531 146.896 40.2047 141.677C25.2399 123.231 15.7435 100.782 11.0624 77.6357C8.69594 66.0303 7.46293 54.2347 7.14711 42.3915C6.79668 30.5138 5.76268 18.5149 3.08035 6.83609C2.52658 4.54442 1.92522 2.27437 1.31521 0C0.847962 2.11006 0.411002 4.57469 0 7.53656C2.77751 19.0035 3.94995 30.6608 4.46911 42.5213" transform="translate(77 180)" id="Fill-819" fill="#5A843E" stroke="none"/>
    <path d="M0.767446 3.03218C0.767446 3.03218 12.1211 12.8953 19.876 15.5936C27.6268 18.2877 30 16.2827 30 16.2827C30 16.2827 25.4012 15.4358 18.7529 9.2008C12.1047 2.96161 -3.64285 -4.19082 0.767446 3.03218" transform="translate(103 300)" id="Fill-820" fill="#92B83E" stroke="none"/>
    <path d="M34.7253 0C34.7253 0 36.2148 6.68818 38.4991 19.1895C40.7834 31.6867 35.3156 41.1438 20.8424 44.2455C6.36917 47.3555 -2.47735 48.3866 0.615297 44.3852C3.70795 40.3797 15.8651 18.9266 21.6553 13.3189C27.45 7.71113 31.9051 11.0634 34.7253 0" transform="translate(0 73)" id="Fill-821" fill="#518940" stroke="none"/>
    <path d="M1.24227 43C10.9608 38.4748 14.4672 30.144 12.4529 19.7729C9.95116 6.89151 8.31979 0 8.31979 0C7.59364 2.69226 6.75806 4.5379 5.83296 5.88827C12.2142 14.0878 -4.56199 37.8652 1.24227 43" transform="translate(26 73)" id="Fill-822" fill="#356C38" stroke="none"/>
    <path d="M0.570728 36.1928C-2.2726 40.4495 5.76381 39.3996 18.9807 36.1398C19.7949 34.8959 20.5373 33.5241 21.1912 32.0111C8.76323 34.5607 28.0211 5.29769 25.8232 0C24.2792 0.255842 22.925 0.74547 21.6595 1.34096C21.1575 1.77325 20.6428 2.24523 20.1155 2.83631C14.7368 8.85742 3.44359 31.892 0.570728 36.1928" transform="translate(0 81)" id="Fill-823" fill="#6E9540" stroke="none"/>
    <path d="M0.198589 13.9364C0.198589 13.9364 8.71038 13.1392 10.4833 18.5987C12.2562 24.0626 25.0893 36.1325 43.2672 33.6738C61.4408 31.2195 71.2202 6.47953 68.5717 3.13847C65.9319 -0.202584 56.2832 -0.990823 45.9418 1.32911C35.5918 3.64904 18.6118 17.8015 13.5631 14.8949C8.51435 11.9972 -1.53513 8.87112 0.198589 13.9364" transform="translate(64 137)" id="Fill-824" fill="#6E9540" stroke="none"/>
    <path d="M8.24757 1.32982C6.3367 1.7824 4.18748 2.69653 1.93553 3.83919C7.77499 2.34253 13.3391 1.93924 16.6143 6.21413C28.2111 21.351 3.13548 25.5632 0 33.9741C1.8369 34.0458 3.74778 33.9741 5.7244 33.6918C22.8688 31.2362 32.0944 6.483 29.5959 3.14015C27.1056 -0.202693 18.0033 -0.991353 8.24757 1.32982" transform="translate(103 137)" id="Fill-825" fill="#4E7A3C" stroke="none"/>
    <path d="M13.368 3.6423C8.39191 0.748252 -1.51306 -2.37392 0.195733 2.68507C0.195733 2.68507 8.58511 1.88887 10.3325 7.3415C10.895 9.09045 12.5866 11.5193 15.2013 13.9258C16.485 14.6191 17.5112 15.1246 18.0908 15.3572C33.9508 21.8073 32.2334 7.61882 23.0411 1.20003C18.7992 3.4097 15.2485 4.73819 13.368 3.6423" transform="translate(64 146)" id="Fill-826" fill="#518940" stroke="none"/>
    <path d="M51 1.90646C51 1.90646 50.046 6.436 48.4956 15.3666C46.9494 24.2931 40.8633 34.036 29.3655 39.6347C17.8635 45.2334 -3.93957 49.9329 0.616793 44.7817C5.17316 39.643 16.3215 17.9857 23.5878 13.1412C30.8623 8.30086 39.6831 7.50519 43.894 4.78663C48.1009 2.06393 49.4415 -2.66038 51 1.90646" transform="translate(17 158)" id="Fill-827" fill="#518940" stroke="none"/>
    <path d="M14.7837 12.8025C10.4953 15.3925 4.94416 22.9118 0 29.9988C12.3338 30.1281 24.2113 19.9623 34.6313 15.0773C38.0071 13.4935 42.0076 6.12365 43 0.0306225C41.6798 -0.33706 40.0184 2.68925 36.6603 4.65696C32.1237 7.30751 22.6209 8.08328 14.7837 12.8025" transform="translate(26 158)" id="Fill-828" fill="#356C38" stroke="none"/>
    <path d="M2.88683 25.1692C2.04685 26.2766 1.29529 27.194 0.663095 27.8366C-4.23531 32.8602 19.2045 28.2772 31.5699 22.8171C42.0564 18.1855 48.3165 10.64 51 3.14699C50.7568 2.08407 50.3722 1.02924 49.7179 0.0026891C47.03 -0.231719 33.5682 14.9321 27.4629 16.8073C23.9659 17.8824 11.4369 24.7489 2.88683 25.1692" transform="translate(13 175)" id="Fill-829" fill="#6E9540" stroke="none"/>
    <path d="M20.4454 1.28945C20.4454 1.28945 20.8982 0.0109129 20.9966 19.3928C21.0872 38.7662 19.3823 43.7147 12.0036 49.466C4.62489 55.2172 -5.51 61.903 3.62479 46.654C12.7635 31.4008 6.07386 27.2637 7.6567 20.2763C9.23953 13.2805 20.0438 -4.98004 20.4454 1.28945" transform="translate(56 180)" id="Fill-830" fill="#518940" stroke="none"/>
    <path d="M1.04422 30C3.1113 23.1767 1.58181 12.6005 9.65707 12.3384C11.0465 12.2927 12.152 11.9515 13 11.3981C12.8486 0.430906 12.5419 1.26302 12.5419 1.26302C12.1558 -4.87797 1.76732 13.0083 0.245397 19.8607C-0.530707 23.3597 0.75649 26.1348 1.04422 30" transform="translate(64 180)" id="Fill-831" fill="#356C38" stroke="none"/>
    <path d="M2.95911 21.2004C-4.99684 35.9342 4.82198 29.0289 12.063 23.0101C18.2395 17.878 20.4717 13.3079 21 0C20.9126 0.0411303 20.8371 0.0685505 20.7418 0.123391C12.623 4.79397 12.6389 18.8834 2.95911 21.2004" transform="translate(56 205)" id="Fill-832" fill="#6E9540" stroke="none"/>
    <path d="M0.758331 2.94548C0.758331 2.94548 4.13518 13.6419 12.246 12.9696C20.3568 12.2973 25.1411 10.8029 16.1255 6.35393C7.11448 1.90924 -2.85156 -3.44752 0.758331 2.94548" transform="translate(73 171)" id="Fill-833" fill="#518940" stroke="none"/>
    <path d="M2.67945 9C8.85182 8.15516 12.0903 6.34622 4.88855 1.46107C4.17917 0.979017 3.46593 0.487024 2.74885 0C1.86212 0.0546659 0.952265 0.178907 0 0.457206C0.855882 4.82551 1.70405 7.40475 2.67945 9" transform="translate(86 175)" id="Fill-834" fill="#6E9540" stroke="none"/>
    <path d="M0.453639 2.63051C0.453639 2.63051 -0.483026 7.93247 8.70065 12.1285C17.8887 16.3245 27.5255 18.6584 28.9108 20.6466C30.3006 22.6267 31.4856 15.8122 24.9594 11.9781C18.4289 8.13983 15.2747 5.25709 11.4279 3.76897C7.58101 2.28084 -2.21259 -3.20815 0.453639 2.63051" transform="translate(81 231)" id="Fill-835" fill="#4C8640" stroke="none"/>
    <path d="M0.196665 2.10266C3.34641 6.90205 20.0462 15.4543 29.9797 21C30.1629 19.1 29.1552 15.2098 24.9584 12.6107C18.419 8.5619 15.2605 5.521 11.4084 3.95122C7.70459 2.44578 -1.45237 -2.92405 0.196665 2.10266" transform="translate(81 231)" id="Fill-836" fill="#356C38" stroke="none"/>
    <path d="M17 9C10.9003 2.96969 -2.27566 -3.61805 0.339018 2.3447C3.50096 6.89699 10.8053 8.79308 17 9" transform="translate(103 299)" id="Fill-837" fill="#79A140" stroke="none"/>
    <path d="M13 0.711797C13 0.711797 12.8353 17.5658 7.33148 23.855C1.81999 30.1399 -1.55431 33.2042 0.716926 25.1466C2.98433 17.0931 10.3496 -4.13801 13 0.711797" transform="translate(90 304)" id="Fill-838" fill="#79A140" stroke="none"/>
    <path d="M3.97826 0.16999C2.55163 4.47444 1.32473 8.64316 0.595109 11.4304C0.313859 12.492 0.126359 13.3693 0 14.111C0.175272 15.0708 0.362772 16.0354 0.5625 17C1.76495 16.8885 4.33696 13.9995 7.63451 9.9471C8.13179 9.33149 8.57609 8.59469 9 7.82396C8.33152 2.9863 6.40761 -0.867343 3.97826 0.16999" transform="translate(90 317)" id="Fill-839" fill="#80AC40" stroke="none"/>
    <path d="M0 9.90479C2.48776 10.8636 5.59121 12.1157 7.41324 13C8.91491 6.7264 9 0.737362 9 0.737362C7.12291 -1.98572 3.44883 3.22842 0 9.90479" transform="translate(94 304)" id="Fill-840" fill="#518940" stroke="none"/>
    <path d="M22.5374 1.81882C20.6148 2.02531 18.6832 2.13953 16.7424 2.13074C15.2062 2.12196 13.7972 1.99016 12.42 1.71338C8.39763 1.99455 4.44794 1.65627 0.757316 0C-0.48804 0.448115 -0.283511 1.33556 2.01631 2.80292C8.66124 7.03805 14.9062 17.1778 25.6554 16.9976C36.4091 16.8175 40.0951 16.9581 38.7271 14.7527C38.7271 14.7527 33.782 4.96881 22.5374 1.81882" transform="translate(111 321)" id="Fill-841" fill="#79A140" stroke="none"/>
    <path d="M5.91935 0C4.20968 0.231933 2.49597 0.368067 0.770161 0.357983C0.504032 0.352941 0.258065 0.322689 0 0.307563C0.431452 4.57311 11.8629 8.76303 17 9C14.6653 5.68235 11.0202 1.85042 5.91935 0" transform="translate(129 321)" id="Fill-842" fill="#518940" stroke="none"/>
    <path d="M0.773236 2.6492C6.20397 6.98534 11.9558 13.1332 20.7236 12.9978C31.4223 12.8345 35.0895 12.962 33.7285 10.9631C33.7285 10.9631 33.1949 10.0075 32.1051 8.62981C24.2507 12.0701 2.0077 -0.528252 0 0.01725C0.144699 0.921111 0.425054 1.79312 0.773236 2.6492" transform="translate(116 325)" id="Fill-843" fill="#92B83E" stroke="none"/>
    <path d="M6.18025 19.2309C6.18025 19.2309 4.576 17.1643 1.38595 9.7529C-1.80871 2.34152 0.91574 -3.92729 5.52564 2.99332C10.1355 9.91393 9.95576 26.4007 6.18025 19.2309" transform="translate(116 326)" id="Fill-844" fill="#518940" stroke="none"/>
    <path d="M0.249912 1.53862C0.153355 1.9603 0.0681577 2.38198 0 2.79917C1.51083 9.07952 2.26624 10.9322 2.26624 10.9322C3.74583 16.2705 4.32518 10.3894 3.82251 3.31954C2.47924 0.677311 0.991127 -1.63744 0.249912 1.53862" transform="translate(120 334)" id="Fill-845" fill="#92B83E" stroke="none"/>
    <path d="M12.6532 2.33682C12.6532 2.33682 14.5549 5.85619 9.45158 18.1345C4.34822 30.4128 -0.654838 38.5004 0.0703552 31.2729C0.795548 24.0499 1.38573 11.438 4.84583 7.82213C8.30592 4.2106 12.7882 -4.01737 12.6532 2.33682" transform="translate(103 317)" id="Fill-846" fill="#79A140" stroke="none"/>
    <path d="M7.76626 11.8448C5.92798 16.6279 4.19687 16.3401 5.36331 9.95153C6.01042 6.39025 3.76409 8.1417 1.62081 10.4853C0.841811 14.8973 0.47498 19.843 0.0751755 23.4085C-0.699703 30.2767 4.64613 22.5912 10.0991 10.9232C11.1213 8.74219 11.8797 6.84479 12.4403 5.21427C14.6783 -7.79649 9.60453 7.05747 7.76626 11.8448" transform="translate(103 325)" id="Fill-847" fill="#92B83E" stroke="none"/>
    <path d="M0 9C2.64429 7.39198 6.5401 5.21032 9 4.67281C8.98038 3.05124 8.65083 2.40532 8.65083 2.40532C8.78814 -4.13515 4.22929 4.33404 0.710113 8.05145C0.4551 8.32246 0.22755 8.64768 0 9" transform="translate(107 321)" id="Fill-848" fill="#518940" stroke="none"/>
    <path d="M30.9169 1.77742C29.1206 2.42824 27.2981 3.0446 25.4887 3.60354C22.2151 5.2459 18.9328 6.87678 15.2222 7.72284C10.2835 8.84838 5.16122 8.76415 0.0520395 8.59571C-0.162118 9.09722 0.266197 9.61405 1.68226 10.0849C1.68226 10.0849 10.9041 14.3382 19.9162 12.5695C28.9283 10.8008 36.2665 4.03997 38.2988 1.81188C40.3355 -0.416221 37.9535 -0.772257 30.9169 1.77742" transform="translate(94 278)" id="Fill-849" fill="#6E9540" stroke="none"/>
    <path d="M30.9172 2.36239C29.1209 3.2274 27.2985 4.04661 25.4891 4.7895C22.2157 6.97238 18.9335 9.13999 15.223 10.2645C10.2932 11.7554 5.18418 11.6485 0.0839075 11.4246C0.0139808 11.6027 -0.0253529 11.7859 0.0183513 11.964C6.10634 11.389 18.8548 16.9353 34.4965 7.03344C35.3007 6.16334 36.0087 5.34922 36.6118 4.61141C36.7167 4.48421 36.8304 4.35191 36.9265 4.2247C37.1407 3.96011 37.3373 3.7057 37.5252 3.46655C37.8181 3.07984 38.1021 2.69313 38.2988 2.40818C40.3354 -0.553203 37.9535 -1.02641 30.9172 2.36239" transform="translate(94 278)" id="Fill-850" fill="#4C8640" stroke="none"/>
    <path d="M9.84051 2.37896C8.2843 3.22954 6.70873 4.00839 5.14091 4.74112C3.45695 6.02211 1.76138 7.26724 0 8.33816C1.67622 8.70196 3.48018 8.97865 5.38479 8.99915C10.185 9.06064 13.6614 5.77104 16.2047 2.69665C16.255 2.61466 16.3363 2.49681 16.3789 2.42508C18.1829 -0.557084 16.0731 -1.03361 9.84051 2.37896" transform="translate(116 278)" id="Fill-851" fill="#356C38" stroke="none"/>
    <path d="M25.7138 0C25.7138 0 23.2364 5.8176 18.1802 8.99877C13.124 12.1799 4.92729 15.8643 3.26952 29.1504C1.60715 42.4406 -2.39911 48.7364 1.98476 46.5865C6.36862 44.4366 16.458 33.5375 21.6431 22.1518C26.8328 10.7661 23.5956 9.40213 23.2502 6.99858C22.9048 4.59919 27.1137 3.22276 25.7138 0" transform="translate(68 283)" id="Fill-852" fill="#79A140" stroke="none"/>
    <path d="M2.06264 1.87832C2.07864 1.76232 2.02264 1.90632 1.93464 2.16232C2.00264 2.05032 2.05064 1.95032 2.06264 1.87832" transform="translate(86 304)" id="Fill-853" fill="#6E9540" stroke="none"/>
    <path d="M4.74678 1.28428C4.77949 -0.41262 4.37473 -0.283156 3.77781 0.831157C3.39758 2.44021 3.09503 4.19722 2.90287 6.15304C1.42692 20.9304 -2.13007 27.9307 1.76218 25.5402C4.67319 23.7509 10.4175 16.5286 15.0539 7.69274C16.031 4.54862 16.7302 2.08881 17 1.23342C15.9779 3.07828 9.33816 8.65909 7.91536 9.97222C6.38627 11.3732 4.62413 7.56327 4.74678 1.28428" transform="translate(69 308)" id="Fill-854" fill="#6E9540" stroke="none"/>
    <path d="M13 0C12.2362 0.2992 11.4827 0.621067 10.7342 0.974667C9.41546 2.66107 7.6792 4.45173 5.48978 5.8072C3.86553 6.8136 1.95106 7.8744 0.00603918 9.21627C-0.0805193 10.9027 0.759607 12.3171 2.77082 10.9208C5.48468 9.03493 9.07941 12.1947 8.4735 13.5456C8.18327 14.1893 9.29326 16.1115 10.6629 17C14.4002 7.48 11.447 6.00667 11.0957 3.62667C10.892 2.26213 12.0529 1.20587 13 0" transform="translate(81 287)" id="Fill-855" fill="#4C8640" stroke="none"/>
    <path d="M9.9282 10.081C6.21207 14.7641 3.37459 18.2837 1.11751 24.014C0.835375 24.7329 0.468599 25.5141 0.0857005 26.3286C-0.353625 35.6117 0.968382 44.6788 2.40324 50.9992C4.749 51.0366 7.65499 49.7983 10.0007 48.4021C10.831 47.6665 11.7339 46.9186 12.7939 46.1166C13.5154 45.5764 14.2973 44.9406 15.1195 44.2259C17.5781 41.6121 19.815 38.8031 22.2172 36.1436C25.1393 31.6184 26.9813 26.179 25.4457 20.4321C22.5437 9.6239 21.7537 5.28566 14.5996 0C13.8781 3.49053 12.5158 6.82316 9.9282 10.081" transform="translate(68 240)" id="Fill-856" fill="#518940" stroke="none"/>
    <path d="M9.90745 27.4107C10.7425 26.6687 11.6789 25.9101 12.7491 25.1014C13.4788 24.5554 14.2774 23.9093 15.1084 23.1798C17.565 20.5788 19.8027 17.7777 22.1945 15.1267C25.0281 10.7584 26.8482 5.53132 25.5996 0C23.0903 2.19252 20.6135 5.37709 19.3974 8.23654C12.4411 24.6012 7.1225 1.18379 3.7011 2.08414C0.652659 2.88862 1.01345 9.27861 0 13.6178C0.340518 19.8494 1.29721 25.5849 2.30255 29.9992C4.65374 30.0367 7.55625 28.8029 9.90745 27.4107" transform="translate(68 265)" id="Fill-857" fill="#6E9540" stroke="none"/>
    <path d="M8.54906 10.1411C9.35765 9.33171 10.2369 8.50861 11.2692 7.62606C11.9954 7.00874 12.8 6.26337 13.6283 5.4357C14.7862 4.03643 15.9009 2.58228 17 1.12356C17.0118 -2.09111 5.73077 4.51657 4.7377 0.986375C3.97622 -1.72986 1.73493 1.53511 0 6.2588C0.349342 8.71896 0.749711 10.9779 1.15401 12.9991C3.43846 13.0402 6.2646 11.6776 8.54906 10.1411" transform="translate(73 282)" id="Fill-858" fill="#80AC40" stroke="none"/>
    <path d="M5.19674 10.6807C3.26533 12.9253 1.55161 14.923 0 17C4.23798 12.3873 12.4963 7.62905 21 14.7951C18.9019 8.08327 16.8685 4.31725 10.5648 0C9.73114 3.69987 8.16564 7.23217 5.19674 10.6807" transform="translate(73 240)" id="Fill-859" fill="#4C8640" stroke="none"/>
    <path d="M17 1.61329C17 1.61329 15.4225 6.48522 11.1372 11.7877C6.85194 17.0863 -0.38434 22.5562 0.0159312 20.5907C0.420127 18.6292 2.99442 9.19628 7.02461 7.08723C11.0626 4.98218 16.8077 -3.49785 17 1.61329" transform="translate(64 227)" id="Fill-860" fill="#6E9540" stroke="none"/>
    <path d="M5.21276 1.56942C2.25252 5.44832 0.400449 11.0625 0.0207993 12.5639C-0.281894 13.776 2.76043 12.3342 6.45945 9.80783C8.29613 5.5589 9.31708 1.5354 8.91178 0C7.56249 0.433824 6.34658 0.969725 5.21276 1.56942" transform="translate(64 235)" id="Fill-861" fill="#80AC40" stroke="none"/>
    <path d="M2.50083 11.9497C2.31614 12.4284 2.43594 12.7655 2.67554 13C7.24293 7.09386 9 1.97911 9 1.97911C8.81032 -2.87673 4.3777 2.26733 0 6.03378C2.20632 7.25995 3.19468 10.1373 2.50083 11.9497" transform="translate(73 227)" id="Fill-862" fill="#518940" stroke="none"/>
    <path d="M33.8199 0.801582C29.8547 -0.0953204 25.8167 -0.314563 21.4575 0.530518C16.9314 1.39952 12.5765 2.49972 7.93898 2.79071C5.18132 2.96212 2.46648 2.8226 0 2.26453C1.19042 4.22576 4.68032 9.8583 9.40773 16.0728C15.2699 23.8022 32.6723 21.2988 39.8533 16.3319C47.0258 11.3571 50.3359 11.6601 42.4055 6.30657C39.0355 4.03043 36.4105 2.18879 33.8199 0.801582" transform="translate(82 201)" id="Fill-863" fill="#4F813E" stroke="none"/>
    <path d="M13.7699 0.758475C9.9204 -0.0901943 6.00027 -0.297647 1.76836 0.501988C1.24457 0.596285 0.729093 0.701897 0.209458 0.80751C-0.256136 2.43318 0.0223889 3.825 1.36928 4.43982C12.4562 9.47903 20.3048 7.55538 26 9C25.3432 8.22677 24.1002 7.27626 22.1048 5.96742C18.8332 3.81369 16.2849 2.07108 13.7699 0.758475" transform="translate(103 201)" id="Fill-864" fill="#356C38" stroke="none"/>
    <path d="M28.9147 18.2584C23.1326 19.9294 17.6013 14.5293 15.7137 12.3971C14.0301 10.4912 13.4518 5.09983 15.195 0C12.7929 0.513464 10.378 0.948603 7.87809 1.12266C5.14435 1.30977 2.44888 1.15747 0 0.548275C1.18193 2.69786 4.64692 8.84203 9.33637 15.6215C15.1567 24.0588 32.4349 21.3262 39.5648 15.9043C40.8487 14.9209 42.0051 14.1333 43 13.4545C41.4482 8.02396 34.6245 16.6049 28.9147 18.2584" transform="translate(81 201)" id="Fill-865" fill="#518940" stroke="none"/>
    <path d="M0.107918 1.66863C0.107918 1.66863 7.36773 3.50355 10.6282 5.61831C13.8801 7.73306 21.0024 13.0099 28.9109 11.7027C36.8108 10.3955 49.9901 8.96833 56.2963 12.0985C62.5982 15.2286 60.6866 9.47603 51.8674 6.00208C43.0525 2.53213 44.861 -0.801909 34.5856 0.897089C24.3145 2.59609 17.0847 5.31049 11.2511 2.48415C5.40887 -0.34218 -0.905878 -0.949822 0.107918 1.66863" transform="translate(51 111)" id="Fill-866" fill="#4F7D3C" stroke="none"/>
    <path d="M10.7129 4.38328C16.0515 2.91442 26.6528 2.93511 29.6058 6.17903C30.6735 7.34998 32.0093 8.98849 33.5237 10.5277C35.6726 10.8339 37.6159 11.3139 39.1483 12.0669C45.702 15.3067 43.714 9.35261 34.5423 5.75699C25.3751 2.1655 27.2559 -1.2853 16.5698 0.4732C9.97135 1.5614 4.58807 3.03855 0 3.32818C3.7884 4.71016 7.51425 5.26047 10.7129 4.38328" transform="translate(73 111)" id="Fill-867" fill="#356C38" stroke="none"/>
    <path d="M0.101142 1.82163C0.101142 1.82163 6.90507 3.82479 9.9608 6.13345C13.0085 8.4421 19.6836 14.2028 27.0954 12.7757C29.1044 12.3873 31.4878 11.9989 34 11.6934C30.6343 8.8567 26.7452 10.7377 22.8601 9.96956C18.3349 9.07491 14.8806 6.79244 13.2219 3.72442L13.2017 3.69823C12.2838 3.48002 11.39 3.18762 10.5446 2.71192C5.06922 -0.373555 -0.848993 -1.03691 0.101142 1.82163" transform="translate(56 111)" id="Fill-868" fill="#518940" stroke="none"/>
    <path d="M54.8289 4.39694C51.2966 2.65158 41.7821 -0.372563 32.9962 0.0378556C29.8048 1.19999 26.8691 2.73798 24.385 4.84624C20.1454 8.43633 18.0831 13.0935 12.5312 15.1413C8.61974 16.5842 4.23957 16.5021 0 16.2343C0.498522 17.3964 17.5931 31.666 34.2233 29.8386C51.6801 27.9204 57.5388 12.9293 62.426 10.8168C67.3132 8.70418 59.6991 6.79897 54.8289 4.39694" transform="translate(39 60)" id="Fill-869" fill="#4C8640" stroke="none"/>
    <path d="M25.1915 4.6483C21.7948 2.79263 12.632 -0.410126 4.18119 0.0434835C2.96575 0.533748 1.79532 1.10649 0.665823 1.73421C0.690377 1.78003 0.702654 1.82585 0.727209 1.87167C3.49367 7.01257 -3.37746 21.2027 2.37235 20.7125C7.57378 20.2635 14.9033 22.2566 18.791 26C25.789 20.52 29.3576 12.9507 32.4883 11.457C37.1822 9.21647 29.8691 7.19584 25.1915 4.6483" transform="translate(64 60)" id="Fill-870" fill="#427F3F" stroke="none"/>
    <path d="M1.38791 5.16358C3.61399 7.79232 6.5101 9.08108 10.0851 9.03414C15.3219 10.037 12.7519 16.9587 13.3118 21C18.5045 16.4339 21.599 11.458 24.3716 10.3144C29.4277 8.2276 21.5505 6.34566 16.512 3.97297C13.8584 2.72262 7.9295 0.806543 1.40554 0C-0.247487 1.00284 -0.670663 2.59886 1.38791 5.16358" transform="translate(77 60)" id="Fill-871" fill="#436D37" stroke="none"/>
    <path d="M15.288 21.2797C8.69116 14.7018 18.3871 7.29469 18.6754 0C15.2625 3.65906 13.0876 7.90375 8.15273 9.88555C6.19828 10.6726 4.12936 11.0334 2.02228 11.1693C1.32699 12.4342 0.648657 13.7414 0 15.0719C6.1898 19.9398 18.0734 27.2251 29.7365 25.8242C33.285 25.3979 36.3248 24.3672 39 22.9991C32.8738 20.3146 19.3537 25.337 15.288 21.2797" transform="translate(43 64)" id="Fill-872" fill="#356C38" stroke="none"/>
    <path d="M41.7784 1.49509C41.7784 1.49509 39.819 6.91603 40.8178 15.0584C41.8167 23.2052 47.3377 45.5166 35.7091 54.313C24.0847 63.1138 0.202639 76.664 0.219639 72.077C0.23664 67.4945 -2.09249 44.5993 8.03581 33.156C18.1684 21.7216 33.1802 15.212 34.6465 12.0253C36.1171 8.84299 39.598 -4.40429 41.7784 1.49509" transform="translate(9 107)" id="Fill-873" fill="#518940" stroke="none"/>
    <path d="M0.231585 42.081C0.218141 45.2412 12.2686 39.7557 23.7589 33.1687C25.9458 31.464 27.9669 29.838 29.7505 28.4656C33.9451 25.2442 41.7383 22.3943 42.778 16.4368C44.3733 7.29278 36.9611 9.33838 33.6449 12.8482C20.5951 26.6604 20.7833 -2.2883 11.7353 0.146306C10.615 1.16036 9.51704 2.21376 8.47287 3.32397C-2.20629 14.719 0.249511 37.5178 0.231585 42.081" transform="translate(9 137)" id="Fill-874" fill="#4C8640" stroke="none"/>
    <path d="M2 2L2 2" transform="translate(43 129)" id="Fill-875" fill="#356C38" stroke="none"/>
    <path d="M19.6536 2.20506C19.5069 1.53118 19.3645 0.865818 19.2221 0.208991C19.1315 0.123688 19.0452 0.0426511 18.9546 0C18.6654 1.17717 17.2285 2.93866 15.2391 4.99871C14.2035 7.54499 13.2757 10.3429 12.6802 11.5798C11.8732 13.2517 7.03147 15.8833 1.13682 19.7006C0.0838921 21.317 -0.347635 22.6733 0.316917 23.552C2.88019 26.9683 8.95609 20.6048 12.1494 22.1445C11.8387 21.9952 11.5539 21.8587 11.4244 21.7947C11.528 21.8459 11.7437 21.9483 12.1494 22.1445C13.9791 23.0273 12.9995 22.5539 12.1494 22.1445C15.6275 23.8335 15.4462 31.7623 21 29.6425C20.5771 23.5136 19.3645 17.8239 18.9459 14.527C18.1649 8.46198 19.1488 3.97509 19.6536 2.20506" transform="translate(30 107)" id="Fill-876" fill="#356C38" stroke="none"/>
    <path d="M8.46979 8.39004C9.08302 3.5745 6.84058 0.843422 4.02151 0C-1.42899 10.9605 0.245974 25.7083 0.232245 29.1543C0.218516 31.793 10.3598 27.8811 21 22.6117C20.5286 19.965 18.1672 18.0934 14.2178 18.8324C6.41955 20.2903 7.13347 18.9328 8.46979 8.39004" transform="translate(9 146)" id="Fill-877" fill="#79A140" stroke="none"/>
    <path d="M1.11093 0.0207653C1.11093 0.0207653 3.21739 2.08694 7.42089 3.46575C11.6291 4.84457 23.8823 7.40465 25.0812 14.4551C26.2849 21.5056 26.5576 34.9769 24.343 33.9438C22.1284 32.9149 10.4301 28.8278 7.56194 21.8473C4.68908 14.8585 5.48841 6.84078 4.33174 5.48665C3.17507 4.13664 -2.31675 -0.341432 1.11093 0.0207653" transform="translate(43 94)" id="Fill-878" fill="#518940" stroke="none"/>
    <path d="M15.5307 25.94C16.8899 26.702 17.1901 20.072 16.8982 13.4289C16.6439 12.0583 16.3937 10.7752 16.1936 9.6629C15.7308 7.0442 16.227 2.92346 13.8922 1.04482C10.3024 -1.84101 9.54356 1.92502 10.3232 4.21967C13.3877 13.2713 0.950604 6.29537 0 10.8715C0.191788 11.6072 0.400254 12.3473 0.650413 13.0698C3.19369 20.4968 13.5669 24.8453 15.5307 25.94" transform="translate(47 103)" id="Fill-879" fill="#4C8640" stroke="none"/>
    <path d="M2 2.002L2 1.998L2 2.002" transform="translate(47 99)" id="Fill-880" fill="#356C38" stroke="none"/>
    <path d="M1.09032 0.257375C0.774808 0.170263 0.459293 0.0831518 0.147773 0C0.0958525 0.0158384 0.0399386 0.0316769 0 0.0593942C0.439324 0.443477 0.866667 1.42546 1.298 2.70441C2.15269 3.69828 3.12719 4.70006 3.52258 5.21877C4.05376 5.92358 4.10169 8.51316 4.4172 11.7996C4.8725 12.5916 5.35177 13.0707 5.86697 12.9915C7.87588 12.6826 6.51797 8.75866 7.87588 7.77272C7.74409 7.86775 7.62427 7.95486 7.56836 7.99446C7.61229 7.96278 7.70415 7.89943 7.87588 7.76876C8.65069 7.21045 8.23533 7.51138 7.87588 7.76876C9.3576 6.69966 12.6725 8.529 13 5.76123C10.3121 4.58127 7.63625 3.82498 6.14654 3.2746C3.41075 2.25698 1.72934 0.859236 1.09032 0.257375" transform="translate(43 94)" id="Fill-881" fill="#356C38" stroke="none"/>
    <path d="M4.44916 1.56431C2.51968 0.313301 0.915559 0.530239 0 1.3546C3.59792 5.64996 10.2036 8.20982 11.6677 8.95102C12.7876 9.51868 13.1167 5.06423 12.9654 0.139751C11.7472 -0.261583 10.4835 0.179523 10.022 1.7487C9.11019 4.84368 8.67133 4.30133 4.44916 1.56431" transform="translate(51 120)" id="Fill-882" fill="#79A140" stroke="none"/>
  </g>
</svg>