<svg width="383px" height="326px" viewBox="0 0 383 326" version="1.1" xmlns:xlink="http://www.w3.org/1999/xlink" xmlns="http://www.w3.org/2000/svg">
  <desc>Created with Lunacy</desc>
  <g id="Group-3" transform="matrix(0.5 0.8660254 0.8660254 -0.5 0 120.8735)">
    <path d="M312.198 152.158C281.052 150.502 250.005 145.64 219.429 137.371C160.855 121.524 105.748 90.8133 57.7332 51.8024C46.961 43.0507 36.563 33.7677 26.4259 24.2243C21.5959 19.6713 16.862 15.0281 12.2517 10.2251C11.1841 9.12418 -0.0137187 -0.231761 1.26178e-05 0.00439447C0.247176 3.99473 7.69639 9.72151 10.1955 12.2949C15.4649 17.7404 20.8578 23.0643 26.3503 28.2632C38.3789 39.6439 50.8366 50.5869 63.7406 60.8458C88.6491 80.6516 115.229 98.53 143.32 112.748C196.961 139.892 254.949 156.656 314 160C313.361 157.392 312.73 154.784 312.198 152.158" transform="translate(31.7915 27.07031)" id="Fill-186" fill="#AAA880" stroke="none"/>
    <path d="M194.21 55.1997C163.282 53.5519 132.453 48.7156 102.091 40.4904C68.7217 31.4465 36.5016 17.542 6.07792 0C4.03604 0.328179 1.99416 0.725448 0 1.2229C8.68225 6.49104 17.5247 11.4344 26.5138 15.9979C79.7799 42.9984 137.362 59.6733 196 63C195.366 60.4057 194.739 57.8113 194.21 55.1997" transform="translate(149.1278 124.7144)" id="Fill-187" fill="#B5B59B" stroke="none"/>
    <path d="M3.80081 46C17.3711 36.5181 35.0083 38.4414 44.7508 23.0998C48.4606 17.2608 59.4548 -2.37284 43.9361 0.237618C31.822 2.27488 -13.2366 30.8932 3.80081 46" transform="translate(0.1569824 10.53125)" id="Fill-188" fill="#59853E" stroke="none"/>
    <path d="M26.5878 13.7331C26.5348 15.0084 26.601 16.0813 26.7501 17C30.7844 9.62145 35.1865 -1.73066 23.2953 0.222387C18.6416 0.986904 8.92331 5.73462 0 12.0596C4.28279 18.7571 27.1509 0.357302 26.5878 13.7331" transform="translate(17.02087 10.88916)" id="Fill-189" fill="#527B3B" stroke="none"/>
    <path d="M3.7212 21C15.7804 12.1109 31.1161 12.9177 41 1.31543C36.4591 -3.15769 19.7843 5.26377 14.4174 4.63189C8.40824 3.91434 4.04409 4.81039 1.03269 7.63777C-0.799296 12.5286 -0.364241 17.1802 3.7212 21" transform="translate(0.0001220703 33.6377)" id="Fill-190" fill="#758F58" stroke="none"/>
    <path d="M22.5638 29.8069C24.5862 22.3991 24.8928 12.4763 20.7012 5.73168C16.2257 -1.44678 4.51197 -2.49798 1.09015 6.12323C-1.88151 13.6015 1.60554 23.6761 6.92584 28.8439C10.9544 32.7559 17.6773 30.2337 22.5638 29.8069" transform="translate(3.903931 0)" id="Fill-191" fill="#678448" stroke="none"/>
    <path d="M4.94241 24C8.32124 22.3746 5.37699 8.1878 8.67615 5.74484C12.2831 3.07623 17.078 5.49957 20.7718 3.42943C20.8588 3.3771 20.9167 3.33459 21 3.2888C15.1803 -1.44341 4.57302 -1.42052 1.20868 5.6729C-1.54001 11.4582 0.694432 18.9048 4.94241 24" transform="translate(3.989502 4.207031)" id="Fill-192" fill="#7D965A" stroke="none"/>
    <path d="M43.827 0.611279C54.5385 3.42446 53.7474 22.9359 47.0569 29.063C37.14 38.1424 19.4593 48.7101 5.65535 47.9625C-9.47295 47.1453 10.1202 20.1332 13.8903 16.0647C20.6805 8.73091 33.1773 -2.78262 43.827 0.611279" transform="translate(17.12732 54.78613)" id="Fill-193" fill="#59853E" stroke="none"/>
    <path d="M5.63459 37.2759C12.9501 34.3503 16.2314 26.7478 20.5423 20.6928C27.0558 11.5636 34.9842 14.0264 44.7195 15.1006C47.486 15.4045 50.0004 14.5099 52 12.9349C51.5658 7.20106 49.0339 1.95774 43.7565 0.60719C32.9145 -2.76401 20.1921 8.67251 13.2793 15.9572C10.9505 18.4131 2.68597 29.2658 0 37.6075C1.50232 38.1843 3.38285 38.167 5.63459 37.2759" transform="translate(17.83447 54.83594)" id="Fill-194" fill="#527B3B" stroke="none"/>
    <path d="M0 23.0979C0.854648 23.5858 1.96569 23.8933 3.39466 23.9635C14.7991 24.5651 28.8803 17.637 38.9617 10.2644C41.7957 5.39166 42.3666 1.03028 36.114 0.121236C24.1763 -1.63 19.3116 16.1063 9.17208 20.0666C5.92784 21.3366 2.39643 21.1127 0 23.0979" transform="translate(17.3241 75.625)" id="Fill-195" fill="#758F58" stroke="none"/>
    <path d="M0 1C0.369 0.602888 0.675 0.274368 0.918 0C0.63 0.31769 0.306 0.66426 0 1Z" transform="translate(80.10413 136.269)" id="Fill-197" fill="#879B77" stroke="none"/>
    <path d="M0 42.0826C0.740087 48.2877 4.38637 55.2844 11.4731 54.9911C18.708 54.7049 17.7007 46.3053 18.3469 41.1885C20.0762 27.5379 34.7949 14.5093 30.0692 0C12.2457 2.27215 5.41527 28.1351 0 42.0826" transform="translate(55.20471 10.27393)" id="Fill-198" fill="#527B3B" stroke="none"/>
    <path d="M0 34C9.14794 32.2844 11.0104 18.6929 19.274 13.6955C22.0341 12.0352 24.5464 10.781 26.66 9.04262C27.1926 6.08257 27.1558 3.07703 26.1442 0C11.4693 1.85206 4.82687 20.7951 0 34" transform="translate(58.97253 14.76367)" id="Fill-199" fill="#7D965A" stroke="none"/>
    <path d="M0 32.1862C1.57361 33.3776 3.48491 34.0837 5.78266 33.992C12.7594 33.7171 11.7881 25.6485 12.4113 20.7333C13.2956 13.7543 17.7344 6.94844 21 0C12.6376 7.45422 0.313329 24.4333 0 32.1862" transform="translate(61.97241 31.73389)" id="Fill-200" fill="#59853E" stroke="none"/>
    <path d="M21.3079 57.5188C23.3049 42.887 20.0096 9.81527 5.72892 0C-4.92186 14.2878 -1.75164 64.2782 24 65C23.1541 62.6592 22.6356 59.637 21.3079 57.5188" transform="translate(107.1414 48.05371)" id="Fill-201" fill="#63874F" stroke="none"/>
    <path d="M6.31076 21.984C7.35525 18.0846 8.89802 11.8237 10 5.70754C8.53708 3.38784 6.86655 1.42849 4.97242 0C1.60898 4.95147 -0.163765 14.3975 0.0119128 24.442C2.11685 27.6754 4.49649 28.8047 6.31076 21.984" transform="translate(107.0704 48.66943)" id="Fill-202" fill="#388041" stroke="none"/>
    <path d="M0 32.2859C3.5563 42.7779 10.0161 50.9965 19.8803 52C20.2751 51.6816 20.6394 51.3564 21 50.9965C20.3206 48.806 19.7551 46.2834 18.5823 44.4286C20.017 33.9711 18.7987 14.3504 12.9499 0C12.2819 2.29081 11.7088 5.17335 11.3293 8.27045C10.6879 13.6099 11.1357 20.7453 6.28899 24.403C3.01735 26.8634 0.861558 29.4449 0 32.2859" transform="translate(109.3485 63.03906)" id="Fill-203" fill="#385932" stroke="none"/>
    <path d="M31.723 8.80581C41.5343 6.15525 37.6091 27.9596 34.8053 31.4236C28.1957 39.6024 21.2785 51.5774 10.1938 54.438C-6.50213 58.7359 -0.051686 37.1044 10.7798 32.8879C27.331 26.431 24.9578 14.2628 29.9756 0C30.5472 2.89121 31.4372 5.87732 31.723 8.80581" transform="translate(114.9907 117.4009)" id="Fill-204" fill="#316836" stroke="none"/>
    <path d="M15.5298 31.5397C16.9198 30.0553 18.3822 28.5991 19.8179 27.1534C21.7448 19.3893 22.1599 7.09071 14.3912 9.16045C14.0903 6.11402 13.1535 3.00765 12.5518 0C8.22951 12.154 9.11302 22.8447 0 30.0059C3.0656 40.0444 6.91188 40.7108 15.5298 31.5397" transform="translate(130.5618 113.8799)" id="Fill-205" fill="#385932" stroke="none"/>
    <path d="M8.24473 3.72962C7.44275 2.60398 6.85949 1.12564 6.09032 0C-1.52849 8.06333 -3.88705 24.3814 10.2716 20.3778C15.6886 18.8357 20.114 14.9222 24 10.2808C23.774 8.59614 22.7205 7.29039 20.526 6.64878C16.3156 5.42183 11.5547 8.35225 8.24473 3.72962" transform="translate(113.5052 151.3711)" id="Fill-206" fill="#388041" stroke="none"/>
    <path d="M32.7936 86C20.1206 67.3689 49.3809 50.1268 45.6723 30.0928C43.4671 18.165 18.6578 -11.4437 8.92523 4.71338C-1.84015 22.5947 -3.2405 45.2202 6.77142 63.9757C14.534 78.5088 16.2504 83.5329 32.7936 86" transform="translate(120.5367 48.51416)" id="Fill-207" fill="#668B47" stroke="none"/>
    <path d="M6.68101 33.9786C11.7045 33.6147 11.1328 26.7336 15.5368 25.2273C20.0124 23.7109 23.1845 32.4285 27.1325 28.1084C30.1888 24.7589 30.2807 18.8179 30.8116 14.5046C30.992 13.0421 31.0397 11.583 30.9682 10.1407C23.1504 1.33208 13.2361 -4.54147 8.01177 4.5974C3.51238 12.4861 0.775992 21.3082 0 30.3022C1.39202 32.6206 3.57365 34.2044 6.68101 33.9786" transform="translate(120.6119 48.70459)" id="Fill-208" fill="#7D965A" stroke="none"/>
    <path d="M0 17.2094C0.545958 25.2099 2.46339 33.1361 5.89701 40.4758C12.8432 55.3388 14.3791 60.4769 29.1825 63C17.8423 43.9459 44.0253 26.3124 40.7068 5.82365C40.4404 4.16278 39.7925 2.1662 38.8551 0C38.3486 4.95434 37.3916 9.80267 35.438 14.2552C34.7802 15.7535 21.3384 35.9737 22.2922 36.0303C15.1586 35.6522 12.1887 8.15947 0 17.2094" transform="translate(121.6223 73.44922)" id="Fill-209" fill="#4F7639" stroke="none"/>
    <path d="M35.5391 1.2592C56.0661 -6.75523 46.3415 25.7996 40.6509 33.7359C33.6572 43.4548 18.6371 63.8797 5.57161 62.9706C-7.77808 62.0474 6.19196 26.144 12.9257 19.7772C20.2937 12.8139 27.277 6.91581 35.5391 1.2592" transform="translate(141.8105 140.9775)" id="Fill-210" fill="#668B47" stroke="none"/>
    <path d="M5.35637 41.9718C11.1603 42.3739 17.3607 38.4305 23.0248 33.1692C24.9705 26.705 24.6607 19.9907 15.9048 20.991C7.61865 21.9304 13.1461 8.04563 13.3659 0C13.0561 0.290603 12.7462 0.577826 12.4264 0.868428C5.95276 6.92715 -7.47761 41.0932 5.35637 41.9718" transform="translate(145.6787 159.6099)" id="Fill-211" fill="#7D965A" stroke="none"/>
    <path d="M6.51612 20.9953C6.61054 20.6864 6.67462 20.4573 6.71846 20.2907C6.67722 20.4463 6.61807 20.6411 6.55742 20.8507C7.78302 16.4814 6.64518 13.2552 5.60481 10.3053C5.40194 9.73013 5.20278 9.16544 5.02557 8.60483C8.16853 6.06079 11.4025 3.61741 14.8794 1.22955C31.0697 -5.11838 27.9132 14.5988 23.1853 26.4131C17.3074 32.6742 8.67437 35.8777 0.0447235 32.8408C-0.309213 29.6474 1.49804 27.7024 3.32992 25.7309C4.60686 24.3567 5.89577 22.9696 6.47295 21.1377C6.42421 21.3013 6.37767 21.4664 6.33387 21.6237C6.38481 21.4457 6.4459 21.2401 6.51612 20.9953ZM6.51612 20.9953C6.50155 21.0425 6.48716 21.09 6.47295 21.1377C6.48782 21.0905 6.50221 21.0431 6.51612 20.9953ZM6.51612 20.9953C6.53018 20.9469 6.54394 20.8987 6.55742 20.8507C6.54367 20.8982 6.52984 20.9465 6.51612 20.9953ZM6.13168 22.2933C6.16203 22.21 6.2025 22.0816 6.24971 21.9081C6.19913 22.0643 6.16203 22.1961 6.13168 22.2933Z" transform="translate(162.9171 142.7495)" id="Fill-212" fill="#729559" fill-rule="evenodd" stroke="none"/>
    <path d="M12.4426 69C17.317 53.3373 22.36 39.8112 23.931 23.2801C24.4475 17.9214 22.2524 -8.23822 10.8823 2.60676C-1.36295 14.2823 -6.31987 62.5695 12.4426 69" transform="translate(182.802 79.28809)" id="Fill-214" fill="#385932" stroke="none"/>
    <path d="M0 36.1614C1.30483 45.3315 4.61061 52.7453 10.5682 55C14.9683 39.3785 19.5206 25.888 20.9388 9.40039C21.0813 7.7231 20.9938 3.99388 20.4758 0C16.4609 6.13861 6.58891 32.36 0 36.1614" transform="translate(185.3625 94.41992)" id="Fill-215" fill="#304230" stroke="none"/>
    <path d="M0 22.0817C1.19837 24.1728 3.0266 24.8964 5.85617 22.4972C8.83432 19.9733 14.3772 11.4183 17 4.40751C15.1847 0.0694566 12.3293 -2.00783 7.9848 2.61759C4.52537 6.29092 1.71518 13.5995 0 22.0817" transform="translate(187.009 79.16064)" id="Fill-216" fill="#316836" stroke="none"/>
    <path d="M19.2406 64.9999C24.6998 61.8079 13.4523 51.5136 12.8037 47.8671C11.4903 40.5497 20.9126 36.5424 23.0343 29.9328C26.0816 20.4539 22.138 -10.1583 8.03878 3.4182C-5.01427 15.9851 -2.78173 65.0624 19.2406 64.9999" transform="translate(214.6217 107.4512)" id="Fill-217" fill="#68894F" stroke="none"/>
    <path d="M10.5388 22.5308C15.1543 18.5927 12.4217 8.66236 9.31166 0C8.85011 0.351422 8.37024 0.749941 7.87938 1.18107C4.0624 4.59384 1.4103 10.6006 0 17.6182C2.12827 22.3968 6.23097 26.2045 10.5388 22.5308" transform="translate(215.172 110.9805)" id="Fill-218" fill="#858E62" stroke="none"/>
    <path d="M0.000219746 30.607C-0.0421595 47.4339 6.04416 65.0312 19.2404 65C19.2632 64.9896 19.2828 64.9653 19.2828 64.9653C19.5534 64.5558 19.7718 64.1428 19.9935 63.7021C20.2347 63.2024 20.4759 62.6645 20.7172 62.1405C20.4009 57.7369 13.3106 50.7306 12.802 47.8642C11.4883 40.5456 20.9128 36.5375 23.035 29.9268C25.506 22.2335 23.3773 0.631573 14.9568 0C14.9177 1.18333 15.172 2.69633 15.8012 4.58064C21.8386 22.8338 16.3488 33.81 0.000219746 30.607" transform="translate(214.6217 107.4512)" id="Fill-219" fill="#778F6A" stroke="none"/>
    <path d="M33.7249 32.8468C34.7292 48.1848 31.1708 72.3623 15.3733 78.4032C-9.62264 87.9708 11.8148 51.7255 13.4481 44.3703C15.1856 36.5573 16.3706 29.7917 11.1233 22.9255C7.67954 18.4139 -6.31441 7.7192 3.3427 1.86556C18.7614 -7.50094 32.9326 20.8378 33.7249 32.8468C34.6354 46.7769 32.9257 20.817 33.7249 32.8468" transform="translate(220.5818 137.0742)" id="Fill-220" fill="#5F7A39" stroke="none"/>
    <path d="M10.907 22.98C16.0523 29.8625 14.8903 36.6442 13.1866 44.4757C13.1355 44.7155 13.0639 44.9867 12.9685 45.2787C19.8516 54.1112 31.3756 39.5919 30.9906 28.1488C30.9327 26.4004 30.8168 24.6102 30.6328 22.7888C25.8964 9.91015 14.9585 -5.38087 3.27771 1.87011C-6.19163 7.73763 7.53022 18.4577 10.907 22.98" transform="translate(221.0212 139.2852)" id="Fill-221" fill="#4C632F" stroke="none"/>
    <path d="M3.99681 14.8873C-0.878622 26.0764 -4.26157 38.3216 12.3014 32.5012C24.9697 28.0555 29.9482 13.1552 31 0C22.4538 3.95176 27.6846 20.7695 15.0554 22.8103C7.78486 23.9868 7.87014 18.1144 3.99681 14.8873" transform="translate(223.8496 183.0552)" id="Fill-222" fill="#60714A" stroke="none"/>
    <path d="M22.4757 0C28.5594 8.36009 15.1188 60.9165 5.29906 64.57C-5.7067 68.6563 3.66651 42.3525 4.78279 39.1898C6.64208 33.9073 8.43858 28.8292 9.90021 23.4035C12.356 14.2902 19.413 6.00849 22.4757 0" transform="translate(262.705 176.7476)" id="Fill-223" fill="#33733B" stroke="none"/>
    <path d="M1.81591 28.6379C1.54918 29.3848 0.822091 31.3978 0 34C1.69533 32.7164 3.16414 31.4855 4.16161 30.3247C11.6883 21.6415 12.3168 10.9382 13 0C10.6251 3.84714 8.37071 8.02042 7.17594 12.3936C5.64503 17.9767 3.76335 23.2021 1.81591 28.6379" transform="translate(262.5481 187.2974)" id="Fill-224" fill="#5C8843" stroke="none"/>
    <path d="M23.6883 81.1223C32.3276 70.6996 32.1402 49.9191 29.0908 37.0615C27.3971 29.9275 21.8205 25.3786 19.7586 18.4871C18.1117 12.9888 13.8072 -2.64863 5.33856 0.387345C-9.43964 5.68407 10.6975 26.7617 14.982 31.6999C20.0063 37.4849 22.4665 43.13 23.2264 51.07C24.1971 61.2195 18.0548 72.554 20.1971 82C21.3619 81.7063 22.5234 81.416 23.6883 81.1223" transform="translate(263.4475 96.82959)" id="Fill-225" fill="#527B3B" stroke="none"/>
    <path d="M15.5502 30.8839C20.362 36.0779 22.9016 41.1622 23.8883 48C25.0243 36.7966 17.2074 27.2404 13.5629 14.9989C12.3365 10.8896 12.9376 5.93839 11.9891 1.59614C10.1582 0.158702 8.02853 -0.456866 5.541 0.374983C-9.79761 5.53577 11.1032 26.0725 15.5502 30.8839" transform="translate(263.0586 97.2124)" id="Fill-226" fill="#6E8239" stroke="none"/>
    <path d="M40.0212 66.0546C39.8332 55.2565 38.4324 46.8277 41 36.8159C39.8829 28.5526 39.3332 20.2893 39.4006 12.1019C38.2445 10.5121 36.9217 8.96356 35.3081 7.46679C20.5658 -6.25245 2.32685 -0.510231 0.142292 20.1307C-1.14149 32.2359 6.49029 38.392 13.8171 46.4518C18.1578 51.2283 18.9026 56.7222 24.6264 60.54C31.5099 63.8508 24.8569 72.3314 26.7259 77.5149C31.4319 90.603 40.117 71.4106 40.0212 66.0546" transform="translate(300.1669 128.6494)" id="Fill-227" fill="#758F58" stroke="none"/>
    <path d="M8.66351 9.25618C7.69959 7.6616 6.59669 6.10853 5.25133 4.60734C3.54228 2.69799 1.7741 1.16913 0 0C0.570668 10.8923 6.00532 17.9762 2.46008 30.2106C0.366647 37.4536 3.5482 47.7164 8.71674 48C8.68421 43.4342 8.97102 38.9375 10 34.0846C9.06564 25.7831 8.60733 17.485 8.66351 9.25618" transform="translate(330.8698 131.1538)" id="Fill-228" fill="#949F84" stroke="none"/>
    <path d="M0.140613 20.1265C-1.12803 32.2323 6.41371 38.3887 13.6541 46.4489C17.9436 51.2257 18.6796 56.7198 24.3359 60.5378C31.1381 63.8488 24.5637 72.3297 26.4105 77.5135C29.8169 87.105 35.3296 79.3656 38 72.4332C37.7827 70.9674 37.5304 69.6913 37.3306 68.836C34.7057 57.7821 24.6758 50.8014 16.9728 43.5449C11.2675 38.1645 7.92416 24.4722 12.6377 17.3432C15.0769 13.6391 19.7204 16.7052 22.6922 12.6837C25.191 9.29685 24.5286 4.53042 22.6292 0.502049C11.6985 -2.02948 1.71414 5.08914 0.140613 20.1265" transform="translate(300.6063 129.0029)" id="Fill-229" fill="#6E8239" stroke="none"/>
    <path d="M33.4439 45.8404C31.3998 51.0354 29.9554 56.5562 27.0995 61.4083C22.3896 69.4049 18.8645 62.149 14.4179 57.9381C3.02353 47.1366 -3.5074 34.5108 1.96673 19.1383C6.62907 6.07362 21.1683 -4.13469 35.6855 1.66385C57.6186 10.4079 38.5341 32.9094 33.4439 45.8404C31.9154 49.7221 36.1426 38.9823 33.4439 45.8404" transform="translate(55.12915 80.58057)" id="Fill-230" fill="#75955C" stroke="none"/>
    <path d="M0 27.474C2.20181 33.8478 6.37098 39.6582 11.6716 45.0104C15.8034 49.1782 19.079 56.3598 23.4554 48.4451C26.1023 43.6393 27.4513 38.1784 29.3507 33.0366C29.3269 33.1011 29.3065 33.1622 29.2861 33.2165C29.3065 33.1622 29.3235 33.1079 29.3507 33.0366L29.3609 33.0095L29.3507 33.0366C32.6772 24.0393 42.4188 10.3515 40.8252 0C32.7315 5.42352 20.5196 26.4999 18.2567 27.983C14.1385 30.6846 4.80457 27.0633 0 27.474" transform="translate(59.04333 90.61621)" id="Fill-231" fill="#879B77" stroke="none"/>
    <path d="M1.85467 19.1763C-1.79137 30.0411 0.211185 39.5481 5.47999 48C7.69662 47.5704 9.76132 46.2402 11.3634 43.7174C17.2053 34.5437 16.5459 21.108 23.541 12.8314C25.661 10.3292 34.8175 6.69616 29.2069 2.03886C28.1296 1.14521 26.973 0.478413 25.7611 0.000653248C14.9991 -0.0612149 5.40058 8.62782 1.85467 19.1763L1.85467 19.1763Z" transform="translate(59.09375 80.5957)" id="Fill-232" fill="#778F6A" stroke="none"/>
  </g>
</svg>