<svg width="1048px" height="497px" viewBox="0 0 1048 497" version="1.1" xmlns:xlink="http://www.w3.org/1999/xlink" xmlns="http://www.w3.org/2000/svg">
  <desc>Created with Lunacy</desc>
  <g id="Group-12" transform="translate(-54.5 0)">
    <path d="M1.99938 4C4.66521 4 4.66854 0 1.99938 0C-0.663125 0 -0.66979 4 1.99938 4" transform="translate(212 132)" id="Fill-4" fill="#FFFFFF" stroke="none"/>
    <path d="M2.00062 4C4.66313 4 4.66979 0 2.00062 0C-0.665208 0 -0.668541 4 2.00062 4" transform="translate(370 375)" id="Fill-5" fill="#FFFFFF" stroke="none"/>
    <path d="M2.49887 6C5.83071 6 5.83671 0 2.49887 0C-0.829956 0 -0.835959 6 2.49887 6" transform="translate(380 65)" id="Fill-6" fill="#FFFFFF" stroke="none"/>
    <path d="M1.49988 3C3.49832 3 3.50176 0 1.49988 0C-0.49824 0 -0.501681 3 1.49988 3" transform="translate(57 123)" id="Fill-7" fill="#FFFFFF" stroke="none"/>
    <path d="M0.223273 0.43438C0.497725 0.43438 0.497725 0.0157547 0.223273 0.0157547C-0.0466793 0.0157547 -0.0466793 0.43438 0.223273 0.43438" transform="translate(241.7749 360.7749)" id="Fill-8" fill="#FAEABC" stroke="none"/>
    <path d="M0.223731 0.450134C0.525317 0.450134 0.525317 0 0.223731 0C-0.074577 0 -0.074577 0.450134 0.223731 0.450134" transform="translate(171.7749 209.7749)" id="Fill-9" fill="#FAEABC" stroke="none"/>
    <path d="M1.0001 2C2.33219 2 2.33441 0 1.0001 0C-0.332258 0 -0.334478 2 1.0001 2" transform="translate(78 74)" id="Fill-10" fill="#FFFFFF" stroke="none"/>
    <path d="M1 2C2.33195 2 2.33472 0 1 0C-0.331946 0 -0.33472 2 1 2" transform="translate(352 408)" id="Fill-11" fill="#FFFFFF" stroke="none"/>
    <path d="M0.50012 1C1.16599 1 1.16726 0 0.50012 0C-0.166069 0 -0.167344 1 0.50012 1" transform="translate(57 164)" id="Fill-12" fill="#FFFFFF" stroke="none"/>
    <path d="M1 3C2.33196 3 2.33471 0 1 0C-0.331957 0 -0.334709 3 1 3" transform="translate(184 323)" id="Fill-13" fill="#FAEABC" stroke="none"/>
    <path d="M1 2C2.33163 2 2.33504 0 1 0C-0.331626 0 -0.33504 2 1 2" transform="translate(333 223)" id="Fill-14" fill="#FFFFFF" stroke="none"/>
    <path d="M0.225943 0.450142C0.52458 0.450142 0.52458 0 0.225943 0C-0.0753142 0 -0.0753142 0.450142 0.225943 0.450142" transform="translate(300.7749 81.7749)" id="Fill-15" fill="#FAEABC" stroke="none"/>
    <path d="M0.225453 0.450134C0.524743 0.450134 0.524743 0 0.225453 0C-0.0738369 0 -0.0764623 0.450134 0.225453 0.450134" transform="translate(254.7749 213.7749)" id="Fill-16" fill="#FAEABC" stroke="none"/>
    <path d="M0.225943 0.450134C0.52458 0.450134 0.52458 0 0.225943 0C-0.0753142 0 -0.0753142 0.450134 0.225943 0.450134" transform="translate(454.7749 300.7749)" id="Fill-17" fill="#FAEABC" stroke="none"/>
    <path d="M0.225129 0.385321C0.431643 0.385321 0.431643 0.0648204 0.225129 0.0648204C0.0181655 0.0648204 0.0181655 0.385321 0.225129 0.385321" transform="translate(75.7749 47.7749)" id="Fill-18" fill="#FFFFFF" stroke="none"/>
    <path d="M1 2C2.33237 2 2.33429 0 1 0C-0.332374 0 -0.334293 2 1 2" transform="translate(96 45)" id="Fill-19" fill="#FFFFFF" stroke="none"/>
    <path d="M0.499603 2C1.16574 2 1.16786 0 0.499603 0C-0.166534 0 -0.166534 2 0.499603 2" transform="translate(259 42)" id="Fill-20" fill="#FAEABC" stroke="none"/>
    <path d="M0.500481 1C1.16522 1 1.16779 0 0.500481 0C-0.166827 0 -0.166827 1 0.500481 1" transform="translate(299 146)" id="Fill-21" fill="#FFFFFF" stroke="none"/>
    <path d="M0.223318 0.450134C0.525455 0.450134 0.525455 0 0.223318 0C-0.0744394 0 -0.0744394 0.450134 0.223318 0.450134" transform="translate(207.7749 407.7749)" id="Fill-22" fill="#FFFFFF" stroke="none"/>
    <path d="M0.5 1C1.16667 1 1.16667 0 0.5 0C-0.166667 0 -0.166667 1 0.5 1" transform="translate(309 301)" id="Fill-23" fill="#FFFFFF" stroke="none"/>
    <path d="M0.5 1C1.16667 1 1.16667 0 0.5 0C-0.166667 0 -0.166667 1 0.5 1" transform="translate(322 476)" id="Fill-24" fill="#FFFFFF" stroke="none"/>
    <path d="M0.499542 1C1.1656 1 1.16804 0 0.499542 0C-0.166514 0 -0.166514 1 0.499542 1" transform="translate(271 451)" id="Fill-25" fill="#FFFFFF" stroke="none"/>
    <path d="M0.501014 1C1.16633 1 1.16633 0 0.501014 0C-0.167005 0 -0.167005 1 0.501014 1" transform="translate(194 251)" id="Fill-26" fill="#FFFFFF" stroke="none"/>
    <path d="M0.501014 1C1.16633 1 1.16633 0 0.501014 0C-0.167005 0 -0.167005 1 0.501014 1" transform="translate(263 406)" id="Fill-27" fill="#FFFFFF" stroke="none"/>
    <path d="M0.5 1C1.16531 1 1.16802 0 0.5 0C-0.165314 0 -0.168018 1 0.5 1" transform="translate(130 291)" id="Fill-28" fill="#FFFFFF" stroke="none"/>
    <path d="M1.50113 4C3.49812 4 3.50113 0 1.50113 0C-0.49887 0 -0.501882 4 1.50113 4" transform="translate(147 141)" id="Fill-29" fill="#FFFFFF" stroke="none"/>
    <path d="M1.50113 4C3.49812 4 3.50113 0 1.50113 0C-0.49887 0 -0.501882 4 1.50113 4" transform="translate(234 316)" id="Fill-30" fill="#FFFFFF" stroke="none"/>
    <path d="M2.00064 4C4.66474 4 4.66816 0 2.00064 0C-0.663455 0 -0.670304 4 2.00064 4" transform="translate(402 131)" id="Fill-31" fill="#FFFFFF" stroke="none"/>
    <path d="M2.00128 4C4.66453 4 4.66795 0 2.00128 0C-0.665383 0 -0.668806 4 2.00128 4" transform="translate(385 288)" id="Fill-32" fill="#FAEABC" stroke="none"/>
    <path d="M1.49985 3C3.49849 3 3.50161 0 1.49985 0C-0.49839 0 -0.501512 3 1.49985 3" transform="translate(106 207)" id="Fill-33" fill="#FAEABC" stroke="none"/>
    <path d="M0.500619 1C1.16481 1 1.16811 0 0.500619 0C-0.166873 0 -0.166873 1 0.500619 1" transform="translate(354 41)" id="Fill-34" fill="#FFFFFF" stroke="none"/>
    <path d="M0.498759 1C1.16708 1 1.16708 0 0.498759 0C-0.166253 0 -0.166253 1 0.498759 1" transform="translate(239 496)" id="Fill-35" fill="#FFFFFF" stroke="none"/>
    <path d="M0.501241 1C1.16625 1 1.16625 0 0.501241 0C-0.16708 0 -0.16708 1 0.501241 1" transform="translate(226 0)" id="Fill-36" fill="#FFFFFF" stroke="none"/>
    <path d="M1.50066 3C3.49978 3 3.49978 0 1.50066 0C-0.498465 0 -0.501972 3 1.50066 3" transform="translate(226 83)" id="Fill-37" fill="#FAEABC" stroke="none"/>
    <path d="M1.50132 3C3.49781 3 3.50132 0 1.50132 0C-0.498684 0 -0.502193 3 1.50132 3" transform="translate(422 392)" id="Fill-38" fill="#FAEABC" stroke="none"/>
    <path d="M1.49868 3C3.49868 3 3.50219 0 1.49868 0C-0.497807 0 -0.501315 3 1.49868 3" transform="translate(456 184)" id="Fill-39" fill="#FAEABC" stroke="none"/>
    <path d="M8.99988 6.45994C9.00311 6.35344 8.93866 6.25202 8.83554 6.23065C6.39617 5.60078 4.99764 3.25462 5.27477 0.249767C5.28443 0.1358 5.21676 0.0337045 5.1072 0.00521275C5.00086 -0.0192087 4.89452 0.0442193 4.85585 0.152759L4.81718 0.272831C4.10825 2.41107 3.03841 5.64182 0.247793 5.22734C0.13823 5.21139 0.0351129 5.28364 0.00611117 5.39591C-0.0196682 5.50886 0.0383354 5.62317 0.13823 5.66523C3.10608 6.84967 3.89235 9.31827 4.30482 11.8116C4.31771 11.8839 4.3596 11.9415 4.4176 11.9734C4.45305 11.9941 4.49816 12.004 4.54328 11.9985C4.65606 11.9853 4.73985 11.8812 4.7334 11.7608C4.6045 9.08423 6.1706 7.13594 8.81943 6.676C8.91932 6.65871 8.99666 6.5678 8.99988 6.45994" transform="translate(181 62)" id="Fill-42" fill="#FAEABC" stroke="none"/>
    <path d="M12.9995 8.02586C12.9901 7.88392 12.8814 7.759 12.7331 7.74471C9.1627 7.24706 6.84737 4.32827 6.83901 0.302535C6.83831 0.150384 6.72719 0.0241008 6.56522 0.00197576C6.40882 -0.0153839 6.26427 0.0833277 6.22699 0.232076L6.18589 0.397503C5.46102 3.3323 4.36658 7.76785 0.322144 7.60481C0.165048 7.59868 0.0274588 7.70897 0.00342423 7.8618C-0.0199137 8.01497 0.0783147 8.1593 0.228792 8.20082C4.62922 9.36085 6.08383 12.5275 7.00969 15.7781C7.03755 15.8721 7.10617 15.9429 7.19256 15.9773C7.24864 15.9997 7.31134 16.0065 7.37439 15.9932C7.53497 15.9599 7.64051 15.8098 7.61647 15.6508C7.07099 12.1176 9.04531 9.31592 12.7703 8.33766C12.9124 8.3009 13.0075 8.16985 12.9995 8.02586" transform="translate(0 129)" id="Fill-43" fill="#FAEABC" stroke="none"/>
    <path d="M8.99954 5.5185C8.99291 5.422 8.91667 5.33514 8.8139 5.32549C6.34417 4.98128 4.73968 2.97715 4.73305 0.207393C4.73305 0.104452 4.6568 0.0175951 4.54409 0.00151061C4.43801 -0.011357 4.33524 0.0594149 4.31203 0.159139L4.2822 0.274948C3.78162 2.29195 3.02247 5.34157 0.22455 5.22898C0.115152 5.22577 0.0190154 5.29975 0.00244006 5.40591C-0.0141353 5.51207 0.0554812 5.60858 0.158248 5.63753C3.2048 6.43532 4.21258 8.61317 4.85239 10.8489C4.87228 10.9133 4.91869 10.9615 4.97836 10.984C5.01814 11.0001 5.06124 11.0033 5.10433 10.9969C5.21705 10.9712 5.28998 10.8682 5.2734 10.7588C4.89549 8.33008 6.2613 6.40637 8.84042 5.73404C8.93987 5.7083 9.00617 5.61823 8.99954 5.5185" transform="translate(295 429)" id="Fill-44" fill="#FFFFFF" stroke="none"/>
    <path d="M0.225129 0.385321C0.0181655 0.385321 0.0181655 0.0648204 0.225129 0.0648204C0.431643 0.0648204 0.431643 0.385321 0.225129 0.385321" transform="translate(75.7749 47.7749)" id="Fill-48" fill="#DCDCE5" stroke="none"/>
    <path d="M1 2C-0.334293 2 -0.332374 0 1 0C2.33429 0 2.33237 2 1 2" transform="translate(96 45)" id="Fill-49" fill="#DCDCE5" stroke="none"/>
    <path d="M2.00064 4C-0.670304 4 -0.663455 0 2.00064 0C4.66816 0 4.66474 4 2.00064 4" transform="translate(402 131)" id="Fill-50" fill="#DCDCE5" stroke="none"/>
    <path d="M1.50066 3C-0.501972 3 -0.498465 0 1.50066 0C3.49978 0 3.49978 3 1.50066 3" transform="translate(226 83)" id="Fill-51" fill="#D8CBB0" stroke="none"/>
    <path d="M1.49868 3C-0.501315 3 -0.497807 0 1.49868 0C3.50219 0 3.49868 3 1.49868 3" transform="translate(456 184)" id="Fill-52" fill="#D8CBB0" stroke="none"/>
    <path d="M4.5175 12C4.48205 12 4.44661 11.9905 4.4176 11.9735C4.3596 11.9417 4.31771 11.884 4.30482 11.8117C3.89235 9.31833 3.10608 6.84968 0.13823 5.66522C0.0383354 5.62316 -0.0196682 5.50885 0.00611117 5.3959C0.0318905 5.29414 0.118896 5.22528 0.215568 5.22528C0.225236 5.22528 0.234903 5.22596 0.247793 5.22732C0.412136 5.25174 0.570035 5.26361 0.724711 5.26361C3.16086 5.26361 4.15014 2.28447 4.81718 0.272712L4.85585 0.152637C4.88808 0.0596981 4.97186 0 5.06209 0C5.07498 0 5.09109 0.00169597 5.1072 0.00508791C5.21676 0.0335802 5.28443 0.135678 5.27477 0.249647C4.99764 3.25456 6.39617 5.60077 8.83554 6.23065C8.93866 6.25202 9.00311 6.35344 8.99988 6.45995C8.99666 6.56781 8.91932 6.65871 8.81943 6.67601C6.1706 7.13596 4.6045 9.08429 4.7334 11.7609C4.73985 11.8813 4.65606 11.9854 4.54328 11.9986C4.53361 11.9997 4.52394 12 4.5175 12" transform="translate(181 62)" id="Fill-53" fill="#D8CBB0" stroke="none"/>
    <path d="M0.223731 0.450134C-0.074577 0.450134 -0.074577 0 0.223731 0C0.525317 0 0.525317 0.450134 0.223731 0.450134" transform="translate(171.7749 209.7749)" id="Fill-56" fill="#D8CBB0" stroke="none"/>
    <path d="M0.422062 0.450134C0.2494 0.450134 0.107914 0.373282 0 0.248855C0.333333 0.164683 0.666667 0.0805118 1 0C0.884892 0.263493 0.693046 0.450134 0.422062 0.450134" transform="translate(334 224.7749)" id="Fill-57" fill="#DCDCE5" stroke="none"/>
    <path d="M1.49985 3C-0.501512 3 -0.49839 0 1.49985 0C3.50161 0 3.49849 3 1.49985 3" transform="translate(106 207)" id="Fill-58" fill="#D8CBB0" stroke="none"/>
  </g>
  <g id="Group-12-Copy" transform="translate(721.5 0)">
    <path d="M1.99938 4C4.66521 4 4.66854 0 1.99938 0C-0.663125 0 -0.66979 4 1.99938 4" transform="translate(212 132)" id="Fill-4" fill="#FFFFFF" stroke="none"/>
    <path d="M2.00062 4C4.66313 4 4.66979 0 2.00062 0C-0.665208 0 -0.668541 4 2.00062 4" transform="translate(370 375)" id="Fill-5" fill="#FFFFFF" stroke="none"/>
    <path d="M2.49887 6C5.83071 6 5.83671 0 2.49887 0C-0.829956 0 -0.835959 6 2.49887 6" transform="translate(380 65)" id="Fill-6" fill="#FFFFFF" stroke="none"/>
    <path d="M1.49988 3C3.49832 3 3.50176 0 1.49988 0C-0.49824 0 -0.501681 3 1.49988 3" transform="translate(57 123)" id="Fill-7" fill="#FFFFFF" stroke="none"/>
    <path d="M0.223273 0.43438C0.497725 0.43438 0.497725 0.0157547 0.223273 0.0157547C-0.0466793 0.0157547 -0.0466793 0.43438 0.223273 0.43438" transform="translate(241.7754 360.7749)" id="Fill-8" fill="#FAEABC" stroke="none"/>
    <path d="M0.223731 0.450134C0.525317 0.450134 0.525317 0 0.223731 0C-0.074577 0 -0.074577 0.450134 0.223731 0.450134" transform="translate(171.7754 209.7749)" id="Fill-9" fill="#FAEABC" stroke="none"/>
    <path d="M1.0001 2C2.33219 2 2.33441 0 1.0001 0C-0.332258 0 -0.334478 2 1.0001 2" transform="translate(78 74)" id="Fill-10" fill="#FFFFFF" stroke="none"/>
    <path d="M1 2C2.33195 2 2.33472 0 1 0C-0.331946 0 -0.33472 2 1 2" transform="translate(352 408)" id="Fill-11" fill="#FFFFFF" stroke="none"/>
    <path d="M0.50012 1C1.16599 1 1.16726 0 0.50012 0C-0.166069 0 -0.167344 1 0.50012 1" transform="translate(57 164)" id="Fill-12" fill="#FFFFFF" stroke="none"/>
    <path d="M1 3C2.33196 3 2.33471 0 1 0C-0.331957 0 -0.334709 3 1 3" transform="translate(184 323)" id="Fill-13" fill="#FAEABC" stroke="none"/>
    <path d="M1 2C2.33163 2 2.33504 0 1 0C-0.331626 0 -0.33504 2 1 2" transform="translate(333 223)" id="Fill-14" fill="#FFFFFF" stroke="none"/>
    <path d="M0.225943 0.450142C0.52458 0.450142 0.52458 0 0.225943 0C-0.0753142 0 -0.0753142 0.450142 0.225943 0.450142" transform="translate(300.7754 81.7749)" id="Fill-15" fill="#FAEABC" stroke="none"/>
    <path d="M0.225453 0.450134C0.524743 0.450134 0.524743 0 0.225453 0C-0.0738369 0 -0.0764623 0.450134 0.225453 0.450134" transform="translate(254.7754 213.7749)" id="Fill-16" fill="#FAEABC" stroke="none"/>
    <path d="M0.225943 0.450134C0.52458 0.450134 0.52458 0 0.225943 0C-0.0753142 0 -0.0753142 0.450134 0.225943 0.450134" transform="translate(454.7754 300.7749)" id="Fill-17" fill="#FAEABC" stroke="none"/>
    <path d="M0.225129 0.385321C0.431643 0.385321 0.431643 0.0648204 0.225129 0.0648204C0.0181655 0.0648204 0.0181655 0.385321 0.225129 0.385321" transform="translate(75.7749 47.7749)" id="Fill-18" fill="#FFFFFF" stroke="none"/>
    <path d="M1 2C2.33237 2 2.33429 0 1 0C-0.332374 0 -0.334293 2 1 2" transform="translate(96 45)" id="Fill-19" fill="#FFFFFF" stroke="none"/>
    <path d="M0.499603 2C1.16574 2 1.16786 0 0.499603 0C-0.166534 0 -0.166534 2 0.499603 2" transform="translate(259 42)" id="Fill-20" fill="#FAEABC" stroke="none"/>
    <path d="M0.500481 1C1.16522 1 1.16779 0 0.500481 0C-0.166827 0 -0.166827 1 0.500481 1" transform="translate(299 146)" id="Fill-21" fill="#FFFFFF" stroke="none"/>
    <path d="M0.223318 0.450134C0.525455 0.450134 0.525455 0 0.223318 0C-0.0744394 0 -0.0744394 0.450134 0.223318 0.450134" transform="translate(207.7754 407.7749)" id="Fill-22" fill="#FFFFFF" stroke="none"/>
    <path d="M0.5 1C1.16667 1 1.16667 0 0.5 0C-0.166667 0 -0.166667 1 0.5 1" transform="translate(309 301)" id="Fill-23" fill="#FFFFFF" stroke="none"/>
    <path d="M0.5 1C1.16667 1 1.16667 0 0.5 0C-0.166667 0 -0.166667 1 0.5 1" transform="translate(322 476)" id="Fill-24" fill="#FFFFFF" stroke="none"/>
    <path d="M0.499542 1C1.1656 1 1.16804 0 0.499542 0C-0.166514 0 -0.166514 1 0.499542 1" transform="translate(271 451)" id="Fill-25" fill="#FFFFFF" stroke="none"/>
    <path d="M0.501014 1C1.16633 1 1.16633 0 0.501014 0C-0.167005 0 -0.167005 1 0.501014 1" transform="translate(194 251)" id="Fill-26" fill="#FFFFFF" stroke="none"/>
    <path d="M0.501014 1C1.16633 1 1.16633 0 0.501014 0C-0.167005 0 -0.167005 1 0.501014 1" transform="translate(263 406)" id="Fill-27" fill="#FFFFFF" stroke="none"/>
    <path d="M0.5 1C1.16531 1 1.16802 0 0.5 0C-0.165314 0 -0.168018 1 0.5 1" transform="translate(130 291)" id="Fill-28" fill="#FFFFFF" stroke="none"/>
    <path d="M1.50113 4C3.49812 4 3.50113 0 1.50113 0C-0.49887 0 -0.501882 4 1.50113 4" transform="translate(147 141)" id="Fill-29" fill="#FFFFFF" stroke="none"/>
    <path d="M1.50113 4C3.49812 4 3.50113 0 1.50113 0C-0.49887 0 -0.501882 4 1.50113 4" transform="translate(234 316)" id="Fill-30" fill="#FFFFFF" stroke="none"/>
    <path d="M2.00064 4C4.66474 4 4.66816 0 2.00064 0C-0.663455 0 -0.670304 4 2.00064 4" transform="translate(402 131)" id="Fill-31" fill="#FFFFFF" stroke="none"/>
    <path d="M2.00128 4C4.66453 4 4.66795 0 2.00128 0C-0.665383 0 -0.668806 4 2.00128 4" transform="translate(385 288)" id="Fill-32" fill="#FAEABC" stroke="none"/>
    <path d="M1.49985 3C3.49849 3 3.50161 0 1.49985 0C-0.49839 0 -0.501512 3 1.49985 3" transform="translate(106 207)" id="Fill-33" fill="#FAEABC" stroke="none"/>
    <path d="M0.500619 1C1.16481 1 1.16811 0 0.500619 0C-0.166873 0 -0.166873 1 0.500619 1" transform="translate(354 41)" id="Fill-34" fill="#FFFFFF" stroke="none"/>
    <path d="M0.498759 1C1.16708 1 1.16708 0 0.498759 0C-0.166253 0 -0.166253 1 0.498759 1" transform="translate(239 496)" id="Fill-35" fill="#FFFFFF" stroke="none"/>
    <path d="M0.501241 1C1.16625 1 1.16625 0 0.501241 0C-0.16708 0 -0.16708 1 0.501241 1" transform="translate(226 0)" id="Fill-36" fill="#FFFFFF" stroke="none"/>
    <path d="M1.50066 3C3.49978 3 3.49978 0 1.50066 0C-0.498465 0 -0.501972 3 1.50066 3" transform="translate(226 83)" id="Fill-37" fill="#FAEABC" stroke="none"/>
    <path d="M1.50132 3C3.49781 3 3.50132 0 1.50132 0C-0.498684 0 -0.502193 3 1.50132 3" transform="translate(422 392)" id="Fill-38" fill="#FAEABC" stroke="none"/>
    <path d="M1.49868 3C3.49868 3 3.50219 0 1.49868 0C-0.497807 0 -0.501315 3 1.49868 3" transform="translate(456 184)" id="Fill-39" fill="#FAEABC" stroke="none"/>
    <path d="M8.99988 6.45994C9.00311 6.35344 8.93866 6.25202 8.83554 6.23065C6.39617 5.60078 4.99764 3.25462 5.27477 0.249767C5.28443 0.1358 5.21676 0.0337045 5.1072 0.00521275C5.00086 -0.0192087 4.89452 0.0442193 4.85585 0.152759L4.81718 0.272831C4.10825 2.41107 3.03841 5.64182 0.247793 5.22734C0.13823 5.21139 0.0351129 5.28364 0.00611117 5.39591C-0.0196682 5.50886 0.0383354 5.62317 0.13823 5.66523C3.10608 6.84967 3.89235 9.31827 4.30482 11.8116C4.31771 11.8839 4.3596 11.9415 4.4176 11.9734C4.45305 11.9941 4.49816 12.004 4.54328 11.9985C4.65606 11.9853 4.73985 11.8812 4.7334 11.7608C4.6045 9.08423 6.1706 7.13594 8.81943 6.676C8.91932 6.65871 8.99666 6.5678 8.99988 6.45994" transform="translate(181 62)" id="Fill-42" fill="#FAEABC" stroke="none"/>
    <path d="M12.9995 8.02586C12.9901 7.88392 12.8814 7.759 12.7331 7.74471C9.1627 7.24706 6.84737 4.32827 6.83901 0.302535C6.83831 0.150384 6.72719 0.0241008 6.56522 0.00197576C6.40882 -0.0153839 6.26427 0.0833277 6.22699 0.232076L6.18589 0.397503C5.46102 3.3323 4.36658 7.76785 0.322144 7.60481C0.165048 7.59868 0.0274588 7.70897 0.00342423 7.8618C-0.0199137 8.01497 0.0783147 8.1593 0.228792 8.20082C4.62922 9.36085 6.08383 12.5275 7.00969 15.7781C7.03755 15.8721 7.10617 15.9429 7.19256 15.9773C7.24864 15.9997 7.31134 16.0065 7.37439 15.9932C7.53497 15.9599 7.64051 15.8098 7.61647 15.6508C7.07099 12.1176 9.04531 9.31592 12.7703 8.33766C12.9124 8.3009 13.0075 8.16985 12.9995 8.02586" transform="translate(0 129)" id="Fill-43" fill="#FAEABC" stroke="none"/>
    <path d="M8.99954 5.5185C8.99291 5.422 8.91667 5.33514 8.8139 5.32549C6.34417 4.98128 4.73968 2.97715 4.73305 0.207393C4.73305 0.104452 4.6568 0.0175951 4.54409 0.00151061C4.43801 -0.011357 4.33524 0.0594149 4.31203 0.159139L4.2822 0.274948C3.78162 2.29195 3.02247 5.34157 0.22455 5.22898C0.115152 5.22577 0.0190154 5.29975 0.00244006 5.40591C-0.0141353 5.51207 0.0554812 5.60858 0.158248 5.63753C3.2048 6.43532 4.21258 8.61317 4.85239 10.8489C4.87228 10.9133 4.91869 10.9615 4.97836 10.984C5.01814 11.0001 5.06124 11.0033 5.10433 10.9969C5.21705 10.9712 5.28998 10.8682 5.2734 10.7588C4.89549 8.33008 6.2613 6.40637 8.84042 5.73404C8.93987 5.7083 9.00617 5.61823 8.99954 5.5185" transform="translate(295 429)" id="Fill-44" fill="#FFFFFF" stroke="none"/>
    <path d="M0.225129 0.385321C0.0181655 0.385321 0.0181655 0.0648204 0.225129 0.0648204C0.431643 0.0648204 0.431643 0.385321 0.225129 0.385321" transform="translate(75.7749 47.7749)" id="Fill-48" fill="#DCDCE5" stroke="none"/>
    <path d="M1 2C-0.334293 2 -0.332374 0 1 0C2.33429 0 2.33237 2 1 2" transform="translate(96 45)" id="Fill-49" fill="#DCDCE5" stroke="none"/>
    <path d="M2.00064 4C-0.670304 4 -0.663455 0 2.00064 0C4.66816 0 4.66474 4 2.00064 4" transform="translate(402 131)" id="Fill-50" fill="#DCDCE5" stroke="none"/>
    <path d="M1.50066 3C-0.501972 3 -0.498465 0 1.50066 0C3.49978 0 3.49978 3 1.50066 3" transform="translate(226 83)" id="Fill-51" fill="#D8CBB0" stroke="none"/>
    <path d="M1.49868 3C-0.501315 3 -0.497807 0 1.49868 0C3.50219 0 3.49868 3 1.49868 3" transform="translate(456 184)" id="Fill-52" fill="#D8CBB0" stroke="none"/>
    <path d="M4.5175 12C4.48205 12 4.44661 11.9905 4.4176 11.9735C4.3596 11.9417 4.31771 11.884 4.30482 11.8117C3.89235 9.31833 3.10608 6.84968 0.13823 5.66522C0.0383354 5.62316 -0.0196682 5.50885 0.00611117 5.3959C0.0318905 5.29414 0.118896 5.22528 0.215568 5.22528C0.225236 5.22528 0.234903 5.22596 0.247793 5.22732C0.412136 5.25174 0.570035 5.26361 0.724711 5.26361C3.16086 5.26361 4.15014 2.28447 4.81718 0.272712L4.85585 0.152637C4.88808 0.0596981 4.97186 0 5.06209 0C5.07498 0 5.09109 0.00169597 5.1072 0.00508791C5.21676 0.0335802 5.28443 0.135678 5.27477 0.249647C4.99764 3.25456 6.39617 5.60077 8.83554 6.23065C8.93866 6.25202 9.00311 6.35344 8.99988 6.45995C8.99666 6.56781 8.91932 6.65871 8.81943 6.67601C6.1706 7.13596 4.6045 9.08429 4.7334 11.7609C4.73985 11.8813 4.65606 11.9854 4.54328 11.9986C4.53361 11.9997 4.52394 12 4.5175 12" transform="translate(181 62)" id="Fill-53" fill="#D8CBB0" stroke="none"/>
    <path d="M0.223731 0.450134C-0.074577 0.450134 -0.074577 0 0.223731 0C0.525317 0 0.525317 0.450134 0.223731 0.450134" transform="translate(171.7754 209.7749)" id="Fill-56" fill="#D8CBB0" stroke="none"/>
    <path d="M0.422062 0.450134C0.2494 0.450134 0.107914 0.373282 0 0.248855C0.333333 0.164683 0.666667 0.0805118 1 0C0.884892 0.263493 0.693046 0.450134 0.422062 0.450134" transform="translate(334 224.7749)" id="Fill-57" fill="#DCDCE5" stroke="none"/>
    <path d="M1.49985 3C-0.501512 3 -0.49839 0 1.49985 0C3.50161 0 3.49849 3 1.49985 3" transform="translate(106 207)" id="Fill-58" fill="#D8CBB0" stroke="none"/>
  </g>
</svg>