<svg width="1048px" height="633px" viewBox="0 0 1048 633" version="1.1" xmlns:xlink="http://www.w3.org/1999/xlink" xmlns="http://www.w3.org/2000/svg">
  <desc>Created with Lunacy</desc>
  <g id="Group" transform="matrix(0.9902681 -0.1391731 0.1391731 0.9902681 -158.1992 249.7927)">
    <g id="Colored" transform="translate(667.5742 -0.0002441406)">
      <path d="M19.5691 0C24.9283 0 29.5487 1.92331 33.3939 5.74655C37.2338 9.56928 39.1486 14.1445 39.1486 19.4789C39.1486 28.8029 36.5366 37.4404 31.3126 45.3966C26.0991 53.3528 19.8709 58.2149 12.6541 60.0551L12.6541 59.1228C16.494 55.0075 18.4244 50.2826 18.4244 44.9367C18.4244 42.3503 15.3441 39.4412 9.20959 36.2337C3.05426 33.0081 0 27.4528 0 19.4789C0 14.1445 1.89915 9.56928 5.7599 5.74655C9.59463 1.92331 14.1942 0 19.5691 0" transform="translate(0 325.8878)" id="Fill-2" fill="#3EC8ED" stroke="none"/>
      <path d="M19.5795 0C24.944 0 29.5592 1.92331 33.3783 5.74655C37.239 9.56928 39.1486 14.1445 39.1486 19.4789C39.1486 28.8029 36.5366 37.4404 31.3178 45.3966C26.0886 53.3528 19.8605 58.2149 12.6593 60.0551L12.6593 59.1228C16.4992 55.0075 18.414 50.2826 18.414 44.9367C18.414 42.3503 15.3389 39.4412 9.20439 36.2337C3.05426 33.0081 0 27.4528 0 19.4789C0 14.1445 1.91997 9.56928 5.7599 5.74655C9.59983 1.92331 14.215 0 19.5795 0" transform="translate(42.82721 325.8878)" id="Fill-3" fill="#3EC8ED" stroke="none"/>
      <path d="M19.5899 60.0514C14.2254 60.0514 9.61024 58.1312 5.7599 54.3023C1.91997 50.4853 0 45.9189 0 40.5761C0 31.2485 2.6276 22.6115 7.84116 14.6642C13.0443 6.696 19.2777 1.83653 26.4893 0L26.4893 0.931775C22.6598 5.04707 20.7346 9.77195 20.7346 15.1184C20.7346 17.7043 23.7993 20.6196 29.9494 23.8182C36.1047 27.0464 39.1538 32.6137 39.1538 40.5761C39.1538 45.9189 37.2442 50.4853 33.3835 54.3023C29.5748 58.1312 24.9596 60.0514 19.5899 60.0514" transform="translate(421.6121 5.078948)" id="Fill-4" fill="#3EC8ED" stroke="none"/>
      <path d="M19.5795 60.0514C14.1994 60.0514 9.59983 58.1312 5.7651 54.3023C1.91476 50.4853 0 45.9189 0 40.5761C0 31.2485 2.61719 22.6115 7.83596 14.6642C13.0547 6.696 19.2829 1.83653 26.4945 0L26.4945 0.931775C22.6546 5.04707 20.7346 9.77195 20.7346 15.1184C20.7346 17.7043 23.7941 20.6196 29.9546 23.8182C36.0995 27.0464 39.1642 32.6137 39.1642 40.5761C39.1642 45.9189 37.2286 50.4853 33.3887 54.3023C29.5592 58.1312 24.9492 60.0514 19.5795 60.0514" transform="translate(378.7849 5.078948)" id="Fill-5" fill="#3EC8ED" stroke="none"/>
      <path d="M370.504 184.837C370.504 286.93 287.555 369.675 185.241 369.675C82.9379 369.675 0 286.93 0 184.837C0 82.754 82.9379 0 185.241 0C287.555 0 370.504 82.754 370.504 184.837" transform="translate(48.73315 0.4052424)" id="Fill-6" fill="#FF9D73" stroke="none"/>
    </g>
    <g id="Line" transform="translate(0.0004882813 4.131592)">
      <path d="M763.899 336.751C789.143 353.824 827.296 379.607 892.213 379.607C924.744 379.607 953.984 370.325 978.89 354.791C1041.68 327.254 1079.75 270.08 1084.07 192.553C1087 139.707 1086.36 95.6543 1082.25 63.3213C1084.67 63.342 1087.08 63.3062 1089.48 63.1988C1098.6 90.1752 1119.39 136.754 1151.04 180.663C1191.3 236.531 1259.83 303.117 1357.68 303.117C1442.18 303.117 1498.02 257.29 1552.03 212.966C1618.66 158.28 1681.58 106.631 1794.11 133.84L1794.83 130.815C1680.82 103.24 1614.34 157.8 1550.05 210.562C1496.47 254.534 1441.07 300.003 1357.68 300.003C1198.44 300.003 1114.58 125.407 1092.98 62.9933C1096.74 62.7249 1100.48 62.2921 1104.2 61.6989C1114.83 59.9893 1121.7 52.2582 1121.7 41.9943C1121.7 31.6562 1113.28 23.2478 1102.94 23.2478C1092.59 23.2478 1084.17 31.6562 1084.17 41.9943C1084.17 44.9474 1085.61 51.3006 1088.46 60.1299C1086.27 60.2099 1084.05 60.2342 1081.84 60.201C1080.92 53.5437 1079.85 47.4174 1078.62 41.8365C1076.1 30.2513 1070.14 24.3782 1060.89 24.3782C1050.54 24.3782 1042.12 32.7897 1042.12 43.1278C1042.12 52.6459 1048.61 59.4199 1059.48 61.239C1066.19 62.3637 1072.7 63.0348 1079.11 63.2528C1083.25 95.4156 1083.91 139.447 1080.96 192.382C1077.16 260.643 1046.75 312.865 996.144 342.495C1041.86 305.593 1068.99 246.463 1068.99 189.808C1068.99 81.6059 992.994 0 892.213 0C787.544 0 702.387 85.1491 702.387 189.808C702.387 298.81 809.247 372.025 909.182 372.019C927.168 370.402 943.997 367.05 959.564 362.081C939.751 371.196 917.285 376.499 892.213 376.499C828.245 376.499 790.57 351.033 765.643 334.174C758.07 329.055 751.4 324.546 745.295 321.611C742.087 318.139 737.535 315.347 731.659 313.259C721.993 309.834 711.985 308.82 703.332 309.322C686.846 247.221 624.529 90.703 484.913 90.703C393.668 90.703 336.795 137.303 281.791 182.372L281.771 182.388C209.262 241.795 140.778 297.904 1.18144 240.718L0 243.605C41.6636 260.678 77.0451 267.778 108.124 267.778C182.443 267.772 232.102 227.099 283.759 184.77C338.341 140.056 394.784 93.817 484.913 93.817C622.541 93.817 683.996 248.223 700.269 309.566C695.011 310.109 690.334 311.207 686.659 312.651C675.904 316.874 670.453 323.687 670.453 332.903C670.453 343.247 678.873 351.659 689.213 351.659C699.563 351.659 707.983 343.247 707.983 332.903C707.983 330.01 706.753 322.72 704.126 312.382C712.292 311.97 721.578 312.984 730.621 316.194C732.443 316.844 734.124 317.566 735.666 318.353C723.893 316.468 713.532 325.381 713.532 336.835C713.532 347.167 721.947 355.578 732.297 355.578C742.627 355.578 751.042 347.167 751.042 336.835C751.042 333.267 750.362 330.034 749.017 327.123C753.554 329.76 758.485 333.094 763.899 336.751ZM892.213 3.11695C789.252 3.11694 705.502 86.8668 705.502 189.808C705.502 296.949 810.747 368.917 909.047 368.917C935.095 366.566 958.677 360.518 979.461 351.11C1036.22 314.344 1065.87 244.667 1065.87 189.808C1065.87 83.377 991.218 3.11695 892.213 3.11695ZM1087.28 41.9942C1087.28 33.3714 1094.3 26.3586 1102.94 26.3586C1111.56 26.3586 1118.58 33.3714 1118.58 41.9942C1118.58 50.6414 1112.74 57.1736 1103.71 58.6263C1099.81 59.2527 1095.89 59.6881 1091.94 59.9445C1088.82 50.5754 1087.28 44.1953 1087.28 41.9942ZM1045.23 43.1278C1045.23 34.505 1052.26 27.4834 1060.89 27.4834C1068.58 27.4834 1073.39 32.3989 1075.59 42.4982C1076.76 47.8616 1077.8 53.7498 1078.68 60.1205C1072.59 59.8911 1066.38 59.2408 1059.99 58.1727C1050.61 56.5981 1045.23 51.1158 1045.23 43.1278ZM701.054 312.603C695.92 313.092 691.357 314.154 687.791 315.549C678.354 319.254 673.568 325.094 673.568 332.903C673.568 341.535 680.591 348.551 689.213 348.551C697.846 348.551 704.869 341.535 704.869 332.903C704.869 330.046 703.654 322.827 701.054 312.603ZM716.642 336.835C716.642 328.208 723.67 321.187 732.297 321.187C735.692 321.187 739.331 322.267 743.286 324.104C746.375 327.612 747.927 331.871 747.927 336.835C747.927 345.46 740.914 352.47 732.297 352.47C723.67 352.47 716.642 345.46 716.642 336.835Z" transform="translate(-0.0004882813 0.0002441406)" id="Fill-8" fill="#FFFFFF" fill-rule="evenodd" stroke="none"/>
    </g>
  </g>
</svg>