<svg width="172px" height="27px" viewBox="0 0 172 27" version="1.1" xmlns:xlink="http://www.w3.org/1999/xlink" xmlns="http://www.w3.org/2000/svg">
  <desc>Created with Lunacy</desc>
  <g id="Group-3" transform="translate(0.4501953 0.4501953)">
    <g id="Logo/Sepalika5">
      <g id="Sepalika5">
        <path d="M4.43172 0L8.22829 6.10702C9.49087 8.13796 8.81461 10.7757 6.71783 11.9987C6.02769 12.4012 5.23732 12.6139 4.43172 12.6139C1.98415 12.6139 0 10.692 0 8.32133C0 7.54103 0.21959 6.77549 0.635159 6.10702L4.43172 0ZM4.4317 0.989201L1.08648 6.37025C0.720315 6.95925 0.526829 7.63379 0.526829 8.32133C0.526829 10.4102 2.27511 12.1036 4.43172 12.1036C5.14156 12.1036 5.83796 11.9162 6.44606 11.5615C8.29359 10.484 8.88945 8.15976 7.77696 6.37025L4.4317 0.989201Z" transform="matrix(-1 0 0 -1 17.90212 12.62957)" id="Triangle" fill="#FFFFFF" fill-rule="evenodd" stroke="none"/>
        <path d="M4.43172 0L8.22829 6.10702C9.49087 8.13796 8.81461 10.7757 6.71783 11.9987C6.02769 12.4012 5.23732 12.6139 4.43172 12.6139C1.98415 12.6139 0 10.692 0 8.32133C0 7.54103 0.21959 6.77549 0.635159 6.10702L4.43172 0ZM4.43165 0.98905L1.08648 6.37025C0.720315 6.95925 0.526829 7.63379 0.526829 8.32133C0.526829 10.4102 2.27511 12.1036 4.43172 12.1036C5.14156 12.1036 5.83796 11.9162 6.44606 11.5615C8.29359 10.484 8.88945 8.15976 7.77696 6.37025L4.43165 0.98905Z" transform="matrix(0.8386706 -0.5446391 0.5446391 0.8386706 9.713594 14.38568)" id="Triangle-Copy" fill="#FFFFFF" fill-rule="evenodd" stroke="none"/>
        <path d="M4.43172 0L8.22829 6.10702C9.49087 8.13796 8.81461 10.7757 6.71783 11.9987C6.02769 12.4012 5.23732 12.6139 4.43172 12.6139C1.98415 12.6139 0 10.692 0 8.32133C0 7.54103 0.21959 6.77549 0.635159 6.10702L4.43172 0ZM4.43172 0.989238L1.08648 6.37025C0.720315 6.95925 0.526829 7.63379 0.526829 8.32133C0.526829 10.4102 2.27511 12.1036 4.43172 12.1036C5.14156 12.1036 5.83796 11.9162 6.44606 11.5615C8.29359 10.484 8.88945 8.15976 7.77696 6.37025L4.43172 0.989238Z" transform="matrix(-0.2923718 -0.9563047 0.9563047 -0.2923718 14.65087 16.63391)" id="Triangle-Copy-3" fill="#FFFFFF" fill-rule="evenodd" stroke="none"/>
        <path d="M4.43172 0L8.22829 6.10702C9.49087 8.13796 8.81461 10.7757 6.71783 11.9987C6.02769 12.4012 5.23732 12.6139 4.43172 12.6139C1.98415 12.6139 0 10.692 0 8.32133C0 7.54103 0.21959 6.77549 0.635159 6.10702L4.43172 0ZM4.43162 0.989259L1.08648 6.37025C0.720315 6.95925 0.526829 7.63379 0.526829 8.32133C0.526829 10.4102 2.27511 12.1036 4.43172 12.1036C5.14156 12.1036 5.83796 11.9162 6.44606 11.5615C8.29359 10.484 8.88945 8.15976 7.77696 6.37025L4.43162 0.989259Z" transform="matrix(-0.7986355 -0.6018151 -0.6018151 0.7986355 17.11892 14.65405)" id="Triangle-Copy-2" fill="#FFFFFF" fill-rule="evenodd" stroke="none"/>
        <path d="M4.43172 0L8.22829 6.10702C9.49087 8.13796 8.81461 10.7757 6.71783 11.9987C6.02769 12.4012 5.23732 12.6139 4.43172 12.6139C1.98415 12.6139 0 10.692 0 8.32133C0 7.54103 0.21959 6.77549 0.635159 6.10702L4.43172 0ZM4.43172 0.989238L1.08648 6.37025C0.720315 6.95925 0.526829 7.63379 0.526829 8.32133C0.526829 10.4102 2.27511 12.1036 4.43172 12.1036C5.14156 12.1036 5.83796 11.9162 6.44606 11.5615C8.29359 10.484 8.88945 8.15976 7.77696 6.37025L4.43172 0.989238Z" transform="matrix(0.2923717 -0.9563047 -0.9563047 -0.2923717 12.34787 16.63391)" id="Triangle-Copy-4" fill="#FFFFFF" fill-rule="evenodd" stroke="none"/>
        <path d="M0 1.40328C0 0.628272 0.648641 0 1.44878 0C2.24892 0 2.89756 0.628272 2.89756 1.40328C2.89756 2.1783 2.24892 2.80657 1.44878 2.80657C0.648641 2.80657 0 2.1783 0 1.40328ZM2.37073 1.40328C2.37073 0.910095 1.95796 0.510285 1.44878 0.510285C0.939601 0.510285 0.526829 0.910095 0.526829 1.40328C0.526829 1.89647 0.939601 2.29628 1.44878 2.29628C1.95796 2.29628 2.37073 1.89647 2.37073 1.40328Z" transform="translate(11.98537 10.84357)" id="Oval" fill="#FFFFFF" fill-rule="evenodd" stroke="none"/>
        <path d="M0.921951 1.786C1.43113 1.786 1.8439 1.38619 1.8439 0.893C1.8439 0.39981 1.43113 0 0.921951 0C0.412772 0 0 0.39981 0 0.893C0 1.38619 0.412772 1.786 0.921951 1.786Z" transform="translate(12.5122 11.35386)" id="Oval" fill="#F5A623" stroke="none"/>
      </g>
    </g>
    <g id="Logo/Sepalika-text" transform="translate(43 3.000488)">
      <g id="Logo/Sepalika-text">
        <path d="M3.00597 0L5.73233 6.75438L0 6.75438L3.00597 0Z" transform="translate(51.80811 1.053223)" id="Triangle" fill="#F5A623" stroke="none"/>
        <path d="M51.3309 17.0937C51.3309 17.2017 51.2859 17.2558 51.1959 17.2558C50.9799 17.2558 50.5659 17.2378 49.9539 17.2017C49.2339 17.1657 48.6849 17.1477 48.3069 17.1477C47.8749 17.1477 47.3709 17.1657 46.7949 17.2017C46.2909 17.2378 45.8769 17.2558 45.5529 17.2558C45.4809 17.2558 45.4449 17.2017 45.4449 17.0937C45.4449 16.9857 45.4809 16.9317 45.5529 16.9317Q47.5239 16.9317 48.7659 14.0152L54.6519 0.108017C54.6879 0.0360058 54.7689 0 54.8949 0C55.0569 0 55.1649 0.0450072 55.2189 0.135022L60.5109 14.9874C60.7089 15.5275 60.8979 15.928 61.0779 16.1891C61.2579 16.4501 61.5099 16.6392 61.8339 16.7562C62.1579 16.8732 62.6259 16.9317 63.2379 16.9317Q63.3189 16.9317 63.3189 17.0937Q63.3189 17.2558 63.2379 17.2558C62.9499 17.2558 62.4999 17.2378 61.8879 17.2017Q60.8619 17.1477 60.2679 17.1477C59.8719 17.1477 59.3679 17.1657 58.7559 17.2017C58.1799 17.2378 57.7479 17.2558 57.4599 17.2558C57.3879 17.2558 57.3519 17.2017 57.3519 17.0937C57.3519 16.9857 57.3879 16.9317 57.4599 16.9317C58.1439 16.9317 58.6209 16.8687 58.8909 16.7427C59.1609 16.6167 59.2959 16.3916 59.2959 16.0676C59.2959 15.7975 59.2149 15.4375 59.0529 14.9874L56.5959 8.10129L52.0059 8.10129L49.7379 13.6642C49.3959 14.5283 49.2249 15.2034 49.2249 15.6895C49.2249 16.1756 49.3869 16.5041 49.7109 16.6752C50.0349 16.8462 50.5389 16.9317 51.2229 16.9317C51.2949 16.9317 51.3309 16.9857 51.3309 17.0937ZM115.933 17.2558C116.023 17.2558 116.068 17.2017 116.068 17.0937C116.068 16.9857 116.032 16.9317 115.96 16.9317C115.276 16.9317 114.772 16.8462 114.448 16.6752C114.124 16.5041 113.962 16.1756 113.962 15.6895C113.962 15.2034 114.133 14.5283 114.475 13.6642L116.743 8.10129L121.333 8.10129L123.79 14.9874Q124.033 15.6625 124.033 16.0676C124.033 16.3916 123.898 16.6167 123.628 16.7427Q123.223 16.9317 122.197 16.9317C122.125 16.9317 122.089 16.9857 122.089 17.0937C122.089 17.2017 122.125 17.2558 122.197 17.2558Q122.629 17.2558 123.493 17.2017Q124.411 17.1477 125.005 17.1477Q125.599 17.1477 126.625 17.2017C127.237 17.2378 127.687 17.2558 127.975 17.2558C128.029 17.2558 128.056 17.2017 128.056 17.0937C128.056 16.9857 128.029 16.9317 127.975 16.9317C127.363 16.9317 126.895 16.8732 126.571 16.7562C126.247 16.6392 125.995 16.4501 125.815 16.1891C125.635 15.928 125.446 15.5275 125.248 14.9874L119.956 0.135022C119.902 0.0450072 119.794 0 119.632 0Q119.443 0 119.389 0.108017L113.503 14.0152Q112.261 16.9317 110.29 16.9317C110.218 16.9317 110.182 16.9857 110.182 17.0937C110.182 17.2017 110.218 17.2558 110.29 17.2558C110.614 17.2558 111.028 17.2378 111.532 17.2017C112.108 17.1657 112.612 17.1477 113.044 17.1477C113.422 17.1477 113.971 17.1657 114.691 17.2017C115.303 17.2378 115.717 17.2558 115.933 17.2558ZM7.40186 16.9722Q6.15986 17.5798 4.40486 17.5798Q3.43286 17.5798 2.55536 17.3773C1.97036 17.2423 1.34486 17.0037 0.678857 16.6617C0.588857 16.6077 0.525857 16.5356 0.489857 16.4456C0.453857 16.3556 0.426857 16.2566 0.408857 16.1486L0.00385714 12.638C-0.0141429 12.566 0.0308571 12.521 0.138857 12.503C0.246857 12.485 0.309857 12.512 0.327857 12.584Q0.462857 13.7452 1.02986 14.7984Q1.59686 15.8515 2.60936 16.5266C3.28436 16.9767 4.08086 17.2017 4.99886 17.2017Q6.42986 17.2017 7.41536 16.4186Q8.40086 15.6355 8.40086 13.9612Q8.40086 12.746 7.86086 11.8684Q7.32086 10.9908 6.52436 10.4102Q5.72786 9.82957 4.40486 9.04644C3.52286 8.52436 2.82536 8.07429 2.31236 7.69623Q1.54286 7.12914 1.01636 6.2785Q0.489857 5.42787 0.489857 4.26668Q0.489857 2.91647 1.17836 1.97132Q1.86686 1.02616 2.97386 0.553589Q4.08086 0.0810129 5.34986 0.0810129Q6.83486 0.081013 8.42786 0.729117Q8.85986 0.891142 8.85986 1.18819L9.07586 4.05065Q9.07586 4.15866 8.91386 4.17217C8.80586 4.18117 8.75186 4.14966 8.75186 4.07765Q8.61686 2.67343 7.68536 1.55275Q6.75386 0.432069 4.99886 0.432069Q3.37886 0.432069 2.62286 1.37722Q1.86686 2.32237 1.86686 3.64558Q1.86686 4.72576 2.39336 5.50888Q2.91986 6.29201 3.68936 6.84559Q4.45886 7.39918 5.75486 8.10129Q7.13186 8.88442 7.94186 9.46501Q8.75186 10.0456 9.31886 10.9232Q9.88586 11.8009 9.88586 13.0161Q9.88586 14.2853 9.26486 15.3249C8.85086 16.0181 8.22986 16.5671 7.40186 16.9722ZM31.0359 17.2558Q31.7919 17.2558 32.2239 17.2288L33.9249 17.2017L35.7339 17.2288C36.0399 17.2468 36.4449 17.2558 36.9489 17.2558C36.9849 17.2558 37.0029 17.2017 37.0029 17.0937C37.0029 16.9857 36.9849 16.9317 36.9489 16.9317C36.2649 16.9317 35.7699 16.8867 35.4639 16.7967C35.1579 16.7067 34.9554 16.5356 34.8564 16.2836C34.7574 16.0316 34.7079 15.6265 34.7079 15.0684L34.6809 2.61942C34.6989 1.97132 34.7619 1.51224 34.8699 1.2422C34.9779 0.972155 35.1759 0.805629 35.4639 0.742619C35.7519 0.679609 36.2559 0.648104 36.9759 0.648104C37.7679 0.648104 38.5149 0.832633 39.2169 1.20169C39.9189 1.57075 40.4859 2.10634 40.9179 2.80845Q41.5659 3.86162 41.5659 5.26584C41.5659 6.256 41.3274 7.09313 40.8504 7.77724C40.3734 8.46135 39.7524 8.96993 38.9874 9.30299C38.2224 9.63604 37.4259 9.80257 36.5979 9.80257C36.2739 9.80257 35.9769 9.76656 35.7069 9.69455C35.6889 9.67655 35.6664 9.69455 35.6394 9.74856Q35.5989 9.82957 35.5989 9.91058C35.5989 10.0006 35.6169 10.0456 35.6529 10.0456Q36.1119 10.1806 36.9219 10.1806C37.8759 10.1806 38.8389 9.9781 39.8109 9.57303C40.7829 9.16797 41.5974 8.55587 42.2544 7.73674C42.9114 6.91761 43.2399 5.91395 43.2399 4.72576C43.2399 3.24952 42.6954 2.14234 41.6064 1.40422Q39.9729 0.297047 37.5699 0.297047Q36.6249 0.297047 35.2749 0.405065C34.5909 0.44107 34.1409 0.459073 33.9249 0.459073C33.4749 0.459073 32.9079 0.44107 32.2239 0.405065L31.0359 0.37806C30.9819 0.37806 30.9594 0.432069 30.9684 0.540086C30.9774 0.648104 30.9999 0.702112 31.0359 0.702112C31.6839 0.702112 32.1654 0.75162 32.4804 0.850636C32.7954 0.949652 33.0069 1.12518 33.1149 1.37722C33.2229 1.62926 33.2859 2.02532 33.3039 2.56541L33.3039 15.0684C33.3039 15.6085 33.2454 16.0091 33.1284 16.2701Q32.9529 16.6617 32.4804 16.7967C32.1654 16.8867 31.6839 16.9317 31.0359 16.9317C30.9819 16.9317 30.9594 16.9857 30.9684 17.0937C30.9774 17.2017 30.9999 17.2558 31.0359 17.2558ZM26.8734 17.1612C26.8104 17.2243 26.6979 17.2558 26.5359 17.2558L14.4939 17.2558Q14.4777 17.2558 14.4647 17.2493Q14.4129 17.2234 14.4129 17.0937C14.4129 16.9857 14.4399 16.9317 14.4939 16.9317C15.1599 16.9317 15.6459 16.8867 15.9519 16.7967Q16.4109 16.6617 16.5864 16.2701C16.7034 16.0091 16.7619 15.6085 16.7619 15.0684L16.7619 2.56541Q16.7079 1.75528 16.5324 1.37722C16.4154 1.12518 16.2039 0.949652 15.8979 0.850636Q15.4389 0.702112 14.4399 0.702112Q14.4345 0.702112 14.4296 0.700493Q14.3859 0.685914 14.3859 0.540086Q14.3859 0.394259 14.4296 0.37968Q14.4345 0.37806 14.4399 0.37806L25.7799 0.37806C25.8519 0.37806 25.9014 0.396063 25.9284 0.432069Q25.9689 0.486078 25.9689 0.621099L26.0499 2.94347L26.0769 3.91563C26.0769 3.98764 26.0229 4.02364 25.9149 4.02364Q25.7259 4.02364 25.7259 3.91563C25.7079 2.96147 25.4784 2.19635 25.0374 1.62026Q24.3759 0.756121 23.2689 0.756121L20.3259 0.756121Q19.3539 0.756121 18.9084 0.891142Q18.4629 1.02616 18.3144 1.40422Q18.1659 1.78228 18.1389 2.59241L18.1389 8.20931L22.5399 8.20931Q23.6739 8.20931 24.1194 7.79075Q24.5649 7.37218 24.5379 6.34601C24.5379 6.274 24.5919 6.238 24.6999 6.238Q24.8045 6.238 24.8303 6.28309Q24.8444 6.30779 24.8349 6.34601L24.8349 8.47935L24.8619 9.64054C24.8979 10.1806 24.9159 10.6127 24.9159 10.9367C24.9159 11.0088 24.8619 11.0448 24.7539 11.0448C24.6459 11.0448 24.5919 11.0088 24.5919 10.9367C24.5919 10.1266 24.4299 9.55503 24.1059 9.22197Q23.6199 8.72239 22.4049 8.72239L18.1389 8.72239L18.1389 14.9604C18.1389 15.4825 18.1929 15.8695 18.3009 16.1216C18.4089 16.3736 18.6114 16.5446 18.9084 16.6347C19.2054 16.7247 19.6779 16.7697 20.3259 16.7697L24.2139 16.7697C24.8619 16.7697 25.4244 16.4501 25.9014 15.811C26.3784 15.1719 26.6889 14.3303 26.8329 13.2861C26.8329 13.2321 26.8779 13.2051 26.9679 13.2051C27.0219 13.2051 27.0759 13.2186 27.1299 13.2456C27.1839 13.2726 27.2019 13.3041 27.1839 13.3401C27.0399 14.1863 26.9679 15.3565 26.9679 16.8507C26.9679 16.9947 26.9364 17.0982 26.8734 17.1612ZM78.8619 17.1612C78.7899 17.2243 78.6729 17.2558 78.5109 17.2558L66.1719 17.2558C66.1359 17.2558 66.1134 17.2017 66.1044 17.0937C66.0954 16.9857 66.1179 16.9317 66.1719 16.9317C66.8199 16.9317 67.2969 16.8867 67.6029 16.7967C67.9089 16.7067 68.1204 16.5311 68.2374 16.2701C68.3544 16.0091 68.4129 15.6085 68.4129 15.0684L68.4129 2.56541C68.3949 2.02532 68.3319 1.62926 68.2239 1.37722Q68.0619 0.99916 67.6164 0.850636C67.3194 0.75162 66.8469 0.702112 66.1989 0.702112Q66.1449 0.702112 66.1314 0.540086Q66.1208 0.413313 66.1681 0.385731Q66.1812 0.37806 66.1989 0.37806L67.3869 0.405065C68.0709 0.44107 68.6379 0.459073 69.0879 0.459073C69.5379 0.459073 70.1229 0.44107 70.8429 0.405065L72.0849 0.37806C72.1209 0.37806 72.1389 0.432069 72.1389 0.540086C72.1389 0.648104 72.1209 0.702112 72.0849 0.702112Q71.0859 0.702112 70.6269 0.850636Q70.1679 0.99916 70.0059 1.39072C69.8979 1.65176 69.8349 2.05233 69.8169 2.59241L69.8169 14.9604C69.8349 15.5005 69.8934 15.892 69.9924 16.1351Q70.1409 16.4996 70.5864 16.6347C70.8834 16.7247 71.3559 16.7697 72.0039 16.7697L75.5409 16.7697Q77.0799 16.7697 77.8224 15.865C78.3174 15.2619 78.6459 14.4023 78.8079 13.2861Q78.8079 13.2051 78.9429 13.2051C78.9969 13.2051 79.0464 13.2141 79.0914 13.2321C79.1364 13.2501 79.1589 13.2771 79.1589 13.3131C79.0329 14.4113 78.9699 15.5905 78.9699 16.8507C78.9699 16.9947 78.9339 17.0982 78.8619 17.1612ZM82.5249 17.2558C83.0649 17.2558 83.4879 17.2468 83.7939 17.2288L85.5219 17.2017L87.3039 17.2288C87.5919 17.2468 87.9789 17.2558 88.4649 17.2558Q88.5459 17.2558 88.5459 17.0937C88.5459 16.9857 88.5098 16.9317 88.4379 16.9317C87.7719 16.9317 87.2904 16.8867 86.9934 16.7967C86.6964 16.7067 86.4939 16.5356 86.3859 16.2836C86.2779 16.0316 86.2149 15.6265 86.1969 15.0684L86.1969 2.61942C86.2149 2.07933 86.2779 1.67877 86.3859 1.41773C86.4939 1.15668 86.7009 0.972155 87.0069 0.864138C87.3129 0.756121 87.7899 0.702112 88.4379 0.702112C88.5098 0.702112 88.5459 0.648104 88.5459 0.540086C88.5459 0.432069 88.5098 0.37806 88.4379 0.37806L87.3039 0.405065C86.5839 0.44107 85.9629 0.459073 85.4409 0.459073C84.9729 0.459073 84.3969 0.44107 83.7129 0.405065L82.4979 0.37806C82.4619 0.37806 82.4439 0.432069 82.4439 0.540086C82.4439 0.648104 82.4619 0.702112 82.4979 0.702112Q83.4969 0.702112 83.9559 0.850636C84.2619 0.949652 84.4734 1.12518 84.5904 1.37722C84.7074 1.62926 84.7659 2.02532 84.7659 2.56541L84.7659 15.0684C84.7839 15.6085 84.7344 16.0046 84.6174 16.2566C84.5004 16.5086 84.2844 16.6842 83.9694 16.7832C83.6544 16.8822 83.1639 16.9317 82.4979 16.9317C82.4619 16.9317 82.4439 16.9857 82.4439 17.0937Q82.4439 17.2558 82.5249 17.2558ZM93.8829 17.2288C93.5949 17.2468 93.1989 17.2558 92.6949 17.2558C92.6409 17.2558 92.6094 17.2017 92.6004 17.0937C92.5914 16.9857 92.6229 16.9317 92.6949 16.9317C93.3429 16.9317 93.8244 16.8867 94.1394 16.7967C94.4544 16.7067 94.6704 16.5311 94.7874 16.2701C94.9044 16.0091 94.9629 15.6085 94.9629 15.0684L94.9629 2.56541C94.9449 2.02532 94.8819 1.62926 94.7739 1.37722C94.6659 1.12518 94.4634 0.949652 94.1664 0.850636C93.8694 0.75162 93.3969 0.702112 92.7489 0.702112C92.7129 0.702112 92.6904 0.648104 92.6814 0.540086C92.6724 0.432069 92.6949 0.37806 92.7489 0.37806L93.9369 0.405065C94.6209 0.44107 95.1879 0.459073 95.6379 0.459073Q96.3129 0.459073 97.3929 0.405065L98.6349 0.37806Q98.6889 0.37806 98.6889 0.540086Q98.6889 0.702112 98.6349 0.702112Q97.6359 0.702112 97.1769 0.864138C96.8708 0.972155 96.6639 1.15668 96.5559 1.41773C96.4479 1.67877 96.3849 2.07933 96.3669 2.61942L96.3669 8.34433L102.55 2.40338C103.126 1.79129 103.414 1.36822 103.414 1.13418C103.414 0.972155 103.297 0.859637 103.063 0.796627C102.829 0.733617 102.46 0.702112 101.956 0.702112Q101.875 0.702112 101.875 0.540086Q101.875 0.37806 101.956 0.37806L102.955 0.405065C103.603 0.44107 104.206 0.459073 104.764 0.459073Q105.574 0.459073 106.438 0.405065L107.356 0.37806C107.392 0.37806 107.41 0.432069 107.41 0.540086C107.41 0.648104 107.392 0.702112 107.356 0.702112Q104.926 0.702112 103.144 2.56541L98.2839 7.15614L102.199 11.8819Q104.224 14.3123 105.277 15.3655C105.979 16.0676 106.528 16.5041 106.924 16.6752C107.32 16.8462 107.815 16.9317 108.409 16.9317C108.463 16.9317 108.49 16.9857 108.49 17.0937Q108.49 17.2558 108.409 17.2558L106.033 17.2558C105.421 17.2558 105.02 17.2153 104.831 17.1342C104.642 17.0532 104.08 16.4276 103.144 15.2574Q101.74 13.5022 101.605 13.3401L97.2849 8.07429L96.3669 8.93843L96.3669 15.0684C96.3669 15.6985 96.3894 16.1216 96.4344 16.3376Q96.5019 16.6617 96.8799 16.7967C97.1319 16.8867 97.5909 16.9317 98.2569 16.9317C98.2929 16.9317 98.3109 16.9857 98.3109 17.0937C98.3109 17.2017 98.2929 17.2558 98.2569 17.2558Q97.5819 17.2558 97.2039 17.2288L95.5569 17.2017L93.8829 17.2288ZM56.4069 7.58821L52.2219 7.58821L54.4629 2.13334L56.4069 7.58821ZM116.959 7.58821L121.144 7.58821L119.2 2.13334L116.959 7.58821Z" id="SEPALIKA" fill="#FFFFFF" fill-rule="evenodd" stroke="none"/>
      </g>
    </g>
  </g>
</svg>