<svg width="20px" height="39px" viewBox="0 0 20 39" version="1.1" xmlns:xlink="http://www.w3.org/1999/xlink" xmlns="http://www.w3.org/2000/svg">
  <desc>Created with Lunacy</desc>
  <g id="Group">
    <path d="M2.319 18.6696C1.8387 18.6696 1.2177 18.5172 0.7446 18.3282C0.4569 18.213 0.2238 18.1389 0 18.0798C0.0468 18.0837 0.093 18.0858 0.1386 18.0858C0.5628 18.0858 0.8658 18.2673 1.2294 18.3282C1.593 18.3888 1.9569 18.4494 2.2599 18.4494C2.4462 18.4494 2.6328 18.5412 2.7768 18.5412C2.8671 18.5412 2.9406 18.5052 2.9871 18.3888C3.1083 18.0858 3.0477 17.8431 2.9265 17.5404C2.8053 17.2371 2.5023 17.4189 2.5023 16.9947C2.5023 16.5702 2.2599 12.8127 2.2599 12.1458C2.2599 11.6937 2.2875 10.9353 2.2299 10.1916C2.2983 10.236 2.3529 10.2897 2.3607 10.4085C2.3706 10.5552 2.3757 10.593 2.3784 10.593C2.3811 10.593 2.3811 10.5501 2.3811 10.5501L2.5629 10.7922C2.5629 10.7922 2.7852 11.0145 2.8053 11.2569C2.8077 11.286 2.8131 11.2989 2.8212 11.2989C2.8809 11.2989 3.0774 10.5804 3.1488 10.2066C3.2298 9.7821 3.4314 9.2976 3.492 8.9535C3.5001 8.9079 3.5274 8.7792 3.5688 8.5878C3.7218 8.4108 4.008 8.112 4.3095 7.8084C4.1151 8.673 3.9459 9.4581 3.9366 9.54C3.9273 9.6261 3.9495 9.6714 3.9819 9.6714C4.0179 9.6714 4.0665 9.6159 4.0983 9.4992C4.1589 9.2772 4.4418 8.2266 4.5225 7.9035C4.5459 7.8093 4.5918 7.6539 4.6458 7.4745C4.9101 7.2159 5.1525 6.9876 5.2902 6.8727C5.6538 6.5697 7.2297 4.9938 7.8357 4.3878C8.442 3.7818 10.3209 1.9635 11.2299 1.1757C12.1392 0.3876 12.8061 0.1449 13.2906 0.0843C13.5558 0.0513 13.7124 0 13.869 0C13.9989 0 14.1288 0.0351 14.3211 0.1449C14.472 0.2313 14.4927 0.2484 14.4837 0.2484C14.4807 0.2484 14.4744 0.2466 14.4687 0.2448C14.463 0.243 14.4579 0.2409 14.4567 0.2409C14.4525 0.2409 14.4978 0.2637 14.7453 0.3876C15.3516 0.6906 15.4122 0.8724 15.6546 0.8724C15.897 0.8724 15.897 0.8724 15.897 0.8724C15.897 0.8724 16.3215 1.1757 16.5639 1.2966C16.806 1.4178 17.109 1.7817 16.5639 1.9635C16.0182 2.145 14.3817 3.1152 12.1998 5.2365C10.0179 7.3575 7.4724 9.9642 5.8965 12.5094C4.3206 15.0552 3.7146 16.4493 3.5325 17.1765C3.3507 17.904 3.1689 18.5097 2.6841 18.6309C2.5779 18.6576 2.454 18.6696 2.319 18.6696" transform="translate(2.710938 19.3575)" id="Fill-247" fill="#F5C055" stroke="none"/>
    <path d="M2.7102 16.662C2.3199 16.6296 1.881 16.473 1.3941 16.3647C0.8487 16.2435 0.9699 15.6981 0.909 15.3345C0.8487 14.9709 0.909 14.7285 0.909 14.2434C0.909 13.7586 0.6666 10.9101 0.5454 9.9402C0.4242 8.9703 0.1818 5.0913 0.1212 4.0611C0.0606 3.0306 0 0.9093 0 0.4851C0 0.0609 0.1212 0 0.4848 0C0.8487 0 1.3941 0.2424 2.3031 0.3033C3.2124 0.3639 3.6366 0.4851 4.1214 0.7272C4.6065 0.9699 4.485 1.3941 4.3638 1.758C4.3638 1.758 4.4244 3.1518 4.4244 3.6363C4.4244 3.8631 4.4508 4.5663 4.5039 5.3499C4.4868 5.4423 4.4736 5.5185 4.4649 5.5764C4.3236 6.5259 4.5657 7.2936 4.5657 7.5765C4.5657 7.8594 4.5657 8.0412 4.6467 8.4249C4.6827 8.595 4.7661 8.6661 4.8495 8.7186C4.7208 8.853 4.6134 8.9631 4.5456 9.0309C4.2426 9.3342 3.576 10.3038 3.273 10.8492C2.9697 11.3949 2.0607 12.8493 1.8789 13.4556C1.6971 14.0619 1.3941 14.6679 1.1517 15.213C0.909 15.7587 0.9699 16.1832 1.3941 16.3647C1.3941 16.3647 1.3941 16.3647 1.9395 16.4862C2.226 16.5495 2.4624 16.5966 2.7102 16.662" transform="translate(-5.329071E-15 20.7753)" id="Fill-248" fill="#F5C055" stroke="none"/>
    <path d="M4.47721 8.4048C4.33321 8.4048 4.14661 8.313 3.96031 8.313C3.65731 8.313 3.29341 8.2524 2.92981 8.1918C2.56621 8.1309 2.26321 7.9494 1.83901 7.9494C1.79341 7.9494 1.74721 7.9473 1.70041 7.9434C1.45261 7.878 1.21621 7.8309 0.929708 7.7676C0.384308 7.6461 0.384308 7.6461 0.384308 7.6461C-0.0398917 7.4646 -0.100792 7.0401 0.141908 6.4944C0.384308 5.9493 0.687308 5.3433 0.869108 4.737C1.05091 4.1307 1.95991 2.6763 2.26321 2.1306C2.56621 1.5852 3.23281 0.6156 3.53581 0.3123C3.60361 0.2445 3.71101 0.1344 3.83971 0C3.87091 0.0195 3.90181 0.0366 3.93031 0.0552C3.98791 0.7989 3.96031 1.5573 3.96031 2.0094C3.96031 2.6763 4.20271 6.4338 4.20271 6.8583C4.20271 7.2825 4.50571 7.1007 4.62691 7.404C4.74811 7.7067 4.80871 7.9494 4.68751 8.2524C4.64101 8.3688 4.56751 8.4048 4.47721 8.4048" transform="translate(1.011719 29.4939)" id="Fill-249" fill="#F0AF32" stroke="none"/>
    <path d="M0.4248 29.4114C0.3963 29.1054 0.3522 28.8051 0.2844 28.5333C0.1551 28.0167 0.0603 27.0186 0 26.1252C0.2631 24.7047 1.4787 19.4493 2.1429 17.3814C2.85 15.1791 4.0824 11.058 5.355 8.6943C6.6279 6.3303 8.8146 2.748 8.8146 2.748C9.2394 2.1408 10.3008 0.6852 10.4223 0.5028C10.5438 0.321 10.5741 0.0783 10.8471 0.048C11.0127 0.0294 11.2236 0 11.3907 0C11.4984 0 11.5878 0.0123 11.6355 0.048C11.757 0.1389 12.2724 0.5637 12.3939 0.7152C12.5154 0.867 13.7589 1.8378 13.941 1.9893C14.1231 2.1408 14.6082 2.778 14.4567 3.0507C14.3049 3.3243 12.5757 5.1741 12.3939 5.4774C12.2121 5.7813 11.0592 7.4493 10.8774 7.7526C10.6956 8.0562 9.9066 9.3606 9.6336 9.8154C9.3606 10.2702 8.7537 11.514 8.6022 11.8479C8.5677 11.9238 8.5482 11.9568 8.541 11.9568C8.5164 11.9568 8.6337 11.5785 8.79 11.2194C8.9919 10.7544 9.4161 9.8052 9.5979 9.5829C9.7797 9.3606 10.386 8.3703 10.4667 8.2089C10.5474 8.0475 10.7901 7.6233 10.911 7.4211C11.001 7.2714 11.0574 7.0773 11.0067 7.0773C10.989 7.0773 10.9581 7.101 10.911 7.1586C10.7292 7.3806 10.1031 8.4516 9.9819 8.6334C9.8604 8.8149 9.1935 10.1487 9.0324 10.4517C8.8707 10.7544 8.5269 11.4414 8.2443 12.0681C8.0073 12.5931 7.7703 13.0047 7.7235 13.0047C7.7145 13.0047 7.7127 12.9897 7.719 12.957C7.7571 12.7668 8.0448 12.2022 8.0124 12.2022C8.01 12.2022 8.0067 12.2046 8.0019 12.2094C7.9212 12.2901 7.5978 12.8358 7.5168 12.9972C7.4361 13.1589 6.3252 16.149 6.2241 16.3911C6.123 16.6338 4.9308 19.4013 4.7895 19.7856C4.6482 20.1696 3.9615 22.8969 3.7794 23.5029C3.5976 24.1092 3.234 25.4019 3.1935 25.6446C3.1647 25.8165 2.9838 26.3949 2.8521 26.832C2.7417 26.94 2.6277 27.0531 2.5158 27.1659C2.7522 26.1132 3.0258 24.9423 3.0924 24.7758C3.2136 24.4728 3.6783 22.1289 3.7593 21.8667C3.8403 21.6039 5.5572 15.7452 5.6988 15.3408C5.8404 14.9367 6.204 13.8861 6.4665 13.179C6.6954 12.5628 7.0626 11.5317 7.0059 11.5317C6.9975 11.5317 6.9798 11.5539 6.9513 11.6031C6.729 11.9871 6.4662 12.6945 6.1836 13.3206C5.9541 13.8288 5.7777 14.1645 5.7411 14.1645C5.7327 14.1645 5.7315 14.1465 5.7393 14.1084C5.7522 14.0439 5.7465 14.0124 5.7264 14.0124C5.6832 14.0124 5.5737 14.1564 5.436 14.4318C5.2341 14.8359 3.4965 20.6949 3.1935 21.8259C2.931 22.8066 2.046 26.7009 1.7751 27.9453C1.7622 27.9603 1.7499 27.9747 1.7388 27.9879C1.5171 28.2543 0.8727 28.9428 0.4248 29.4114" transform="translate(4.503906 0)" id="Fill-250" fill="#F5C055" stroke="none"/>
    <path d="M1.7181 2.0655C1.7088 2.1516 1.731 2.1969 1.7634 2.1969C1.7994 2.1969 1.848 2.1414 1.8798 2.0247C1.9404 1.8027 2.2233 0.7521 2.304 0.429C2.3274 0.3348 2.3733 0.1794 2.4273 0C2.3169 0.108 2.2029 0.2211 2.091 0.3339C1.8966 1.1985 1.7274 1.9836 1.7181 2.0655ZM0.5868 3.7824C0.5892 3.8115 0.5946 3.8244 0.6027 3.8244C0.6624 3.8244 0.8589 3.1059 0.9303 2.7321C1.0113 2.3076 1.2129 1.8231 1.2735 1.479C1.2816 1.4334 1.3089 1.3047 1.3503 1.1133C1.3374 1.1283 1.3251 1.1427 1.314 1.1559C1.0923 1.4223 0.4479 2.1108 0 2.5794C0.0042 2.6253 0.0081 2.6712 0.0114 2.7171C0.0798 2.7615 0.1344 2.8152 0.1422 2.934C0.1521 3.0807 0.1572 3.1185 0.1599 3.1185C0.1626 3.1185 0.1626 3.0756 0.1626 3.0756L0.3444 3.3177C0.3444 3.3177 0.5667 3.54 0.5868 3.7824Z" transform="translate(4.929688 26.832)" id="Fill-251" fill="#F0AF32" fill-rule="evenodd" stroke="none"/>
    <path d="M0.428874 3.3687C0.345474 3.3162 0.262074 3.2451 0.226074 3.075C0.145074 2.6913 0.145074 2.5095 0.145074 2.2266C0.145074 1.9437 -0.097026 1.176 0.0442741 0.2265C0.0529741 0.1686 0.0661741 0.0924 0.0832741 0C0.143574 0.8934 0.238374 1.8915 0.367674 2.4081C0.435474 2.6799 0.479574 2.9802 0.508074 3.2862C0.480774 3.3147 0.454674 3.342 0.428874 3.3687" transform="translate(4.421875 26.1252)" id="Fill-252" fill="#F0AF32" stroke="none"/>
    <path d="M0.1953 0.218849C0.1668 0.200249 0.1359 0.18315 0.1047 0.16365C0.1305 0.13695 0.1566 0.10965 0.1839 0.0811498C0.1881 0.12705 0.192 0.17295 0.1953 0.218849" transform="translate(4.746094 29.33025)" id="Fill-253" fill="#EFAC2C" stroke="none"/>
  </g>
</svg>