<svg width="24px" height="25px" viewBox="0 0 24 25" version="1.1" xmlns:xlink="http://www.w3.org/1999/xlink" xmlns="http://www.w3.org/2000/svg">
  <desc>Created with Lunacy</desc>
  <g id="Facebook">
    <path d="M16.4 24.0038L21.6 24.0038C22.96 24.0038 24 22.9637 24 21.6035L24 2.40038C24 1.04017 22.96 0 21.6 0L2.4 0C1.04 0 0 1.04017 0 2.40038L0 21.6035C0 22.9637 1.04 24.0038 2.4 24.0038L13.2 24.0038C13.44 24.0038 13.6 23.8438 13.6 23.6038L13.6 14.8024C13.6 14.5623 13.44 14.4023 13.2 14.4023L10.4 14.4023L10.4 12.0019L13.2 12.0019C13.44 12.0019 13.6 11.8419 13.6 11.6019L13.6 8.40135C13.6 5.84094 15.44 4.00064 18 4.00064L20 4.00064L20 6.40103L18.4 6.40103C17.04 6.40103 16 7.44119 16 8.80141L16 11.6019C16 11.8419 16.16 12.0019 16.4 12.0019L19.84 12.0019L18.96 14.4023L16.4 14.4023C16.16 14.4023 16 14.5623 16 14.8024L16 23.6038C16 23.8438 16.16 24.0038 16.4 24.0038ZM21.5998 23.2039L16.7998 23.2039L16.7998 15.2026L19.1998 15.2026C19.3598 15.2026 19.5198 15.1226 19.5998 14.9626L20.7998 11.762C20.7998 11.602 20.7998 11.442 20.7198 11.362C20.6398 11.282 20.5598 11.202 20.3998 11.202L16.7998 11.202L16.7998 8.80157C16.7998 7.92143 17.5198 7.20132 18.3998 7.20132L20.3998 7.20132C20.6398 7.20132 20.7998 7.04129 20.7998 6.80125L20.7998 3.60074C20.7998 3.3607 20.6398 3.20068 20.3998 3.20068L17.9998 3.20068C15.0398 3.20068 12.7998 5.44104 12.7998 8.40151L12.7998 11.202L9.9998 11.202C9.7598 11.202 9.5998 11.362 9.5998 11.602L9.5998 14.8025C9.5998 15.0426 9.7598 15.2026 9.9998 15.2026L12.7998 15.2026L12.7998 23.2039L2.3998 23.2039C1.5198 23.2039 0.799805 22.4838 0.799805 21.6036L0.799805 2.40055C0.799805 1.52041 1.5198 0.800293 2.3998 0.800293L21.5998 0.800293C22.4798 0.800293 23.1998 1.52041 23.1998 2.40055L23.1998 21.6036C23.1998 22.4838 22.4798 23.2039 21.5998 23.2039Z" id="Shape" fill="#FFFFFF" fill-rule="evenodd" stroke="none"/>
  </g>
</svg>