<svg width="288px" height="315px" viewBox="0 0 288 315" version="1.1" xmlns:xlink="http://www.w3.org/1999/xlink" xmlns="http://www.w3.org/2000/svg">
  <desc>Created with Lunacy</desc>
  <g id="Petal" transform="matrix(-0.9902681 -0.1391731 -0.1391731 0.9902681 287.8037 34.93262)">
    <g id="Group-4">
      <path d="M11.4204 113.468L79.6842 0L147.948 113.468C170.65 151.202 158.49 200.212 120.789 222.934C108.38 230.413 94.1692 234.365 79.6842 234.365C35.6758 234.365 0 198.657 0 154.609C0 140.111 3.94832 125.888 11.4204 113.468Z" transform="matrix(-0.8829476 0.4694716 0.4694716 0.8829476 140.9448 0.1872711)" id="Triangle-Copy-12" fill="#FFB582" stroke="none"/>
      <path d="M87.8824 184.257C87.8824 184.257 75.2072 125.06 59.721 92.7973C44.2347 60.5347 1.24888e-12 0 1.24888e-12 0" transform="translate(68.63468 33.91212)" id="Line" fill="none" stroke="#FFFFFF" stroke-width="1" stroke-linecap="square"/>
      <path d="M0 34.8332L6.53708 0L29.2836 10.7979" transform="translate(97.17079 85.11431)" id="Path-2" fill="none" stroke="#FFFFFF" stroke-width="1"/>
      <path d="M0 55.8857L12.3323 0L55.924 22.8984" transform="translate(125.0228 149.5743)" id="Path-2-Copy" fill="none" stroke="#FFFFFF" stroke-width="1"/>
    </g>
  </g>
</svg>