<svg width="25px" height="25px" viewBox="0 0 25 25" version="1.1" xmlns:xlink="http://www.w3.org/1999/xlink" xmlns="http://www.w3.org/2000/svg">
  <desc>Created with Lunacy</desc>
  <g id="social-media-google" transform="translate(0.5 0.5)">
    <path d="M11.5004 23.0037L11.5004 23.0037C5.14913 23.0039 0.0002 17.8545 0 11.5022C-0.000228376 5.14995 5.14831 0.000200032 11.4996 0C14.6753 -0.000114207 17.7096 1.31318 19.8834 3.62858L16.9684 6.36702L16.9684 6.36702C15.5555 4.85008 13.5733 3.99225 11.5004 4.00064L11.5004 4.00064C7.3583 4.00944 4.00758 7.37497 4.01638 11.5178C4.02518 15.6606 7.39017 19.0118 11.5323 19.003C14.7048 18.9963 17.5299 16.9938 18.5874 14.0022L13.0004 14.0022L13.0004 10.0016L23.0004 10.0016L23.0004 12.1019L23.0004 12.1019C22.6809 18.2187 17.6246 23.012 11.5004 23.0037L11.5004 23.0037Z" id="Path" fill="none" stroke="#FFFFFF" stroke-width="1" stroke-linecap="round" stroke-linejoin="round"/>
    <path d="M3.15 2.5204L0 0" transform="translate(1.850586 5.181152)" id="Path" fill="none" stroke="#FFFFFF" stroke-width="1" stroke-linecap="round" stroke-linejoin="round"/>
    <path d="M3.03 0L0 2.73044" transform="translate(2.050293 15.33252)" id="Path" fill="none" stroke="#FFFFFF" stroke-width="1" stroke-linecap="round" stroke-linejoin="round"/>
    <path d="M0 0L2.67 3.00048" transform="translate(15.9707 17.53271)" id="Path" fill="none" stroke="#FFFFFF" stroke-width="1" stroke-linecap="round" stroke-linejoin="round"/>
  </g>
</svg>