<svg width="277px" height="363px" viewBox="0 0 277 363" version="1.1" xmlns:xlink="http://www.w3.org/1999/xlink" xmlns="http://www.w3.org/2000/svg">
  <desc>Created with Lunacy</desc>
  <g id="Group" transform="matrix(1 0 0 -1 0 363)">
    <path d="M0.770218 56.9502C1.649 60.0695 11.2474 70.9587 21.748 57.2339C32.5818 43.789 33.9828 29.4908 34.8947 17.6637C36.0034 6.0021 40.1421 -1.90958 36.586 0.401853C33.0436 2.72511 25.08 13.7345 16.5084 21.1732C8.0499 28.7125 -3.0333 43.2116 0.770218 56.9502" transform="translate(68 173)" id="Fill-3" fill="#83A13F" stroke="none"/>
    <path d="M31.6857 14.9524C29.1027 28.4612 17.5177 41.1388 18.5908 34.7754C19.7232 28.4592 11.7884 35.3091 10.1935 38.4406C8.80221 41.2117 -1.09508 42.035 4.60258 27.6596C0.871331 34.2101 -1.25319 41.6982 0.800185 48.9558C1.69347 52.0715 11.4287 62.9549 22.079 49.2374C33.0672 35.7995 34.4881 21.5089 35.413 9.68795C35.747 6.01878 36.3834 2.71987 37 0C34.8577 4.46091 32.745 9.85339 31.6857 14.9524" transform="translate(68 181)" id="Fill-4" fill="#618D40" stroke="none"/>
    <path d="M22 0C21.7843 0.0395667 21.5106 0.16618 21.1571 0.389732C17.5259 2.72219 9.36273 13.7752 0.576363 21.2434C0.408585 21.3898 0.23082 21.556 0.0590479 21.7063C-0.270516 26.3218 0.903929 29.8017 0.530424 32.4506C-0.180635 37.7229 6.78814 28.3594 8.53183 22.0149C9.88005 17.2946 17.7496 6.34452 22 0" transform="translate(84 173)" id="Fill-5" fill="#8AA93E" stroke="none"/>
    <path d="M19.99 4.07689C16.7545 9.48101 8.5823 17.3809 3.61618 15.6331C2.57233 15.2641 1.28519 15.2402 0 15.4585C3.66523 19.1287 10.9054 22.3188 18.7049 12.1989C21.8913 8.17561 24.2302 4.08086 26 0C24.0791 0.111098 21.5283 1.54743 19.99 4.07689" transform="translate(71 218)" id="Fill-6" fill="#57813D" stroke="none"/>
    <path d="M23.6267 0.498746C19.2358 8.36424 14.6646 16.2516 9.2785 23.9105C6.59346 27.8075 5.04771 32.0739 3.73223 36.3543C2.45678 40.6724 1.51772 45.0679 0.758859 49.5091C0.452512 51.404 0.124141 52.844 0 53.6723C0.310351 53.7954 0.634719 53.9047 0.965093 54C1.21337 53.14 1.55776 51.7853 2.04231 49.6938C2.72709 45.2606 3.58005 40.869 4.76139 36.5569C5.98077 32.2785 7.41239 28.0339 9.97329 24.1568C15.1792 16.4145 19.5561 8.45163 23.7849 0.540457C24.1553 -0.15274 24.0112 -0.192464 23.6267 0.498746" transform="translate(75 183)" id="Fill-7" fill="#5E7E3B" stroke="none"/>
    <path d="M1.89639 13.5033C3.54287 12.7957 5.09723 11.9779 6.54221 11.0603C7.98527 10.1447 9.34582 9.1475 10.501 8.01166C11.1247 7.47534 11.6044 6.85134 12.1494 6.26813L12.8345 5.32601L13.1761 4.85495L13.4543 4.35534L14.007 3.36224L14.4119 2.32224L14.6134 1.80224C14.6748 1.6289 14.6978 1.44537 14.742 1.27L14.9799 0.193294C15.0356 -0.0575302 14.9646 -0.0677263 14.9012 0.183098L14.6345 1.24553C14.5846 1.4209 14.5539 1.60239 14.4887 1.77369L14.2718 2.28553L13.84 3.30718L13.2586 4.27989L12.9688 4.76726L12.6138 5.22608L11.9057 6.14169C11.3454 6.70452 10.8541 7.31221 10.219 7.82813C9.0407 8.92319 7.66097 9.87958 6.21215 10.7564C4.75949 11.6313 3.19937 12.4103 1.56249 13.0812C0.443734 13.542 -0.0628732 13.8377 0.0062096 13.9539C0.0733734 14.0681 0.762282 13.9886 1.89639 13.5033" transform="translate(76 221)" id="Fill-8" fill="#647E3A" stroke="none"/>
    <path d="M6.48129 11.0066C5.03358 9.28579 3.69884 7.51956 2.55867 5.70597C1.43104 3.89829 0.472876 2.03141 0.094212 0.125068C0.0565548 -0.0407012 -0.0229437 -0.0426746 0.00634525 0.125068C0.299234 2.04326 1.15698 3.94171 2.19674 5.7849C3.24486 7.63205 4.49801 9.43972 5.89551 11.2C6.88296 12.4058 7.48966 12.1729 6.48129 11.0066" transform="translate(70 220)" id="Fill-9" fill="#647E3A" stroke="none"/>
    <path d="M1.47277 12.2541C3.78004 10.4611 5.9574 8.57586 7.92343 6.57213C9.89721 4.57843 11.6887 2.46828 12.9413 0.16137C13.0556 -0.0373972 12.9878 -0.0614902 12.8676 0.139285C11.5414 2.40805 9.67036 4.46599 7.62678 6.40147C5.58901 8.34698 3.3496 10.174 1.00743 11.9148C0.202797 12.5091 -0.0919129 12.8865 0.02442 12.9789C0.140753 13.0712 0.679762 12.8664 1.47277 12.2541" transform="translate(78 215)" id="Fill-10" fill="#647E3A" stroke="none"/>
    <path d="M5.56257 11.9324C4.23764 10.0179 2.98234 8.08631 1.9359 6.12038C1.4169 5.13647 0.950641 4.14492 0.602531 3.14384C0.26708 2.14467 0.00968955 1.12643 0.17636 0.136795C0.210116 -0.0348183 0.132055 -0.0519796 0.0877505 0.125354C-0.125335 1.11881 0.0814212 2.1523 0.368348 3.1591C0.667933 4.17543 1.08566 5.17842 1.55614 6.17759C2.50764 8.17402 3.67856 10.138 4.9423 12.0773C5.3748 12.7447 5.76299 13.025 5.89802 12.9983C6.09633 12.9716 6.01616 12.5864 5.56257 11.9324" transform="translate(72 213)" id="Fill-11" fill="#647E3A" stroke="none"/>
    <path d="M1.40939 12.7911C2.50068 11.5138 3.67006 10.2742 4.98585 9.12222C6.30555 7.97816 7.73652 6.8759 9.49352 6.09197C9.92301 5.89102 10.3935 5.69404 10.8327 5.49906C11.2817 5.30606 11.7308 5.10908 12.1524 4.87828C13.029 4.45449 13.8392 3.97498 14.6396 3.4915C16.2209 2.50264 17.6265 1.38047 18.8622 0.176733C19.0828 -0.0341702 19.0223 -0.0679943 18.7958 0.13893C17.5288 1.32476 16.092 2.41509 14.4912 3.37212C13.6791 3.8377 12.8572 4.29731 11.9826 4.70319C11.5609 4.92007 11.108 5.10908 10.6512 5.29412C10.1885 5.48911 9.74731 5.66221 9.28658 5.86515C7.44369 6.6451 5.9561 7.73941 4.58174 8.8755C3.21324 10.0215 1.99701 11.2531 0.864722 12.5285C0.0955493 13.4059 -0.101625 13.9352 0.0447917 13.9929C0.191208 14.0585 0.671453 13.6706 1.40939 12.7911" transform="translate(80 205)" id="Fill-12" fill="#647E3A" stroke="none"/>
    <path d="M2.76298 9.16893C1.96216 7.70662 1.27295 6.20902 0.760923 4.68985C0.293185 3.17265 -0.0664768 1.59665 0.323305 0.108848C0.351652 -0.0224859 0.286098 -0.042088 0.250664 0.089246C-0.220618 1.58096 0.0486859 3.18245 0.434924 4.7271C0.865455 6.27762 1.48025 7.80855 2.235 9.30614C2.77361 10.3372 3.32816 10.1588 2.76298 9.16893" transform="translate(77 206)" id="Fill-13" fill="#647E3A" stroke="none"/>
    <path d="M1.39181 11.0232C2.47616 9.95968 3.62947 8.93416 4.86899 7.96661C6.11043 7.00306 7.43425 6.08949 8.90751 5.31785C10.352 4.50823 12.1682 4.10642 13.6568 3.2948C15.153 2.52117 16.4596 1.48565 16.9711 0.178266C17.042 -0.0536249 16.9692 -0.0596221 16.8945 0.162274C16.3523 1.43568 15.0208 2.43921 13.5284 3.16487C12.0494 3.93051 10.1968 4.30433 8.69102 5.10196C7.15646 5.8576 5.78092 6.75318 4.4935 7.70473C3.20799 8.66229 2.01062 9.67581 0.886039 10.7333C0.117802 11.463 -0.0967684 11.9188 0.0373379 11.9907C0.175276 12.0587 0.652311 11.7548 1.39181 11.0232" transform="translate(83 198)" id="Fill-14" fill="#647E3A" stroke="none"/>
    <path d="M1.83442 7.08658C1.28682 5.94392 0.824361 4.77678 0.510895 3.60148C0.226453 2.42822 0.0465001 1.21823 0.435431 0.085778C0.46639 -0.0121638 0.396731 -0.0366493 0.358032 0.0674139C-0.119908 1.1917 -0.0425089 2.42618 0.149054 3.61985C0.369641 4.8278 0.990769 6.42139 1.48806 7.60077C1.84796 8.41083 2.22529 7.85991 1.83442 7.08658" transform="translate(84 198)" id="Fill-15" fill="#647E3A" stroke="none"/>
    <path d="M1.40334 6.1789C1.31534 5.14978 1.20134 4.12625 1.13734 3.10273C1.10134 2.08853 0.987338 1.04822 1.30534 0.0731725C1.33734 -0.00885864 1.26534 -0.0312308 1.22534 0.054529C0.995338 0.539258 0.935338 1.05009 0.865338 1.55719C0.811338 2.06616 0.777338 2.57512 0.757338 3.08782C0.719338 4.11134 0.737338 5.14046 0.751338 6.16025C0.611338 6.86497 0.467338 7.25462 0.789338 6.81277C0.853338 6.89667 0.989338 6.68413 1.07534 6.69718C1.15534 6.70837 1.24934 6.69159 1.31534 6.59837C1.34734 6.55176 1.37534 6.48838 1.38934 6.41007C1.40534 6.34669 1.40734 6.26838 1.40334 6.1789" transform="translate(88 194)" id="Fill-16" fill="#647E3A" stroke="none"/>
    <path d="M0.590241 4.91354C2.10419 4.39629 4.30559 3.51996 5.65733 2.80179C6.97624 2.07508 8.29515 1.24577 8.97488 0.0873003C9.03861 -0.01102 8.96909 -0.0345314 8.89957 0.0595141C8.15612 1.16455 6.79472 1.91691 5.44105 2.56882C4.05842 3.21217 2.5773 3.74011 1.06142 4.19751C0.024442 4.49248 -0.467977 5.25553 0.590241 4.91354" transform="translate(90 194)" id="Fill-17" fill="#647E3A" stroke="none"/>
    <path d="M0.835766 5.62895C1.87961 4.72367 2.92714 3.82037 3.97467 2.91706C5.013 1.99408 6.03107 1.06322 6.95893 0.0811931C7.04362 -0.00146231 6.98471 -0.0349181 6.89634 0.0477374C5.90404 0.990403 4.81233 1.87206 3.70773 2.74585C2.5884 3.62357 1.46907 4.44422 0.335013 5.36327C0.132503 5.52661 0.0349304 5.66437 0.0128384 5.77458C-0.0184586 5.87888 0.00915639 5.95367 0.0772734 5.98319C0.14539 6.01467 0.254009 6.00287 0.382879 5.93989C0.508068 5.87298 0.666394 5.77064 0.835766 5.62895" transform="translate(93 188)" id="Fill-18" fill="#647E3A" stroke="none"/>
    <path d="M0.289535 2.92825C0.887474 2.58359 2.06686 1.79181 2.605 1.39359C2.86892 1.19331 3.1349 0.988378 3.37201 0.767143L3.7184 0.427141L3.99263 0.0498786C4.02356 0.0056317 3.94933 -0.0199849 3.91428 0.0196044L3.59263 0.350291L3.19882 0.641389C2.93077 0.827692 2.38232 1.31208 2.0916 1.47742C1.49778 1.80345 0.967886 2.27154 0.345205 2.56031C-0.0815994 2.75359 -0.12696 3.16579 0.289535 2.92825" transform="translate(96 186)" id="Fill-19" fill="#647E3A" stroke="none"/>
    <path d="M1.32151 4.06227C1.06551 2.72965 0.745515 1.37398 0.957515 0.0539364C0.965515 -0.00682769 0.891515 -0.0214949 0.875515 0.0371739C0.487515 1.35093 0.731515 3.49863 0.855515 4.85639C0.909515 5.32993 1.42351 4.51905 1.32151 4.06227" transform="translate(92 188)" id="Fill-20" fill="#647E3A" stroke="none"/>
    <path d="M0.357112 1.93235C2.51034 1.56435 5.2304 1.12035 6.96034 0.104346C7.03764 0.0623465 6.99163 0.0203465 6.91065 0.0583465C5.10525 0.962346 2.90234 1.28035 0.765673 1.54635C0.191479 1.71835 -0.397437 2.04835 0.357112 1.93235" transform="translate(90 209)" id="Fill-21" fill="#647E3A" stroke="none"/>
    <path d="M0.439959 2.88607C2.46432 2.14217 5.25726 1.0558 6.96453 0.0578009C7.04013 0.0136092 6.98343 -0.0213759 6.90153 0.0154505C5.08507 0.92138 2.98301 1.58241 0.90615 2.23608C-0.13123 2.99286 -0.265627 3.13833 0.439959 2.88607" transform="translate(86 218)" id="Fill-22" fill="#647E3A" stroke="none"/>
    <path d="M0.77497 5.68179C1.63463 4.81761 2.45469 3.93059 3.21066 3.01311C3.59336 2.55818 3.94778 2.08612 4.27957 1.60834C4.59252 1.12486 4.91489 0.628053 4.99784 0.0779477C5.01292 -0.0210331 4.94505 -0.0267436 4.92054 0.0665268C4.79989 0.59379 4.44359 1.06966 4.09294 1.5284C3.72344 1.98523 3.32943 2.43065 2.91091 2.86274C2.07953 3.73263 1.18783 4.57016 0.282931 5.39627C-0.341073 5.95589 0.177359 6.27567 0.77497 5.68179" transform="translate(80 228)" id="Fill-23" fill="#647E3A" stroke="none"/>
    <path d="M3.50269 2.31427C2.23001 1.69284 0.971719 0.969234 0.0835146 0.0204135C0.0444501 -0.0192076 -0.0254549 0.00373089 0.0094976 0.0475226C0.762004 1.06933 2.51168 2.20374 3.77203 2.94403C4.22436 3.19844 3.93446 2.51446 3.50269 2.31427" transform="translate(70 225)" id="Fill-24" fill="#647E3A" stroke="none"/>
    <path d="M90 0C49.1459 17.6978 1.89245 78.11 0.0440028 154.337C-1.80445 230.566 55.1984 299.988 55.1984 299.988C55.1984 299.988 69.9206 307.162 62.8141 299.366C55.7076 291.567 19.3586 236.142 9.70231 198.919C0.0440028 161.697 2.61955 120.793 19.9906 82.9291C37.3617 45.0676 73.1777 7.05978 90 0" transform="translate(70 60)" id="Fill-25" fill="#4C753A" stroke="none"/>
    <path d="M0.0436221 153.096C-0.252554 165.328 0.975589 177.381 3.2364 189C3.8169 186.256 4.77257 182.993 6.01453 179.351C1.28954 147.367 5.39848 113.568 19.923 81.8975C36.6727 45.3745 70.6263 8.7195 88 0C47.6806 18.556 1.86017 78.1426 0.0436221 153.096" transform="translate(70 61)" id="Fill-26" fill="#647E3A" stroke="none"/>
    <path d="M8.67942 69.0827C9.4811 63.5598 10.0188 57.9603 9.9995 52.2017C9.96866 49.3263 9.78173 46.3979 9.24214 43.3968L8.73531 41.1264L7.96446 38.8147L6.35917 34.5468C4.38773 28.9237 2.93661 23.1612 1.98654 17.491C1.07116 11.8326 0.554693 6.19965 0.832198 0.802434C0.849542 -0.152095 0.377398 -0.313147 0.311876 0.63549C-0.235426 5.9836 -0.0157343 11.6047 0.608652 17.3044C1.27543 23.0394 2.41629 28.8412 4.1796 34.7452L5.59411 39.1015L6.16068 41.1166L6.5172 43.171C6.87179 45.9265 6.91996 48.686 6.8159 51.418C6.56923 56.8997 5.80609 62.3048 4.82133 67.6352C4.14106 71.2982 4.73076 73.4959 5.7213 73.928C6.70605 74.3562 8.12249 72.891 8.67942 69.0827" transform="translate(75 88)" id="Fill-29" fill="#647E3A" stroke="none"/>
    <path d="M49.5438 49.2492C46.7414 44.3868 43.6801 39.6312 40.0771 35.1072C38.2599 32.861 36.2857 30.6761 33.9877 28.6556L32.1705 27.1931L30.1158 25.8652L26.1792 23.5319C21.1064 20.3655 16.3612 16.7538 12.0714 12.8947C7.81684 9.0257 3.89593 4.91923 0.754095 0.490193C0.173218 -0.273707 -0.30365 -0.0975747 0.236016 0.692053C3.13255 5.25567 6.80816 9.54222 10.8566 13.6328C14.962 17.7235 19.4854 21.5628 24.5681 25.0834L28.4066 27.6106L30.1139 28.8337L31.6759 30.2249C33.6757 32.1683 35.434 34.3096 37.0549 36.5301C40.2733 41.0046 43.0325 45.7523 45.5699 50.5791C47.3105 53.9019 49.1513 55.2555 50.209 54.9607C51.2589 54.6678 51.4728 52.6056 49.5438 49.2492" transform="translate(52 264)" id="Fill-30" fill="#647E3A" stroke="none"/>
    <path d="M4.3294 25.5523C4.9057 20.1669 6.12737 14.8361 8.73255 10.0957C10.0687 7.75369 11.768 5.55395 14.0653 3.80429C16.3468 2.05463 19.2875 0.80766 22.6091 0.437465C23.1814 0.355632 23.1084 -0.0379434 22.5005 0.00297287C19.0191 0.152999 15.7113 1.21487 13.0331 2.87101C10.3371 4.51935 8.21743 6.67818 6.48657 9.00456C3.08997 13.7255 1.15582 19.1109 0.0663816 24.6833C-0.280976 26.6161 0.794648 27.8241 1.90185 27.98C3.01694 28.1339 4.1577 27.4072 4.3294 25.5523" transform="translate(69 179)" id="Fill-31" fill="#4C753A" stroke="none"/>
    <path d="M0.627508 6.26609C1.45483 7.72635 6.06725 7.29087 11.5322 2.34477C17.0303 -2.57536 5.43996 1.80142 3.66297 1.63761C1.88014 1.47381 -1.36894 2.7423 0.627508 6.26609" transform="translate(88 175)" id="Fill-32" fill="#97BE68" stroke="none"/>
    <path d="M11 1.4741C7.87621 2.77263 4.96403 2.37027 4.9076 1.11198C4.89148 0.749855 4.85117 0.369441 4.78869 0C4.35741 0.0713276 4.01077 0.109735 3.80117 0.0914457C1.95108 -0.0585252 -1.42059 1.10284 0.651184 4.32904C1.45934 5.58916 5.76211 5.30385 11 1.4741" transform="translate(88 177)" id="Fill-33" fill="#7AA941" stroke="none"/>
    <path d="M3.24642 8.80758C8.77884 5.68343 14.8404 3.20872 21.0764 1.75858C27.3417 0.270119 33.7854 0.0744812 39.5569 1.27049C40.0743 1.35923 40.1762 1.19183 39.6608 1.08897C33.9638 -0.304693 27.4613 -0.365199 21.0215 0.933673C14.6131 2.19422 8.31633 4.52574 2.51543 7.62569C0.538024 8.69463 -0.196888 9.62845 0.0441629 9.90275C0.281294 10.1791 1.367 9.88258 3.24642 8.80758" transform="translate(80 156)" id="Fill-34" fill="#45723A" stroke="none"/>
    <path d="M0.117793 4.82991C0.739299 2.11565 10.127 -2.37411 16.6637 1.52586C23.1431 5.42786 32.0099 8.02784 27.9928 8.236C23.9836 8.44417 -1.95587 13.7727 0.117793 4.82991" transform="translate(108 152)" id="Fill-35" fill="#83A13F" stroke="none"/>
    <path d="M16.0152 7.54983C19.9431 7.33526 11.2732 4.65527 4.93767 0.633184C4.55376 0.39127 4.15827 0.183013 3.75506 0C0.853525 1.2853 -1.03325 3.6203 0.610444 3.98002C2.21362 4.32921 7.80062 6.55903 12.5098 8C14.1169 7.7644 15.3651 7.58559 16.0152 7.54983" transform="translate(119 153)" id="Fill-36" fill="#8FB85C" stroke="none"/>
    <path d="M10.0888 10C8.71783 9.26191 7.63574 8.19669 7.00519 6.54672C5.50205 2.6743 7.94287 1.28604 11 0C5.6607 0.0306686 0.579727 2.87671 0.120039 4.82314C-0.835949 8.86935 4.04976 9.99387 10.0888 10" transform="translate(107 152)" id="Fill-37" fill="#72913E" stroke="none"/>
    <path d="M17.9405 27.539C16.9938 22.3613 15.5138 17.1719 13.0531 12.1311C11.8128 9.62723 10.2928 7.14882 8.24159 4.9245C6.20634 2.73146 3.46204 0.78665 0.43013 0.0321802C-0.0991561 -0.118323 -0.151086 0.298004 0.336257 0.477825C3.16444 1.42971 5.44736 3.39602 7.07916 5.53824C8.72095 7.7176 9.84144 10.1081 10.7063 12.5181C12.416 17.3674 13.2129 22.3418 13.6623 27.2341C13.8141 28.9092 14.9825 29.8376 16.101 29.9842C17.2135 30.125 18.2641 29.3255 17.9405 27.539" transform="translate(54 176)" id="Fill-38" fill="#4C753A" stroke="none"/>
    <path d="M19.94 6.07739C20.6398 4.21442 15.2184 0.707418 3.86931 0.0584082C-7.59071 -0.672706 9.88571 5.67078 11.6323 7.30113C13.381 8.92951 18.2599 10.6029 19.94 6.07739" transform="translate(41 173)" id="Fill-39" fill="#6E8E3E" stroke="none"/>
    <path d="M11.0261 7.46377C11.2081 7.64385 11.4283 7.82392 11.6716 8C12.5852 7.38974 13.1177 6.3853 12.9779 4.9987C12.7078 2.2075 7.98451 0.880927 2.43188 0.00254792C-5.81757 -0.141514 9.43635 5.86508 11.0261 7.46377" transform="translate(42 173)" id="Fill-40" fill="#6E9D42" stroke="none"/>
    <path d="M4.07619 21.1961C9.95361 16.3107 16.2182 11.8553 23.0084 8.11742C26.3926 6.25044 29.9882 4.67878 33.6747 3.24783C37.4441 1.96552 41.3281 0.837805 45.5065 0.298721C46.2296 0.18377 46.1308 -0.0718987 45.388 0.0192699C41.1227 0.415655 37.1201 1.3868 33.2163 2.5165C29.3975 3.78889 25.6498 5.20597 22.1134 6.92231C15.0171 10.359 8.43832 14.5389 2.29222 19.2638C0.200057 20.9167 -0.313599 22.3199 0.166472 22.8055C0.648519 23.293 2.07688 22.9026 4.07619 21.1961" transform="translate(101 96)" id="Fill-41" fill="#647E3A" stroke="none"/>
    <path d="M1.27629 6.17665C-0.964774 8.12786 -1.17365 15.2205 8.41138 14.9947C18.0062 14.8056 27.9855 5.06498 37.2563 4.21C46.5485 3.41292 50.2751 1.46364 39.1401 0.353897C28.0129 -0.742332 7.86869 0.575845 1.27629 6.17665" transform="translate(129 90)" id="Fill-42" fill="#90A83D" stroke="none"/>
    <path d="M12.1829 8.11221C15.4225 4.50413 32.0596 5.47569 29.7877 3.29416C27.5097 1.1007 9.28982 7.06118 9.36395 4.72268C9.41203 3.17892 15.9134 1.48217 21.5212 0C13.1305 0.814599 5.06844 2.68817 1.30987 5.91677C-0.990155 7.92545 -1.20453 15.227 8.63267 14.9946C12.233 14.9191 15.8753 13.4945 19.5157 11.6905C13.7616 12.5488 9.73259 10.8858 12.1829 8.11221" transform="translate(128 91)" id="Fill-43" fill="#869C3E" stroke="none"/>
    <path d="M7.9633 10.9972C8.147 9.69647 7.65213 8.46213 6.22937 8.10946C2.10917 7.08369 2.93771 5.18763 5.46081 4.31544C7.33908 3.67457 7.03354 1.28743 5.10278 0C3.54505 0.678791 2.22164 1.45618 1.22439 2.33405C-0.918185 4.24149 -1.12251 11.1602 7.9633 10.9972" transform="translate(129 94)" id="Fill-44" fill="#7A8F3C" stroke="none"/>
    <path d="M0.0416488 0C-0.140294 0.20939 0.261167 0.455478 1.49719 0.895845C3.77544 1.71398 5.2646 3.08041 6.69839 4C12.4355 2.95737 13.2582 1.31894 4.05231 0.30653C2.81628 0.172693 1.46753 0.0690772 0.0416488 0" transform="translate(164 90)" id="Fill-45" fill="#89AA4F" stroke="none"/>
    <path d="M32.6163 0.0113705C21.6701 0.990272 11.2414 3.3365 1.90275 7.35215C1.56824 7.50124 0.879553 7.77392 0 8.11134C0.0728042 8.41148 0.181027 8.7077 0.314829 9C1.34786 8.65081 2.15461 8.35655 2.5147 8.18785C11.627 4.02114 21.8275 1.33357 32.6635 0.121227C33.1397 0.0662988 33.0984 -0.0337492 32.6163 0.0113705" transform="translate(129 93)" id="Fill-46" fill="#7A8F3C" stroke="none"/>
    <path d="M0.680456 0.866054C1.85688 0.850054 3.04858 0.874054 4.25365 0.952054L5.15889 1.03805C5.46254 1.06205 5.76811 1.09805 6.07367 1.15805C6.37924 1.21405 6.68671 1.25005 6.99419 1.32405L7.9147 1.58205C8.02356 1.61405 8.0312 1.56605 7.92043 1.52805L6.99228 1.22205C6.68098 1.13005 6.3716 1.07605 6.0603 1.00405C5.7471 0.926054 5.43963 0.870054 5.13215 0.828054L4.204 0.686054C2.97601 0.536054 1.75757 0.442054 0.550591 0.408054C-0.276344 0.388054 -0.121652 0.886054 0.680456 0.866054" transform="translate(135 99)" id="Fill-47" fill="#7A8F3C" stroke="none"/>
    <path d="M0.746885 3.79212C1.7415 3.12813 2.73817 2.46783 3.74919 1.82412C4.25778 1.50319 4.76637 1.18595 5.28931 0.881623C5.81635 0.586515 6.33109 0.26743 6.93197 0.060855C7.0386 0.0276554 7.014 -0.0202995 6.89915 0.0092112C6.26137 0.193653 5.72407 0.485072 5.16421 0.754358C4.61256 1.03102 4.07116 1.32059 3.53386 1.61386C2.46132 2.20038 1.40928 2.80904 0.371596 3.43246C-0.337966 3.86774 0.070135 4.25138 0.746885 3.79212" transform="translate(141 93)" id="Fill-48" fill="#7A8F3C" stroke="none"/>
    <path d="M0.702447 1.36916C1.8193 1.11116 2.97751 0.925161 4.17522 0.847161C5.3748 0.795161 6.63643 0.815161 7.91122 1.27516C8.02215 1.31316 8.03343 1.26716 7.92062 1.22316C6.63267 0.701161 5.33343 0.605161 4.09249 0.587161C2.85154 0.593161 1.65008 0.713161 0.486221 0.927161C-0.309112 1.08716 -0.0515218 1.55716 0.702447 1.36916" transform="translate(148 94)" id="Fill-49" fill="#7A8F3C" stroke="none"/>
    <path d="M3.77731 6.8897C6.48415 5.21708 9.42672 3.78453 12.6305 2.83016C15.8344 1.9112 19.3348 1.41335 22.9747 1.97614C23.896 2.19456 24.7446 2.33034 25.7346 2.6078C26.6716 2.86361 27.6223 3.10368 28.5966 3.29849C30.5236 3.69205 32.4506 3.97541 34.3423 3.97541C36.23 3.98131 38.0588 3.66647 39.6362 3.00726C41.2253 2.35198 42.5061 1.35825 43.7534 0.384199C44.1973 0.0437722 43.9931 -0.160877 43.5275 0.161839C42.2173 1.0808 40.8933 1.99188 39.3238 2.54483C37.7622 3.10565 36.0041 3.3221 34.1852 3.23552C32.3662 3.15287 30.4942 2.79474 28.6516 2.33427C27.7382 2.11191 26.8052 1.83642 25.8623 1.53535C24.9705 1.24412 23.9235 1.00602 22.9531 0.740368C18.9773 -0.054617 15.1567 0.305488 11.6896 1.11228C8.22259 1.95646 5.05805 3.30242 2.13512 4.93372C0.143293 6.0711 -0.300646 7.28129 0.174722 7.75159C0.657948 8.22976 1.93083 8.05659 3.77731 6.8897" transform="translate(88 133)" id="Fill-50" fill="#55793A" stroke="none"/>
    <path d="M1.4126 11.2471C-0.716909 13.4791 -1.47318 17.9648 6.80206 19.7111C15.0534 21.4142 24.6263 15.3572 34.9554 7.58338C45.4258 0.0435969 46.0905 -1.2563 40.5976 1.00131C35.1226 3.29038 23.5575 8.38377 16.6953 7.66401C9.81919 6.92458 4.49741 8.05929 1.4126 11.2471" transform="translate(111 119)" id="Fill-51" fill="#84AD40" stroke="none"/>
    <path d="M17.8681 7.82889C12.8074 10.906 4.92476 8.54545 5.90862 4.45698C6.51936 1.94903 8.37907 0.831206 11.0793 0C6.88855 0.251818 3.56582 1.51091 1.39386 3.88783C-0.707398 6.21152 -1.45364 10.8814 6.71181 12.6994C13.9229 14.2718 22.1453 9.48721 31 2.73725C26.5913 3.92059 20.317 6.36098 17.8681 7.82889" transform="translate(111 126)" id="Fill-52" fill="#8DAC3E" stroke="none"/>
    <path d="M12.6032 1.03865C9.6247 2.31913 4.84124 4.43497 0 6L0.0099614 6C7.90536 5.86382 11.8062 3.64433 15.2389 1.19312C16.8925 -0.430849 15.7789 -0.312964 12.6032 1.03865" transform="translate(139 119)" id="Fill-53" fill="#9AC26C" stroke="none"/>
    <path d="M13.6024 1.49483C13.9153 1.38374 17.1276 0.16371 16.9961 0C16.9961 0 12.9947 1.34282 12.5901 1.44611C10.99 1.86318 9.32403 2.16721 7.63219 2.39914C5.89452 2.64081 4.1728 3.04813 2.32154 2.86688C1.40289 2.77723 0.639669 2.69148 0 2.61547C0.0398548 2.92925 0.12355 3.24497 0.259056 3.5568C1.06412 3.68738 1.70778 3.77119 1.80741 3.77314C1.75959 3.77508 1.75361 3.77703 1.81937 3.77314C5.43619 4.53712 7.30538 3.17676 9.90391 2.5648C11.1713 2.26661 12.4088 1.9119 13.6024 1.49483" transform="translate(111 132)" id="Fill-54" fill="#438541" stroke="none"/>
    <path d="M0.661507 4.66243C2.07983 2.82795 3.7434 1.12668 5.94241 0.0762125C6.03846 0.0259825 6.00576 -0.0286154 5.90767 0.0172468C3.6126 0.951962 1.76306 2.5222 0.222113 4.31519C-0.296985 4.95289 0.195545 5.29795 0.661507 4.66243" transform="translate(115 130)" id="Fill-55" fill="#438541" stroke="none"/>
    <path d="M0.991714 2.98999C4.58809 2.63181 7.79629 1.39682 10.9093 0.0783396C11.0482 0.0234028 11.0197 -0.0293366 10.877 0.0190078C7.70305 1.21663 4.38829 2.26263 0.866126 2.50215C0.272438 2.53072 -0.0110857 2.62521 0.000331353 2.75267C0.00984558 2.87572 0.363775 3.04273 0.991714 2.98999" transform="translate(121 131)" id="Fill-56" fill="#438541" stroke="none"/>
    <path d="M22.4063 52.0142C23.7678 47.418 24.6885 42.5739 24.9345 37.5077C25.204 32.4733 24.6649 27.0958 22.8883 21.865C21.0664 16.6244 17.7768 11.7049 13.7296 8.13185C9.67857 4.50324 5.14548 1.97511 0.614351 0.154858C-0.184449 -0.190157 -0.211994 0.0973555 0.576969 0.47013C5.06284 2.43513 9.49756 5.1199 13.3283 8.77231C17.1668 12.3791 20.1161 17.13 21.6763 22.101C23.1913 27.074 23.5435 32.156 23.1303 36.9545C22.7427 41.7768 21.7157 46.4067 20.2932 50.7868C19.3114 53.7928 19.2091 55.5417 19.7383 55.9283C20.2519 56.311 21.4658 55.1828 22.4063 52.0142" transform="translate(53 145)" id="Fill-57" fill="#4C753A" stroke="none"/>
    <path d="M61.9962 39.1031C61.8781 46.1937 51.3395 51.2722 38.7231 36.3219C26.0162 20.9664 8.75817 5.18611 2.27288 7.29461C-4.19863 9.46605 3.44362 -3.26757 21.4513 0.811751C39.4629 4.92058 62.3405 18.9386 61.9962 39.1031" transform="translate(16 121)" id="Fill-58" fill="#83B440" stroke="none"/>
    <path d="M2.27505 7.16426C3.29526 6.83586 4.58528 6.94791 6.0821 7.4347C17.9385 8.64011 30.0628 20.4469 36.0796 16.0058C40.9699 12.4804 35.6503 7.73219 29.8461 3.29112C27.0081 2.24219 24.1819 1.40381 21.4718 0.797246C3.44691 -3.20918 -4.20265 9.2969 2.27505 7.16426" transform="translate(16 121)" id="Fill-59" fill="#7BA741" stroke="none"/>
    <path d="M24.0681 0C32.82 9.35362 41.4216 19.1564 41.8702 23.7768C42.5875 31.1675 31.911 16.3406 34.8671 21.2025C37.8174 26.0287 38.0308 34.482 31.8892 32.0817C25.7438 29.6597 16.5532 15.0485 6.07038 8.73427C3.88093 7.40256 1.8713 6.36173 0 5.55439C7.22833 11.2612 15.6146 19.8154 22.6236 28.2627C35.294 43.3053 45.8776 38.1941 45.9962 31.0607C46.2254 17.5695 36.1674 6.91776 24.0681 0" transform="translate(32 129)" id="Fill-60" fill="#6E9D42" stroke="none"/>
    <path d="M0 1.4364C5.91741 1.85893 13.2887 5.77577 17.1832 5.99126C20.2695 6.16449 19.2355 3.73707 15.5018 1.02444C15.3272 0.980073 15.1506 0.927257 14.978 0.885004C8.64852 -0.659337 3.60028 0.00614541 0 1.4364" transform="translate(22 121)" id="Fill-61" fill="#95B154" stroke="none"/>
    <path d="M45.0488 34.8871C42.7759 30.2769 39.9625 25.8748 36.7525 21.832C33.5169 17.7774 29.863 14.09 25.9092 11.0251L24.4177 9.88624C23.9166 9.523 23.4036 9.17939 22.8965 8.82597L22.133 8.2978L21.3596 7.81085L19.8049 6.8409C17.7097 5.64907 15.5927 4.51811 13.4442 3.64633C9.155 1.82423 4.81847 0.657929 0.556911 0.0492535C-0.194781 -0.0724818 -0.18097 0.0531804 0.570722 0.190623C4.83425 0.869984 9.155 2.1109 13.4067 3.99779C15.5355 4.90099 17.6268 6.05944 19.6905 7.27483L21.2195 8.26049L21.9811 8.75528L22.7308 9.28935C23.228 9.64866 23.7311 9.99423 24.2243 10.3614L25.6863 11.51C29.5572 14.6005 33.1105 18.284 36.2494 22.3072C39.3627 26.3244 42.0755 30.6794 44.2576 35.215C44.8534 36.4559 45.6525 38.2721 46.4101 40C46.6153 39.8704 46.8145 39.733 47 39.5857C46.3608 37.8736 45.6446 36.1045 45.0488 34.8871" transform="translate(28 126)" id="Fill-62" fill="#5D8E41" stroke="none"/>
    <path d="M4.70275 16.7293C5.08861 14.0116 5.14863 11.1468 4.5827 8.21246C4.29545 6.74924 3.82598 5.26813 3.10571 3.86058C2.73486 3.16078 2.31041 2.48484 1.8238 1.84866C1.31789 1.22639 0.779829 0.627982 0.173171 0.119037C-0.0369091 -0.0678408 -0.0647768 -0.0221153 0.138872 0.168739C0.732669 0.683648 1.25358 1.28802 1.73591 1.91227C2.20537 2.54845 2.61052 3.22042 2.95565 3.91227C3.62877 5.30988 4.05107 6.76117 4.29545 8.19854C4.77349 11.0733 4.63844 13.8804 4.20756 16.5305C4.05321 17.4371 4.06822 17.9301 4.19684 17.9937C4.32117 18.0554 4.56555 17.6637 4.70275 16.7293" transform="translate(68 142)" id="Fill-63" fill="#5D8E41" stroke="none"/>
    <path d="M14.7222 4.42745C12.2917 4.11524 9.84713 3.67146 7.40054 3.03917C4.964 2.37154 2.48122 1.56645 0.165295 0.0721362C-0.0397607 -0.0535357 -0.0618745 -0.00248149 0.143181 0.129081C2.45106 1.69016 4.94389 2.58361 7.39451 3.33372C9.85517 4.0524 12.3178 4.57473 14.7725 4.94389C16.4551 5.17756 16.3788 4.61793 14.7222 4.42745" transform="translate(57 156)" id="Fill-64" fill="#5D8E41" stroke="none"/>
    <path d="M6.74404 13.7463C5.91007 11.3862 4.99583 9.03788 3.96021 6.72083C3.43947 5.56132 2.8874 4.40964 2.27268 3.28728C1.65797 2.16688 0.988442 1.04453 0.125102 0.107931C-0.0197668 -0.0621818 -0.0491321 -0.0191648 0.0918214 0.152903C0.923838 1.09732 1.56204 2.22554 2.13956 3.34985C2.72295 4.47807 3.23978 5.63367 3.72137 6.79708C4.69239 9.12 5.53615 11.4742 6.31922 13.8284C6.84193 15.4337 7.3059 15.3731 6.74404 13.7463" transform="translate(58 134)" id="Fill-65" fill="#5D8E41" stroke="none"/>
    <path d="M16.6019 6.21139L12.49 4.82159L8.3843 3.32338C7.01032 2.84632 5.65052 2.26674 4.28261 1.71871L0.184972 0.0509623C-0.0561851 -0.0476045 -0.0642912 0.00956425 0.176866 0.114045L4.26235 1.89416C5.62417 2.47768 6.98397 3.09668 8.35391 3.61514L12.4597 5.22966C13.8276 5.74024 15.2036 6.22321 16.5755 6.71802C18.4561 7.34885 18.4845 6.80673 16.6019 6.21139" transform="translate(49 143)" id="Fill-66" fill="#5D8E41" stroke="none"/>
    <path d="M3.87221 7.29571C3.42949 5.98538 2.9124 4.68881 2.30853 3.43938C1.69581 2.20371 0.998084 0.956245 0.0666044 0.046678C-0.0130849 -0.0338668 -0.025481 -0.00243468 0.0524374 0.0820392C0.953812 1.01714 1.60549 2.27247 2.17571 3.51011C2.73531 4.76543 3.20813 6.05611 3.62075 7.35661C3.88992 8.2426 4.16972 8.20528 3.87221 7.29571" transform="translate(49 129)" id="Fill-67" fill="#5D8E41" stroke="none"/>
    <path d="M6.59056 5.30202C5.61831 4.19541 4.59401 3.14933 3.51952 2.20351C2.43945 1.28039 1.28874 0.389425 0.0785481 0.0148798C-0.0274139 -0.022953 -0.0255549 0.0186631 0.080407 0.0583876C1.27573 0.474549 2.39484 1.40145 3.43959 2.35484C4.48433 3.33093 5.47331 4.4016 6.41581 5.51956C7.04973 6.28757 7.25421 6.0757 6.59056 5.30202" transform="translate(36 124)" id="Fill-68" fill="#5D8E41" stroke="none"/>
    <path d="M10.1331 2.54907C6.79289 1.83229 3.45466 1.24042 0.112498 0.0239981C-0.0345179 -0.027887 -0.0384383 0.0124681 0.106617 0.0681965C3.44681 1.37301 6.81249 2.10132 10.1488 2.88921C10.433 2.96223 10.6467 2.99682 10.7682 2.99682C10.8995 2.99682 10.9936 3.01412 10.9995 2.968C11.0054 2.92956 10.9603 2.84693 10.8035 2.77199C10.6369 2.68551 10.4232 2.61441 10.1331 2.54907" transform="translate(45 135)" id="Fill-69" fill="#5D8E41" stroke="none"/>
    <path d="M6.44462 0.552128C5.44793 0.794128 4.44001 1.00613 3.41527 1.15613C2.87298 1.23413 2.32695 1.29813 1.76969 1.31813C1.21618 1.33613 0.651452 1.33813 0.0755016 1.19813C-0.0254767 1.17613 -0.0254767 1.21813 0.0773716 1.24213C0.660802 1.41013 1.23488 1.44013 1.79774 1.44613C2.36434 1.45613 2.91973 1.42213 3.47137 1.37013C4.57652 1.27213 5.65923 1.10213 6.72885 0.882128C6.84292 0.858128 6.92707 0.826128 7 0.794128C6.77373 0.726128 6.58674 0.642128 6.44462 0.552128" transform="translate(31 127)" id="Fill-70" fill="#5D8E41" stroke="none"/>
    <path d="M4.36452 38.4571C5.14942 30.7218 6.63355 23.1231 9.51616 16.1463C10.9943 12.6866 12.8609 9.39126 15.4029 6.54745C16.6559 5.11564 18.156 3.86603 19.8254 2.79663C21.4948 1.73318 23.4053 0.89944 25.5189 0.485543C26.248 0.313251 26.1165 -0.108567 25.3396 0.026098C23.1104 0.335035 21.0386 1.07767 19.1939 2.06984C17.3512 3.06398 15.6599 4.26211 14.2156 5.64638C11.2951 8.39315 9.04004 11.637 7.18936 15.0492C3.5597 21.9448 1.38231 29.5158 0.0894228 37.358C-0.316971 40.0711 0.730887 41.7426 1.83851 41.9703C2.95808 42.198 4.12547 41.1247 4.36452 38.4571" transform="translate(71 202)" id="Fill-71" fill="#4C753A" stroke="none"/>
    <path d="M6.38626 0.803332C2.5141 1.83813 -5.09893 8.21638 5.08901 15.4121C15.1966 22.544 17.9655 13.1192 32.2157 8.91222C46.3424 4.60556 40.7243 6.85061 34.091 4.28655C27.4108 1.68859 14.9791 -1.52346 6.38626 0.803332" transform="translate(93 194)" id="Fill-72" fill="#75A041" stroke="none"/>
    <path d="M6.38648 0.803251C2.51419 1.83794 -5.0991 8.21555 5.08918 15.4105C11.7716 20.1275 15.2324 17.6035 20.933 14.1526C18.4619 14.5932 16.1828 15.0138 14.864 15.1115C9.72574 15.4743 10.4508 12.757 14.6641 11.4113C18.8695 10.0577 11.0603 8.387 8.39905 9.15455C5.73195 9.9201 3.38623 5.95079 9.33773 3.67407C15.2775 1.38539 26.3398 6.17009 34.8388 8.12783C45.5679 4.89218 40.2749 6.67647 34.0922 4.28611C27.4117 1.68842 14.9796 -1.52331 6.38648 0.803251" transform="translate(93 194)" id="Fill-73" fill="#74A041" stroke="none"/>
    <path d="M1.99182 2.52231C2.85237 2.9297 4.28466 3.45324 5.9761 4C7.73876 3.20308 9.72298 2.4294 12 1.7647C9.44009 0.821267 7.14923 0.0725943 4.66251 0.0118428C-0.156609 -0.118594 -1.57109 0.835562 1.99182 2.52231" transform="translate(112 202)" id="Fill-74" fill="#87AA4C" stroke="none"/>
    <path d="M31.6729 1.4472C26.6535 0.697762 21.585 0.341402 16.5264 0.0282376C11.3501 -0.205016 6.40318 1.02605 1.9776 3.0087C1.52093 3.2182 0.791823 3.60696 0 4.05835C0.0391991 4.36719 0.0960379 4.68252 0.182276 5C1.14266 4.55941 2.03248 4.13826 2.53031 3.89636C6.77361 1.85971 11.5559 0.514183 16.5656 0.587615C21.6222 0.749597 26.6476 0.948294 31.667 1.5703C32.1061 1.62214 32.1139 1.51199 31.6729 1.4472" transform="translate(93 199)" id="Fill-75" fill="#5A9743" stroke="none"/>
    <path d="M0.987029 0.365696C2.83203 0.36894 4.69035 0.430564 6.54867 0.613815C7.47307 0.707873 8.40128 0.832742 9.31236 1.02572C10.2139 1.22519 11.1364 1.4798 11.8802 1.95171C12.0114 2.03279 12.0494 2.00522 11.9201 1.91765C11.1802 1.41817 10.252 1.13438 9.3428 0.90734C8.426 0.681926 7.49019 0.527865 6.55627 0.404617C4.68084 0.162986 2.79779 0.0446024 0.926163 0.000816832C-0.361534 -0.0202651 -0.274039 0.373805 0.987029 0.365696" transform="translate(97 202)" id="Fill-76" fill="#5A9743" stroke="none"/>
    <path d="M0.665946 1.88698C1.62599 1.45716 2.61862 1.06288 3.65149 0.724441C4.68627 0.397846 5.76321 0.103403 6.92638 0.0475606C7.02794 0.042484 7.02411 -0.00320549 6.9168 0.000178918C5.73255 0.00525552 4.60579 0.242164 3.52118 0.517993C2.43849 0.805667 1.39413 1.15257 0.386171 1.55024C-0.303684 1.83114 0.0182486 2.18481 0.665946 1.88698" transform="translate(108 198)" id="Fill-77" fill="#5A9743" stroke="none"/>
    <path d="M0.289234 0.421994C1.04039 0.782012 1.80242 1.11942 2.58254 1.42204C2.97169 1.57162 3.36628 1.71423 3.76991 1.8325C3.97083 1.88989 4.17536 1.94381 4.38532 1.97512C4.58261 1.99946 4.83964 2.04295 4.98625 1.88989C5.02607 1.83076 4.96996 1.82033 4.93738 1.85859C4.81973 1.96816 4.58623 1.92642 4.39799 1.88642C4.2007 1.84293 4.00703 1.77684 3.81335 1.70728C3.42963 1.56466 3.05495 1.39596 2.6839 1.22203C1.9436 0.870712 1.21778 0.488084 0.499197 0.0984989C0.0122999 -0.17108 -0.226623 0.171546 0.289234 0.421994" transform="translate(117 200)" id="Fill-78" fill="#5A9743" stroke="none"/>
    <path d="M3.26041 55.3072C4.6519 50.7449 4.79968 45.7287 4.68644 40.7243C4.38511 35.6446 3.71145 30.6045 3.5771 25.6973C3.42547 20.792 3.68458 15.9998 4.60967 11.5407C5.06262 9.31211 5.76316 7.21836 6.70745 5.29512C7.66325 3.39568 8.91847 1.68658 10.6381 0.475139C11.235 0.0468726 11.047 -0.20295 10.4136 0.213421C8.6037 1.37529 7.25253 3.05267 6.20076 4.92832C5.16051 6.82578 4.36208 8.90962 3.81317 11.1243C2.69614 15.5656 2.25279 20.3618 2.22208 25.2849C2.17986 30.2278 2.68655 35.3313 2.81514 40.2108C2.771 45.0526 2.46583 49.8805 1.0494 54.07C0.101269 56.9469 -0.265315 58.3606 0.202991 58.8642C0.659781 59.3817 2.3238 58.4676 3.26041 55.3072" transform="translate(101 60)" id="Fill-79" fill="#587C3B" stroke="none"/>
    <path d="M11.0822 37.394C9.46576 38.7928 -0.463399 38.5298 0.0168552 28.1678C0.51468 17.8636 5.28403 11.2459 11.1896 6.74644C17.1323 2.35855 25.0213 -2.36213 22.5263 1.32634C20.045 5.05067 16.8589 14.5099 17.0054 19.8902C17.1518 25.2784 17.4095 32.0316 11.0822 37.394" transform="translate(99 49)" id="Fill-81" fill="#A3BE54" stroke="none"/>
    <path d="M10.9139 6.72492C5.77466 10.5283 1.48862 15.8589 0 23.6742C1.97018 26.8618 4.72763 27.1438 5.36904 22.1707C7.04749 9.48955 11.3915 12.3495 11.4514 16.7268C11.5114 21.1121 12.0149 25.3425 13.3696 18.3038C14.055 14.7705 16.7046 11.2055 19.6359 7.18172C20.557 4.78452 21.5861 2.67331 22.5152 1.32079C25.0688 -2.35347 16.9943 2.35156 10.9139 6.72492" transform="translate(100 49)" id="Fill-82" fill="#ADCF70" stroke="none"/>
    <path d="M5.15898 10.8573C4.41997 12.4543 2.17877 13.1827 0 12.628C2.13648 18.5561 9.44806 18.5541 10.8375 17.4032C17.3637 12.0911 17.0979 5.401 16.9469 0.0631696C16.9449 0.0414551 16.9469 0.0217146 16.9469 0C14.5285 3.50591 12.7182 7.4856 11.5181 10.1545C9.57894 14.5053 6.57457 7.81527 5.15898 10.8573" transform="translate(100 68)" id="Fill-83" fill="#8AAE3F" stroke="none"/>
    <path d="M4.81925 0.107456C3.88803 1.16627 3.34283 2.52201 2.88518 3.89925C2.42554 5.28234 2.05743 6.71819 1.75499 8.18333C1.13815 11.1175 0.298467 15.3293 0 18.4139C0.4477 18.6523 0.909329 18.8476 1.37494 19C1.41672 18.8164 1.44856 18.6093 1.4605 18.3729C1.64953 15.2785 1.8684 11.4203 2.32605 8.4412C2.5509 6.95066 2.83743 5.48746 3.21946 4.07702C3.59951 2.67048 4.0691 1.29129 4.93067 0.201226C5.07195 0.00391948 4.97843 -0.0859427 4.81925 0.107456" transform="translate(103 67)" id="Fill-84" fill="#80A03F" stroke="none"/>
    <path d="M0.931476 4.89453C2.40037 4.40603 3.78006 3.79397 4.99791 3.01465C6.22407 2.24483 7.29047 1.29634 7.97305 0.096947C8.03529 -0.00569543 7.97927 -0.0399096 7.91081 0.0589313C7.17014 1.20891 6.04772 2.08517 4.77799 2.78086C3.52072 3.48795 2.10576 4.02587 0.634792 4.45735C0.128563 4.60371 -0.0560867 4.77858 0.0144535 4.89263C0.082919 5.00858 0.425247 5.0599 0.931476 4.89453" transform="translate(104 78)" id="Fill-85" fill="#80A03F" stroke="none"/>
    <path d="M3.62462 8.22663C2.59818 6.9475 1.67593 5.59742 1.01528 4.20352C0.667224 3.50657 0.434445 2.80127 0.261524 2.10432C0.115207 1.40737 0.0819526 0.729199 0.195016 0.10111C0.210535 -0.00948424 0.146244 -0.0428711 0.126291 0.0698095C-0.0244604 0.687466 -0.037762 1.36981 0.0730848 2.07511C0.206101 2.78458 0.403408 3.50865 0.72043 4.22647C1.319 5.66628 2.19691 7.07687 3.20783 8.4186C3.55811 8.87767 3.86405 9.04878 3.96159 8.98827C4.05914 8.92566 3.97933 8.66274 3.62462 8.22663" transform="translate(101 73)" id="Fill-86" fill="#80A03F" stroke="none"/>
    <path d="M0.968144 6.80843C2.50279 6.09155 3.93212 5.22063 5.1621 4.13248C6.39584 3.06012 7.43774 1.75473 7.9775 0.121511C8.03204 -0.0167302 7.9775 -0.0483282 7.9192 0.0859631C7.32302 1.67179 6.22469 2.90213 4.9477 3.89747C3.67823 4.91058 2.21505 5.70842 0.672875 6.36408C0.144399 6.58527 -0.0549553 6.79658 0.0127498 6.91507C0.0842163 7.03356 0.437787 7.05331 0.968144 6.80843" transform="translate(105 72)" id="Fill-87" fill="#80A03F" stroke="none"/>
    <path d="M1.7389 4.59228C1.0229 3.08339 0.338902 1.53285 0.258902 0.0599317C0.252902 -0.00443755 0.194902 -0.0252629 0.194902 0.0391063C0.140902 1.48741 0.654902 3.08718 1.2809 4.62447C1.4989 5.14889 1.9909 5.11102 1.7389 4.59228" transform="translate(104 71)" id="Fill-88" fill="#80A03F" stroke="none"/>
    <path d="M0.26606 2.9567C1.51149 2.27338 3.15486 1.25156 3.98576 0.0678501C4.02445 0.0173898 3.97655 -0.0267629 3.93418 0.0194923C3.00748 1.08336 1.70125 1.68678 0.41529 2.25656C-0.0287163 2.43948 -0.174262 3.18587 0.26606 2.9567" transform="translate(106 69)" id="Fill-89" fill="#80A03F" stroke="none"/>
    <path d="M4.7884 60.5739C7.77173 55.8023 9.39537 50.1509 10.7051 44.4348C11.8128 38.5776 12.4607 32.6597 13.7164 27.0474C14.9501 21.4332 16.6417 16.0679 19.0372 11.2748C20.2229 8.8782 21.6646 6.70307 23.3502 4.7964C25.0438 2.91912 27.0394 1.34362 29.4469 0.471606C30.2847 0.160033 30.1307 -0.178974 29.2549 0.109084C26.7535 0.900754 24.6519 2.40963 22.8503 4.23204C21.0567 6.08384 19.5011 8.21586 18.2034 10.5693C15.586 15.286 13.6684 20.6004 12.2127 26.1832C10.7351 31.7818 9.86726 37.7271 8.61355 43.3041C7.16387 48.789 5.40427 54.1817 2.50092 58.5222C0.533362 61.5145 -0.312448 63.0116 0.103459 63.7209C0.49937 64.4421 2.75686 63.8914 4.7884 60.5739" transform="translate(86 236)" id="Fill-90" fill="#587C3B" stroke="none"/>
    <path d="M5 0C3.3312 1.04408 1.77948 2.20901 0.372499 3.47301C0.166028 3.74047 0.0574713 3.90292 0 4C0.670498 3.63348 2.99276 1.69787 5 0" transform="translate(104 234)" id="Fill-91" fill="#0C0E0F" stroke="none"/>
    <path d="M10.8111 38.7903C8.55268 39.9018 -2.81562 36.7661 0.653239 25.2528C4.12602 13.8096 11.4849 7.73507 19.5567 4.36336C27.6422 1.13011 38.0625 -1.92179 34.151 1.51037C30.2414 4.98739 23.9089 14.7144 22.5633 20.8046C21.2176 26.9045 19.6115 34.5703 10.8111 38.7903" transform="translate(96 226)" id="Fill-92" fill="#A3BE54" stroke="none"/>
    <path d="M17.3285 4.37547C10.3669 7.23792 3.94001 12.0673 0 20.4885C1.33984 24.6472 4.40915 25.7382 6.56602 20.2929C12.1182 6.42064 16.265 10.8727 15.0782 15.8389C13.8914 20.815 13.2553 25.7421 16.8196 18.1598C18.6146 14.3569 22.666 11.0662 27.1686 7.33568C28.908 4.88188 30.6871 2.78392 32.1383 1.51303C36.1081 -1.92621 25.5325 1.13372 17.3285 4.37547" transform="translate(98 226)" id="Fill-93" fill="#ADCF70" stroke="none"/>
    <path d="M6.402 8.92138C5.094 10.505 2.326 10.7087 0 9.4941C0.72 16.7089 9.064 18.7038 10.982 17.7947C19.968 13.6358 21.608 6.08084 22.982 0.0691878C22.986 0.0461252 22.994 0.0211407 23 0C19.226 3.25951 16.004 7.21667 13.86 9.87271C10.386 14.2104 8.898 5.90595 6.402 8.92138" transform="translate(95 247)" id="Fill-94" fill="#8AAE3F" stroke="none"/>
    <path d="M10.7739 0.0855366C9.40597 1.04712 8.39481 2.46388 7.47629 3.9299C6.55383 5.40381 5.72006 6.96244 4.95331 8.57428C3.40405 11.7999 1.22995 16.4423 0 19.932C0.441521 20.336 0.910637 20.6926 1.39552 21C1.49802 20.797 1.59263 20.5704 1.67541 20.2965C2.78316 16.7655 4.14714 12.3576 5.52887 9.0334C6.2148 7.37033 6.96184 5.75849 7.80349 4.22941C8.64317 2.71019 9.57746 1.24417 10.8705 0.223469C11.0912 0.0362751 11.0104 -0.0937753 10.7739 0.0855366" transform="translate(98 243)" id="Fill-95" fill="#80A03F" stroke="none"/>
    <path d="M0.989022 3.98603C2.70843 3.80133 4.36969 3.44196 5.90301 2.83163C7.44215 2.23736 8.86498 1.38209 9.94664 0.115259C10.0455 0.00885312 9.9951 -0.0473614 9.89236 0.051014C8.7603 1.24357 7.30064 1.99644 5.73631 2.48631C4.17779 2.99625 2.5049 3.25725 0.799053 3.3757C0.211701 3.40983 -0.0364221 3.57245 0.00428551 3.73106C0.0449931 3.89167 0.397793 4.04827 0.989022 3.98603" transform="translate(100 257)" id="Fill-96" fill="#80A03F" stroke="none"/>
    <path d="M1.8091 10.0616C1.17364 8.36924 0.650629 6.62436 0.381094 4.90171C0.229368 4.03635 0.186528 3.18918 0.197238 2.3683C0.232938 1.55348 0.368598 0.79123 0.627424 0.119965C0.666694 0.000674083 0.616714 -0.0518948 0.570304 0.0673962C0.279348 0.714398 0.100848 1.47058 0.0312327 2.28742C-0.0205324 3.11033 -0.0151774 3.96963 0.102633 4.85117C0.304338 6.6102 0.768439 8.40766 1.37713 10.1667C1.58954 10.7692 1.82873 11.0381 1.93583 10.9957C2.04115 10.9532 2.02865 10.6398 1.8091 10.0616" transform="translate(99 249)" id="Fill-97" fill="#80A03F" stroke="none"/>
    <path d="M1.22581 5.95051C3.35236 5.57213 5.39115 4.97782 7.24628 4.06067C9.10344 3.16407 10.7871 1.92817 11.9422 0.143203C12.0504 -0.00691495 11.9933 -0.0583252 11.881 0.0835671C10.6667 1.79244 8.93609 2.92141 7.05035 3.71519C5.16666 4.52953 3.10746 5.02306 0.99111 5.32741C0.264572 5.42612 -0.0456354 5.61531 0.00538551 5.77982C0.0564064 5.94228 0.495186 6.07595 1.22581 5.95051" transform="translate(102 250)" id="Fill-98" fill="#80A03F" stroke="none"/>
    <path d="M1.36529 5.55376C0.997287 3.67215 0.681287 1.75357 1.03529 0.0789714C1.04929 0.00503772 0.985287 -0.0337775 0.967287 0.0383079C0.467287 1.65006 0.573287 3.57788 0.829287 5.46874C0.921287 6.11566 1.49929 6.20438 1.36529 5.55376" transform="translate(102 246)" id="Fill-99" fill="#80A03F" stroke="none"/>
    <path d="M0.321767 1.98901C2.13333 1.6466 4.55499 1.06509 5.97092 0.0761302C6.03339 0.0359598 5.98549 -0.0252522 5.91886 0.0110925C4.41339 0.848932 2.54561 1.08995 0.71323 1.30228C0.0843898 1.36158 -0.31332 2.09804 0.321767 1.98901" transform="translate(105 247)" id="Fill-100" fill="#80A03F" stroke="none"/>
    <path d="M14.5494 51.7684C13.1485 52.3066 4.16583 52.7424 1.35226 42.8625C-1.43001 33.0241 0.579408 24.071 2.9097 16.0563C5.31631 8.14612 5.59023 -6.3138 9.59145 3.04946C13.5966 12.4246 14.8097 15.4411 19.3666 23.0536C23.9117 30.6444 22.7397 48.6512 14.5494 51.7684" transform="translate(65 58)" id="Fill-101" fill="#82A03F" stroke="none"/>
    <path d="M3.42306 1.90617C3.07203 1.09743 2.75075 0.476543 2.45327 0C-0.370845 8.80122 -1.02531 24.2187 1.9178 34.8786C4.25205 43.2507 5.7474 47.9687 6.66365 51C7.51049 50.9881 8.15107 50.8814 8.44855 50.7667C16.7484 47.6385 17.9383 29.5813 13.3313 21.9684C8.71232 14.3339 7.48273 11.3085 3.42306 1.90617" transform="translate(71 59)" id="Fill-102" fill="#719A41" stroke="none"/>
    <path d="M2.96404 16.0004C1.59774 20.4722 0.332947 25.2407 0 30.3C0.637471 28.8618 3.77204 35.4928 8.81293 33.6852C14.8852 31.5319 6.23869 13.4776 7.57454 9.31038C8.35412 6.92122 11.7323 10.0256 14 12.1141C12.8266 9.65421 11.6085 6.88782 9.89704 3.03885C5.74536 -6.29182 5.46114 8.11777 2.96404 16.0004" transform="translate(65 58)" id="Fill-103" fill="#8EB03E" stroke="none"/>
    <path d="M16.6221 5.75244C17.4046 11.8966 13.9086 28.0845 5.37865 24.0067C3.10865 22.9118 1.36742 21.6054 0 20.2344C3.17644 28.6897 11.3093 28.2804 12.6302 27.7711C20.4764 24.7725 21.8051 7.90886 17.8133 0C16.8913 1.19279 16.3161 3.30026 16.6221 5.75244" transform="translate(67 82)" id="Fill-104" fill="#598D41" stroke="none"/>
    <path d="M3.09093 36.7185C1.97287 33.5937 1.12531 30.4257 0.840384 27.3421C0.750218 26.5658 0.746611 25.813 0.728578 25.0543C0.735791 24.6818 0.764644 24.3133 0.782677 23.9408C0.789891 23.5664 0.847597 23.2076 0.905303 22.8489C1.10908 21.3943 1.41925 19.9652 1.59417 18.489L1.83582 16.266C1.92418 15.5308 1.94041 14.7761 1.99631 14.0311C2.11894 12.5511 2.12074 11.0376 2.16763 9.53992C2.1514 8.02847 2.17304 6.52879 2.07025 5.00362L2.01615 3.8666C1.9891 3.48433 1.94221 3.10205 1.90795 2.71978L1.79434 1.57296L1.57974 0.410461C1.48056 -0.134522 1.36876 -0.136483 1.45712 0.40262L1.64647 1.5514L1.73303 2.69038C1.76008 3.07069 1.79795 3.44904 1.81418 3.82739L1.84303 4.95853C1.90975 6.46997 1.85024 7.95986 1.8286 9.45366C1.74745 10.9396 1.70778 12.4354 1.54909 13.9017C1.47335 14.6349 1.43728 15.3818 1.33269 16.1072L1.03695 18.2851C0.825957 19.7397 0.47972 21.1512 0.238075 22.6097C0.169549 22.9783 0.101023 23.3468 0.084793 23.7291C0.0577432 24.1114 0.0180702 24.4878 3.69773e-05 24.872C0.0018403 25.6463 -0.0125863 26.4207 0.0631531 27.2127C0.288568 30.3728 1.09645 33.6055 2.18566 36.8009C2.95027 38.9965 3.70946 40.0492 3.92226 39.9982C4.15308 39.9473 3.86816 38.8632 3.09093 36.7185" transform="translate(73 70)" id="Fill-105" fill="#628D40" stroke="none"/>
    <path d="M0.669275 5.41831C1.3428 4.09115 2.20766 2.85311 3.34423 1.82741C3.91826 1.32309 4.57648 0.890813 5.32271 0.553337C6.08999 0.253779 6.94146 0.0395382 7.88478 0.0622895C8.04551 0.0603935 8.03594 0.00920327 7.86947 0.00920327C6.91085 -0.0438829 6.02685 0.138127 5.21747 0.414933C4.43297 0.727763 3.72883 1.14108 3.10888 1.62833C1.88621 2.61991 0.93524 3.8371 0.192834 5.16425C-0.0597377 5.62307 -0.0329498 5.93211 0.0952492 5.98898C0.221535 6.04776 0.441578 5.87333 0.669275 5.41831" transform="translate(73 93)" id="Fill-106" fill="#628D40" stroke="none"/>
    <path d="M3.96497 9.22663C3.69501 7.65901 3.33322 6.08569 2.81166 4.50855C2.55088 3.72379 2.24602 2.93522 1.84751 2.15999C1.64917 1.77523 1.41961 1.39237 1.1423 1.02476C0.86866 0.662853 0.538093 0.306664 0.121212 0.0495224C-0.025707 -0.0400011 -0.0440718 0.00190352 0.0936644 0.0952365C0.486672 0.350473 0.795201 0.704758 1.05047 1.06285C1.30391 1.42475 1.5151 1.8038 1.69324 2.18856C2.05136 2.95618 2.31581 3.73713 2.53619 4.51236C2.97511 6.07235 3.2616 7.62854 3.4783 9.17329C3.61237 10.2266 4.13944 10.3047 3.96497 9.22663" transform="translate(70 80)" id="Fill-107" fill="#628D40" stroke="none"/>
    <path d="M5.70982 7.27172C4.80747 6.0605 3.90711 4.84094 2.96891 3.64226C2.49881 3.04292 2.04066 2.43731 1.56259 1.84006L0.0925373 0.0650042C0.00688358 -0.0373224 -0.0389312 -0.0122628 0.0427386 0.0942403L1.41917 1.90897C1.86338 2.51875 2.28965 3.13898 2.7239 3.75294C3.59637 4.97877 4.429 6.2213 5.28554 7.4534C5.8632 8.29916 6.32135 8.10495 5.70982 7.27172" transform="translate(69 96)" id="Fill-108" fill="#628D40" stroke="none"/>
    <path d="M0.540516 6.41259C0.883902 5.10066 1.36355 3.83888 2.05759 2.72354C2.74255 1.60619 3.67097 0.631273 4.93369 0.0736026C5.04088 0.0214464 5.00999 -0.0287038 4.89917 0.0194404C3.58739 0.522948 2.57722 1.45374 1.80868 2.543C1.03288 3.63226 0.476925 4.87799 0.0717654 6.19794C-0.0644992 6.65331 0.0136258 6.94819 0.137172 6.99232C0.262536 7.04047 0.426053 6.86394 0.540516 6.41259" transform="translate(75 98)" id="Fill-109" fill="#628D40" stroke="none"/>
    <path d="M4.86195 8.26928C4.25211 6.87487 3.59216 5.48634 2.85163 4.10371C2.4879 3.4124 2.08496 2.72501 1.66243 2.04548C1.22246 1.36791 0.767255 0.680528 0.111667 0.067772C-0.00159056 -0.0402459 -0.0451512 -0.0107865 0.0593943 0.0972314C0.669243 0.708024 1.08525 1.39934 1.47947 2.07691C1.86063 2.76036 2.21782 3.44775 2.53799 4.13907C3.18923 5.52169 3.76205 6.91022 4.30873 8.29874C4.67464 9.2493 5.27142 9.22769 4.86195 8.26928" transform="translate(68 86)" id="Fill-110" fill="#628D40" stroke="none"/>
    <path d="M0.959144 10.2256C2.33258 8.50501 3.92646 6.88817 6.17389 5.97595L6.57773 5.78033L6.9445 5.52284C7.07521 5.44299 7.17471 5.34319 7.2781 5.24338C7.3776 5.13759 7.49465 5.05176 7.57854 4.93599C7.95311 4.50882 8.21649 4.01379 8.43499 3.50279C8.84272 2.46481 9.01635 1.32903 8.99879 0.161316C8.99099 -0.0462785 8.93051 -0.056259 8.93051 0.147343C8.91296 1.30109 8.70226 2.41691 8.26331 3.42095C7.8107 4.41301 7.09862 5.29129 5.98271 5.73642C4.82973 6.15361 3.80355 6.79036 2.90809 7.50496C2.01653 8.23154 1.22056 9.04196 0.502634 9.91026C0.0188113 10.5051 -0.0728809 10.9103 0.0480748 10.9862C0.172932 11.062 0.498732 10.8285 0.959144 10.2256" transform="translate(74 80)" id="Fill-111" fill="#628D40" stroke="none"/>
    <path d="M65.7091 33.4945C65.2129 35.5706 58.554 46.4699 44.8935 41.8845C31.3079 37.2971 22.5659 27.7846 15.1666 18.6476C7.94655 9.50258 -8.54127 -2.36622 5.46767 0.41125C19.4924 3.19269 23.9461 4.17613 36.374 4.90129C48.7684 5.62645 68.6388 21.3813 65.7091 33.4945" transform="translate(0 238)" id="Fill-112" fill="#82A03F" stroke="none"/>
    <path d="M2.98114 0.387267C1.76248 0.153739 0.787957 0.0350292 0 0C7.97881 10.0709 25.3635 22.839 40.0786 27.8112C51.6499 31.6936 58.3148 33.6767 62.5622 35C63.2211 34.0289 63.6042 33.2193 63.7074 32.7932C66.6568 20.928 46.6304 5.49569 34.1362 4.78538C21.6083 4.07506 17.1187 3.11176 2.98114 0.387267" transform="translate(2 239)" id="Fill-113" fill="#719A41" stroke="none"/>
    <path d="M15.0584 18.3897C19.1636 23.4505 23.6852 28.6308 29.2566 33C28.0876 31.1524 38.1122 32.8942 39.8794 25.8369C42.0337 17.3533 14.6518 12.7392 10.8749 7.95268C8.72066 5.19402 14.8707 3.87739 19.0072 2.99572C15.2793 2.36092 11.1643 1.5341 5.42865 0.405563C-8.4803 -2.3335 7.88984 9.37119 15.0584 18.3897" transform="translate(0 239)" id="Fill-114" fill="#8EB03E" stroke="none"/>
    <path d="M5.64634 6.03987C13.3106 10.0558 29.0874 27.2311 17.6414 34.0781C14.5835 35.8913 11.704 36.9112 9.04773 37.4321C21.2621 40.462 27.248 30.4757 27.7137 28.4975C30.5077 16.7657 12.2318 1.62031 0 0C0.632546 2.05371 2.59227 4.43149 5.64634 6.03987" transform="translate(38 243)" id="Fill-115" fill="#598D41" stroke="none"/>
    <path d="M44.4276 27.1993C39.7931 26.121 35.343 24.67 31.4842 22.5705C30.5001 22.0678 29.6133 21.4744 28.7106 20.8909C28.2781 20.5814 27.8734 20.2522 27.4528 19.9348C27.0222 19.6253 26.6493 19.2665 26.2822 18.9097C24.7565 17.4903 23.3519 15.9624 21.7786 14.5628L19.3859 12.4869C18.6003 11.789 17.7313 11.168 16.9079 10.5037C15.2811 9.16707 13.5134 7.95861 11.7992 6.70678C10.0156 5.52198 8.27766 4.29972 6.40478 3.21152L5.02394 2.37762C4.55374 2.1036 4.06369 1.85915 3.58556 1.59892L2.14519 0.826142L0.597692 0.171642C-0.126459 -0.135894 -0.225658 0.00407449 0.482621 0.321467L1.99044 0.999624L3.39906 1.79606C3.86728 2.06417 4.34542 2.32045 4.80173 2.59842L6.15083 3.46385C7.97807 4.58557 9.6704 5.84726 11.4024 7.06557C13.0709 8.35289 14.791 9.59486 16.3643 10.965C17.1599 11.6431 18.0051 12.2838 18.761 12.9955L21.0544 15.1049C22.5722 16.5322 23.9233 18.0935 25.4212 19.5622C25.7922 19.9407 26.1632 20.3231 26.5977 20.6484C27.0203 20.9895 27.427 21.3384 27.8615 21.6637C28.7701 22.2827 29.6629 22.9175 30.6569 23.4537C34.5514 25.6833 39.0431 27.2368 43.7352 28.4078C46.9731 29.1924 48.8638 29.0721 48.9908 28.7607C49.1336 28.4295 47.6159 27.9228 44.4276 27.1993" transform="translate(15 246)" id="Fill-116" fill="#628D40" stroke="none"/>
    <path d="M2.66856 12.8494C1.59427 11.0016 0.787538 9.00009 0.475386 6.85434C0.333499 5.77954 0.349714 4.66628 0.558491 3.52803C0.832131 2.39555 1.28212 1.23423 2.10506 0.159432C2.23276 -0.0328394 2.16587 -0.0616802 2.02601 0.130592C1.15239 1.20347 0.637543 2.37825 0.297013 3.54149C0.0274276 4.70474 -0.0516239 5.85452 0.0314815 6.96778C0.228097 9.18659 0.935506 11.267 1.95709 13.1993C2.31181 13.8607 2.7172 14.078 2.89355 13.9761C3.07395 13.8761 3.04152 13.4819 2.66856 12.8494" transform="translate(45 256)" id="Fill-117" fill="#628D40" stroke="none"/>
    <path d="M14.1662 3.15061C12.0937 2.22736 9.93986 1.40946 7.65043 0.78119C6.50766 0.46897 5.32614 0.210383 4.08264 0.0743852C3.46283 0.0054286 2.81978 -0.0213878 2.15735 0.0188368C1.50074 0.0609769 0.807327 0.175905 0.154588 0.476632C-0.0720306 0.580067 -0.0391031 0.635615 0.185579 0.541757C0.815075 0.271678 1.48912 0.181651 2.12443 0.160581C2.76361 0.143342 3.38342 0.189313 3.9858 0.28317C5.18862 0.463224 6.32752 0.763951 7.42382 1.11831C9.62608 1.82895 11.6947 2.72538 13.6955 3.69652C15.0456 4.37268 15.5782 3.79804 14.1662 3.15061" transform="translate(23 259)" id="Fill-118" fill="#628D40" stroke="none"/>
    <path d="M3.6285 10.9627C2.50182 9.45961 1.54033 7.81766 0.907386 6.01437C0.267016 4.22129 -0.028111 2.22807 0.400659 0.136829C0.428501 -0.0449291 0.350543 -0.0469713 0.311564 0.138872C-0.210013 2.2485 -0.0318233 4.31728 0.513883 6.19409C1.05031 8.08111 1.93383 9.80884 3.01968 11.4018C3.39648 11.945 3.77327 12.0818 3.92177 11.9573C4.07397 11.8327 4.01829 11.4773 3.6285 10.9627" transform="translate(53 261)" id="Fill-120" fill="#628D40" stroke="none"/>
    <path d="M13.1186 1.40132C11.0552 1.01127 8.96418 0.664003 6.82374 0.392447C5.75847 0.252554 4.6675 0.148869 3.5706 0.0665798C2.46777 0.000748 1.33728 -0.0585006 0.155395 0.107725C-0.0521265 0.135703 -0.0501501 0.193306 0.151442 0.171911C1.3017 0.0468302 2.40255 0.142286 3.47573 0.245971C4.54694 0.366114 5.60431 0.509298 6.63994 0.691981C8.71713 1.03924 10.7449 1.46057 12.7549 1.90658C14.1245 2.21599 14.5317 1.6811 13.1186 1.40132" transform="translate(30 266)" id="Fill-121" fill="#628D40" stroke="none"/>
    <path d="M5.71411 17.3363C4.77714 14.3862 4.16245 11.2648 4.9799 7.92694L5.08875 7.30306L5.08875 6.67525C5.10155 6.45876 5.06527 6.26392 5.02899 6.06514C4.9863 5.86834 4.98203 5.66169 4.9116 5.47669C4.7067 4.70521 4.32466 4.01244 3.88072 3.35708C2.95015 2.06996 1.69517 0.979644 0.235286 0.0881068C-0.0293706 -0.0654029 -0.0934005 -0.00242456 0.160585 0.155021C1.57138 1.07608 2.76873 2.19591 3.631 3.49091C4.46339 4.79574 4.93508 6.31312 4.51888 7.96433C4.03226 9.63523 3.92981 11.3297 4.03866 12.9337C4.16458 14.5416 4.47833 16.1043 4.92867 17.6197C5.24455 18.651 5.66715 19.0741 5.86564 18.9895C6.0684 18.9049 6.05987 18.344 5.71411 17.3363" transform="translate(34 245)" id="Fill-122" fill="#628D40" stroke="none"/>
    <path d="M0.0558184 35.0081C-0.530888 38.2292 3.3548 52.4263 18.9963 44.7568C34.8137 37.4891 42.4369 25.1799 48.5213 14.8901C54.7084 4.83513 61.9839 -0.453006 57.7268 0.0304462C53.4737 0.529815 41.3465 6.89229 30.2504 9.74724C19.2156 12.7435 2.70093 20.8527 0.0558184 35.0081" transform="translate(127 39)" id="Fill-123" fill="#83A13F" stroke="none"/>
    <path d="M42.6448 11.1218C34.3648 22.1525 18.4242 28.4394 22.1955 23.1766C26.0002 17.987 15.8916 20.6392 13.0838 22.7547C10.618 24.6324 1.42571 20.9819 12.8675 10.5514C6.64027 14.8 1.43357 20.6056 0.0552142 28.0611C-0.526804 31.2679 3.34086 45.4024 18.9098 37.7667C34.6538 30.531 42.2417 18.2762 48.2978 8.03188C50.2169 4.87063 52.2461 2.17881 54 0C50.1146 3.07212 45.8459 6.99397 42.6448 11.1218" transform="translate(127 46)" id="Fill-124" fill="#618D40" stroke="none"/>
    <path d="M22.8463 1.36144C17.5907 4.64771 6.83277 7.95701 3.1581 4.28875C2.38521 3.51518 1.24446 2.93739 0 2.56884C1.67493 7.34276 6.75254 13.2492 18.1483 7.85144C22.7544 5.74185 26.6345 3.20613 30 0.432378C28.2351 -0.304729 25.3274 -0.164602 22.8463 1.36144" transform="translate(128 76)" id="Fill-126" fill="#57813D" stroke="none"/>
    <path d="M44.4532 0.288178C37.0836 5.37148 29.5437 10.3937 21.3817 14.8581C17.2769 17.1543 14.022 20.2745 10.9632 23.5089C7.9223 26.7947 5.14682 30.2952 2.51001 33.916C1.40062 35.4672 0.475457 36.6045 0 37.2885C0.219899 37.5329 0.459608 37.7714 0.711204 38C1.30949 37.3456 2.21285 36.2891 3.56989 34.6394C6.13537 30.993 8.83161 27.4589 11.7854 24.1397C14.759 20.8638 17.9049 17.7121 21.8888 15.3804C29.928 10.7642 37.3293 5.59026 44.576 0.394614C45.212 -0.0587246 45.101 -0.157276 44.4532 0.288178" transform="translate(130 45)" id="Fill-127" fill="#5E7E3B" stroke="none"/>
    <path d="M1.95586 5.89482C3.79785 6.0364 5.59798 6.03438 7.34229 5.8928C9.08261 5.75121 10.7831 5.50243 12.35 5.03318C13.1633 4.8471 13.879 4.51336 14.6385 4.25042L15.6851 3.73465L16.2074 3.47373L16.6818 3.16023L17.6267 2.53321L18.456 1.799L18.8687 1.43088C19.0003 1.30548 19.1019 1.15378 19.2195 1.01624L19.9073 0.170786C20.0668 -0.0254084 20.005 -0.0678835 19.8395 0.124266L19.1278 0.945452C19.0062 1.07895 18.9006 1.22457 18.765 1.34795L18.3424 1.69989L17.4952 2.40781L16.5343 3.00044L16.0539 3.29777L15.5236 3.5425L14.467 4.02389C13.7015 4.26458 12.9799 4.57404 12.1666 4.73585C10.5957 5.15858 8.89522 5.36691 7.16487 5.46804C5.43451 5.56715 3.64435 5.53277 1.82827 5.36489C0.586326 5.25162 -0.0137167 5.27792 0.00023782 5.41343C0.0141923 5.54693 0.689988 5.79773 1.95586 5.89482" transform="translate(131 76)" id="Fill-128" fill="#647E3A" stroke="none"/>
    <path d="M1.6215 12.8969C1.1535 10.6936 0.8015 8.4943 0.6395 6.33755C0.4855 4.19093 0.5035 2.06253 1.0355 0.146774C1.0755 -0.0233356 1.0075 -0.0577625 0.9595 0.108297C0.3475 1.99773 0.2315 4.11397 0.2955 6.25452C0.3635 8.40519 0.6275 10.6045 1.0315 12.824C1.3375 14.357 1.9615 14.4016 1.6215 12.8969" transform="translate(132 65)" id="Fill-129" fill="#647E3A" stroke="none"/>
    <path d="M1.59633 5.88043C4.40198 5.3151 7.129 4.60275 9.72178 3.68125C12.3146 2.77218 14.798 1.66845 16.8826 0.12778C17.0705 -0.000608442 17.0188 -0.0544489 16.827 0.0718691C14.6906 1.5442 12.1611 2.55889 9.52809 3.38099C6.90079 4.21759 4.14117 4.84711 1.32785 5.34824C0.363228 5.51804 -0.0586736 5.72719 0.00652939 5.86593C0.0678969 6.00675 0.633629 6.07301 1.59633 5.88043" transform="translate(136 70)" id="Fill-130" fill="#647E3A" stroke="none"/>
    <path d="M0.913441 12.9027C0.677441 10.648 0.507441 8.40861 0.529441 6.21894C0.545441 5.12697 0.611441 4.04838 0.781441 3.00614C0.959441 1.97536 1.21544 0.956066 1.81544 0.13183C1.92544 -0.00968653 1.86544 -0.0555837 1.74744 0.0859325C1.10344 0.894869 0.801441 1.90652 0.575441 2.92773C0.357441 3.96042 0.247441 5.03135 0.183441 6.11758C0.0634409 8.29578 0.145441 10.5294 0.317441 12.7822C0.375441 13.5567 0.573441 13.9641 0.701441 13.9947C0.883441 14.0501 0.993441 13.6715 0.913441 12.9027" transform="translate(136 60)" id="Fill-131" fill="#647E3A" stroke="none"/>
    <path d="M0.401052 1.14556C2.3727 1.27356 5.12128 1.39556 6.95303 1.14356C7.03243 1.13356 7.00407 1.07556 6.9209 1.07756C5.04377 1.19356 3.04566 0.949555 1.07213 0.709555C-0.109345 1.00956 -0.285148 1.09356 0.401052 1.14556" transform="translate(147 72)" id="Fill-142" fill="#647E3A" stroke="none"/>
    <path d="M0.777462 2.93319C1.91731 2.5777 3.0347 2.1858 4.10717 1.74534C4.64621 1.53032 5.1684 1.28928 5.67001 1.03437C6.16039 0.76559 6.662 0.491605 6.97644 0.0754257C7.03446 0.00259438 6.97457 -0.0303531 6.9128 0.0355419C6.5759 0.41704 6.05183 0.659811 5.53899 0.892177C5.01118 1.11587 4.46653 1.31876 3.90503 1.50084C2.78764 1.87193 1.62907 2.19274 0.46115 2.49794C-0.336182 2.70082 -0.0142548 3.17423 0.777462 2.93319" transform="translate(136 79)" id="Fill-143" fill="#647E3A" stroke="none"/>
    <path d="M1.82303 3.2675C1.0845 2.25262 0.393219 1.16471 0.0677058 0.0412271C0.0519552 -0.00745723 -0.00929732 -0.0168196 0.00120311 0.0337372C0.195461 1.15722 1.10725 2.77878 1.79503 3.88167C2.04704 4.27115 2.07854 3.60267 1.82303 3.2675" transform="translate(130 70)" id="Fill-144" fill="#647E3A" stroke="none"/>
    <path d="M39.9865 55.9875C43.2397 56.2895 57.0008 51.1379 47.9835 36.1498C39.3494 20.9471 26.4378 14.4027 15.668 9.21925C5.12635 3.9146 -0.778622 -2.90594 0.0828094 1.31791C0.958134 5.53182 8.36168 17.1186 12.1885 27.9782C16.1503 38.7683 25.6836 54.5909 39.9865 55.9875" transform="translate(23 189)" id="Fill-145" fill="#83A13F" stroke="none"/>
    <path d="M12.1551 10.2746C23.9478 17.5117 31.6762 32.7545 26.0686 29.4782C20.5287 26.1648 24.0951 35.9466 26.4648 38.5441C28.5677 40.8228 25.738 50.2505 14.2619 39.8272C19.079 45.6247 25.3596 50.2759 32.9506 50.9879C36.2144 51.2832 50.0203 46.2115 40.9737 31.4557C32.3114 16.4887 19.3578 10.0458 8.55278 4.9427C5.2173 3.3173 2.33783 1.54521 0 0C3.4231 3.5794 7.73633 7.46589 12.1551 10.2746" transform="translate(30 194)" id="Fill-146" fill="#618D40" stroke="none"/>
    <path d="M0.0208419 0C-0.020329 0.211779 -0.0007238 0.512623 0.0816179 0.920347C0.946206 5.11832 8.25893 16.6612 12.0388 27.4798C12.1153 27.6876 12.2035 27.9132 12.2819 28.125C16.4304 30.1003 20.0612 30.2725 22.3766 31.5788C26.9956 34.1439 20.818 24.315 15.5756 20.4099C11.6957 17.4549 4.37123 6.22273 0.0208419 0" transform="translate(24 190)" id="Fill-147" fill="#8AA93E" stroke="none"/>
    <path d="M1.86746 7.11442C5.7322 12.1032 10.1243 22.6305 6.66555 26.6642C5.93718 27.5125 5.44364 28.7128 5.17697 30C9.95318 27.8783 15.5951 22.2271 8.99196 11.251C6.39689 6.80794 3.42768 3.13406 0.259468 0C-0.341537 1.84287 0.06444 4.75547 1.86746 7.11442" transform="translate(62 214)" id="Fill-148" fill="#57813D" stroke="none"/>
    <path d="M0.336215 0.512718C6.08288 7.3203 11.7839 14.2942 16.9815 21.9337C19.6457 25.77 23.0612 28.7002 26.5738 31.4248C30.134 34.1278 33.8885 36.551 37.75 38.8254C39.4032 39.7806 40.6243 40.5909 41.3498 41C41.5758 40.7593 41.7938 40.5048 42 40.2366C41.2903 39.7043 40.1525 38.9096 38.3784 37.7195C34.501 35.5156 30.7188 33.1746 27.1308 30.5616C23.5865 27.9231 20.1492 25.1026 17.4592 21.3896C12.1209 13.8852 6.27912 7.05801 0.431365 0.383535C-0.0780838 -0.201706 -0.169269 -0.0842663 0.336215 0.512718" transform="translate(30 200)" id="Fill-149" fill="#5E7E3B" stroke="none"/>
    <path d="M6.99909 17.0554C6.97454 15.2519 6.82347 13.4991 6.54399 11.8144C6.2664 10.1336 5.89061 8.49957 5.3241 7.0155C5.08238 6.24036 4.71226 5.57038 4.40446 4.85366L3.83606 3.87986L3.54902 3.39296L2.55574 2.09197L1.80227 1.34993L1.4246 0.979887C1.29808 0.861083 1.14701 0.777336 1.01104 0.674114L0.165051 0.0781478C-0.0294521 -0.0620794 -0.0653313 0.00219139 0.129172 0.146314L0.950615 0.767598C1.08658 0.874716 1.2301 0.966254 1.35662 1.087L2.44999 2.23219L3.0807 3.1164L3.39984 3.55851L3.66988 4.0532L4.20618 5.04063C4.4951 5.76514 4.84256 6.44096 5.0635 7.22C5.58847 8.71186 5.9246 10.3478 6.16442 12.0228C6.40236 13.6997 6.51944 15.4447 6.51755 17.2248C6.51566 18.444 6.5912 19.0264 6.71583 18.9991C6.83857 18.9738 7.01419 18.296 6.99909 17.0554" transform="translate(64 221)" id="Fill-150" fill="#647E3A" stroke="none"/>
    <path d="M12.8893 0.147432C10.7205 0.728874 8.54549 1.20636 6.39501 1.5147C4.25473 1.81775 2.11649 1.96576 0.145554 1.64685C-0.0278718 1.62394 -0.056436 1.68561 0.11495 1.71732C2.06752 2.10671 4.19964 2.04505 6.344 1.8248C8.49449 1.59927 10.6776 1.19755 12.8689 0.670729C14.3787 0.283102 14.3685 -0.266625 12.8893 0.147432" transform="translate(54 238)" id="Fill-151" fill="#647E3A" stroke="none"/>
    <path d="M6.78712 15.3539C6.01667 12.5145 5.11781 9.7663 4.03879 7.17858C2.97127 4.58689 1.73317 2.12598 0.127103 0.110883C-0.00897197 -0.0714067 -0.0530527 -0.0139458 0.081106 0.174288C1.62585 2.24486 2.78919 4.76125 3.78005 7.40049C4.78241 10.0358 5.60844 12.8216 6.3214 15.6749C6.56097 16.6537 6.79287 17.0698 6.91553 16.9905C7.04011 16.9152 7.04969 16.3287 6.78712 15.3539" transform="translate(57 219)" id="Fill-152" fill="#647E3A" stroke="none"/>
    <path d="M12.893 0.353411C10.6752 0.797411 8.46508 1.17341 6.28924 1.35341C5.20227 1.43941 4.12675 1.47541 3.07792 1.40341C2.03672 1.32141 1.00315 1.16141 0.133578 0.639411C-0.0151648 0.543411 -0.055211 0.607411 0.0935318 0.711411C0.951663 1.27741 1.98333 1.48541 3.01499 1.61541C4.06001 1.73541 5.13362 1.74741 6.21678 1.70941C8.39071 1.62541 10.6028 1.33741 12.8263 0.955411C13.5891 0.825411 13.9781 0.591411 13.9972 0.461411C14.0372 0.277411 13.652 0.199411 12.893 0.353411" transform="translate(49 235)" id="Fill-153" fill="#647E3A" stroke="none"/>
    <path d="M5.3596 21.2534C4.58219 19.7611 3.86939 18.2054 3.28976 16.5466C2.71992 14.8878 2.22841 13.1359 2.14616 11.1898C2.11679 10.7102 2.107 10.1949 2.08741 9.70739C2.07371 9.21194 2.05608 8.71847 1.99734 8.23491C1.92684 7.25391 1.77997 6.31454 1.62528 5.3811C1.29238 3.53009 0.77345 1.79601 0.117446 0.190743C0.00386963 -0.0926559 -0.0490023 -0.0470742 0.0586998 0.240288C0.68533 1.86735 1.16705 3.61927 1.46274 5.47821C1.59786 6.41561 1.72123 7.35895 1.7741 8.334C1.8211 8.80963 1.82893 9.30707 1.8348 9.80649C1.8446 10.3138 1.84264 10.7954 1.86418 11.3028C1.90922 13.3301 2.37332 15.1316 2.91574 16.8419C3.47383 18.5482 4.16117 20.1456 4.92096 21.6736C5.44772 22.718 5.8609 23.0965 5.96861 22.9796C6.08022 22.8626 5.89811 22.2701 5.3596 21.2534" transform="translate(51 208)" id="Fill-154" fill="#647E3A" stroke="none"/>
    <path d="M9.19704 0.973301C7.57411 1.2773 5.96064 1.4513 4.39445 1.4273C2.84907 1.3613 1.29234 1.1573 0.104458 0.197301C-0.00146723 0.119301 -0.0449724 0.181301 0.0609533 0.267301C1.21857 1.3113 2.76395 1.6213 4.30176 1.7833C5.86417 1.9033 7.47764 1.8233 9.1176 1.5813C10.2544 1.3933 10.3055 0.745301 9.19704 0.973301" transform="translate(44 227)" id="Fill-155" fill="#647E3A" stroke="none"/>
    <path d="M4.55091 19.3033C3.94616 17.8535 3.40769 16.3493 2.9562 14.7827C2.513 13.2142 2.14643 11.5852 1.97867 9.85951C1.76121 8.15199 2.0843 6.22498 1.88133 4.46913C1.71979 2.72133 1.22896 1.06414 0.166511 0.0875501C-0.0281664 -0.0674965 -0.0633741 0.000965646 0.120949 0.156012C1.1399 1.15073 1.58725 2.82201 1.70737 4.54967C1.86684 6.27532 1.5044 8.2285 1.68458 9.99442C1.81299 11.7724 2.14228 13.4457 2.55856 15.0546C2.97899 16.6655 3.48846 18.2079 4.0725 19.6939C4.47635 20.7108 4.83257 21.0893 4.95476 20.9826C5.07281 20.8718 4.96719 20.296 4.55091 19.3033" transform="translate(45 203)" id="Fill-156" fill="#647E3A" stroke="none"/>
    <path d="M7.13993 1.29857C5.86838 1.42257 4.60499 1.45457 3.3905 1.33857C2.19027 1.19657 0.994124 0.942575 0.0893702 0.166575C0.00786083 0.100575 -0.0390071 0.160575 0.0425023 0.234575C0.906502 1.09257 2.08635 1.45657 3.27027 1.69457C4.47661 1.91057 6.20054 1.87657 7.48635 1.81657C8.37887 1.75657 8.00801 1.19657 7.13993 1.29857" transform="translate(39 219)" id="Fill-157" fill="#647E3A" stroke="none"/>
    <path d="M6.44411 2.05294C5.34468 1.77141 4.24318 1.51126 3.16032 1.21014C2.09609 0.88941 0.975954 0.623919 0.0856447 0.0234458C0.0111072 -0.0317906 -0.0365141 0.0198821 0.035953 0.0822458C0.452121 0.443955 0.95939 0.668464 1.45631 0.901882C1.96358 1.12283 2.47913 1.32596 3.00089 1.52017C4.04649 1.90505 5.11693 2.24716 6.18116 2.58748C6.85821 2.94741 7.20812 3.20221 6.86856 2.7817C6.98037 2.75676 6.81059 2.56966 6.85614 2.50374C6.89755 2.44316 6.91618 2.35763 6.84579 2.27032C6.81059 2.22756 6.75261 2.18479 6.67808 2.14381C6.61803 2.10996 6.53728 2.07966 6.44411 2.05294" transform="translate(36 213)" id="Fill-158" fill="#647E3A" stroke="none"/>
    <path d="M1.51262 9.44709C1.63062 7.86591 1.68662 5.52507 1.56862 4.02894C1.42862 2.55988 1.19862 1.05795 0.44462 0.0470003C0.38062 -0.0457828 0.33462 0.0122066 0.39262 0.10499C1.07662 1.1604 1.22062 2.67779 1.28462 4.15459C1.32662 5.65651 1.23262 7.21063 1.06262 8.77441C0.93262 9.83949 1.41462 10.547 1.51262 9.44709" transform="translate(40 203)" id="Fill-159" fill="#647E3A" stroke="none"/>
    <path d="M2.88236 8.08628C2.44246 6.73181 2.00255 5.3754 1.56462 4.02094C1.10499 2.66842 0.629583 1.33147 0.0713206 0.0645797C0.0259494 -0.0482923 -0.0273123 -0.00158667 0.0160861 0.115177C0.513196 1.43072 0.913645 2.82216 1.30226 4.22333C1.68693 5.64007 2.02031 7.0354 2.44048 8.48327C2.51544 8.74015 2.60619 8.88611 2.6989 8.94838C2.7857 9.0165 2.8646 9.01455 2.91787 8.95811C2.97705 8.90362 3.00664 8.79075 2.99874 8.6409C2.98494 8.493 2.94943 8.30229 2.88236 8.08628" transform="translate(36 201)" id="Fill-160" fill="#647E3A" stroke="none"/>
    <path d="M1.52827 3.76555C1.46227 3.19256 1.24227 2.03244 1.11227 1.49128C1.04427 1.22601 0.974267 0.957201 0.880267 0.706076L0.730267 0.336463L0.524267 0.0128307C0.500267 -0.0243075 0.452267 0.0269786 0.472267 0.0676537L0.624267 0.416045L0.718267 0.810417C0.774267 1.07569 0.970267 1.64868 1.00027 1.92456C1.05227 2.49048 1.24027 3.04224 1.25427 3.61877C1.25827 4.01491 1.57227 4.16346 1.52827 3.76555" transform="translate(33 200)" id="Fill-161" fill="#647E3A" stroke="none"/>
    <path d="M3.37108 1.16483C2.22628 0.944829 1.04206 0.772829 0.0584998 0.120829C0.0119195 0.092829 -0.02212 0.156829 0.0172941 0.190829C0.939943 1.00683 2.73149 1.52083 3.853 1.87483C4.24715 1.98683 3.76701 1.22683 3.37108 1.16483" transform="translate(33 207)" id="Fill-162" fill="#647E3A" stroke="none"/>
    <path d="M0.63577 7.63031C1.13777 5.24446 1.79377 2.2405 1.52577 0.0565601C1.51777 -0.0382148 1.45977 -0.00524961 1.46377 0.0915856C1.59577 2.31055 1.02577 4.72937 0.43577 7.0596C0.36977 7.72509 0.44377 8.46062 0.63577 7.63031" transform="translate(52 210)" id="Fill-163" fill="#647E3A" stroke="none"/>
    <path d="M1.34014 6.59264C1.28414 4.61245 1.14614 1.8527 0.724144 0.0451064C0.704144 -0.0345565 0.650144 -0.000415269 0.660144 0.0830412C0.952144 1.94943 0.896144 3.96566 0.842144 5.95913C1.25214 7.11425 1.35214 7.28116 1.34014 6.59264" transform="translate(59 218)" id="Fill-164" fill="#647E3A" stroke="none"/>
    <path d="M3.88361 6.18055C3.37532 5.02979 2.83171 3.90832 2.23511 2.83571C1.9427 2.29647 1.62085 1.77872 1.28723 1.28247C0.939865 0.799888 0.582691 0.303632 0.0842179 0.0183823C-0.00213183 -0.0324155 -0.0335317 0.0320587 0.044968 0.0906716C0.508116 0.40132 0.829965 0.922975 1.13808 1.43291C1.4403 1.95847 1.71897 2.50552 1.97802 3.07016C2.50005 4.19553 2.97105 5.36974 3.42242 6.54981C3.72464 7.36062 4.229 6.97769 3.88361 6.18055" transform="translate(67 229)" id="Fill-165" fill="#647E3A" stroke="none"/>
    <path d="M3.24223 0.289003C2.2538 1.35553 1.18266 2.36748 0.0386741 2.9087C-0.0105508 2.93371 -0.0144888 3.01558 0.0367051 2.99739C1.19645 2.62444 2.80118 1.26911 3.89003 0.25944C4.27005 -0.106681 3.56909 -0.0748441 3.24223 0.289003" transform="translate(59 239)" id="Fill-166" fill="#647E3A" stroke="none"/>
    <path d="M41.2148 13.1634C42.7695 15.5181 43.7221 18.1683 45.2074 20.4936C46.4016 23.2299 46.156 26.8861 46.8591 29.8182C47.2215 31.3234 46.8116 33.9794 47.5998 35.285C48.1979 36.2734 49.3624 36.9252 49.9327 37.9782C50.8516 39.3797 52.0439 42.4761 49.3148 41.9379C49.6594 41.748 50.2456 41.1412 50.2555 40.648C50.2615 40.3544 48.4296 38.4147 48.1563 38.1916C47.8889 37.9743 46.2947 36.4672 45.0054 35.1303C42.308 35.2791 39.0641 33.0536 36.4895 34.2613C34.3388 35.2713 30.8809 33.8209 28.748 33.2768C24.4386 32.1748 22.2858 30.5894 19.7133 26.986C16.4 22.3374 13.9185 17.9197 9.38727 14.2869C7.08402 12.4432 3.88561 8.66359 2.61616 6.00948C2.44584 5.6552 0.124767 0.458545 0 0.591642C1.96657 -1.40286 8.04057 2.31212 10.3913 1.98329C14.277 1.44307 17.7328 2.85038 21.5412 3.15572C27.3855 3.62351 37.7986 7.99223 41.2148 13.1634" transform="translate(4 73)" id="Fill-240" fill="#3B6C37" stroke="none"/>
    <path d="M20.4461 2.30906C20.9761 2.34947 21.5374 2.42259 22.1298 2.52842C21.1788 4.18517 21.1671 8.85333 21.208 9.53257C21.286 10.8103 24.252 17.012 22.3831 17.9145C21.4711 18.3551 18.4564 16.962 17.447 16.7157C15.5216 16.2385 13.91 16.2866 12.0899 16.7291C11.022 15.5092 9.84889 14.347 8.48672 13.2521C6.22035 11.4395 3.07315 7.72381 1.82401 5.11457C1.71488 4.88944 0.722979 2.67659 0 1.17377C1.20626 0.475282 3.16279 0.277087 4.66526 0C6.54384 0.60228 8.40293 1.30654 9.47473 1.15645C13.2981 0.625371 16.6987 2.00888 20.4461 2.30906" transform="translate(5 73)" id="Fill-241" fill="#2B6647" stroke="none"/>
    <path d="M14.6669 11.1018C15.1483 14.1805 16.8022 16.6831 17 19.8852C8.84405 21.2512 2.85742 10.0867 0.362496 4.28394C-0.258738 2.84355 -0.182832 0.866195 1.39522 0C3.0372 0.654545 4.65521 1.37768 6.22927 2.17529C9.91473 4.03898 13.9877 6.7571 14.6669 11.1018C15.0244 13.3868 13.8179 5.67926 14.6669 11.1018" transform="translate(33 80)" id="Fill-242" fill="#365E32" stroke="none"/>
    <path d="M7.03992 3.90823C7.99799 5.36884 6.71052 6.69016 7.96184 8.34379C9.1047 9.85216 9.79965 12.3057 11.1735 13.5116C11.8825 14.1345 15.4456 15.6508 16 17C12.6297 15.8916 10.6734 14.2539 8.39769 11.0581C5.58172 7.0961 3.35024 3.3013 0 0C2.54682 1.43275 5.37886 1.37703 7.03992 3.90823" transform="translate(16 89)" id="Fill-243" fill="#4C6D54" stroke="none"/>
    <path d="M2.67724 5.95485C2.50295 5.6038 0.127681 0.454356 0 0.586244C1.70849 -1.09145 6.44078 1.30775 9.3065 1.87215C9.26192 1.89348 9.2153 1.91482 9.17477 1.93615C4.90659 4.26358 10.0503 6.1682 9.99963 8.29004C9.93883 10.8172 8.54447 12.3921 9.40581 14C7.06905 12.1206 3.94189 8.51502 2.67724 5.95485" transform="translate(4 72)" id="Fill-244" fill="#2B563A" stroke="none"/>
    <path d="M21.2806 6.09498C21.3329 7.44797 21.2967 8.9978 21.8591 9.89407C22.1483 10.3565 22.5742 10.7445 23 11.1381C22.5842 11.4821 22.1102 11.7688 21.594 12C20.9432 11.4038 20.0273 10.5438 19.2278 9.7431C16.4921 9.88833 13.202 7.71552 10.5908 8.89461C8.40944 9.88069 4.9024 8.46463 2.73912 7.93337C2.09637 7.77667 1.50383 7.60277 0.945432 7.42122C1.19249 7.0352 1.44156 6.66828 1.30096 6.25741C1.03783 5.49301 -0.183408 5.1089 0.023479 4.28525C0.680295 1.66908 1.25476 -0.272508 4.37614 0.0313423C9.60456 0.535849 13.2402 4.12282 18.1572 5.33631C19.1977 5.59047 20.2402 5.84464 21.2806 6.09498" transform="translate(30 98)" id="Fill-245" fill="#295E37" stroke="none"/>
    <path d="M15.6195 11.8498C17.6355 13.6131 19.402 15.7554 21.6052 17.3165C23.4614 18.6355 27.899 23.1878 30.1919 23.045C31.8726 20.5973 30.2133 16.3068 30.4161 13.7183C30.6111 13.5636 30.8041 13.5596 30.9913 13.6568C31.4066 15.9518 31.4202 18.4967 31.9233 20.6548C32.2801 22.1802 31.8765 24.8719 32.6525 26.1949C33.2413 27.1966 34.3877 27.8571 34.9493 28.9243C35.8539 30.3445 37.0277 33.4825 34.3409 32.937C34.6802 32.7446 35.2573 32.1297 35.2671 31.6299C35.2729 31.3323 33.4694 29.3666 33.2003 29.1405C32.9371 28.9203 31.3676 27.393 30.0983 26.0382C28.1954 26.1453 26.0155 25.0226 23.9976 24.8262C26.1852 23.3326 29.0006 25.8279 26.4484 22.4797C24.5727 20.0161 20.8468 19.3337 18.9263 16.767C16.7172 13.8155 13.4182 11.098 10.5482 8.80301C8.66086 7.28558 6.66237 5.77212 4.99534 4.01469C4.22129 3.19746 -0.0233006 0.797346 9.63557e-05 0.00392075C3.4258 -0.150797 7.54366 4.31222 9.72542 6.53381C11.6108 8.45192 13.6659 10.1399 15.6195 11.8498" transform="translate(19 82)" id="Fill-246" fill="#72906D" stroke="none"/>
    <path d="M1.47231 26.8384C6.14722 24.062 8.77699 29.9637 19.6582 29.9998C30.5375 30.0339 60.5731 24.383 68.2931 14.9728C76.0112 5.56258 80.1153 -2.48154 76.895 0.712033C73.6747 3.90761 70.2635 6.62576 61.2187 4.32687C52.172 2.02597 51.3237 4.79628 52.172 2.02597C53.0204 -0.742328 47.1979 1.51043 43.9796 2.36298C40.7613 3.21153 38.6492 2.16038 39.5941 0.910628C40.5369 -0.337113 36.6749 3.13931 30.8839 3.68896C25.091 4.24061 20.6838 3.94573 20.6838 3.94573C20.6838 3.94573 19.9436 5.35596 16.8828 8.0039C13.822 10.6518 10.4226 10.1844 10.4226 10.1844C10.4226 10.1844 8.96005 12.9728 6.82829 16.044C4.69849 19.1172 -3.24592 29.6428 1.47231 26.8384" transform="translate(199 30)" id="Fill-369" fill="#3C8040" stroke="none"/>
    <path d="M38.8977 13.8033C41.8709 10.3217 44.3036 7.03985 46 4.4791C45.4715 3.85103 44.9113 3.23847 44.2937 2.64916C44.2898 2.6511 44.2838 2.65304 44.2799 2.65304C41.6036 4.28138 38.0307 5.04127 31.7836 3.51567C22.686 1.29222 21.8329 3.96928 22.686 1.29222C23.5392 -1.3829 17.684 0.794025 14.4475 1.61788C14.0042 1.73032 13.5865 1.80204 13.1906 1.84857C12.0485 4.47522 11.0805 7.27829 9.1446 9.49592C7.75502 11.0855 0.718073 14.3422 0.239046 16.3737C-0.730885 20.4833 1.33368 18.8026 4.93035 21.0183C8.41616 23.1662 11.1834 23.6372 13.5212 25C24.1449 22.5013 34.7389 18.6728 38.8977 13.8033" transform="translate(228 31)" id="Fill-370" fill="#39753C" stroke="none"/>
    <path d="M10.3936 6.22571C10.3936 6.22571 8.93519 9.00826 6.80934 12.0731C4.68546 15.1399 -3.23691 25.6435 1.46822 22.845C6.13017 20.0744 8.75264 25.9638 19.6037 25.9999C21.5372 26.0059 24.0851 25.8277 27 25.4854C24.1008 23.7658 20.6892 22.8269 17.4582 22.6488C12.7158 22.3865 9.28852 20.2065 12.1151 15.256C13.6128 12.6296 18.0648 12.0471 19.9767 9.69289C21.8493 7.39078 21.6314 4.14781 23.0231 1.67354C23.349 1.091 23.7023 0.570523 24.0536 0.074068C21.9474 0.0820753 20.6264 0 20.6264 0C20.6264 0 19.8883 1.40729 16.836 4.04972C13.7836 6.69214 10.3936 6.22571 10.3936 6.22571" transform="translate(199 33)" id="Fill-371" fill="#3F7C3E" stroke="none"/>
    <path d="M4.43588 14.3472C5.08526 16.9909 4.32209 19.4491 3.7865 22C10.3549 19.766 15.9737 16.9851 18.7321 13.7365C23.5034 8.11666 26.8817 3.00703 28 0.664793C27.0897 1.23296 26.0852 1.70836 24.9238 2.04269C22.1713 4.04093 18.5653 5.17147 11.6811 3.4805C2.66431 1.26388 1.81874 3.93271 2.66431 1.26388C2.92327 0.446416 2.55444 0.0869642 1.83051 0C1.71279 0.185524 1.57546 0.365249 1.46756 0.550773C-2.64846 7.69729 3.05668 8.73893 4.43588 14.3472" transform="translate(248 31)" id="Fill-372" fill="#3A6C38" stroke="none"/>
    <path d="M12.1773 14.6654C18.5139 7.16916 22.4422 0.557536 21.9601 0C21.5378 0.317185 21.1016 0.614668 20.6394 0.890481C17.6175 3.76681 14.3048 6.14077 6.3745 4.51151C10.5299 6.13486 13.737 8.84768 12.3267 13.2626C10.8347 17.9318 4.55577 19.3226 0 22C5.35259 19.9294 9.80677 17.4688 12.1773 14.6654" transform="translate(255 30)" id="Fill-373" fill="#396232" stroke="none"/>
    <path d="M3.30815 13.5726C7.53456 11.2511 12.1649 9.68126 16.878 8.54791C21.6403 7.43804 26.448 7.1914 31.3975 6.74511L38.7331 6.12069C41.1744 5.84469 43.6019 5.30443 46.0313 4.90707C48.4844 4.58214 48.181 4.48035 50.5434 3.79721C52.9413 3.21976 57.8278 1.49918 60.0957 0.569396C61.3882 0.0291441 61.2523 -0.239025 59.9617 0.275781C57.6879 1.16641 55.4555 2.17254 53.0576 2.70496C50.6971 3.34308 48.3563 4.06146 45.919 4.33942C43.4994 4.68784 41.1054 5.17916 38.6701 5.41014L31.3305 5.90537C26.4893 6.26554 21.4827 6.44953 16.6612 7.532C11.8496 8.63795 7.11487 10.2156 2.77024 12.6135C0.650145 13.7566 -0.145877 14.751 0.0216029 14.9468C0.202875 15.1738 1.26095 14.6669 3.30815 13.5726" transform="translate(199 40)" id="Fill-374" fill="#355533" stroke="none"/>
    <path d="M1.13197 1.07587C4.10171 0.904982 7.10554 0.889288 10.0793 1.09331C13.031 1.33395 16.0408 1.74374 18.6256 2.9452C18.9945 3.10563 19.163 2.88068 18.792 2.69584C16.2012 1.33744 13.1633 0.735835 10.1655 0.346973C7.14564 -0.00352679 4.08567 -0.0942033 1.04775 0.1011C-0.436116 0.212702 -0.285724 1.17178 1.13197 1.07587" transform="translate(208 50)" id="Fill-375" fill="#355533" stroke="none"/>
    <path d="M1.25048 11.7414C3.92307 10.2138 6.48079 8.51096 8.98108 6.68919C11.4354 4.81502 13.9625 2.99325 15.8866 0.387549C16.1546 0.00263899 15.898 -0.154549 15.63 0.192071C13.6639 2.60632 11.0334 4.26083 8.5197 5.97177C5.96197 7.63434 3.35064 9.2304 0.743144 10.7459C0.415771 10.9353 0.279844 11.0804 0.151575 11.2698C0.0156479 11.4431 -0.0264704 11.6124 0.0156479 11.7454C0.0845686 12.0215 0.540211 12.1444 1.25048 11.7414" transform="translate(216 37)" id="Fill-376" fill="#355533" stroke="none"/>
    <path d="M0.868838 9.78056C3.04363 8.50574 4.98609 7.15479 6.89047 5.59494C8.73199 4.01362 10.663 2.44206 11.9047 0.259448C12.0989 -0.0353411 11.9675 -0.101717 11.7676 0.179406C10.4897 2.27807 8.50728 3.76373 6.63909 5.26306C4.74805 6.72725 2.65704 8.0782 0.69554 9.26322C-0.313777 9.78056 -0.197611 10.3096 0.868838 9.78056" transform="translate(233 37)" id="Fill-377" fill="#355533" stroke="none"/>
    <path d="M0.567676 7.79287C2.65876 5.38499 4.25082 2.79476 5.95087 0.19832C6.06818 0.011824 5.95459 -0.0834963 5.82797 0.0947113C4.05344 2.55646 2.13739 5.09903 0.277196 7.31005C-0.201351 7.75142 -0.0319046 8.30884 0.567676 7.79287" transform="translate(249 37)" id="Fill-378" fill="#355533" stroke="none"/>
    <path d="M0.41258 0.648651C1.88433 1.43475 3.37856 2.18342 4.94433 2.79275C6.50806 3.36673 8.0861 4.03013 9.82358 3.99894C10.0689 4.00934 10.0505 3.85129 9.81745 3.82841C8.14947 3.7785 6.6164 3.02359 5.1099 2.37891C3.60136 1.70095 2.14188 0.900286 0.6824 0.134981C-0.0187236 -0.245592 -0.294676 0.259759 0.41258 0.648651" transform="translate(239 46)" id="Fill-379" fill="#355533" stroke="none"/>
    <path d="M11.2772 46.7236C8.94928 48.364 8.89556 42.3155 4.62968 38.7789C0.363804 35.2442 -1.9303 27.3506 2.08886 18.684C6.10802 10.0194 7.96041 4.22269 7.72165 1.2958C7.4809 -1.62912 10.0058 0.581784 14.8009 6.0756C19.5981 11.5694 25.3542 20.1613 21.9976 29.1504C18.639 38.1376 12.5426 45.8325 11.2772 46.7236" transform="translate(81 0)" id="Fill-527" fill="#508E42" stroke="none"/>
    <path d="M20.3074 0C18.6729 0.462604 17.2315 1.39749 16.6841 3.07371C16.4352 3.83826 16.1664 4.57572 15.8519 5.31898C15.4159 6.34097 15.1232 7.40554 14.7091 8.43527C14.4523 9.07789 14.07 9.83083 13.2578 9.84825C12.545 9.86374 11.9557 9.33338 11.6312 8.76626C11.2589 8.11784 11.0658 7.38232 10.7115 6.72228C10.4387 6.2171 10.0346 5.46415 9.42536 5.2764C8.96148 5.13317 8.33436 5.31511 7.86054 5.34028C6.74963 5.39447 5.57303 5.34415 4.52982 5.78352C3.43484 6.24419 2.78383 7.22553 2.18258 8.17784C1.27873 9.61211 0.412704 11.1412 0.0165215 12.7923C-0.0551497 14.4937 0.108101 16.0983 0.47243 17.5712C1.29068 19.3558 2.77984 20.8598 4.5557 21.9069C7.98994 23.9316 12.0613 24.3322 15.9554 24.8529C16.2759 24.8955 16.6044 24.9458 16.9329 25C18.7327 22.1528 20.6021 18.7035 21.9997 15.0279C24.0304 9.67792 22.7184 4.47507 20.3074 0" transform="translate(81 14)" id="Fill-528" fill="#408641" stroke="none"/>
    <path d="M6.88326 24.9737C7.14954 23.5896 6.98238 22.1815 6.15244 21.0298C5.18643 19.6898 3.61401 18.7303 3.12032 17.0638C2.72575 15.7258 3.23888 14.2515 3.64122 12.9796C4.30207 10.8965 5.29334 8.94351 5.94058 6.86036C6.46925 5.14978 6.4401 3.29097 6.27489 1.5203C6.23018 1.03356 6.17382 0.434657 5.89782 0C4.98624 2.70809 3.71702 5.91694 2.03575 9.69465C-0.768959 16.0002 -0.417155 21.8931 1.52651 26.0634C2.35646 26.5862 3.25832 26.9547 4.26708 26.9968C5.64708 27.0529 6.61309 26.3738 6.88326 24.9737" transform="translate(81 9)" id="Fill-529" fill="#669141" stroke="none"/>
    <path d="M22 0.0793686C21.6043 -0.0835114 21.1082 0.0165715 20.677 0.26776C19.6553 0.856483 18.9997 1.96132 18.4662 2.97196C17.5646 4.67926 16.5763 7.07143 14.4501 7.52868C12.9953 7.84266 10.8081 7.16955 9.79812 6.08042C9.40045 5.65261 9.14452 5.13257 8.54801 4.95596C7.88456 4.75972 7.14828 4.90297 6.46711 4.82055C5.7387 4.7342 5.03982 4.46535 4.32322 4.31229C3.20304 4.07483 2.03955 3.89037 1.12412 3.14465C0.616197 2.72862 0.265772 2.19485 0 1.61594C0.425235 5.5957 2.1498 8.85723 4.47284 10.798C8.69369 14.3265 8.74685 20.3609 11.0502 18.7242C12.3023 17.8353 18.3343 10.1583 21.6574 1.19205C21.7933 0.819197 21.8937 0.450264 22 0.0793686" transform="translate(81 28)" id="Fill-530" fill="#3F7E3F" stroke="none"/>
    <path d="M0.905719 36.0271C1.50513 33.1327 1.89525 30.1691 1.97896 27.1739C2.03087 26.428 1.97059 25.6762 1.96892 24.9264C1.94715 24.1766 1.96724 23.4268 1.85841 22.6829L1.37453 18.2573C1.15519 16.7774 1.20375 15.3391 1.18533 13.8771L1.30421 11.6791L1.5068 9.47521C1.81321 6.56105 2.02584 3.45103 1.19705 0.584351C1.00785 -0.244593 0.837071 -0.163479 1.00785 0.649638C1.78139 3.49653 1.51685 6.52149 1.15687 9.42971L0.914091 11.6356L0.751681 13.8593C0.73996 15.3451 0.672987 16.8704 0.865535 18.3285L1.28077 22.7403C1.37788 23.4664 1.34942 24.2043 1.36114 24.9383C1.35276 25.6723 1.40634 26.4043 1.34942 27.1382C1.23891 30.0722 0.84042 32.9863 0.259428 35.8332C-0.025208 37.2003 -0.0670662 37.9303 0.091995 37.9956C0.246033 38.0589 0.609363 37.4377 0.905719 36.0271" transform="translate(91 9)" id="Fill-531" fill="#406B36" stroke="none"/>
    <path d="M9.91802 15.9087C10.0815 14.3094 10.0366 12.6435 9.44795 11.0736C8.93496 9.5036 7.60855 8.09612 6.13499 7.39336C5.4585 6.95487 4.69821 6.57315 4.17705 6.02503C3.8991 5.75881 3.58027 5.53956 3.33093 5.23614L2.56451 4.3435C1.61211 3.10241 0.825257 1.72821 0.26935 0.279617C0.124242 -0.127554 -0.0923983 -0.0786149 0.042491 0.352047C0.555479 1.84566 1.29328 3.27272 2.22116 4.58819C3.14494 5.89388 4.41413 7.06058 5.78959 7.89254C7.23454 8.66773 8.24825 9.85988 8.72037 11.3124C9.22313 12.7414 9.25584 14.3094 9.10868 15.8265C8.89817 17.2692 9.68094 17.4787 9.91802 15.9087" transform="translate(83 26)" id="Fill-532" fill="#406B36" stroke="none"/>
    <path d="M1.02073 12.7187C2.00238 12.0004 2.99969 11.2495 3.90492 10.3872C4.79252 9.51909 5.67423 8.57036 6.14448 7.34124L6.78519 5.63775C7.00464 5.07312 7.10849 4.44896 7.27504 3.85936C7.60029 2.66097 7.79231 1.47217 7.99216 0.273779C8.04311 -0.0699913 7.8315 -0.0987989 7.76488 0.23729C7.51408 1.4184 7.2574 2.60335 6.87924 3.74413C6.68527 4.31644 6.56379 4.90028 6.31299 5.45338L5.58998 7.12422C5.13149 8.18434 4.26741 9.06009 3.39353 9.86286C2.50201 10.6676 1.53409 11.3801 0.546564 12.1099C0.297724 12.3019 0.178203 12.4459 0.0586814 12.6572C-0.0725963 12.9049 0.0469252 12.953 0.121381 12.9971C0.34279 12.9702 0.519133 13.1085 1.02073 12.7187" transform="translate(93 21)" id="Fill-533" fill="#406B36" stroke="none"/>
    <path d="M4.75652 6.48441C3.82847 5.55698 2.92113 4.58587 2.09473 3.54525C1.7013 3.01501 1.28151 2.49272 0.953966 1.9168C0.792075 1.62686 0.61889 1.34287 0.464528 1.04896L0.123804 0.121534C0.0598008 -0.0552125 -0.0418517 -0.0333675 0.0183869 0.149337C0.120039 0.469069 0.225457 0.794759 0.328992 1.12045C0.470176 1.42628 0.633949 1.72218 0.786428 2.02603C1.09327 2.63173 1.49235 3.17786 1.8726 3.7359C2.667 4.82815 3.55364 5.83898 4.50427 6.77832C4.97112 7.22515 5.21208 6.92925 4.75652 6.48441" transform="translate(87 20)" id="Fill-534" fill="#406B36" stroke="none"/>
    <path d="M0.572387 9.52919C2.50436 6.50626 4.2212 3.31771 5.9464 0.190076C6.06754 -0.0326469 5.96311 -0.0745263 5.83361 0.144389C4.0019 3.23205 2.13258 6.30067 0.208968 9.34454C-0.244261 10.085 0.114981 10.2678 0.572387 9.52919" transform="translate(92 13)" id="Fill-535" fill="#406B36" stroke="none"/>
    <path d="M2.89548 4.59478C2.35461 3.88552 1.80989 3.16852 1.31713 2.42253C0.841705 1.67848 0.306606 0.917027 0.116049 0.0821392C0.0814027 -0.0338174 -0.0225373 -0.026087 0.00441015 0.0995327C0.154546 0.994331 0.633825 1.79443 1.07076 2.58294C1.52309 3.37144 2.03894 4.11743 2.59521 4.83443C2.86853 5.1765 3.16111 4.93492 2.89548 4.59478" transform="translate(90 12)" id="Fill-536" fill="#406B36" stroke="none"/>
    <path d="M14.1055 4.93518C13.3823 5.36053 12.7456 5.88651 12.1993 6.52074C11.7222 7.07711 11.3645 7.78159 10.8278 8.28479C9.99679 9.05574 8.89844 7.71703 8.41177 7.10749C7.86355 6.422 7.49038 5.16304 6.55168 4.91809C5.67261 4.68832 4.96089 4.50413 4.24532 3.89269C3.94332 3.63445 3.71441 3.32683 3.46243 3.02681C3.01231 2.48753 2.47756 2.03749 1.9178 1.61215C1.35035 1.1811 0.75981 0.778539 0.253911 0.277236C0.171198 0.195584 0.0865607 0.0987415 0 0C0.779046 1.66152 1.82739 3.05149 3.05078 4.06359C7.17492 7.47777 7.22685 13.3168 9.47743 11.7332C10.1968 11.2262 12.5378 8.4348 15 4.46046C14.6403 4.63515 14.321 4.80795 14.1055 4.93518" transform="translate(83 35)" id="Fill-537" fill="#40733A" stroke="none"/>
    <path d="M11.755 6.18733C6.90488 0.592482 4.35102 -1.65908 4.59453 1.31963C4.81188 4.01189 3.28842 9.11195 0 16.5717C0.553437 16.3033 1.10486 16.105 1.49327 15.5341C2.14935 14.5706 2.49349 13.4087 2.98856 12.3651C3.32264 11.658 3.73922 10.9929 4.04713 10.2718C4.48586 9.24816 4.82195 8.18248 5.23652 7.14885C5.74367 5.88485 6.8103 4.19418 8.30558 5.4722C9.26756 6.29349 9.75659 7.58353 10.3563 8.65923C10.8212 9.49455 11.4048 10.1015 12.0649 10.7766C12.7733 11.4977 13.2342 12.3651 13.7574 13.2164C14.325 14.1359 15.0132 14.819 15.9088 15.4199C16.8466 16.0489 17.7784 16.6599 18.5613 17.4812C18.7183 17.6454 18.8551 17.8277 19 18C17.4564 13.4027 14.4578 9.30626 11.755 6.18733" transform="translate(84 0)" id="Fill-538" fill="#6FA042" stroke="none"/>
  </g>
</svg>