<svg width="272px" height="476px" viewBox="0 0 272 476" version="1.1" xmlns:xlink="http://www.w3.org/1999/xlink" xmlns="http://www.w3.org/2000/svg">
  <desc>Created with Lunacy</desc>
  <g id="Group">
    <path d="M49.9657 16.6091C49.9657 16.6091 35.2335 31.8686 31.706 38.618C29.739 42.3779 29.6186 47.3647 29.3945 51.5025C29.0936 57.1018 29.187 62.7592 29.7722 68.3398C30.6955 77.1613 35.5468 85.1751 40.8234 92.1737C41.062 92.4893 41.3152 92.4955 41.4418 92.8713C41.5559 93.2118 41.3235 94.0817 41.3339 94.4408C41.5538 103.084 40.5142 112.949 35.026 120C35.026 120 17.3058 116.493 8.28176 95.319C-0.744337 74.1426 -1.05558 57.326 1.12313 45.1827C3.30184 33.0374 17.0983 12.4859 24.9831 7.50319C32.868 2.5205 39.9872 0.340567 49.9657 4.70042C49.9657 4.70042 57.143 0.651985 64.9241 0.0291482C72.7052 -0.593689 88.2675 8.74886 96.0465 29.6118C103.828 50.4769 105.384 73.8312 99.159 87.2222C92.9361 100.611 90.0125 112.802 71.9603 116.454C71.9603 116.454 66.6692 113.875 66.5654 93.0104C66.5654 93.0104 77.5897 79.5675 78.0566 60.4672C78.5172 41.5807 67.8104 26.7821 49.9657 16.6091" transform="translate(144 166)" id="Fill-3" fill="#593752" stroke="none"/>
    <path d="M42.972 2.48806C42.972 2.48806 16.1145 8.29354 0 62.2015C0 62.2015 13.6353 80.0347 31.8158 81.6934L37.02 72.1558C37.02 72.1558 55.7809 155.091 49.1699 173.337C49.1699 173.337 61.7722 184.533 90.0759 187.851C105.25 189.628 111.087 194.042 138.855 180.772C166.622 167.502 153.707 172.922 153.707 172.922C153.707 172.922 149.576 87.4989 159.079 71.7411L161.971 79.62C161.971 79.62 191.996 63.1698 193 51.0384C193 51.0384 189.242 4.56144 141.725 0C141.725 0 136.767 17.4164 117.347 23.2219C97.9266 29.0274 77.0603 24.6733 67.3503 21.1485C57.6403 17.6238 47.1039 6.63483 42.972 2.48806" transform="translate(107 299)" id="Fill-4" fill="#593752" stroke="none"/>
    <path d="M8.65395 21.323C15.5544 23.3102 22.4549 20.6807 28 16.5878C26.9025 12.5863 26.5663 7.41044 26.1991 0C26.1991 0 21.7494 6.01982 15.2656 6.65173C8.87055 7.27533 1.07272 0 1.07272 0C1.07272 0 1.36359 6.95937 0 14.2763C1.65446 17.5918 5.15317 20.2857 8.65395 21.323" transform="translate(184 258)" id="Fill-5" fill="#FA9D8A" stroke="none"/>
    <path d="M75.4927 16.0749C67.4256 11.7102 63.9648 8.35969 62.2851 2.297C56.7179 6.36427 49.79 8.97732 42.862 7.00256C39.3473 5.9718 35.8347 3.29471 34.1736 0C33.2976 4.64978 31.7421 9.44416 28.9958 12.6666C21.954 20.9292 0 28.3655 0 28.3655C0 28.3655 13.2552 42.8251 24.4393 46.9564C35.6234 51.0877 57.5774 54.8059 74.5607 49.022C91.5439 43.2382 97.3431 32.0837 99 25.8867C99 25.8867 88.7479 23.2489 75.4927 16.0749" transform="translate(150 272)" id="Fill-6" fill="#EBAD99" stroke="none"/>
    <path d="M12.1932 75.8227C16.153 80.145 22.287 84.1742 28.4252 82.6839C31.0293 82.0523 33.3109 80.434 35.1482 78.4854C39.1597 74.2394 42.1772 68.5816 44.5146 63.2623C47.2365 57.0739 49.08 50.3551 48.9973 43.5537C48.7907 26.6276 40.9371 11.5593 20.6833 0C20.6833 0 5.38953 16.1004 2.49612 21.8801C1.38836 24.0949 1.08248 26.7948 0.76834 29.214C0.286794 32.8985 0.0759885 36.6202 0.020187 40.3316C-0.0934826 47.779 0.181391 54.952 3.26494 61.8772C5.44326 66.7713 8.56814 71.8657 12.1932 75.8227" transform="translate(173 183)" id="Fill-7" fill="#FCC7AC" stroke="none"/>
    <path d="M0 0L8.44214 61.8692L43 78L43 15.0592L0 0" transform="translate(164 355)" id="Fill-8" fill="#7C70B8" stroke="none"/>
    <path d="M0 21.7213L0 84L35.236 66.9908L37 0L0 21.7213" transform="translate(207 349)" id="Fill-9" fill="#B4B2F1" stroke="none"/>
    <path d="M0 6.90804L43 22L43 11.1332L16.0929 0L0 6.90804" transform="translate(164 348)" id="Fill-10" fill="#CDC4EF" stroke="none"/>
    <path d="M0 16.2523L0 27L37 5.24108L27.292 0L0 16.2523" transform="translate(207 343)" id="Fill-11" fill="#F2E0EC" stroke="none"/>
    <path d="M16.8447 0C16.8447 0 0.742367 56.3853 0.432226 67.9062C0.122086 79.4291 -1.42862 92.8205 4.15371 93.7548C9.73603 94.6891 32.0643 93.132 46.6409 85.9691C61.2175 78.8062 67.4182 73.8233 73.9312 71.0205C80.4441 68.2176 84.476 62.9254 86.3368 60.1225C88.1976 57.3196 93.7802 46.731 98.1221 43.6167C102.464 40.5024 116.108 31.3755 101.224 32.2018C86.3368 33.0281 72.6906 53.8939 69.8994 54.5168C67.9848 54.9445 50.7244 55.0773 35.2753 59.946C34.38 60.2284 20.9199 65.9878 16.8447 70.0862L34.38 60.2284C34.38 60.2284 48.6857 22.2859 48.6857 19.5183C48.6857 19.5183 32.1449 18.6878 16.8447 0" transform="translate(90 361)" id="Fill-12" fill="#EBAD99" stroke="none"/>
    <path d="M83.5095 0C83.5095 0 100.395 37.6004 102.885 60.295C105.373 82.9874 106.929 92.314 100.084 94.4902C93.2366 96.6663 50.9939 91.3813 43.1716 87.9616C35.3493 84.5419 19.1672 77.7024 15.4324 69.3106C11.6976 60.9167 -7.59891 45.8989 3.29427 43.3041C14.1874 40.7093 27.1202 55.3208 32.0128 60.6058C36.9054 65.8909 41.0179 69.3106 52.5003 68.9997C58.2415 68.8443 64.6903 67.6774 71.1058 67.3665C77.5193 67.0557 83.8996 67.6007 89.5018 70.865C89.5018 70.865 79.3203 66.4981 72.7492 67.6712C72.7492 67.6712 53.8677 35.2025 52.3468 28.5703C52.3468 28.5703 78.9054 15.3038 83.5095 0" transform="translate(217 350)" id="Fill-13" fill="#EBAD99" stroke="none"/>
    <path d="M103.22 8.91247C103.22 8.91247 6.83952 40.7545 0.628965 85.3499C0.628965 85.3499 -2.79113 103.489 6.31919 108.445C15.4295 113.401 29.8156 116.705 51.6099 118.357C73.4043 120.009 154.277 120.835 154.277 120.835L185.627 77.4699C185.627 77.4699 139.247 67.971 116.885 73.753C94.5237 79.5349 65.5363 86.1429 56.0119 77.8829C56.0119 77.8829 65.1222 84.9039 105.705 73.753C146.287 62.602 186.662 75.6114 186.662 75.6114C186.662 75.6114 230.764 25.8453 255.611 26.0518L255.3 26.4297C255.3 26.4297 237.001 33.7129 221.443 46.1606C197.011 65.7098 154.43 120.422 148.082 129.231C141.732 138.042 127.652 160.482 113.158 172.459C113.158 172.459 117.714 190.631 130.551 196C130.551 196 183.971 150.157 204.676 132.398C225.381 114.64 280.043 73.34 295.365 54.7551C310.687 36.1702 321.04 20.8894 308.202 6.02149C295.365 -8.84639 207.989 8.49947 207.989 8.49947C207.989 8.49947 178.571 29.0605 144.73 22.1284C110.467 15.1074 115.643 17.1724 103.22 8.91247" transform="translate(53 463)" id="Fill-14" fill="#FD993B" stroke="none"/>
    <path d="M19.6852 0C19.6852 0 2.78273 12.3703 2.78273 21.0296C2.78273 29.6888 5.25627 53.6048 2.78273 63.9135C0.309192 74.2221 -3.40111 105.148 6.49304 96.4887C16.3872 87.8295 27.1059 69.2739 28.3426 60.2024C29.5794 51.1308 32.83 27.0911 37 23.5037C37 23.5037 24.2201 15.6691 19.6852 0" transform="translate(146 636)" id="Fill-15" fill="#CC6E44" stroke="none"/>
    <path d="M0 30L38.4068 27.2952C38.4068 27.2952 45.2841 15.347 36.6391 0L0 30" transform="translate(279 548)" id="Fill-16" fill="#DD8354" stroke="none"/>
    <path d="M0 6.19868C0 6.19868 8.3509 -3.5342 24.0256 1.39176C39.7003 6.31772 57.0249 15.3486 69.3997 16.5801C81.7745 17.8116 96.2117 22.7376 90.8493 28.074C85.4869 33.4105 54.9625 30.537 37.6378 30.9475C20.3132 31.358 1.75103 33 1.75103 33C1.75103 33 7.73835 25.7835 0 6.19868" transform="translate(316 542)" id="Fill-17" fill="#CC6E44" stroke="none"/>
    <path d="M150.591 146C150.591 146 150.591 104.605 90.0205 76.456C90.0205 76.456 -7.05782 85.5629 0.409743 54.1025C7.87731 22.6421 16.5946 9.39566 75.2953 3.60032C133.996 -2.19502 172.993 -7.16245 162.207 40.8561C151.42 88.8745 150.591 146 150.591 146" id="Fill-19" fill="#C1B5DC" stroke="none"/>
    <path d="M12.442 125C12.442 125 -24.3765 43.8058 28.6594 19.1827C81.6953 -5.44071 190.253 -9.56858 191.082 25.9311C191.911 61.4308 205.998 81.2446 86.6675 91.977C86.6675 91.977 41.2824 78.4549 12.442 125" transform="translate(217 20)" id="Fill-20" fill="#B3A4E0" stroke="none"/>
    <path d="M4.29996 15.4513C2.5138 15.6569 0.783646 14.413 0.418487 12.7198C-0.253738 9.60284 -0.692137 4.00049 3.85119 1.26937C10.3429 -2.63282 19.6582 3.20846 19.9865 8.68882C20.3147 14.169 14.5736 18.3661 13.7974 19.9498C13.0215 21.5336 10.4722 27.7719 14.8786 32.9659L13.104 34C13.104 34 9.20887 27.3981 9.75204 21.5081C10.2967 15.6057 17.505 10.2746 13.6296 6.82958C8.97546 2.69224 6.3073 4.73015 5.47283 6.92039C4.77737 8.74591 8.14389 15.009 4.29996 15.4513" transform="translate(48 22)" id="Fill-25" fill="#593752" stroke="none"/>
    <path d="M4.83089 3.40196C4.3327 4.68932 2.88534 5.32896 1.598 4.83097C0.310857 4.33277 -0.328981 2.8854 0.169007 1.59804C0.667197 0.310684 2.11455 -0.32896 3.40189 0.169034C4.68924 0.667229 5.32908 2.1146 4.83089 3.40196" transform="translate(63 59)" id="Fill-26" fill="#593752" stroke="none"/>
    <path d="M4.29992 15.4514C2.51375 15.6568 0.783803 14.4128 0.418435 12.7198C-0.253792 9.6029 -0.691984 4.00031 3.85136 1.26938C10.3429 -2.63284 19.6584 3.20848 19.9865 8.68866C20.3147 14.169 14.5736 18.366 13.7976 19.9499C13.0214 21.5335 10.4722 27.7718 14.8788 32.9661L13.104 34C13.104 34 9.20884 27.3983 9.75222 21.508C10.2966 15.6058 17.505 10.2746 13.6296 6.82942C8.97543 2.69226 6.30747 4.73018 5.473 6.92044C4.77754 8.74576 8.14406 15.0089 4.29992 15.4514" transform="translate(82 11)" id="Fill-27" fill="#593752" stroke="none"/>
    <path d="M4.83088 3.40186C4.33288 4.68923 2.8855 5.32908 1.59814 4.83088C0.310768 4.33288 -0.329082 2.8855 0.169118 1.59814C0.667115 0.310768 2.1145 -0.329082 3.40186 0.169118C4.68923 0.667115 5.32908 2.1145 4.83088 3.40186" transform="translate(97 48)" id="Fill-28" fill="#593752" stroke="none"/>
    <path d="M4.29998 15.4514C2.5137 15.6568 0.783432 14.4128 0.418291 12.7198C-0.253899 9.6029 -0.691652 4.00031 3.85186 1.26938C10.3435 -2.63284 19.6587 3.20848 19.9865 8.68866C20.3143 14.169 14.5737 18.366 13.7978 19.9499C13.0219 21.5335 10.4721 27.7718 14.8787 32.9661L13.1048 34C13.1048 34 9.20863 27.3983 9.75219 21.508C10.2978 15.6058 17.5052 10.2746 13.6297 6.82942C8.97627 2.69205 6.30825 4.72997 5.47424 6.92044C4.77715 8.74576 8.14433 15.0089 4.29998 15.4514" transform="translate(119 18)" id="Fill-29" fill="#593752" stroke="none"/>
    <path d="M4.83073 3.40186C4.33432 4.68923 2.88543 5.32908 1.59798 4.83088C0.310522 4.33288 -0.329168 2.8855 0.169266 1.59814C0.6677 0.310768 2.11457 -0.329082 3.40202 0.169118C4.68948 0.667115 5.32917 2.1145 4.83073 3.40186" transform="translate(134 55)" id="Fill-30" fill="#593752" stroke="none"/>
    <path d="M15 7.4999C15 11.6421 11.6423 15 7.49897 15C3.35768 15 0 11.6421 0 7.4999C0 3.35771 3.35768 0 7.49897 0C11.6423 0 15 3.35771 15 7.4999" transform="translate(313 63)" id="Fill-31" fill="#593752" stroke="none"/>
    <path d="M15 7.4999C15 11.6421 11.6423 15 7.50103 15C3.35768 15 0 11.6421 0 7.4999C0 3.35792 3.35768 0 7.50103 0C11.6423 0 15 3.35792 15 7.4999" transform="translate(347 58)" id="Fill-32" fill="#593752" stroke="none"/>
    <path d="M15 7.5C15 11.6421 11.6423 15 7.50103 15C3.35768 15 0 11.6421 0 7.5C0 3.35787 3.35768 0 7.50103 0C11.6423 0 15 3.35787 15 7.5" transform="translate(277 66)" id="Fill-33" fill="#593752" stroke="none"/>
  </g>
</svg>