<svg width="473px" height="513px" viewBox="0 0 473 513" version="1.1" xmlns:xlink="http://www.w3.org/1999/xlink" xmlns="http://www.w3.org/2000/svg">
  <desc>Created with Lunacy</desc>
  <defs>
    <path d="M6.5 13C10.0899 13 13 10.0899 13 6.5C13 2.91015 10.0899 0 6.5 0C2.91015 0 0 2.91015 0 6.5C0 10.0899 2.91015 13 6.5 13Z" transform="translate(93.3313 78.71899)" id="path_1"/>
  </defs>
  <g id="Group-Copy-2" transform="matrix(0.9335804 0.3583679 -0.3583679 0.9335804 66.89648 362.6653)" opacity="0.0789853">
    <path d="M51.5 0L77.2505 42.5009C91.4716 65.9725 80.7525 85 53.3088 85L49.6912 85C22.2475 85 11.5284 65.9725 25.7495 42.5009C38.6247 21.2506 51.5 0 51.5 0Z" transform="matrix(-1 6.46247E-09 -6.46247E-09 -1 151.0002 85)" id="Triangle" fill="none" stroke="#FFFFFF" stroke-width="4"/>
    <path d="M51.1945 0L76.8915 42.6802C91.083 66.2508 80.2837 85.3326 52.7705 85.3006L49.7146 85.297C22.258 85.265 11.4601 66.1581 25.5967 42.6204C38.3955 21.3103 51.1945 -6.15994e-14 51.1945 0Z" transform="matrix(0.5000001 -0.8660254 0.8660254 0.5000001 74.44432 129.5703)" id="Triangle-Copy" fill="none" stroke="#FFFFFF" stroke-width="4"/>
    <path d="M51.1945 2.36918e-15L76.8915 42.6802C91.083 66.2508 80.2837 85.3326 52.7705 85.3006L49.7146 85.297C22.258 85.265 11.4601 66.1581 25.5967 42.6204C38.3955 21.3104 51.1945 2.48767e-14 51.1945 2.36918e-15Z" transform="matrix(-0.5000001 -0.8660254 -0.8660254 0.5000001 125.2166 129.5698)" id="Triangle-Copy-2" fill="none" stroke="#FFFFFF" stroke-width="4"/>
    <g id="Oval">
      <use xlink:href="#path_1" fill="none" stroke="#FFFFFF" stroke-width="8"/>
      <use stroke="none" fill="#FFFFFF" xlink:href="#path_1"/>
    </g>
  </g>
  <g id="Group-2" transform="matrix(-1 0 0 1 472.0571 214.5)">
    <path d="M32.8781 122.971C45.4534 163.092 59.64 202.712 75.3844 241.7C82.467 259.239 89.6984 276.794 97.6137 294C98.0755 293.985 98.5381 293.972 99 293.957C92.3665 278.722 85.6432 263.529 79.33 248.151C71.3208 228.643 63.7087 208.972 56.4944 189.157C42.1299 149.693 29.3674 109.645 18.2254 69.1557C11.9434 46.3221 6.36816 23.3235 0.817796 0.304295C0.69183 -0.219724 -0.100978 -0.0121074 0.010755 0.511201C8.80352 41.8192 20.2508 82.6814 32.8781 122.971" transform="translate(91 53)" id="Fill-53" fill="#436B5D" stroke="none"/>
    <path d="M3.85631 323.54C3.10414 302.391 1.94358 281.269 1.51869 260.106C1.09523 239.008 1.10384 217.901 1.54094 196.803C2.41082 154.787 5.00108 112.803 9.278 70.9925C11.6896 47.4151 14.8274 23.9381 17.9955 0.451066C18.068 -0.0833285 17.2462 -0.175833 17.1608 0.352157C10.3776 42.079 6.25351 84.3474 3.44793 126.508C0.653828 168.492 -0.440701 210.589 0.159316 252.661C0.496646 276.313 1.0213 300.077 3.03021 323.654C3.07615 324.193 3.87497 324.061 3.85631 323.54" transform="translate(133 23)" id="Fill-54" fill="#436B5D" stroke="none"/>
    <path d="M42.534 18.0384C41.5068 16.4059 39.2707 16.1573 37.5275 16.308C33.3452 16.6702 29.0574 18.6278 25.2242 20.2195C21.6802 21.6913 18.1796 23.3487 14.845 25.2691C18.575 20.1559 21.1245 13.641 22.3149 7.48836C22.7494 5.24147 22.8114 2.02295 20.6579 0.539081C18.5778 -0.894069 16.0667 0.81628 14.5907 2.33945C10.3692 6.69391 8.9922 13.7239 9.31206 19.5751C9.53503 23.6524 9.65969 27.0002 7.05385 30.4888C5.58851 32.4513 -1.4739 37.7202 0.277102 40.8316C1.27798 42.6105 3.975 41.984 5.51158 41.3831C8.6923 40.14 10.917 37.4595 13.5442 35.4012C16.9508 32.7342 21.0341 32.2563 25.1202 31.3518C30.8355 30.0873 36.8465 28.1576 40.9333 23.7238C42.274 22.2699 43.7821 20.0209 42.534 18.0384" transform="translate(183 115)" id="Fill-55" fill="#6965D0" stroke="none"/>
    <path d="M12.5939 105.209C15.3359 109.79 15.778 115.233 18.1121 119.949C17.4079 125.12 16.7464 130.298 16.1568 135.485C11.0545 180.392 9.90316 225.644 10.1823 270.806C10.2407 280.204 10.3581 289.602 10.5041 299C10.9185 298.988 11.3329 298.974 11.7473 298.962C11.261 269.774 11.0388 240.59 11.9844 211.392C12.7235 188.544 14.1155 165.712 16.4851 142.973C18.8376 120.397 22.4454 98.0102 26.1209 75.62C26.5908 72.7599 27.065 69.8956 27.5385 67.0285C30.8117 62.9742 34.0798 59.1533 38.4047 55.9995C43.455 52.3158 48.949 50.049 54.7655 47.8952C55.3166 47.6911 55.0432 46.9357 54.4914 47.0467C48.3758 48.2757 42.4169 51.5725 37.4976 55.3181C34.0685 57.9285 30.6216 61.0367 27.9387 64.5846C29.2808 56.4341 30.603 48.2565 31.7658 40.0577C34.9919 35.4799 38.253 31.1796 42.7622 27.6993C47.6538 23.9238 53.0687 21.9138 58.8212 19.8731C59.1017 19.7736 59.0398 19.3048 58.7222 19.3432C52.7854 20.0453 46.9019 23.2752 42.2346 26.882C38.2188 29.9853 34.3696 33.918 31.9879 38.4971C33.7537 25.8073 35.1173 13.0705 35.5609 0.317351C35.5737 -0.0688708 34.9143 -0.122928 34.8787 0.268273C33.2518 18.1732 31.0744 35.9451 28.4328 53.6949C27.3883 45.6782 23.1062 39.1174 17.5047 33.6939C17.2847 33.9613 17.0255 34.2046 16.74 34.4187C17.3167 34.9657 17.8828 35.5261 18.4318 36.1073C20.7067 38.5185 22.6562 41.2192 24.1578 44.1752C25.7378 47.2864 26.5929 50.5881 27.703 53.8728C27.8098 54.1893 28.2341 55.0151 28.1537 55.5507C27.5883 59.3012 26.9995 63.0511 26.3943 66.8009C25.9827 67.4581 25.599 68.1281 25.2501 68.8117C25.0813 69.1438 25.5619 69.4881 25.804 69.1858C25.893 69.0755 25.9806 68.966 26.0689 68.855C23.4052 85.1752 20.6696 101.483 18.3976 117.86C17.9462 115.86 17.2448 113.884 16.646 111.955C15.8151 109.277 14.8752 106.601 13.3878 104.207C10.5205 99.5906 5.5228 95.6957 0.681058 93.3065C0.218956 93.0782 -0.257386 93.7347 0.161283 94.074C4.59219 97.6609 9.55712 100.135 12.5939 105.209" transform="translate(150 49)" id="Fill-56" fill="#436B5D" stroke="none"/>
    <path d="M13.6728 23.699C13.2974 20.0684 12.9536 19.5912 13.0802 17.8875C13.0935 17.7741 13.1301 17.6062 13.2159 17.3959C13.412 16.8347 13.812 15.9692 14.2957 14.9674C15.2581 12.9968 16.5369 10.5109 17.1485 8.99808C17.964 6.95567 18.428 4.53004 17.4444 2.4661C16.6957 0.904511 15.1259 -0.363562 13.3593 0.0950115C11.0161 0.693525 10.1184 3.61504 9.58342 5.80026C7.70358 2.09077 4.2961 -0.954899 1.25911 2.83856C-2.37544 7.35468 2.62857 14.0266 6.52815 18.2241C6.75592 18.4695 6.97737 18.7085 7.19741 18.9345C7.28177 19.2876 7.34996 19.5883 7.41042 19.8567C7.91659 22.2142 7.44628 21.9221 7.99743 25.0991C8.36511 27.1659 8.75598 30.02 10.6232 30.7936C10.8622 30.8998 11.1258 30.9637 11.4126 30.9873C11.5364 30.9995 11.6671 31.006 11.7895 30.9924C15.0648 30.9299 13.8605 25.4515 13.6728 23.699" transform="translate(173 31)" id="Fill-57" fill="#6965D0" stroke="none"/>
    <path d="M27.2436 13.9864C28.1612 12.5113 28.3937 10.4843 27.0897 9.17753C25.4141 7.49229 22.6213 8.15861 20.5291 8.81055C20.4715 8.83429 20.4075 8.85084 20.3506 8.87387C20.3977 8.79184 20.4448 8.70909 20.4925 8.62706C22.504 5.08172 23.1209 0.713193 18.4839 0.0562227C12.8928 -0.73099 9.93283 6.91591 8.44828 12.5041C8.33376 12.9028 8.23821 13.2935 8.14266 13.6713C7.92205 13.9094 7.72533 14.1073 7.54056 14.2908L7.53423 14.2973C5.77428 16.0343 5.79325 15.4342 3.41433 17.5987C1.79559 19.0875 -0.548904 21.057 0.115733 23.238C0.15578 23.3754 0.209175 23.5251 0.282243 23.6668C0.363039 23.8424 0.462805 23.9957 0.55414 24.1303C2.37522 26.6905 6.20917 22.8868 7.5525 21.8262C10.3881 19.589 10.5982 19.0393 12.0869 18.2621C12.1059 18.2542 12.1305 18.2391 12.1502 18.2319C12.2071 18.2082 12.2773 18.1844 12.3799 18.1657C13.8441 17.7692 19.1598 17.5627 21.6356 17.1468C23.7708 16.7985 26.0324 15.9235 27.2436 13.9864" transform="translate(192 53)" id="Fill-58" fill="#6965D0" stroke="none"/>
    <path d="M16.7181 0.536897C15.1567 1.63236 15.0091 3.87304 15.2326 5.60403C15.7697 9.7584 17.8788 13.9469 19.6089 17.6996C21.209 21.1687 22.989 24.5866 25.0208 27.8275C19.8332 24.3314 13.319 22.0729 7.21889 21.1538C4.99102 20.8189 1.82462 20.8964 0.458651 23.1087C-0.860215 25.2442 0.929675 27.6732 2.49038 29.0793C6.95315 33.0979 13.9236 34.165 19.6624 33.5913C23.6604 33.1918 26.947 32.9216 30.4889 35.3678C32.4812 36.7433 37.9655 43.5549 40.9491 41.674C42.6546 40.5984 41.9228 37.9369 41.2655 36.4312C39.9065 33.314 37.1746 31.2134 35.0381 28.6834C32.2696 25.4034 31.6228 21.3528 30.5578 17.3186C29.0681 11.6756 26.9112 5.76753 22.376 1.88543C20.8891 0.612961 18.6127 -0.793154 16.7181 0.536897" transform="translate(133 52)" id="Fill-59" fill="#6965D0" stroke="none"/>
    <path d="M39.9999 16.9969C40.0197 15.0505 37.8066 13.6893 36.1941 13.0839C33.7022 12.1485 30.919 12.3009 28.3272 12.6525C25.278 13.065 22.2465 13.6509 19.215 14.1969C21.7927 12.3547 24.7426 11.1438 27.5166 9.58826C29.7355 8.34381 32.4308 6.60788 33.5108 4.20497C34.2518 2.55573 33.8377 0.792529 31.9713 0.192677C29.683 -0.543504 27.0068 0.975701 25.2631 2.28866C22.8975 4.07004 21.0658 6.41632 18.9364 8.44518C15.9985 11.2452 12.8011 12.468 8.84923 13.2153C6.28082 13.7012 2.90118 13.9326 0.928431 15.8455C-0.249406 16.9878 -0.175659 18.3966 0.425669 19.741C2.965 23.0311 12.7309 18.3609 18.5144 18.7615C24.3646 19.167 30.3191 22.3005 36.2075 20.3849C37.7768 19.8745 39.98 18.8999 39.9999 16.9969" transform="translate(191 82)" id="Fill-60" fill="#6965D0" stroke="none"/>
    <path d="M10.1173 1.08275C8.88043 2.54481 9.31898 4.73648 9.98676 6.3415C11.5891 10.1941 14.7335 13.6681 17.3947 16.8215C19.855 19.7364 22.4786 22.5558 25.3008 25.1381C19.3363 23.1368 12.4002 22.6733 6.21643 23.388C3.95765 23.6492 0.891999 24.5543 0.135522 27.0382C-0.595408 29.4365 1.78047 31.3027 3.6667 32.2446C9.06139 34.938 16.1315 34.1369 21.5759 32.0825C25.3689 30.6509 28.5013 29.5307 32.5895 30.9531C34.8881 31.7535 42.0036 36.8636 44.4228 34.2742C45.8059 32.7938 44.4001 30.4273 43.369 29.1513C41.2337 26.5124 38.0261 25.2082 35.2862 23.3364C31.7358 20.9097 30.0526 17.1852 27.9669 13.5874C25.0489 8.55299 21.4113 3.43931 15.9825 0.896628C14.2027 0.0622762 11.6189 -0.692108 10.1173 1.08275" transform="translate(127 95)" id="Fill-61" fill="#6965D0" stroke="none"/>
    <path d="M8.39691 9.44742C7.81445 9.92817 7.2355 10.3606 6.6993 10.7433C5.95073 11.2607 5.28697 11.6777 4.82787 11.928C4.79002 11.9434 4.75778 11.9521 4.72694 11.9741C4.68278 11.9975 4.63792 12.0063 4.59867 11.9953C4.41153 12.0129 4.27976 11.838 4.32251 11.6733C4.33163 11.6053 4.36036 11.5431 4.42905 11.4919C5.14188 10.9028 5.87573 10.346 6.59557 9.77597C7.58946 9.0018 8.56372 8.20787 9.42514 7.25882C10.9412 5.60145 14.3245 0.516648 9.006 1.04496C5.52247 1.3918 2.99779 6.07488 0.224992 7.95396C0.143687 8.00591 0.0602783 8.01762 0 7.98762C0.184339 7.80103 0.380594 7.5998 0.60068 7.3576C0.696004 6.97344 0.791328 6.57611 0.905576 6.17073C2.60178 4.1314 4.88815 1.99035 6.96144 0.827634C8.4698 -0.018247 10.677 -0.50558 12.0753 0.824707C12.526 1.25716 12.7972 1.72839 12.9213 2.22817C12.9444 2.28744 12.9535 2.34744 12.9577 2.41476C13.358 4.68239 10.8459 7.44541 8.39691 9.44742" transform="translate(200 59)" id="Fill-62" fill="#1F2844" stroke="none"/>
    <path d="M3.40105 1.91449C1.99903 3.58961 1.87008 6.1673 1.57514 8.24634C1.35857 9.81865 1.20326 11.4358 0.894076 13C0.832809 12.7253 0.763705 12.4176 0.678215 12.0563C0.455231 11.825 0.230821 11.5804 0 11.3293C0.229396 8.8948 0.683202 6.37219 1.33363 4.18446C1.83517 2.51374 2.86176 0.351719 4.73967 0.039606C7.97473 -0.486947 8.24473 4.34676 7.87143 7.99665C7.38129 9.02185 6.97593 9.90751 6.77717 10.4818C6.7216 9.10777 7.04005 7.70583 7.10986 6.3318C7.15617 5.2574 7.21601 3.93845 6.83843 2.92279C6.28988 1.44154 4.53806 0.559549 3.40105 1.91449" transform="translate(180 38)" id="Fill-63" fill="#1F2844" stroke="none"/>
    <path d="M14.8659 2.38515C14.1472 -0.520809 11.2709 -0.691364 9.63754 1.43803C8.10352 3.43896 7.14966 5.95519 5.91447 8.15353C4.32517 10.984 2.35867 12.8173 0.0408494 14.9627C-0.0704226 15.0657 0.0681425 15.2268 0.187812 15.1956C0.399859 15.1412 0.592311 15.0599 0.791761 14.9888C0.802958 15.0113 0.806457 15.0345 0.823253 15.0563C6.2196 22.1187 16.2761 8.08966 14.8659 2.38515" transform="translate(202 80)" id="Fill-64" fill="#6965D0" stroke="none"/>
    <path d="M5.36164 6.90924C6.65608 4.99692 8.33198 2.50633 7.94273 0.111657C7.92575 0.00408559 7.76509 -0.0520984 7.7113 0.065751C6.78701 2.07399 6.17553 4.02124 4.91647 5.88696C3.47978 8.0151 1.80033 9.73214 0.0571903 11.6061C-0.0963874 11.7712 0.0833763 12.072 0.311974 11.9843C2.60573 11.1004 4.05587 8.83868 5.36164 6.90924" transform="translate(209 84)" id="Fill-65" fill="#1F2844" stroke="none"/>
    <path d="M9.31918 11.946C9.76377 8.88769 11.7367 -1.33378 5.91976 0.145422C0.480684 1.52903 -0.0418715 10.2885 0.00237721 14.8735C0.0557566 20.5251 1.48014 27.5819 5.24339 31.9383C5.36911 32.0828 5.60229 31.9505 5.60651 31.7787C5.64724 31.7536 5.68657 31.7234 5.71959 31.6774C7.57663 29.0546 7.21983 25.8066 7.56539 22.7346C7.97276 19.1106 8.79592 15.5527 9.31918 11.946Z" transform="translate(163 53)" id="Fill-66" fill="#6965D0" stroke="none"/>
    <path d="M2.99303 17.5205C2.38106 14.6019 1.38723 11.8685 1.30802 8.86512C1.22965 5.89607 2.12176 3.10868 2.34271 0.187325C2.35938 -0.0343192 1.98419 -0.0567642 1.87581 0.106663C0.207476 2.63944 -0.0368119 6.08545 0.00404173 8.92684C0.0457291 11.8131 0.443427 15.1785 1.99337 17.794C2.23015 18.1938 3.08558 17.9624 2.99303 17.5205" transform="translate(161 67)" id="Fill-67" fill="#1F2844" stroke="none"/>
    <path d="M0.793733 83.7502C4.45254 76.2121 7.48609 68.4018 11.3141 60.9276C15.1078 53.5196 19.2698 46.2963 23.7616 39.2855C32.7009 25.3358 43.2469 12.8535 53.9657 0.263259C54.0842 0.124678 53.8686 -0.0878132 53.733 0.0386864C41.6117 11.3171 31.4418 25.043 22.5296 38.9188C18.127 45.7733 14.0635 52.8402 10.344 60.0848C6.50679 67.5582 2.5018 75.4033 0.0228566 83.4474C-0.134174 83.9555 0.561043 84.2313 0.793733 83.7502" transform="translate(208 86)" id="Fill-68" fill="#436B5D" stroke="none"/>
    <path d="M5.20552 26.6849C5.22533 26.6651 5.24726 26.6495 5.26283 26.6219C5.92646 25.4445 6.29294 24.2331 6.63042 22.929C7.2233 20.6364 8.0164 18.6644 9.19296 16.611C10.528 14.2802 12.5571 11.7024 12.3618 8.86642C12.3208 8.26426 12.0739 7.67909 12.0463 7.07905C11.9819 5.66812 12.6929 5.26409 12.9391 4.06544C13.0976 3.29205 12.9639 2.54837 12.3321 2.00141C11.0431 0.884126 9.725 1.83725 8.7246 2.86112C8.69771 1.30939 8.6581 -0.828943 6.58018 0.3315C5.01662 1.20466 4.96851 3.56022 3.7403 4.76807C2.45478 6.03324 1.59872 6.82291 0.959142 8.61947C-0.121202 11.6564 -0.239354 14.9729 0.357064 18.1252C0.937209 21.1905 2.08689 24.9937 4.68198 26.9347C4.90908 27.1045 5.18501 26.9156 5.20552 26.6849" transform="translate(245 74)" id="Fill-69" fill="#D43D77" stroke="none"/>
    <path d="M34.8495 23.3474C34.5446 22.43 33.7674 21.707 33.5093 20.7312C33.0557 18.9821 33.8868 17.7413 34.2053 16.1175C34.4943 14.6297 34.4806 12.6674 33.8666 11.251C33.0025 9.20372 30.6076 9.10219 29.9893 6.74455C29.4299 4.57703 29.1689 0.211009 26.0342 0.00505836C24.6782 -0.083515 24.1261 1.00961 23.2985 1.83341C22.7931 2.34901 22.3905 2.89413 21.5637 2.96758C21.55 2.97047 21.5371 2.97335 21.5212 2.96398C21.3523 2.96975 21.1797 2.87397 21.0036 2.82068C21.0036 2.82068 20.9906 2.82284 20.9827 2.81852C20.9173 2.7998 20.8469 2.789 20.7821 2.80484C20.2343 2.9071 19.7813 2.97983 19.309 3.31684C17.6762 4.48197 17.3642 7.25727 16.3684 8.92648C14.8636 11.4389 12.7189 13.5229 10.5304 15.4471C6.91756 18.6429 3.09336 21.5752 0.581286 25.7389C0.582005 25.6841 0.582724 25.6294 0.583443 25.5747C0.586319 25.355 0.234743 25.3363 0.203109 25.5487C0.154219 25.8606 0.134088 26.1796 0.131212 26.487C0.115394 26.5317 0.0823219 26.567 0.0607528 26.6196C0.0046733 26.7283 -0.0125819 26.8277 0.00898711 26.9184C0.0298372 27.0091 0.0772891 27.0934 0.152062 27.151C0.175788 27.452 0.220364 27.7552 0.274286 28.0425L0.282914 28.0821C0.387165 28.5206 0.52952 28.9513 0.717171 29.3437C1.29882 30.5636 2.3176 31.5026 3.82815 31.8411C5.63995 32.2443 7.53012 31.8238 9.39512 31.2117C10.0408 31.0043 10.6857 30.7623 11.3126 30.5326C12.3141 30.1582 13.2847 29.7988 14.2208 29.5504C15.5926 29.1839 16.6639 29.163 18.0076 29.5742C18.741 29.7959 19.4298 30.0566 20.217 30.0473C21.8484 30.0293 23.1878 29.037 24.4705 28.1527C26.3311 26.8867 28.2774 25.9823 30.5249 25.7497C31.7205 25.6172 33.5036 26.1025 34.4814 25.1952C35.0745 24.645 35.1011 24.0653 34.8495 23.3474" transform="translate(248 70)" id="Fill-70" fill="#D43D77" stroke="none"/>
    <path d="M26.9039 24.1279C26.8381 23.7353 26.695 23.4489 26.4564 23.1382C26.275 22.8948 26.0574 22.7283 25.8716 22.5812C25.4118 22.2338 25.0663 21.9883 25.4364 20.9835C25.4884 20.8285 25.5636 20.6541 25.6482 20.4646C25.748 20.2507 26.3133 19.805 26.6545 19.5416C26.6545 19.5416 26.6545 19.5416 26.6596 19.5337C26.8099 19.4167 26.922 19.3428 26.927 19.3342C27.6283 18.7413 28.3208 18.1097 28.6931 17.3152C28.8984 16.9133 29.0163 16.4575 28.9982 15.9508C28.9794 14.6632 28.2384 13.5385 27.2155 12.7791C25.4458 11.4736 22.7501 11.7463 21.4748 9.93043C21.2377 9.59811 21.0996 9.30456 21.0274 9.02895C21.0194 9.02393 21.0237 9.01603 21.0237 9.01603C20.924 8.62487 20.9529 8.25739 21.0425 7.8289C21.0982 7.45568 21.1835 7.06739 21.3086 6.6712C21.3049 6.65828 21.31 6.65038 21.3201 6.63459C21.3353 6.55636 21.3563 6.46951 21.3715 6.39128C21.4409 6.0482 21.5023 5.70082 21.4871 5.35057C21.4488 4.18282 20.7657 3.35742 19.6712 2.96123C19.0487 2.73371 18.4531 2.76457 17.8162 2.7373C16.3436 2.68203 16.7665 2.12651 16.5475 1.17838C16.345 0.328587 15.4363 -0.0640133 14.6383 0.00847781C13.2936 0.140541 12.1442 1.38294 11.2926 2.32389C9.74919 4.03999 8.67422 6.14151 7.8595 8.27102C6.98767 10.5642 6.5973 13.0971 5.28955 15.1993C4.0512 17.1903 2.39934 18.7952 1.42413 20.9692C0.103374 23.8774 -0.351338 27.2623 0.282656 30.4117C0.349887 30.7835 0.438805 31.1567 0.549411 31.532L0.558086 31.5715C0.680258 31.9979 0.828455 32.4192 0.994725 32.829C1.10967 33.1082 1.48558 33.0192 1.49715 32.7515C3.09695 32.9955 4.74881 33.1168 6.32187 32.6732C8.38072 32.0876 9.95595 30.9083 12.1659 30.7232C13.9269 30.5818 15.7559 30.8122 17.4894 30.4117C18.2499 30.2401 19.0552 29.9423 19.6495 29.4147C20.2199 28.9066 20.5083 28.0159 21.289 27.7582C21.4025 27.718 21.5276 27.6958 21.6686 27.6828C22.1739 27.6182 22.7761 27.7015 23.3031 27.6728C23.426 27.6714 23.546 27.657 23.658 27.6376C24.2559 27.5307 24.8675 27.367 25.3872 27.0476C25.4978 26.9945 25.6019 26.9156 25.7024 26.8445C26.494 26.2302 27.0789 25.1471 26.9039 24.1279" transform="translate(247 67)" id="Fill-71" fill="#D43D77" stroke="none"/>
    <path d="M15.5443 20.2525C15.4272 20.3207 15.315 20.3818 15.1951 20.4372C14.5234 20.7461 13.8405 20.8086 13.1737 21.0557C12.8007 21.1921 12.434 21.3881 12.0799 21.7212C11.3802 22.3937 10.9749 23.2176 10.1385 23.7616C8.2503 25.0073 6.11603 24.4888 4.13321 25.2736C3.10675 25.6876 2.4617 26.4816 1.86994 27.3303C1.25854 27.5568 0.629623 27.7955 0 28C0.853286 26.8466 1.73742 25.6258 2.83681 24.8979C4.52866 23.7793 6.68256 24.2126 8.53216 23.5407C9.88045 23.0556 10.6314 21.9478 11.5884 21.0657C12.0708 20.6268 12.5981 20.2383 13.2747 20.0089C14.2731 19.6758 14.5045 19.7547 15.3388 18.862C16.2959 17.8386 16.1339 17.3457 15.674 16.056C15.6712 16.0432 15.6677 16.0304 15.6648 16.0177C15.4917 15.5617 15.1951 15.2016 15.2175 14.6711C15.2252 14.5887 15.2273 14.5149 15.2428 14.4368C15.3599 13.7159 15.857 13.3409 16.4242 13.01C16.4242 13.01 16.4242 13.01 16.4291 13.0022C16.7923 12.7941 17.1863 12.6052 17.5236 12.3694C17.9008 12.1045 18.2086 11.4923 18.4014 10.807C18.6833 9.85106 18.7288 8.73677 18.3797 8.18069C17.9597 7.49394 17.1625 7.03871 16.4684 6.68006C15.4741 6.17795 14.3888 5.91305 13.3833 5.44717C11.7974 4.71709 11.1117 3.74413 10.9665 2.60782C10.9588 2.60285 10.963 2.59504 10.963 2.59504C10.9153 2.21651 10.9244 1.83087 10.9812 1.42038C11.0296 1.19951 11.0878 0.96373 11.1439 0.694567C11.1726 0.559631 11.2056 0.417592 11.2393 0.274844C11.2358 0.262061 11.2407 0.254248 11.2505 0.238624C11.2652 0.161213 11.2932 0.0802516 11.3206 0C11.4924 0.0525542 11.6606 0.14701 11.8254 0.141328C11.7237 0.502105 11.6249 0.875666 11.5828 1.26272C11.2575 3.99838 13.1464 4.60275 15.0759 5.29803C16.8224 5.92228 18.7492 6.60478 19.62 8.40156C20.218 9.62451 20.1129 10.9959 19.2855 12.0889C18.7562 12.7813 17.9996 12.9283 17.3798 13.4333C15.9418 14.6129 16.732 15.6079 17.0033 16.9423C17.2634 18.2256 16.6345 19.5743 15.5443 20.2525" transform="translate(257 73)" id="Fill-72" fill="#A12E5A" stroke="none"/>
    <path d="M1.6439 21.706C0.0954141 16.8729 1.84828 13.4613 4.58574 9.44228C6.49524 6.63955 8.48755 3.67474 8.997 0.293247C9.04175 -0.00581631 8.57332 -0.121282 8.46368 0.163438C7.49923 2.66495 6.66531 5.0216 5.14293 7.29648C3.98678 9.02201 2.7001 10.6751 1.70954 12.4989C0.225201 15.2299 -1.03686 19.2798 1.26722 21.9197C1.43356 22.1105 1.71477 21.9298 1.6439 21.706" transform="translate(247 76)" id="Fill-73" fill="#A12E5A" stroke="none"/>
    <path d="M37.5773 83.4867C48.12 111.758 56.6449 140.773 63.091 170.247C63.5808 172.487 64.0485 174.729 64.5035 176.972C65.0025 176.984 65.5009 176.99 66 177C65.9395 176.708 65.8811 176.415 65.8206 176.124C62.7286 161.221 59.0905 146.434 54.9291 131.794C46.5693 102.382 36.0936 73.5765 23.5632 45.6811C16.596 30.1734 9.11125 14.8265 0.530057 0.139753C0.336405 -0.191726 -0.132773 0.128371 0.0359603 0.457716C13.9098 27.5657 26.9279 54.9312 37.5773 83.4867" transform="translate(50 171)" id="Fill-74" fill="#436B5D" stroke="none"/>
    <path d="M13.9101 0.573123C14.1795 0.292314 13.7881 -0.15827 13.4627 0.0559184C10.6304 1.9213 8.13496 4.26018 5.76665 6.66282C3.85589 8.60198 0.675636 11.1085 0.00530668 13.8113C-0.0324584 13.9631 0.139663 14.0369 0.258042 13.9818C1.56892 13.3686 2.34238 12.211 3.30757 11.1586C4.43398 9.92938 5.57129 8.71086 6.74782 7.52745C9.09288 5.16708 11.6072 2.97146 13.9101 0.573123" transform="translate(91 249)" id="Fill-75" fill="#436B5D" stroke="none"/>
    <path d="M0.717024 35.7961C1.81626 33.215 2.25385 30.2555 3.05412 27.5575C4.04413 24.2217 5.15736 20.9242 6.38682 17.6713C8.6343 11.7261 11.6519 6.14581 13.9883 0.253042C14.0534 0.089334 13.8301 -0.102721 13.7132 0.0645298C10.0514 5.33011 7.60158 11.6297 5.3373 17.6153C4.22547 20.5549 3.21165 23.5336 2.29376 26.5413C1.40807 29.444 0.201015 32.6062 0.000772941 35.6472C-0.0244324 36.0335 0.574194 36.1313 0.717024 35.7961" transform="translate(83 205)" id="Fill-76" fill="#436B5D" stroke="none"/>
    <path d="M20.7581 4.1231C14.4215 1.49572 6.90528 0.450183 0.162859 0.000376613C-0.0400363 -0.0131627 -0.0589266 0.34262 0.137672 0.379478C3.54911 1.02034 6.97384 1.62209 10.3636 2.38781C13.7498 3.15203 17.0836 4.3292 20.4804 4.99262C20.9414 5.08289 21.2311 4.31867 20.7581 4.1231" transform="translate(62 238)" id="Fill-77" fill="#436B5D" stroke="none"/>
    <path d="M16.7828 4.18036C11.5839 1.89489 5.91595 0.374545 0.300761 0.000765759C-0.0820441 -0.025223 -0.101291 0.61838 0.253712 0.701697C5.73203 1.99043 11.1326 3.32274 16.5261 4.98449C16.9574 5.11672 17.2026 4.36534 16.7828 4.18036" transform="translate(48 195)" id="Fill-78" fill="#436B5D" stroke="none"/>
    <path d="M46.9497 26.8694C47.3813 24.8887 44.9379 23.5727 43.3834 23.0029C41.5877 22.3453 39.7162 22.2163 37.8325 22.195C36.9292 22.1851 36.0361 21.9201 35.3175 21.3786C30.8365 18.0054 29.5597 12.3977 26.4636 7.63609C24.6558 4.85384 20.2199 -1.69924 16.046 0.411888C11.9508 2.48333 14.5502 9.13634 16.3437 11.8654C17.3772 13.4366 18.7177 15.0615 20.2464 16.5668C15.5543 14.1346 10.3777 12.1858 5.02571 12.7095C3.05183 12.9029 0.423079 13.5755 0.0416134 15.8694C-0.271861 17.7595 1.24327 19.4213 2.65247 20.4602C6.03627 22.9533 10.5595 24.3331 14.4979 25.6838C18.1401 26.9325 21.8725 28.0161 25.6549 28.7935C19.452 30.1229 13.2032 33.2716 8.21771 37.0495C6.39627 38.4293 4.20982 40.7757 4.84035 43.2986C5.45012 45.7357 8.47465 46.1255 10.596 45.9703C16.6643 45.528 22.3742 41.2229 26.0249 36.6711C28.5685 33.4991 30.702 30.933 34.9797 30.0663C37.3859 29.5787 46.1961 30.3341 46.9497 26.8694" transform="translate(26 212)" id="Fill-79" fill="#6965D0" stroke="none"/>
    <path d="M0.327103 40.9513C1.40457 42.6556 4.06659 41.9212 5.57292 41.2634C7.31322 40.5029 8.73704 39.3145 10.0954 38.041C10.7462 37.4303 11.5683 37.0079 12.4595 36.901C18.0125 36.2362 22.843 39.3531 28.3783 40.6238C31.6128 41.3667 39.3563 42.9951 40.8563 38.6384C42.3284 34.3632 35.8238 31.4079 32.6376 30.6925C30.8027 30.2806 28.7111 30.0417 26.569 30.0164C31.6142 28.5377 36.668 26.3836 40.1173 22.3502C41.389 20.8623 42.7936 18.5852 41.4615 16.6919C40.3641 15.1323 38.1224 14.9869 36.3913 15.2118C32.2351 15.7522 28.0461 17.8642 24.2938 19.5973C20.8246 21.1997 17.4059 22.982 14.1656 25.0159C17.659 19.8271 19.9128 13.3128 20.826 7.21384C21.1603 4.98665 21.0792 1.82052 18.8652 0.457073C16.7274 -0.859281 14.2986 0.931466 12.894 2.4938C8.87715 6.95872 7.81604 13.9277 8.39496 19.664C8.79821 23.6609 9.07131 26.9458 6.62691 30.4893C5.25216 32.4818 -1.55687 37.9707 0.327103 40.9513" transform="translate(97 214)" id="Fill-80" fill="#6965D0" stroke="none"/>
    <path d="M30.9392 14.1843C30.1895 12.3802 27.7977 11.5386 25.8347 11.0774C22.5519 10.3073 19.347 10.8275 16.2447 9.18132C13.2659 7.59978 11.5296 5.04529 9.24343 2.72175C7.75829 1.21251 5.77524 -0.199864 3.51971 0.0233639C-0.828011 0.453674 -0.804471 4.83821 1.72427 7.34215C4.11319 9.7078 7.4644 11.5077 10.934 12.5929C7.97657 12.6898 4.98845 13.4844 2.80567 15.1502C-0.380042 17.5833 0.812638 21.6723 4.90998 21.9797C7.31317 22.1601 9.77771 21.1023 11.9291 20.1749C15.0492 18.8307 17.9895 17.5285 21.4527 17.3811C23.863 17.2779 27.1771 18.2298 29.3906 17.1979C31.4407 16.2418 30.9542 14.1941 30.9392 14.1843" transform="translate(24 183)" id="Fill-81" fill="#6965D0" stroke="none"/>
    <path d="M2.76163 29.9982C4.72432 29.6749 6.09419 27.5489 6.98952 25.7526C8.48556 22.7479 8.6791 19.5331 11.0081 16.8984C13.2446 14.3692 16.1743 13.2591 18.9958 11.5654C20.8295 10.4645 22.676 8.86139 22.9549 6.62998C23.4918 2.32847 19.1198 1.37478 16.0647 3.26235C13.1772 5.04663 10.6411 7.88718 8.79021 11.0015C9.35006 8.11923 9.22246 5.05158 8.04757 2.56973C6.3329 -1.05401 1.99533 -0.811342 0.779576 3.08336C0.066325 5.36853 0.571694 7.98764 1.01757 10.2749C1.66343 13.5923 2.30715 16.7272 1.68494 20.1097C1.25197 22.4642 -0.431876 25.4576 0.104317 27.8283C0.600367 30.0244 2.74872 30.0102 2.76163 29.9982" transform="translate(92 183)" id="Fill-82" fill="#6965D0" stroke="none"/>
    <path d="M21.4137 0.786552C17.9621 -0.834606 13.2942 0.36794 9.89755 1.54805C7.27274 2.4589 3.62029 3.639 0.901142 5.40531C0.831823 5.6921 0.730347 5.95855 0.583848 6.17662C0.47594 6.33509 0.369461 6.49496 0.262982 6.65413C0.177942 6.78105 0.0878989 6.90306 0 7.02857C0.853262 6.50057 1.69009 5.93541 2.5848 5.47823C4.20485 4.64942 5.89994 3.94262 7.59075 3.26387C10.5457 2.07885 13.6343 1.02776 16.8523 0.893133C17.6948 0.858074 18.576 0.864384 19.4099 1.01444C20.0838 1.11752 20.7306 1.31385 21.3487 1.60484C22.4978 2.66926 22.2956 2.91257 21.8339 4.03798C21.4538 5.75591 18.2565 7.02717 16.8223 7.64071C13.6851 8.9835 10.4278 9.99111 7.24058 11.2028C6.73605 11.3949 6.97617 12.1136 7.49856 11.9846C9.98117 11.3704 12.3866 10.4665 14.7627 9.53534C16.7244 8.76613 18.8697 8.01375 20.574 6.753C22.5814 5.26928 24.423 2.20016 21.4137 0.786552" transform="translate(104 237)" id="Fill-83" fill="#1F2844" stroke="none"/>
    <path d="M8.58155 9.4151C9.86697 7.82199 13.3131 3.31895 11.4682 0.995811C9.65916 -1.28007 5.80358 0.848206 4.35989 2.38606C1.84134 5.06839 -0.336585 9.41074 0.0432619 13.2732C0.0528957 13.3721 0.204284 13.4288 0.242131 13.3161C0.296493 13.1561 0.34535 12.9947 0.396271 12.8347C0.441688 12.8725 0.49605 12.9038 0.568303 12.9176C1.78285 13.1568 3.24099 14.3486 4.47618 13.9C6.06094 13.3241 7.54248 10.7028 8.58155 9.4151" transform="translate(96 187)" id="Fill-84" fill="#6965D0" stroke="none"/>
    <path d="M2.18568 4.83616C3.02503 3.25848 4.08093 1.83616 4.97123 0.294228C5.09458 0.0804339 4.79089 -0.0983012 4.63468 0.0611855C2.55843 2.17782 0.229428 5.89963 0.000148204 8.93882C-0.00320384 8.98144 0.0510993 9.02612 0.0826085 8.98144C0.974923 7.72548 1.45963 6.20073 2.18568 4.83616" transform="translate(95 190)" id="Fill-85" fill="#1F2844" stroke="none"/>
    <path d="M4.79471 0.0987303C4.74883 -0.0486593 4.54274 -0.0206553 4.50588 0.114206C4.07263 1.71707 3.90038 3.23666 3.10158 4.74814C2.2253 6.4048 0.980465 7.819 0.0530414 9.43881C-0.179379 9.84413 0.408817 10.1905 0.719463 9.88098C2.93009 7.67529 5.7951 3.3752 4.79471 0.0987303" transform="translate(103 189)" id="Fill-86" fill="#1F2844" stroke="none"/>
    <path d="M9.81734 7.28709C7.94888 6.27173 6.07157 5.34315 4.37068 4.00517C2.85848 2.81477 1.68822 1.19347 0.194412 0.024586C0.11199 -0.0399399 -0.0385488 0.029036 0.00913326 0.155863C1.42802 3.96512 6.0634 7.08609 9.59596 7.98945C9.97742 8.08736 10.1634 7.47621 9.81734 7.28709" transform="translate(48 229)" id="Fill-87" fill="#1F2844" stroke="none"/>
    <path d="M20.9759 26.6062C18.9852 21.5773 15.4582 16.8651 12.1497 12.5657C8.73042 8.12097 4.89761 3.24441 0.177218 0.0221633C0.055622 -0.0606925 -0.0514114 0.10853 0.0264973 0.204727C3.45229 4.48936 7.55961 8.21927 10.9395 12.5692C11.4871 13.2749 12.0077 13.9939 12.5174 14.7178C9.69081 14.0529 6.14924 13.5375 3.48288 14.2635C3.36929 14.2944 3.35764 14.4636 3.48069 14.4917C4.90271 14.8196 6.39535 14.7487 7.84867 14.859C9.61873 14.9931 11.3517 15.3013 13.1013 15.5639C15.625 19.2658 17.7919 23.1481 20.3395 26.8492C20.5398 27.1399 21.1252 26.984 20.9759 26.6062" transform="translate(9 104)" id="Fill-88" fill="#436B5D" stroke="none"/>
    <path d="M9.74178 3.11888C9.73732 3.07628 9.72393 3.03367 9.68003 2.99675C8.24272 1.76625 6.5428 0.967454 4.68813 0.458355C3.58336 0.155167 1.7644 -0.379494 0.726594 0.417882C-0.919024 1.68247 1.30911 2.78942 3.37654 3.41568C2.23979 3.66135 1.17668 4.15483 0.473651 5.06581C-0.49274 6.31477 0.0830772 7.46646 1.62529 7.86337C3.9293 8.45555 6.55247 7.00564 8.31563 5.76165C9.131 5.18581 10.5943 3.97732 9.74178 3.11888" transform="translate(5 115)" id="Fill-89" fill="#6965D0" stroke="none"/>
    <path d="M8.89256 8.24339C8.9247 8.2161 8.95172 8.18062 8.95683 8.1274C9.12629 6.36371 8.78665 4.65528 8.11686 3.00008C7.71732 2.01419 7.08916 0.369894 5.82262 0.0655982C3.81325 -0.416773 4.2106 1.85726 4.90887 3.73694C4.03822 3.04238 3.00687 2.54568 1.84332 2.55182C0.245905 2.56069 -0.364722 3.64551 0.214497 5.00734C1.07858 7.04053 3.81544 8.13422 5.87667 8.71416C6.8306 8.98298 8.68585 9.36301 8.89256 8.24339" transform="translate(3 97)" id="Fill-90" fill="#6965D0" stroke="none"/>
    <path d="M0.898579 16.6501C1.03429 13.8876 1.02351 11.1229 0.926996 8.35668C0.832437 5.66347 0.820189 2.74917 0.321431 0.144978C0.283706 -0.0527627 0.0549044 -0.0513034 0.0416761 0.168327C-0.113635 2.74041 0.208255 5.40152 0.303303 7.97725C0.40864 10.8514 0.41011 13.7125 0.300854 16.5859C0.281746 17.0901 0.873592 17.1601 0.898579 16.6501" transform="translate(23 104)" id="Fill-91" fill="#436B5D" stroke="none"/>
    <path d="M6.12225 9.62702C6.16383 9.61531 6.20398 9.59335 6.23338 9.54503C7.20846 7.92649 7.71035 6.13444 7.89748 4.24504C8.00932 3.11989 8.22728 1.25977 7.25722 0.40181C5.71788 -0.959059 5.0009 1.40251 4.73419 3.51885C4.29468 2.46324 3.62144 1.5255 2.59545 1.01087C1.18804 0.30518 0.143404 1.07456 0.0136321 2.64113C-0.179234 4.98001 1.71286 7.25374 3.2522 8.73173C3.96416 9.41546 5.41603 10.6102 6.12225 9.62702" transform="translate(18 96)" id="Fill-92" fill="#6965D0" stroke="none"/>
    <path d="M53.7711 104.356C67.1549 140.32 76.2619 177.887 80.7848 216C81.1899 215.991 81.5949 215.982 82 215.972C80.2691 201.308 77.6615 184.959 73.5648 166.772C64.9948 128.722 51.8068 91.717 34.3725 56.836C24.5561 37.1976 13.4367 18.1607 0.819001 0.190729C0.493397 -0.273064 -0.240098 0.196411 0.0784122 0.668727C21.913 33.0817 40.1298 67.6978 53.7711 104.356" transform="translate(63 132)" id="Fill-93" fill="#436B5D" stroke="none"/>
    <path d="M87.607 93.6366C88.0821 91.8925 88.7776 90.9058 90.3561 90.0473C91.4432 89.4603 92.3441 88.8433 93.0916 87.8537C94.2629 86.3077 94.8086 84.2901 94.7986 82.363C94.8 80.2833 94.101 78.2757 93.103 76.4633C91.7092 73.9491 89.5929 72.1601 87.8931 69.9331C87.6876 69.6752 87.495 69.4158 87.3074 69.1366C87.1498 68.9086 87.0114 68.6728 86.873 68.4377C86.704 68.1242 86.5349 67.8114 86.3787 67.4979C91.6251 69.0525 97.6725 69.0546 102.098 65.865C107.054 62.2765 108.781 56.0933 107.102 50.371C109.386 49.407 111.07 47.2726 110.998 44.6914C110.925 41.8723 108.797 39.663 106.421 38.4141C104.88 37.5998 103.193 37.4637 101.602 36.8161C99.6997 36.0289 98.4814 34.1694 96.6667 33.172C95.7002 32.6341 94.6581 32.2522 93.5788 32.0364C93.2978 31.973 93.0125 31.9302 92.7271 31.8868C93.4761 31.5092 94.2194 31.138 94.9548 30.7348C96.1489 30.0693 97.2866 29.3277 98.3266 28.3744C101.202 25.732 102.825 21.3505 100.512 17.8289C99.9287 16.9341 99.1291 16.196 98.2888 15.5456C97.0013 14.5589 94.937 14.0495 94.5803 12.2734C94.367 11.1862 94.6481 9.96649 94.4262 8.83442C94.2322 7.85126 93.9019 6.89588 93.449 5.99394C91.3419 1.79625 86.684 -0.541254 82.0497 0.107064C79.7364 0.434786 77.5665 1.4379 75.2426 1.7072C72.893 1.97721 70.5876 1.05389 68.372 2.17812C64.5095 4.13875 61.642 8.89284 60.1284 13.0243C59.9572 13.4945 59.7988 13.9511 59.6654 14.3929C59.5877 14.6472 59.5235 14.9137 59.4586 15.168C59.3587 14.7918 59.2446 14.4035 59.1105 14.0096C57.935 10.4566 55.5661 6.76052 52.1829 6.45702C51.5473 6.40074 50.9653 6.60378 50.3347 6.62658C48.7426 6.66291 48.035 6.03169 46.8359 5.21097C45.8081 4.50494 44.7467 3.92003 43.5533 3.53959C41.3863 2.85209 39.011 2.78797 36.8026 3.34652C34.6926 3.89296 32.3416 5.08415 31.1931 7.02412C30.6275 7.97736 30.8287 8.74181 30.6132 9.70858C30.2815 11.194 28.2715 11.4191 27.0339 12.0219C22.6042 14.1848 18.4364 19.4989 22.0971 24.248C23.1264 25.5781 24.9524 26.2849 25.7877 27.6791C26.5224 28.9074 26.2535 30.6863 26.8527 32.0805C27.1558 32.7873 27.5489 33.4491 28.0311 34.054C28.1595 34.2314 28.3014 34.4074 28.4484 34.5634C27.8991 34.3974 27.337 34.2442 26.7828 34.111C26.0146 33.9236 25.2292 33.784 24.4403 33.6899C22.2982 33.4477 20.0799 33.5995 18.0398 34.3326C15.3414 35.3129 16.3464 35.5181 13.852 36.8425C11.1143 38.2994 8.14055 39.0717 5.60975 40.9247C3.50835 42.4508 1.53392 44.4762 0.572385 46.932C-0.111675 48.701 -0.247916 50.735 0.52388 52.5076C0.924758 53.4259 1.54605 54.0429 2.20585 54.7688C3.79224 56.4958 3.78226 57.6086 3.68097 59.7858C3.46769 64.765 4.42495 70.1796 8.63701 73.3905C10.3033 74.6651 12.0666 75.0932 14.1123 75.2735C17.1574 75.5371 19.1483 77.7741 22.127 78.265C25.0002 78.748 27.9947 77.9765 28.4056 77.6701C28.3977 78 28.4091 78.3213 28.4469 78.6419C28.5518 80.0312 28.9969 81.3876 29.8985 82.6529C30.5918 83.6204 31.4578 84.2559 32.4907 84.8166C33.7068 85.4784 34.617 85.6053 35.351 87.1698C35.7091 87.9128 35.6606 88.8169 35.8239 89.6106C36.1756 91.4066 36.8753 92.8415 38.5167 93.7819C40.2728 94.7893 41.9084 94.5919 43.7323 93.9892C44.8508 93.6173 44.5562 92.4824 46.6597 93.9101C46.7896 94.0021 47.2725 94.8563 47.4515 94.9909C47.9936 95.3749 48.5443 95.4426 49.1834 95.3279C51.1907 94.9389 52.8191 92.5052 53.9076 91.0091C54.0724 90.7833 54.2308 90.5503 54.3827 90.3244C54.6687 89.907 54.9348 89.4845 55.1873 89.0492C55.1937 89.0421 55.1937 89.0421 55.1994 89.0349C55.6203 89.6106 56.0162 90.1998 56.3486 90.8324C58.4471 94.8862 59.8916 100.523 64.9567 101.791C66.6672 102.222 68.4334 102.004 69.8835 100.968C71.201 100.026 72.1882 99.1872 73.9101 99.2292C75.1242 99.2663 76.3375 99.6389 77.5651 99.6745C81.7758 99.8205 86.3866 98.0544 87.607 93.6366" transform="translate(0 86)" id="Fill-94" fill="#F5C16E" stroke="none"/>
    <path d="M60.9561 56.6878C59.2065 56.0718 57.5665 55.1932 56.2267 53.9251C54.9211 52.6874 54.0424 51.0849 52.7432 49.8402C51.4098 48.5649 49.7698 47.6736 48.1091 46.9021C45.2069 45.5445 42.0663 44.5077 39.564 42.4263C37.3505 40.5776 35.8805 38.0518 34.1167 35.7844C34.0398 35.8277 33.963 35.859 33.8926 35.8952C34.481 36.4196 35.0125 36.9923 35.2366 37.8127C35.7069 39.523 34.7848 41.344 34.0534 42.8272C31.8712 47.2364 28.8572 51.476 29.1148 56.6197C29.3268 60.6187 31.0124 64.6404 29.9572 68.6514C29.3019 71.1197 28.0006 73.1131 28.3329 75.7297C28.081 76.1633 27.8156 76.5841 27.5303 77C27.1325 75.4302 27.0799 73.7944 27.5595 72.1615C28.3151 69.5953 29.467 67.5323 29.3311 64.7674C29.2279 62.7023 28.7185 60.6726 28.4389 58.6231C27.8377 54.2529 29.001 50.5236 31.0038 46.6623C32.1487 44.468 33.8826 42.1161 34.3678 39.6571C34.6752 38.1193 33.9203 37.1981 33.0231 36.3245C32.9975 36.3387 32.979 36.3465 32.9527 36.3607C32.6005 36.5182 32.387 36.1173 32.5023 35.8228C32.2803 35.612 32.0505 35.3955 31.8477 35.1649C28.4382 37.9837 27.2635 42.4348 23.9656 45.3664C20.9695 48.0447 17.1124 49.4605 13.7498 51.5888C9.47369 54.2934 6.70452 58.5649 3.73469 62.5326C3.03244 63.4701 2.34939 64.4133 1.65994 65.3628C1.62223 65.0435 1.61085 64.7234 1.61867 64.3948C1.20885 64.7 0.784079 64.9789 0.352195 65.2393C1.32696 63.9988 2.30101 62.7448 3.24873 61.4916C6.04424 57.802 8.67752 53.8072 12.5702 51.1836C16.5148 48.5301 21.3871 47.064 24.5704 43.3857C26.9639 40.6294 28.1094 36.4622 31.4521 34.6752C31.3233 34.4992 31.2152 34.3154 31.117 34.1047C31.0914 34.1061 31.0714 34.1132 31.0522 34.1082C27.938 33.07 24.7284 32.444 21.6924 31.1531C18.6087 29.8445 16.3568 27.7886 13.6011 25.9896C9.80881 23.5284 3.57745 23.9698 0 21.0048C0.55284 21.1375 1.11351 21.2901 1.66137 21.4555C1.5148 21.3001 1.37321 21.1248 1.24513 20.9481C5.05596 23.2772 10.0628 22.911 14.0359 25.4346C16.7417 27.1506 19.074 29.1299 22.088 30.364C24.9738 31.5456 28.1614 32.4873 31.2522 32.9954C31.344 32.9905 31.4308 33.0181 31.5069 33.0863C31.5069 33.0863 31.5069 33.0863 31.5133 33.0927C31.5133 33.0927 31.5204 33.099 31.5211 33.1118C31.652 33.2161 31.7061 33.3638 31.7033 33.5341C31.8384 33.8414 32.0177 34.1132 32.2163 34.3637C32.3415 34.3637 32.419 34.4701 32.4197 34.595C32.5243 34.7001 32.6481 34.7987 32.7527 34.9045C32.6972 31.591 31.3966 28.4585 31.8114 25.0925C32.2056 21.9444 33.5254 19.0128 34.2063 15.9335C34.6311 14.0281 34.7478 12.134 34.2327 10.2228C33.7495 8.42805 32.8943 6.77168 32.5215 4.93789C32.2661 3.66758 32.1565 2.31708 32.2461 0.981475C32.3799 1.37392 32.4937 1.76069 32.5934 2.1354C32.6581 1.88205 32.7221 1.61663 32.7997 1.36328C32.9327 0.923282 33.0907 0.468383 33.2615 0C33.0829 2.53352 33.3362 4.9315 34.3493 7.63393C35.3995 10.4066 35.8812 12.8961 35.3113 15.8384C34.7521 18.7403 33.5397 21.4697 33.0075 24.3829C32.3621 27.9788 33.7766 31.2745 33.852 34.8165C36.4796 33.1743 39.5825 32.2659 42.5082 31.3611C46.6349 30.0744 49.2817 27.3699 52.4508 24.61C54.7745 22.5853 57.405 21.107 60.2809 20.0085C62.7064 19.0923 65.3731 18.1427 68 17.6417C67.2664 18.0434 66.525 18.4131 65.778 18.7892C66.0626 18.8325 66.3472 18.8751 66.6275 18.9383C64.609 19.621 62.5022 20.1263 60.5662 20.8842C56.8251 22.3525 53.9798 24.4581 51.0512 27.1726C48.7851 29.286 46.5125 31.058 43.5463 32.0509C41.7725 32.6548 39.9581 33.0969 38.2164 33.7917C36.957 34.2948 35.7773 34.9307 34.5834 35.5552C36.3786 37.3287 37.6728 39.5372 39.591 41.2709C42.1318 43.5603 45.515 44.59 48.5517 46.0051C51.1971 47.2463 53.2683 48.7693 55.0855 51.0466C56.5483 52.8712 57.8191 54.1898 59.9386 55.1982C60.0767 55.4324 60.2147 55.6673 60.372 55.8944C60.5591 56.1726 60.7512 56.4309 60.9561 56.6878" transform="translate(27 99)" id="Fill-95" fill="#D69554" stroke="none"/>
    <path d="M9.75408 18.8466C12.1311 17.7272 8.22259 13.7568 7.40899 12.9534C5.79484 11.3586 4.41563 9.701 3.46932 7.63995C2.83193 6.25393 2.42585 4.80019 2.00745 3.34927C3.56432 5.82154 5.30247 8.2522 7.66133 9.98597C8.87231 10.8747 13.9874 14.0121 15.5617 12.5894C17.5261 10.8148 12.3037 9.26086 11.3972 8.96814C9.12248 8.23386 7.2306 7.1589 5.51348 5.51471C4.15458 4.21333 3.17057 2.6291 2.00092 1.19582C1.82037 0.892516 1.64053 0.589213 1.46142 0.289437C1.3309 0.0714817 1.12351 0.00588354 0.925548 0.0319817C0.751516 -0.0597146 0.514396 0.0559638 0.516572 0.249231C0.460736 0.314829 0.425205 0.393124 0.406351 0.476356C0.165606 0.561704 -0.0381572 0.793061 0.00607607 1.10765C0.610839 5.38916 2.1242 9.71088 4.04218 13.6023C4.71583 14.9714 7.45685 19.9294 9.75408 18.8466" transform="translate(61 139)" id="Fill-96" fill="#D69554" stroke="none"/>
    <path d="M23.5094 2.92836C23.4595 2.93997 23.4096 2.9468 23.3597 2.95773C23.3534 2.95841 23.3485 2.95636 23.3421 2.95705C23.3323 2.95841 23.3218 2.96046 23.3126 2.96183C23.087 2.7651 22.7856 2.65376 22.4841 2.56632C22.6036 2.52739 22.7279 2.49596 22.8467 2.45293C23.0786 2.37028 23.0294 2.00141 22.7645 2.026C22.1538 2.0827 21.5466 2.14691 20.9416 2.20975C20.8453 2.19404 20.7511 2.1715 20.6556 2.16125C20.4939 2.14349 20.3625 2.19267 20.2641 2.27464C18.6457 2.43585 17.0329 2.56564 15.3836 2.47752C12.6921 2.33339 10.3921 1.58131 7.8587 0.747262C6.61415 0.337411 -0.43362 -1.21456 0.0210519 1.91466C0.202358 3.15992 2.45042 3.61554 3.41879 3.84301C5.64015 4.36625 7.94935 4.66545 10.2248 4.85671C11.3323 4.95029 12.4469 5.00835 13.5614 5.02407C12.2895 5.23582 11.0196 5.45373 9.7596 5.71193C8.11098 6.04938 2.09975 7.4217 2.60783 10.0837C3.0864 12.5879 8.93459 9.21685 10.0189 8.7421C12.3443 7.72362 14.6985 6.7673 17.0835 5.88885C18.8783 5.22763 20.7849 4.72419 22.5508 3.97485C22.9493 3.86555 23.3485 3.75694 23.7427 3.62715C24.2156 3.49327 23.9767 2.82111 23.5094 2.92836" transform="translate(33 131)" id="Fill-97" fill="#D69554" stroke="none"/>
    <path d="M19.2016 4.16517C17.3713 3.28488 14.5832 5.2393 13.2129 6.26387C10.2445 8.4828 7.79858 11.308 5.38909 14.1398C4.80214 14.8299 4.22852 15.5368 3.58828 16.1751C3.23555 16.5285 2.71452 17.1968 2.26362 17.3797C1.56517 17.6617 1.88564 18.166 1.44807 17.2405C1.37163 17.0794 1.34638 16.8893 1.34919 16.683C2.00906 15.4544 2.58619 14.1908 3.13878 12.9141C3.72572 12.0834 4.30495 11.362 4.6107 10.9721C6.89817 8.05213 10.2235 5.78656 12.0566 2.50006C12.6056 1.51557 12.8041 0.18129 11.3897 0.0144145C8.94582 -0.273428 6.60155 3.82486 5.60297 5.58179C4.30846 7.86048 3.34354 10.3082 2.3681 12.7509C0.326067 15.6526 -0.975452 18.4064 0.924232 18.9508C1.29449 19.0572 1.6935 18.9836 2.10023 18.8021C4.88629 18.2279 7.17867 16.2953 9.38761 14.5238C12.2024 12.2685 15.5916 10.7287 18.1925 8.21099C19.0705 7.36058 21.13 5.09282 19.2016 4.16517" transform="translate(61 112)" id="Fill-98" fill="#D69554" stroke="none"/>
    <path d="M26.7688 25.05C27.6931 22.1964 23.8409 19.1159 22.0343 17.7084C21.0497 16.9411 19.918 16.0725 18.7119 15.3787C23.672 16.0853 31.082 16.4137 29.8676 12.2511C29.0561 9.47037 24.9432 9.88791 22.843 10.2205C20.9523 10.5196 18.9789 11.1384 17.248 12.1298C18.8654 10.0542 20.4295 7.77522 21.2277 5.36348C21.7456 3.79753 22.0827 0.936132 20.1408 0.16172C18.0034 -0.691204 16.3678 2.02887 15.7645 3.6662C14.8668 6.10292 14.5045 9.29621 14.721 12.067C11.8759 8.19348 5.5023 1.0589 2.94026 4.57337C1.53311 6.50262 3.86319 8.72665 5.11057 9.86578C6.43504 11.0763 7.86532 12.0306 9.3818 12.8171C8.1162 12.6808 6.86601 12.6629 5.79523 12.73C3.59969 12.8685 0.128751 14.0969 0.00331175 16.8533C-0.226543 21.9016 11.5794 16.4237 13.3118 15.4565C13.3475 15.4722 13.3832 15.4879 13.4232 15.4944C11.1625 17.3737 9.27178 20.2029 8.34255 22.8202C7.73638 24.5261 6.81906 27.7936 9.01529 28.7614C11.763 29.9727 13.3832 26.274 14.2144 24.3534C15.1954 22.0844 15.8296 19.8296 15.9733 17.4614C17.0693 20.4713 19.0371 23.5197 21.2368 25.4604C22.815 26.8536 25.8788 27.7936 26.7688 25.05" transform="translate(43 119)" id="Fill-99" fill="#1F2844" stroke="none"/>
    <path d="M7.82662 6.5883C8.56768 5.51792 6.77112 4.54912 5.49861 4.0143C6.76306 3.37042 8.50184 1.94598 7.35027 1.16019C6.43452 0.536481 5.14252 1.56653 4.48275 2.72207C4.18108 1.2797 3.53408 -0.530917 2.40803 0.14657C1.19666 0.874104 2.03246 2.34784 2.90387 3.38312C2.30524 3.28453 1.70258 3.29349 1.13149 3.59675C0.567127 3.89628 -0.134299 4.62979 0.0222449 5.41559C0.345412 7.03424 2.13257 6.26562 3.33991 5.43426C2.94418 7.0178 2.74061 9.30348 4.3 8.96661C5.49995 8.70816 5.64373 7.49062 5.42 6.29998C6.24438 7.02228 7.21925 7.46672 7.82662 6.5883" transform="translate(55 129)" id="Fill-100" fill="#F5C16E" stroke="none"/>
    <path d="M5.87837 1.36021C4.4938 0.273067 1.86753 -0.370964 0.232936 0.231015C-0.106728 0.355616 -0.0584047 0.880498 0.270755 0.973948C1.13427 1.22159 2.06782 1.15929 2.95165 1.32984C3.83968 1.50117 4.7025 1.85083 5.59123 1.99646C5.88467 2.04474 6.16901 1.58761 5.87837 1.36021" transform="translate(93 122)" id="Fill-101" fill="#D69554" stroke="none"/>
    <path d="M3.98705 0.239863C3.9786 0.197876 3.97081 0.145188 3.94222 0.11555C3.55951 -0.273029 2.77785 0.430036 2.37435 0.587279C1.65312 0.869657 0.857166 0.753577 0.161926 1.11581C-0.0388496 1.22119 -0.056393 1.54061 0.128788 1.68222C1.20739 2.50136 3.08389 1.59083 3.92662 0.603744C4.00329 0.514008 4.01304 0.359235 3.98705 0.239863" transform="translate(97 147)" id="Fill-102" fill="#D69554" stroke="none"/>
    <path d="M2.91956 4.4394C2.35566 3.78853 1.76514 3.16599 1.3399 2.3866C0.943744 1.66111 0.828612 0.846489 0.494358 0.106488C0.426269 -0.0441378 0.178673 -0.0337737 0.127916 0.12998C-0.459505 2.02109 1.07745 4.45183 2.67444 4.98593C2.9666 5.08405 3.09659 4.64392 2.91956 4.4394" transform="translate(61 173)" id="Fill-103" fill="#D69554" stroke="none"/>
    <path d="M0.295084 0.0454474C0.175791 -0.0773622 -0.0536191 0.0706195 0.0113804 0.22928C0.373849 1.12098 0.686611 1.9715 0.796728 2.93567C0.897669 3.83195 0.685847 4.7412 0.820434 5.62375C0.883139 6.03337 1.37714 6.14169 1.59584 5.78241C2.61213 4.11189 1.53772 1.32084 0.295084 0.0454474" transform="translate(88 165)" id="Fill-104" fill="#D69554" stroke="none"/>
    <path d="M1.47062 2.87953C1.66523 2.07417 1.81659 1.26183 1.99189 0.452593C2.07915 0.0487509 1.43664 -0.199767 1.29068 0.210288C1.01499 0.985354 0.720759 1.75032 0.460509 2.5316C0.237327 3.20105 -0.049179 3.87749 0.00719556 4.59275C0.0334522 4.93213 0.518428 5.1659 0.747788 4.85292C1.17484 4.27045 1.30304 3.57538 1.47062 2.87953" transform="translate(34 164)" id="Fill-105" fill="#D69554" stroke="none"/>
    <path d="M1.96368 2.85094C2.36643 2.00235 2.68614 1.12353 2.98957 0.239542C3.06717 0.0132003 2.69002 -0.0959153 2.58138 0.106833C2.14914 0.917828 1.67034 1.70228 1.17214 2.47789C0.745337 3.1429 0.0624464 3.84699 0.00114139 4.63882C-0.0190349 4.89981 0.231617 5.09076 0.488477 4.9551C1.25906 4.54813 1.61525 3.58379 1.96368 2.85094" transform="translate(44 171)" id="Fill-106" fill="#D69554" stroke="none"/>
    <path d="M6.81304 0.0363779C4.69718 -0.0415921 2.11671 -0.0547701 0.157174 0.639822C-0.0914936 0.727675 -0.0318715 0.973665 0.242972 0.988491C1.40633 1.05109 2.57405 0.844081 3.72069 0.711752C4.78225 0.589855 5.82491 0.452584 6.87775 0.298291C7.09079 0.266993 6.99699 0.043516 6.81304 0.0363779" transform="translate(6 134)" id="Fill-107" fill="#D69554" stroke="none"/>
    <path d="M3.69201 0.00939791C2.50359 0.334272 1.12396 0.626957 0.11015 1.44139C-0.0863713 1.59933 -0.012012 2.05071 0.270155 1.99532C1.49974 1.75653 2.67554 1.01621 3.8394 0.525154C4.13152 0.400893 3.99077 -0.0721948 3.69201 0.00939791" transform="translate(5 138)" id="Fill-108" fill="#D69554" stroke="none"/>
    <path d="M4.70529 0.013503C3.85824 0.381765 3.06455 0.915353 2.28666 1.45599C1.52261 1.98645 0.596522 2.47459 0.0741995 3.34823C-0.119449 3.67262 0.0900075 4.07614 0.42461 3.9876C1.30195 3.75567 2.04361 2.9502 2.77539 2.35628C3.51771 1.75374 4.26859 1.15512 4.93846 0.439747C5.1051 0.262667 4.90157 -0.071119 4.70529 0.013503" transform="translate(13 156)" id="Fill-109" fill="#D69554" stroke="none"/>
    <path d="M2.99167 4.3929C2.83504 3.47391 2.33492 2.53784 1.91189 1.77111C1.50427 1.03313 1.01217 0.43264 0.36776 0.0387894C0.0551115 -0.151533 -0.147154 0.408558 0.133428 0.634614C1.33037 1.60021 1.43644 3.66579 2.40769 4.8722C2.6858 5.21788 3.06073 4.79607 2.99167 4.3929" transform="translate(28 103)" id="Fill-110" fill="#D69554" stroke="none"/>
    <path d="M2.99346 3.48689C2.72495 2.13249 1.4598 0.938788 0.437356 0.0603871C0.223244 -0.12326 -0.126869 0.148835 0.0467923 0.383795C0.47711 0.968496 0.880926 1.59101 1.26521 2.20474C1.6223 2.77323 1.89848 3.38967 2.36088 3.88525C2.65381 4.19853 3.05623 3.8049 2.99346 3.48689" transform="translate(40 97)" id="Fill-111" fill="#D69554" stroke="none"/>
    <path d="M1.86135 5.72482C2.3628 3.91395 1.40455 1.70114 0.575432 0.143638C0.407823 -0.170734 -0.115611 0.0811939 0.0231474 0.417098C0.383094 1.28916 0.643438 2.20572 0.811046 3.1395C0.967664 4.01156 0.958735 4.9152 1.21221 5.76358C1.31868 6.11958 1.77205 6.04637 1.86135 5.72482" transform="translate(50 97)" id="Fill-112" fill="#D69554" stroke="none"/>
    <path d="M2.08519 2.58311C2.66253 1.8036 3.27272 1.04268 3.94582 0.355397C4.10798 0.189527 3.87173 -0.101303 3.68861 0.035558C2.18444 1.16689 0.393699 2.71477 0.00507564 4.73198C-0.0403569 4.97075 0.230141 5.08157 0.380418 4.93207C1.0689 4.2433 1.50295 3.36783 2.08519 2.58311" transform="translate(72 91)" id="Fill-113" fill="#D69554" stroke="none"/>
    <path d="M3.92695 0.464183C4.14854 0.238305 3.8211 -0.134885 3.54315 0.0496053C2.20519 0.934178 0.625841 2.03761 0.0234939 3.50161C-0.0907312 3.7801 0.232145 4.15329 0.547407 3.93373C1.87013 3.01127 2.81896 1.59287 3.92695 0.464183" transform="translate(2 158)" id="Fill-114" fill="#D69554" stroke="none"/>
    <path d="M1.4338 147.954C1.56526 144.746 1.7003 141.538 1.85403 138.331C3.16571 111.157 5.06859 81.2107 13.6032 47.9328C15.6691 39.878 18.0928 31.9072 20.928 24.0852C23.8668 15.9734 27.4778 8.19415 30.9804 0.317324C31.0975 0.0546205 30.6565 -0.130482 30.5157 0.115135C23.1441 12.9321 18.1711 27.4455 14.1706 41.6016C10.1013 56.0026 7.26023 70.7211 5.20723 85.53C2.12125 107.792 0.742042 128.531 0 148C0.478413 147.984 0.956107 147.97 1.4338 147.954" transform="translate(183 199)" id="Fill-115" fill="#436B5D" stroke="none"/>
    <path d="M80.6647 66.478C82.5726 64.6191 83.0833 61.7925 82.1012 59.4225C83.6965 59.4898 85.2626 58.5787 85.8089 56.9464C86.4733 54.9735 85.3203 53.0835 83.6637 52.0585C84.7819 51.3548 85.3644 50.0283 85.0995 48.604C84.5668 45.7052 81.0706 43.7763 78.6534 42.6691C76.6208 41.7432 74.5291 41.2718 72.3996 41.0771C72.0157 41.0332 71.6197 41.0028 71.2238 40.9858C71.498 40.8329 71.7722 40.68 72.0328 40.5158C72.0834 40.4867 72.134 40.4443 72.1852 40.4152C74.4457 38.8699 75.2605 36.301 77.1813 34.4414C79.1085 32.5882 81.8733 31.2312 82.7735 28.5398C83.7869 25.5278 81.7301 22.302 78.8023 21.4716C80.1782 20.1069 81.478 18.3145 80.5649 16.365C79.6362 14.3645 76.8352 13.2135 74.809 12.8624C73.5263 12.6401 72.9558 12.541 72.0884 11.5111C71.7779 11.1493 71.5891 10.709 71.2587 10.3416C70.4945 9.50139 69.4995 8.89049 68.4312 8.49903C66.0675 7.63754 63.5527 7.94122 61.2943 8.95703C58.5167 10.2036 56.5675 12.3591 54.2956 14.2909C52.1611 16.0967 49.3436 16.2935 47.4542 18.2296C47.2484 18.4306 47.0504 18.6507 46.8737 18.9028C47.1216 18.0582 47.326 17.1387 47.4827 16.1753C48.2775 11.3971 47.8316 5.61654 44.5783 2.4056C41.6811 -0.440085 36.2762 -0.176753 35.1538 3.81499C32.4909 0.695356 28.0675 -1.56137 24.3583 1.3459C23.6718 1.88743 23.06 2.58257 22.7039 3.38035C22.2082 4.49951 22.5757 5.76732 21.1805 6.2239C19.5154 6.77463 17.69 6.83764 16.98 8.81899C16.7186 9.55306 16.9465 10.0896 16.9607 10.8074C16.9921 12.0483 16.693 12.81 15.8262 13.6496C15.4772 13.9964 15.1468 14.1975 14.8469 14.6003C13.6554 16.2029 13.7644 18.3676 14.5215 20.1168C15.6425 22.7211 18.0632 24.822 19.942 26.8742C21.3023 28.3671 22.6768 29.8593 24.0435 31.3452C24.4353 31.7685 24.8149 32.1918 25.2066 32.6144C24.797 32.4608 24.3797 32.3008 23.9631 32.1408C23.2644 31.8796 22.5579 31.5986 21.8379 31.3183C18.5219 30.02 15.1062 28.9426 11.4911 29.1118C8.75623 29.2449 4.64685 29.8544 3.0323 32.3567C1.47757 34.7649 2.66053 37.5228 4.5799 39.2529C2.47536 40.5271 0.348026 42.575 0.0289619 45.0773C-0.183985 46.7826 0.79315 48.3428 2.43975 48.5056C1.9462 50.0106 1.52671 51.6684 2.21042 53.1663C3.11349 55.1816 4.97161 54.764 6.3547 56.0792C7.86313 57.5183 7.71499 59.6646 9.61229 60.9905C11.0438 62.0021 12.793 62.3291 14.5215 62.1939C18.8566 61.8591 23.3463 59.1245 26.8703 56.7829C27.7961 56.1691 28.7127 55.5094 29.6072 54.8192L29.6257 54.798C30.0303 54.5006 30.4206 54.1913 30.8094 53.8685C30.3807 54.6514 29.9726 55.452 29.5837 56.2583C29.3238 56.7829 29.0774 57.3067 28.8309 57.8305C27.1651 61.4145 25.797 65.2498 25.9123 69.2515C26.0092 72.4822 27.0839 76.0117 29.6208 78.1778C31.5765 79.8527 34.3469 80.1096 36.0718 78.2741C37.1074 79.8378 38.4869 81.5452 40.3457 81.9579C41.6704 82.2439 42.8135 81.7611 43.4466 80.7382C45.1011 82.4308 47.4634 83.4891 49.8628 82.7727C52.0037 82.1236 53.4616 80.2243 53.5841 78.0794C55.2478 78.667 56.957 77.3616 57.4741 75.5806C58.1628 73.2213 57.8423 70.3366 57.3516 67.7097L57.3715 67.7281C58.0011 68.3857 58.6927 68.9881 59.4454 69.5084C60.9681 70.6 62.7166 71.3978 64.5889 71.8225C67.7148 72.5438 72.8148 71.7743 72.6767 67.9376C75.4044 68.8253 78.5338 68.5719 80.6647 66.478" transform="translate(171 160)" id="Fill-116" fill="#ED5151" stroke="none"/>
    <path d="M35.1626 54C34.4166 53.4732 33.7313 52.8633 33.1074 52.1974C32.7185 51.4054 32.4185 50.5819 32.3861 49.6373C32.3642 49.0159 32.583 48.4876 32.5265 47.8218C32.427 46.7288 31.825 45.744 31.2222 44.8717C30.3633 43.6031 29.2432 42.5617 28.4895 41.2013C27.0426 38.6096 26.6728 35.5793 25.1667 32.9847C23.5737 30.2224 21.3265 28.3847 18.9445 26.4488C16.9973 28.0034 14.5277 29.0843 13.3279 31.4165C12.6391 32.7604 12.4012 34.2232 11.411 35.4187C10.2133 36.8637 8.44182 37.713 7.10013 39.0275C6.58068 39.5335 6.07605 40.0653 5.57 40.5842C5.95536 39.7679 6.35977 38.9572 6.78465 38.1645C6.39929 38.4914 6.01253 38.8046 5.61165 39.1056C6.22356 38.4949 6.84888 37.9094 7.47702 37.3647C9.15748 35.9183 10.9064 35.1363 11.7794 32.8951C12.9496 29.8963 15.0408 27.5189 17.9395 26.1887C17.919 26.17 17.8922 26.1586 17.8781 26.1328C16.175 25.7536 14.7846 24.8928 13.318 23.9503C11.392 22.7168 9.63741 22.1019 7.48055 21.4109C5.78174 20.8727 4.51416 19.8728 3.19012 18.6845C2.14768 17.7506 1.0989 16.9371 0 16.1652C0.41288 16.3271 0.826467 16.4891 1.23229 16.6447C0.844111 16.2168 0.467931 15.7882 0.079753 15.3596C2.80406 17.0045 4.9348 19.5904 8.03176 20.5322C9.63599 21.0232 11.0221 21.4532 12.4916 22.3362C14.2793 23.4192 15.9019 24.5903 17.9 25.2376C18.2606 22.8078 18.3658 20.1072 19.2946 17.8172C20.3801 15.1668 22.2539 13.3455 21.9977 10.255C21.8064 7.97579 21.2411 5.89655 21.9052 3.641C22.2617 2.42255 22.7607 1.19623 23.3076 0C23.1524 0.975472 22.9498 1.90651 22.7042 2.76157C22.8792 2.50641 23.0754 2.28351 23.2794 2.07996C22.899 3.1013 22.6054 4.15059 22.5009 5.20921C22.2723 7.44613 23.1495 9.62069 22.9343 11.8569C22.7423 13.9261 21.498 15.4671 20.5996 17.2589C19.3623 19.746 19.2466 22.7118 18.8499 25.4354C18.8436 25.4547 18.8316 25.4691 18.8323 25.482C21.5545 25.8962 24.2082 26.499 26.8937 27.0939C29.9292 27.7676 32.2809 27.2695 35.0828 26.0768C37.0258 25.2576 38.9985 24.3904 41.1568 24.518C42.5239 24.6054 43.7914 25.0168 45.1854 24.9896C46.0902 24.9716 46.9329 24.771 47.7876 24.543C47.7367 24.5724 47.6866 24.6154 47.6365 24.6448C47.3782 24.8111 47.1065 24.9659 46.8348 25.1207C47.2272 25.1379 47.6196 25.1688 48 25.2132C46.5891 25.8625 44.9073 25.9787 43.4054 25.8066C41.6071 25.5909 40.0663 25.3085 38.2955 25.8203C37.083 26.1743 35.9411 26.7291 34.7744 27.2129C32.4552 28.1797 30.3118 28.6657 27.8027 28.207C25.2739 27.7425 22.8009 27.1025 20.2841 26.6237C22.4 27.8801 24.1701 29.8246 25.4821 31.8544C27.3355 34.7142 27.6962 38.1753 29.4324 41.0415C30.9978 43.6396 33.2958 45.2365 33.4617 48.4704C33.5132 49.3943 33.3198 50.2587 33.6508 51.1732C33.9247 51.8856 34.3982 52.5407 34.7539 53.2023C34.8993 53.4718 35.0377 53.7355 35.1626 54" transform="translate(195 175)" id="Fill-117" fill="#B53E3E" stroke="none"/>
    <path d="M10.4952 5.89875C11.4601 4.78594 13.8915 2.09746 12.6588 0.550417C11.2046 -1.27588 9.29363 1.94946 8.64412 2.88285C5.99337 6.69182 3.35346 10.1371 0.0705246 13.4518C-0.0716469 13.5963 0.0214501 13.7785 0.170117 13.849C0.256719 13.9733 0.434974 14.0507 0.588693 13.9614C4.17762 11.8537 7.7882 9.01797 10.4952 5.89875" transform="translate(217 184)" id="Fill-118" fill="#B53E3E" stroke="none"/>
    <path d="M16.8822 0.753169C15.9847 -1.39621 11.937 1.67812 11.0232 2.2645C7.76112 4.35594 4.55957 6.57931 1.34306 8.74405C0.991922 8.87389 0.642209 9.00722 0.291071 9.13707C-0.245964 9.33532 0.0275392 10.1695 0.565286 9.96917C4.62011 8.45993 8.92921 7.22713 12.8345 5.37164C14.1015 4.7699 17.6927 2.69382 16.8822 0.753169" transform="translate(219 190)" id="Fill-119" fill="#B53E3E" stroke="none"/>
    <path d="M2.38862 18.9941C4.79 19.1945 3.82945 14.2088 3.71209 13.1321C3.29484 9.29224 2.72764 5.44465 2.22201 1.61118C2.26548 1.24145 2.30459 0.871716 2.34733 0.501986C2.41325 -0.0631927 1.51573 -0.206428 1.45126 0.360162C0.963012 4.6304 0.101706 8.99801 0.00246336 13.2958C-0.0294101 14.69 0.220507 18.8135 2.38862 18.9941" transform="translate(215 205)" id="Fill-120" fill="#B53E3E" stroke="none"/>
    <path d="M1.50697 18.9294C3.93994 19.6596 4.16195 14.5115 4.30331 13.4201C4.80726 9.52612 5.15911 5.59197 5.57011 1.68577C5.70455 1.32962 5.83514 0.972038 5.96958 0.615887C6.1747 0.071269 5.28279 -0.269117 5.07767 0.276934C3.53278 4.39596 1.57842 8.52861 0.429156 12.7609C0.0557991 14.1339 -0.690146 18.2708 1.50697 18.9294" transform="translate(209 203)" id="Fill-121" fill="#B53E3E" stroke="none"/>
    <path d="M20.6691 2.19701C15.8252 2.70024 11.4378 2.6338 6.82531 0.880275C5.54554 0.394717 0.39138 -1.28954 1.08142 1.89239C1.60092 4.28343 7.21798 5.198 9.20641 5.39731C10.3314 5.5104 11.4994 5.44325 12.6752 5.27575C10.4976 6.08925 8.33078 6.94304 6.1582 7.58268C4.80678 7.9806 -0.99085 9.57368 0.147036 12.0757C1.25984 14.5219 7.10046 11.4134 8.44257 10.7526C12.6709 8.66971 16.8277 6.15357 20.3323 3.00981C20.4326 2.96881 20.538 2.92853 20.6369 2.88824C20.6698 2.87481 20.6985 2.85502 20.7243 2.8317C20.7443 2.82534 20.7658 2.8211 20.7859 2.81473C21.1291 2.71084 21.0374 2.15884 20.6691 2.19701" transform="translate(193 198)" id="Fill-122" fill="#B53E3E" stroke="none"/>
    <path d="M24.9284 16.999C25.5075 14.7646 22.428 13.6724 20.896 13.159C18.7217 12.4316 16.2227 11.9964 13.8059 11.945C17.5622 10.0092 23.939 6.37068 21.6164 4.15038C20.3654 2.95537 17.7575 5.02991 16.8383 5.76015C15.4841 6.83685 14.2445 8.10791 13.1657 9.49657C13.9493 7.72835 14.6162 5.89958 14.6942 4.02856C14.7371 3.00396 14.7441 0.27524 13.2859 0.022437C11.418 -0.300785 10.6168 2.95537 10.3681 4.17432C9.90355 6.45518 9.98156 8.79872 10.1685 11.1155C9.1769 9.367 8.02157 7.68892 6.33005 6.56856C4.96249 5.66227 2.09244 4.56515 0.551298 5.76297C-0.866157 6.86572 0.783207 7.72413 1.76706 8.38818C4.20984 10.0374 6.7517 11.5415 9.37719 12.8816C7.09534 13.3492 4.74182 13.9329 2.75303 15.1441C2.00389 15.6005 -0.492291 17.4004 0.242789 18.5968C0.951165 19.7481 3.12759 18.658 3.92452 18.2637C6.28999 17.0898 8.39333 15.3308 10.2107 13.428C10.2128 13.428 10.2142 13.4273 10.2163 13.4273C8.98646 15.142 7.89789 17.0645 7.212 19.02C6.88241 19.9594 6.07213 22.7409 7.34412 23.4106C9.39054 24.488 10.4271 20.4833 10.9584 16.9307C11.1334 18.0271 11.4166 19.1017 11.8888 20.1263C12.5311 21.5191 14.3183 24.3436 16.2522 23.9655C18.3394 23.5571 17.4097 20.8333 16.9205 19.5686C16.4645 18.3904 15.832 17.356 15.099 16.3976C16.3288 17.1736 17.636 17.8172 19.0485 18.2243C20.6964 18.6989 24.3016 19.415 24.9284 16.999" transform="translate(204 188)" id="Fill-123" fill="#1F2844" stroke="none"/>
    <path d="M6.5586 5.41284C8.43335 5.47319 11.5758 5.32306 10.9086 3.76211C10.5203 2.85247 9.07372 3.11815 8.3457 3.24989C7.47497 3.40738 6.69769 3.74445 6.03631 4.28022C6.87444 2.83334 7.93931 0.384836 6.413 0.0382036C4.57157 -0.379816 4.68096 2.73546 4.78237 4.35823C3.91961 3.83644 3.03802 3.36985 1.98909 3.41548C1.40957 3.4405 0.22083 3.68336 0.0274149 4.37736C-0.273211 5.45185 1.96301 5.57622 3.57915 5.53722C3.24665 5.72047 2.92429 5.91255 2.63525 6.08992C1.81668 6.59404 0.78731 7.2667 0.391064 8.1859C0.307033 8.38019 0.349773 8.57595 0.493928 8.72535C1.34148 9.60481 2.81853 8.6812 4.01813 7.50441C3.456 8.92995 3.23651 10.5152 4.26515 10.9442C5.15689 11.3166 5.82116 9.72404 6.0153 9.12276C6.1399 8.73713 6.24783 8.29188 6.33983 7.83265C6.43256 7.96732 6.52456 8.09538 6.61003 8.20577C7.06423 8.79159 7.90019 9.83148 8.74919 9.52975C10.3856 8.94835 7.95959 6.54473 6.5586 5.41284" transform="translate(211 196)" id="Fill-124" fill="#F5C16E" stroke="none"/>
    <path d="M1.60462 6.59108C1.61193 5.42103 1.28669 4.29875 1.43926 3.11677C1.56899 2.11163 2.03857 1.14978 1.99746 0.135695C1.99381 0.0394356 1.83393 -0.0433927 1.73252 0.0252578C-0.26457 1.38782 -0.450027 5.05167 0.74037 6.82016C0.98247 7.18058 1.60371 6.94478 1.60462 6.59108" transform="translate(200 226)" id="Fill-125" fill="#B53E3E" stroke="none"/>
    <path d="M0.993163 2.66504C0.914251 2.24866 0.705367 1.8832 0.613561 1.46811C0.569205 1.26572 0.550122 1.06076 0.538259 0.852568C0.525365 0.621819 0.566111 0.385914 0.535165 0.160321C0.514534 0.00691826 0.385078 -0.0530249 0.29224 0.054615C-0.00896553 0.404606 -0.0316591 1.12972 0.0240433 1.6054C0.0864507 2.13393 0.277283 2.76173 0.703819 2.97765C0.874537 3.06402 1.03546 2.88741 0.993163 2.66504" transform="translate(204 232)" id="Fill-126" fill="#B53E3E" stroke="none"/>
    <path d="M3.90736 4.5163C2.26682 3.15461 1.10031 2.03097 0.246907 0.0800381C0.191567 -0.04697 0.00370214 -0.0157385 0.000789502 0.123762C-0.0399874 2.2017 1.50298 4.47535 3.6576 4.99171C3.93867 5.05973 4.11926 4.69189 3.90736 4.5163" transform="translate(235 221)" id="Fill-127" fill="#B53E3E" stroke="none"/>
    <path d="M2.92449 2.61282C1.88864 1.81058 0.866112 1.21473 0.202201 0.048225C0.148885 -0.0457589 -0.00852455 0.00952574 0.000361451 0.112109C0.122861 1.50283 1.20822 3.01947 2.78422 2.99981C2.97908 2.99735 3.07873 2.73199 2.92449 2.61282" transform="translate(233 225)" id="Fill-128" fill="#B53E3E" stroke="none"/>
    <path d="M5.87043 0.661708C4.34131 -0.348644 1.44197 -0.223129 0.115509 1.18424C-0.166979 1.48334 0.116276 2.01567 0.454033 1.99965C1.34065 1.95692 2.2073 1.5234 3.08777 1.38008C3.97976 1.23587 4.88786 1.31688 5.77678 1.19493C6.01935 1.1611 6.0846 0.803247 5.87043 0.661708" transform="translate(179 195)" id="Fill-129" fill="#B53E3E" stroke="none"/>
    <path d="M5.71831 0.000118104C4.79241 0.0219013 3.87624 0.120723 2.9481 0.125504C2.07605 0.130817 1.15464 -0.0280406 0.297545 0.0957515C-0.136984 0.158445 -0.0405047 0.547885 0.236217 0.680709C1.01553 1.05421 2.23684 1.02499 3.13582 0.961765C4.10135 0.893759 5.06091 0.733839 5.87985 0.353431C6.10871 0.247171 5.98606 -0.00625746 5.71831 0.000118104" transform="translate(182 214)" id="Fill-130" fill="#B53E3E" stroke="none"/>
    <path d="M0.833661 0.12836C0.353234 -0.299392 -0.314412 0.443585 0.166015 0.871337C0.646442 1.29986 1.31486 0.556111 0.833661 0.12836" transform="translate(51 77)" id="Fill-131" fill="#F5E4D5" stroke="none"/>
    <path d="M55.7207 6.45334C58.3014 4.55131 61.1753 3.39779 62.9491 0.587677C63.1153 0.324341 62.8449 -0.0198565 62.5631 0.000895535C56.0068 0.477476 50.6106 3.26469 45.7996 7.64122C44.3669 8.94501 42.9356 10.3046 41.2382 11.2635C39.4566 12.2696 37.6636 12.387 35.6872 12.7527C32.794 13.2872 30.5108 14.9152 28.6236 17.1342C26.3954 19.7547 24.9791 22.8889 23.2046 25.8092C21.8818 27.9846 20.3657 30.0054 18.2551 31.4681C16.49 32.6918 14.4586 33.4617 12.5194 34.3534C6.53101 37.1069 2.10664 41.9586 0.452757 48.4218C0.431352 48.5048 0.437774 48.5749 0.454897 48.6386C0.342165 48.766 0.23086 48.8934 0.118842 49.02C-0.21436 49.3986 0.219445 49.8887 0.604018 49.7721C0.677507 49.8064 0.755278 49.8279 0.833049 49.8229C0.991445 50.0047 1.28612 50.0877 1.50944 49.8694C6.28557 45.2024 13.2971 44.7859 18.8252 41.4062C25.1539 37.5363 27.1867 29.4709 33.7301 25.8643C36.5127 24.3308 39.6243 23.5265 42.4511 22.0853C45.3308 20.6177 47.3742 18.521 49.031 15.7603C51.0366 12.4185 52.4836 8.83911 55.7207 6.45334" transform="translate(184 275)" id="Fill-132" fill="#436B5D" stroke="none"/>
    <path d="M23.1696 75.724C23.1961 75.4944 23.2406 75.2684 23.3015 75.0453C23.4306 74.4325 23.574 73.8225 23.7497 73.2197C23.8179 72.9837 23.9039 72.7584 24 72.5403C22.9738 67.2464 24.3772 61.6879 23.4665 56.3275C22.2216 49.0034 15.4715 44.125 14.5522 36.6979C14.1606 33.5393 14.5708 30.3449 14.2825 27.1799C13.9885 23.9555 12.7981 21.2774 10.8462 18.7131C8.4826 15.6081 5.68948 12.935 4.67406 9.03772C3.86517 5.93131 3.86158 2.82919 1.90676 0.137544C1.72318 -0.115602 1.30296 0.00954062 1.21691 0.279135C-0.781662 6.55917 -0.197223 12.6147 2.08532 18.7138C2.76513 20.5301 3.49729 22.3665 3.7576 24.3016C4.03082 26.3325 3.4722 28.0452 3.07635 30.0203C2.49622 32.9114 3.16097 35.6396 4.52419 38.2189C6.13337 41.2639 8.52347 43.7424 10.5801 46.4755C12.1126 48.5121 13.4292 50.6718 14.0043 53.1782C14.4855 55.2749 14.446 57.4509 14.5536 59.5862C14.8849 66.1645 17.7411 72.0662 23.1158 76C23.1345 75.9085 23.1524 75.8162 23.1696 75.724" transform="translate(164 220)" id="Fill-133" fill="#436B5D" stroke="none"/>
    <path d="M60.8861 49.7437C60.7772 49.541 60.6833 49.3304 60.6064 49.1134C60.3623 48.5374 60.1309 47.9578 59.9302 47.3639C59.8519 47.1319 59.7929 46.8978 59.7466 46.6651C55.8938 42.919 53.8674 37.5705 50.0702 33.7038C44.8821 28.4202 36.6086 28.2767 31.6263 22.724C29.5074 20.3634 28.0205 17.5153 25.9813 15.0898C23.9037 12.6186 21.4089 11.1061 18.3583 10.121C14.665 8.92822 10.8692 8.33362 7.82139 5.72323C5.39215 3.64248 3.62057 1.10632 0.495937 0.0184768C0.202691 -0.0835977 -0.0684901 0.258316 0.0154979 0.527422C1.97 6.80536 5.89679 11.4273 11.2307 15.1162C12.8194 16.2155 14.4628 17.3005 15.7768 18.7352C17.1576 20.2414 17.6793 21.9609 18.4829 23.8025C19.6594 26.4993 21.7556 28.3524 24.335 29.6857C27.3799 31.2597 30.738 31.925 33.9694 32.9893C36.3773 33.7816 38.6791 34.7988 40.576 36.5219C42.1632 37.9623 43.3718 39.7654 44.6764 41.4514C48.6958 46.6451 54.3849 49.8458 61 50C60.9623 49.9143 60.9246 49.8294 60.8861 49.7437" transform="translate(78 259)" id="Fill-134" fill="#436B5D" stroke="none"/>
    <path d="M0.543432 0.450804C0.481432 0.395804 0.393432 0.492804 0.456432 0.548804C0.519432 0.604804 0.606432 0.506804 0.543432 0.450804" transform="translate(174 243)" id="Fill-135" fill="#1F2844" stroke="none"/>
    <path d="M18.018 22.5252C18.4079 19.4315 18.0138 16.2106 19.44 13.3341C20.4876 11.2204 21.9476 9.48746 22.5631 7.15734C23.1567 4.90938 23.12 2.61998 22.6068 0.364156C22.5581 0.150574 22.3706 0.0305683 22.1676 0.0105673C20.5348 -0.148726 19.5732 1.52707 18.7582 2.7307C17.2545 4.95366 16.2619 7.40236 15.5865 10.0003C14.7398 13.2555 14.0284 16.2321 11.8599 18.8951C10.3392 20.7616 8.58025 22.4274 7.55237 24.651C5.27525 29.5763 6.77195 35.3487 3.99851 40.1375C2.82046 42.1733 1.19193 43.9313 0.462265 46.2164C-0.268813 48.5072 -0.0974994 50.8873 0.728047 53.1196C0.815466 53.3567 1.02837 53.446 1.22789 53.4346C1.17219 53.8282 1.64454 54.2175 1.97447 53.8575C3.82296 51.8381 5.83008 49.888 7.54674 47.7529C9.17315 45.7299 8.9398 43.797 9.00395 41.3147C9.14354 35.8937 13.499 32.4043 16.0757 28.0734C17.1022 26.3483 17.7649 24.5282 18.018 22.5252" transform="translate(107 161)" id="Fill-136" fill="#436B5D" stroke="none"/>
    <path d="M13.0927 42.2818C18.1466 56.0885 23.3944 69.8199 28.0831 83.7564C37.5196 111.807 45.2595 140.423 51.2554 169.4C52.1228 173.594 52.9419 177.794 53.7262 182C54.1511 181.989 54.5752 181.977 55 181.965C51.8152 165.077 47.9271 148.307 43.5858 131.733C36.1591 103.379 26.7014 75.7736 16.5169 48.3072C13.5744 40.3734 10.6681 32.4261 7.98698 24.4008C5.31014 16.3876 3.16256 8.22619 0.593707 0.185312C0.487145 -0.14801 -0.0563209 0.00659478 0.00477461 0.3463C1.27855 7.40919 3.53979 14.3423 5.73852 21.1634C8.02534 28.2582 10.5303 35.2821 13.0927 42.2818" transform="translate(146 164)" id="Fill-137" fill="#436B5D" stroke="none"/>
    <path d="M35.951 20.7506C37.3966 20.3681 43.5593 18.5651 41.6292 16.105C40.7943 15.0399 38.8811 15.2102 37.7069 15.3429C35.5187 15.5905 33.3996 16.5123 31.4215 17.439C29.5062 18.3366 27.5775 19.3498 25.6833 20.4383C28.1283 16.8926 30.4942 13.2808 32.6464 9.54917C33.5033 8.0619 34.456 6.44407 34.3128 4.65593C34.2508 3.87611 33.8481 2.34342 32.8848 2.1121C30.289 1.48909 27.8878 7.23312 27.1812 8.78851C25.4217 12.66 24.0734 17.1644 23.6087 21.4431C23.5939 21.4637 23.5805 21.485 23.5656 21.5055C23.553 21.5233 23.548 21.541 23.5381 21.5595C23.45 21.4892 23.3386 21.4481 23.2131 21.4715C22.9267 21.5247 22.6433 21.5879 22.3584 21.6496C22.4218 16.6953 22.534 11.7375 22.5206 6.78324C22.5177 5.64153 23.0029 -1.03416 20.1814 0.137348C19.0157 0.621279 18.5679 2.48959 18.3486 3.57667C17.8938 5.83667 18.1321 8.24497 18.3641 10.5185C18.7266 14.0706 19.4008 17.71 20.6497 21.0926C20.4776 21.0124 20.3062 20.9308 20.1342 20.8485C18.0884 17.4255 14.8826 14.1962 11.9476 11.6978C10.5012 10.4667 5.80039 6.59946 3.8054 8.73103C1.72578 10.9548 6.08388 13.6519 7.50837 14.5836C11.5555 17.2311 15.6816 19.7281 20.0037 21.8873C20.0989 21.9781 20.1913 22.0711 20.2858 22.1612C20.2745 22.164 20.2639 22.1669 20.2519 22.1704C20.1948 22.1626 20.1278 22.1548 20.0672 22.147C20.0665 22.147 20.0651 22.1463 20.0644 22.1456C20.0143 22.1278 19.9656 22.1236 19.9205 22.1286C14.6541 21.4736 -1.71134 19.8905 0.146143 24.9605C0.545989 26.0511 1.89432 26.1306 2.85973 26.1767C5.01692 26.2803 7.19668 26.093 9.33412 25.8027C12.7973 25.3323 16.4735 24.5915 19.9297 23.5087C19.8648 23.6144 19.8034 23.723 19.74 23.8294C17.0863 25.763 14.6337 28.2614 12.8537 30.9252C11.7515 32.5742 8.57322 38.0656 10.8312 39.8559C13.0681 41.6298 15.2098 36.0093 15.7591 34.72C16.781 32.3237 17.7252 29.9133 18.9325 27.6001C19.3387 26.8224 19.7632 26.0553 20.1871 25.2897C20.6476 25.0563 21.0968 24.7937 21.5467 24.5354C20.8062 28.4537 20.7844 32.8084 21.1687 36.6905C21.3429 38.4481 21.7801 40.0674 22.6517 41.6015C23.0438 42.294 23.883 43.9842 24.8822 43.9998C26.9992 44.0332 25.8328 38.9519 25.6495 37.857C25.287 35.6893 24.6968 33.5698 24.189 31.4339C23.6319 29.0916 23.352 26.6706 22.7229 24.3495C22.821 24.3992 22.9183 24.4489 23.0156 24.4978C24.8484 28.3288 28.4181 31.8533 31.4554 34.6682C32.7804 35.8958 37.3099 39.3088 38.4135 35.9476C39.2873 33.2845 34.4144 30.217 32.6951 29.042C29.9075 27.1382 26.9421 25.2691 23.8534 23.7655C25.5289 23.3114 27.1918 22.7828 28.8673 22.3542C31.2135 21.7546 33.6104 21.3693 35.951 20.7506" transform="translate(124 142)" id="Fill-138" fill="#F5E4D5" stroke="none"/>
    <path d="M7.52437 0.787904C6.01517 -1.1629 2.48168 1.05519 1.57814 1.60573C0.491341 2.33778 -0.393095 3.55454 0.18002 4.64563C1.24347 6.66891 3.75668 6.03726 5.1838 5.23539C6.70291 4.383 9.00174 2.69815 7.52437 0.787904" transform="translate(142 162)" id="Fill-139" fill="#F5C16E" stroke="none"/>
    <path d="M32.4552 28.5469C33.8857 29.067 40.0881 31.1426 39.8982 27.9961C39.8155 26.6355 38.116 25.6702 37.0567 25.1001C35.0817 24.0391 32.7745 23.5747 30.5816 23.1958C28.4592 22.8291 26.2577 22.5494 24.0419 22.3532C28.1428 20.8406 32.2149 19.2281 36.1771 17.3931C37.7564 16.6618 39.4897 15.8776 40.406 14.3194C40.8059 13.6402 41.3568 12.1426 40.6843 11.3948C38.8727 9.37997 33.5361 12.7305 32.0438 13.6052C28.3283 15.7827 24.5913 18.7201 21.7239 21.9815C21.6994 21.99 21.6757 22 21.6519 22.0086C21.6311 22.0164 21.6167 22.0278 21.5973 22.0371C21.5642 21.928 21.4944 21.8302 21.3758 21.7767C21.1061 21.6554 20.832 21.5427 20.5587 21.4292C23.4809 17.3781 26.4469 13.3519 29.305 9.25654C29.9638 8.31332 34.2366 3.08494 31.1973 2.42069C29.9401 2.14528 28.4837 3.42812 27.671 4.19868C25.9809 5.80044 24.7848 7.92519 23.6621 9.93577C21.908 13.0765 20.3653 16.4691 19.4504 19.9823C19.3533 19.816 19.2563 19.6498 19.1606 19.4829C19.431 15.4752 18.619 10.9575 17.6093 7.19815C17.1123 5.34667 15.4178 -0.562376 12.5137 0.043369C9.48438 0.675513 11.5694 5.42016 12.2224 7.01265C14.0765 11.5375 16.0838 15.9832 18.45 20.2641C18.4766 20.394 18.5004 20.5238 18.527 20.653C18.5162 20.6494 18.5047 20.6451 18.4939 20.6415C18.45 20.6023 18.399 20.5566 18.3522 20.5153C18.3522 20.5153 18.3508 20.5131 18.3508 20.5124C18.3191 20.4689 18.281 20.4375 18.24 20.4147C14.2117 16.8301 1.43213 6.06158 0.050527 11.3178C-0.247225 12.4494 0.835183 13.2941 1.61696 13.8913C3.36248 15.2234 5.29499 16.33 7.25196 17.326C10.4229 18.9406 13.9284 20.4553 17.4489 21.5591C17.3331 21.609 17.2187 21.6632 17.1037 21.7139C13.7629 21.7753 10.2633 22.4188 7.23038 23.5875C5.35253 24.311 -0.487441 27.0044 0.364821 29.7869C1.20989 32.5445 6.25729 29.1448 7.46412 28.3985C9.70733 27.0122 11.8937 25.5696 14.2434 24.3588C15.0345 23.9514 15.8335 23.5647 16.6319 23.1773C17.1533 23.2515 17.6812 23.2943 18.2076 23.3414C15.3179 26.1468 12.7769 29.7263 10.8502 33.1524C9.97775 34.7035 9.40598 36.2925 9.24632 38.0619C9.17368 38.8596 8.8975 40.7403 9.72459 41.3303C11.4773 42.5825 13.4429 37.7144 13.924 36.7056C14.877 34.7078 15.6106 32.6166 16.4226 30.5611C17.3137 28.3065 18.4817 26.1475 19.2994 23.8679C19.3519 23.9649 19.4051 24.0627 19.4584 24.1597C18.7729 28.38 19.7194 33.3529 20.6314 37.4312C21.0284 39.2106 22.8422 44.6459 25.7126 42.5104C27.9867 40.8181 25.6853 35.4691 24.9265 33.5063C23.6966 30.3235 22.2978 27.0664 20.5832 24.0399C22.2489 24.6342 23.9469 25.1593 25.5968 25.7743C27.9083 26.6362 30.1372 27.7043 32.4552 28.5469" transform="translate(131 0)" id="Fill-140" fill="#F5E4D5" stroke="none"/>
    <path d="M7.99939 2.55108C7.94958 0.111648 3.90743 0.0336289 2.88359 0C1.61138 0.0168144 0.217321 0.546133 0.0335562 1.76417C-0.307048 4.02067 2.02064 4.86139 3.59913 4.97169C5.27792 5.08939 8.04718 4.93941 7.99939 2.55108" transform="translate(147 19)" id="Fill-141" fill="#F5C16E" stroke="none"/>
    <path d="M48.0488 36.7735C45.456 35.3627 42.6525 34.3664 39.8922 33.3479C37.7138 32.5441 32.959 31.7945 30.7501 31.0506C35.0707 31.2453 42.011 30.8959 46.2592 30.3067C49.1564 29.9052 52.2821 29.4873 55.0061 28.3654C56.2046 27.8718 59.1976 26.3698 58.9897 24.6445C58.8194 23.2238 56.6013 22.5277 55.4844 22.3016C53.0832 21.8166 50.5585 22.3793 48.2617 23.0904C42.3396 24.9241 36.4018 27.3341 30.6947 29.8232C30.6919 29.8146 30.6898 29.8061 30.6869 29.7982C34.6776 25.9454 39.4388 23.0469 43.6948 19.4894C45.886 17.6571 47.9409 15.6316 49.5566 13.2594C50.4713 11.9165 52.1452 9.58708 51.0524 7.90104C48.647 4.18732 41.696 11.9749 40.2726 13.5604C36.2912 17.9973 33.0768 23.559 30.5124 28.9573C30.4499 29.0151 29.6467 29.1977 29.5857 29.2562C29.5793 29.2355 29.2749 29.167 29.2685 29.1463C31.911 23.9691 34.7727 17.8754 36.6211 12.4086C37.4144 10.0607 40.6799 0.569171 35.9186 0.015002C34.0418 -0.203242 32.595 2.00844 31.9748 3.47767C30.8672 6.10302 30.8636 9.18626 30.6053 11.9821C30.2044 16.3284 28.3695 28.7933 28.1374 29.826C28.0807 29.8653 28.0459 29.923 28.0246 29.9865C28.136 27.2 27.3569 24.4227 26.6644 21.7481C25.9222 18.8803 25.1274 16.0117 23.9843 13.2751C22.6744 10.1398 18.2623 1.75953 13.6494 4.20372C11.6867 5.24359 12.2061 7.51733 12.8539 9.2212C13.9729 12.1618 15.4396 14.969 17.0681 17.655C19.5232 21.7025 22.3211 25.8441 25.3467 29.6691C21.2936 26.7228 16.8425 24.1217 12.1117 22.5712C9.52321 21.7232 0.298047 19.2091 0.00570296 24.1738C-0.240519 28.3511 7.55343 29.8631 10.3378 30.5186C15.8107 31.8074 21.647 32.2617 27.3001 32.2274C22.2118 35.0561 16.8467 38.8946 12.8837 43.1568C11.361 44.7936 9.99224 46.6301 9.18545 48.7348C8.7072 49.9823 7.7734 53.0698 8.92433 54.2501C9.80775 55.1566 11.0027 54.049 11.6995 53.4849C14.173 51.4829 16.4969 49.2876 18.6476 46.9397C22.3395 42.91 26.0144 38.1985 28.2396 33.1332C28.2574 33.1539 28.2751 33.1732 28.2928 33.1931C26.8971 37.5545 26.2904 42.44 26.3614 46.8897C26.438 51.6726 28.0026 56.4226 32.297 58.9424C32.4559 59.0358 32.6901 59.0166 32.8199 58.8775C34.6797 56.889 34.7422 54.0348 34.7947 51.4344C34.8543 48.451 31.3234 35.9961 30.1477 33.1568C32.7937 35.4312 37.7841 39.7897 40.6933 41.5392C42.7759 42.7909 45.0146 43.8379 47.3832 44.4063C49.045 44.8043 51.4647 45.3984 52.9455 44.2038C56.304 41.4964 49.954 37.8105 48.0488 36.7735" transform="translate(62 23)" id="Fill-142" fill="#F5E4D5" stroke="none"/>
    <path d="M8.99615 2.91526C8.86655 -0.0317117 4.32427 0.00663733 3.17225 0C1.74456 0.0619484 0.194808 0.749281 0.0254332 2.22645C-0.28726 4.9662 2.3528 5.90575 4.12884 5.98687C6.01803 6.07389 9.12438 5.80103 8.99615 2.91526" transform="translate(86 50)" id="Fill-143" fill="#F5C16E" stroke="none"/>
  </g>
  <g id="Group" transform="matrix(-1 0 0 1 330.0571 -11.5)">
    <path d="M147.947 0.917842C141.174 14.9987 132.358 29.5195 126.813 40.6983C110.395 52.907 55.6574 91.6421 46.5463 99.3302C37.3526 107.087 29.2528 116.139 20.9059 124.791C16.1419 129.735 11.378 134.681 6.60746 139.637C5.56708 140.727 4.08301 142.25 2.77946 143.8C2.71203 143.884 2.64896 143.947 2.58733 144.02C1.52013 145.33 0.604454 146.624 0.208604 147.691C-0.186521 148.757 -0.0639961 149.587 0.955355 149.926C6.66328 151.839 17.9813 144.287 24.6288 139.392C24.8521 139.223 25.0667 139.057 25.2893 138.888C23.9647 141.399 22.0304 147.605 20.7065 150.125C17.555 156.091 10.0099 171.575 10.0135 174.421C10.0186 175.035 10.0976 175.591 10.2818 176.056L10.2905 176.092C9.75758 177.025 9.23341 177.956 8.71938 178.884C6.98083 182.007 5.30898 185.163 3.70746 188.371C3.43413 188.912 3.19851 189.493 3.03176 190.078C2.54963 191.739 2.69391 193.422 4.56658 194.353C6.97358 195.54 10.2303 195.019 12.1109 193.404C15.24 190.719 21.4352 181.952 26.9038 175.722C30.6158 171.479 35.9569 167.862 36.1143 167.661C36.0896 167.725 35.4966 169.198 35.4124 169.422C33.4448 174.46 32.7677 176.118 30.9602 181.177C29.4232 185.472 28.625 187.656 28.2995 189.535C28.2937 189.595 28.2857 189.645 28.2893 189.703C28.2661 189.981 28.3372 190.208 28.4445 190.378C28.6163 190.66 28.8722 190.805 29.0049 190.833C35.6974 191.963 39.9879 186.436 42.4544 181.457C49.2984 167.655 54.4118 153.749 58.4399 143.7C58.8104 142.775 59.033 141.885 59.299 141.102C59.4665 140.986 69.5063 133.072 71.3696 131.89C84.3913 123.608 113.019 106.854 114.95 106.006C116.961 105.131 123.201 101.286 124.534 104.73C125.209 106.485 124.175 108.83 123.623 110.479C122.887 112.687 122.067 114.866 121.196 117.027C117.815 125.415 106.314 147.208 105.677 153.945C105.436 156.487 106.179 160.78 108.967 161.937C111.546 163.026 115.594 161.26 117.538 159.668C122.956 155.244 150.795 105.627 156.238 98.3599C164.349 87.5403 170.516 65.1777 170.961 47.0387C175.801 36.5622 185.326 17.0085 193 0C177.999 0.553619 162.97 0.700036 147.947 0.917842" id="Fill-144" fill="#FFB582" stroke="none"/>
    <path d="M23.9332 0.0902807C23.6667 0.862041 23.3703 1.71708 23.0732 2.64965C19.2792 5.59957 15.2877 8.36427 11.833 11.6782C9.20341 14.1995 6.95159 17.0475 4.96055 20.0957C3.36684 22.5151 2.12034 25.9604 0 28C0.631963 26.4148 1.19492 24.913 1.62276 23.5374C2.51042 21.9702 3.43294 20.4245 4.42156 18.9119C6.24263 16.1336 8.27581 13.5175 10.6475 11.1799C13.07 8.77348 15.7606 6.64199 18.4221 4.50762C20.2243 3.06317 22.0076 1.50458 23.8453 0.035719C23.9071 -0.0138172 24.101 -0.0253039 23.9332 0.0902807" transform="translate(35 141)" id="Fill-145" fill="#FF7A72" stroke="none"/>
    <path d="M68.6014 0.0451405C65.4424 2.05236 62.2949 3.68898 58.8629 5.18806C55.8168 6.51125 52.7322 7.92057 50.2253 10.1551C47.5511 12.5445 45.9473 15.7533 44.2719 18.8615C42.2744 22.5871 39.9577 26.0666 37.238 29.3102C32.5981 34.8512 27.2838 39.7907 22.3321 45.0668C21.9905 45.4302 19.883 47.5344 19.9886 47.6408C15.0528 53.124 10.3754 58.8489 6.00187 64.7931C3.9378 67.6045 1.93525 70.4687 0 73.3757C0.00506609 73.9852 0.0839524 74.5382 0.267779 75C6.16761 65.9758 12.671 57.3845 19.8656 49.3115C25.1054 43.4331 30.8786 38.0615 36.1191 32.1839C38.5428 29.4636 40.8313 26.6211 42.7832 23.5354C44.7495 20.4279 46.1087 16.9563 48.1995 13.9263C50.8658 10.0755 54.7818 7.98934 58.9592 6.15439C62.3795 4.64807 66.3021 3.25901 68.9257 0.48379C69.129 0.271704 68.8801 -0.135821 68.6014 0.0451405" transform="translate(10 101)" id="Fill-146" fill="#FF7A72" stroke="none"/>
    <path d="M14.6247 0.0822263C13.1337 2.05074 12.3714 4.6929 11.3691 6.93432C10.1231 9.72012 8.85155 12.4951 7.54547 15.2536C5.15196 20.3089 2.6506 25.3131 0.0575112 30.2735C-0.221315 30.8064 0.589483 31.307 0.869043 30.7691C3.58833 25.5422 6.20417 20.2651 8.707 14.9348C9.78562 12.6352 10.8444 10.3255 11.8812 8.00727C12.9818 5.54537 14.5814 2.86371 14.9975 0.195698C15.0305 -0.018318 14.7311 -0.0578175 14.6247 0.0822263" transform="translate(25 109)" id="Fill-147" fill="#FF7A72" stroke="none"/>
    <path d="M3.0522 0.133222C1.79474 2.01498 0.212802 5.94322 0.0161241 7.90916C-0.265757 10.7205 3.20983 12.7148 5.61753 11.7568C8.49669 10.6124 10.1716 7.14644 10.9818 4.25741C11.4256 2.67537 3.61667 -0.711499 3.0522 0.133222" transform="translate(108 147)" id="Fill-148" fill="#FF7A72" stroke="none"/>
    <path d="M2.76477 0C1.45723 3.89579 0.422789 7.25712 0.00418331 9.31093C-0.0178849 9.59489 0.0496989 9.8268 0.151764 10C0.964839 9.91749 1.88825 9.48933 2.291 9.17045C3.14407 8.50071 3.56888 7.50985 3.95921 6.48703C4.41782 5.30885 5.01021 3.93741 4.99987 2.63733C4.98607 1.14844 3.97783 0.234892 2.76477 0" transform="translate(28 180)" id="Fill-149" fill="#FF7A72" stroke="none"/>
    <path d="M4.66222 0C3.76109 0.93521 3.07957 1.64183 2.51212 2.23415C2.44552 2.31147 2.38389 2.36996 2.32438 2.43719C1.28156 3.64604 0.386806 4.84077 0 5.82506C0.784948 6.04962 1.76684 6.03214 2.2507 5.91717C3.30415 5.68656 5.33523 4.1355 5.79997 3.04363C6.34192 1.8005 5.72275 0.658883 4.66222 0" transform="translate(0 141)" id="Fill-150" fill="#FF7A72" stroke="none"/>
    <path d="M27.4137 0.0847341C23.664 2.95703 19.0161 3.48239 15.0163 5.79561C11.3754 7.9022 9.91961 11.442 9.14821 15.4464C8.20572 20.341 7.36328 25.1719 5.86036 29.9368C4.24943 35.0417 1.68367 39.7487 0.00965951 44.7994C-0.05124 44.9833 0.191633 45.0698 0.296032 44.9328C3.05971 41.3073 4.75112 36.494 6.20329 32.2002C7.75042 27.6236 8.88431 22.9275 9.67093 18.1589C10.5424 12.8767 11.7372 8.2268 17.0086 5.90845C20.6763 4.29645 25.0821 3.71247 27.8944 0.600574C28.2032 0.259856 27.7711 -0.189306 27.4137 0.0847341" transform="translate(38 96)" id="Fill-151" fill="#FF7A72" stroke="none"/>
    <path d="M5.32978 0C3.70129 3.16943 2.13463 6.37139 0.633187 9.62656C0.377059 10.1757 0.156259 10.7648 0 11.3584C1.17126 12.5085 3.08033 11.9903 4.32157 10.7685C6.24695 8.87042 7.3856 5.92421 6.88013 3.11252C6.72591 2.21225 6.15591 0.465658 5.32978 0" transform="translate(3 179)" id="Fill-152" fill="#FF7A72" stroke="none"/>
    <path d="M1.75634 0.0250102C1.66061 -0.0516043 1.50184 0.0625663 1.58356 0.168474C2.3595 1.16747 3.16969 2.14393 3.91216 3.16695C4.50988 3.98868 5.74344 5.36399 5.94035 6.38701C6.22675 7.86898 5.09903 7.25606 4.32231 6.87975C3.77674 6.6146 3.28331 6.22026 2.85682 5.79888C2.37662 5.32342 1.98593 4.77811 1.63259 4.21251C1.44581 3.91282 0.163986 1.80292 1.17886 2.4932C1.37887 2.6284 1.6645 2.43611 1.51896 2.21153C0.912687 1.27262 -0.102184 1.50923 0.00833096 2.59234C0.114955 3.62964 1.33607 5.14616 1.99293 5.89653C2.65758 6.65591 3.46699 7.31615 4.41882 7.71425C5.50685 8.16867 7.49845 8.26482 6.88517 6.59057C5.99016 4.15017 3.80631 1.64518 1.75634 0.0250102" transform="translate(20 162)" id="Fill-153" fill="#FF7A72" stroke="none"/>
    <path d="M4.17453 3.93265C3.43084 2.47917 2.40459 0.903704 0.963114 0.0253454C0.80032 -0.0736442 0.637526 0.139672 0.726453 0.280488C1.24495 1.10029 1.90976 1.82319 2.44188 2.63742C2.93672 3.39239 3.81667 4.61512 3.8934 5.55134C4.16735 6.01631 4.10353 6.10345 3.70192 5.81415C3.43801 5.72353 3.21497 5.57365 3.0321 5.36521C2.60755 5.02432 2.25399 4.58445 1.92768 4.15433C1.31524 3.34429 0.87347 2.43874 0.410189 1.54505C0.311222 1.35334 -0.0244059 1.46976 0.00141161 1.67471C0.188589 3.15398 0.934428 4.46315 1.95135 5.56319C2.47559 6.12994 3.73348 7.51231 4.66506 6.80126C5.52134 6.14737 4.50442 4.57608 4.17453 3.93265" transform="translate(16 131)" id="Fill-154" fill="#FF7A72" stroke="none"/>
    <path d="M10.7107 6.0976C9.36955 3.2479 6.13954 0.79161 3.17328 0.00182632C3.12342 -0.0121717 3.09018 0.0578184 3.12848 0.0917084C4.52743 1.35521 6.22698 2.20688 7.62231 3.48291C8.37526 4.1725 9.05233 4.94902 9.57188 5.83679C10.0669 6.68404 10.3689 7.16587 9.17662 7.14819C8.55302 7.13861 7.79646 6.74446 7.22777 6.51459C6.33898 6.15359 5.4668 5.72997 4.62931 5.25919C3.80483 4.79505 0.786535 2.6283 0.98814 2.18699C1.21648 1.68748 3.45509 3.34072 3.92117 3.68183C4.6929 4.24618 5.46174 4.76189 6.2725 5.27024C6.51023 5.4198 6.68872 5.0728 6.52974 4.89082C5.81726 4.0782 0.681036 -0.764382 0.0299751 1.93576C-0.238109 3.04529 1.36245 3.98684 2.02579 4.46499C3.5353 5.55389 5.15681 6.50207 6.84985 7.25944C8.23941 7.88124 12.0764 8.99961 10.7107 6.0976" transform="translate(123 122)" id="Fill-155" fill="#FF7A72" stroke="none"/>
  </g>
</svg>