<svg width="637px" height="627px" viewBox="0 0 637 627" version="1.1" xmlns:xlink="http://www.w3.org/1999/xlink" xmlns="http://www.w3.org/2000/svg">
  <desc>Created with Lunacy</desc>
  <g id="Illustration" transform="matrix(-0.9335804 -0.3583679 -0.3583679 0.9335804 636.2505 178.1136)">
    <g id="Group-15" transform="translate(314.2476 46.77734)">
      <path d="M3.11929 11C3.11929 11 5.30698 7.57108 4.96338 3.64313C4.83291 2.22063 3.51508 -0.128633 2.1494 0.00550297C0.78373 0.140108 -0.160062 2.05882 0.0226072 4.12809C0.370549 8.05838 3.11929 11 3.11929 11" transform="translate(5.58368 4.547474E-13)" id="Fill-43" fill="#0C1153" stroke="none"/>
      <path d="M9 6.98697C9 6.98697 8.09951 3.04995 5.02197 0.80666C3.90961 -0.00630797 1.26642 -0.461177 0.381828 0.708338C-0.497469 1.87837 0.207028 3.85982 1.8279 5.04123C4.91074 7.28401 9 6.98697 9 6.98697" transform="translate(0 11.3358)" id="Fill-44" fill="#0C1153" stroke="none"/>
      <path d="M10 3.80503C10 3.80503 7.66034 0.820016 4.10042 0.0654206C2.80957 -0.208198 0.343846 0.384324 0.0413038 1.69569C-0.261239 3.00562 1.1355 4.41614 3.01126 4.81227C6.56614 5.56639 10 3.80503 10 3.80503" transform="translate(1.409381 22.70905)" id="Fill-45" fill="#0C1153" stroke="none"/>
      <path d="M0 7C0 7 3.6421 6.65094 6.40296 4.31304C7.40645 3.46616 8.51181 1.31286 7.74264 0.459097C6.96838 -0.395152 5.07347 -0.00975812 3.61154 1.22154C0.850672 3.55845 0 7 0 7" transform="translate(9.868905 10.64761)" id="Fill-46" fill="#0C1153" stroke="none"/>
      <path d="M0 7C0 7 3.70414 6.74263 6.45942 4.42284C7.45903 3.58053 8.52461 1.40211 7.71274 0.504219C6.90087 -0.390742 4.97269 -0.0495259 3.52147 1.17349C0.7662 3.49474 0 7 0 7" transform="translate(12.02823 18.97451)" id="Fill-47" fill="#0C1153" stroke="none"/>
      <path d="M0 4.99484C0 4.99484 3.04477 5.16314 5.05841 3.57738C5.79285 3.00402 6.42029 1.36114 5.64207 0.560195C4.86386 -0.242497 3.30256 -0.162708 2.24224 0.672249C0.223737 2.25801 0 4.99484 0 4.99484" transform="translate(14.11245 31.10216)" id="Fill-48" fill="#0C1153" stroke="none"/>
      <path d="M8 3.69364C8 3.69364 6.37211 1.22457 3.5401 0.202968C2.51685 -0.16756 0.444524 -0.0718003 0.077603 0.833829C-0.294486 1.7409 0.713255 2.94632 2.20678 3.48431C5.03362 4.50639 8 3.69364 8 3.69364" transform="translate(5.898316 33.65306)" id="Fill-49" fill="#0C1153" stroke="none"/>
      <path d="M10 41.7156C1.18428 19.1711 0.862685 0.189577 0.85758 0L0 0.00534704C0.00510464 0.195896 0.331802 19.3213 9.19857 42L10 41.7156" transform="translate(6.973203 3.66694)" id="Fill-50" fill="#0C1153" stroke="none"/>
    </g>
    <path d="M2.84084 38.9886C7.74184 52.8596 18.0727 62.9404 29.8436 67C36.3971 56.3066 38.0638 41.8829 33.1628 28.0119C28.2571 14.1419 17.9263 4.05958 6.15539 0C-0.398165 10.6943 -2.06488 25.1176 2.84084 38.9886" transform="translate(342.084 55.76343)" id="Fill-51" fill="#0C1153" stroke="none"/>
    <path d="M0 0.267445L21.2424 59L22 58.7321L0.752833 0" transform="translate(348.7261 60.69702)" id="Fill-52" fill="#60BBEA" stroke="none"/>
    <path d="M0.734299 10L5 0.369129L4.27053 0L0 9.63035" transform="translate(354.0532 64.16284)" id="Fill-53" fill="#60BBEA" stroke="none"/>
    <path d="M0.730056 11L6 0.332182L5.26511 0L0 10.6678" transform="translate(357.292 72.06055)" id="Fill-54" fill="#60BBEA" stroke="none"/>
    <path d="M0.7704 19L10 0.347446L9.2296 0L0 18.653" transform="translate(360.9688 75.59534)" id="Fill-55" fill="#60BBEA" stroke="none"/>
    <path d="M0.785231 19L10 0.356443L9.20957 0L0 18.6431" transform="translate(364.6367 85.57263)" id="Fill-56" fill="#60BBEA" stroke="none"/>
    <path d="M0.667838 11L5 0.36563L4.33656 0L0 10.6344" transform="translate(368.9048 103.105)" id="Fill-57" fill="#60BBEA" stroke="none"/>
    <path d="M10 4.26812L0.371134 0L0 0.731884L9.62887 5" transform="translate(344.2305 67.60107)" id="Fill-58" fill="#60BBEA" stroke="none"/>
    <path d="M14 7.20758L0.33311 0L0 0.792939L13.6669 8" transform="translate(342.9189 75.46997)" id="Fill-59" fill="#60BBEA" stroke="none"/>
    <path d="M18 9.19252L0.348575 0L0 0.807483L17.6514 10" transform="translate(343.0781 82.79688)" id="Fill-60" fill="#60BBEA" stroke="none"/>
    <path d="M19 9.21213L0.358397 0L0 0.787872L18.6466 10" transform="translate(345.7793 92.59485)" id="Fill-61" fill="#60BBEA" stroke="none"/>
    <path d="M16 7.27581L0.345394 0L0 0.724665L15.6497 8" transform="translate(351.9893 105.0432)" id="Fill-62" fill="#60BBEA" stroke="none"/>
    <path d="M3.68775 24.9974C3.77372 25.1831 8.33545 15.3481 6.6109 9.20942C5.46793 5.09335 1.23999 -0.00578352 1.23999 4.92372e-06C1.24505 0.005311 -0.211472 3.21163 0.0262239 6.98714C0.274034 10.8495 3.78889 21.8244 3.68775 24.9974" transform="translate(343.4214 204.5326)" id="Fill-63" fill="#0C1153" stroke="none"/>
    <path d="M0 0C0.0048708 0.000966227 4.94386 2.61268 9.08891 5.33309C13.2486 8.05736 16.098 9.99948 19.1179 12.5122C22.1329 15.0297 22.9999 15.9997 22.9999 15.9997C23.0291 16.0258 15.2407 14.0369 10.2628 10.4043C5.32378 6.80513 0.5504 1.62857 0 0" transform="translate(348.8965 229.7369)" id="Fill-64" fill="#0C1153" stroke="none"/>
    <path d="M6.66452 31.9984C6.71456 32.1602 8.88103 20.0958 7.59015 15.1572C6.09914 9.47096 0.890605 1.67809 0 0C0 0.00923096 0.465316 7.16225 1.11075 13.3742C1.7612 19.5832 3.76255 29.1203 6.66452 31.9984" transform="translate(351.8193 193.2012)" id="Fill-65" fill="#0C1153" stroke="none"/>
    <path d="M2.13986 1.53741e-06C2.13504 -0.000960117 3.54127 0.449094 6.83051 1.69492C10.1535 2.95565 19.1832 6.46665 22.3472 8.36544C25.5546 10.2705 31.0832 15.1538 32.9469 16.8895C33.6693 17.5521 26.8501 15.0941 22.5447 13.241C19.3084 11.8548 14.454 9.80696 11.6367 7.74373C10.3316 6.78448 4.73079 1.83099 1.32598 1.17034C-2.07884 0.501024 2.14949 0.0129839 2.13986 1.53741e-06" transform="translate(358.146 225.6021)" id="Fill-66" fill="#0C1153" stroke="none"/>
    <path d="M5.13811 36.9992C5.17781 37.0984 8.35855 28.2092 7.96654 23.5458C7.644 19.2741 6.60195 13.9959 4.4583 9.14677C2.31465 4.30898 0.443924 0 0.443924 0C0.443924 0.0231564 -0.33017 6.83775 0.166044 11.7327C0.672183 16.6745 0.677145 21.1659 2.25015 26.1866C3.82811 31.228 5.13811 37.0091 5.13811 36.9992" transform="translate(360.4668 184.916)" id="Fill-67" fill="#0C1153" stroke="none"/>
    <path d="M1.56351 0.194095C3.20757 -0.121518 4.89901 -0.235346 8.73673 1.32626C12.6171 2.90292 21.6334 5.62961 25.9591 8.61783C30.3369 11.6131 36.6431 15.8718 36.989 15.9927C37.3964 16.1366 26.4281 14.1526 20.5768 11.241C15.7583 8.8309 10.9067 5.70675 8.02604 3.87892C5.14065 2.04921 2.02309 0.606133 0 0.723254C0 0.723254 0.928633 0.31639 1.56351 0.194095" transform="translate(367.9526 220.4584)" id="Fill-68" fill="#0C1153" stroke="none"/>
    <path d="M4.53129 38C4.53129 37.9928 6.13775 34.5396 5.99046 27.6165C5.85236 20.6973 5.55317 14.213 4.96858 10.9579C4.37939 7.71675 1.75104 1.0854 1.57612 0.0836308C1.41041 -0.886147 0.0939371 6.84964 0.011082 9.24281C-0.06717 11.6813 0.245838 16.4629 1.6958 22.092C3.14577 27.7636 4.50367 35.9559 4.53129 38" transform="translate(370.8311 176.7635)" id="Fill-69" fill="#0C1153" stroke="none"/>
    <path d="M0 0.790755C2.20903 1.02818 6.85963 2.781 9.61608 3.73872C12.3483 4.69143 14.5331 6.52456 24.6046 9.16483C33.4552 11.4954 39.9952 10.9432 40 10.9422C39.9952 10.9442 38.5467 10.1276 33.7362 6.94218C28.9403 3.76281 20.826 2.73632 13.9518 1.25155C7.11639 -0.205118 2.06855 0.0132311 2.07339 0.0097174C1.38549 0.274748 0.692746 0.53476 0 0.790755" transform="translate(376.0674 213.2596)" id="Fill-70" fill="#0C1153" stroke="none"/>
    <path d="M5.14636 43.9996C5.16516 44.0788 6.75425 32.2393 6.88119 25.9134C7.03634 19.7058 7.51588 14.8462 4.3001 9.13279C1.06551 3.38598 0.00298209 0.00190813 0.00298209 0C-0.00171935 0.013834 -0.0581366 8.27414 0.628274 14.5338C1.31939 20.8535 2.19855 29.0952 2.87086 31.8186C3.54317 34.6135 4.05562 43.4658 5.14636 43.9996" transform="translate(378.4741 165.1068)" id="Fill-71" fill="#0C1153" stroke="none"/>
    <path d="M3.00241 0.273958C5.60259 -0.129027 8.21244 -0.151716 13.7028 0.645867C18.9032 1.3961 24.8188 2.41268 27.6945 3.68428C30.604 4.92973 39.7868 9.18548 39.9946 9.32655C40.2411 9.45233 32.0056 10.7042 27.2402 9.43852C22.5183 8.18024 18.2604 7.49463 12.3785 4.31169C6.49671 1.13221 2.78009 0.975357 0.639046 1.96876C-1.50683 2.97252 2.38861 0.385925 3.00241 0.273958" transform="translate(384.2808 203.5232)" id="Fill-72" fill="#0C1153" stroke="none"/>
    <path d="M3.54331 46.9986C3.54797 47.0128 4.34522 41.1679 3.08175 37.3167C1.81361 33.5328 0.676021 22.9133 0.624736 19.3793C0.559464 15.9597 -0.181835 1.29076 0.0419534 0.124607C0.247093 -0.976271 1.42664 5.45948 3.27756 9.88881C5.11449 14.3362 5.93039 22.2016 5.99566 28.158C6.06559 34.1968 5.27301 44.4637 4.89537 45.7633C4.52238 47.1043 3.54331 46.9967 3.54331 46.9986" transform="translate(388.3716 151.6825)" id="Fill-73" fill="#0C1153" stroke="none"/>
    <path d="M2.18667 0.0220309C2.19606 0.0245637 7.2472 -0.102072 11.5794 0.225155C15.9305 0.537185 22.9457 2.48788 24.8769 2.71887C26.8409 2.90325 35.698 6.88164 35.9894 6.73119C36.2995 6.54732 29.7729 8.53904 23.4062 7.85724C17.0347 7.17442 12.8105 5.55753 8.60984 3.73094C4.40917 1.91194 1.53824 1.54521 0.293076 2.25842C-0.956788 2.9772 2.19606 0.0352011 2.18667 0.0220309" transform="translate(393.3818 194.3954)" id="Fill-74" fill="#0C1153" stroke="none"/>
    <path d="M4.63391 44.3917C4.62922 44.4287 5.2579 32.9846 4.87788 27.5918C4.49316 22.2582 4.54946 16.0057 3.62052 11.4764C2.68689 6.95619 1.32632 0.00866395 1.32632 0C1.32163 0.0101079 0.00797613 9.39124 0.00328451 15.6943C-0.0201736 22.0218 0.0548923 28.8967 1.14335 35.4736C2.2365 42.0543 3.87387 46.9976 3.87387 47C4.12722 46.1365 4.38057 45.2653 4.63391 44.3917" transform="translate(397.5146 138.9331)" id="Fill-75" fill="#0C1153" stroke="none"/>
    <path d="M3.83697 0.209203C3.86071 0.203221 12.758 -0.248619 17.1829 0.194479C21.6553 0.598926 28.7484 2.21304 31.5448 3.50368C34.3412 4.77454 37 5.54846 37 5.54846C37.0237 5.48681 24.1858 6.77193 18.7781 5.26227C13.4464 3.65138 3.53312 1.54678 0.736697 3.27822C-2.02174 5.00138 3.85596 0.226687 3.83697 0.209203" transform="translate(400.2329 183.2212)" id="Fill-76" fill="#0C1153" stroke="none"/>
    <path d="M5.48778 47.639C5.4778 47.6752 6.72605 35.0508 6.96571 30.8122C7.18041 26.6282 6.36655 19.0422 5.09334 15.2389C3.79516 11.4587 1.27369 2.25647 1.4784 0.270127C1.66314 -1.70657 -0.468867 7.59409 0.0953419 14.1953C0.639579 20.8091 1.85787 29.9809 2.81653 37.1683C3.77518 44.3596 4.73384 47.3896 3.33081 50.971C1.92777 54.5485 5.48778 47.6501 5.48778 47.639" transform="translate(404.1533 124.9048)" id="Fill-77" fill="#0C1153" stroke="none"/>
    <path d="M1.88827 0.685493C1.8979 0.68205 7.18215 -0.261857 11.0647 0.0711421C14.9616 0.389385 20.3085 2.06914 22.9627 2.66185C25.6313 3.19701 34.3404 7.34892 34.9715 7.20824C35.6025 6.98739 25.6313 9.04392 18.979 7.2776C12.3267 5.44536 7.91916 3.29194 5.31797 2.97566C2.72642 2.66332 0 2.85073 0 2.85171C0.631028 2.1321 1.26206 1.40806 1.88827 0.685493" transform="translate(409.9844 170.5845)" id="Fill-78" fill="#0C1153" stroke="none"/>
    <path d="M6.32328 42.2019C6.3136 42.209 7.3782 31.7899 6.85558 24.4588C6.30876 17.1467 3.18272 8.25702 2.17619 4.94821C1.15999 1.64417 0.235725 0.00142847 0.235725 4.12871e-07C0.235725 -0.00190366 -0.214309 6.58238 0.129265 13.6194C0.458322 20.6678 2.67946 28.8719 3.76341 32.5435C4.84252 36.2255 5.55871 43.2058 5.09415 44.6677C4.62476 46.1486 6.31844 42.2005 6.32328 42.2019" transform="translate(411.2168 115.5847)" id="Fill-79" fill="#0C1153" stroke="none"/>
    <path d="M1.49564 0.988693C1.49564 0.976429 8.55274 -0.666923 13.45 0.309937C18.3521 1.24765 22.9484 1.87735 25.3073 2.866C27.6661 3.82305 34 5.60602 34 5.62725C33.9903 5.61263 27.8797 7.49323 21.8903 6.87533C17.4202 6.31355 5.64545 2.43394 1.47138 2.53441C-1.85332 2.57025 1.49564 0.988693 1.49564 0.988693" transform="translate(415.7891 158.6604)" id="Fill-80" fill="#0C1153" stroke="none"/>
    <path d="M5.89434 47.9246C5.87974 47.9143 8.77944 37.3246 7.79666 27.8322C7.06687 21.0922 4.95048 12.9836 3.3936 8.78704C1.4183 3.48239 0.956101 2.20795e-06 0.956101 2.20795e-06C0.951236 -0.0044065 -0.260214 6.59445 0.0511627 11.107C0.338213 15.6235 1.16044 23.1957 2.20161 29.3022C3.22818 35.4288 6.20572 46.5158 4.90183 49.8791C3.57361 53.2577 5.88947 47.9212 5.89434 47.9246" transform="translate(418.4263 99.47693)" id="Fill-81" fill="#0C1153" stroke="none"/>
    <path d="M0.780035 1.0014C0.780035 0.998779 4.16729 0.528309 7.38978 0.274737C10.6074 -0.0196998 17.2511 -0.403201 20.9146 1.06898C24.5732 2.40495 34.4006 6.45372 34.9772 6.41442C35.52 6.22896 26.2305 8.33717 21.341 7.95314C16.4176 7.40356 7.66115 4.5032 3.44525 3.50254C-0.770638 2.47882 -0.38297 1.22825 0.780035 1.0014" transform="translate(423.1777 144.5858)" id="Fill-82" fill="#0C1153" stroke="none"/>
    <path d="M4.46913 48.381C4.41673 48.3671 7.19358 34.3241 6.98925 27.8592C6.69061 21.3737 5.6113 14.2167 3.99235 7.93749C2.37863 1.65586 1.64512 -0.00237002 1.63989 2.27985e-05C1.59273 -0.0195983 -0.387738 12.6308 0.0680841 18.3692C0.450556 24.0867 0.717762 29.8816 1.98044 35.6837C3.23264 41.4906 4.28051 47.8622 2.59868 51.0485C0.911617 54.2429 4.45341 48.369 4.46913 48.381" transform="translate(426.0981 87.26941)" id="Fill-83" fill="#0C1153" stroke="none"/>
    <path d="M2.33392 6.24137C2.33863 6.25397 4.9083 5.035 9.55255 3.19733C14.1827 1.33205 20.133 -0.200874 22.8629 0.0215065C25.5693 0.0912729 36.6354 4.9473 36.9937 5.10186C37.2814 5.04856 27.5779 8.63136 22.6319 8.72099C16.6769 8.66382 11.9053 6.74088 5.97388 7.45986C0.0565798 8.25055 0 9.02088 0 8.99957C0.773257 8.07226 1.55123 7.15415 2.33392 6.24137" transform="translate(427.374 130.5488)" id="Fill-84" fill="#0C1153" stroke="none"/>
    <path d="M2.82208 45.8705C2.83198 45.8734 4.62821 40.4802 5.67724 31.3033C6.74607 22.12 7.42893 16.6878 6.69164 11.7963C5.95434 6.90975 4.27193 2.28401e-05 4.27688 2.28401e-05C4.26203 -0.0141045 2.04026 6.52831 1.69388 11.5664C1.29801 16.5767 1.54048 26.7669 1.79284 33.0326C2.02046 39.3081 2.14912 45.7862 0.427117 49.8563C-1.30478 53.9206 2.78745 45.8442 2.82208 45.8705" transform="translate(433.5952 79.40039)" id="Fill-85" fill="#0C1153" stroke="none"/>
    <path d="M1.22254 6.73887C1.20814 6.74084 6.13579 1.42769 12.7716 0.824346C19.3882 0.236726 22.4925 -0.496326 25.285 0.467155C28.0583 1.34564 37.976 4.82124 38 4.9087C37.8561 4.64486 23.5145 7.51221 18.1167 7.54562C12.5653 7.24788 6.84591 5.43982 1.28971 7.64683C-1.56996 8.80733 1.21774 6.73592 1.22254 6.73887" transform="translate(436.0547 116.899)" id="Fill-86" fill="#0C1153" stroke="none"/>
    <path d="M1.8458 42.5183C1.8215 42.4997 4.41173 34.381 5.41284 29.0397C6.37506 23.6635 7.27897 18.2858 6.91935 10.8085C6.57431 3.33271 6.21955 0.00341339 6.20983 6.01397e-05C6.20983 -0.0181432 2.30747 4.09582 1.23348 12.6758C0.154617 21.2429 0.844698 28.4591 0.708626 32.45C0.572553 36.4547 0.844698 42.0939 0.135178 44.3291C-0.58892 46.5614 1.83122 42.5068 1.8458 42.5183" transform="translate(443.2808 71.12207)" id="Fill-87" fill="#0C1153" stroke="none"/>
    <path d="M2.63345 4.89527C2.55664 4.73371 14.1162 1.27401 18.7199 0.331678C25.1669 -1.48285 35.8384 4.72384 36.9521 5.05527C37.917 5.06877 24.0436 7.60537 19.3679 7.79342C16.598 7.54823 6.05619 6.91706 2.32142 7.82874C-1.44216 8.62666 -0.107628 6.46408 2.63345 4.89527" transform="translate(447.4233 103.9327)" id="Fill-88" fill="#0C1153" stroke="none"/>
    <path d="M2.73541 38.8206C2.73067 38.8192 4.46288 33.2701 6.00578 28.2707C7.47768 23.2136 10.1233 14.3494 9.99553 10.534C9.80622 6.67789 9.00638 -0.000846843 9.01111 0.000123622C9.00165 -0.0217118 4.82257 2.84795 3.6725 9.49951C2.49876 16.1142 2.01129 22.3092 2.03022 26.9334C2.03495 31.5514 1.72732 39.1754 0.321672 41.4157C-1.11237 43.6414 2.71174 38.7891 2.73541 38.8206" transform="translate(449.7446 64.43213)" id="Fill-89" fill="#0C1153" stroke="none"/>
    <path d="M2.99415 4.53198C2.99415 4.53198 7.05694 2.08418 11.9495 1.20835C16.7991 0.279672 22.8837 -0.195491 26.9704 0.0758146C31.0046 0.247457 37.9857 2.46774 38 2.50398C37.9142 2.37663 27.9813 4.68701 22.5642 5.23365C16.9469 5.4219 5.94111 4.84708 1.40146 6.66367C-2.49444 8.0952 2.96554 4.49121 2.99415 4.53198" transform="translate(457.2544 92.86694)" id="Fill-90" fill="#0C1153" stroke="none"/>
    <path d="M2.85197 31.6265C2.83731 31.6146 5.74131 25.5642 8.66976 22.9365C11.5004 20.2117 15.9933 13.5306 16.8929 9.38907C17.7044 5.17496 18.9853 -0.00639024 19 0.000247644C18.9658 -0.0357866 14.5609 3.86871 12.7373 6.42525C10.8893 8.94291 8.67954 11.8494 6.0102 18.5683C3.3262 25.2745 0.818191 33.2267 0.104412 34.714C-0.6387 36.1692 2.82753 31.5961 2.85197 31.6265" transform="translate(458.4517 62.82605)" id="Fill-91" fill="#0C1153" stroke="none"/>
    <path d="M1.88627 20.5882C1.90062 20.6114 3.5746 19.3786 8.36218 17.2099C13.0685 14.9255 21.7684 11.3525 24.3033 9.86669C26.5894 8.09462 33.8306 0.236233 34.9593 0.0714117C35.8011 -0.437509 23.3276 1.88251 20.2618 3.57795C16.9808 4.96784 12.7815 6.28593 10.5431 8.94234C8.16609 11.4426 1.6567 19.7376 0.374905 20.661C-1.00732 21.4687 1.8767 20.5781 1.88627 20.5882" transform="translate(462.0132 73.19287)" id="Fill-92" fill="#0C1153" stroke="none"/>
    <path d="M0.0808966 144.864C0.489549 145.449 26.1049 144.44 39.5952 135.984C55.2057 129.267 75.6047 101.928 80.4124 93.4556C85.446 85.6841 101.672 54.719 106.436 48.002C111.407 39.3928 126.888 16.8005 135.638 9.33929C140.489 4.55231 143.489 0.309094 143.98 0.0185089C144.427 -0.33777 137.431 4.5432 135.552 6.58017C133.451 8.33711 124.427 17.9638 120.095 24.466C115.523 30.6786 108.182 41.5041 105.379 46.3822C102.263 50.939 87.8451 77.3118 78.9268 91.6181C76.7249 94.6927 69.5711 105.696 60.4557 115.121C51.4798 124.778 40.5423 132.857 34.0183 135.423C24.2972 139.925 14.1722 140.96 9.1001 140.966C4.09531 141.087 -0.683524 143.482 0.0808966 144.864" transform="translate(324.7471 88.67883)" id="Fill-93" fill="#0C1153" stroke="none"/>
    <path d="M318.361 72.5375C375.504 151.163 358.088 261.222 279.461 318.361C200.839 375.504 90.7788 358.088 33.6357 279.462C-23.5027 200.838 -6.08662 90.7787 72.5357 33.6375C151.163 -23.5036 261.223 -6.08708 318.361 72.5375" transform="translate(71.49365 55.8877)" id="Fill-94" fill="#564892" stroke="none"/>
    <g id="Sepalika5" transform="translate(80.23926 65.46985)">
      <path d="M99.3382 75.7504L53.5032 0L7.66813 75.7504C2.65106 84.042 0 93.5377 0 103.216C0 132.622 23.9542 156.461 53.5032 156.461C63.229 156.461 72.7709 153.822 81.1028 148.83C106.417 133.661 114.581 100.942 99.3382 75.7504Z" transform="matrix(-1 0 0 -1 220.7471 156.4606)" id="Triangle" fill="#FFFFFF" stroke="none"/>
      <path d="M98.9861 75.6031L53.3135 0L7.64094 75.6031C2.64166 83.8785 0 93.3557 0 103.016C0 132.364 23.8693 156.156 53.3135 156.156C63.0049 156.156 72.5129 153.523 80.8153 148.54C106.04 133.401 114.175 100.746 98.9861 75.6031Z" transform="matrix(0.8386706 -0.5446391 0.5446391 0.8386706 124.3046 191.9838)" id="Triangle-Copy" fill="#FFFFFF" stroke="none"/>
      <path d="M98.9861 75.6031L53.3135 0L7.64094 75.6031C2.64166 83.8785 0 93.3557 0 103.016C0 132.364 23.8693 156.156 53.3135 156.156C63.0049 156.156 72.5129 153.523 80.8153 148.54C106.04 133.401 114.175 100.746 98.9861 75.6031Z" transform="matrix(-0.2923718 -0.9563047 0.9563047 -0.2923718 184.5552 210.6793)" id="Triangle-Copy-3" fill="#FFFFFF" stroke="none"/>
      <path d="M98.9861 75.6031L53.3135 0L7.64094 75.6031C2.64166 83.8785 0 93.3557 0 103.016C0 132.364 23.8693 156.156 53.3135 156.156C63.0049 156.156 72.5129 153.523 80.8153 148.54C106.04 133.401 114.175 100.746 98.9861 75.6031Z" transform="matrix(-0.7986355 -0.6018151 -0.6018151 0.7986355 206.8351 195.2182)" id="Triangle-Copy-2" fill="#FFFFFF" stroke="none"/>
      <path d="M98.9861 75.6031L53.3135 0L7.64094 75.6031C2.64166 83.8785 0 93.3557 0 103.016C5.62905e-15 132.364 23.8693 156.156 53.3135 156.156C63.0049 156.156 72.5129 153.523 80.8153 148.54C106.04 133.401 114.175 100.746 98.9861 75.6031Z" transform="matrix(0.2923717 -0.9563047 -0.9563047 -0.2923717 149.3465 210.6793)" id="Triangle-Copy-4" fill="#FFFFFF" stroke="none"/>
    </g>
    <path d="M33.0032 98C33.0032 98 58.8583 91.6215 60.7 80.7127C62.5368 69.8034 55.3717 61.9302 54.5659 51.5133C53.765 41.0969 62.3882 42.736 53.2518 29.9975C44.1155 17.2594 51.2231 -5.9279 37.1278 1.40149C23.0324 8.73136 31.0896 20.2059 17.8719 25.4887C4.65422 30.772 9.17682 39.137 12.1311 46.4335C15.0855 53.7305 9.8003 54.7152 3.63747 60.5681C-2.52536 66.4233 -1.32157 80.6359 10.841 88.207C23.0036 95.7794 33.0032 98 33.0032 98" transform="translate(362.9717 43.97485)" id="Fill-95" fill="#B22097" stroke="none"/>
    <path d="M21.2812 191C23.9194 183.554 25 176.691 25 170.307C25 156.521 19.962 144.997 14.7732 134.577C12.1739 129.366 9.53563 124.427 7.4523 119.619C5.36896 114.811 3.8454 110.138 3.44626 105.458C2.54089 94.7573 1.19743 80.0455 1.19743 64.2971C1.19743 42.3523 3.81133 18.4029 13.7461 0.569677L12.6947 0C2.59443 18.1533 0 42.2607 0 64.2971C0 80.1099 1.34346 94.8605 2.24883 105.557C2.66745 110.424 4.23968 115.214 6.34735 120.084C9.51616 127.388 13.8873 134.882 17.4552 143.085C21.028 151.287 23.7977 160.186 23.7977 170.307C23.7977 176.559 22.7414 183.282 20.147 190.61L21.2812 191" transform="translate(392.0229 44.02734)" id="Fill-96" fill="#B22097" stroke="none"/>
    <path d="M2.75283 98.9033C1.97486 89.0797 1.13244 76.9601 1.13244 64.1553C1.13244 42.2591 3.60446 18.3623 13 0.56839L12.0057 0C2.45361 18.1128 0 42.1677 0 64.1553C0 77.0138 0.842422 89.1659 1.6204 99L2.75283 98.9033" transform="translate(393.4692 43.29126)" id="Fill-97" fill="#FFFFFF" stroke="none"/>
    <path d="M0 0.339276C0 0.343817 1.01563 2.78824 2.28125 5.45475C2.91667 6.78869 3.61458 8.17713 4.28646 9.35029C4.625 9.9371 4.95833 10.4699 5.27083 10.919C5.59375 11.3687 5.89063 11.7329 6.20313 12L7 11.2828C6.80729 11.1216 6.53646 10.8064 6.25 10.3949C5.73958 9.67276 5.15104 8.65221 4.56771 7.53855C3.69271 5.86624 2.81771 3.97911 2.16146 2.51209C1.83854 1.77859 1.56771 1.14954 1.375 0.704894C1.1875 0.259793 1.07813 0.000908368 1.07813 0L0 0.339276" transform="translate(388.6616 59.69336)" id="Fill-98" fill="#FFFFFF" stroke="none"/>
    <path d="M0 0.372453C0.00472813 0.385013 0.945626 2.95353 2.5721 6.18532C4.19858 9.41759 6.50118 13.3131 9.28605 16L10 15.2266C7.36643 12.6938 5.0922 8.87558 3.49409 5.69934C2.69504 4.11099 2.06619 2.68301 1.63121 1.65357C1.41844 1.13861 1.25296 0.72365 1.13948 0.438151C1.08274 0.295643 1.04492 0.185019 1.01655 0.110625C0.98818 0.0362308 0.973995 0 0.973995 0L0 0.372453" transform="translate(383.1108 66.84998)" id="Fill-99" fill="#FFFFFF" stroke="none"/>
    <path d="M0 0.117872C0.00484914 0.149273 0.5625 5.12407 3.02101 11.0945C4.25269 14.0795 5.95959 17.3142 8.31627 20.3011C10.6681 23.287 13.6794 26.0261 17.5102 28L18 27.0561C14.3292 25.1624 11.4343 22.5334 9.15032 19.6441C5.73168 15.3113 3.70474 10.3911 2.5361 6.55641C1.94935 4.63905 1.58082 2.99415 1.35776 1.83137C1.24623 1.25022 1.17349 0.789358 1.125 0.475354C1.1056 0.318352 1.08621 0.198064 1.07651 0.117389L1.06681 0.0275358L1.06196 0L0 0.117872" transform="translate(374.811 72.05298)" id="Fill-100" fill="#FFFFFF" stroke="none"/>
    <path d="M0 0.441654C0.0149059 0.470489 1.50549 3.60436 4.58604 7.11501C7.66658 10.6223 12.347 14.5213 18.7466 16L19 14.9716C12.9134 13.5687 8.4069 9.8351 5.42076 6.43066C3.92521 4.72988 2.81721 3.11513 2.08185 1.92905C1.71417 1.33602 1.4409 0.850149 1.26203 0.514222C1.16763 0.346499 1.10303 0.216262 1.05832 0.128315C1.03844 0.0845823 1.01857 0.0519028 1.00863 0.0302766L0.993724 0L0 0.441654" transform="translate(373.5698 98.12036)" id="Fill-101" fill="#FFFFFF" stroke="none"/>
    <path d="M25 21.0249C15.4525 17.4166 9.45581 12.1453 5.83751 7.78115C4.02837 5.59886 2.81262 3.64348 2.05519 2.23831C1.67406 1.53572 1.40872 0.970805 1.23987 0.584382C1.15303 0.39117 1.09514 0.242582 1.05654 0.143366C1.03724 0.0939948 1.02277 0.0564918 1.01312 0.0327558L1.00347 0.0066461L0.998649 0L0 0.347021C0.0144732 0.389271 1.29776 3.95727 5.01254 8.44102C8.72733 12.9248 14.8881 18.3228 24.6189 22L25 21.0249" transform="translate(367.7031 102.5891)" id="Fill-102" fill="#FFFFFF" stroke="none"/>
    <path d="M0 0.333954C0.014618 0.383007 1.4813 5.00188 6.06162 10.3897C10.6371 15.7776 18.331 21.9275 30.7466 25L31 23.9407C18.8085 20.9197 11.3241 14.9174 6.87048 9.67724C4.64367 7.05664 3.17699 4.62581 2.27067 2.85546C1.81751 1.97053 1.50079 1.2501 1.30101 0.754618C1.20355 0.506877 1.13046 0.315126 1.08661 0.186796C1.06224 0.122879 1.04275 0.0748176 1.03301 0.0431069L1.02326 0.00891866L1.01839 0L0 0.333954" transform="translate(363.166 110.6748)" id="Fill-103" fill="#FFFFFF" stroke="none"/>
    <path d="M11.0514 0C11.0514 0 11.0333 0.0530484 11.0015 0.159145C10.7519 0.954871 9.54917 4.6181 7.62481 8.49112C6.66263 10.4269 5.51891 12.4152 4.22995 14.1191C2.94554 15.8243 1.51135 17.2402 0 18.0538L0.449319 19C2.26475 18.021 3.86687 16.3563 5.27837 14.4243C7.3888 11.525 9.059 8.00982 10.2163 5.21224C11.3691 2.41515 12 0.337098 12 0.325042L11.0514 0" transform="translate(397.2847 48.1449)" id="Fill-104" fill="#FFFFFF" stroke="none"/>
    <path d="M19.0224 0L19.0083 0.0420842C18.8383 0.499809 17.2656 4.5971 14.1346 9.0202C12.5714 11.2322 10.621 13.5251 8.26919 15.4889C5.91736 17.4531 3.16883 19.0878 0 20.0004L0.288076 21C3.72609 20.0089 6.68241 18.2135 9.17119 16.0894C12.9067 12.9019 15.6033 8.97528 17.3743 5.84403C19.1452 2.7123 19.9906 0.373556 20 0.353696L19.0224 0" transform="translate(393.2275 69.61719)" id="Fill-105" fill="#FFFFFF" stroke="none"/>
    <path d="M24.932 0L24.932 0.00940521C24.8928 0.243595 24.1432 4.82534 20.6599 10.2996C17.1766 15.7754 10.984 22.1474 0 26.0289L0.372338 27C11.7777 22.975 18.2005 16.2672 21.7475 10.571C25.2994 4.87331 25.9902 0.190455 26 0.14484L24.932 0" transform="translate(392.2456 78.10315)" id="Fill-106" fill="#FFFFFF" stroke="none"/>
    <path d="M25.1038 0L25.0789 0.0349322C24.7951 0.412008 22.2061 3.79469 17.8445 7.37834C13.478 10.9644 7.34891 14.7423 0 15.9626L0.1892 17C8.0609 15.6888 14.5036 11.586 18.9797 7.8248C23.4607 4.0617 25.9801 0.630215 26 0.607724L25.1038 0" transform="translate(391.1045 94.44775)" id="Fill-107" fill="#FFFFFF" stroke="none"/>
    <path d="M26.102 0L26.0725 0.0424547C25.7535 0.494669 22.873 4.49924 18.3386 8.36882C16.0714 10.3041 13.392 12.2045 10.4231 13.616C7.44929 15.028 4.19575 15.9506 0.755725 15.9506C0.520175 15.9506 0.279716 15.9463 0.0441658 15.9372L0 16.9862C0.25518 16.9957 0.505453 17 0.755725 17C4.51472 17 8.03326 15.9601 11.1936 14.4155C15.934 12.0972 19.8697 8.64406 22.6374 5.77145C25.4002 2.89789 26.9853 0.601521 27 0.585302L26.102 0" transform="translate(393.0889 106.1129)" id="Fill-108" fill="#FFFFFF" stroke="none"/>
    <path d="M28.0733 0L28.0542 0.0405784C27.8024 0.489272 25.4831 4.54151 20.8779 8.81716C16.2679 13.0942 9.39102 17.591 0 18.9855L0.156834 20C10.1182 18.521 17.3325 13.6395 22.0423 9.13946C26.7568 4.63759 28.981 0.51166 29 0.479944L28.0733 0" transform="translate(394.5024 117.8575)" id="Fill-109" fill="#FFFFFF" stroke="none"/>
    <path d="M7.27552 0C9.10774 1.59597 10.606 3.61187 11.6214 6.00558C15.4031 14.927 11.1385 25.8232 2.08124 31C-2.1157 20.7388 0.244518 8.90641 7.27552 0" transform="translate(173.9912 79.8042)" id="Fill-343" fill="#B22097" stroke="none"/>
    <path d="M44 1.44324C37.2432 10.3432 35.0877 24.355 29.53 30.5182C21.774 39.12 9.46426 40.5092 2.03179 33.6208C1.27522 32.9168 0.599546 32.1501 0 31.3399C1.01352 24.5422 4.10641 17.7383 9.25965 12.0229C18.8191 1.4225 32.6752 -2.36187 44 1.44324" transform="translate(180.9492 55.46863)" id="Fill-344" fill="#B22097" stroke="none"/>
    <path d="M51 5.01173C47.1478 2.6565 42.7635 1.02221 37.9951 0.344263C20.2365 -2.17752 3.73399 9.4169 0 26.536C20.335 29.1784 39.5813 20.3392 51 5.01173" transform="translate(134.6689 76.14563)" id="Fill-345" fill="#FF7089" stroke="none"/>
    <path d="M23.4218 0C19.1527 17.0875 2.24789 33.3947 0.346652 46.3209C-2.30623 64.3621 10.5553 81.0844 29.0666 83.6691C30.9629 83.9334 32.8396 84.0315 34.6917 83.9913C42.9304 76.1231 48.6832 65.6514 50.442 53.6621C53.7138 31.4299 42.3261 10.4482 23.4218 0" transform="translate(148.6738 -0.0001220703)" id="Fill-346" fill="#FF7089" stroke="none"/>
    <path d="M0.328962 8.99991C0.334035 9.01896 -0.690607 6.00573 0.851428 2.73747C1.38911 1.54805 3.28622 -0.230786 4.27028 0.0247699C5.23912 0.272918 5.19854 1.8417 4.41231 3.46763C2.90578 6.538 0.339107 8.98668 0.328962 8.99991" transform="translate(402.7646 280.9878)" id="Fill-347" fill="#FF586B" stroke="none"/>
    <path d="M0.000518867 4.9973C-0.0244493 5.00224 0.849438 2.05407 3.11156 0.516755C3.92053 -0.0468953 5.5934 -0.289942 5.91798 0.523671C6.24756 1.3358 5.54845 2.65823 4.45485 3.48913C2.38748 5.06696 0.0105061 5.00669 0.000518867 4.9973" transform="translate(402.4482 289.4852)" id="Fill-348" fill="#FF586B" stroke="none"/>
    <path d="M0.000337489 3.40058C-0.0242965 3.39566 1.30101 0.805928 3.52299 0.0843452C4.32113 -0.18176 5.8041 0.183704 5.97653 1.15369C6.14897 2.1217 5.35083 3.25105 4.24723 3.68783C2.15827 4.52501 0.000337489 3.41484 0.000337489 3.40058" transform="translate(401.6279 297.7039)" id="Fill-349" fill="#FF586B" stroke="none"/>
    <path d="M3.99999 5C4.00458 4.99274 1.93019 4.87472 0.571747 3.207C0.0760971 2.60419 -0.286462 0.994585 0.310154 0.349106C0.897591 -0.296372 1.93019 -0.00540767 2.57729 0.882012C3.78888 2.56561 3.98164 4.99637 3.99999 5" transform="translate(398.064 289.5605)" id="Fill-350" fill="#FF586B" stroke="none"/>
    <path d="M4.99999 5C5.00503 4.99116 2.71263 5.10329 0.949254 3.48968C0.309399 2.90621 -0.345571 1.23304 0.208634 0.473691C0.757801 -0.283795 1.94179 -0.0958197 2.79325 0.774266C4.39037 2.4279 4.97984 4.9986 4.99999 5" transform="translate(394.5884 295.9164)" id="Fill-351" fill="#FF586B" stroke="none"/>
    <path d="M4 3.8476C4 3.83954 2.4021 4.43476 0.966248 3.32589C0.444119 2.92559 -0.226547 1.53167 0.0750273 0.706891C0.372101 -0.115044 1.24982 -0.219386 1.96099 0.389595C3.29332 1.5478 3.982 3.8476 4 3.8476" transform="translate(396.2437 305.9645)" id="Fill-352" fill="#FF586B" stroke="none"/>
    <path d="M0.000179102 3.97729C-0.00956011 3.97945 0.375139 1.57257 1.83115 0.366433C2.3522 -0.0739287 3.53551 -0.21478 3.87151 0.499729C4.20752 1.21478 3.8569 2.33079 3.14107 2.98378C1.78732 4.22607 0.00991831 3.98269 0.000179102 3.97729" transform="translate(400.6943 305.5308)" id="Fill-353" fill="#FF586B" stroke="none"/>
    <path d="M0.951013 32.9627C-2.60431 13.9046 4.97165 -0.0429813 4.7277 9.95254e-05C4.81353 0.0107487 4.90388 0.0199457 4.99424 0.0296268C5.23818 -0.0153902 -2.36036 13.9404 1.21755 33C1.1272 32.9869 1.04136 32.9743 0.951013 32.9627" transform="translate(400.1899 284.0665)" id="Fill-354" fill="#FF586B" stroke="none"/>
    <path d="M2.30124 0L1.54594 1.68668L0 2.70002L1.68728 3.45461L2.70318 5L3.45848 3.31332L5 2.30087L3.31272 1.54539L2.30124 0" transform="translate(124.8979 147.4038)" id="Fill-355" fill="#FFFFFF" stroke="none"/>
    <path d="M1.37917 0L0.925344 1.01278L0 1.62092L1.01375 2.07275L1.61493 3L2.07466 1.98722L3 1.38144L1.98625 0.927841L1.37917 0" transform="translate(117.5049 159.1068)" id="Fill-356" fill="#FFFFFF" stroke="none"/>
    <path d="M0 0.296091L0.689017 2.10502L0.295954 4L2.10405 3.30881L4 3.70437L3.30636 1.89544L3.70405 0L1.89595 0.690261L0 0.296091" transform="translate(145.4321 152.9164)" id="Fill-357" fill="#FFFFFF" stroke="none"/>
    <path d="M0 0.147748L0.345361 1.05174L0.149485 2L1.05155 1.65508L2 1.85277L1.65464 0.947233L1.85052 0L0.948454 0.344916L0 0.147748" transform="translate(124.8091 134.9047)" id="Fill-358" fill="#FFFFFF" stroke="none"/>
    <path d="M0 0.147786L0.344473 1.05252L0.1491 2L1.04884 1.65499L2 1.85324L1.65553 0.946962L1.8509 0L0.946015 0.34552L0 0.147786" transform="translate(179.7969 122.807)" id="Fill-359" fill="#FFFFFF" stroke="none"/>
    <g id="Group-14" transform="matrix(0.9612617 -0.2756374 0.2756374 0.9612617 0 155.8439)">
      <path d="M2.70826 43.8375C2.70826 43.8375 11.0719 64.3544 7.30948 84.4155C-1.81147 133.107 39.3646 174.417 77.3534 146.682C91.2433 136.544 89.3118 110.068 111.273 125.32C145.063 148.788 155.176 104.108 131.547 101.143C126.457 100.504 124.976 92.7685 124.209 88.7219C122.541 79.9041 113.19 66.4544 104.294 61.1475C98.936 57.9508 92.6956 57.8733 92.6956 57.8733C113.828 11.1251 68.127 27.5429 54.6205 9.4832C34.8545 -16.9579 -11.6562 17.5634 2.70826 43.8375" transform="translate(271.0137 40.8186)" id="Fill-360" fill="#FF586B" stroke="none"/>
      <path d="M2.48143 21.1715C-2.96816 28.8511 1.12381 39.7427 9.25995 43.3695L18.4525 38.3765C27.908 42.5943 40.2079 39.5017 45.906 31.4583L49.7877 26.0014C55.5002 17.9642 52.4694 8.02363 43.0139 3.79866L38.7403 1.88822C29.28 -2.33293 16.9898 0.76108 11.2772 8.79833L2.48143 21.1715" transform="translate(260.8188 45.07056)" id="Fill-361" fill="#FF586B" stroke="none"/>
      <path d="M22.0314 68.695C22.0314 68.695 16.341 71.8405 9.67409 52.2549C3.01197 32.6765 0 0 0 0L21.2965 41.772C21.2965 41.772 28.2971 58.4765 22.0314 68.695" transform="translate(209.8442 18.7085)" id="Fill-362" fill="#E6B09C" stroke="none"/>
      <path d="M39.2705 52.4987C39.2705 52.4987 36.7086 54.492 27.3583 46.6121C-10.5785 14.6534 1.99958 0 1.99958 0L35.1454 33.0968C35.1454 33.0968 42.0495 40.8816 39.2705 52.4987" transform="translate(220.8887 62.07813)" id="Fill-363" fill="#E6B09C" stroke="none"/>
      <path d="M34.164 32.8369C27.7493 21.0936 19.124 18.883 14.7463 15.1035C10.3879 11.3284 5.03744 7.98742 5.10005 7.99176C11.5534 8.19828 13.7831 11.9291 16.4415 13.0489C19.0999 14.1619 18.0019 14.0589 16.0514 9.73106C14.9341 7.26099 8.45673 5.09708 4.49806 3.20614C1.07876 1.55974 0 0 0 0C0 0 5.89949 1.00035 11.4378 3.24417C18.1126 5.95302 24.7201 10.0757 26.0107 11.1984C28.3609 13.2284 32.9071 20.9448 35.2091 26.9022C37.8049 33.6173 38.7536 41.3072 34.164 32.8369" transform="translate(180.1089 2.55127)" id="Fill-364" fill="#E6B09C" stroke="none"/>
      <path d="M18.6906 11.055C18.6906 11.055 11.0329 3.44292 8.9156 2.53065C7.45127 1.8926 0 0 0 0C0 0 2.56858 3.00613 5.49723 3.93113C8.4547 4.85711 18.6906 11.055 18.6906 11.055" transform="translate(183.5073 0.0002441406)" id="Fill-365" fill="#E6B09C" stroke="none"/>
      <path d="M26.4826 129.097C26.4826 129.097 10.9457 161.893 6.7916 93.1115C5.97134 79.5227 -10.17 73.3956 10.4132 53.0887C31.0972 32.6758 9.83759 -14.1006 34.1048 4.13534C58.372 22.3703 51.8339 96.046 26.4826 129.097" transform="translate(117.2407 136.0615)" id="Fill-366" fill="#A21D89" stroke="none"/>
      <path d="M99.8734 11.1079C101.195 16.5511 98.9939 17.1134 93.9094 22.2255C83.9663 32.2654 68.3908 39.94 50.9267 40.6013C30.4734 41.3827 10.6688 45.3631 0 30.503C8.72246 22.9701 19.6988 17.8628 31.9487 12.979C70.0728 -2.18882 95.8269 -5.62128 99.8734 11.1079" transform="translate(80.70947 153.9194)" id="Fill-367" fill="#E6B09C" stroke="none"/>
      <path d="M42.9036 0.0449479C47.1137 0.502463 53.4883 5.83083 47.9909 19.4311C45.9169 24.5639 40.8678 29.7656 29.177 40.3279C16.814 51.5072 10.9543 59.7983 2.8442 66.0793C-5.15148 72.2774 5.64769 50.728 11.4931 40.7166C31.4322 6.50217 36.467 -0.652883 42.9036 0.0449479" transform="translate(47.57617 178.5803)" id="Fill-368" fill="#E6B09C" stroke="none"/>
      <path d="M0 48.4718C0 48.4718 5.59629 48.3362 12.185 40.3685C21.4363 29.1771 26.2919 35.3559 27.3279 28.5598C27.8846 24.8635 24.9025 23.783 28.6205 16.4403C34.8509 4.14893 28.7899 0 28.7899 0L0 48.4718" transform="translate(28.03564 221.9497)" id="Fill-369" fill="#E6B09C" stroke="none"/>
      <path d="M101.087 18.4558C100.881 24.1392 98.6153 24.0848 92.3497 27.6934C80.0917 34.7858 63.0626 38.0241 46.1294 33.8925C26.2885 29.0576 6.20806 27.5257 0 10.0745C10.409 5.09775 22.327 3.10899 35.4042 1.68984C76.0967 -2.7037 101.738 0.990957 101.087 18.4558" transform="translate(89.20508 174.3284)" id="Fill-370" fill="#FFC4AD" stroke="none"/>
      <path d="M68.8903 1.1838C72.4324 3.54296 75.6533 11.1893 64.4902 20.6029C60.2771 24.1553 53.375 26.3839 38.0898 30.247C21.9275 34.3391 12.8781 38.9106 2.75989 40.6694C-7.21934 42.4085 12.3365 28.4663 22.1576 22.3717C55.6949 1.53803 63.4789 -2.42018 68.8903 1.1838" transform="translate(28.88525 183.6826)" id="Fill-371" fill="#FFC4AD" stroke="none"/>
      <path d="M0 29.0239C0 29.0239 5.02031 31.4474 14.5386 27.5196C27.9116 22.0008 29.3529 29.5708 33.4107 24.1369C35.6162 21.1844 33.4784 18.8885 40.1673 14.2012C51.3736 6.35466 47.9251 0 47.9251 0L0 29.0239" transform="translate(0 208.3438)" id="Fill-372" fill="#FFC4AD" stroke="none"/>
      <path d="M40.2359 4.80562L29.2822 17.2537C28.3141 18.3454 27.5511 19.5548 26.9836 20.8155C26.9979 21.4543 27.2602 22.0638 27.7609 22.522C27.7609 22.522 32.997 27.0703 32.8396 34.5037C32.2245 39.1313 32.3103 41.8031 26.5545 45.7592C24.9045 46.8855 -0.741746 53.9207 0.0164822 57.0522C7.74182 63.4285 18.3046 67.1502 29.4252 69.7313C32.3628 65.9226 36.4782 52.4097 38.2474 48.4291C40.1453 44.1373 42.7395 39.4021 46.4114 34.8447C40.8034 28.2239 41.4281 15.6457 48.4381 4.61062C49.4873 2.97381 50.6175 1.43209 51.8239 0.0296474C47.5845 -0.242675 43.2641 1.36196 40.2359 4.80562" transform="translate(237.0303 48.47192)" id="Fill-373" fill="#FFC4AD" stroke="none"/>
      <path d="M128.149 5.52828C132.023 4.03551 135.449 6.20966 135.05 14.3626C134.613 23.3376 114.198 48.3757 115.309 66.1061C115.683 72.1186 114.588 86.5532 111.93 94.1023C105.841 111.41 90.9484 119.399 65.7136 123.908C36.1056 129.2 10.7892 167.525 10.7892 167.525C12.9133 156.374 -6.96312 115.553 2.63388 102.908C19.7806 80.3245 14.4896 78.5963 15.0614 69.8799C15.5228 62.7502 19.7854 54.5789 19.4539 48.4619C18.9925 40.0639 13.7735 34.8117 13.7735 34.8117C13.7735 34.8117 51.7146 45.5173 81.1832 63.369C85.0373 65.702 85.0085 45.1899 88.5407 33.2005C95.5571 9.35894 98.2675 6.08687 102.496 3.07821C118.423 -8.25388 100.637 16.1438 128.149 5.52828" transform="translate(131.6836 101.1958)" id="Fill-374" fill="#FF7A72" stroke="none"/>
      <path d="M6.79659 18.186C6.79659 18.186 5.46023 19.3042 4.5831 18.2686C3.12276 16.5358 1.76803 12.1274 1.35013 10.5341C0.881719 8.76139 0 0 0 0C0 0 2.22726 2.28564 2.59005 5.80284C3.12735 10.9362 6.79659 18.186 6.79659 18.186" transform="translate(155.4717 67.18042)" id="Fill-375" fill="#FFC4AD" stroke="none"/>
      <path d="M4.00543 17.479C1.88944 14.9071 1.78217 11.0456 2.74753 6.47633C3.64951 2.14171 1.7578 0 1.7578 0C1.7578 0 0.870443 2.7392 0.163486 9.61402C-0.0412876 11.5401 -0.133923 13.6633 0.378011 15.5168C1.90894 21.1005 9.43681 24.106 4.00543 17.479" transform="translate(158.0205 67.18042)" id="Fill-376" fill="#FFC4AD" stroke="none"/>
      <path d="M44.9909 45.6257C42.2977 30.7629 4.25929 0.366233 4.25929 0.366233C4.25929 0.366233 -14.1966 -6.81031 25.7275 42.3733C37.7139 57.1499 45.634 49.308 44.9909 45.6257" transform="translate(174.1621 104.5974)" id="Fill-377" fill="#FFC4AD" stroke="none"/>
      <path d="M2.68639 17.0076C2.68639 17.0076 -0.227269 12.6253 0.0142231 10.0553C0.166468 8.27068 2.48165 0 2.48165 0C2.48165 0 4.0251 2.86825 3.10638 6.1783C1.76242 11.0387 2.68639 17.0076 2.68639 17.0076" transform="translate(159.7192 70.58179)" id="Fill-378" fill="#FFC4AD" stroke="none"/>
      <path d="M48.1126 0.023051C28.7856 2.38315 0.0523096 46.5779 0.0523096 46.5779C0.0523096 46.5779 -3.59583 68.5 50.04 23.1363C66.1225 9.51289 52.8758 -0.54681 48.1126 0.023051" transform="translate(210.6938 102.8965)" id="Fill-379" fill="#FFC4AD" stroke="none"/>
      <path d="M1.14384 3.88719L0 5.05742L0.346474 10.773C0.346474 10.773 4.98353 19.8894 7.96415 22.7085C10.9163 25.5126 17.6702 39.7029 18.9469 41.1635C20.2094 42.6227 28.8855 40.4569 28.8855 40.4569C28.8855 40.4569 18.6621 27.8937 15.0218 22.5537C11.3909 17.2368 8.7805 7.77874 7.42783 5.65463C5.12591 1.98135 4.16243 0 4.16243 0C4.16243 0 2.40633 1.53126 5.7002 7.48256C6.56402 9.04915 4.37601 9.20498 4.37601 9.20498L1.14384 3.88719" transform="translate(160.5688 76.53467)" id="Fill-380" fill="#FFC4AD" stroke="none"/>
      <path d="M1.17337 1.92357C1.17337 1.92357 2.66413 1.92061 3.01999 1.355C3.15945 1.837 3.14503 2.34999 3.20754 2.74247C3.30853 3.63367 5.09744 9.3542 5.09744 9.3542C5.09744 9.3542 3.02961 5.47314 2.18805 4.4816C1.65426 3.86041 0.860795 2.20883 0.17793 0.828741C0.100987 0.657583 0.110605 0.331497 0 0L1.17337 1.92357" transform="translate(163.1177 84.18799)" id="Fill-381" fill="#FFC4AD" stroke="none"/>
      <path d="M0 1.1891C3.0386 0.329835 6.46184 -0.127736 10.1543 0.03121C11.9957 0.128022 13.9141 0.377519 15.8613 0.917452C17.7989 1.45353 19.7798 2.25741 21.6356 3.46203C22.578 4.04964 23.4674 4.75623 24.3184 5.53073C24.7271 5.9358 25.1598 6.32931 25.53 6.77724C25.7271 6.99736 25.9243 7.2141 26.1118 7.44289C26.2993 7.6866 26.4772 7.93273 26.6647 8.17837C28.0926 10.169 29.059 12.3172 29.8523 14.4866C31.4197 18.8402 32.3428 23.3606 33.1554 27.9791C33.9583 32.5967 34.5785 37.3266 35.2949 42.0583C35.6555 44.4208 36.0401 46.7853 36.5113 49.0755C36.6363 49.6371 36.7613 50.2021 36.8911 50.7681C37.0354 51.3094 37.1556 51.8817 37.319 52.3989C37.6075 53.475 37.9681 54.4513 38.3335 55.3048L38.6172 55.8827C38.7133 56.0571 38.8095 56.1881 38.896 56.3451L38.9633 56.4569L39.021 56.5243C39.0643 56.5696 39.1028 56.6187 39.1364 56.6683L39.1893 56.7439L39.3047 56.8653L39.5451 57.1163C40.1605 57.8089 40.8769 58.3642 41.6269 58.9046C43.1655 59.931 45.0502 60.7253 47.2137 61.3071C49.3725 61.8909 51.7668 62.2651 54.2525 62.5267C56.743 62.7824 59.32 62.952 61.9644 63.0232C63.2722 63.0835 64.604 63.083 65.9213 63.1172C66.6233 63.1331 67.33 63.1499 68.032 63.1649C68.7339 63.1793 69.4407 63.2005 70.1523 63.2448C72.989 63.3705 75.8785 63.62 78.9075 64.2365C79.2825 64.3001 79.6671 64.394 80.0566 64.4986L81.2153 64.8001C81.5951 64.8892 82.0038 65.0534 82.3932 65.1791C82.7923 65.3193 83.1769 65.4378 83.576 65.6035C85.1578 66.2585 86.754 67.1043 88.1723 68.1899C88.5377 68.4476 88.8503 68.7467 89.1868 69.0266L89.6772 69.4533C89.8407 69.5978 89.9753 69.7491 90.1244 69.8969C90.4176 70.1927 90.7109 70.4913 90.9946 70.7899L91.759 71.6858C92.0235 71.9878 92.2446 72.2801 92.4706 72.5725L93.1341 73.4486C93.5284 74.0112 93.9563 74.5964 94.312 75.1373L94.8698 75.958L95.0092 76.1637L95.163 76.4171L95.4852 76.9411L96.1102 77.9925C96.3025 78.3437 96.4564 78.6953 96.6295 79.0469L97.1247 80.1007L97.5285 81.1455C97.6584 81.4913 97.793 81.841 97.918 82.1853L98.2353 83.2137C99.0671 85.949 99.5431 88.5807 99.9133 91.1051C100.274 93.6304 100.509 96.0608 100.779 98.327C101.053 100.565 101.351 102.75 101.88 103.868C103.303 106.879 106.567 110.175 109.144 111.111C109.471 111.239 109.697 111.283 109.923 111.332C110.154 111.376 110.395 111.373 110.635 111.343C111.116 111.253 111.563 111.055 111.957 110.648C112.933 109.684 113.563 108.326 113.625 106.852C113.669 106.113 113.582 105.351 113.38 104.622C113.183 103.89 112.866 103.187 112.452 102.583C112.048 101.971 111.539 101.474 110.991 101.145C110.717 100.98 110.438 100.878 110.149 100.806C109.861 100.741 109.568 100.747 109.26 100.783L109.034 100.838L108.976 100.85L108.962 100.853C108.914 100.877 109.015 100.825 108.995 100.834L108.957 100.849L108.803 100.911L108.188 101.155C107.875 101.314 107.558 101.452 107.269 101.672C106.688 102.082 106.245 102.605 106.091 103.278C105.938 103.947 106.053 104.726 106.327 105.451C106.601 106.18 107.01 106.87 107.486 107.502C106.866 107.009 106.284 106.435 105.798 105.732C105.322 105.033 104.928 104.174 104.914 103.165C104.889 102.153 105.389 101.128 106.072 100.382C106.399 99.9978 106.817 99.6689 107.236 99.35C107.418 99.2262 107.601 99.1034 107.784 98.9811L107.923 98.8886L107.957 98.8664L108.053 98.8168L108.154 98.7696L108.543 98.5813C109.087 98.367 109.683 98.2239 110.294 98.2162C110.899 98.2157 111.515 98.3067 112.082 98.4975C113.217 98.8814 114.202 99.5504 115.01 100.359C115.827 101.168 116.491 102.12 117.001 103.173C117.51 104.222 117.866 105.379 118.01 106.609C118.159 107.832 118.111 109.134 117.779 110.409C117.693 110.725 117.616 111.048 117.491 111.355C117.385 111.672 117.26 111.981 117.116 112.28C116.837 112.893 116.501 113.457 116.082 114.039L115.933 114.255L115.746 114.479L115.361 114.921C115.087 115.199 114.803 115.472 114.496 115.716C113.875 116.208 113.174 116.598 112.419 116.883C111.659 117.142 110.851 117.319 110.024 117.346C109.193 117.377 108.356 117.299 107.654 117.15C106.197 116.862 104.923 116.331 103.745 115.714C102.567 115.093 101.485 114.369 100.471 113.566C99.4565 112.76 98.4997 111.885 97.6007 110.911C96.7064 109.927 95.8554 108.881 95.0813 107.588C94.889 107.272 94.6919 106.916 94.5236 106.559C94.3601 106.192 94.2015 105.824 94.0428 105.451C93.8938 105.083 93.8024 104.769 93.687 104.425C93.5716 104.082 93.4562 103.739 93.3793 103.428C93.2014 102.786 93.0283 102.141 92.8937 101.533L92.6822 100.606L92.4899 99.7036C91.9946 97.2962 91.5764 94.9699 91.0763 92.7008C90.5763 90.4399 90.0042 88.2388 89.2541 86.2384L88.9801 85.4895L88.6628 84.7872L88.3502 84.0869L87.9945 83.4506C87.8743 83.2435 87.7685 83.0162 87.6435 82.8211L87.2588 82.2629L87.0713 81.9802C87.0425 81.9296 87.0184 81.8915 86.9752 81.8313L86.8357 81.6473L86.2828 80.9099C84.8068 78.9236 83.451 77.3495 82.1096 76.4195C81.9365 76.3096 81.7634 76.1984 81.5903 76.0828C81.422 75.9638 81.2201 75.8901 81.0374 75.7885C80.6912 75.5732 80.2393 75.4432 79.8402 75.2597C79.6287 75.1768 79.3835 75.119 79.1575 75.0434C78.9171 74.9793 78.7104 74.8859 78.4459 74.8353L77.6815 74.6619C77.4267 74.5998 77.1718 74.5405 76.8882 74.5025C74.715 74.1128 72.2533 73.9173 69.7051 73.8402C69.0753 73.8084 68.431 73.7959 67.7772 73.7896C67.1281 73.7795 66.4742 73.7699 65.8252 73.7593C64.4261 73.7294 63.0318 73.7367 61.6086 73.6721C58.7816 73.5936 55.9353 73.3976 53.0698 73.0652C50.1994 72.7252 47.3003 72.2387 44.353 71.3698C41.425 70.5038 38.4056 69.2057 35.6891 67.2228C34.3526 66.2099 33.0785 65.0765 32.0207 63.8016L31.6168 63.3296L31.4197 63.0883L31.1889 62.7718L30.7418 62.1298L30.5254 61.8061C30.4581 61.7006 30.4101 61.6019 30.3524 61.4998C30.1312 61.0938 29.8956 60.6752 29.7081 60.2764L29.2081 59.106C28.6311 57.5868 28.2176 56.1385 27.9148 54.7586C27.7465 54.0568 27.6407 53.3897 27.5013 52.7077C27.3907 52.0387 27.2801 51.3716 27.1839 50.7117C26.8041 48.0848 26.5685 45.5522 26.3762 43.079C25.9964 38.1367 25.7897 33.4242 25.4675 28.9256C25.1406 24.4395 24.7511 20.133 23.905 16.2648C23.477 14.3397 22.9193 12.5282 22.1549 11.037L21.8664 10.484L21.5202 9.93641C21.2991 9.56024 21.0202 9.22789 20.7702 8.87677C20.2269 8.20342 19.6548 7.55608 19.0057 6.98387C16.4479 4.63292 13.116 3.19326 9.81295 2.32725C6.48588 1.47472 3.14438 1.13131 0 1.1891" transform="translate(292.2529 45.9209)" id="Fill-382" fill="#FF7089" stroke="none"/>
      <path d="M0 0.255922C1.28071 0.00581441 2.63336 -0.0502443 4.01 0.0412703C5.38664 0.137576 6.79686 0.409245 8.1687 0.90994C10.9316 1.87444 13.4834 3.90692 15.1958 6.63176C16.064 7.98531 16.7451 9.48404 17.2728 11.058C17.3927 11.4552 17.5174 11.8538 17.6373 12.2539C17.7476 12.654 17.8388 13.0565 17.9395 13.4594C18.1266 14.2687 18.3664 15.0794 18.5103 15.9102C19.2154 19.2181 19.6567 22.6803 19.9829 26.2394C20.309 29.7979 20.5153 33.458 20.7311 37.1847C20.9518 40.9061 21.1724 44.7109 21.7241 48.4726C22.031 50.3316 22.3668 52.2194 23 53.9285C23.6139 55.6577 24.4533 57.3557 25.523 58.9355L25.9067 59.5372L26.3432 60.1117C26.6358 60.4955 26.9092 60.8884 27.2162 61.2612C27.859 61.9866 28.4586 62.7518 29.1685 63.4273C30.5115 64.8499 32.0704 66.088 33.6581 67.2877C36.8911 69.566 40.5317 71.357 44.3691 72.586C44.6137 72.6631 44.8439 72.7556 45.0886 72.8217L45.8224 73.0167L47.2854 73.4077C47.7699 73.5557 48.2783 73.6199 48.7724 73.7278L50.2593 74.0229C51.2618 74.1896 52.2691 74.2965 53.2716 74.4369C54.3365 74.5557 55.3966 74.6755 56.4614 74.7929C57.5311 74.9342 58.6007 75.0674 59.6656 75.2265C60.7352 75.4076 61.8001 75.5499 62.8746 75.7804C65.0091 76.1776 67.1532 76.7271 69.2781 77.5177C71.3886 78.3131 73.5519 79.4323 75.3219 81.2214C75.7871 81.6354 76.1421 82.1639 76.5354 82.6483C76.7369 82.8902 76.8712 83.172 77.0391 83.4317C77.1926 83.6995 77.3652 83.9606 77.4948 84.2342C78.0224 85.3319 78.4301 86.4531 78.6699 87.5512L78.857 88.3739C78.8714 88.4463 78.8906 88.5014 78.9002 88.5881L78.9385 88.8521C78.9577 89.0294 78.9865 89.2071 79.0009 89.382C79.0297 90.0887 78.9961 90.7955 78.8426 91.4557C78.5692 92.7935 77.9552 93.9395 77.2405 94.9246C76.521 95.9136 75.6432 96.719 74.7031 97.3941C73.7582 98.0634 72.7365 98.5938 71.6476 98.957C70.5588 99.3183 69.4028 99.5138 68.2372 99.4932C67.0716 99.4726 65.8964 99.2249 64.8364 98.7443C63.7715 98.2647 62.8506 97.5623 62.1119 96.7693C61.9392 96.5628 61.7617 96.3577 61.5938 96.1531C61.426 95.9466 61.2917 95.7396 61.143 95.5346C60.8552 95.111 60.5913 94.6731 60.3659 94.2069C59.915 93.2793 59.584 92.2578 59.5265 91.1845C59.4593 90.1184 59.6464 89.0217 60.1165 88.0725C61.0326 86.1704 62.9801 84.9069 64.9707 84.9912C65.954 85.0253 66.9037 85.4388 67.5561 86.0587C67.8967 86.3611 68.1509 86.7166 68.3715 87.0616C68.4866 87.2326 68.5778 87.4497 68.6737 87.6394C68.7552 87.845 68.8272 88.062 68.8704 88.2733C68.9519 88.7036 68.9231 89.1357 68.7936 89.5282C68.6497 89.9182 68.4051 90.2478 68.1173 90.5065C67.8295 90.7734 67.4937 90.9493 67.1676 91.0767C66.8366 91.2013 66.496 91.2779 66.1603 91.2636C66.7982 91.0944 67.3594 90.6632 67.7048 90.1707C67.8727 89.9182 67.9878 89.6388 68.0214 89.3466C68.0406 89.0514 67.9878 88.7625 67.8679 88.5047C67.8055 88.3773 67.7336 88.2608 67.652 88.1444C67.5513 88.0309 67.4841 87.9183 67.3642 87.8081C67.134 87.5776 66.9085 87.3629 66.6495 87.2192C66.1411 86.9039 65.5703 86.7942 65.0139 86.8766C63.8866 87.0275 62.865 87.9638 62.5196 89.0907C62.1503 90.2167 62.4237 91.5065 63.1767 92.6876C63.359 92.9851 63.5749 93.275 63.8099 93.5596C63.9346 93.6981 64.0545 93.849 64.1792 93.975L64.5486 94.3425C65.0666 94.8015 65.6374 95.1541 66.2514 95.375C67.4745 95.8149 68.9135 95.7286 70.2902 95.1877C71.6572 94.6405 72.9571 93.6468 73.7774 92.4437C74.1755 91.8452 74.4825 91.2032 74.5784 90.5957C74.6455 90.2905 74.6312 89.9996 74.6216 89.716L74.588 89.5052L74.5736 89.4031C74.5688 89.3648 74.5496 89.2991 74.5352 89.2512L74.3817 88.6168C74.1755 87.7659 73.8637 87.0002 73.5135 86.2744C73.4272 86.0952 73.3073 85.9385 73.2066 85.767C73.0962 85.606 73.0243 85.4172 72.89 85.2744C72.6262 84.9807 72.4295 84.641 72.1129 84.3851C70.9953 83.2649 69.4268 82.4068 67.6664 81.7422C65.9012 81.0825 63.9826 80.5659 61.9872 80.1759C61.0087 79.9512 59.9822 79.807 58.9749 79.6197C57.958 79.4544 56.9267 79.3106 55.9002 79.1587C54.8593 79.0241 53.8185 78.8895 52.7776 78.7558C51.684 78.5843 50.5807 78.4434 49.4919 78.2407L47.8658 77.8838C47.3238 77.7534 46.777 77.6672 46.2445 77.4961L44.6473 77.0309L43.8462 76.7995C43.5776 76.7185 43.3234 76.6136 43.0596 76.5221C38.8625 75.0727 34.8957 73.0004 31.3749 70.3915C29.6337 69.0342 27.9405 67.6222 26.4727 65.9988C25.7005 65.2279 25.0385 64.3549 24.3478 63.5236C24.0169 63.0939 23.7147 62.6416 23.3933 62.2022L22.928 61.54L22.5107 60.8458C21.3499 59.0236 20.4385 57.0505 19.7862 54.9989C19.1099 52.9319 18.8317 50.8913 18.5726 48.8866C18.1409 44.8844 18.0882 41.0245 18.0306 37.28C17.9827 33.5346 17.9635 29.9038 17.8196 26.3821C17.6805 22.8639 17.431 19.4543 16.9322 16.1924C16.8363 15.3702 16.654 14.5768 16.5149 13.7761C16.4381 13.3804 16.371 12.9769 16.2846 12.5893C16.1935 12.2031 16.1024 11.8203 16.0112 11.4384C15.5987 9.92437 15.0423 8.47978 14.3084 7.16551C12.8598 4.52165 10.591 2.46713 7.98643 1.36943C5.39144 0.258797 2.5806 -0.0617435 0 0.255922" transform="translate(294.8018 50.17285)" id="Fill-383" fill="#FF7089" stroke="none"/>
      <path d="M0 0.435057C1.66605 0.10261 3.49966 -0.0341109 5.44817 0.00714515C7.40147 0.0551173 9.47924 0.303133 11.6145 0.870164C13.7545 1.42664 15.9472 2.33811 18.0393 3.67989C19.0782 4.35918 20.0883 5.1464 21.0363 6.04204C21.9794 6.94536 22.8459 7.96621 23.6359 9.06429C24.4162 10.1729 25.0817 11.342 25.7041 12.5461C26.2977 13.7526 26.8674 14.9922 27.3558 16.2616C28.3659 18.7974 29.1846 21.432 29.9362 24.1295C31.4443 29.5196 32.5933 35.1823 33.9194 40.841C34.5945 43.6508 35.2886 46.4236 36.2078 48.85C36.6627 50.0464 37.2084 51.1752 37.759 51.8842C38.5394 52.8355 39.358 53.6467 40.2533 54.2824C41.1485 54.9218 42.1443 55.403 43.2407 55.7815C44.3322 56.1643 45.5339 56.3975 46.7308 56.6191C49.158 57.0053 51.6523 57.1856 54.0796 57.3334C55.2956 57.3958 56.4973 57.4605 57.6846 57.5075C57.9814 57.5215 58.2734 57.5344 58.5702 57.5474C58.8718 57.5665 59.1735 57.5848 59.4751 57.6049C60.0783 57.6447 60.6767 57.6855 61.2704 57.7248C63.6402 57.9695 65.9047 58.3662 68.0112 58.9678C70.1225 59.5675 72.0662 60.3839 73.761 61.387C74.6131 61.8773 75.3887 62.4348 76.1116 62.9956C76.4659 63.2839 76.8106 63.5698 77.1409 63.8586C77.4809 64.1325 77.7777 64.4505 78.1607 64.629C77.7394 64.5436 77.366 64.2966 76.9734 64.1056C76.5856 63.8989 76.193 63.695 75.7957 63.4964C74.9866 63.1088 74.1535 62.7355 73.2679 62.4328C71.5108 61.8049 69.5958 61.3655 67.5659 61.1136C65.5313 60.8589 63.3865 60.7821 61.1603 60.8229C60.6049 60.8507 60.04 60.8776 59.4703 60.9083C59.1878 60.9208 58.9006 60.9347 58.6133 60.9495C58.3165 60.9683 58.0149 60.987 57.7181 61.0052C56.5212 61.0877 55.2908 61.1433 54.0413 61.1956C51.5326 61.2767 48.9282 61.3084 46.161 61.0608C44.7727 60.9016 43.346 60.7217 41.8714 60.3024C40.4065 59.8918 38.8936 59.2724 37.51 58.3763C36.1217 57.484 34.9152 56.3581 33.8811 55.1708C32.6555 53.6928 31.9853 52.2258 31.3773 50.7766C30.2091 47.8762 29.4766 44.9849 28.7681 42.0648C27.4036 36.2348 26.3935 30.6158 25.1727 25.3489C24.5599 22.7191 23.9183 20.1713 23.1475 17.7741C22.7789 16.5662 22.348 15.4177 21.9076 14.2985C21.4432 13.1961 20.9549 12.1359 20.3947 11.1636C19.8298 10.1974 19.2074 9.2888 18.5085 8.4536C17.7999 7.62944 17.0339 6.87004 16.22 6.18212C14.5827 4.82403 12.7635 3.74753 10.9059 2.94208C9.04358 2.12703 7.15252 1.55569 5.31412 1.15416C3.47572 0.75743 1.69477 0.506056 0 0.435057" transform="translate(300.7485 44.22021)" id="Fill-384" fill="#FF7089" stroke="none"/>
      <path d="M0 0.895362C2.01972 0.507756 4.19406 0.0662229 6.58583 0.0118136C8.97278 -0.0695595 11.5433 0.268452 14.1187 1.05666C14.7614 1.25889 15.404 1.48905 16.0466 1.73269C16.6699 2.01003 17.3319 2.25126 17.9552 2.57531C18.5834 2.89069 19.226 3.19162 19.8396 3.56093C20.1489 3.73957 20.463 3.91917 20.777 4.09877C21.0863 4.27211 21.4148 4.5196 21.7337 4.7329C22.9949 5.63667 24.1593 6.70174 25.1595 7.89056C26.1742 9.07456 27.1116 10.3433 27.9379 11.6814C31.2767 17.0419 33.5573 23.2123 35.5867 29.6437C36.5966 32.8634 37.5146 36.1733 38.4472 39.4927C38.9159 41.1486 39.3894 42.8131 39.9016 44.4213C40.1528 45.2293 40.4331 46.0054 40.7133 46.7291L40.9307 47.2376C41.0032 47.4013 41.0757 47.5241 41.1482 47.6705C41.2158 47.8221 41.298 47.9131 41.3656 48.0388C41.4381 48.1577 41.5444 48.2694 41.6217 48.3903C42.361 49.323 43.5545 50.1352 44.8687 50.7005C46.1878 51.2754 47.647 51.6211 49.0869 51.7247C50.5317 51.845 51.9619 51.6919 53.2568 51.3245C54.5469 50.9297 55.7018 50.3163 56.615 49.451C56.8517 49.2454 57.0499 49.0028 57.2673 48.7736C57.4509 48.5198 57.6587 48.2877 57.8278 47.9993L58.0984 47.5852L58.3206 47.1654C58.4898 46.8895 58.5671 46.5986 58.7072 46.3189C58.8908 45.7469 59.0406 45.1773 59.0792 44.6033C59.1082 44.0323 59.0744 43.4588 58.9488 42.8892C58.4414 40.6045 56.528 38.4931 54.315 37.2812C53.7545 36.9846 53.1795 36.7313 52.5997 36.5349C52.0199 36.3509 51.4352 36.2281 50.8699 36.1747C50.3046 36.1179 49.7682 36.166 49.2802 36.2773C49.1546 36.3023 49.0338 36.3321 48.9275 36.3784C48.8067 36.428 48.7101 36.441 48.5651 36.5219C48.2945 36.6572 48.0094 36.7809 47.763 36.9369C46.7338 37.5248 45.9076 38.3029 45.5162 39.1595C45.3036 39.5837 45.2359 40.0368 45.2553 40.5048C45.2553 40.9752 45.4196 41.463 45.6322 41.9445C45.8737 42.4183 46.1685 42.8916 46.5405 43.3221C46.9078 43.7819 47.2605 44.142 47.6809 44.4237C48.4926 44.9919 49.5218 45.12 50.464 44.7733C51.4062 44.4377 52.2228 43.6822 52.6384 42.7645C53.0732 41.8511 53.0008 40.7258 52.3774 39.8875C52.7543 40.2352 53.0539 40.7056 53.2037 41.2444C53.3583 41.7846 53.3486 42.3798 53.2037 42.9532C52.9138 44.1002 52.1213 45.1763 50.9569 45.8239C50.377 46.1513 49.6909 46.3516 48.971 46.3699C48.251 46.3974 47.5117 46.225 46.8546 45.9072C46.1975 45.5976 45.6032 45.1291 45.12 44.6674C44.8591 44.4459 44.6223 44.1772 44.3855 43.9104C44.1343 43.6557 43.9362 43.3331 43.7187 43.0298C43.3177 42.3899 42.9553 41.6604 42.8248 40.8168C42.675 39.992 42.7137 39.0743 42.994 38.2485C43.2694 37.4261 43.6946 36.6528 44.2357 36.0216C44.7673 35.3836 45.3761 34.815 46.0332 34.3517C46.3569 34.0999 46.7 33.9001 47.0431 33.6868C47.1977 33.5794 47.4393 33.4764 47.6422 33.3762C47.8548 33.265 48.0722 33.1846 48.2897 33.1129C49.1642 32.809 50.0823 32.6622 50.9665 32.6636C51.8556 32.6627 52.7253 32.7729 53.5757 32.9641C54.4213 33.1692 55.2427 33.4538 56.0352 33.8043C56.8276 34.1697 57.591 34.6002 58.3206 35.0986C59.0454 35.6104 59.7412 36.1824 60.379 36.8368C61.0168 37.4998 61.6015 38.2297 62.1088 39.0435C62.6017 39.8668 63.0172 40.7667 63.3071 41.7317C63.5874 42.7019 63.7227 43.7294 63.7178 44.7656C63.7033 45.8051 63.5101 46.8278 63.2201 47.8135C63.0414 48.2858 62.8964 48.789 62.6693 49.2315L62.3407 49.9114L61.9639 50.5541C61.7319 50.9846 61.4179 51.4011 61.1183 51.82C60.7897 52.2168 60.466 52.6231 60.0891 52.9838C58.6299 54.4822 56.7551 55.5521 54.7982 56.2002C52.8316 56.8257 50.7781 57.0683 48.7535 56.9441C46.7242 56.8305 44.7093 56.3894 42.7765 55.5723C40.8534 54.7528 38.9593 53.5794 37.447 51.7112C37.2634 51.4671 37.0798 51.2369 36.9106 50.9774C36.756 50.7193 36.5676 50.4492 36.4419 50.1954C36.3163 49.9431 36.1762 49.6754 36.0651 49.4327L35.7607 48.7153C35.3983 47.7865 35.0938 46.8885 34.8281 46.0107C34.2821 44.2552 33.8279 42.5497 33.3834 40.8606C32.4991 37.4887 31.6874 34.2078 30.8176 31.0294C29.0782 24.6924 27.2131 18.691 24.57 13.6218C23.9177 12.3507 23.1833 11.1729 22.4054 10.078C21.6323 8.97104 20.7529 8.01527 19.8203 7.18806C19.5739 6.99016 19.3661 6.78023 19.0907 6.58811C18.8201 6.39455 18.5544 6.19954 18.2838 6.00598C17.7571 5.60393 17.2014 5.2717 16.6651 4.91683C16.1288 4.55234 15.5586 4.27162 15.0126 3.94613C14.4569 3.65579 13.9013 3.37219 13.3408 3.11362C11.0891 2.10296 8.78917 1.45053 6.52785 1.16982C4.27137 0.861176 2.06321 0.908362 0 0.895362" transform="translate(302.4478 42.51929)" id="Fill-385" fill="#FF7089" stroke="none"/>
      <path d="M7.47556 0.173081C8.86469 -0.106394 10.4448 -0.052796 12.0678 0.373117C13.6909 0.788023 15.3378 1.69728 16.7412 3.03148C17.0658 3.38178 17.4382 3.71677 17.7389 4.10584C18.0349 4.49873 18.3452 4.89402 18.6364 5.31084C18.8894 5.74632 19.1472 6.18755 19.4049 6.63164C19.6484 7.08483 19.8298 7.56243 20.0446 8.04194C20.8275 9.95903 21.3765 11.9967 21.7488 14.0956C23.2812 22.5096 22.9422 31.9342 22.8181 41.6316C22.799 42.8438 22.7942 44.0388 22.799 45.2189C22.8133 46.4129 22.8324 47.5968 22.8515 48.7726C22.8849 51.2118 22.8229 53.6223 22.5985 55.9883C22.3837 58.3537 22.0352 60.6743 21.491 62.9163C20.9373 65.1545 20.1926 67.3218 19.1519 69.3126C18.1113 71.2943 16.7794 73.1281 15.0991 74.4978C13.4522 75.8851 11.5045 76.769 9.62371 77.137C7.73334 77.5126 5.92412 77.4256 4.31062 77.1131C2.69235 76.7967 1.23638 76.2627 0 75.575C1.37482 75.8851 2.8642 76.0219 4.40132 75.9636C5.93844 75.9057 7.52329 75.6348 9.01745 75.0376C10.5021 74.4408 11.8769 73.5043 12.9891 72.2457C14.1205 71.0072 14.9845 69.4332 15.6576 67.7013C17.0038 64.2103 17.5384 60.0473 17.7055 55.6729C17.7914 53.4816 17.7628 51.2195 17.6673 48.9124C17.6244 47.7906 17.5671 46.511 17.5432 45.2806C17.5241 44.0469 17.5193 42.8065 17.5384 41.5685C17.6005 36.6126 17.8535 31.8701 17.9967 27.3525C18.1304 22.8427 18.2354 18.5419 17.9347 14.6024C17.8153 12.6265 17.548 10.7496 17.1279 9.0359C16.7269 7.32124 16.0443 5.77647 15.1134 4.48677C13.2708 1.86764 10.2682 0.436286 7.47556 0.173081" transform="translate(288.8545 51.87354)" id="Fill-386" fill="#FF7089" stroke="none"/>
      <path d="M0 0C3.66501 0.586163 8.30608 1.25374 13.6601 1.70725C16.3538 1.92658 19.2102 2.15788 22.1958 2.40068C25.2005 2.68419 28.3823 2.96673 31.6693 3.94128C32.4875 4.19796 33.3009 4.48626 34.0856 4.86697C34.8702 5.22997 35.6262 5.67774 36.3248 6.19925C37.0377 6.70592 37.6692 7.32848 38.229 7.96636C38.4874 8.28865 38.7458 8.61286 39.0041 8.9342C39.2482 9.26272 39.4587 9.60848 39.6836 9.94131C41.4012 12.6748 42.3007 15.5357 43.0376 18.1562C43.76 20.7939 44.3151 23.2502 44.9083 25.4794C45.4969 27.7106 46.1093 29.7123 46.7265 31.4641C45.7504 29.8895 44.7792 27.9893 43.8749 25.8319C42.9658 23.6778 42.1333 21.2633 41.2003 18.75C40.2673 16.2474 39.229 13.612 37.6357 11.2999C37.4252 11.0236 37.229 10.7272 37.0137 10.4537C36.7889 10.1884 36.5592 9.9212 36.3295 9.65397C35.8607 9.1564 35.3726 8.69284 34.8033 8.3035C34.2387 7.90315 33.6262 7.55164 32.966 7.25521C32.3153 6.94536 31.6167 6.70017 30.8942 6.47365C27.9852 5.6059 24.8895 5.24242 21.9327 4.8483C18.9614 4.46854 16.0906 4.09548 13.4113 3.61994C8.03815 2.69855 3.44492 1.36436 0 0" transform="translate(338.1299 119.0537)" id="Fill-387" fill="#FF7089" stroke="none"/>
      <path d="M8.06214 32.3145C6.45643 28.2664 5.36358 22.0321 4.69253 15.1841C4.49601 13.4867 4.36659 11.8205 4.17487 10.2985L4.11735 9.7246L4.04066 9.17841C4.01669 8.99634 3.99273 8.81428 3.96876 8.63465C3.94959 8.45016 3.92562 8.27052 3.89686 8.12341C3.83934 7.80832 3.801 7.48789 3.70993 7.18202C3.67638 7.02764 3.64282 6.87276 3.60448 6.71837C3.55655 6.56592 3.50861 6.41493 3.46548 6.2654C3.0964 5.05019 2.55477 3.9078 1.94603 2.85815C1.3373 1.80364 0.67584 0.846229 0 0C1.07367 0.13594 2.27197 0.54716 3.46548 1.26328C4.65898 1.97648 5.87645 3.00768 6.87343 4.42826C6.99326 4.60692 7.11788 4.78947 7.24251 4.97056C7.35754 5.16282 7.46779 5.35654 7.57803 5.5522C7.8081 5.94303 7.99024 6.36784 8.17718 6.80091C8.27304 7.02278 8.34973 7.22912 8.41684 7.43206C8.48874 7.63937 8.55584 7.84522 8.62774 8.05447C8.69964 8.26566 8.76674 8.47783 8.83864 8.69145C8.89616 8.89973 8.94888 9.11335 9.0064 9.32551C9.48093 11.0364 9.75414 12.7973 9.96025 14.618C10.6744 21.8723 9.67745 28.2674 8.06214 32.3145" transform="translate(296.5005 52.72388)" id="Fill-388" fill="#FF7089" stroke="none"/>
      <path d="M0 0C1.29818 0.462938 2.65385 1.20118 4.02868 2.14695C5.4083 3.097 6.78791 4.2849 8.0861 5.7121C9.38428 7.13835 10.5914 8.80483 11.6453 10.667C11.8896 11.1427 12.1435 11.6204 12.3926 12.1042C12.5124 12.3264 12.6561 12.6495 12.7615 12.9187C12.8716 13.1978 12.9675 13.466 13.0585 13.7342C13.4225 14.7998 13.71 15.8242 14.0261 16.8245C14.3998 17.9603 14.8117 19.0667 15.3195 19.9807C15.5734 20.4337 15.8464 20.8336 16.1243 21.1345C16.4021 21.424 16.6608 21.6107 16.886 21.6975C16.9434 21.7126 17.0009 21.7439 17.0584 21.7529C17.0919 21.7595 17.1063 21.7681 17.1542 21.779L17.3123 21.8088C17.4177 21.8311 17.5183 21.8524 17.6189 21.8586C17.7195 21.869 17.8201 21.8884 17.9111 21.8856C18.2847 21.9078 18.5913 21.8614 18.8117 21.7894C19.032 21.7192 19.1614 21.6344 19.2811 21.5131C19.4009 21.4023 19.5302 21.1919 19.6021 20.9564C19.6117 20.9317 19.6404 20.9531 19.6452 20.8872C19.6548 20.8284 19.6548 20.7412 19.6404 20.6507C19.6212 20.4697 19.5638 20.2722 19.4967 20.1092L19.444 19.994L19.3961 19.8912C19.3674 19.8381 19.3434 19.7794 19.3099 19.7301C19.2428 19.6263 19.1326 19.5311 18.9889 19.4548L18.8644 19.4155L18.8308 19.4041L18.8165 19.396L18.8117 19.3951C18.8404 19.3861 18.7398 19.4155 18.8787 19.3738L18.8739 19.3742L18.8548 19.3761L18.7159 19.3861L18.644 19.3894L18.6296 19.3828L18.6105 19.3543L18.5051 19.3349C18.3614 19.3268 18.1985 19.324 18.0596 19.4249C17.9159 19.5211 17.7913 19.7362 17.7674 20.0144C17.7338 20.2921 17.7817 20.6067 17.8584 20.9242C17.5518 20.8142 17.2356 20.6417 16.9578 20.3475C16.6896 20.0561 16.4596 19.6097 16.4692 19.0577C16.4644 18.5057 16.7422 17.9233 17.1638 17.5012C17.2692 17.3955 17.3746 17.304 17.5087 17.2055C17.5806 17.1586 17.6572 17.1126 17.7338 17.0676L17.8392 17.0046L17.9015 16.9671L18.0165 16.8923L18.2752 16.7966C18.4141 16.7463 18.553 16.6994 18.6967 16.6568C19.2907 16.5151 19.9566 16.5179 20.5985 16.7179C20.9242 16.8141 21.2308 16.9643 21.5278 17.1387C21.6571 17.2282 21.7961 17.3211 21.9302 17.4197C22.0499 17.5201 22.1697 17.6267 22.2895 17.7367C22.7445 18.1816 23.1086 18.6952 23.3721 19.2814C23.511 19.577 23.6212 19.8921 23.693 20.2456C23.7793 20.591 23.8032 21.0341 23.7793 21.4321C23.7505 21.6856 23.7314 21.8889 23.6834 22.1168C23.6308 22.3433 23.5876 22.5693 23.5014 22.7958C23.3385 23.2474 23.123 23.7041 22.8164 24.1178C22.5242 24.5405 22.1458 24.9091 21.7338 25.2313C21.317 25.5346 20.8619 25.7919 20.3925 25.9644C19.4488 26.3197 18.4907 26.4064 17.6093 26.3425C17.3841 26.3339 17.1734 26.3008 16.9626 26.2686C16.7422 26.2397 16.5363 26.197 16.3351 26.1468L16.0285 26.0743C15.9231 26.0454 15.789 26.0018 15.6692 25.961C15.4249 25.8876 15.1902 25.7781 14.9554 25.6691C14.0261 25.2143 13.3076 24.5376 12.7663 23.86C12.2345 23.1739 11.8561 22.4722 11.5495 21.7861C10.9411 20.4138 10.6106 19.0899 10.3136 17.8267C10.0501 16.7274 9.84415 15.6612 9.62859 14.6994C9.57589 14.4624 9.5232 14.2288 9.46571 14.0113C9.40344 13.7877 9.36033 13.6219 9.26452 13.3717C9.09686 12.9102 8.93399 12.4496 8.77112 11.9952C8.07173 10.196 7.26216 8.51437 6.3472 6.98862C5.43704 5.46286 4.42149 4.09537 3.34845 2.91741C2.27062 1.74277 1.15926 0.733025 0 0" transform="translate(382.3076 116.5027)" id="Fill-389" fill="#FF7089" stroke="none"/>
    </g>
    <path d="M4.88644 5.26307C5.34871 4.75015 10.9722 -1.11107 17.4535 0.187219C20.1318 0.721468 19.0214 3.40774 16.4813 7.21051C13.355 11.882 10.448 12.4206 8.13662 12.1976C9.14694 13.5667 8.90389 16.1934 7.42654 18.5679C5.7109 21.3288 2.97542 22.7042 1.31697 21.6401C0.673604 21.2251 0.287585 20.5052 0.158913 19.618C-0.131792 18.2513 -0.0317135 16.1657 0.525868 13.7577C1.41228 9.96465 3.93808 6.35096 4.88644 5.26307" transform="translate(83.29053 81.16675)" id="Fill-390" fill="#9AE2F6" stroke="none"/>
    <path d="M18.8593 16.8549C18.9911 16.1707 20.2067 7.96936 12.1566 1.25054C8.83692 -1.52032 6.79144 0.613228 4.89729 4.71223C2.5589 9.74874 4.84359 13.1394 7.43584 15.6214C4.80942 14.9642 1.9682 16.1233 0.669635 18.5613C-0.84373 21.3923 0.293734 24.8834 3.21794 26.3531C4.34564 26.9213 5.58075 27.1026 6.75238 26.9464C8.65629 26.809 11.0093 25.989 13.2647 24.5505C16.8333 22.283 18.5322 18.2711 18.8593 16.8549" transform="translate(70.89941 69.09009)" id="Fill-391" fill="#FF7089" stroke="none"/>
    <g id="Group-412" transform="translate(199.8555 226.6477)">
      <path d="M64.8702 92.2458C65.6444 91.0132 66.2406 89.7086 66.6734 88.3561C63.4421 91.6079 59.2635 94.4473 54.3203 96.5529C51.5891 97.7183 48.7906 98.5817 46.0112 99.1572C45.5208 98.3466 45.0928 97.5649 44.7274 96.8406C43.9724 95.3298 42.8809 93.4785 41.5586 91.4065C45.7468 90.7686 49.5166 89.1187 52.421 86.4999C48.6848 88.2218 44.2609 88.8933 39.64 88.4712C34.5333 80.8212 27.4311 71.2541 22.9496 64.5437C28.5083 63.5217 33.2735 60.6741 36.1394 56.0995C36.399 55.6846 36.6298 55.263 36.851 54.8323C32.8648 58.8957 26.9647 60.9211 20.5309 60.7729C20.4348 60.6075 20.3386 60.4453 20.2424 60.288C18.4777 57.2755 15.8763 53.3987 13.1354 49.2907C13.8952 48.2106 14.7703 47.2341 15.7369 46.3617C14.5732 46.8993 13.472 47.5377 12.4574 48.273C10.3032 45.0326 8.09613 41.6844 6.17272 38.5246C12.9143 38.246 18.9009 35.5059 22.4543 30.4713C17.0832 33.6104 9.92817 34.3159 2.72983 32.4051C2.01817 30.9768 1.43153 29.653 1.04204 28.4789C-1.68919 20.3445 1.66234 0.294766 2.97987 0.759042C6.36026 1.94947 9.38 -1.16377 25.8011 0.502444C29.4411 0.870795 32.9802 1.59694 36.4183 2.61567C37.3415 7.89345 36.3557 13.9357 33.3072 19.5152C35.2113 17.7876 36.9472 15.7382 38.4186 13.389C40.1977 10.5578 41.4143 7.5721 42.1019 4.60083C47.0354 6.57544 51.7526 9.12464 56.2774 12.0499C56.1909 15.6346 55.0272 19.5617 52.7383 23.2112C52.3777 23.7877 51.993 24.3393 51.5987 24.8726C54.479 23.1901 57.1814 20.6025 59.2683 17.2763C59.7443 16.5147 60.1771 15.7401 60.5522 14.9588C63.5046 17.0648 66.3705 19.3114 69.1546 21.6409C71.5829 23.6692 74.2132 26.5168 76.9588 29.9542C76.752 30.0885 76.5453 30.2252 76.3385 30.3619C75.1412 31.1672 74.0064 31.9989 72.9341 32.8459C74.8046 32.2046 76.5789 31.7638 78.1994 31.5355C80.4354 34.4358 82.7434 37.6992 85.0708 41.2038C83.3109 44.1851 80.3103 47.4802 76.3962 50.5737C79.9064 49.3742 83.7532 47.4782 87.5279 44.9727C90.288 49.2826 93.0625 53.8683 95.7841 58.5456C92.5961 60.4573 89.408 61.9259 86.47 62.8967C89.1869 63.4535 93.0529 62.8574 97.3517 61.2583C101.295 68.1294 105.098 75.1074 108.551 81.6126C104.603 83.4447 100.891 84.5863 97.8518 84.9316C100.102 86.6103 104.641 86.3513 110.08 84.4999C110.695 85.675 111.306 86.8261 111.893 87.958C123.938 111.014 100.795 123.92 100.795 123.92C100.795 123.92 75.7567 125.479 67.8515 122.673C63.3123 121.066 52.8874 109.733 47.2326 101.109C54.6617 101.023 61.2638 97.9965 64.8702 92.2458" transform="translate(0.969956 119.0721)" id="Fill-392" fill="#FF586B" stroke="none"/>
      <path d="M100.796 123.063C100.796 123.063 75.7576 124.622 67.8524 121.816C63.3132 120.21 52.8883 108.876 47.2335 100.252C54.6627 100.166 61.2648 97.1397 64.8711 91.389C65.6453 90.1563 66.2416 88.8518 66.6743 87.4992C63.443 90.7511 59.2644 93.5904 54.3213 95.696C51.59 96.8615 48.7915 97.7248 46.0122 98.3003C45.5217 97.4898 45.0937 96.708 44.7283 95.9838C43.9734 94.4729 42.8818 92.6216 41.5595 90.5496C45.7477 89.9117 49.5176 88.2618 52.4219 85.6431C48.6857 87.3649 44.2619 88.0364 39.6409 87.6143C34.5343 79.9643 27.4321 70.3973 22.9506 63.6868C28.5092 62.6648 33.2744 59.8172 36.1403 55.2426C36.4 54.8277 36.6308 54.4061 36.852 53.9754C32.8657 58.0388 26.9657 60.0643 20.5319 59.916C20.4357 59.7506 20.3395 59.5885 20.2434 59.4311C18.4786 56.4186 15.8772 52.5418 13.1364 48.4339C13.8961 47.3537 14.7713 46.3772 15.7378 45.5048C14.5741 46.0424 13.473 46.6808 12.4584 47.4161C10.3042 44.1758 8.09706 40.8275 6.17366 37.6677C12.9152 37.3891 18.9018 34.649 22.4553 29.6144C17.0842 32.7535 9.9291 33.459 2.73076 31.5482C2.0191 30.1199 1.43246 28.7961 1.04298 27.622C-1.544 19.9221 1.32187 1.54775 2.75 0C50.0561 39.0529 84.4658 82.6262 101.204 122.819C100.945 122.982 100.796 123.063 100.796 123.063" transform="translate(0.9690249 119.929)" id="Fill-394" fill="#FF7089" stroke="none"/>
      <path d="M64.4045 84.1163C62.635 83.3345 50.4791 76.1881 39.0348 78.2697C30.0622 79.8956 29.5428 77.3536 30.1679 73.2864C30.793 69.2192 36.395 66.1736 31.8461 63.6891C16.9397 55.5643 10.53 51.1853 18.4159 45.449C23.4889 41.7607 16.3339 36.2177 12.1456 35.152C3.25951 32.8891 -1.70768 27.3442 4.25968 24.0218C10.1213 20.7566 12.0254 16.7599 8.68351 14.4879C5.3416 12.2164 -2.60687 11.589 0.855257 4.61099C2.21607 1.86323 9.84236 0.434428 15.1317 3.96398C18.1467 5.97552 25.6576 14.6956 26.8116 5.58799C28.0041 -3.79969 34.4956 0.39366 35.7122 5.45273C36.169 7.33957 41.7468 24.4689 44.7137 19.3153C48.2143 13.2322 53.7345 15.8543 54.1432 24.8123C54.3259 28.8766 52.0371 37.8297 55.528 37.4034C59.0142 36.9755 64.0054 37.506 64.1833 43.7416C64.4959 54.4995 60.7308 82.4904 64.4045 84.1163" transform="translate(65.9418 158.5835)" id="Fill-395" fill="#FFB5CC" stroke="none"/>
      <path d="M0 0.485379C0 0.485379 0.0865532 0.529505 0.254851 0.620633C2.80817 1.98708 23.7781 13.7887 36.1648 38.3877C42.7909 51.5437 47.133 60.9971 51.3116 68.8725C55.4902 76.748 59.5005 83.055 65.4534 89.8897L65.8622 89.5347C59.9429 82.7289 55.9614 76.4746 51.7925 68.6183C47.6283 60.7621 43.2814 51.3087 36.6505 38.143C23.3501 11.7354 0.269277 0.0148683 0.245234 0L0 0.485379" transform="translate(72.26434 163.2371)" id="Fill-396" fill="#FFFFFF" stroke="none"/>
      <path d="M0.0961702 1.08826C0.0961702 1.08779 0.139447 1.08011 0.235617 1.06524C0.879957 0.961644 3.73621 0.544372 7.38106 0.544372C11.9924 0.541974 17.8684 1.21728 22.1672 3.98711L22.4654 3.52955C18.0031 0.665237 12.0405 0.00239812 7.38106 0C3.164 0 0.00961702 0.549648 0 0.551566L0.0961702 1.08826" transform="translate(78.0057 184.3027)" id="Fill-397" fill="#FFFFFF" stroke="none"/>
      <path d="M0.235617 0C0.235617 0.00863323 0 1.90171 0 4.87586C0 9.92294 0.673192 18.0837 4.31804 25.4349L4.8037 25.1937C1.21655 17.9638 0.54817 9.87498 0.54817 4.87586C0.54817 3.40293 0.605873 2.1986 0.663575 1.36357C0.692426 0.945818 0.721277 0.620633 0.740511 0.400486C0.764553 0.179859 0.778979 0.0671474 0.778979 0.0666677L0.235617 0" transform="translate(97.12915 164.6357)" id="Fill-398" fill="#FFFFFF" stroke="none"/>
      <path d="M0 0.330941C0.0769362 0.422069 0.697234 1.18467 4.36613 1.95687C8.03983 2.72426 14.7862 3.48207 27.1344 3.48207C27.471 3.48207 27.8124 3.48207 28.1634 3.48207L28.1586 2.9353C27.8124 2.9353 27.471 2.9401 27.1344 2.9401C14.8054 2.9401 8.09272 2.17749 4.47672 1.42448C2.67353 1.04558 1.6397 0.671474 1.0723 0.398088C0.788596 0.263793 0.620298 0.15348 0.528936 0.0815361C0.480851 0.0479624 0.456808 0.0239812 0.442383 0.00959248L0.432766 0L0.331787 0.0863323L0.437574 0.00479624L0.432766 0L0.331787 0.0863323L0.437574 0.00479624L0 0.330941" transform="translate(85.37715 208.306)" id="Fill-399" fill="#FFFFFF" stroke="none"/>
      <path d="M5.876 0C5.87119 0.0019185 4.40459 4.83125 2.938 10.3949C2.20711 13.1772 1.4714 16.1422 0.918425 18.7821C0.370255 21.4234 0 23.7304 0 25.2364C0 25.4138 0.00480851 25.5817 0.0144255 25.74L0.557787 25.7016C0.54817 25.5577 0.543362 25.4042 0.543362 25.2364C0.543362 23.8167 0.904 21.5145 1.45217 18.8929C2.27442 14.9552 3.51502 10.2687 4.54404 6.56941C5.05855 4.71998 5.52017 3.1166 5.85676 1.97605C6.02506 1.4053 6.1597 0.950615 6.25106 0.638859C6.34723 0.326624 6.39532 0.158276 6.39532 0.157796L5.876 0" transform="translate(109.4486 177.8657)" id="Fill-400" fill="#FFFFFF" stroke="none"/>
      <path d="M5.03451 0C5.02971 0.0143887 0 11.487 0 21.6358C0 23.5016 0.168298 25.3241 0.577022 27.0268L1.10596 26.9021C0.71166 25.2522 0.543362 23.468 0.543362 21.6358C0.543362 16.6477 1.78877 11.2855 3.03898 7.17517C3.66409 5.12238 4.28919 3.38135 4.75562 2.15351C4.99124 1.53959 5.18839 1.05517 5.32302 0.724232C5.45766 0.393291 5.5346 0.215831 5.5346 0.215831L5.03451 0" transform="translate(120.5658 200.2579)" id="Fill-401" fill="#FFFFFF" stroke="none"/>
      <path d="M63.3713 104.731C63.3713 104.731 67.0738 118.962 59.8034 123.273C52.5329 127.585 41.9157 130.492 34.3808 125.998C26.8506 121.499 22.3739 116.391 31.664 119.225C40.9588 122.055 46.8925 118.146 47.9456 117.345C48.9938 116.539 54.8795 110.87 50.6191 108.611C46.3636 106.347 44.5604 107.868 42.2523 109.863C39.9442 111.858 33.6787 121.034 26.5958 118.017C19.5177 114.995 7.506 101.681 12.4972 102.103C17.4885 102.525 31.2312 105.618 36.2753 104.084C41.3146 102.554 45.9693 102.026 44.1036 95.2346C42.6706 90.0162 35.4915 94.6254 34.3038 94.9851C33.1161 95.3449 22.7634 101.244 17.0172 97.8149C11.2711 94.3904 5.33736 85.0473 2.10123 75.5225C-1.13009 66 3.43319 67.683 9.20821 73.8476C14.9784 80.0113 32.039 89.6949 38.3237 87.4598C44.6085 85.2248 46.5703 79.4549 41.7234 77.3734C36.8716 75.2923 24.4752 78.7403 16.772 75.2649C9.06396 71.7905 1.7406 64.8029 0.461532 57.4335C-0.817532 50.065 0.548085 40.7594 4.73149 45.9537C8.91009 51.147 26.5766 67.5933 32.5824 68.6783C38.5834 69.7617 41.8772 65.6892 41.2858 63.7664C40.6992 61.8446 38.5546 59.5879 32.241 59.0839C25.9274 58.5769 14.839 55.1625 11.9827 47.9489C9.13128 40.7354 6.29907 21.3941 11.8866 26.9649C17.4837 32.5386 19.9023 39.3987 21.946 41.8476C23.9944 44.2971 33.7557 55.5524 37.6554 54.5279C41.5551 53.5034 42.2235 46.6741 37.0928 45.8074C31.9717 44.9422 21.5565 40.0275 18.705 30.7122C15.8584 21.395 15.7286 9.3109 21.3305 16.4985C26.9276 23.6852 30.6542 29.5021 32.5055 31.8494C34.3567 34.1962 38.6507 38.7066 37.7996 33.7947C36.9437 28.882 34.15 25.045 30.9331 22.4679C27.7162 19.89 24.5281 14.2318 27.1343 10.0438C29.7454 5.85617 33.9288 1.51461 34.602 0.0162687C35.2752 -1.4816 62.5394 100.942 63.3713 104.731" transform="translate(112.1126 120.7358)" id="Fill-402" fill="#B22097" stroke="none"/>
      <path d="M27.8954 103.882C27.8954 103.882 32.6655 118.434 39.1521 117.916C45.6388 117.398 56.2608 116.108 61.002 103.513C65.7384 90.9181 67.0752 87.8725 66.854 85.0283C66.6376 82.1889 65.9884 80.7692 61.8724 84.2801C57.7611 87.7957 53.9624 94.4481 48.8124 96.3378C43.6673 98.2276 37.1758 96.4242 39.9407 90.6303C42.7056 84.8317 45.3359 86.7262 51.5918 84.9276C57.8524 83.1338 64.0747 82.6446 63.7765 73.8977C63.4832 65.1503 61.353 58.9022 60.7231 56.8327C60.0884 54.7621 58.6507 52.1832 56.9629 56.8984C55.2703 61.615 50.3319 75.5087 44.48 79.3352C38.6328 83.1626 32.6703 80.9899 36.5604 74.632C40.4552 68.277 45.8504 66.8496 49.3173 62.9934C52.7843 59.1397 58.7324 50.327 54.6596 40.8967C50.5916 31.4673 45.9706 25.5444 45.0185 33.3781C44.0616 41.2099 44.2876 57.8442 40.1715 62.7603C36.0555 67.675 29.7852 71.1988 29.1456 66.9757C28.5013 62.7536 29.0446 60.6481 34.3917 56.2207C39.734 51.7937 42.6672 43.3596 42.7297 37.1988C42.7922 31.0385 40.5418 21.9165 37.7769 18.8781C35.012 15.8387 31.7278 12.5269 31.3047 18.9069C30.8767 25.2878 32.7761 45.2896 28.2705 51.4004C23.7649 57.5118 20.0046 57.577 20.2499 50.6071C20.4999 43.6377 25.0872 38.1465 26.852 32.9767C28.6215 27.803 30.7565 21.0129 27.3713 15.5802C23.9813 10.1446 20.2595 3.62656 20.0672 9.71682C19.8796 15.81 19.9758 24.6154 19.6488 30.9656C19.3218 37.3139 18.4755 38.4343 17.2686 38.3695C16.0569 38.3067 12.7823 36.0702 14.4508 25.9727C16.1146 15.8752 17.1195 12.4454 15.0759 9.29619C13.0323 6.14794 1.21299 1.75938 0.0349004 0.0212244C-1.14319 -1.71693 27.8954 103.882 27.8954 103.882" transform="translate(146.6796 120.7308)" id="Fill-403" fill="#A21D89" stroke="none"/>
      <path d="M0.375846 7.33489C-0.412749 5.25188 -0.0232605 1.00433 2.14538 0.185616C4.3092 -0.634061 7.06448 1.35062 8.21371 4.37417C10.3968 10.1124 8.24256 16.2473 8.24256 16.2473C8.24256 16.2473 2.5541 13.0726 0.375846 7.33489Z" transform="translate(143.3483 0.4606193)" id="Fill-404" fill="#FFB5CC" stroke="none"/>
      <path d="M1.47135 3.1607C2.36093 1.45803 5.37106 -0.716581 7.2031 0.229716C9.03034 1.17697 9.38616 4.11083 8.10229 6.58617C5.65476 11.2879 0.360584 13.3877 0.360584 13.3877C0.360584 13.3877 -0.966566 7.86005 1.47135 3.1607Z" transform="translate(155.558 12.61527)" id="Fill-405" fill="#FFB5CC" stroke="none"/>
      <path d="M5.198 1.26052C6.70306 0.0657744 10.3431 -0.689633 11.627 0.919505C12.906 2.52768 12.0357 5.35123 9.84783 7.08891C5.69328 10.3839 -6.94734e-13 10.1451 -6.94734e-13 10.1451C-6.94734e-13 10.1451 1.04345 4.55793 5.198 1.26052Z" transform="translate(158.7652 27.47776)" id="Fill-406" fill="#FFB5CC" stroke="none"/>
      <path d="M4.31497 6.1681C2.45888 5.66881 -0.392562 3.49084 0.0450124 1.86827C0.487395 0.245707 3.2042 -0.437277 5.90177 0.289832C11.0276 1.66683 14.3936 5.72301 14.3936 5.72301C14.3936 5.72301 9.44084 7.5451 4.31497 6.1681Z" transform="translate(141.4769 20.60276)" id="Fill-407" fill="#FFB5CC" stroke="none"/>
      <path d="M4.27685 6.49295C2.41596 5.99557 -0.411445 3.74038 0.0501723 2.02141C0.516598 0.305797 3.25264 -0.45057 5.95503 0.274142C11.0809 1.65258 14.3988 5.87855 14.3988 5.87855C14.3988 5.87855 9.39792 7.87282 4.27685 6.49295Z" transform="translate(145.1069 31.54716)" id="Fill-408" fill="#FFB5CC" stroke="none"/>
      <path d="M3.09154 6.38189C1.67303 6.00299 -0.399442 3.9502 0.0669837 2.23315C0.528601 0.516094 2.71166 -0.390395 4.76971 0.161172C8.68864 1.21634 11.0208 5.17804 11.0208 5.17804C11.0208 5.17804 7.00566 7.43707 3.09154 6.38189Z" transform="translate(150.6103 48.20667)" id="Fill-409" fill="#FFB5CC" stroke="none"/>
      <path d="M3.36115 1.67375C4.42383 0.532246 7.13582 -0.618851 8.21774 0.383562C9.29965 1.38598 8.82361 3.6498 7.27527 5.3093C4.33727 8.45563 0 9.18946 0 9.18946C0 9.18946 0.423149 4.82008 3.36115 1.67375Z" transform="translate(162.2562 44.04177)" id="Fill-410" fill="#FFB5CC" stroke="none"/>
      <path d="M29.9763 99.3982C23.754 95.8106 15.5555 83.1054 11.8434 42.9753C9.92477 22.1946 5.16915 11.8716 2.02438 5.04037C1.20213 3.24945 0.490468 1.70314 0 0.314633L0.904 3.5753e-13C1.37523 1.3463 2.08209 2.87343 2.89472 4.64276C6.06353 11.533 10.8576 21.9452 12.7954 42.8889C16.4643 82.5346 24.3984 95.0384 30.409 98.5493C33.5923 100.405 35.8619 99.4366 35.958 99.3934L36.3523 100.262C36.2946 100.29 35.5109 100.636 34.2414 100.636C33.1354 100.636 31.6592 100.372 29.9763 99.3982Z" transform="translate(149.9272 13.71886)" id="Fill-411" fill="#FFB5CC" stroke="none"/>
    </g>
    <path d="M47.0584 202C12.5971 148.848 2.75862 96.7819 0.56585 62.4601C-1.81046 25.252 4.06269 0.247131 4.12065 0L6.36655 0.532725C6.30376 0.778894 0.507892 25.5194 2.87454 62.4058C5.05765 96.4314 14.8285 148.052 49 200.755L47.0584 202" transform="translate(106.4028 193.2471)" id="Fill-413" fill="#FFFFFF" stroke="none"/>
    <path d="M1.49257 19C1.49257 19 -1.28846 12.3633 0.741742 5.60135C1.47775 3.15485 4.72311 -0.563265 7.16331 0.0718492C9.6035 0.708806 10.6507 4.33803 9.58374 7.90185C7.55354 14.6647 1.49257 19 1.49257 19" transform="translate(108.8882 176.9926)" id="Fill-414" fill="#FFFFFF" stroke="none"/>
    <path d="M0 12C0 12 1.56907 5.94078 6.38058 1.90538C8.12197 0.441131 12.1852 -0.84218 13.4731 0.69734C14.761 2.23051 13.5865 5.34129 11.0515 7.47259C6.23999 11.5071 0 12 0 12" transform="translate(110.0942 197.2548)" id="Fill-415" fill="#FFFFFF" stroke="none"/>
    <path d="M0 9.76997C0 9.76997 1.7504 3.78667 6.2559 0.820054C7.89021 -0.251457 11.5652 -0.499873 12.619 1.47506C13.6728 3.44999 12.4493 6.42057 10.0737 7.97949C5.56378 10.9461 0 9.76997 0 9.76997" transform="translate(109.7119 221.4813)" id="Fill-416" fill="#FFFFFF" stroke="none"/>
    <path d="M12 10.9859C12 10.9859 6.38101 11.3873 2.25833 7.90944C0.766485 6.64322 -0.796827 3.02572 0.458289 1.24969C1.71341 -0.526343 4.63457 -0.369103 6.80534 1.46553C10.928 4.94825 12 10.9859 12 10.9859" transform="translate(97.91992 198.589)" id="Fill-417" fill="#FFFFFF" stroke="none"/>
    <path d="M17 6.53591C17 6.53591 11.1849 8.9955 5.12458 7.5388C2.92797 7.00704 -0.450303 4.47093 0.049818 2.46033C0.554842 0.455019 3.74679 -0.504083 6.93874 0.264449C12.9941 1.71778 17 6.53591 17 6.53591" transform="translate(110.2271 335.917)" id="Fill-418" fill="#FFFFFF" stroke="none"/>
    <path d="M15 12C15 12 8.3262 11.9124 3.12007 8.00166C1.23239 6.58507 -0.932208 2.75555 0.424706 1.05249C1.77239 -0.642929 5.26621 -0.224461 8.00774 1.83645C13.2231 5.74858 15 12 15 12" transform="translate(91.98242 219.4153)" id="Fill-419" fill="#FFFFFF" stroke="none"/>
    <path d="M13 10.9002C13 10.9002 6.61613 11.7637 2.20513 8.4117C0.608044 7.19868 -0.899569 3.50819 0.648307 1.53588C2.20066 -0.436428 5.48877 -0.492704 7.81059 1.27208C12.2216 4.61876 13 10.9002 13 10.9002" transform="translate(93.68018 243.2126)" id="Fill-420" fill="#FFFFFF" stroke="none"/>
    <path d="M0 10.9909C0 10.9909 0.85543 4.88229 5.55312 1.32782C7.2592 0.0401397 11.522 -0.741062 13.1564 1.04268C14.7908 2.82686 13.9545 5.91261 11.4742 7.78012C6.77653 11.3363 0 10.9909 0 10.9909" transform="translate(109.2256 241.8739)" id="Fill-421" fill="#FFFFFF" stroke="none"/>
    <path d="M0.445021 17C0.445021 17 -1.11693 11.438 1.61167 5.37325C2.59994 3.17492 5.98899 -0.329219 8.07642 0.0248999C10.159 0.377094 10.5977 3.46072 9.16111 6.65501C6.43251 12.7207 0.445021 17 0.445021 17" transform="translate(128.2261 325.7357)" id="Fill-422" fill="#FFFFFF" stroke="none"/>
    <path d="M0 9C0 9 1.72885 4.50075 6.89126 1.46355C8.76016 0.362302 13.0919 -0.62793 14.4538 0.494263C15.8108 1.6175 14.531 3.93101 11.8122 5.53235C6.6498 8.56589 0 9 0 9" transform="translate(114.1045 288.8556)" id="Fill-423" fill="#FFFFFF" stroke="none"/>
    <path d="M11 11C11 11 6.73675 10.8977 2.84867 7.3129C1.44058 6.00918 -0.493715 2.50687 0.115321 0.959664C0.729228 -0.59336 3.01433 -0.199042 5.06556 1.69204C8.94877 5.28019 11 11 11 11" transform="translate(98.35742 267.1182)" id="Fill-424" fill="#FFFFFF" stroke="none"/>
    <path d="M0.686006 14C0.686006 14 -1.01408 7.29643 0.938443 2.5119C1.63908 0.777134 4.32831 -0.950311 6.13658 0.608871C7.94486 2.16805 8.52186 5.64123 7.4915 8.15924C5.54413 12.9442 0.686006 14 0.686006 14" transform="translate(120.4189 308.3232)" id="Fill-425" fill="#FFFFFF" stroke="none"/>
    <path d="M18 9.90063C18 9.90063 9.64827 10.7149 3.4549 7.68158C1.2058 6.58129 -1.18177 3.22079 0.651887 1.41283C2.49032 -0.389325 6.83093 -0.454235 10.1019 1.14264C16.3 4.17385 18 9.90063 18 9.90063" transform="translate(96.73828 289.2274)" id="Fill-426" fill="#FFFFFF" stroke="none"/>
    <path d="M16 8.92203C16 8.92203 8.17925 9.61459 2.74529 6.87158C0.773598 5.87943 -1.10376 2.85629 0.778315 1.24842C2.66039 -0.361877 6.6934 -0.396894 9.55661 1.04221C14.9953 3.7823 16 8.92203 16 8.92203" transform="translate(104.395 314.2415)" id="Fill-427" fill="#FFFFFF" stroke="none"/>
    <path d="M17 6.5345C17 6.5345 11.1816 8.99423 5.1231 7.54034C2.92712 7.00806 -0.450173 4.46941 0.0498037 2.46062C0.554682 0.456646 3.75061 -0.506359 6.93674 0.266066C12.9953 1.71803 17 6.5345 17 6.5345" transform="translate(163.1992 206.2909)" id="Fill-428" fill="#FFFFFF" stroke="none"/>
    <path d="M0.0674671 14C0.0674671 14 -0.627383 9.5875 2.44277 4.59495C3.55157 2.78361 6.8977 -0.184499 8.657 0.00901078C10.4163 0.207776 10.4262 2.67897 8.80977 5.30783C5.74454 10.3032 0.0674671 14 0.0674671 14" transform="translate(135.9585 348.9489)" id="Fill-429" fill="#FFFFFF" stroke="none"/>
    <path d="M0 12C0 12 1.14701 5.62851 4.58806 1.66258C5.83845 0.227014 8.72322 -0.837751 9.63394 0.90434C10.5397 2.64597 9.69301 5.89112 7.88142 7.97581C4.43545 11.9408 0 12 0 12" transform="translate(129.4829 218.9258)" id="Fill-430" fill="#FFFFFF" stroke="none"/>
    <path d="M0 15C0 15 0.846446 9.37816 5.54682 4.05832C7.24444 2.13444 11.5145 -0.612385 13.1506 0.121733C14.7915 0.84769 13.9593 3.88499 11.4767 6.68655C6.78102 12.0045 0 15 0 15" transform="translate(109.7437 263.6379)" id="Fill-431" fill="#FFFFFF" stroke="none"/>
  </g>
</svg>