<svg xmlns="http://www.w3.org/2000/svg" width="243" height="142"  xmlns:v="https://vecta.io/nano"><style><![CDATA[.B{stroke-linejoin:round}.C{stroke-linecap:round}.D{stroke-width:1.5}.E{stroke:#fff}.F{stroke-width:2}.G{fill-rule:nonzero}.H{stroke-width:.583}]]></style><g fill="none" fill-rule="evenodd"><g stroke="#7d7d7d" class="B D"><circle cx="8.764" cy="9.75" r="5.25"/><path d="M16.25 17.25l-3.77-3.79" class="C"/></g><g class="B D E"><path d="M44.75 6.629v6a1.5 1.5 0 0 1-1.5 1.5h-7.5a1.5 1.5 0 0 1-1.5-1.5v-6" class="C"/><path d="M44.75 6.629h0a1.5 1.5 0 0 0-1.5-1.5h-7.5a1.5 1.5 0 0 0-1.5 1.5l4.455 2.773a1.5 1.5 0 0 0 1.59 0l4.455-2.773z"/></g><path d="M21 4l3.666 3.666L28.333 4" stroke="#4a4a4a" class="D"/><path d="M62.6 19h-3.033a.22.22 0 0 1-.233-.233v-5.133a.22.22 0 0 1 .233-.233h1.493l.513-1.4h-2.007a.22.22 0 0 1-.233-.233v-1.633c0-.793.607-1.4 1.4-1.4h.933v-1.4H60.5c-1.493 0-2.567 1.073-2.567 2.567v1.867A.22.22 0 0 1 57.7 12h-1.633v1.4H57.7a.22.22 0 0 1 .233.233v5.133A.22.22 0 0 1 57.7 19h-6.3c-.793 0-1.4-.607-1.4-1.4V6.4c0-.793.607-1.4 1.4-1.4h11.2c.793 0 1.4.607 1.4 1.4v11.2c0 .793-.607 1.4-1.4 1.4zm-2.8-.467h2.8c.513 0 .933-.42.933-.933V6.4c0-.513-.42-.933-.933-.933H51.4c-.513 0-.933.42-.933.933v11.2c0 .513.42.933.933.933h6.067v-4.667h-1.633a.22.22 0 0 1-.233-.233v-1.867a.22.22 0 0 1 .233-.233h1.633V9.9c0-1.727 1.307-3.033 3.033-3.033h1.4a.22.22 0 0 1 .233.233v1.867a.22.22 0 0 1-.233.233h-1.167c-.513 0-.933.42-.933.933v1.4h2.1c.093 0 .14.047.187.093s.047.14.047.233l-.7 1.867c-.047.093-.14.14-.233.14h-1.4v4.667z" fill="#fff" class="G"/><g class="E B H"><rect x="67.459" y="5.292" width="13.417" height="13.417" rx="1.933"/><circle cx="74.167" cy="12.583" r="3.208"/><circle cx="74.167" cy="12.583" r="2.042"/><path d="M67.459 11.125h3.85m5.716 0h3.85" class="C"/><rect x="77.375" y="7.042" width="1.75" height="1.75" rx=".322"/><path d="M69.792 5.49v2.718m1.167-2.916v2.917m1.166-2.917v2.917m1.167-2.917v2.917" class="C"/><path d="M114.333 8.866l-1.167-.292.583-1.167-1.437.408c-1.055-.985-2.709-.927-3.694.128-.455.487-.706 1.13-.702 1.797v.583c-2.064.426-3.87-.7-5.542-2.625-.292 1.556 0 2.722.875 3.5l-1.75-.292c.236 1.207.795 2.158 2.333 2.333l-1.458.583c.583 1.167 1.497 1.347 2.917 1.458h0a6.27 6.27 0 0 1-3.792 1.167c7.44 3.307 11.667-1.554 11.667-5.833v-.775l1.167-.975z"/><path d="M91.333 18.708h0A6.71 6.71 0 0 1 84.624 12a6.71 6.71 0 0 1 11.599-4.592l-1.7 1.597c-.824-.885-1.98-1.385-3.19-1.38h0c-2.416.005-4.371 1.968-4.366 4.384s1.968 4.371 4.384 4.366c1.851-.004 3.499-1.172 4.115-2.917h-3.259v-2.333h5.833v1.225a6.71 6.71 0 0 1-6.708 6.358h0z"/><path d="M87.541 9.783l-1.838-1.47m1.885 5.921l-1.767 1.593m8.12-.309l1.557 1.75" class="C"/></g><g stroke="#ff9d73"><g class="B D"><path d="M4.5 30s3-4.5 7.5-4.5 7.5 4.5 7.5 4.5-3 4.5-7.5 4.5S4.5 30 4.5 30z"/><rect x="10.125" y="28.125" width="3.75" height="3.75" rx="1.036"/></g><path d="M36.6 37h-3.033a.22.22 0 0 1-.233-.233v-5.133a.22.22 0 0 1 .233-.233h1.493l.513-1.4h-2.007a.22.22 0 0 1-.233-.233v-1.633c0-.793.607-1.4 1.4-1.4h.933v-1.4H34.5c-1.493 0-2.567 1.073-2.567 2.567v1.867A.22.22 0 0 1 31.7 30h-1.633v1.4H31.7a.22.22 0 0 1 .233.233v5.133A.22.22 0 0 1 31.7 37h-6.3c-.793 0-1.4-.607-1.4-1.4V24.4c0-.793.607-1.4 1.4-1.4h11.2c.793 0 1.4.607 1.4 1.4v11.2c0 .793-.607 1.4-1.4 1.4zm-2.8-.467h2.8c.513 0 .933-.42.933-.933V24.4c0-.513-.42-.933-.933-.933H25.4c-.513 0-.933.42-.933.933v11.2c0 .513.42.933.933.933h6.067v-4.667h-1.633a.22.22 0 0 1-.233-.233v-1.867a.22.22 0 0 1 .233-.233h1.633V27.9c0-1.727 1.307-3.033 3.033-3.033h1.4a.22.22 0 0 1 .233.233v1.867a.22.22 0 0 1-.233.233h-1.167c-.513 0-.933.42-.933.933v1.4h2.1c.093 0 .14.047.187.093s.047.14.047.233l-.7 1.867c-.047.093-.14.14-.233.14h-1.4v4.667z" fill="#ff9d73" stroke-width=".5" class="G"/><path d="M58.5 25.435l-1.455-.364.727-1.454-1.792.509a3.26 3.26 0 0 0-5.481 2.4v.727c-2.574.531-4.825-.873-6.909-3.273-.364 1.939 0 3.394 1.091 4.363L42.5 27.98c.295 1.505.991 2.691 2.909 2.909l-1.818.727c.727 1.454 1.866 1.68 3.636 1.818h0c-1.377.984-3.036 1.494-4.727 1.454 9.276 4.123 14.545-1.937 14.545-7.272v-.966l1.455-1.216z" class="B"/></g><g class="E B"><g class="C"><path d="M23.5 54v9.5a1 1 0 0 1-1 1h-17a1 1 0 0 1-1-1v-19a1 1 0 0 1 1-1H16"/><path d="M11.5 57.5l9-9"/></g><path d="M18.5 44.5c-1 .124-6.514 5.488-3 9 1.228 1.229 3.938 1 7.243-2.3s4.757-9.7 4.757-9.7h0a27.1 27.1 0 0 0-6.21 1.762S20.5 47 18.5 47v-2.5z"/><g class="D"><circle cx="40.5" cy="51.5" r="7.5"/><path d="M51 62l-5-5" class="C"/><path d="M121.388 12.237v5.25h3.818v-3.818c0-.527.427-.955.955-.955h.955c.527 0 .955.427.955.955v3.818h3.818v-5.25m-12.41-.954l6.484-6.484c.373-.373.977-.373 1.35 0l6.484 6.484" class="C"/></g></g><path d="M57.419 45.468H82.58m-25.161 7.958H82.58m-25.161 8.425H82.58" stroke="#dbdbdb" class="B C F"/><g class="E B"><path d="M61.375 30.125h7.5m2.25 0h7.5" class="C"/><rect x="61.375" y="26.376" width="17.25" height="10.5" rx=".414"/><path d="M71.125 31.25h0c0 .621-.504 1.125-1.125 1.125s-1.125-.504-1.125-1.125v-1.875h2.25v1.875z"/><path d="M67 26.375h0a3 3 0 1 1 6 0" class="C"/><path d="M190.25 12.5h-22.5m18.75 3.747l3.75-3.75-3.75-3.75" class="C D"/><path d="M23.25 4.5H.75M19.5 8.247l3.75-3.75L19.5.747" transform="matrix(-1 0 0 1 163 8)" opacity=".5" class="C D"/><path d="M101.5 42h0A11.47 11.47 0 0 0 90 53.409h0a11.29 11.29 0 0 0 2.191 6.691l-1.436 4.238 4.419-1.405c5.315 3.488 12.451 2.007 15.939-3.308A11.51 11.51 0 0 0 113 53.41h0A11.47 11.47 0 0 0 101.5 42m6.907 14.535c-.084-.138-.307-.223-.642-.388s-1.985-.972-2.291-1.082-.532-.167-.755.166-.866 1.081-1.062 1.3-.391.25-.726.084h0a9.19 9.19 0 0 1-2.7-1.651h0c-.732-.67-1.361-1.445-1.864-2.3-.2-.332-.021-.512.147-.678h0a3.61 3.61 0 0 0 .838-1.138h0c.091-.186.08-.406-.028-.583-.081-.165-.752-1.803-1.031-2.465-.316-.756-1.725-.782-2.292-.168-1.789 1.941-1.376 4.14.2 6.215.168.222 2.32 3.691 5.728 5.023s3.408.887 4.023.831c1.767-.159 2.963-2.323 2.459-3.163" class="C"/></g><g stroke="#000" class="B C"><path d="M121.625 32.375v6.75a.75.75 0 0 0 .75.75h3.375c.207 0 .375-.168.375-.375v-3c0-1.036.839-1.875 1.875-1.875s1.875.839 1.875 1.875v3c0 .207.168.375.375.375h3.375a.75.75 0 0 0 .75-.75V32.75m-15-.75L128 23.375 136.625 32"/><path d="M84.5 32h29m-24-5l-5 5 5 5"/></g><g class="B E F"><circle cx="38" cy="103.997" r="33"/><path d="M30.034 115.871h0c-.708.355-1.571.068-1.926-.64-.1-.2-.152-.42-.152-.643V93.406c0-.792.642-1.435 1.435-1.435.223 0 .443.052.643.152l21.183 10.592c.708.355.995 1.217.64 1.926-.139.277-.363.501-.64.64l-21.183 10.592z"/></g><path stroke="#ff9d73" stroke-width="3" d="M142 32.509L145.354 36 154 27"/><g stroke="#564892" class="B"><g class="C"><path d="M137.5 57v9.5a1 1 0 0 1-1 1h-17a1 1 0 0 1-1-1v-19a1 1 0 0 1 1-1H130"/><path d="M125.5 60.5l9-9"/></g><path d="M132.5 47.5c-1 .124-6.514 5.488-3 9 1.228 1.229 3.938 1 7.243-2.3s4.757-9.7 4.757-9.7h0a27.1 27.1 0 0 0-6.21 1.762S134.5 50 132.5 50v-2.5z"/></g><path d="M179.5 31h-19m14 5l5-5-5-5" class="B C E"/><g stroke="#000" class="B C F"><path d="M148 63.751l15.734-15.195"/><path d="M164 63.751l-15.734-15.195"/></g><path d="M196.5 12h29m-24-5l-5 5 5 5" class="B C E"/><path stroke="#979797" d="M231 9l4 4 4-4" class="F"/><g fill="#000" class="G"><path d="M187 65.5a.5.5 0 0 1-.354-.146l-17-17a.5.5 0 0 1 .707-.707l17 17a.5.5 0 0 1-.353.853z"/><path d="M170 65.5a.5.5 0 0 1-.354-.853l17-17a.5.5 0 0 1 .707.707l-17 17a.5.5 0 0 1-.353.146z"/></g></g></svg>