<svg width="23px" height="19px" viewBox="0 0 23 19" version="1.1" xmlns:xlink="http://www.w3.org/1999/xlink" xmlns="http://www.w3.org/2000/svg">
  <desc>Created with Lunacy</desc>
  <g id="social-media-twitter" transform="translate(0.5 0.5)">
    <path d="M22 3.0047L20 2.50462L21 0.504299L18.536 1.20441L18.536 1.20441C16.7268 -0.48368 13.8919 -0.385284 12.2041 1.42418C11.4246 2.25991 10.9938 3.362 11 4.50494L11 5.5051C7.461 6.23522 4.366 4.30491 1.5 1.00438C1 3.67148 1.5 5.6718 3 7.00534L2.05762e-07 6.50526C0.405 8.5746 1.362 10.2059 4 10.5059L1.5 11.5061C2.5 13.5064 4.066 13.8164 6.5 14.0065L6.5 14.0065C4.60692 15.3593 2.32603 16.0612 0 16.0068C12.755 21.6767 20 13.3424 20 6.00518L20 4.67697L22 3.0047Z" id="Path" fill="none" stroke="#FFFFFF" stroke-width="1" stroke-linecap="round" stroke-linejoin="round"/>
  </g>
</svg>