<svg width="24px" height="24px" viewBox="0 0 24 24" version="1.1" xmlns:xlink="http://www.w3.org/1999/xlink" xmlns="http://www.w3.org/2000/svg">
  <desc>Created with Lunacy</desc>
  <path d="M2.55304e-06 11.409C0.0320026 5.08577 5.17666 -0.018229 11.5 4.894e-05L11.5 8.4202e-05C17.8236 -0.0176158 22.9681 5.08664 23 11.4101C22.9807 13.6197 22.3257 15.7772 21.1133 17.6247C17.6254 22.9398 10.4891 24.421 5.174 20.9331L0.755003 22.3381L2.19088 18.0999C0.766019 16.1602 -0.00161573 13.8158 2.55343e-06 11.409L2.55304e-06 11.409ZM17.7654 14.1471C18.1004 14.3121 18.3234 14.3971 18.4074 14.5351L18.4114 14.5381C18.9153 15.3781 17.7193 17.5421 15.9523 17.7011C15.847 17.7107 15.7597 17.7317 15.6702 17.7532C15.2373 17.8574 14.7534 17.9739 11.9293 16.8701C8.52135 15.5381 6.36935 12.0691 6.20135 11.8471C4.62535 9.77208 4.21235 7.57308 6.00135 5.63208C6.56835 5.01808 7.97735 5.04408 8.29335 5.80008C8.57235 6.46208 9.24335 8.10008 9.32438 8.26508C9.43285 8.44183 9.44341 8.66176 9.35238 8.84808C9.15071 9.2789 8.86592 9.66563 8.51438 9.98608C8.34638 10.1521 8.16738 10.3321 8.36738 10.6641C8.87086 11.5192 9.49911 12.2944 10.2314 12.9641C11.0291 13.6664 11.9427 14.2251 12.9314 14.6151C13.2664 14.7811 13.4614 14.7501 13.6574 14.5311C13.8534 14.3121 14.4964 13.5641 14.7194 13.2311C14.9424 12.8981 15.1684 12.9551 15.4744 13.0651C15.7804 13.1751 17.4304 13.9821 17.7654 14.1471Z" transform="translate(0.5 0.5)" id="Shape" fill="none" fill-rule="evenodd" stroke="#FFFFFF" stroke-width="1" stroke-linecap="round" stroke-linejoin="round"/>
</svg>